ISO-10303-21;
HEADER;
FILE_DESCRIPTION(('FreeCAD Model'),'2;1');
FILE_NAME('Open CASCADE Shape Model','2026-10-08T01:54:33',('FreeCAD'),(
    'FreeCAD'),'Open CASCADE STEP processor 7.8','FreeCAD','Unknown');
FILE_SCHEMA(('AUTOMOTIVE_DESIGN { 1 0 10303 214 1 1 1 1 }'));
ENDSEC;
DATA;
#1 = APPLICATION_PROTOCOL_DEFINITION('international standard',
  'automotive_design',2000,#2);
#2 = APPLICATION_CONTEXT(
  'core data for automotive mechanical design processes');
#3 = SHAPE_DEFINITION_REPRESENTATION(#4,#10);
#4 = PRODUCT_DEFINITION_SHAPE('','',#5);
#5 = PRODUCT_DEFINITION('design','',#6,#9);
#6 = PRODUCT_DEFINITION_FORMATION('','',#7);
#7 = PRODUCT('Open CASCADE STEP translator 7.8 7',
  'Open CASCADE STEP translator 7.8 7','',(#8));
#8 = PRODUCT_CONTEXT('',#2,'mechanical');
#9 = PRODUCT_DEFINITION_CONTEXT('part definition',#2,'design');
#10 = ADVANCED_BREP_SHAPE_REPRESENTATION('',(#11,#15),#1239);
#11 = AXIS2_PLACEMENT_3D('',#12,#13,#14);
#12 = CARTESIAN_POINT('',(0.,0.,0.));
#13 = DIRECTION('',(0.,0.,1.));
#14 = DIRECTION('',(1.,0.,-0.));
#15 = MANIFOLD_SOLID_BREP('',#16);
#16 = CLOSED_SHELL('',(#17,#57,#88,#326,#366,#611,#633,#650,#667,#689,
    #706,#723,#735,#757,#774,#791,#813,#830,#847,#869,#886,#903,#978,
    #995,#1012,#1037,#1062,#1087,#1112,#1142,#1159,#1183,#1197,#1211,
    #1225));
#17 = ADVANCED_FACE('',(#18),#52,.T.);
#18 = FACE_BOUND('',#19,.T.);
#19 = EDGE_LOOP('',(#20,#30,#38,#46));
#20 = ORIENTED_EDGE('',*,*,#21,.T.);
#21 = EDGE_CURVE('',#22,#24,#26,.T.);
#22 = VERTEX_POINT('',#23);
#23 = CARTESIAN_POINT('',(-48.,-35.,-105.5539607717));
#24 = VERTEX_POINT('',#25);
#25 = CARTESIAN_POINT('',(-48.,35.,-105.5539607717));
#26 = LINE('',#27,#28);
#27 = CARTESIAN_POINT('',(-48.,-35.,-105.5539607717));
#28 = VECTOR('',#29,1.);
#29 = DIRECTION('',(0.,1.,0.));
#30 = ORIENTED_EDGE('',*,*,#31,.F.);
#31 = EDGE_CURVE('',#32,#24,#34,.T.);
#32 = VERTEX_POINT('',#33);
#33 = CARTESIAN_POINT('',(-48.,35.,-138.3539607717));
#34 = LINE('',#35,#36);
#35 = CARTESIAN_POINT('',(-48.,35.,-110.5539607717));
#36 = VECTOR('',#37,1.);
#37 = DIRECTION('',(0.,0.,1.));
#38 = ORIENTED_EDGE('',*,*,#39,.F.);
#39 = EDGE_CURVE('',#40,#32,#42,.T.);
#40 = VERTEX_POINT('',#41);
#41 = CARTESIAN_POINT('',(-48.,-35.,-138.3539607717));
#42 = LINE('',#43,#44);
#43 = CARTESIAN_POINT('',(-48.,-35.,-138.3539607717));
#44 = VECTOR('',#45,1.);
#45 = DIRECTION('',(-0.,1.,0.));
#46 = ORIENTED_EDGE('',*,*,#47,.T.);
#47 = EDGE_CURVE('',#40,#22,#48,.T.);
#48 = LINE('',#49,#50);
#49 = CARTESIAN_POINT('',(-48.,-35.,-138.3539607717));
#50 = VECTOR('',#51,1.);
#51 = DIRECTION('',(0.,0.,1.));
#52 = PLANE('',#53);
#53 = AXIS2_PLACEMENT_3D('',#54,#55,#56);
#54 = CARTESIAN_POINT('',(-48.,5.529515453386E-16,-121.9539607717));
#55 = DIRECTION('',(-1.,-0.,-0.));
#56 = DIRECTION('',(0.,0.,-1.));
#57 = ADVANCED_FACE('',(#58),#83,.T.);
#58 = FACE_BOUND('',#59,.T.);
#59 = EDGE_LOOP('',(#60,#61,#69,#77));
#60 = ORIENTED_EDGE('',*,*,#47,.F.);
#61 = ORIENTED_EDGE('',*,*,#62,.T.);
#62 = EDGE_CURVE('',#40,#63,#65,.T.);
#63 = VERTEX_POINT('',#64);
#64 = CARTESIAN_POINT('',(28.,-35.,-138.3539607717));
#65 = LINE('',#66,#67);
#66 = CARTESIAN_POINT('',(-48.,-35.,-138.3539607717));
#67 = VECTOR('',#68,1.);
#68 = DIRECTION('',(1.,0.,-0.));
#69 = ORIENTED_EDGE('',*,*,#70,.T.);
#70 = EDGE_CURVE('',#63,#71,#73,.T.);
#71 = VERTEX_POINT('',#72);
#72 = CARTESIAN_POINT('',(28.,-35.,-105.5539607717));
#73 = LINE('',#74,#75);
#74 = CARTESIAN_POINT('',(28.,-35.,-138.3539607717));
#75 = VECTOR('',#76,1.);
#76 = DIRECTION('',(0.,0.,1.));
#77 = ORIENTED_EDGE('',*,*,#78,.F.);
#78 = EDGE_CURVE('',#22,#71,#79,.T.);
#79 = LINE('',#80,#81);
#80 = CARTESIAN_POINT('',(-48.,-35.,-105.5539607717));
#81 = VECTOR('',#82,1.);
#82 = DIRECTION('',(1.,0.,0.));
#83 = PLANE('',#84);
#84 = AXIS2_PLACEMENT_3D('',#85,#86,#87);
#85 = CARTESIAN_POINT('',(-10.,-35.,-121.9539607717));
#86 = DIRECTION('',(-0.,-1.,-0.));
#87 = DIRECTION('',(0.,0.,-1.));
#88 = ADVANCED_FACE('',(#89,#107,#141,#186,#231,#276),#321,.T.);
#89 = FACE_BOUND('',#90,.T.);
#90 = EDGE_LOOP('',(#91,#92,#93,#101));
#91 = ORIENTED_EDGE('',*,*,#21,.F.);
#92 = ORIENTED_EDGE('',*,*,#78,.T.);
#93 = ORIENTED_EDGE('',*,*,#94,.T.);
#94 = EDGE_CURVE('',#71,#95,#97,.T.);
#95 = VERTEX_POINT('',#96);
#96 = CARTESIAN_POINT('',(28.,35.,-105.5539607717));
#97 = LINE('',#98,#99);
#98 = CARTESIAN_POINT('',(28.,-35.,-105.5539607717));
#99 = VECTOR('',#100,1.);
#100 = DIRECTION('',(0.,1.,0.));
#101 = ORIENTED_EDGE('',*,*,#102,.F.);
#102 = EDGE_CURVE('',#24,#95,#103,.T.);
#103 = LINE('',#104,#105);
#104 = CARTESIAN_POINT('',(-48.,35.,-105.5539607717));
#105 = VECTOR('',#106,1.);
#106 = DIRECTION('',(1.,0.,0.));
#107 = FACE_BOUND('',#108,.T.);
#108 = EDGE_LOOP('',(#109,#119,#127,#135));
#109 = ORIENTED_EDGE('',*,*,#110,.T.);
#110 = EDGE_CURVE('',#111,#113,#115,.T.);
#111 = VERTEX_POINT('',#112);
#112 = CARTESIAN_POINT('',(10.25,-10.2,-105.5539607717));
#113 = VERTEX_POINT('',#114);
#114 = CARTESIAN_POINT('',(-30.95,-10.2,-105.5539607717));
#115 = LINE('',#116,#117);
#116 = CARTESIAN_POINT('',(-39.475,-10.2,-105.5539607717));
#117 = VECTOR('',#118,1.);
#118 = DIRECTION('',(-1.,0.,0.));
#119 = ORIENTED_EDGE('',*,*,#120,.T.);
#120 = EDGE_CURVE('',#113,#121,#123,.T.);
#121 = VERTEX_POINT('',#122);
#122 = CARTESIAN_POINT('',(-30.95,10.2,-105.5539607717));
#123 = LINE('',#124,#125);
#124 = CARTESIAN_POINT('',(-30.95,-22.6,-105.5539607717));
#125 = VECTOR('',#126,1.);
#126 = DIRECTION('',(0.,1.,0.));
#127 = ORIENTED_EDGE('',*,*,#128,.F.);
#128 = EDGE_CURVE('',#129,#121,#131,.T.);
#129 = VERTEX_POINT('',#130);
#130 = CARTESIAN_POINT('',(10.25,10.2,-105.5539607717));
#131 = LINE('',#132,#133);
#132 = CARTESIAN_POINT('',(-39.475,10.2,-105.5539607717));
#133 = VECTOR('',#134,1.);
#134 = DIRECTION('',(-1.,0.,0.));
#135 = ORIENTED_EDGE('',*,*,#136,.F.);
#136 = EDGE_CURVE('',#111,#129,#137,.T.);
#137 = LINE('',#138,#139);
#138 = CARTESIAN_POINT('',(10.25,-22.6,-105.5539607717));
#139 = VECTOR('',#140,1.);
#140 = DIRECTION('',(0.,1.,0.));
#141 = FACE_BOUND('',#142,.T.);
#142 = EDGE_LOOP('',(#143,#154,#163,#171,#180));
#143 = ORIENTED_EDGE('',*,*,#144,.F.);
#144 = EDGE_CURVE('',#145,#147,#149,.T.);
#145 = VERTEX_POINT('',#146);
#146 = CARTESIAN_POINT('',(-33.4,5.,-105.5539607717));
#147 = VERTEX_POINT('',#148);
#148 = CARTESIAN_POINT('',(-34.6,6.2,-105.5539607717));
#149 = CIRCLE('',#150,1.2);
#150 = AXIS2_PLACEMENT_3D('',#151,#152,#153);
#151 = CARTESIAN_POINT('',(-34.6,5.,-105.5539607717));
#152 = DIRECTION('',(0.,0.,1.));
#153 = DIRECTION('',(1.,0.,-0.));
#154 = ORIENTED_EDGE('',*,*,#155,.F.);
#155 = EDGE_CURVE('',#156,#145,#158,.T.);
#156 = VERTEX_POINT('',#157);
#157 = CARTESIAN_POINT('',(-34.6,3.8,-105.5539607717));
#158 = CIRCLE('',#159,1.2);
#159 = AXIS2_PLACEMENT_3D('',#160,#161,#162);
#160 = CARTESIAN_POINT('',(-34.6,5.,-105.5539607717));
#161 = DIRECTION('',(0.,0.,1.));
#162 = DIRECTION('',(1.,0.,-0.));
#163 = ORIENTED_EDGE('',*,*,#164,.T.);
#164 = EDGE_CURVE('',#156,#165,#167,.T.);
#165 = VERTEX_POINT('',#166);
#166 = CARTESIAN_POINT('',(-35.1,3.8,-105.5539607717));
#167 = LINE('',#168,#169);
#168 = CARTESIAN_POINT('',(-41.55,3.8,-105.5539607717));
#169 = VECTOR('',#170,1.);
#170 = DIRECTION('',(-1.,0.,0.));
#171 = ORIENTED_EDGE('',*,*,#172,.F.);
#172 = EDGE_CURVE('',#173,#165,#175,.T.);
#173 = VERTEX_POINT('',#174);
#174 = CARTESIAN_POINT('',(-35.1,6.2,-105.5539607717));
#175 = CIRCLE('',#176,1.2);
#176 = AXIS2_PLACEMENT_3D('',#177,#178,#179);
#177 = CARTESIAN_POINT('',(-35.1,5.,-105.5539607717));
#178 = DIRECTION('',(0.,0.,1.));
#179 = DIRECTION('',(1.,0.,-0.));
#180 = ORIENTED_EDGE('',*,*,#181,.F.);
#181 = EDGE_CURVE('',#147,#173,#182,.T.);
#182 = LINE('',#183,#184);
#183 = CARTESIAN_POINT('',(-41.55,6.2,-105.5539607717));
#184 = VECTOR('',#185,1.);
#185 = DIRECTION('',(-1.,0.,0.));
#186 = FACE_BOUND('',#187,.T.);
#187 = EDGE_LOOP('',(#188,#199,#208,#216,#225));
#188 = ORIENTED_EDGE('',*,*,#189,.F.);
#189 = EDGE_CURVE('',#190,#192,#194,.T.);
#190 = VERTEX_POINT('',#191);
#191 = CARTESIAN_POINT('',(-33.4,-5.,-105.5539607717));
#192 = VERTEX_POINT('',#193);
#193 = CARTESIAN_POINT('',(-34.6,-3.8,-105.5539607717));
#194 = CIRCLE('',#195,1.2);
#195 = AXIS2_PLACEMENT_3D('',#196,#197,#198);
#196 = CARTESIAN_POINT('',(-34.6,-5.,-105.5539607717));
#197 = DIRECTION('',(0.,0.,1.));
#198 = DIRECTION('',(1.,0.,-0.));
#199 = ORIENTED_EDGE('',*,*,#200,.F.);
#200 = EDGE_CURVE('',#201,#190,#203,.T.);
#201 = VERTEX_POINT('',#202);
#202 = CARTESIAN_POINT('',(-34.6,-6.2,-105.5539607717));
#203 = CIRCLE('',#204,1.2);
#204 = AXIS2_PLACEMENT_3D('',#205,#206,#207);
#205 = CARTESIAN_POINT('',(-34.6,-5.,-105.5539607717));
#206 = DIRECTION('',(0.,0.,1.));
#207 = DIRECTION('',(1.,0.,-0.));
#208 = ORIENTED_EDGE('',*,*,#209,.T.);
#209 = EDGE_CURVE('',#201,#210,#212,.T.);
#210 = VERTEX_POINT('',#211);
#211 = CARTESIAN_POINT('',(-35.1,-6.2,-105.5539607717));
#212 = LINE('',#213,#214);
#213 = CARTESIAN_POINT('',(-41.55,-6.2,-105.5539607717));
#214 = VECTOR('',#215,1.);
#215 = DIRECTION('',(-1.,0.,0.));
#216 = ORIENTED_EDGE('',*,*,#217,.F.);
#217 = EDGE_CURVE('',#218,#210,#220,.T.);
#218 = VERTEX_POINT('',#219);
#219 = CARTESIAN_POINT('',(-35.1,-3.8,-105.5539607717));
#220 = CIRCLE('',#221,1.2);
#221 = AXIS2_PLACEMENT_3D('',#222,#223,#224);
#222 = CARTESIAN_POINT('',(-35.1,-5.,-105.5539607717));
#223 = DIRECTION('',(0.,0.,1.));
#224 = DIRECTION('',(1.,0.,-0.));
#225 = ORIENTED_EDGE('',*,*,#226,.F.);
#226 = EDGE_CURVE('',#192,#218,#227,.T.);
#227 = LINE('',#228,#229);
#228 = CARTESIAN_POINT('',(-41.55,-3.8,-105.5539607717));
#229 = VECTOR('',#230,1.);
#230 = DIRECTION('',(-1.,0.,0.));
#231 = FACE_BOUND('',#232,.T.);
#232 = EDGE_LOOP('',(#233,#244,#252,#261,#270));
#233 = ORIENTED_EDGE('',*,*,#234,.F.);
#234 = EDGE_CURVE('',#235,#237,#239,.T.);
#235 = VERTEX_POINT('',#236);
#236 = CARTESIAN_POINT('',(13.9,6.2,-105.5539607717));
#237 = VERTEX_POINT('',#238);
#238 = CARTESIAN_POINT('',(13.9,3.8,-105.5539607717));
#239 = CIRCLE('',#240,1.2);
#240 = AXIS2_PLACEMENT_3D('',#241,#242,#243);
#241 = CARTESIAN_POINT('',(13.9,5.,-105.5539607717));
#242 = DIRECTION('',(0.,0.,1.));
#243 = DIRECTION('',(1.,0.,-0.));
#244 = ORIENTED_EDGE('',*,*,#245,.F.);
#245 = EDGE_CURVE('',#246,#235,#248,.T.);
#246 = VERTEX_POINT('',#247);
#247 = CARTESIAN_POINT('',(14.4,6.2,-105.5539607717));
#248 = LINE('',#249,#250);
#249 = CARTESIAN_POINT('',(-17.05,6.2,-105.5539607717));
#250 = VECTOR('',#251,1.);
#251 = DIRECTION('',(-1.,0.,0.));
#252 = ORIENTED_EDGE('',*,*,#253,.F.);
#253 = EDGE_CURVE('',#254,#246,#256,.T.);
#254 = VERTEX_POINT('',#255);
#255 = CARTESIAN_POINT('',(15.6,5.,-105.5539607717));
#256 = CIRCLE('',#257,1.2);
#257 = AXIS2_PLACEMENT_3D('',#258,#259,#260);
#258 = CARTESIAN_POINT('',(14.4,5.,-105.5539607717));
#259 = DIRECTION('',(0.,0.,1.));
#260 = DIRECTION('',(1.,0.,-0.));
#261 = ORIENTED_EDGE('',*,*,#262,.F.);
#262 = EDGE_CURVE('',#263,#254,#265,.T.);
#263 = VERTEX_POINT('',#264);
#264 = CARTESIAN_POINT('',(14.4,3.8,-105.5539607717));
#265 = CIRCLE('',#266,1.2);
#266 = AXIS2_PLACEMENT_3D('',#267,#268,#269);
#267 = CARTESIAN_POINT('',(14.4,5.,-105.5539607717));
#268 = DIRECTION('',(0.,0.,1.));
#269 = DIRECTION('',(1.,0.,-0.));
#270 = ORIENTED_EDGE('',*,*,#271,.T.);
#271 = EDGE_CURVE('',#263,#237,#272,.T.);
#272 = LINE('',#273,#274);
#273 = CARTESIAN_POINT('',(-17.05,3.8,-105.5539607717));
#274 = VECTOR('',#275,1.);
#275 = DIRECTION('',(-1.,0.,0.));
#276 = FACE_BOUND('',#277,.T.);
#277 = EDGE_LOOP('',(#278,#289,#297,#306,#315));
#278 = ORIENTED_EDGE('',*,*,#279,.F.);
#279 = EDGE_CURVE('',#280,#282,#284,.T.);
#280 = VERTEX_POINT('',#281);
#281 = CARTESIAN_POINT('',(13.9,-3.8,-105.5539607717));
#282 = VERTEX_POINT('',#283);
#283 = CARTESIAN_POINT('',(13.9,-6.2,-105.5539607717));
#284 = CIRCLE('',#285,1.2);
#285 = AXIS2_PLACEMENT_3D('',#286,#287,#288);
#286 = CARTESIAN_POINT('',(13.9,-5.,-105.5539607717));
#287 = DIRECTION('',(0.,0.,1.));
#288 = DIRECTION('',(1.,0.,-0.));
#289 = ORIENTED_EDGE('',*,*,#290,.F.);
#290 = EDGE_CURVE('',#291,#280,#293,.T.);
#291 = VERTEX_POINT('',#292);
#292 = CARTESIAN_POINT('',(14.4,-3.8,-105.5539607717));
#293 = LINE('',#294,#295);
#294 = CARTESIAN_POINT('',(-17.05,-3.8,-105.5539607717));
#295 = VECTOR('',#296,1.);
#296 = DIRECTION('',(-1.,0.,0.));
#297 = ORIENTED_EDGE('',*,*,#298,.F.);
#298 = EDGE_CURVE('',#299,#291,#301,.T.);
#299 = VERTEX_POINT('',#300);
#300 = CARTESIAN_POINT('',(15.6,-5.,-105.5539607717));
#301 = CIRCLE('',#302,1.2);
#302 = AXIS2_PLACEMENT_3D('',#303,#304,#305);
#303 = CARTESIAN_POINT('',(14.4,-5.,-105.5539607717));
#304 = DIRECTION('',(0.,0.,1.));
#305 = DIRECTION('',(1.,0.,-0.));
#306 = ORIENTED_EDGE('',*,*,#307,.F.);
#307 = EDGE_CURVE('',#308,#299,#310,.T.);
#308 = VERTEX_POINT('',#309);
#309 = CARTESIAN_POINT('',(14.4,-6.2,-105.5539607717));
#310 = CIRCLE('',#311,1.2);
#311 = AXIS2_PLACEMENT_3D('',#312,#313,#314);
#312 = CARTESIAN_POINT('',(14.4,-5.,-105.5539607717));
#313 = DIRECTION('',(0.,0.,1.));
#314 = DIRECTION('',(1.,0.,-0.));
#315 = ORIENTED_EDGE('',*,*,#316,.T.);
#316 = EDGE_CURVE('',#308,#282,#317,.T.);
#317 = LINE('',#318,#319);
#318 = CARTESIAN_POINT('',(-17.05,-6.2,-105.5539607717));
#319 = VECTOR('',#320,1.);
#320 = DIRECTION('',(-1.,0.,0.));
#321 = PLANE('',#322);
#322 = AXIS2_PLACEMENT_3D('',#323,#324,#325);
#323 = CARTESIAN_POINT('',(-48.,-35.,-105.5539607717));
#324 = DIRECTION('',(0.,0.,1.));
#325 = DIRECTION('',(1.,0.,0.));
#326 = ADVANCED_FACE('',(#327),#361,.T.);
#327 = FACE_BOUND('',#328,.T.);
#328 = EDGE_LOOP('',(#329,#339,#347,#355));
#329 = ORIENTED_EDGE('',*,*,#330,.T.);
#330 = EDGE_CURVE('',#331,#333,#335,.T.);
#331 = VERTEX_POINT('',#332);
#332 = CARTESIAN_POINT('',(28.,-32.,-135.3539607717));
#333 = VERTEX_POINT('',#334);
#334 = CARTESIAN_POINT('',(-45.,-32.,-135.3539607717));
#335 = LINE('',#336,#337);
#336 = CARTESIAN_POINT('',(-48.,-32.,-135.3539607717));
#337 = VECTOR('',#338,1.);
#338 = DIRECTION('',(-1.,-0.,0.));
#339 = ORIENTED_EDGE('',*,*,#340,.F.);
#340 = EDGE_CURVE('',#341,#333,#343,.T.);
#341 = VERTEX_POINT('',#342);
#342 = CARTESIAN_POINT('',(-45.,-32.,-110.5539607717));
#343 = LINE('',#344,#345);
#344 = CARTESIAN_POINT('',(-45.,-32.,-138.3539607717));
#345 = VECTOR('',#346,1.);
#346 = DIRECTION('',(-0.,0.,-1.));
#347 = ORIENTED_EDGE('',*,*,#348,.F.);
#348 = EDGE_CURVE('',#349,#341,#351,.T.);
#349 = VERTEX_POINT('',#350);
#350 = CARTESIAN_POINT('',(28.,-32.,-110.5539607717));
#351 = LINE('',#352,#353);
#352 = CARTESIAN_POINT('',(-48.,-32.,-110.5539607717));
#353 = VECTOR('',#354,1.);
#354 = DIRECTION('',(-1.,-0.,0.));
#355 = ORIENTED_EDGE('',*,*,#356,.F.);
#356 = EDGE_CURVE('',#331,#349,#357,.T.);
#357 = LINE('',#358,#359);
#358 = CARTESIAN_POINT('',(28.,-32.,-138.3539607717));
#359 = VECTOR('',#360,1.);
#360 = DIRECTION('',(0.,0.,1.));
#361 = PLANE('',#362);
#362 = AXIS2_PLACEMENT_3D('',#363,#364,#365);
#363 = CARTESIAN_POINT('',(-48.,-32.,-138.3539607717));
#364 = DIRECTION('',(-0.,1.,0.));
#365 = DIRECTION('',(0.,0.,1.));
#366 = ADVANCED_FACE('',(#367,#392,#437,#471,#516,#561),#606,.F.);
#367 = FACE_BOUND('',#368,.F.);
#368 = EDGE_LOOP('',(#369,#377,#378,#386));
#369 = ORIENTED_EDGE('',*,*,#370,.F.);
#370 = EDGE_CURVE('',#341,#371,#373,.T.);
#371 = VERTEX_POINT('',#372);
#372 = CARTESIAN_POINT('',(-45.,32.,-110.5539607717));
#373 = LINE('',#374,#375);
#374 = CARTESIAN_POINT('',(-45.,-35.,-110.5539607717));
#375 = VECTOR('',#376,1.);
#376 = DIRECTION('',(-0.,1.,0.));
#377 = ORIENTED_EDGE('',*,*,#348,.F.);
#378 = ORIENTED_EDGE('',*,*,#379,.T.);
#379 = EDGE_CURVE('',#349,#380,#382,.T.);
#380 = VERTEX_POINT('',#381);
#381 = CARTESIAN_POINT('',(28.,32.,-110.5539607717));
#382 = LINE('',#383,#384);
#383 = CARTESIAN_POINT('',(28.,-35.,-110.5539607717));
#384 = VECTOR('',#385,1.);
#385 = DIRECTION('',(0.,1.,0.));
#386 = ORIENTED_EDGE('',*,*,#387,.T.);
#387 = EDGE_CURVE('',#380,#371,#388,.T.);
#388 = LINE('',#389,#390);
#389 = CARTESIAN_POINT('',(-48.,32.,-110.5539607717));
#390 = VECTOR('',#391,1.);
#391 = DIRECTION('',(-1.,-0.,0.));
#392 = FACE_BOUND('',#393,.F.);
#393 = EDGE_LOOP('',(#394,#405,#414,#422,#431));
#394 = ORIENTED_EDGE('',*,*,#395,.F.);
#395 = EDGE_CURVE('',#396,#398,#400,.T.);
#396 = VERTEX_POINT('',#397);
#397 = CARTESIAN_POINT('',(-33.4,-5.,-110.5539607717));
#398 = VERTEX_POINT('',#399);
#399 = CARTESIAN_POINT('',(-34.6,-3.8,-110.5539607717));
#400 = CIRCLE('',#401,1.2);
#401 = AXIS2_PLACEMENT_3D('',#402,#403,#404);
#402 = CARTESIAN_POINT('',(-34.6,-5.,-110.5539607717));
#403 = DIRECTION('',(0.,0.,1.));
#404 = DIRECTION('',(1.,0.,-0.));
#405 = ORIENTED_EDGE('',*,*,#406,.F.);
#406 = EDGE_CURVE('',#407,#396,#409,.T.);
#407 = VERTEX_POINT('',#408);
#408 = CARTESIAN_POINT('',(-34.6,-6.2,-110.5539607717));
#409 = CIRCLE('',#410,1.2);
#410 = AXIS2_PLACEMENT_3D('',#411,#412,#413);
#411 = CARTESIAN_POINT('',(-34.6,-5.,-110.5539607717));
#412 = DIRECTION('',(0.,0.,1.));
#413 = DIRECTION('',(1.,0.,-0.));
#414 = ORIENTED_EDGE('',*,*,#415,.T.);
#415 = EDGE_CURVE('',#407,#416,#418,.T.);
#416 = VERTEX_POINT('',#417);
#417 = CARTESIAN_POINT('',(-35.1,-6.2,-110.5539607717));
#418 = LINE('',#419,#420);
#419 = CARTESIAN_POINT('',(-41.55,-6.2,-110.5539607717));
#420 = VECTOR('',#421,1.);
#421 = DIRECTION('',(-1.,0.,0.));
#422 = ORIENTED_EDGE('',*,*,#423,.F.);
#423 = EDGE_CURVE('',#424,#416,#426,.T.);
#424 = VERTEX_POINT('',#425);
#425 = CARTESIAN_POINT('',(-35.1,-3.8,-110.5539607717));
#426 = CIRCLE('',#427,1.2);
#427 = AXIS2_PLACEMENT_3D('',#428,#429,#430);
#428 = CARTESIAN_POINT('',(-35.1,-5.,-110.5539607717));
#429 = DIRECTION('',(0.,0.,1.));
#430 = DIRECTION('',(1.,0.,-0.));
#431 = ORIENTED_EDGE('',*,*,#432,.F.);
#432 = EDGE_CURVE('',#398,#424,#433,.T.);
#433 = LINE('',#434,#435);
#434 = CARTESIAN_POINT('',(-41.55,-3.8,-110.5539607717));
#435 = VECTOR('',#436,1.);
#436 = DIRECTION('',(-1.,0.,0.));
#437 = FACE_BOUND('',#438,.F.);
#438 = EDGE_LOOP('',(#439,#449,#457,#465));
#439 = ORIENTED_EDGE('',*,*,#440,.T.);
#440 = EDGE_CURVE('',#441,#443,#445,.T.);
#441 = VERTEX_POINT('',#442);
#442 = CARTESIAN_POINT('',(10.25,-10.2,-110.5539607717));
#443 = VERTEX_POINT('',#444);
#444 = CARTESIAN_POINT('',(-30.95,-10.2,-110.5539607717));
#445 = LINE('',#446,#447);
#446 = CARTESIAN_POINT('',(-39.475,-10.2,-110.5539607717));
#447 = VECTOR('',#448,1.);
#448 = DIRECTION('',(-1.,0.,0.));
#449 = ORIENTED_EDGE('',*,*,#450,.T.);
#450 = EDGE_CURVE('',#443,#451,#453,.T.);
#451 = VERTEX_POINT('',#452);
#452 = CARTESIAN_POINT('',(-30.95,10.2,-110.5539607717));
#453 = LINE('',#454,#455);
#454 = CARTESIAN_POINT('',(-30.95,-22.6,-110.5539607717));
#455 = VECTOR('',#456,1.);
#456 = DIRECTION('',(0.,1.,0.));
#457 = ORIENTED_EDGE('',*,*,#458,.F.);
#458 = EDGE_CURVE('',#459,#451,#461,.T.);
#459 = VERTEX_POINT('',#460);
#460 = CARTESIAN_POINT('',(10.25,10.2,-110.5539607717));
#461 = LINE('',#462,#463);
#462 = CARTESIAN_POINT('',(-39.475,10.2,-110.5539607717));
#463 = VECTOR('',#464,1.);
#464 = DIRECTION('',(-1.,0.,0.));
#465 = ORIENTED_EDGE('',*,*,#466,.F.);
#466 = EDGE_CURVE('',#441,#459,#467,.T.);
#467 = LINE('',#468,#469);
#468 = CARTESIAN_POINT('',(10.25,-22.6,-110.5539607717));
#469 = VECTOR('',#470,1.);
#470 = DIRECTION('',(0.,1.,0.));
#471 = FACE_BOUND('',#472,.F.);
#472 = EDGE_LOOP('',(#473,#484,#492,#501,#510));
#473 = ORIENTED_EDGE('',*,*,#474,.F.);
#474 = EDGE_CURVE('',#475,#477,#479,.T.);
#475 = VERTEX_POINT('',#476);
#476 = CARTESIAN_POINT('',(13.9,-3.8,-110.5539607717));
#477 = VERTEX_POINT('',#478);
#478 = CARTESIAN_POINT('',(13.9,-6.2,-110.5539607717));
#479 = CIRCLE('',#480,1.2);
#480 = AXIS2_PLACEMENT_3D('',#481,#482,#483);
#481 = CARTESIAN_POINT('',(13.9,-5.,-110.5539607717));
#482 = DIRECTION('',(0.,0.,1.));
#483 = DIRECTION('',(1.,0.,-0.));
#484 = ORIENTED_EDGE('',*,*,#485,.F.);
#485 = EDGE_CURVE('',#486,#475,#488,.T.);
#486 = VERTEX_POINT('',#487);
#487 = CARTESIAN_POINT('',(14.4,-3.8,-110.5539607717));
#488 = LINE('',#489,#490);
#489 = CARTESIAN_POINT('',(-17.05,-3.8,-110.5539607717));
#490 = VECTOR('',#491,1.);
#491 = DIRECTION('',(-1.,0.,0.));
#492 = ORIENTED_EDGE('',*,*,#493,.F.);
#493 = EDGE_CURVE('',#494,#486,#496,.T.);
#494 = VERTEX_POINT('',#495);
#495 = CARTESIAN_POINT('',(15.6,-5.,-110.5539607717));
#496 = CIRCLE('',#497,1.2);
#497 = AXIS2_PLACEMENT_3D('',#498,#499,#500);
#498 = CARTESIAN_POINT('',(14.4,-5.,-110.5539607717));
#499 = DIRECTION('',(0.,0.,1.));
#500 = DIRECTION('',(1.,0.,-0.));
#501 = ORIENTED_EDGE('',*,*,#502,.F.);
#502 = EDGE_CURVE('',#503,#494,#505,.T.);
#503 = VERTEX_POINT('',#504);
#504 = CARTESIAN_POINT('',(14.4,-6.2,-110.5539607717));
#505 = CIRCLE('',#506,1.2);
#506 = AXIS2_PLACEMENT_3D('',#507,#508,#509);
#507 = CARTESIAN_POINT('',(14.4,-5.,-110.5539607717));
#508 = DIRECTION('',(0.,0.,1.));
#509 = DIRECTION('',(1.,0.,-0.));
#510 = ORIENTED_EDGE('',*,*,#511,.T.);
#511 = EDGE_CURVE('',#503,#477,#512,.T.);
#512 = LINE('',#513,#514);
#513 = CARTESIAN_POINT('',(-17.05,-6.2,-110.5539607717));
#514 = VECTOR('',#515,1.);
#515 = DIRECTION('',(-1.,0.,0.));
#516 = FACE_BOUND('',#517,.F.);
#517 = EDGE_LOOP('',(#518,#529,#538,#546,#555));
#518 = ORIENTED_EDGE('',*,*,#519,.F.);
#519 = EDGE_CURVE('',#520,#522,#524,.T.);
#520 = VERTEX_POINT('',#521);
#521 = CARTESIAN_POINT('',(-33.4,5.,-110.5539607717));
#522 = VERTEX_POINT('',#523);
#523 = CARTESIAN_POINT('',(-34.6,6.2,-110.5539607717));
#524 = CIRCLE('',#525,1.2);
#525 = AXIS2_PLACEMENT_3D('',#526,#527,#528);
#526 = CARTESIAN_POINT('',(-34.6,5.,-110.5539607717));
#527 = DIRECTION('',(0.,0.,1.));
#528 = DIRECTION('',(1.,0.,-0.));
#529 = ORIENTED_EDGE('',*,*,#530,.F.);
#530 = EDGE_CURVE('',#531,#520,#533,.T.);
#531 = VERTEX_POINT('',#532);
#532 = CARTESIAN_POINT('',(-34.6,3.8,-110.5539607717));
#533 = CIRCLE('',#534,1.2);
#534 = AXIS2_PLACEMENT_3D('',#535,#536,#537);
#535 = CARTESIAN_POINT('',(-34.6,5.,-110.5539607717));
#536 = DIRECTION('',(0.,0.,1.));
#537 = DIRECTION('',(1.,0.,-0.));
#538 = ORIENTED_EDGE('',*,*,#539,.T.);
#539 = EDGE_CURVE('',#531,#540,#542,.T.);
#540 = VERTEX_POINT('',#541);
#541 = CARTESIAN_POINT('',(-35.1,3.8,-110.5539607717));
#542 = LINE('',#543,#544);
#543 = CARTESIAN_POINT('',(-41.55,3.8,-110.5539607717));
#544 = VECTOR('',#545,1.);
#545 = DIRECTION('',(-1.,0.,0.));
#546 = ORIENTED_EDGE('',*,*,#547,.F.);
#547 = EDGE_CURVE('',#548,#540,#550,.T.);
#548 = VERTEX_POINT('',#549);
#549 = CARTESIAN_POINT('',(-35.1,6.2,-110.5539607717));
#550 = CIRCLE('',#551,1.2);
#551 = AXIS2_PLACEMENT_3D('',#552,#553,#554);
#552 = CARTESIAN_POINT('',(-35.1,5.,-110.5539607717));
#553 = DIRECTION('',(0.,0.,1.));
#554 = DIRECTION('',(1.,0.,-0.));
#555 = ORIENTED_EDGE('',*,*,#556,.F.);
#556 = EDGE_CURVE('',#522,#548,#557,.T.);
#557 = LINE('',#558,#559);
#558 = CARTESIAN_POINT('',(-41.55,6.2,-110.5539607717));
#559 = VECTOR('',#560,1.);
#560 = DIRECTION('',(-1.,0.,0.));
#561 = FACE_BOUND('',#562,.F.);
#562 = EDGE_LOOP('',(#563,#574,#582,#591,#600));
#563 = ORIENTED_EDGE('',*,*,#564,.F.);
#564 = EDGE_CURVE('',#565,#567,#569,.T.);
#565 = VERTEX_POINT('',#566);
#566 = CARTESIAN_POINT('',(13.9,6.2,-110.5539607717));
#567 = VERTEX_POINT('',#568);
#568 = CARTESIAN_POINT('',(13.9,3.8,-110.5539607717));
#569 = CIRCLE('',#570,1.2);
#570 = AXIS2_PLACEMENT_3D('',#571,#572,#573);
#571 = CARTESIAN_POINT('',(13.9,5.,-110.5539607717));
#572 = DIRECTION('',(0.,0.,1.));
#573 = DIRECTION('',(1.,0.,-0.));
#574 = ORIENTED_EDGE('',*,*,#575,.F.);
#575 = EDGE_CURVE('',#576,#565,#578,.T.);
#576 = VERTEX_POINT('',#577);
#577 = CARTESIAN_POINT('',(14.4,6.2,-110.5539607717));
#578 = LINE('',#579,#580);
#579 = CARTESIAN_POINT('',(-17.05,6.2,-110.5539607717));
#580 = VECTOR('',#581,1.);
#581 = DIRECTION('',(-1.,0.,0.));
#582 = ORIENTED_EDGE('',*,*,#583,.F.);
#583 = EDGE_CURVE('',#584,#576,#586,.T.);
#584 = VERTEX_POINT('',#585);
#585 = CARTESIAN_POINT('',(15.6,5.,-110.5539607717));
#586 = CIRCLE('',#587,1.2);
#587 = AXIS2_PLACEMENT_3D('',#588,#589,#590);
#588 = CARTESIAN_POINT('',(14.4,5.,-110.5539607717));
#589 = DIRECTION('',(0.,0.,1.));
#590 = DIRECTION('',(1.,0.,-0.));
#591 = ORIENTED_EDGE('',*,*,#592,.F.);
#592 = EDGE_CURVE('',#593,#584,#595,.T.);
#593 = VERTEX_POINT('',#594);
#594 = CARTESIAN_POINT('',(14.4,3.8,-110.5539607717));
#595 = CIRCLE('',#596,1.2);
#596 = AXIS2_PLACEMENT_3D('',#597,#598,#599);
#597 = CARTESIAN_POINT('',(14.4,5.,-110.5539607717));
#598 = DIRECTION('',(0.,0.,1.));
#599 = DIRECTION('',(1.,0.,-0.));
#600 = ORIENTED_EDGE('',*,*,#601,.T.);
#601 = EDGE_CURVE('',#593,#567,#602,.T.);
#602 = LINE('',#603,#604);
#603 = CARTESIAN_POINT('',(-17.05,3.8,-110.5539607717));
#604 = VECTOR('',#605,1.);
#605 = DIRECTION('',(-1.,0.,0.));
#606 = PLANE('',#607);
#607 = AXIS2_PLACEMENT_3D('',#608,#609,#610);
#608 = CARTESIAN_POINT('',(-48.,-35.,-110.5539607717));
#609 = DIRECTION('',(0.,0.,1.));
#610 = DIRECTION('',(1.,0.,0.));
#611 = ADVANCED_FACE('',(#612),#628,.F.);
#612 = FACE_BOUND('',#613,.F.);
#613 = EDGE_LOOP('',(#614,#615,#621,#622));
#614 = ORIENTED_EDGE('',*,*,#432,.T.);
#615 = ORIENTED_EDGE('',*,*,#616,.T.);
#616 = EDGE_CURVE('',#424,#218,#617,.T.);
#617 = LINE('',#618,#619);
#618 = CARTESIAN_POINT('',(-35.1,-3.8,-111.5539607717));
#619 = VECTOR('',#620,1.);
#620 = DIRECTION('',(0.,0.,1.));
#621 = ORIENTED_EDGE('',*,*,#226,.F.);
#622 = ORIENTED_EDGE('',*,*,#623,.F.);
#623 = EDGE_CURVE('',#398,#192,#624,.T.);
#624 = LINE('',#625,#626);
#625 = CARTESIAN_POINT('',(-34.6,-3.8,-111.5539607717));
#626 = VECTOR('',#627,1.);
#627 = DIRECTION('',(0.,0.,1.));
#628 = PLANE('',#629);
#629 = AXIS2_PLACEMENT_3D('',#630,#631,#632);
#630 = CARTESIAN_POINT('',(-35.1,-3.8,-111.5539607717));
#631 = DIRECTION('',(0.,1.,0.));
#632 = DIRECTION('',(0.,0.,1.));
#633 = ADVANCED_FACE('',(#634),#645,.F.);
#634 = FACE_BOUND('',#635,.F.);
#635 = EDGE_LOOP('',(#636,#637,#638,#639));
#636 = ORIENTED_EDGE('',*,*,#217,.F.);
#637 = ORIENTED_EDGE('',*,*,#616,.F.);
#638 = ORIENTED_EDGE('',*,*,#423,.T.);
#639 = ORIENTED_EDGE('',*,*,#640,.T.);
#640 = EDGE_CURVE('',#416,#210,#641,.T.);
#641 = LINE('',#642,#643);
#642 = CARTESIAN_POINT('',(-35.1,-6.2,-111.5539607717));
#643 = VECTOR('',#644,1.);
#644 = DIRECTION('',(0.,0.,1.));
#645 = CYLINDRICAL_SURFACE('',#646,1.2);
#646 = AXIS2_PLACEMENT_3D('',#647,#648,#649);
#647 = CARTESIAN_POINT('',(-35.1,-5.,-111.5539607717));
#648 = DIRECTION('',(0.,0.,1.));
#649 = DIRECTION('',(1.,0.,0.));
#650 = ADVANCED_FACE('',(#651),#662,.T.);
#651 = FACE_BOUND('',#652,.T.);
#652 = EDGE_LOOP('',(#653,#654,#655,#656));
#653 = ORIENTED_EDGE('',*,*,#415,.T.);
#654 = ORIENTED_EDGE('',*,*,#640,.T.);
#655 = ORIENTED_EDGE('',*,*,#209,.F.);
#656 = ORIENTED_EDGE('',*,*,#657,.F.);
#657 = EDGE_CURVE('',#407,#201,#658,.T.);
#658 = LINE('',#659,#660);
#659 = CARTESIAN_POINT('',(-34.6,-6.2,-111.5539607717));
#660 = VECTOR('',#661,1.);
#661 = DIRECTION('',(0.,0.,1.));
#662 = PLANE('',#663);
#663 = AXIS2_PLACEMENT_3D('',#664,#665,#666);
#664 = CARTESIAN_POINT('',(-35.1,-6.2,-111.5539607717));
#665 = DIRECTION('',(0.,1.,0.));
#666 = DIRECTION('',(0.,0.,1.));
#667 = ADVANCED_FACE('',(#668),#684,.T.);
#668 = FACE_BOUND('',#669,.T.);
#669 = EDGE_LOOP('',(#670,#676,#677,#683));
#670 = ORIENTED_EDGE('',*,*,#671,.F.);
#671 = EDGE_CURVE('',#441,#111,#672,.T.);
#672 = LINE('',#673,#674);
#673 = CARTESIAN_POINT('',(10.25,-10.2,-111.5539607717));
#674 = VECTOR('',#675,1.);
#675 = DIRECTION('',(0.,0.,1.));
#676 = ORIENTED_EDGE('',*,*,#440,.T.);
#677 = ORIENTED_EDGE('',*,*,#678,.T.);
#678 = EDGE_CURVE('',#443,#113,#679,.T.);
#679 = LINE('',#680,#681);
#680 = CARTESIAN_POINT('',(-30.95,-10.2,-111.5539607717));
#681 = VECTOR('',#682,1.);
#682 = DIRECTION('',(0.,0.,1.));
#683 = ORIENTED_EDGE('',*,*,#110,.F.);
#684 = PLANE('',#685);
#685 = AXIS2_PLACEMENT_3D('',#686,#687,#688);
#686 = CARTESIAN_POINT('',(-30.95,-10.2,-111.5539607717));
#687 = DIRECTION('',(0.,1.,0.));
#688 = DIRECTION('',(0.,0.,1.));
#689 = ADVANCED_FACE('',(#690),#701,.F.);
#690 = FACE_BOUND('',#691,.F.);
#691 = EDGE_LOOP('',(#692,#693,#694,#700));
#692 = ORIENTED_EDGE('',*,*,#671,.F.);
#693 = ORIENTED_EDGE('',*,*,#466,.T.);
#694 = ORIENTED_EDGE('',*,*,#695,.T.);
#695 = EDGE_CURVE('',#459,#129,#696,.T.);
#696 = LINE('',#697,#698);
#697 = CARTESIAN_POINT('',(10.25,10.2,-111.5539607717));
#698 = VECTOR('',#699,1.);
#699 = DIRECTION('',(0.,0.,1.));
#700 = ORIENTED_EDGE('',*,*,#136,.F.);
#701 = PLANE('',#702);
#702 = AXIS2_PLACEMENT_3D('',#703,#704,#705);
#703 = CARTESIAN_POINT('',(10.25,-10.2,-111.5539607717));
#704 = DIRECTION('',(1.,0.,0.));
#705 = DIRECTION('',(0.,0.,1.));
#706 = ADVANCED_FACE('',(#707),#718,.F.);
#707 = FACE_BOUND('',#708,.F.);
#708 = EDGE_LOOP('',(#709,#710,#711,#717));
#709 = ORIENTED_EDGE('',*,*,#695,.F.);
#710 = ORIENTED_EDGE('',*,*,#458,.T.);
#711 = ORIENTED_EDGE('',*,*,#712,.T.);
#712 = EDGE_CURVE('',#451,#121,#713,.T.);
#713 = LINE('',#714,#715);
#714 = CARTESIAN_POINT('',(-30.95,10.2,-111.5539607717));
#715 = VECTOR('',#716,1.);
#716 = DIRECTION('',(0.,0.,1.));
#717 = ORIENTED_EDGE('',*,*,#128,.F.);
#718 = PLANE('',#719);
#719 = AXIS2_PLACEMENT_3D('',#720,#721,#722);
#720 = CARTESIAN_POINT('',(-30.95,10.2,-111.5539607717));
#721 = DIRECTION('',(0.,1.,0.));
#722 = DIRECTION('',(0.,0.,1.));
#723 = ADVANCED_FACE('',(#724),#730,.T.);
#724 = FACE_BOUND('',#725,.T.);
#725 = EDGE_LOOP('',(#726,#727,#728,#729));
#726 = ORIENTED_EDGE('',*,*,#678,.F.);
#727 = ORIENTED_EDGE('',*,*,#450,.T.);
#728 = ORIENTED_EDGE('',*,*,#712,.T.);
#729 = ORIENTED_EDGE('',*,*,#120,.F.);
#730 = PLANE('',#731);
#731 = AXIS2_PLACEMENT_3D('',#732,#733,#734);
#732 = CARTESIAN_POINT('',(-30.95,-10.2,-111.5539607717));
#733 = DIRECTION('',(1.,0.,0.));
#734 = DIRECTION('',(0.,0.,1.));
#735 = ADVANCED_FACE('',(#736),#752,.F.);
#736 = FACE_BOUND('',#737,.F.);
#737 = EDGE_LOOP('',(#738,#739,#745,#746));
#738 = ORIENTED_EDGE('',*,*,#279,.F.);
#739 = ORIENTED_EDGE('',*,*,#740,.F.);
#740 = EDGE_CURVE('',#475,#280,#741,.T.);
#741 = LINE('',#742,#743);
#742 = CARTESIAN_POINT('',(13.9,-3.8,-111.5539607717));
#743 = VECTOR('',#744,1.);
#744 = DIRECTION('',(0.,0.,1.));
#745 = ORIENTED_EDGE('',*,*,#474,.T.);
#746 = ORIENTED_EDGE('',*,*,#747,.T.);
#747 = EDGE_CURVE('',#477,#282,#748,.T.);
#748 = LINE('',#749,#750);
#749 = CARTESIAN_POINT('',(13.9,-6.2,-111.5539607717));
#750 = VECTOR('',#751,1.);
#751 = DIRECTION('',(0.,0.,1.));
#752 = CYLINDRICAL_SURFACE('',#753,1.2);
#753 = AXIS2_PLACEMENT_3D('',#754,#755,#756);
#754 = CARTESIAN_POINT('',(13.9,-5.,-111.5539607717));
#755 = DIRECTION('',(0.,0.,1.));
#756 = DIRECTION('',(1.,0.,0.));
#757 = ADVANCED_FACE('',(#758),#769,.T.);
#758 = FACE_BOUND('',#759,.T.);
#759 = EDGE_LOOP('',(#760,#761,#762,#763));
#760 = ORIENTED_EDGE('',*,*,#511,.T.);
#761 = ORIENTED_EDGE('',*,*,#747,.T.);
#762 = ORIENTED_EDGE('',*,*,#316,.F.);
#763 = ORIENTED_EDGE('',*,*,#764,.F.);
#764 = EDGE_CURVE('',#503,#308,#765,.T.);
#765 = LINE('',#766,#767);
#766 = CARTESIAN_POINT('',(14.4,-6.2,-111.5539607717));
#767 = VECTOR('',#768,1.);
#768 = DIRECTION('',(0.,0.,1.));
#769 = PLANE('',#770);
#770 = AXIS2_PLACEMENT_3D('',#771,#772,#773);
#771 = CARTESIAN_POINT('',(13.9,-6.2,-111.5539607717));
#772 = DIRECTION('',(0.,1.,0.));
#773 = DIRECTION('',(0.,0.,1.));
#774 = ADVANCED_FACE('',(#775),#786,.F.);
#775 = FACE_BOUND('',#776,.F.);
#776 = EDGE_LOOP('',(#777,#778,#779,#780));
#777 = ORIENTED_EDGE('',*,*,#485,.T.);
#778 = ORIENTED_EDGE('',*,*,#740,.T.);
#779 = ORIENTED_EDGE('',*,*,#290,.F.);
#780 = ORIENTED_EDGE('',*,*,#781,.F.);
#781 = EDGE_CURVE('',#486,#291,#782,.T.);
#782 = LINE('',#783,#784);
#783 = CARTESIAN_POINT('',(14.4,-3.8,-111.5539607717));
#784 = VECTOR('',#785,1.);
#785 = DIRECTION('',(0.,0.,1.));
#786 = PLANE('',#787);
#787 = AXIS2_PLACEMENT_3D('',#788,#789,#790);
#788 = CARTESIAN_POINT('',(13.9,-3.8,-111.5539607717));
#789 = DIRECTION('',(0.,1.,0.));
#790 = DIRECTION('',(0.,0.,1.));
#791 = ADVANCED_FACE('',(#792),#808,.F.);
#792 = FACE_BOUND('',#793,.F.);
#793 = EDGE_LOOP('',(#794,#795,#801,#802));
#794 = ORIENTED_EDGE('',*,*,#556,.T.);
#795 = ORIENTED_EDGE('',*,*,#796,.T.);
#796 = EDGE_CURVE('',#548,#173,#797,.T.);
#797 = LINE('',#798,#799);
#798 = CARTESIAN_POINT('',(-35.1,6.2,-111.5539607717));
#799 = VECTOR('',#800,1.);
#800 = DIRECTION('',(0.,0.,1.));
#801 = ORIENTED_EDGE('',*,*,#181,.F.);
#802 = ORIENTED_EDGE('',*,*,#803,.F.);
#803 = EDGE_CURVE('',#522,#147,#804,.T.);
#804 = LINE('',#805,#806);
#805 = CARTESIAN_POINT('',(-34.6,6.2,-111.5539607717));
#806 = VECTOR('',#807,1.);
#807 = DIRECTION('',(0.,0.,1.));
#808 = PLANE('',#809);
#809 = AXIS2_PLACEMENT_3D('',#810,#811,#812);
#810 = CARTESIAN_POINT('',(-35.1,6.2,-111.5539607717));
#811 = DIRECTION('',(0.,1.,0.));
#812 = DIRECTION('',(0.,0.,1.));
#813 = ADVANCED_FACE('',(#814),#825,.F.);
#814 = FACE_BOUND('',#815,.F.);
#815 = EDGE_LOOP('',(#816,#817,#818,#819));
#816 = ORIENTED_EDGE('',*,*,#172,.F.);
#817 = ORIENTED_EDGE('',*,*,#796,.F.);
#818 = ORIENTED_EDGE('',*,*,#547,.T.);
#819 = ORIENTED_EDGE('',*,*,#820,.T.);
#820 = EDGE_CURVE('',#540,#165,#821,.T.);
#821 = LINE('',#822,#823);
#822 = CARTESIAN_POINT('',(-35.1,3.8,-111.5539607717));
#823 = VECTOR('',#824,1.);
#824 = DIRECTION('',(0.,0.,1.));
#825 = CYLINDRICAL_SURFACE('',#826,1.2);
#826 = AXIS2_PLACEMENT_3D('',#827,#828,#829);
#827 = CARTESIAN_POINT('',(-35.1,5.,-111.5539607717));
#828 = DIRECTION('',(0.,0.,1.));
#829 = DIRECTION('',(1.,0.,0.));
#830 = ADVANCED_FACE('',(#831),#842,.T.);
#831 = FACE_BOUND('',#832,.T.);
#832 = EDGE_LOOP('',(#833,#834,#835,#836));
#833 = ORIENTED_EDGE('',*,*,#539,.T.);
#834 = ORIENTED_EDGE('',*,*,#820,.T.);
#835 = ORIENTED_EDGE('',*,*,#164,.F.);
#836 = ORIENTED_EDGE('',*,*,#837,.F.);
#837 = EDGE_CURVE('',#531,#156,#838,.T.);
#838 = LINE('',#839,#840);
#839 = CARTESIAN_POINT('',(-34.6,3.8,-111.5539607717));
#840 = VECTOR('',#841,1.);
#841 = DIRECTION('',(0.,0.,1.));
#842 = PLANE('',#843);
#843 = AXIS2_PLACEMENT_3D('',#844,#845,#846);
#844 = CARTESIAN_POINT('',(-35.1,3.8,-111.5539607717));
#845 = DIRECTION('',(0.,1.,0.));
#846 = DIRECTION('',(0.,0.,1.));
#847 = ADVANCED_FACE('',(#848),#864,.F.);
#848 = FACE_BOUND('',#849,.F.);
#849 = EDGE_LOOP('',(#850,#851,#857,#858));
#850 = ORIENTED_EDGE('',*,*,#234,.F.);
#851 = ORIENTED_EDGE('',*,*,#852,.F.);
#852 = EDGE_CURVE('',#565,#235,#853,.T.);
#853 = LINE('',#854,#855);
#854 = CARTESIAN_POINT('',(13.9,6.2,-111.5539607717));
#855 = VECTOR('',#856,1.);
#856 = DIRECTION('',(0.,0.,1.));
#857 = ORIENTED_EDGE('',*,*,#564,.T.);
#858 = ORIENTED_EDGE('',*,*,#859,.T.);
#859 = EDGE_CURVE('',#567,#237,#860,.T.);
#860 = LINE('',#861,#862);
#861 = CARTESIAN_POINT('',(13.9,3.8,-111.5539607717));
#862 = VECTOR('',#863,1.);
#863 = DIRECTION('',(0.,0.,1.));
#864 = CYLINDRICAL_SURFACE('',#865,1.2);
#865 = AXIS2_PLACEMENT_3D('',#866,#867,#868);
#866 = CARTESIAN_POINT('',(13.9,5.,-111.5539607717));
#867 = DIRECTION('',(0.,0.,1.));
#868 = DIRECTION('',(1.,0.,0.));
#869 = ADVANCED_FACE('',(#870),#881,.T.);
#870 = FACE_BOUND('',#871,.T.);
#871 = EDGE_LOOP('',(#872,#873,#874,#875));
#872 = ORIENTED_EDGE('',*,*,#601,.T.);
#873 = ORIENTED_EDGE('',*,*,#859,.T.);
#874 = ORIENTED_EDGE('',*,*,#271,.F.);
#875 = ORIENTED_EDGE('',*,*,#876,.F.);
#876 = EDGE_CURVE('',#593,#263,#877,.T.);
#877 = LINE('',#878,#879);
#878 = CARTESIAN_POINT('',(14.4,3.8,-111.5539607717));
#879 = VECTOR('',#880,1.);
#880 = DIRECTION('',(0.,0.,1.));
#881 = PLANE('',#882);
#882 = AXIS2_PLACEMENT_3D('',#883,#884,#885);
#883 = CARTESIAN_POINT('',(13.9,3.8,-111.5539607717));
#884 = DIRECTION('',(0.,1.,0.));
#885 = DIRECTION('',(0.,0.,1.));
#886 = ADVANCED_FACE('',(#887),#898,.F.);
#887 = FACE_BOUND('',#888,.F.);
#888 = EDGE_LOOP('',(#889,#890,#891,#892));
#889 = ORIENTED_EDGE('',*,*,#575,.T.);
#890 = ORIENTED_EDGE('',*,*,#852,.T.);
#891 = ORIENTED_EDGE('',*,*,#245,.F.);
#892 = ORIENTED_EDGE('',*,*,#893,.F.);
#893 = EDGE_CURVE('',#576,#246,#894,.T.);
#894 = LINE('',#895,#896);
#895 = CARTESIAN_POINT('',(14.4,6.2,-111.5539607717));
#896 = VECTOR('',#897,1.);
#897 = DIRECTION('',(0.,0.,1.));
#898 = PLANE('',#899);
#899 = AXIS2_PLACEMENT_3D('',#900,#901,#902);
#900 = CARTESIAN_POINT('',(13.9,6.2,-111.5539607717));
#901 = DIRECTION('',(0.,1.,0.));
#902 = DIRECTION('',(0.,0.,1.));
#903 = ADVANCED_FACE('',(#904,#929,#940,#951,#962),#973,.T.);
#904 = FACE_BOUND('',#905,.T.);
#905 = EDGE_LOOP('',(#906,#914,#915,#923));
#906 = ORIENTED_EDGE('',*,*,#907,.F.);
#907 = EDGE_CURVE('',#333,#908,#910,.T.);
#908 = VERTEX_POINT('',#909);
#909 = CARTESIAN_POINT('',(-45.,32.,-135.3539607717));
#910 = LINE('',#911,#912);
#911 = CARTESIAN_POINT('',(-45.,-35.,-135.3539607717));
#912 = VECTOR('',#913,1.);
#913 = DIRECTION('',(-0.,1.,0.));
#914 = ORIENTED_EDGE('',*,*,#330,.F.);
#915 = ORIENTED_EDGE('',*,*,#916,.T.);
#916 = EDGE_CURVE('',#331,#917,#919,.T.);
#917 = VERTEX_POINT('',#918);
#918 = CARTESIAN_POINT('',(28.,32.,-135.3539607717));
#919 = LINE('',#920,#921);
#920 = CARTESIAN_POINT('',(28.,-35.,-135.3539607717));
#921 = VECTOR('',#922,1.);
#922 = DIRECTION('',(-0.,1.,0.));
#923 = ORIENTED_EDGE('',*,*,#924,.T.);
#924 = EDGE_CURVE('',#917,#908,#925,.T.);
#925 = LINE('',#926,#927);
#926 = CARTESIAN_POINT('',(-48.,32.,-135.3539607717));
#927 = VECTOR('',#928,1.);
#928 = DIRECTION('',(-1.,-0.,0.));
#929 = FACE_BOUND('',#930,.T.);
#930 = EDGE_LOOP('',(#931));
#931 = ORIENTED_EDGE('',*,*,#932,.F.);
#932 = EDGE_CURVE('',#933,#933,#935,.T.);
#933 = VERTEX_POINT('',#934);
#934 = CARTESIAN_POINT('',(-38.25,-27.,-135.3539607717));
#935 = CIRCLE('',#936,1.75);
#936 = AXIS2_PLACEMENT_3D('',#937,#938,#939);
#937 = CARTESIAN_POINT('',(-40.,-27.,-135.3539607717));
#938 = DIRECTION('',(0.,0.,1.));
#939 = DIRECTION('',(1.,0.,-0.));
#940 = FACE_BOUND('',#941,.T.);
#941 = EDGE_LOOP('',(#942));
#942 = ORIENTED_EDGE('',*,*,#943,.F.);
#943 = EDGE_CURVE('',#944,#944,#946,.T.);
#944 = VERTEX_POINT('',#945);
#945 = CARTESIAN_POINT('',(21.75,-27.,-135.3539607717));
#946 = CIRCLE('',#947,1.75);
#947 = AXIS2_PLACEMENT_3D('',#948,#949,#950);
#948 = CARTESIAN_POINT('',(20.,-27.,-135.3539607717));
#949 = DIRECTION('',(0.,0.,1.));
#950 = DIRECTION('',(1.,0.,-0.));
#951 = FACE_BOUND('',#952,.T.);
#952 = EDGE_LOOP('',(#953));
#953 = ORIENTED_EDGE('',*,*,#954,.F.);
#954 = EDGE_CURVE('',#955,#955,#957,.T.);
#955 = VERTEX_POINT('',#956);
#956 = CARTESIAN_POINT('',(-38.25,27.,-135.3539607717));
#957 = CIRCLE('',#958,1.75);
#958 = AXIS2_PLACEMENT_3D('',#959,#960,#961);
#959 = CARTESIAN_POINT('',(-40.,27.,-135.3539607717));
#960 = DIRECTION('',(0.,0.,1.));
#961 = DIRECTION('',(1.,0.,-0.));
#962 = FACE_BOUND('',#963,.T.);
#963 = EDGE_LOOP('',(#964));
#964 = ORIENTED_EDGE('',*,*,#965,.F.);
#965 = EDGE_CURVE('',#966,#966,#968,.T.);
#966 = VERTEX_POINT('',#967);
#967 = CARTESIAN_POINT('',(21.75,27.,-135.3539607717));
#968 = CIRCLE('',#969,1.75);
#969 = AXIS2_PLACEMENT_3D('',#970,#971,#972);
#970 = CARTESIAN_POINT('',(20.,27.,-135.3539607717));
#971 = DIRECTION('',(0.,0.,1.));
#972 = DIRECTION('',(1.,0.,-0.));
#973 = PLANE('',#974);
#974 = AXIS2_PLACEMENT_3D('',#975,#976,#977);
#975 = CARTESIAN_POINT('',(-48.,-35.,-135.3539607717));
#976 = DIRECTION('',(0.,0.,1.));
#977 = DIRECTION('',(1.,0.,-0.));
#978 = ADVANCED_FACE('',(#979),#990,.T.);
#979 = FACE_BOUND('',#980,.T.);
#980 = EDGE_LOOP('',(#981,#982,#983,#989));
#981 = ORIENTED_EDGE('',*,*,#340,.T.);
#982 = ORIENTED_EDGE('',*,*,#907,.T.);
#983 = ORIENTED_EDGE('',*,*,#984,.F.);
#984 = EDGE_CURVE('',#371,#908,#985,.T.);
#985 = LINE('',#986,#987);
#986 = CARTESIAN_POINT('',(-45.,32.,-138.3539607717));
#987 = VECTOR('',#988,1.);
#988 = DIRECTION('',(-0.,0.,-1.));
#989 = ORIENTED_EDGE('',*,*,#370,.F.);
#990 = PLANE('',#991);
#991 = AXIS2_PLACEMENT_3D('',#992,#993,#994);
#992 = CARTESIAN_POINT('',(-45.,-35.,-138.3539607717));
#993 = DIRECTION('',(1.,0.,-0.));
#994 = DIRECTION('',(0.,0.,1.));
#995 = ADVANCED_FACE('',(#996),#1007,.F.);
#996 = FACE_BOUND('',#997,.F.);
#997 = EDGE_LOOP('',(#998,#999,#1000,#1001));
#998 = ORIENTED_EDGE('',*,*,#924,.T.);
#999 = ORIENTED_EDGE('',*,*,#984,.F.);
#1000 = ORIENTED_EDGE('',*,*,#387,.F.);
#1001 = ORIENTED_EDGE('',*,*,#1002,.F.);
#1002 = EDGE_CURVE('',#917,#380,#1003,.T.);
#1003 = LINE('',#1004,#1005);
#1004 = CARTESIAN_POINT('',(28.,32.,-138.3539607717));
#1005 = VECTOR('',#1006,1.);
#1006 = DIRECTION('',(0.,0.,1.));
#1007 = PLANE('',#1008);
#1008 = AXIS2_PLACEMENT_3D('',#1009,#1010,#1011);
#1009 = CARTESIAN_POINT('',(-48.,32.,-138.3539607717));
#1010 = DIRECTION('',(-0.,1.,0.));
#1011 = DIRECTION('',(0.,0.,1.));
#1012 = ADVANCED_FACE('',(#1013),#1032,.F.);
#1013 = FACE_BOUND('',#1014,.F.);
#1014 = EDGE_LOOP('',(#1015,#1016,#1024,#1031));
#1015 = ORIENTED_EDGE('',*,*,#932,.F.);
#1016 = ORIENTED_EDGE('',*,*,#1017,.F.);
#1017 = EDGE_CURVE('',#1018,#933,#1020,.T.);
#1018 = VERTEX_POINT('',#1019);
#1019 = CARTESIAN_POINT('',(-38.25,-27.,-138.3539607717));
#1020 = LINE('',#1021,#1022);
#1021 = CARTESIAN_POINT('',(-38.25,-27.,-139.3539607717));
#1022 = VECTOR('',#1023,1.);
#1023 = DIRECTION('',(0.,0.,1.));
#1024 = ORIENTED_EDGE('',*,*,#1025,.T.);
#1025 = EDGE_CURVE('',#1018,#1018,#1026,.T.);
#1026 = CIRCLE('',#1027,1.75);
#1027 = AXIS2_PLACEMENT_3D('',#1028,#1029,#1030);
#1028 = CARTESIAN_POINT('',(-40.,-27.,-138.3539607717));
#1029 = DIRECTION('',(0.,0.,1.));
#1030 = DIRECTION('',(1.,0.,-0.));
#1031 = ORIENTED_EDGE('',*,*,#1017,.T.);
#1032 = CYLINDRICAL_SURFACE('',#1033,1.75);
#1033 = AXIS2_PLACEMENT_3D('',#1034,#1035,#1036);
#1034 = CARTESIAN_POINT('',(-40.,-27.,-139.3539607717));
#1035 = DIRECTION('',(0.,0.,1.));
#1036 = DIRECTION('',(1.,0.,-0.));
#1037 = ADVANCED_FACE('',(#1038),#1057,.F.);
#1038 = FACE_BOUND('',#1039,.F.);
#1039 = EDGE_LOOP('',(#1040,#1041,#1049,#1056));
#1040 = ORIENTED_EDGE('',*,*,#943,.F.);
#1041 = ORIENTED_EDGE('',*,*,#1042,.F.);
#1042 = EDGE_CURVE('',#1043,#944,#1045,.T.);
#1043 = VERTEX_POINT('',#1044);
#1044 = CARTESIAN_POINT('',(21.75,-27.,-138.3539607717));
#1045 = LINE('',#1046,#1047);
#1046 = CARTESIAN_POINT('',(21.75,-27.,-139.3539607717));
#1047 = VECTOR('',#1048,1.);
#1048 = DIRECTION('',(0.,0.,1.));
#1049 = ORIENTED_EDGE('',*,*,#1050,.T.);
#1050 = EDGE_CURVE('',#1043,#1043,#1051,.T.);
#1051 = CIRCLE('',#1052,1.75);
#1052 = AXIS2_PLACEMENT_3D('',#1053,#1054,#1055);
#1053 = CARTESIAN_POINT('',(20.,-27.,-138.3539607717));
#1054 = DIRECTION('',(0.,0.,1.));
#1055 = DIRECTION('',(1.,0.,-0.));
#1056 = ORIENTED_EDGE('',*,*,#1042,.T.);
#1057 = CYLINDRICAL_SURFACE('',#1058,1.75);
#1058 = AXIS2_PLACEMENT_3D('',#1059,#1060,#1061);
#1059 = CARTESIAN_POINT('',(20.,-27.,-139.3539607717));
#1060 = DIRECTION('',(0.,0.,1.));
#1061 = DIRECTION('',(1.,0.,-0.));
#1062 = ADVANCED_FACE('',(#1063),#1082,.F.);
#1063 = FACE_BOUND('',#1064,.F.);
#1064 = EDGE_LOOP('',(#1065,#1066,#1074,#1081));
#1065 = ORIENTED_EDGE('',*,*,#954,.F.);
#1066 = ORIENTED_EDGE('',*,*,#1067,.F.);
#1067 = EDGE_CURVE('',#1068,#955,#1070,.T.);
#1068 = VERTEX_POINT('',#1069);
#1069 = CARTESIAN_POINT('',(-38.25,27.,-138.3539607717));
#1070 = LINE('',#1071,#1072);
#1071 = CARTESIAN_POINT('',(-38.25,27.,-139.3539607717));
#1072 = VECTOR('',#1073,1.);
#1073 = DIRECTION('',(0.,0.,1.));
#1074 = ORIENTED_EDGE('',*,*,#1075,.T.);
#1075 = EDGE_CURVE('',#1068,#1068,#1076,.T.);
#1076 = CIRCLE('',#1077,1.75);
#1077 = AXIS2_PLACEMENT_3D('',#1078,#1079,#1080);
#1078 = CARTESIAN_POINT('',(-40.,27.,-138.3539607717));
#1079 = DIRECTION('',(0.,0.,1.));
#1080 = DIRECTION('',(1.,0.,-0.));
#1081 = ORIENTED_EDGE('',*,*,#1067,.T.);
#1082 = CYLINDRICAL_SURFACE('',#1083,1.75);
#1083 = AXIS2_PLACEMENT_3D('',#1084,#1085,#1086);
#1084 = CARTESIAN_POINT('',(-40.,27.,-139.3539607717));
#1085 = DIRECTION('',(0.,0.,1.));
#1086 = DIRECTION('',(1.,0.,-0.));
#1087 = ADVANCED_FACE('',(#1088),#1107,.F.);
#1088 = FACE_BOUND('',#1089,.F.);
#1089 = EDGE_LOOP('',(#1090,#1091,#1099,#1106));
#1090 = ORIENTED_EDGE('',*,*,#965,.F.);
#1091 = ORIENTED_EDGE('',*,*,#1092,.F.);
#1092 = EDGE_CURVE('',#1093,#966,#1095,.T.);
#1093 = VERTEX_POINT('',#1094);
#1094 = CARTESIAN_POINT('',(21.75,27.,-138.3539607717));
#1095 = LINE('',#1096,#1097);
#1096 = CARTESIAN_POINT('',(21.75,27.,-139.3539607717));
#1097 = VECTOR('',#1098,1.);
#1098 = DIRECTION('',(0.,0.,1.));
#1099 = ORIENTED_EDGE('',*,*,#1100,.T.);
#1100 = EDGE_CURVE('',#1093,#1093,#1101,.T.);
#1101 = CIRCLE('',#1102,1.75);
#1102 = AXIS2_PLACEMENT_3D('',#1103,#1104,#1105);
#1103 = CARTESIAN_POINT('',(20.,27.,-138.3539607717));
#1104 = DIRECTION('',(0.,0.,1.));
#1105 = DIRECTION('',(1.,0.,-0.));
#1106 = ORIENTED_EDGE('',*,*,#1092,.T.);
#1107 = CYLINDRICAL_SURFACE('',#1108,1.75);
#1108 = AXIS2_PLACEMENT_3D('',#1109,#1110,#1111);
#1109 = CARTESIAN_POINT('',(20.,27.,-139.3539607717));
#1110 = DIRECTION('',(0.,0.,1.));
#1111 = DIRECTION('',(1.,0.,-0.));
#1112 = ADVANCED_FACE('',(#1113,#1131),#1137,.T.);
#1113 = FACE_BOUND('',#1114,.T.);
#1114 = EDGE_LOOP('',(#1115,#1116,#1124,#1130));
#1115 = ORIENTED_EDGE('',*,*,#70,.F.);
#1116 = ORIENTED_EDGE('',*,*,#1117,.T.);
#1117 = EDGE_CURVE('',#63,#1118,#1120,.T.);
#1118 = VERTEX_POINT('',#1119);
#1119 = CARTESIAN_POINT('',(28.,35.,-138.3539607717));
#1120 = LINE('',#1121,#1122);
#1121 = CARTESIAN_POINT('',(28.,-35.,-138.3539607717));
#1122 = VECTOR('',#1123,1.);
#1123 = DIRECTION('',(-0.,1.,0.));
#1124 = ORIENTED_EDGE('',*,*,#1125,.T.);
#1125 = EDGE_CURVE('',#1118,#95,#1126,.T.);
#1126 = LINE('',#1127,#1128);
#1127 = CARTESIAN_POINT('',(28.,35.,-138.3539607717));
#1128 = VECTOR('',#1129,1.);
#1129 = DIRECTION('',(0.,0.,1.));
#1130 = ORIENTED_EDGE('',*,*,#94,.F.);
#1131 = FACE_BOUND('',#1132,.T.);
#1132 = EDGE_LOOP('',(#1133,#1134,#1135,#1136));
#1133 = ORIENTED_EDGE('',*,*,#379,.T.);
#1134 = ORIENTED_EDGE('',*,*,#1002,.F.);
#1135 = ORIENTED_EDGE('',*,*,#916,.F.);
#1136 = ORIENTED_EDGE('',*,*,#356,.T.);
#1137 = PLANE('',#1138);
#1138 = AXIS2_PLACEMENT_3D('',#1139,#1140,#1141);
#1139 = CARTESIAN_POINT('',(28.,0.,-121.9539607717));
#1140 = DIRECTION('',(1.,0.,0.));
#1141 = DIRECTION('',(-0.,0.,1.));
#1142 = ADVANCED_FACE('',(#1143),#1154,.T.);
#1143 = FACE_BOUND('',#1144,.T.);
#1144 = EDGE_LOOP('',(#1145,#1146,#1147,#1153));
#1145 = ORIENTED_EDGE('',*,*,#102,.T.);
#1146 = ORIENTED_EDGE('',*,*,#1125,.F.);
#1147 = ORIENTED_EDGE('',*,*,#1148,.F.);
#1148 = EDGE_CURVE('',#32,#1118,#1149,.T.);
#1149 = LINE('',#1150,#1151);
#1150 = CARTESIAN_POINT('',(-48.,35.,-138.3539607717));
#1151 = VECTOR('',#1152,1.);
#1152 = DIRECTION('',(1.,0.,-0.));
#1153 = ORIENTED_EDGE('',*,*,#31,.T.);
#1154 = PLANE('',#1155);
#1155 = AXIS2_PLACEMENT_3D('',#1156,#1157,#1158);
#1156 = CARTESIAN_POINT('',(-10.,35.,-121.9539607717));
#1157 = DIRECTION('',(0.,1.,0.));
#1158 = DIRECTION('',(0.,-0.,1.));
#1159 = ADVANCED_FACE('',(#1160,#1166,#1169,#1172,#1175),#1178,.F.);
#1160 = FACE_BOUND('',#1161,.T.);
#1161 = EDGE_LOOP('',(#1162,#1163,#1164,#1165));
#1162 = ORIENTED_EDGE('',*,*,#39,.T.);
#1163 = ORIENTED_EDGE('',*,*,#1148,.T.);
#1164 = ORIENTED_EDGE('',*,*,#1117,.F.);
#1165 = ORIENTED_EDGE('',*,*,#62,.F.);
#1166 = FACE_BOUND('',#1167,.F.);
#1167 = EDGE_LOOP('',(#1168));
#1168 = ORIENTED_EDGE('',*,*,#1025,.F.);
#1169 = FACE_BOUND('',#1170,.F.);
#1170 = EDGE_LOOP('',(#1171));
#1171 = ORIENTED_EDGE('',*,*,#1050,.F.);
#1172 = FACE_BOUND('',#1173,.F.);
#1173 = EDGE_LOOP('',(#1174));
#1174 = ORIENTED_EDGE('',*,*,#1075,.F.);
#1175 = FACE_BOUND('',#1176,.F.);
#1176 = EDGE_LOOP('',(#1177));
#1177 = ORIENTED_EDGE('',*,*,#1100,.F.);
#1178 = PLANE('',#1179);
#1179 = AXIS2_PLACEMENT_3D('',#1180,#1181,#1182);
#1180 = CARTESIAN_POINT('',(-48.,-35.,-138.3539607717));
#1181 = DIRECTION('',(0.,0.,1.));
#1182 = DIRECTION('',(1.,0.,-0.));
#1183 = ADVANCED_FACE('',(#1184),#1192,.F.);
#1184 = FACE_BOUND('',#1185,.F.);
#1185 = EDGE_LOOP('',(#1186,#1187,#1188,#1189,#1190,#1191));
#1186 = ORIENTED_EDGE('',*,*,#657,.F.);
#1187 = ORIENTED_EDGE('',*,*,#406,.T.);
#1188 = ORIENTED_EDGE('',*,*,#395,.T.);
#1189 = ORIENTED_EDGE('',*,*,#623,.T.);
#1190 = ORIENTED_EDGE('',*,*,#189,.F.);
#1191 = ORIENTED_EDGE('',*,*,#200,.F.);
#1192 = CYLINDRICAL_SURFACE('',#1193,1.2);
#1193 = AXIS2_PLACEMENT_3D('',#1194,#1195,#1196);
#1194 = CARTESIAN_POINT('',(-34.6,-5.,-111.5539607717));
#1195 = DIRECTION('',(0.,0.,1.));
#1196 = DIRECTION('',(1.,0.,0.));
#1197 = ADVANCED_FACE('',(#1198),#1206,.F.);
#1198 = FACE_BOUND('',#1199,.F.);
#1199 = EDGE_LOOP('',(#1200,#1201,#1202,#1203,#1204,#1205));
#1200 = ORIENTED_EDGE('',*,*,#781,.T.);
#1201 = ORIENTED_EDGE('',*,*,#298,.F.);
#1202 = ORIENTED_EDGE('',*,*,#307,.F.);
#1203 = ORIENTED_EDGE('',*,*,#764,.F.);
#1204 = ORIENTED_EDGE('',*,*,#502,.T.);
#1205 = ORIENTED_EDGE('',*,*,#493,.T.);
#1206 = CYLINDRICAL_SURFACE('',#1207,1.2);
#1207 = AXIS2_PLACEMENT_3D('',#1208,#1209,#1210);
#1208 = CARTESIAN_POINT('',(14.4,-5.,-111.5539607717));
#1209 = DIRECTION('',(0.,0.,1.));
#1210 = DIRECTION('',(1.,0.,0.));
#1211 = ADVANCED_FACE('',(#1212),#1220,.F.);
#1212 = FACE_BOUND('',#1213,.F.);
#1213 = EDGE_LOOP('',(#1214,#1215,#1216,#1217,#1218,#1219));
#1214 = ORIENTED_EDGE('',*,*,#837,.F.);
#1215 = ORIENTED_EDGE('',*,*,#530,.T.);
#1216 = ORIENTED_EDGE('',*,*,#519,.T.);
#1217 = ORIENTED_EDGE('',*,*,#803,.T.);
#1218 = ORIENTED_EDGE('',*,*,#144,.F.);
#1219 = ORIENTED_EDGE('',*,*,#155,.F.);
#1220 = CYLINDRICAL_SURFACE('',#1221,1.2);
#1221 = AXIS2_PLACEMENT_3D('',#1222,#1223,#1224);
#1222 = CARTESIAN_POINT('',(-34.6,5.,-111.5539607717));
#1223 = DIRECTION('',(0.,0.,1.));
#1224 = DIRECTION('',(1.,0.,0.));
#1225 = ADVANCED_FACE('',(#1226),#1234,.F.);
#1226 = FACE_BOUND('',#1227,.F.);
#1227 = EDGE_LOOP('',(#1228,#1229,#1230,#1231,#1232,#1233));
#1228 = ORIENTED_EDGE('',*,*,#893,.T.);
#1229 = ORIENTED_EDGE('',*,*,#253,.F.);
#1230 = ORIENTED_EDGE('',*,*,#262,.F.);
#1231 = ORIENTED_EDGE('',*,*,#876,.F.);
#1232 = ORIENTED_EDGE('',*,*,#592,.T.);
#1233 = ORIENTED_EDGE('',*,*,#583,.T.);
#1234 = CYLINDRICAL_SURFACE('',#1235,1.2);
#1235 = AXIS2_PLACEMENT_3D('',#1236,#1237,#1238);
#1236 = CARTESIAN_POINT('',(14.4,5.,-111.5539607717));
#1237 = DIRECTION('',(0.,0.,1.));
#1238 = DIRECTION('',(1.,0.,0.));
#1239 = ( GEOMETRIC_REPRESENTATION_CONTEXT(3) 
GLOBAL_UNCERTAINTY_ASSIGNED_CONTEXT((#1243)) 
GLOBAL_UNIT_ASSIGNED_CONTEXT((#1240,#1241,#1242)) REPRESENTATION_CONTEXT
('Context #1','3D Context with UNIT and UNCERTAINTY') );
#1240 = ( LENGTH_UNIT() NAMED_UNIT(*) SI_UNIT(.MILLI.,.METRE.) );
#1241 = ( NAMED_UNIT(*) PLANE_ANGLE_UNIT() SI_UNIT($,.RADIAN.) );
#1242 = ( NAMED_UNIT(*) SI_UNIT($,.STERADIAN.) SOLID_ANGLE_UNIT() );
#1243 = UNCERTAINTY_MEASURE_WITH_UNIT(LENGTH_MEASURE(1.E-07),#1240,
  'distance_accuracy_value','confusion accuracy');
#1244 = PRODUCT_RELATED_PRODUCT_CATEGORY('part',$,(#7));
ENDSEC;
END-ISO-10303-21;
