ISO-10303-21;
HEADER;
FILE_DESCRIPTION(('FreeCAD Model'),'2;1');
FILE_NAME('Open CASCADE Shape Model','2026-10-08T13:04:26',('FreeCAD'),(
    'FreeCAD'),'Open CASCADE STEP processor 7.8','FreeCAD','Unknown');
FILE_SCHEMA(('AUTOMOTIVE_DESIGN { 1 0 10303 214 1 1 1 1 }'));
ENDSEC;
DATA;
#1 = APPLICATION_PROTOCOL_DEFINITION('international standard',
  'automotive_design',2000,#2);
#2 = APPLICATION_CONTEXT(
  'core data for automotive mechanical design processes');
#3 = SHAPE_DEFINITION_REPRESENTATION(#4,#10);
#4 = PRODUCT_DEFINITION_SHAPE('','',#5);
#5 = PRODUCT_DEFINITION('design','',#6,#9);
#6 = PRODUCT_DEFINITION_FORMATION('','',#7);
#7 = PRODUCT('Open CASCADE STEP translator 7.8 7',
  'Open CASCADE STEP translator 7.8 7','',(#8));
#8 = PRODUCT_CONTEXT('',#2,'mechanical');
#9 = PRODUCT_DEFINITION_CONTEXT('part definition',#2,'design');
#10 = ADVANCED_BREP_SHAPE_REPRESENTATION('',(#11,#15),#2113);
#11 = AXIS2_PLACEMENT_3D('',#12,#13,#14);
#12 = CARTESIAN_POINT('',(0.,0.,0.));
#13 = DIRECTION('',(0.,0.,1.));
#14 = DIRECTION('',(1.,0.,-0.));
#15 = MANIFOLD_SOLID_BREP('',#16);
#16 = CLOSED_SHELL('',(#17,#57,#88,#124,#148,#225,#250,#293,#317,#341,
    #752,#769,#794,#825,#849,#873,#897,#921,#945,#969,#993,#1017,#1041,
    #1065,#1089,#1113,#1137,#1161,#1185,#1209,#1233,#1257,#1281,#1305,
    #1329,#1353,#1377,#1401,#1425,#1449,#1473,#1497,#1521,#1545,#1569,
    #1593,#1617,#1641,#1665,#1689,#1713,#1737,#1761,#1785,#1809,#1833,
    #1857,#1881,#1905,#1929,#1953,#1977,#1994,#2063,#2088));
#17 = ADVANCED_FACE('',(#18),#52,.F.);
#18 = FACE_BOUND('',#19,.F.);
#19 = EDGE_LOOP('',(#20,#30,#38,#46));
#20 = ORIENTED_EDGE('',*,*,#21,.F.);
#21 = EDGE_CURVE('',#22,#24,#26,.T.);
#22 = VERTEX_POINT('',#23);
#23 = CARTESIAN_POINT('',(-22.85,-4.1,0.));
#24 = VERTEX_POINT('',#25);
#25 = CARTESIAN_POINT('',(-22.85,-4.1,2.5));
#26 = LINE('',#27,#28);
#27 = CARTESIAN_POINT('',(-22.85,-4.1,0.));
#28 = VECTOR('',#29,1.);
#29 = DIRECTION('',(0.,0.,1.));
#30 = ORIENTED_EDGE('',*,*,#31,.T.);
#31 = EDGE_CURVE('',#22,#32,#34,.T.);
#32 = VERTEX_POINT('',#33);
#33 = CARTESIAN_POINT('',(-22.85,4.1,0.));
#34 = LINE('',#35,#36);
#35 = CARTESIAN_POINT('',(-22.85,-4.1,0.));
#36 = VECTOR('',#37,1.);
#37 = DIRECTION('',(-0.,1.,0.));
#38 = ORIENTED_EDGE('',*,*,#39,.T.);
#39 = EDGE_CURVE('',#32,#40,#42,.T.);
#40 = VERTEX_POINT('',#41);
#41 = CARTESIAN_POINT('',(-22.85,4.1,2.5));
#42 = LINE('',#43,#44);
#43 = CARTESIAN_POINT('',(-22.85,4.1,0.));
#44 = VECTOR('',#45,1.);
#45 = DIRECTION('',(0.,0.,1.));
#46 = ORIENTED_EDGE('',*,*,#47,.F.);
#47 = EDGE_CURVE('',#24,#40,#48,.T.);
#48 = LINE('',#49,#50);
#49 = CARTESIAN_POINT('',(-22.85,-4.1,2.5));
#50 = VECTOR('',#51,1.);
#51 = DIRECTION('',(-0.,1.,0.));
#52 = PLANE('',#53);
#53 = AXIS2_PLACEMENT_3D('',#54,#55,#56);
#54 = CARTESIAN_POINT('',(-22.85,-4.1,0.));
#55 = DIRECTION('',(1.,0.,-0.));
#56 = DIRECTION('',(0.,0.,1.));
#57 = ADVANCED_FACE('',(#58),#83,.F.);
#58 = FACE_BOUND('',#59,.F.);
#59 = EDGE_LOOP('',(#60,#68,#69,#77));
#60 = ORIENTED_EDGE('',*,*,#61,.F.);
#61 = EDGE_CURVE('',#22,#62,#64,.T.);
#62 = VERTEX_POINT('',#63);
#63 = CARTESIAN_POINT('',(-3.814446224552,-4.1,0.));
#64 = LINE('',#65,#66);
#65 = CARTESIAN_POINT('',(-22.85,-4.1,0.));
#66 = VECTOR('',#67,1.);
#67 = DIRECTION('',(1.,0.,-0.));
#68 = ORIENTED_EDGE('',*,*,#21,.T.);
#69 = ORIENTED_EDGE('',*,*,#70,.T.);
#70 = EDGE_CURVE('',#24,#71,#73,.T.);
#71 = VERTEX_POINT('',#72);
#72 = CARTESIAN_POINT('',(-3.814446224552,-4.1,2.5));
#73 = LINE('',#74,#75);
#74 = CARTESIAN_POINT('',(-22.85,-4.1,2.5));
#75 = VECTOR('',#76,1.);
#76 = DIRECTION('',(1.,0.,-0.));
#77 = ORIENTED_EDGE('',*,*,#78,.F.);
#78 = EDGE_CURVE('',#62,#71,#79,.T.);
#79 = LINE('',#80,#81);
#80 = CARTESIAN_POINT('',(-3.814446224552,-4.1,0.));
#81 = VECTOR('',#82,1.);
#82 = DIRECTION('',(0.,0.,1.));
#83 = PLANE('',#84);
#84 = AXIS2_PLACEMENT_3D('',#85,#86,#87);
#85 = CARTESIAN_POINT('',(-22.85,-4.1,0.));
#86 = DIRECTION('',(-0.,1.,0.));
#87 = DIRECTION('',(0.,0.,1.));
#88 = ADVANCED_FACE('',(#89,#108),#119,.T.);
#89 = FACE_BOUND('',#90,.T.);
#90 = EDGE_LOOP('',(#91,#99,#100,#101));
#91 = ORIENTED_EDGE('',*,*,#92,.F.);
#92 = EDGE_CURVE('',#40,#93,#95,.T.);
#93 = VERTEX_POINT('',#94);
#94 = CARTESIAN_POINT('',(-3.814446224552,4.1,2.5));
#95 = LINE('',#96,#97);
#96 = CARTESIAN_POINT('',(-22.85,4.1,2.5));
#97 = VECTOR('',#98,1.);
#98 = DIRECTION('',(1.,0.,-0.));
#99 = ORIENTED_EDGE('',*,*,#47,.F.);
#100 = ORIENTED_EDGE('',*,*,#70,.T.);
#101 = ORIENTED_EDGE('',*,*,#102,.F.);
#102 = EDGE_CURVE('',#93,#71,#103,.T.);
#103 = CIRCLE('',#104,5.6);
#104 = AXIS2_PLACEMENT_3D('',#105,#106,#107);
#105 = CARTESIAN_POINT('',(0.,0.,2.5));
#106 = DIRECTION('',(0.,0.,1.));
#107 = DIRECTION('',(1.,0.,-0.));
#108 = FACE_BOUND('',#109,.T.);
#109 = EDGE_LOOP('',(#110));
#110 = ORIENTED_EDGE('',*,*,#111,.F.);
#111 = EDGE_CURVE('',#112,#112,#114,.T.);
#112 = VERTEX_POINT('',#113);
#113 = CARTESIAN_POINT('',(-18.15,-3.306546357698E-16,2.5));
#114 = CIRCLE('',#115,1.35);
#115 = AXIS2_PLACEMENT_3D('',#116,#117,#118);
#116 = CARTESIAN_POINT('',(-19.5,0.,2.5));
#117 = DIRECTION('',(0.,0.,1.));
#118 = DIRECTION('',(1.,0.,-0.));
#119 = PLANE('',#120);
#120 = AXIS2_PLACEMENT_3D('',#121,#122,#123);
#121 = CARTESIAN_POINT('',(-22.85,-4.1,2.5));
#122 = DIRECTION('',(0.,0.,1.));
#123 = DIRECTION('',(1.,0.,-0.));
#124 = ADVANCED_FACE('',(#125),#143,.T.);
#125 = FACE_BOUND('',#126,.T.);
#126 = EDGE_LOOP('',(#127,#135,#136,#137));
#127 = ORIENTED_EDGE('',*,*,#128,.F.);
#128 = EDGE_CURVE('',#32,#129,#131,.T.);
#129 = VERTEX_POINT('',#130);
#130 = CARTESIAN_POINT('',(-3.814446224552,4.1,0.));
#131 = LINE('',#132,#133);
#132 = CARTESIAN_POINT('',(-22.85,4.1,0.));
#133 = VECTOR('',#134,1.);
#134 = DIRECTION('',(1.,0.,-0.));
#135 = ORIENTED_EDGE('',*,*,#39,.T.);
#136 = ORIENTED_EDGE('',*,*,#92,.T.);
#137 = ORIENTED_EDGE('',*,*,#138,.F.);
#138 = EDGE_CURVE('',#129,#93,#139,.T.);
#139 = LINE('',#140,#141);
#140 = CARTESIAN_POINT('',(-3.814446224552,4.1,0.));
#141 = VECTOR('',#142,1.);
#142 = DIRECTION('',(0.,0.,1.));
#143 = PLANE('',#144);
#144 = AXIS2_PLACEMENT_3D('',#145,#146,#147);
#145 = CARTESIAN_POINT('',(-22.85,4.1,0.));
#146 = DIRECTION('',(-0.,1.,0.));
#147 = DIRECTION('',(0.,0.,1.));
#148 = ADVANCED_FACE('',(#149),#220,.T.);
#149 = FACE_BOUND('',#150,.T.);
#150 = EDGE_LOOP('',(#151,#161,#168,#169,#178,#186,#193,#194,#195,#196,
    #205,#213));
#151 = ORIENTED_EDGE('',*,*,#152,.T.);
#152 = EDGE_CURVE('',#153,#155,#157,.T.);
#153 = VERTEX_POINT('',#154);
#154 = CARTESIAN_POINT('',(5.6,-1.371604415045E-15,2.5));
#155 = VERTEX_POINT('',#156);
#156 = CARTESIAN_POINT('',(5.6,-1.371604415045E-15,10.));
#157 = LINE('',#158,#159);
#158 = CARTESIAN_POINT('',(5.6,-1.371604415045E-15,0.));
#159 = VECTOR('',#160,1.);
#160 = DIRECTION('',(0.,0.,1.));
#161 = ORIENTED_EDGE('',*,*,#162,.F.);
#162 = EDGE_CURVE('',#155,#155,#163,.T.);
#163 = CIRCLE('',#164,5.6);
#164 = AXIS2_PLACEMENT_3D('',#165,#166,#167);
#165 = CARTESIAN_POINT('',(0.,0.,10.));
#166 = DIRECTION('',(0.,0.,1.));
#167 = DIRECTION('',(1.,0.,-0.));
#168 = ORIENTED_EDGE('',*,*,#152,.F.);
#169 = ORIENTED_EDGE('',*,*,#170,.T.);
#170 = EDGE_CURVE('',#153,#171,#173,.T.);
#171 = VERTEX_POINT('',#172);
#172 = CARTESIAN_POINT('',(3.814446224552,4.1,2.5));
#173 = CIRCLE('',#174,5.6);
#174 = AXIS2_PLACEMENT_3D('',#175,#176,#177);
#175 = CARTESIAN_POINT('',(0.,0.,2.5));
#176 = DIRECTION('',(0.,0.,1.));
#177 = DIRECTION('',(1.,0.,-0.));
#178 = ORIENTED_EDGE('',*,*,#179,.F.);
#179 = EDGE_CURVE('',#180,#171,#182,.T.);
#180 = VERTEX_POINT('',#181);
#181 = CARTESIAN_POINT('',(3.814446224552,4.1,0.));
#182 = LINE('',#183,#184);
#183 = CARTESIAN_POINT('',(3.814446224552,4.1,0.));
#184 = VECTOR('',#185,1.);
#185 = DIRECTION('',(0.,0.,1.));
#186 = ORIENTED_EDGE('',*,*,#187,.T.);
#187 = EDGE_CURVE('',#180,#129,#188,.T.);
#188 = CIRCLE('',#189,5.6);
#189 = AXIS2_PLACEMENT_3D('',#190,#191,#192);
#190 = CARTESIAN_POINT('',(0.,0.,0.));
#191 = DIRECTION('',(0.,0.,1.));
#192 = DIRECTION('',(1.,0.,-0.));
#193 = ORIENTED_EDGE('',*,*,#138,.T.);
#194 = ORIENTED_EDGE('',*,*,#102,.T.);
#195 = ORIENTED_EDGE('',*,*,#78,.F.);
#196 = ORIENTED_EDGE('',*,*,#197,.T.);
#197 = EDGE_CURVE('',#62,#198,#200,.T.);
#198 = VERTEX_POINT('',#199);
#199 = CARTESIAN_POINT('',(3.814446224552,-4.1,0.));
#200 = CIRCLE('',#201,5.6);
#201 = AXIS2_PLACEMENT_3D('',#202,#203,#204);
#202 = CARTESIAN_POINT('',(0.,0.,0.));
#203 = DIRECTION('',(0.,0.,1.));
#204 = DIRECTION('',(1.,0.,-0.));
#205 = ORIENTED_EDGE('',*,*,#206,.T.);
#206 = EDGE_CURVE('',#198,#207,#209,.T.);
#207 = VERTEX_POINT('',#208);
#208 = CARTESIAN_POINT('',(3.814446224552,-4.1,2.5));
#209 = LINE('',#210,#211);
#210 = CARTESIAN_POINT('',(3.814446224552,-4.1,0.));
#211 = VECTOR('',#212,1.);
#212 = DIRECTION('',(0.,0.,1.));
#213 = ORIENTED_EDGE('',*,*,#214,.T.);
#214 = EDGE_CURVE('',#207,#153,#215,.T.);
#215 = CIRCLE('',#216,5.6);
#216 = AXIS2_PLACEMENT_3D('',#217,#218,#219);
#217 = CARTESIAN_POINT('',(0.,0.,2.5));
#218 = DIRECTION('',(0.,0.,1.));
#219 = DIRECTION('',(1.,0.,-0.));
#220 = CYLINDRICAL_SURFACE('',#221,5.6);
#221 = AXIS2_PLACEMENT_3D('',#222,#223,#224);
#222 = CARTESIAN_POINT('',(0.,0.,0.));
#223 = DIRECTION('',(0.,0.,1.));
#224 = DIRECTION('',(1.,0.,-0.));
#225 = ADVANCED_FACE('',(#226),#245,.F.);
#226 = FACE_BOUND('',#227,.F.);
#227 = EDGE_LOOP('',(#228,#229,#237,#244));
#228 = ORIENTED_EDGE('',*,*,#111,.F.);
#229 = ORIENTED_EDGE('',*,*,#230,.F.);
#230 = EDGE_CURVE('',#231,#112,#233,.T.);
#231 = VERTEX_POINT('',#232);
#232 = CARTESIAN_POINT('',(-18.15,-3.306546357698E-16,0.));
#233 = LINE('',#234,#235);
#234 = CARTESIAN_POINT('',(-18.15,-3.306546357698E-16,-1.));
#235 = VECTOR('',#236,1.);
#236 = DIRECTION('',(0.,0.,1.));
#237 = ORIENTED_EDGE('',*,*,#238,.T.);
#238 = EDGE_CURVE('',#231,#231,#239,.T.);
#239 = CIRCLE('',#240,1.35);
#240 = AXIS2_PLACEMENT_3D('',#241,#242,#243);
#241 = CARTESIAN_POINT('',(-19.5,0.,0.));
#242 = DIRECTION('',(0.,0.,1.));
#243 = DIRECTION('',(1.,0.,-0.));
#244 = ORIENTED_EDGE('',*,*,#230,.T.);
#245 = CYLINDRICAL_SURFACE('',#246,1.35);
#246 = AXIS2_PLACEMENT_3D('',#247,#248,#249);
#247 = CARTESIAN_POINT('',(-19.5,0.,-1.));
#248 = DIRECTION('',(0.,0.,1.));
#249 = DIRECTION('',(1.,0.,-0.));
#250 = ADVANCED_FACE('',(#251,#277),#288,.T.);
#251 = FACE_BOUND('',#252,.T.);
#252 = EDGE_LOOP('',(#253,#261,#262,#263,#271));
#253 = ORIENTED_EDGE('',*,*,#254,.F.);
#254 = EDGE_CURVE('',#171,#255,#257,.T.);
#255 = VERTEX_POINT('',#256);
#256 = CARTESIAN_POINT('',(22.85,4.1,2.5));
#257 = LINE('',#258,#259);
#258 = CARTESIAN_POINT('',(-22.85,4.1,2.5));
#259 = VECTOR('',#260,1.);
#260 = DIRECTION('',(1.,0.,-0.));
#261 = ORIENTED_EDGE('',*,*,#170,.F.);
#262 = ORIENTED_EDGE('',*,*,#214,.F.);
#263 = ORIENTED_EDGE('',*,*,#264,.T.);
#264 = EDGE_CURVE('',#207,#265,#267,.T.);
#265 = VERTEX_POINT('',#266);
#266 = CARTESIAN_POINT('',(22.85,-4.1,2.5));
#267 = LINE('',#268,#269);
#268 = CARTESIAN_POINT('',(-22.85,-4.1,2.5));
#269 = VECTOR('',#270,1.);
#270 = DIRECTION('',(1.,0.,-0.));
#271 = ORIENTED_EDGE('',*,*,#272,.T.);
#272 = EDGE_CURVE('',#265,#255,#273,.T.);
#273 = LINE('',#274,#275);
#274 = CARTESIAN_POINT('',(22.85,-4.1,2.5));
#275 = VECTOR('',#276,1.);
#276 = DIRECTION('',(-0.,1.,0.));
#277 = FACE_BOUND('',#278,.T.);
#278 = EDGE_LOOP('',(#279));
#279 = ORIENTED_EDGE('',*,*,#280,.F.);
#280 = EDGE_CURVE('',#281,#281,#283,.T.);
#281 = VERTEX_POINT('',#282);
#282 = CARTESIAN_POINT('',(20.85,-3.306546357698E-16,2.5));
#283 = CIRCLE('',#284,1.35);
#284 = AXIS2_PLACEMENT_3D('',#285,#286,#287);
#285 = CARTESIAN_POINT('',(19.5,0.,2.5));
#286 = DIRECTION('',(0.,0.,1.));
#287 = DIRECTION('',(1.,0.,-0.));
#288 = PLANE('',#289);
#289 = AXIS2_PLACEMENT_3D('',#290,#291,#292);
#290 = CARTESIAN_POINT('',(-22.85,-4.1,2.5));
#291 = DIRECTION('',(0.,0.,1.));
#292 = DIRECTION('',(1.,0.,-0.));
#293 = ADVANCED_FACE('',(#294),#312,.F.);
#294 = FACE_BOUND('',#295,.F.);
#295 = EDGE_LOOP('',(#296,#304,#305,#306));
#296 = ORIENTED_EDGE('',*,*,#297,.F.);
#297 = EDGE_CURVE('',#198,#298,#300,.T.);
#298 = VERTEX_POINT('',#299);
#299 = CARTESIAN_POINT('',(22.85,-4.1,0.));
#300 = LINE('',#301,#302);
#301 = CARTESIAN_POINT('',(-22.85,-4.1,0.));
#302 = VECTOR('',#303,1.);
#303 = DIRECTION('',(1.,0.,-0.));
#304 = ORIENTED_EDGE('',*,*,#206,.T.);
#305 = ORIENTED_EDGE('',*,*,#264,.T.);
#306 = ORIENTED_EDGE('',*,*,#307,.F.);
#307 = EDGE_CURVE('',#298,#265,#308,.T.);
#308 = LINE('',#309,#310);
#309 = CARTESIAN_POINT('',(22.85,-4.1,0.));
#310 = VECTOR('',#311,1.);
#311 = DIRECTION('',(0.,0.,1.));
#312 = PLANE('',#313);
#313 = AXIS2_PLACEMENT_3D('',#314,#315,#316);
#314 = CARTESIAN_POINT('',(-22.85,-4.1,0.));
#315 = DIRECTION('',(-0.,1.,0.));
#316 = DIRECTION('',(0.,0.,1.));
#317 = ADVANCED_FACE('',(#318),#336,.T.);
#318 = FACE_BOUND('',#319,.T.);
#319 = EDGE_LOOP('',(#320,#328,#329,#330));
#320 = ORIENTED_EDGE('',*,*,#321,.F.);
#321 = EDGE_CURVE('',#180,#322,#324,.T.);
#322 = VERTEX_POINT('',#323);
#323 = CARTESIAN_POINT('',(22.85,4.1,0.));
#324 = LINE('',#325,#326);
#325 = CARTESIAN_POINT('',(-22.85,4.1,0.));
#326 = VECTOR('',#327,1.);
#327 = DIRECTION('',(1.,0.,-0.));
#328 = ORIENTED_EDGE('',*,*,#179,.T.);
#329 = ORIENTED_EDGE('',*,*,#254,.T.);
#330 = ORIENTED_EDGE('',*,*,#331,.F.);
#331 = EDGE_CURVE('',#322,#255,#332,.T.);
#332 = LINE('',#333,#334);
#333 = CARTESIAN_POINT('',(22.85,4.1,0.));
#334 = VECTOR('',#335,1.);
#335 = DIRECTION('',(0.,0.,1.));
#336 = PLANE('',#337);
#337 = AXIS2_PLACEMENT_3D('',#338,#339,#340);
#338 = CARTESIAN_POINT('',(-22.85,4.1,0.));
#339 = DIRECTION('',(-0.,1.,0.));
#340 = DIRECTION('',(0.,0.,1.));
#341 = ADVANCED_FACE('',(#342,#345),#747,.T.);
#342 = FACE_BOUND('',#343,.T.);
#343 = EDGE_LOOP('',(#344));
#344 = ORIENTED_EDGE('',*,*,#162,.T.);
#345 = FACE_BOUND('',#346,.T.);
#346 = EDGE_LOOP('',(#347,#357,#365,#373,#381,#389,#397,#405,#413,#421,
    #429,#437,#445,#453,#461,#469,#477,#485,#493,#501,#509,#517,#525,
    #533,#541,#549,#557,#565,#573,#581,#589,#597,#605,#613,#621,#629,
    #637,#645,#653,#661,#669,#677,#685,#693,#701,#709,#717,#725,#733,
    #741));
#347 = ORIENTED_EDGE('',*,*,#348,.T.);
#348 = EDGE_CURVE('',#349,#351,#353,.T.);
#349 = VERTEX_POINT('',#350);
#350 = CARTESIAN_POINT('',(3.002607799499,0.770938650211,10.));
#351 = VERTEX_POINT('',#352);
#352 = CARTESIAN_POINT('',(2.777921163681,0.35093305398,10.));
#353 = LINE('',#354,#355);
#354 = CARTESIAN_POINT('',(2.395887662912,-0.363200244097,10.));
#355 = VECTOR('',#356,1.);
#356 = DIRECTION('',(-0.471705268357,-0.881756281409,0.));
#357 = ORIENTED_EDGE('',*,*,#358,.T.);
#358 = EDGE_CURVE('',#351,#359,#361,.T.);
#359 = VERTEX_POINT('',#360);
#360 = CARTESIAN_POINT('',(3.1,0.,10.));
#361 = LINE('',#362,#363);
#362 = CARTESIAN_POINT('',(2.391331636689,0.772156146109,10.));
#363 = VECTOR('',#364,1.);
#364 = DIRECTION('',(0.676169650076,-0.73674595643,0.));
#365 = ORIENTED_EDGE('',*,*,#366,.T.);
#366 = EDGE_CURVE('',#359,#367,#369,.T.);
#367 = VERTEX_POINT('',#368);
#368 = CARTESIAN_POINT('',(2.777921163681,-0.35093305398,10.));
#369 = LINE('',#370,#371);
#370 = CARTESIAN_POINT('',(2.230292218529,-0.947622673099,10.));
#371 = VECTOR('',#372,1.);
#372 = DIRECTION('',(-0.676169650076,-0.73674595643,0.));
#373 = ORIENTED_EDGE('',*,*,#374,.T.);
#374 = EDGE_CURVE('',#367,#375,#377,.T.);
#375 = VERTEX_POINT('',#376);
#376 = CARTESIAN_POINT('',(3.002607799499,-0.770938650211,10.));
#377 = LINE('',#378,#379);
#378 = CARTESIAN_POINT('',(2.508230980821,0.153197445981,10.));
#379 = VECTOR('',#380,1.);
#380 = DIRECTION('',(0.471705268357,-0.881756281409,0.));
#381 = ORIENTED_EDGE('',*,*,#382,.T.);
#382 = EDGE_CURVE('',#375,#383,#385,.T.);
#383 = VERTEX_POINT('',#384);
#384 = CARTESIAN_POINT('',(2.603374160487,-1.030748747517,10.));
#385 = LINE('',#386,#387);
#386 = CARTESIAN_POINT('',(1.924559311616,-1.472502484438,10.));
#387 = VECTOR('',#388,1.);
#388 = DIRECTION('',(-0.838147805904,-0.545443173446,0.));
#389 = ORIENTED_EDGE('',*,*,#390,.T.);
#390 = EDGE_CURVE('',#383,#391,#393,.T.);
#391 = VERTEX_POINT('',#392);
#392 = CARTESIAN_POINT('',(2.716550708136,-1.493436389715,10.));
#393 = LINE('',#394,#395);
#394 = CARTESIAN_POINT('',(2.467528947799,-0.475387213098,10.));
#395 = VECTOR('',#396,1.);
#396 = DIRECTION('',(0.237601909815,-0.971362616355,0.));
#397 = ORIENTED_EDGE('',*,*,#398,.T.);
#398 = EDGE_CURVE('',#391,#399,#401,.T.);
#399 = VERTEX_POINT('',#400);
#400 = CARTESIAN_POINT('',(2.26524758425,-1.645798706419,10.));
#401 = LINE('',#402,#403);
#402 = CARTESIAN_POINT('',(1.497899265119,-1.904859549195,10.));
#403 = VECTOR('',#404,1.);
#404 = DIRECTION('',(-0.947462052594,-0.319868189874,0.));
#405 = ORIENTED_EDGE('',*,*,#406,.T.);
#406 = EDGE_CURVE('',#399,#407,#409,.T.);
#407 = VERTEX_POINT('',#408);
#408 = CARTESIAN_POINT('',(2.259802745006,-2.122096028379,10.));
#409 = LINE('',#410,#411);
#410 = CARTESIAN_POINT('',(2.271782996051,-1.074101545227,10.));
#411 = VECTOR('',#412,1.);
#412 = DIRECTION('',(-1.143085055838E-02,-0.999934665693,0.));
#413 = ORIENTED_EDGE('',*,*,#414,.T.);
#414 = EDGE_CURVE('',#407,#415,#417,.T.);
#415 = VERTEX_POINT('',#416);
#416 = CARTESIAN_POINT('',(1.784787171296,-2.157437079772,10.));
#417 = LINE('',#418,#419);
#418 = CARTESIAN_POINT('',(0.977120698908,-2.217527282892,10.));
#419 = VECTOR('',#420,1.);
#420 = DIRECTION('',(-0.997243773999,-7.41947115402E-02,0.));
#421 = ORIENTED_EDGE('',*,*,#422,.T.);
#422 = EDGE_CURVE('',#415,#423,#425,.T.);
#423 = VERTEX_POINT('',#424);
#424 = CARTESIAN_POINT('',(1.661063064435,-2.617416569056,10.));
#425 = LINE('',#426,#427);
#426 = CARTESIAN_POINT('',(1.933292563627,-1.605326127,10.));
#427 = VECTOR('',#428,1.);
#428 = DIRECTION('',(-0.259745368552,-0.965677142484,0.));
#429 = ORIENTED_EDGE('',*,*,#430,.T.);
#430 = EDGE_CURVE('',#423,#431,#433,.T.);
#431 = VERTEX_POINT('',#432);
#432 = CARTESIAN_POINT('',(1.192182016382,-2.533515746905,10.));
#433 = LINE('',#434,#435);
#434 = CARTESIAN_POINT('',(0.394946045585,-2.39085962191,10.));
#435 = VECTOR('',#436,1.);
#436 = DIRECTION('',(-0.984365001477,0.176140693389,0.));
#437 = ORIENTED_EDGE('',*,*,#438,.T.);
#438 = EDGE_CURVE('',#431,#439,#441,.T.);
#439 = VERTEX_POINT('',#440);
#440 = CARTESIAN_POINT('',(0.957952682562,-2.948275200515,10.));
#441 = LINE('',#442,#443);
#442 = CARTESIAN_POINT('',(1.473326249278,-2.035682164237,10.));
#443 = VECTOR('',#444,1.);
#444 = DIRECTION('',(-0.491739129762,-0.8707425729,0.));
#445 = ORIENTED_EDGE('',*,*,#446,.T.);
#446 = EDGE_CURVE('',#439,#447,#449,.T.);
#447 = VERTEX_POINT('',#448);
#448 = CARTESIAN_POINT('',(0.52466768084,-2.75040430204,10.));
#449 = LINE('',#450,#451);
#450 = CARTESIAN_POINT('',(-0.212044520292,-2.413965457917,10.));
#451 = VECTOR('',#452,1.);
#452 = DIRECTION('',(-0.909634955671,0.415408530752,0.));
#453 = ORIENTED_EDGE('',*,*,#454,.T.);
#454 = EDGE_CURVE('',#447,#455,#457,.T.);
#455 = VERTEX_POINT('',#456);
#456 = CARTESIAN_POINT('',(0.194650610541,-3.093882858128,10.));
#457 = LINE('',#458,#459);
#458 = CARTESIAN_POINT('',(0.920785428172,-2.33812880438,10.));
#459 = VECTOR('',#460,1.);
#460 = DIRECTION('',(-0.69283511296,-0.721096045094,0.));
#461 = ORIENTED_EDGE('',*,*,#462,.T.);
#462 = EDGE_CURVE('',#455,#463,#465,.T.);
#463 = VERTEX_POINT('',#464);
#464 = CARTESIAN_POINT('',(-0.175813454682,-2.794474839599,10.));
#465 = LINE('',#466,#467);
#466 = CARTESIAN_POINT('',(-0.805711549114,-2.285392966259,10.));
#467 = VECTOR('',#468,1.);
#468 = DIRECTION('',(-0.777749200197,0.628574722363,0.));
#469 = ORIENTED_EDGE('',*,*,#470,.T.);
#470 = EDGE_CURVE('',#463,#471,#473,.T.);
#471 = VERTEX_POINT('',#472);
#472 = CARTESIAN_POINT('',(-0.580882075216,-3.045090477259,10.));
#473 = LINE('',#474,#475);
#474 = CARTESIAN_POINT('',(0.310388272202,-2.493662212707,10.));
#475 = VECTOR('',#476,1.);
#476 = DIRECTION('',(-0.850397717941,-0.526140400768,0.));
#477 = ORIENTED_EDGE('',*,*,#478,.T.);
#478 = EDGE_CURVE('',#471,#479,#481,.T.);
#479 = VERTEX_POINT('',#480);
#480 = CARTESIAN_POINT('',(-0.86524758425,-2.662958245626,10.));
#481 = LINE('',#482,#483);
#482 = CARTESIAN_POINT('',(-1.348752758105,-2.013220829444,10.));
#483 = VECTOR('',#484,1.);
#484 = DIRECTION('',(-0.596994602113,0.802245252431,0.));
#485 = ORIENTED_EDGE('',*,*,#486,.T.);
#486 = EDGE_CURVE('',#479,#487,#489,.T.);
#487 = VERTEX_POINT('',#488);
#488 = CARTESIAN_POINT('',(-1.319915803852,-2.804963862645,10.));
#489 = LINE('',#490,#491);
#490 = CARTESIAN_POINT('',(-0.319511720439,-2.492509653162,10.));
#491 = VECTOR('',#492,1.);
#492 = DIRECTION('',(-0.95452670676,-0.298125420054,0.));
#493 = ORIENTED_EDGE('',*,*,#494,.T.);
#494 = EDGE_CURVE('',#487,#495,#497,.T.);
#495 = VERTEX_POINT('',#496);
#496 = CARTESIAN_POINT('',(-1.500315025941,-2.364118191406,10.));
#497 = LINE('',#498,#499);
#498 = CARTESIAN_POINT('',(-1.807046870939,-1.614550623807,10.));
#499 = VECTOR('',#500,1.);
#500 = DIRECTION('',(-0.378728637585,0.925507762838,0.));
#501 = ORIENTED_EDGE('',*,*,#502,.T.);
#502 = EDGE_CURVE('',#495,#503,#505,.T.);
#503 = VERTEX_POINT('',#504);
#504 = CARTESIAN_POINT('',(-1.976014368221,-2.388591052605,10.));
#505 = LINE('',#506,#507);
#506 = CARTESIAN_POINT('',(-0.929335616603,-2.334743545299,10.));
#507 = VECTOR('',#508,1.);
#508 = DIRECTION('',(-0.998679272089,-5.137812276833E-02,0.));
#509 = ORIENTED_EDGE('',*,*,#510,.T.);
#510 = EDGE_CURVE('',#503,#511,#513,.T.);
#511 = VERTEX_POINT('',#512);
#512 = CARTESIAN_POINT('',(-2.04111215678,-1.9167318966,10.));
#513 = LINE('',#514,#515);
#514 = CARTESIAN_POINT('',(-2.151797583018,-1.114432264573,10.));
#515 = VECTOR('',#516,1.);
#516 = DIRECTION('',(-0.136665759892,0.990617216726,0.));
#517 = ORIENTED_EDGE('',*,*,#518,.T.);
#518 = EDGE_CURVE('',#511,#519,#521,.T.);
#519 = VERTEX_POINT('',#520);
#520 = CARTESIAN_POINT('',(-2.507952682562,-1.822134282107,10.));
#521 = LINE('',#522,#523);
#522 = CARTESIAN_POINT('',(-1.480765938118,-2.0302769139,10.));
#523 = VECTOR('',#524,1.);
#524 = DIRECTION('',(-0.980081145868,0.198597450926,0.));
#525 = ORIENTED_EDGE('',*,*,#526,.T.);
#526 = EDGE_CURVE('',#519,#527,#529,.T.);
#527 = VERTEX_POINT('',#528);
#528 = CARTESIAN_POINT('',(-2.453658704123,-1.348910287485,10.));
#529 = LINE('',#530,#531);
#530 = CARTESIAN_POINT('',(-2.361342939198,-0.544290027562,10.));
#531 = VECTOR('',#532,1.);
#532 = DIRECTION('',(0.113984330117,0.993482547651,-0.));
#533 = ORIENTED_EDGE('',*,*,#534,.T.);
#534 = EDGE_CURVE('',#527,#535,#537,.T.);
#535 = VERTEX_POINT('',#536);
#536 = CARTESIAN_POINT('',(-2.882307106254,-1.141186113323,10.));
#537 = LINE('',#538,#539);
#538 = CARTESIAN_POINT('',(-1.939154289865,-1.598240517163,10.));
#539 = VECTOR('',#540,1.);
#540 = DIRECTION('',(-0.899900916765,0.436094416388,0.));
#541 = ORIENTED_EDGE('',*,*,#542,.T.);
#542 = EDGE_CURVE('',#535,#543,#545,.T.);
#543 = VERTEX_POINT('',#544);
#544 = CARTESIAN_POINT('',(-2.71203285116,-0.696331684062,10.));
#545 = LINE('',#546,#547);
#546 = CARTESIAN_POINT('',(-2.422516434097,6.005195363997E-02,10.));
#547 = VECTOR('',#548,1.);
#548 = DIRECTION('',(0.357472365459,0.933923716335,-0.));
#549 = ORIENTED_EDGE('',*,*,#550,.T.);
#550 = EDGE_CURVE('',#543,#551,#553,.T.);
#551 = VERTEX_POINT('',#552);
#552 = CARTESIAN_POINT('',(-3.075555574075,-0.388533024049,10.));
#553 = LINE('',#554,#555);
#554 = CARTESIAN_POINT('',(-2.275698445869,-1.065780790816,10.));
#555 = VECTOR('',#556,1.);
#556 = DIRECTION('',(-0.763176603458,0.646189965826,0.));
#557 = ORIENTED_EDGE('',*,*,#558,.T.);
#558 = EDGE_CURVE('',#551,#559,#561,.T.);
#559 = VERTEX_POINT('',#560);
#560 = CARTESIAN_POINT('',(-2.8,3.429011037613E-16,10.));
#561 = LINE('',#562,#563);
#562 = CARTESIAN_POINT('',(-2.331474312049,0.660620649739,10.));
#563 = VECTOR('',#564,1.);
#564 = DIRECTION('',(0.578499097389,0.81568302319,-0.));
#565 = ORIENTED_EDGE('',*,*,#566,.T.);
#566 = EDGE_CURVE('',#559,#567,#569,.T.);
#567 = VERTEX_POINT('',#568);
#568 = CARTESIAN_POINT('',(-3.075555574075,0.388533024049,10.));
#569 = LINE('',#570,#571);
#570 = CARTESIAN_POINT('',(-2.469252099086,-0.466354137714,10.));
#571 = VECTOR('',#572,1.);
#572 = DIRECTION('',(-0.578499097389,0.81568302319,0.));
#573 = ORIENTED_EDGE('',*,*,#574,.T.);
#574 = EDGE_CURVE('',#567,#575,#577,.T.);
#575 = VERTEX_POINT('',#576);
#576 = CARTESIAN_POINT('',(-2.71203285116,0.696331684062,10.));
#577 = LINE('',#578,#579);
#578 = CARTESIAN_POINT('',(-2.093937084412,1.219680120822,10.));
#579 = VECTOR('',#580,1.);
#580 = DIRECTION('',(0.763176603458,0.646189965826,-0.));
#581 = ORIENTED_EDGE('',*,*,#582,.T.);
#582 = EDGE_CURVE('',#575,#583,#585,.T.);
#583 = VERTEX_POINT('',#584);
#584 = CARTESIAN_POINT('',(-2.882307106254,1.141186113323,10.));
#585 = LINE('',#586,#587);
#586 = CARTESIAN_POINT('',(-2.507653561643,0.16237526099,10.));
#587 = VECTOR('',#588,1.);
#588 = DIRECTION('',(-0.357472365459,0.933923716335,0.));
#589 = ORIENTED_EDGE('',*,*,#590,.T.);
#590 = EDGE_CURVE('',#583,#591,#593,.T.);
#591 = VERTEX_POINT('',#592);
#592 = CARTESIAN_POINT('',(-2.453658704123,1.348910287485,10.));
#593 = LINE('',#594,#595);
#594 = CARTESIAN_POINT('',(-1.7248300888,1.702102604244,10.));
#595 = VECTOR('',#596,1.);
#596 = DIRECTION('',(0.899900916765,0.436094416388,-0.));
#597 = ORIENTED_EDGE('',*,*,#598,.T.);
#598 = EDGE_CURVE('',#591,#599,#601,.T.);
#599 = VERTEX_POINT('',#600);
#600 = CARTESIAN_POINT('',(-2.507952682562,1.822134282107,10.));
#601 = LINE('',#602,#603);
#602 = CARTESIAN_POINT('',(-2.388489928418,0.780902024873,10.));
#603 = VECTOR('',#604,1.);
#604 = DIRECTION('',(-0.113984330117,0.993482547651,0.));
#605 = ORIENTED_EDGE('',*,*,#606,.T.);
#606 = EDGE_CURVE('',#599,#607,#609,.T.);
#607 = VERTEX_POINT('',#608);
#608 = CARTESIAN_POINT('',(-2.04111215678,1.9167318966,10.));
#609 = LINE('',#610,#611);
#610 = CARTESIAN_POINT('',(-1.247345675227,2.077575721146,10.));
#611 = VECTOR('',#612,1.);
#612 = DIRECTION('',(0.980081145868,0.198597450926,-0.));
#613 = ORIENTED_EDGE('',*,*,#614,.T.);
#614 = EDGE_CURVE('',#607,#615,#617,.T.);
#615 = VERTEX_POINT('',#616);
#616 = CARTESIAN_POINT('',(-1.976014368221,2.388591052605,10.));
#617 = LINE('',#618,#619);
#618 = CARTESIAN_POINT('',(-2.119248688738,1.350361842576,10.));
#619 = VECTOR('',#620,1.);
#620 = DIRECTION('',(0.136665759892,0.990617216726,-0.));
#621 = ORIENTED_EDGE('',*,*,#622,.T.);
#622 = EDGE_CURVE('',#615,#623,#625,.T.);
#623 = VERTEX_POINT('',#624);
#624 = CARTESIAN_POINT('',(-1.500315025941,2.364118191406,10.));
#625 = LINE('',#626,#627);
#626 = CARTESIAN_POINT('',(-0.691485945463,2.3225071147,10.));
#627 = VECTOR('',#628,1.);
#628 = DIRECTION('',(0.998679272089,-5.137812276833E-02,0.));
#629 = ORIENTED_EDGE('',*,*,#630,.T.);
#630 = EDGE_CURVE('',#623,#631,#633,.T.);
#631 = VERTEX_POINT('',#632);
#632 = CARTESIAN_POINT('',(-1.319915803852,2.804963862645,10.));
#633 = LINE('',#634,#635);
#634 = CARTESIAN_POINT('',(-1.716847259894,1.834973459426,10.));
#635 = VECTOR('',#636,1.);
#636 = DIRECTION('',(0.378728637585,0.925507762838,-0.));
#637 = ORIENTED_EDGE('',*,*,#638,.T.);
#638 = EDGE_CURVE('',#631,#639,#641,.T.);
#639 = VERTEX_POINT('',#640);
#640 = CARTESIAN_POINT('',(-0.86524758425,2.662958245626,10.));
#641 = LINE('',#642,#643);
#642 = CARTESIAN_POINT('',(-9.21776106382E-02,2.421506844653,10.));
#643 = VECTOR('',#644,1.);
#644 = DIRECTION('',(0.95452670676,-0.298125420054,0.));
#645 = ORIENTED_EDGE('',*,*,#646,.T.);
#646 = EDGE_CURVE('',#639,#647,#649,.T.);
#647 = VERTEX_POINT('',#648);
#648 = CARTESIAN_POINT('',(-0.580882075216,3.045090477259,10.));
#649 = LINE('',#650,#651);
#650 = CARTESIAN_POINT('',(-1.206570003588,2.20428694526,10.));
#651 = VECTOR('',#652,1.);
#652 = DIRECTION('',(0.596994602113,0.802245252431,-0.));
#653 = ORIENTED_EDGE('',*,*,#654,.T.);
#654 = EDGE_CURVE('',#647,#655,#657,.T.);
#655 = VERTEX_POINT('',#656);
#656 = CARTESIAN_POINT('',(-0.175813454682,2.794474839599,10.));
#657 = LINE('',#658,#659);
#658 = CARTESIAN_POINT('',(0.512922582468,2.368354393877,10.));
#659 = VECTOR('',#660,1.);
#660 = DIRECTION('',(0.850397717941,-0.526140400768,0.));
#661 = ORIENTED_EDGE('',*,*,#662,.T.);
#662 = EDGE_CURVE('',#655,#663,#665,.T.);
#663 = VERTEX_POINT('',#664);
#664 = CARTESIAN_POINT('',(0.194650610541,3.093882858128,10.));
#665 = LINE('',#666,#667);
#666 = CARTESIAN_POINT('',(-0.620479516503,2.435096975524,10.));
#667 = VECTOR('',#668,1.);
#668 = DIRECTION('',(0.777749200197,0.628574722363,-0.));
#669 = ORIENTED_EDGE('',*,*,#670,.T.);
#670 = EDGE_CURVE('',#663,#671,#673,.T.);
#671 = VERTEX_POINT('',#672);
#672 = CARTESIAN_POINT('',(0.52466768084,2.75040430204,10.));
#673 = LINE('',#674,#675);
#674 = CARTESIAN_POINT('',(1.085793963321,2.166389526336,10.));
#675 = VECTOR('',#676,1.);
#676 = DIRECTION('',(0.69283511296,-0.721096045094,0.));
#677 = ORIENTED_EDGE('',*,*,#678,.T.);
#678 = EDGE_CURVE('',#671,#679,#681,.T.);
#679 = VERTEX_POINT('',#680);
#680 = CARTESIAN_POINT('',(0.957952682562,2.948275200515,10.));
#681 = LINE('',#682,#683);
#682 = CARTESIAN_POINT('',(4.597980568901E-03,2.512900907155,10.));
#683 = VECTOR('',#684,1.);
#684 = DIRECTION('',(0.909634955671,0.415408530752,-0.));
#685 = ORIENTED_EDGE('',*,*,#686,.T.);
#686 = EDGE_CURVE('',#679,#687,#689,.T.);
#687 = VERTEX_POINT('',#688);
#688 = CARTESIAN_POINT('',(1.192182016382,2.533515746905,10.));
#689 = LINE('',#690,#691);
#690 = CARTESIAN_POINT('',(1.590440916188,1.828302437432,10.));
#691 = VECTOR('',#692,1.);
#692 = DIRECTION('',(0.491739129762,-0.8707425729,0.));
#693 = ORIENTED_EDGE('',*,*,#694,.T.);
#694 = EDGE_CURVE('',#687,#695,#697,.T.);
#695 = VERTEX_POINT('',#696);
#696 = CARTESIAN_POINT('',(1.661063064435,2.617416569056,10.));
#697 = LINE('',#698,#699);
#698 = CARTESIAN_POINT('',(0.629386569611,2.432810032986,10.));
#699 = VECTOR('',#700,1.);
#700 = DIRECTION('',(0.984365001477,0.176140693389,-0.));
#701 = ORIENTED_EDGE('',*,*,#702,.T.);
#702 = EDGE_CURVE('',#695,#703,#705,.T.);
#703 = VERTEX_POINT('',#704);
#704 = CARTESIAN_POINT('',(1.784787171296,2.157437079772,10.));
#705 = LINE('',#706,#707);
#706 = CARTESIAN_POINT('',(1.995154617058,1.375336382358,10.));
#707 = VECTOR('',#708,1.);
#708 = DIRECTION('',(0.259745368552,-0.965677142484,0.));
#709 = ORIENTED_EDGE('',*,*,#710,.T.);
#710 = EDGE_CURVE('',#703,#711,#713,.T.);
#711 = VERTEX_POINT('',#712);
#712 = CARTESIAN_POINT('',(2.259802745006,2.122096028379,10.));
#713 = LINE('',#714,#715);
#714 = CARTESIAN_POINT('',(1.214628485763,2.199856757195,10.));
#715 = VECTOR('',#716,1.);
#716 = DIRECTION('',(0.997243773999,-7.41947115402E-02,0.));
#717 = ORIENTED_EDGE('',*,*,#718,.T.);
#718 = EDGE_CURVE('',#711,#719,#721,.T.);
#719 = VERTEX_POINT('',#720);
#720 = CARTESIAN_POINT('',(2.26524758425,1.645798706419,10.));
#721 = LINE('',#722,#723);
#722 = CARTESIAN_POINT('',(2.274505415672,0.835952884247,10.));
#723 = VECTOR('',#724,1.);
#724 = DIRECTION('',(1.143085055838E-02,-0.999934665693,0.));
#725 = ORIENTED_EDGE('',*,*,#726,.T.);
#726 = EDGE_CURVE('',#719,#727,#729,.T.);
#727 = VERTEX_POINT('',#728);
#728 = CARTESIAN_POINT('',(2.716550708136,1.493436389715,10.));
#729 = LINE('',#730,#731);
#730 = CARTESIAN_POINT('',(1.723550827063,1.828678390843,10.));
#731 = VECTOR('',#732,1.);
#732 = DIRECTION('',(0.947462052594,-0.319868189874,0.));
#733 = ORIENTED_EDGE('',*,*,#734,.T.);
#734 = EDGE_CURVE('',#727,#735,#737,.T.);
#735 = VERTEX_POINT('',#736);
#736 = CARTESIAN_POINT('',(2.603374160487,1.030748747517,10.));
#737 = LINE('',#738,#739);
#738 = CARTESIAN_POINT('',(2.410940673975,0.244043391999,10.));
#739 = VECTOR('',#740,1.);
#740 = DIRECTION('',(-0.237601909815,-0.971362616355,0.));
#741 = ORIENTED_EDGE('',*,*,#742,.T.);
#742 = EDGE_CURVE('',#735,#349,#743,.T.);
#743 = LINE('',#744,#745);
#744 = CARTESIAN_POINT('',(2.124176131122,1.342597435785,10.));
#745 = VECTOR('',#746,1.);
#746 = DIRECTION('',(0.838147805904,-0.545443173446,0.));
#747 = PLANE('',#748);
#748 = AXIS2_PLACEMENT_3D('',#749,#750,#751);
#749 = CARTESIAN_POINT('',(0.,0.,10.));
#750 = DIRECTION('',(0.,0.,1.));
#751 = DIRECTION('',(1.,0.,-0.));
#752 = ADVANCED_FACE('',(#753),#764,.T.);
#753 = FACE_BOUND('',#754,.T.);
#754 = EDGE_LOOP('',(#755,#756,#762,#763));
#755 = ORIENTED_EDGE('',*,*,#307,.F.);
#756 = ORIENTED_EDGE('',*,*,#757,.T.);
#757 = EDGE_CURVE('',#298,#322,#758,.T.);
#758 = LINE('',#759,#760);
#759 = CARTESIAN_POINT('',(22.85,-4.1,0.));
#760 = VECTOR('',#761,1.);
#761 = DIRECTION('',(-0.,1.,0.));
#762 = ORIENTED_EDGE('',*,*,#331,.T.);
#763 = ORIENTED_EDGE('',*,*,#272,.F.);
#764 = PLANE('',#765);
#765 = AXIS2_PLACEMENT_3D('',#766,#767,#768);
#766 = CARTESIAN_POINT('',(22.85,-4.1,0.));
#767 = DIRECTION('',(1.,0.,-0.));
#768 = DIRECTION('',(0.,0.,1.));
#769 = ADVANCED_FACE('',(#770),#789,.F.);
#770 = FACE_BOUND('',#771,.F.);
#771 = EDGE_LOOP('',(#772,#773,#781,#788));
#772 = ORIENTED_EDGE('',*,*,#280,.F.);
#773 = ORIENTED_EDGE('',*,*,#774,.F.);
#774 = EDGE_CURVE('',#775,#281,#777,.T.);
#775 = VERTEX_POINT('',#776);
#776 = CARTESIAN_POINT('',(20.85,-3.306546357698E-16,0.));
#777 = LINE('',#778,#779);
#778 = CARTESIAN_POINT('',(20.85,-3.306546357698E-16,-1.));
#779 = VECTOR('',#780,1.);
#780 = DIRECTION('',(0.,0.,1.));
#781 = ORIENTED_EDGE('',*,*,#782,.T.);
#782 = EDGE_CURVE('',#775,#775,#783,.T.);
#783 = CIRCLE('',#784,1.35);
#784 = AXIS2_PLACEMENT_3D('',#785,#786,#787);
#785 = CARTESIAN_POINT('',(19.5,0.,0.));
#786 = DIRECTION('',(0.,0.,1.));
#787 = DIRECTION('',(1.,0.,-0.));
#788 = ORIENTED_EDGE('',*,*,#774,.T.);
#789 = CYLINDRICAL_SURFACE('',#790,1.35);
#790 = AXIS2_PLACEMENT_3D('',#791,#792,#793);
#791 = CARTESIAN_POINT('',(19.5,0.,-1.));
#792 = DIRECTION('',(0.,0.,1.));
#793 = DIRECTION('',(1.,0.,-0.));
#794 = ADVANCED_FACE('',(#795),#820,.T.);
#795 = FACE_BOUND('',#796,.T.);
#796 = EDGE_LOOP('',(#797,#807,#813,#814));
#797 = ORIENTED_EDGE('',*,*,#798,.F.);
#798 = EDGE_CURVE('',#799,#801,#803,.T.);
#799 = VERTEX_POINT('',#800);
#800 = CARTESIAN_POINT('',(2.777921163681,0.35093305398,6.));
#801 = VERTEX_POINT('',#802);
#802 = CARTESIAN_POINT('',(3.002607799499,0.770938650211,6.));
#803 = LINE('',#804,#805);
#804 = CARTESIAN_POINT('',(2.777921163681,0.35093305398,6.));
#805 = VECTOR('',#806,1.);
#806 = DIRECTION('',(0.471705268357,0.881756281409,0.));
#807 = ORIENTED_EDGE('',*,*,#808,.T.);
#808 = EDGE_CURVE('',#799,#351,#809,.T.);
#809 = LINE('',#810,#811);
#810 = CARTESIAN_POINT('',(2.777921163681,0.35093305398,6.));
#811 = VECTOR('',#812,1.);
#812 = DIRECTION('',(0.,0.,1.));
#813 = ORIENTED_EDGE('',*,*,#348,.F.);
#814 = ORIENTED_EDGE('',*,*,#815,.F.);
#815 = EDGE_CURVE('',#801,#349,#816,.T.);
#816 = LINE('',#817,#818);
#817 = CARTESIAN_POINT('',(3.002607799499,0.770938650211,6.));
#818 = VECTOR('',#819,1.);
#819 = DIRECTION('',(0.,0.,1.));
#820 = PLANE('',#821);
#821 = AXIS2_PLACEMENT_3D('',#822,#823,#824);
#822 = CARTESIAN_POINT('',(2.777921163681,0.35093305398,6.));
#823 = DIRECTION('',(-0.881756281409,0.471705268357,0.));
#824 = DIRECTION('',(0.471705268357,0.881756281409,0.));
#825 = ADVANCED_FACE('',(#826),#844,.T.);
#826 = FACE_BOUND('',#827,.T.);
#827 = EDGE_LOOP('',(#828,#836,#837,#838));
#828 = ORIENTED_EDGE('',*,*,#829,.F.);
#829 = EDGE_CURVE('',#801,#830,#832,.T.);
#830 = VERTEX_POINT('',#831);
#831 = CARTESIAN_POINT('',(2.603374160487,1.030748747517,6.));
#832 = LINE('',#833,#834);
#833 = CARTESIAN_POINT('',(3.002607799499,0.770938650211,6.));
#834 = VECTOR('',#835,1.);
#835 = DIRECTION('',(-0.838147805904,0.545443173446,0.));
#836 = ORIENTED_EDGE('',*,*,#815,.T.);
#837 = ORIENTED_EDGE('',*,*,#742,.F.);
#838 = ORIENTED_EDGE('',*,*,#839,.F.);
#839 = EDGE_CURVE('',#830,#735,#840,.T.);
#840 = LINE('',#841,#842);
#841 = CARTESIAN_POINT('',(2.603374160487,1.030748747517,6.));
#842 = VECTOR('',#843,1.);
#843 = DIRECTION('',(0.,0.,1.));
#844 = PLANE('',#845);
#845 = AXIS2_PLACEMENT_3D('',#846,#847,#848);
#846 = CARTESIAN_POINT('',(3.002607799499,0.770938650211,6.));
#847 = DIRECTION('',(-0.545443173446,-0.838147805904,0.));
#848 = DIRECTION('',(-0.838147805904,0.545443173446,0.));
#849 = ADVANCED_FACE('',(#850),#868,.T.);
#850 = FACE_BOUND('',#851,.T.);
#851 = EDGE_LOOP('',(#852,#860,#861,#862));
#852 = ORIENTED_EDGE('',*,*,#853,.F.);
#853 = EDGE_CURVE('',#830,#854,#856,.T.);
#854 = VERTEX_POINT('',#855);
#855 = CARTESIAN_POINT('',(2.716550708136,1.493436389715,6.));
#856 = LINE('',#857,#858);
#857 = CARTESIAN_POINT('',(2.603374160487,1.030748747517,6.));
#858 = VECTOR('',#859,1.);
#859 = DIRECTION('',(0.237601909815,0.971362616355,0.));
#860 = ORIENTED_EDGE('',*,*,#839,.T.);
#861 = ORIENTED_EDGE('',*,*,#734,.F.);
#862 = ORIENTED_EDGE('',*,*,#863,.F.);
#863 = EDGE_CURVE('',#854,#727,#864,.T.);
#864 = LINE('',#865,#866);
#865 = CARTESIAN_POINT('',(2.716550708136,1.493436389715,6.));
#866 = VECTOR('',#867,1.);
#867 = DIRECTION('',(0.,0.,1.));
#868 = PLANE('',#869);
#869 = AXIS2_PLACEMENT_3D('',#870,#871,#872);
#870 = CARTESIAN_POINT('',(2.603374160487,1.030748747517,6.));
#871 = DIRECTION('',(-0.971362616355,0.237601909815,0.));
#872 = DIRECTION('',(0.237601909815,0.971362616355,0.));
#873 = ADVANCED_FACE('',(#874),#892,.T.);
#874 = FACE_BOUND('',#875,.T.);
#875 = EDGE_LOOP('',(#876,#884,#885,#886));
#876 = ORIENTED_EDGE('',*,*,#877,.F.);
#877 = EDGE_CURVE('',#854,#878,#880,.T.);
#878 = VERTEX_POINT('',#879);
#879 = CARTESIAN_POINT('',(2.26524758425,1.645798706419,6.));
#880 = LINE('',#881,#882);
#881 = CARTESIAN_POINT('',(2.716550708136,1.493436389715,6.));
#882 = VECTOR('',#883,1.);
#883 = DIRECTION('',(-0.947462052594,0.319868189874,0.));
#884 = ORIENTED_EDGE('',*,*,#863,.T.);
#885 = ORIENTED_EDGE('',*,*,#726,.F.);
#886 = ORIENTED_EDGE('',*,*,#887,.F.);
#887 = EDGE_CURVE('',#878,#719,#888,.T.);
#888 = LINE('',#889,#890);
#889 = CARTESIAN_POINT('',(2.26524758425,1.645798706419,6.));
#890 = VECTOR('',#891,1.);
#891 = DIRECTION('',(0.,0.,1.));
#892 = PLANE('',#893);
#893 = AXIS2_PLACEMENT_3D('',#894,#895,#896);
#894 = CARTESIAN_POINT('',(2.716550708136,1.493436389715,6.));
#895 = DIRECTION('',(-0.319868189874,-0.947462052594,0.));
#896 = DIRECTION('',(-0.947462052594,0.319868189874,0.));
#897 = ADVANCED_FACE('',(#898),#916,.T.);
#898 = FACE_BOUND('',#899,.T.);
#899 = EDGE_LOOP('',(#900,#908,#909,#910));
#900 = ORIENTED_EDGE('',*,*,#901,.F.);
#901 = EDGE_CURVE('',#878,#902,#904,.T.);
#902 = VERTEX_POINT('',#903);
#903 = CARTESIAN_POINT('',(2.259802745006,2.122096028379,6.));
#904 = LINE('',#905,#906);
#905 = CARTESIAN_POINT('',(2.26524758425,1.645798706419,6.));
#906 = VECTOR('',#907,1.);
#907 = DIRECTION('',(-1.143085055838E-02,0.999934665693,0.));
#908 = ORIENTED_EDGE('',*,*,#887,.T.);
#909 = ORIENTED_EDGE('',*,*,#718,.F.);
#910 = ORIENTED_EDGE('',*,*,#911,.F.);
#911 = EDGE_CURVE('',#902,#711,#912,.T.);
#912 = LINE('',#913,#914);
#913 = CARTESIAN_POINT('',(2.259802745006,2.122096028379,6.));
#914 = VECTOR('',#915,1.);
#915 = DIRECTION('',(0.,0.,1.));
#916 = PLANE('',#917);
#917 = AXIS2_PLACEMENT_3D('',#918,#919,#920);
#918 = CARTESIAN_POINT('',(2.26524758425,1.645798706419,6.));
#919 = DIRECTION('',(-0.999934665693,-1.143085055838E-02,0.));
#920 = DIRECTION('',(-1.143085055838E-02,0.999934665693,0.));
#921 = ADVANCED_FACE('',(#922),#940,.T.);
#922 = FACE_BOUND('',#923,.T.);
#923 = EDGE_LOOP('',(#924,#932,#933,#934));
#924 = ORIENTED_EDGE('',*,*,#925,.F.);
#925 = EDGE_CURVE('',#902,#926,#928,.T.);
#926 = VERTEX_POINT('',#927);
#927 = CARTESIAN_POINT('',(1.784787171296,2.157437079772,6.));
#928 = LINE('',#929,#930);
#929 = CARTESIAN_POINT('',(2.259802745006,2.122096028379,6.));
#930 = VECTOR('',#931,1.);
#931 = DIRECTION('',(-0.997243773999,7.41947115402E-02,0.));
#932 = ORIENTED_EDGE('',*,*,#911,.T.);
#933 = ORIENTED_EDGE('',*,*,#710,.F.);
#934 = ORIENTED_EDGE('',*,*,#935,.F.);
#935 = EDGE_CURVE('',#926,#703,#936,.T.);
#936 = LINE('',#937,#938);
#937 = CARTESIAN_POINT('',(1.784787171296,2.157437079772,6.));
#938 = VECTOR('',#939,1.);
#939 = DIRECTION('',(0.,0.,1.));
#940 = PLANE('',#941);
#941 = AXIS2_PLACEMENT_3D('',#942,#943,#944);
#942 = CARTESIAN_POINT('',(2.259802745006,2.122096028379,6.));
#943 = DIRECTION('',(-7.41947115402E-02,-0.997243773999,0.));
#944 = DIRECTION('',(-0.997243773999,7.41947115402E-02,0.));
#945 = ADVANCED_FACE('',(#946),#964,.T.);
#946 = FACE_BOUND('',#947,.T.);
#947 = EDGE_LOOP('',(#948,#956,#957,#958));
#948 = ORIENTED_EDGE('',*,*,#949,.F.);
#949 = EDGE_CURVE('',#926,#950,#952,.T.);
#950 = VERTEX_POINT('',#951);
#951 = CARTESIAN_POINT('',(1.661063064435,2.617416569056,6.));
#952 = LINE('',#953,#954);
#953 = CARTESIAN_POINT('',(1.784787171296,2.157437079772,6.));
#954 = VECTOR('',#955,1.);
#955 = DIRECTION('',(-0.259745368552,0.965677142484,0.));
#956 = ORIENTED_EDGE('',*,*,#935,.T.);
#957 = ORIENTED_EDGE('',*,*,#702,.F.);
#958 = ORIENTED_EDGE('',*,*,#959,.F.);
#959 = EDGE_CURVE('',#950,#695,#960,.T.);
#960 = LINE('',#961,#962);
#961 = CARTESIAN_POINT('',(1.661063064435,2.617416569056,6.));
#962 = VECTOR('',#963,1.);
#963 = DIRECTION('',(0.,0.,1.));
#964 = PLANE('',#965);
#965 = AXIS2_PLACEMENT_3D('',#966,#967,#968);
#966 = CARTESIAN_POINT('',(1.784787171296,2.157437079772,6.));
#967 = DIRECTION('',(-0.965677142484,-0.259745368552,0.));
#968 = DIRECTION('',(-0.259745368552,0.965677142484,0.));
#969 = ADVANCED_FACE('',(#970),#988,.T.);
#970 = FACE_BOUND('',#971,.T.);
#971 = EDGE_LOOP('',(#972,#980,#981,#982));
#972 = ORIENTED_EDGE('',*,*,#973,.F.);
#973 = EDGE_CURVE('',#950,#974,#976,.T.);
#974 = VERTEX_POINT('',#975);
#975 = CARTESIAN_POINT('',(1.192182016382,2.533515746905,6.));
#976 = LINE('',#977,#978);
#977 = CARTESIAN_POINT('',(1.661063064435,2.617416569056,6.));
#978 = VECTOR('',#979,1.);
#979 = DIRECTION('',(-0.984365001477,-0.176140693389,0.));
#980 = ORIENTED_EDGE('',*,*,#959,.T.);
#981 = ORIENTED_EDGE('',*,*,#694,.F.);
#982 = ORIENTED_EDGE('',*,*,#983,.F.);
#983 = EDGE_CURVE('',#974,#687,#984,.T.);
#984 = LINE('',#985,#986);
#985 = CARTESIAN_POINT('',(1.192182016382,2.533515746905,6.));
#986 = VECTOR('',#987,1.);
#987 = DIRECTION('',(0.,0.,1.));
#988 = PLANE('',#989);
#989 = AXIS2_PLACEMENT_3D('',#990,#991,#992);
#990 = CARTESIAN_POINT('',(1.661063064435,2.617416569056,6.));
#991 = DIRECTION('',(0.176140693389,-0.984365001477,0.));
#992 = DIRECTION('',(-0.984365001477,-0.176140693389,0.));
#993 = ADVANCED_FACE('',(#994),#1012,.T.);
#994 = FACE_BOUND('',#995,.T.);
#995 = EDGE_LOOP('',(#996,#1004,#1005,#1006));
#996 = ORIENTED_EDGE('',*,*,#997,.F.);
#997 = EDGE_CURVE('',#974,#998,#1000,.T.);
#998 = VERTEX_POINT('',#999);
#999 = CARTESIAN_POINT('',(0.957952682562,2.948275200515,6.));
#1000 = LINE('',#1001,#1002);
#1001 = CARTESIAN_POINT('',(1.192182016382,2.533515746905,6.));
#1002 = VECTOR('',#1003,1.);
#1003 = DIRECTION('',(-0.491739129762,0.8707425729,0.));
#1004 = ORIENTED_EDGE('',*,*,#983,.T.);
#1005 = ORIENTED_EDGE('',*,*,#686,.F.);
#1006 = ORIENTED_EDGE('',*,*,#1007,.F.);
#1007 = EDGE_CURVE('',#998,#679,#1008,.T.);
#1008 = LINE('',#1009,#1010);
#1009 = CARTESIAN_POINT('',(0.957952682562,2.948275200515,6.));
#1010 = VECTOR('',#1011,1.);
#1011 = DIRECTION('',(0.,0.,1.));
#1012 = PLANE('',#1013);
#1013 = AXIS2_PLACEMENT_3D('',#1014,#1015,#1016);
#1014 = CARTESIAN_POINT('',(1.192182016382,2.533515746905,6.));
#1015 = DIRECTION('',(-0.8707425729,-0.491739129762,0.));
#1016 = DIRECTION('',(-0.491739129762,0.8707425729,0.));
#1017 = ADVANCED_FACE('',(#1018),#1036,.T.);
#1018 = FACE_BOUND('',#1019,.T.);
#1019 = EDGE_LOOP('',(#1020,#1028,#1029,#1030));
#1020 = ORIENTED_EDGE('',*,*,#1021,.F.);
#1021 = EDGE_CURVE('',#998,#1022,#1024,.T.);
#1022 = VERTEX_POINT('',#1023);
#1023 = CARTESIAN_POINT('',(0.52466768084,2.75040430204,6.));
#1024 = LINE('',#1025,#1026);
#1025 = CARTESIAN_POINT('',(0.957952682562,2.948275200515,6.));
#1026 = VECTOR('',#1027,1.);
#1027 = DIRECTION('',(-0.909634955671,-0.415408530752,0.));
#1028 = ORIENTED_EDGE('',*,*,#1007,.T.);
#1029 = ORIENTED_EDGE('',*,*,#678,.F.);
#1030 = ORIENTED_EDGE('',*,*,#1031,.F.);
#1031 = EDGE_CURVE('',#1022,#671,#1032,.T.);
#1032 = LINE('',#1033,#1034);
#1033 = CARTESIAN_POINT('',(0.52466768084,2.75040430204,6.));
#1034 = VECTOR('',#1035,1.);
#1035 = DIRECTION('',(0.,0.,1.));
#1036 = PLANE('',#1037);
#1037 = AXIS2_PLACEMENT_3D('',#1038,#1039,#1040);
#1038 = CARTESIAN_POINT('',(0.957952682562,2.948275200515,6.));
#1039 = DIRECTION('',(0.415408530752,-0.909634955671,0.));
#1040 = DIRECTION('',(-0.909634955671,-0.415408530752,0.));
#1041 = ADVANCED_FACE('',(#1042),#1060,.T.);
#1042 = FACE_BOUND('',#1043,.T.);
#1043 = EDGE_LOOP('',(#1044,#1052,#1053,#1054));
#1044 = ORIENTED_EDGE('',*,*,#1045,.F.);
#1045 = EDGE_CURVE('',#1022,#1046,#1048,.T.);
#1046 = VERTEX_POINT('',#1047);
#1047 = CARTESIAN_POINT('',(0.194650610541,3.093882858128,6.));
#1048 = LINE('',#1049,#1050);
#1049 = CARTESIAN_POINT('',(0.52466768084,2.75040430204,6.));
#1050 = VECTOR('',#1051,1.);
#1051 = DIRECTION('',(-0.69283511296,0.721096045094,0.));
#1052 = ORIENTED_EDGE('',*,*,#1031,.T.);
#1053 = ORIENTED_EDGE('',*,*,#670,.F.);
#1054 = ORIENTED_EDGE('',*,*,#1055,.F.);
#1055 = EDGE_CURVE('',#1046,#663,#1056,.T.);
#1056 = LINE('',#1057,#1058);
#1057 = CARTESIAN_POINT('',(0.194650610541,3.093882858128,6.));
#1058 = VECTOR('',#1059,1.);
#1059 = DIRECTION('',(0.,0.,1.));
#1060 = PLANE('',#1061);
#1061 = AXIS2_PLACEMENT_3D('',#1062,#1063,#1064);
#1062 = CARTESIAN_POINT('',(0.52466768084,2.75040430204,6.));
#1063 = DIRECTION('',(-0.721096045094,-0.69283511296,0.));
#1064 = DIRECTION('',(-0.69283511296,0.721096045094,0.));
#1065 = ADVANCED_FACE('',(#1066),#1084,.T.);
#1066 = FACE_BOUND('',#1067,.T.);
#1067 = EDGE_LOOP('',(#1068,#1076,#1077,#1078));
#1068 = ORIENTED_EDGE('',*,*,#1069,.F.);
#1069 = EDGE_CURVE('',#1046,#1070,#1072,.T.);
#1070 = VERTEX_POINT('',#1071);
#1071 = CARTESIAN_POINT('',(-0.175813454682,2.794474839599,6.));
#1072 = LINE('',#1073,#1074);
#1073 = CARTESIAN_POINT('',(0.194650610541,3.093882858128,6.));
#1074 = VECTOR('',#1075,1.);
#1075 = DIRECTION('',(-0.777749200197,-0.628574722363,0.));
#1076 = ORIENTED_EDGE('',*,*,#1055,.T.);
#1077 = ORIENTED_EDGE('',*,*,#662,.F.);
#1078 = ORIENTED_EDGE('',*,*,#1079,.F.);
#1079 = EDGE_CURVE('',#1070,#655,#1080,.T.);
#1080 = LINE('',#1081,#1082);
#1081 = CARTESIAN_POINT('',(-0.175813454682,2.794474839599,6.));
#1082 = VECTOR('',#1083,1.);
#1083 = DIRECTION('',(0.,0.,1.));
#1084 = PLANE('',#1085);
#1085 = AXIS2_PLACEMENT_3D('',#1086,#1087,#1088);
#1086 = CARTESIAN_POINT('',(0.194650610541,3.093882858128,6.));
#1087 = DIRECTION('',(0.628574722363,-0.777749200197,0.));
#1088 = DIRECTION('',(-0.777749200197,-0.628574722363,0.));
#1089 = ADVANCED_FACE('',(#1090),#1108,.T.);
#1090 = FACE_BOUND('',#1091,.T.);
#1091 = EDGE_LOOP('',(#1092,#1100,#1101,#1102));
#1092 = ORIENTED_EDGE('',*,*,#1093,.F.);
#1093 = EDGE_CURVE('',#1070,#1094,#1096,.T.);
#1094 = VERTEX_POINT('',#1095);
#1095 = CARTESIAN_POINT('',(-0.580882075216,3.045090477259,6.));
#1096 = LINE('',#1097,#1098);
#1097 = CARTESIAN_POINT('',(-0.175813454682,2.794474839599,6.));
#1098 = VECTOR('',#1099,1.);
#1099 = DIRECTION('',(-0.850397717941,0.526140400768,0.));
#1100 = ORIENTED_EDGE('',*,*,#1079,.T.);
#1101 = ORIENTED_EDGE('',*,*,#654,.F.);
#1102 = ORIENTED_EDGE('',*,*,#1103,.F.);
#1103 = EDGE_CURVE('',#1094,#647,#1104,.T.);
#1104 = LINE('',#1105,#1106);
#1105 = CARTESIAN_POINT('',(-0.580882075216,3.045090477259,6.));
#1106 = VECTOR('',#1107,1.);
#1107 = DIRECTION('',(0.,0.,1.));
#1108 = PLANE('',#1109);
#1109 = AXIS2_PLACEMENT_3D('',#1110,#1111,#1112);
#1110 = CARTESIAN_POINT('',(-0.175813454682,2.794474839599,6.));
#1111 = DIRECTION('',(-0.526140400768,-0.850397717941,0.));
#1112 = DIRECTION('',(-0.850397717941,0.526140400768,0.));
#1113 = ADVANCED_FACE('',(#1114),#1132,.T.);
#1114 = FACE_BOUND('',#1115,.T.);
#1115 = EDGE_LOOP('',(#1116,#1124,#1125,#1126));
#1116 = ORIENTED_EDGE('',*,*,#1117,.F.);
#1117 = EDGE_CURVE('',#1094,#1118,#1120,.T.);
#1118 = VERTEX_POINT('',#1119);
#1119 = CARTESIAN_POINT('',(-0.86524758425,2.662958245626,6.));
#1120 = LINE('',#1121,#1122);
#1121 = CARTESIAN_POINT('',(-0.580882075216,3.045090477259,6.));
#1122 = VECTOR('',#1123,1.);
#1123 = DIRECTION('',(-0.596994602113,-0.802245252431,0.));
#1124 = ORIENTED_EDGE('',*,*,#1103,.T.);
#1125 = ORIENTED_EDGE('',*,*,#646,.F.);
#1126 = ORIENTED_EDGE('',*,*,#1127,.F.);
#1127 = EDGE_CURVE('',#1118,#639,#1128,.T.);
#1128 = LINE('',#1129,#1130);
#1129 = CARTESIAN_POINT('',(-0.86524758425,2.662958245626,6.));
#1130 = VECTOR('',#1131,1.);
#1131 = DIRECTION('',(0.,0.,1.));
#1132 = PLANE('',#1133);
#1133 = AXIS2_PLACEMENT_3D('',#1134,#1135,#1136);
#1134 = CARTESIAN_POINT('',(-0.580882075216,3.045090477259,6.));
#1135 = DIRECTION('',(0.802245252431,-0.596994602113,0.));
#1136 = DIRECTION('',(-0.596994602113,-0.802245252431,0.));
#1137 = ADVANCED_FACE('',(#1138),#1156,.T.);
#1138 = FACE_BOUND('',#1139,.T.);
#1139 = EDGE_LOOP('',(#1140,#1148,#1149,#1150));
#1140 = ORIENTED_EDGE('',*,*,#1141,.F.);
#1141 = EDGE_CURVE('',#1118,#1142,#1144,.T.);
#1142 = VERTEX_POINT('',#1143);
#1143 = CARTESIAN_POINT('',(-1.319915803852,2.804963862645,6.));
#1144 = LINE('',#1145,#1146);
#1145 = CARTESIAN_POINT('',(-0.86524758425,2.662958245626,6.));
#1146 = VECTOR('',#1147,1.);
#1147 = DIRECTION('',(-0.95452670676,0.298125420054,0.));
#1148 = ORIENTED_EDGE('',*,*,#1127,.T.);
#1149 = ORIENTED_EDGE('',*,*,#638,.F.);
#1150 = ORIENTED_EDGE('',*,*,#1151,.F.);
#1151 = EDGE_CURVE('',#1142,#631,#1152,.T.);
#1152 = LINE('',#1153,#1154);
#1153 = CARTESIAN_POINT('',(-1.319915803852,2.804963862645,6.));
#1154 = VECTOR('',#1155,1.);
#1155 = DIRECTION('',(0.,0.,1.));
#1156 = PLANE('',#1157);
#1157 = AXIS2_PLACEMENT_3D('',#1158,#1159,#1160);
#1158 = CARTESIAN_POINT('',(-0.86524758425,2.662958245626,6.));
#1159 = DIRECTION('',(-0.298125420054,-0.95452670676,0.));
#1160 = DIRECTION('',(-0.95452670676,0.298125420054,0.));
#1161 = ADVANCED_FACE('',(#1162),#1180,.T.);
#1162 = FACE_BOUND('',#1163,.T.);
#1163 = EDGE_LOOP('',(#1164,#1172,#1173,#1174));
#1164 = ORIENTED_EDGE('',*,*,#1165,.F.);
#1165 = EDGE_CURVE('',#1142,#1166,#1168,.T.);
#1166 = VERTEX_POINT('',#1167);
#1167 = CARTESIAN_POINT('',(-1.500315025941,2.364118191406,6.));
#1168 = LINE('',#1169,#1170);
#1169 = CARTESIAN_POINT('',(-1.319915803852,2.804963862645,6.));
#1170 = VECTOR('',#1171,1.);
#1171 = DIRECTION('',(-0.378728637585,-0.925507762838,0.));
#1172 = ORIENTED_EDGE('',*,*,#1151,.T.);
#1173 = ORIENTED_EDGE('',*,*,#630,.F.);
#1174 = ORIENTED_EDGE('',*,*,#1175,.F.);
#1175 = EDGE_CURVE('',#1166,#623,#1176,.T.);
#1176 = LINE('',#1177,#1178);
#1177 = CARTESIAN_POINT('',(-1.500315025941,2.364118191406,6.));
#1178 = VECTOR('',#1179,1.);
#1179 = DIRECTION('',(0.,0.,1.));
#1180 = PLANE('',#1181);
#1181 = AXIS2_PLACEMENT_3D('',#1182,#1183,#1184);
#1182 = CARTESIAN_POINT('',(-1.319915803852,2.804963862645,6.));
#1183 = DIRECTION('',(0.925507762838,-0.378728637585,0.));
#1184 = DIRECTION('',(-0.378728637585,-0.925507762838,0.));
#1185 = ADVANCED_FACE('',(#1186),#1204,.T.);
#1186 = FACE_BOUND('',#1187,.T.);
#1187 = EDGE_LOOP('',(#1188,#1196,#1197,#1198));
#1188 = ORIENTED_EDGE('',*,*,#1189,.F.);
#1189 = EDGE_CURVE('',#1166,#1190,#1192,.T.);
#1190 = VERTEX_POINT('',#1191);
#1191 = CARTESIAN_POINT('',(-1.976014368221,2.388591052605,6.));
#1192 = LINE('',#1193,#1194);
#1193 = CARTESIAN_POINT('',(-1.500315025941,2.364118191406,6.));
#1194 = VECTOR('',#1195,1.);
#1195 = DIRECTION('',(-0.998679272089,5.137812276833E-02,0.));
#1196 = ORIENTED_EDGE('',*,*,#1175,.T.);
#1197 = ORIENTED_EDGE('',*,*,#622,.F.);
#1198 = ORIENTED_EDGE('',*,*,#1199,.F.);
#1199 = EDGE_CURVE('',#1190,#615,#1200,.T.);
#1200 = LINE('',#1201,#1202);
#1201 = CARTESIAN_POINT('',(-1.976014368221,2.388591052605,6.));
#1202 = VECTOR('',#1203,1.);
#1203 = DIRECTION('',(0.,0.,1.));
#1204 = PLANE('',#1205);
#1205 = AXIS2_PLACEMENT_3D('',#1206,#1207,#1208);
#1206 = CARTESIAN_POINT('',(-1.500315025941,2.364118191406,6.));
#1207 = DIRECTION('',(-5.137812276833E-02,-0.998679272089,0.));
#1208 = DIRECTION('',(-0.998679272089,5.137812276833E-02,0.));
#1209 = ADVANCED_FACE('',(#1210),#1228,.T.);
#1210 = FACE_BOUND('',#1211,.T.);
#1211 = EDGE_LOOP('',(#1212,#1220,#1221,#1222));
#1212 = ORIENTED_EDGE('',*,*,#1213,.F.);
#1213 = EDGE_CURVE('',#1190,#1214,#1216,.T.);
#1214 = VERTEX_POINT('',#1215);
#1215 = CARTESIAN_POINT('',(-2.04111215678,1.9167318966,6.));
#1216 = LINE('',#1217,#1218);
#1217 = CARTESIAN_POINT('',(-1.976014368221,2.388591052605,6.));
#1218 = VECTOR('',#1219,1.);
#1219 = DIRECTION('',(-0.136665759892,-0.990617216726,0.));
#1220 = ORIENTED_EDGE('',*,*,#1199,.T.);
#1221 = ORIENTED_EDGE('',*,*,#614,.F.);
#1222 = ORIENTED_EDGE('',*,*,#1223,.F.);
#1223 = EDGE_CURVE('',#1214,#607,#1224,.T.);
#1224 = LINE('',#1225,#1226);
#1225 = CARTESIAN_POINT('',(-2.04111215678,1.9167318966,6.));
#1226 = VECTOR('',#1227,1.);
#1227 = DIRECTION('',(0.,0.,1.));
#1228 = PLANE('',#1229);
#1229 = AXIS2_PLACEMENT_3D('',#1230,#1231,#1232);
#1230 = CARTESIAN_POINT('',(-1.976014368221,2.388591052605,6.));
#1231 = DIRECTION('',(0.990617216726,-0.136665759892,0.));
#1232 = DIRECTION('',(-0.136665759892,-0.990617216726,0.));
#1233 = ADVANCED_FACE('',(#1234),#1252,.T.);
#1234 = FACE_BOUND('',#1235,.T.);
#1235 = EDGE_LOOP('',(#1236,#1244,#1245,#1246));
#1236 = ORIENTED_EDGE('',*,*,#1237,.F.);
#1237 = EDGE_CURVE('',#1214,#1238,#1240,.T.);
#1238 = VERTEX_POINT('',#1239);
#1239 = CARTESIAN_POINT('',(-2.507952682562,1.822134282107,6.));
#1240 = LINE('',#1241,#1242);
#1241 = CARTESIAN_POINT('',(-2.04111215678,1.9167318966,6.));
#1242 = VECTOR('',#1243,1.);
#1243 = DIRECTION('',(-0.980081145868,-0.198597450926,0.));
#1244 = ORIENTED_EDGE('',*,*,#1223,.T.);
#1245 = ORIENTED_EDGE('',*,*,#606,.F.);
#1246 = ORIENTED_EDGE('',*,*,#1247,.F.);
#1247 = EDGE_CURVE('',#1238,#599,#1248,.T.);
#1248 = LINE('',#1249,#1250);
#1249 = CARTESIAN_POINT('',(-2.507952682562,1.822134282107,6.));
#1250 = VECTOR('',#1251,1.);
#1251 = DIRECTION('',(0.,0.,1.));
#1252 = PLANE('',#1253);
#1253 = AXIS2_PLACEMENT_3D('',#1254,#1255,#1256);
#1254 = CARTESIAN_POINT('',(-2.04111215678,1.9167318966,6.));
#1255 = DIRECTION('',(0.198597450926,-0.980081145868,0.));
#1256 = DIRECTION('',(-0.980081145868,-0.198597450926,0.));
#1257 = ADVANCED_FACE('',(#1258),#1276,.T.);
#1258 = FACE_BOUND('',#1259,.T.);
#1259 = EDGE_LOOP('',(#1260,#1268,#1269,#1270));
#1260 = ORIENTED_EDGE('',*,*,#1261,.F.);
#1261 = EDGE_CURVE('',#1238,#1262,#1264,.T.);
#1262 = VERTEX_POINT('',#1263);
#1263 = CARTESIAN_POINT('',(-2.453658704123,1.348910287485,6.));
#1264 = LINE('',#1265,#1266);
#1265 = CARTESIAN_POINT('',(-2.507952682562,1.822134282107,6.));
#1266 = VECTOR('',#1267,1.);
#1267 = DIRECTION('',(0.113984330117,-0.993482547651,0.));
#1268 = ORIENTED_EDGE('',*,*,#1247,.T.);
#1269 = ORIENTED_EDGE('',*,*,#598,.F.);
#1270 = ORIENTED_EDGE('',*,*,#1271,.F.);
#1271 = EDGE_CURVE('',#1262,#591,#1272,.T.);
#1272 = LINE('',#1273,#1274);
#1273 = CARTESIAN_POINT('',(-2.453658704123,1.348910287485,6.));
#1274 = VECTOR('',#1275,1.);
#1275 = DIRECTION('',(0.,0.,1.));
#1276 = PLANE('',#1277);
#1277 = AXIS2_PLACEMENT_3D('',#1278,#1279,#1280);
#1278 = CARTESIAN_POINT('',(-2.507952682562,1.822134282107,6.));
#1279 = DIRECTION('',(0.993482547651,0.113984330117,-0.));
#1280 = DIRECTION('',(0.113984330117,-0.993482547651,0.));
#1281 = ADVANCED_FACE('',(#1282),#1300,.T.);
#1282 = FACE_BOUND('',#1283,.T.);
#1283 = EDGE_LOOP('',(#1284,#1292,#1293,#1294));
#1284 = ORIENTED_EDGE('',*,*,#1285,.F.);
#1285 = EDGE_CURVE('',#1262,#1286,#1288,.T.);
#1286 = VERTEX_POINT('',#1287);
#1287 = CARTESIAN_POINT('',(-2.882307106254,1.141186113323,6.));
#1288 = LINE('',#1289,#1290);
#1289 = CARTESIAN_POINT('',(-2.453658704123,1.348910287485,6.));
#1290 = VECTOR('',#1291,1.);
#1291 = DIRECTION('',(-0.899900916765,-0.436094416388,0.));
#1292 = ORIENTED_EDGE('',*,*,#1271,.T.);
#1293 = ORIENTED_EDGE('',*,*,#590,.F.);
#1294 = ORIENTED_EDGE('',*,*,#1295,.F.);
#1295 = EDGE_CURVE('',#1286,#583,#1296,.T.);
#1296 = LINE('',#1297,#1298);
#1297 = CARTESIAN_POINT('',(-2.882307106254,1.141186113323,6.));
#1298 = VECTOR('',#1299,1.);
#1299 = DIRECTION('',(0.,0.,1.));
#1300 = PLANE('',#1301);
#1301 = AXIS2_PLACEMENT_3D('',#1302,#1303,#1304);
#1302 = CARTESIAN_POINT('',(-2.453658704123,1.348910287485,6.));
#1303 = DIRECTION('',(0.436094416388,-0.899900916765,0.));
#1304 = DIRECTION('',(-0.899900916765,-0.436094416388,0.));
#1305 = ADVANCED_FACE('',(#1306),#1324,.T.);
#1306 = FACE_BOUND('',#1307,.T.);
#1307 = EDGE_LOOP('',(#1308,#1316,#1317,#1318));
#1308 = ORIENTED_EDGE('',*,*,#1309,.F.);
#1309 = EDGE_CURVE('',#1286,#1310,#1312,.T.);
#1310 = VERTEX_POINT('',#1311);
#1311 = CARTESIAN_POINT('',(-2.71203285116,0.696331684062,6.));
#1312 = LINE('',#1313,#1314);
#1313 = CARTESIAN_POINT('',(-2.882307106254,1.141186113323,6.));
#1314 = VECTOR('',#1315,1.);
#1315 = DIRECTION('',(0.357472365459,-0.933923716335,0.));
#1316 = ORIENTED_EDGE('',*,*,#1295,.T.);
#1317 = ORIENTED_EDGE('',*,*,#582,.F.);
#1318 = ORIENTED_EDGE('',*,*,#1319,.F.);
#1319 = EDGE_CURVE('',#1310,#575,#1320,.T.);
#1320 = LINE('',#1321,#1322);
#1321 = CARTESIAN_POINT('',(-2.71203285116,0.696331684062,6.));
#1322 = VECTOR('',#1323,1.);
#1323 = DIRECTION('',(0.,0.,1.));
#1324 = PLANE('',#1325);
#1325 = AXIS2_PLACEMENT_3D('',#1326,#1327,#1328);
#1326 = CARTESIAN_POINT('',(-2.882307106254,1.141186113323,6.));
#1327 = DIRECTION('',(0.933923716335,0.357472365459,-0.));
#1328 = DIRECTION('',(0.357472365459,-0.933923716335,0.));
#1329 = ADVANCED_FACE('',(#1330),#1348,.T.);
#1330 = FACE_BOUND('',#1331,.T.);
#1331 = EDGE_LOOP('',(#1332,#1340,#1341,#1342));
#1332 = ORIENTED_EDGE('',*,*,#1333,.F.);
#1333 = EDGE_CURVE('',#1310,#1334,#1336,.T.);
#1334 = VERTEX_POINT('',#1335);
#1335 = CARTESIAN_POINT('',(-3.075555574075,0.388533024049,6.));
#1336 = LINE('',#1337,#1338);
#1337 = CARTESIAN_POINT('',(-2.71203285116,0.696331684062,6.));
#1338 = VECTOR('',#1339,1.);
#1339 = DIRECTION('',(-0.763176603458,-0.646189965826,0.));
#1340 = ORIENTED_EDGE('',*,*,#1319,.T.);
#1341 = ORIENTED_EDGE('',*,*,#574,.F.);
#1342 = ORIENTED_EDGE('',*,*,#1343,.F.);
#1343 = EDGE_CURVE('',#1334,#567,#1344,.T.);
#1344 = LINE('',#1345,#1346);
#1345 = CARTESIAN_POINT('',(-3.075555574075,0.388533024049,6.));
#1346 = VECTOR('',#1347,1.);
#1347 = DIRECTION('',(0.,0.,1.));
#1348 = PLANE('',#1349);
#1349 = AXIS2_PLACEMENT_3D('',#1350,#1351,#1352);
#1350 = CARTESIAN_POINT('',(-2.71203285116,0.696331684062,6.));
#1351 = DIRECTION('',(0.646189965826,-0.763176603458,0.));
#1352 = DIRECTION('',(-0.763176603458,-0.646189965826,0.));
#1353 = ADVANCED_FACE('',(#1354),#1372,.T.);
#1354 = FACE_BOUND('',#1355,.T.);
#1355 = EDGE_LOOP('',(#1356,#1364,#1365,#1366));
#1356 = ORIENTED_EDGE('',*,*,#1357,.F.);
#1357 = EDGE_CURVE('',#1334,#1358,#1360,.T.);
#1358 = VERTEX_POINT('',#1359);
#1359 = CARTESIAN_POINT('',(-2.8,3.429011037613E-16,6.));
#1360 = LINE('',#1361,#1362);
#1361 = CARTESIAN_POINT('',(-3.075555574075,0.388533024049,6.));
#1362 = VECTOR('',#1363,1.);
#1363 = DIRECTION('',(0.578499097389,-0.81568302319,0.));
#1364 = ORIENTED_EDGE('',*,*,#1343,.T.);
#1365 = ORIENTED_EDGE('',*,*,#566,.F.);
#1366 = ORIENTED_EDGE('',*,*,#1367,.F.);
#1367 = EDGE_CURVE('',#1358,#559,#1368,.T.);
#1368 = LINE('',#1369,#1370);
#1369 = CARTESIAN_POINT('',(-2.8,3.429011037613E-16,6.));
#1370 = VECTOR('',#1371,1.);
#1371 = DIRECTION('',(0.,0.,1.));
#1372 = PLANE('',#1373);
#1373 = AXIS2_PLACEMENT_3D('',#1374,#1375,#1376);
#1374 = CARTESIAN_POINT('',(-3.075555574075,0.388533024049,6.));
#1375 = DIRECTION('',(0.81568302319,0.578499097389,-0.));
#1376 = DIRECTION('',(0.578499097389,-0.81568302319,0.));
#1377 = ADVANCED_FACE('',(#1378),#1396,.T.);
#1378 = FACE_BOUND('',#1379,.T.);
#1379 = EDGE_LOOP('',(#1380,#1388,#1389,#1390));
#1380 = ORIENTED_EDGE('',*,*,#1381,.F.);
#1381 = EDGE_CURVE('',#1358,#1382,#1384,.T.);
#1382 = VERTEX_POINT('',#1383);
#1383 = CARTESIAN_POINT('',(-3.075555574075,-0.388533024049,6.));
#1384 = LINE('',#1385,#1386);
#1385 = CARTESIAN_POINT('',(-2.8,3.429011037613E-16,6.));
#1386 = VECTOR('',#1387,1.);
#1387 = DIRECTION('',(-0.578499097389,-0.81568302319,0.));
#1388 = ORIENTED_EDGE('',*,*,#1367,.T.);
#1389 = ORIENTED_EDGE('',*,*,#558,.F.);
#1390 = ORIENTED_EDGE('',*,*,#1391,.F.);
#1391 = EDGE_CURVE('',#1382,#551,#1392,.T.);
#1392 = LINE('',#1393,#1394);
#1393 = CARTESIAN_POINT('',(-3.075555574075,-0.388533024049,6.));
#1394 = VECTOR('',#1395,1.);
#1395 = DIRECTION('',(0.,0.,1.));
#1396 = PLANE('',#1397);
#1397 = AXIS2_PLACEMENT_3D('',#1398,#1399,#1400);
#1398 = CARTESIAN_POINT('',(-2.8,3.429011037613E-16,6.));
#1399 = DIRECTION('',(0.81568302319,-0.578499097389,0.));
#1400 = DIRECTION('',(-0.578499097389,-0.81568302319,0.));
#1401 = ADVANCED_FACE('',(#1402),#1420,.T.);
#1402 = FACE_BOUND('',#1403,.T.);
#1403 = EDGE_LOOP('',(#1404,#1412,#1413,#1414));
#1404 = ORIENTED_EDGE('',*,*,#1405,.F.);
#1405 = EDGE_CURVE('',#1382,#1406,#1408,.T.);
#1406 = VERTEX_POINT('',#1407);
#1407 = CARTESIAN_POINT('',(-2.71203285116,-0.696331684062,6.));
#1408 = LINE('',#1409,#1410);
#1409 = CARTESIAN_POINT('',(-3.075555574075,-0.388533024049,6.));
#1410 = VECTOR('',#1411,1.);
#1411 = DIRECTION('',(0.763176603458,-0.646189965826,0.));
#1412 = ORIENTED_EDGE('',*,*,#1391,.T.);
#1413 = ORIENTED_EDGE('',*,*,#550,.F.);
#1414 = ORIENTED_EDGE('',*,*,#1415,.F.);
#1415 = EDGE_CURVE('',#1406,#543,#1416,.T.);
#1416 = LINE('',#1417,#1418);
#1417 = CARTESIAN_POINT('',(-2.71203285116,-0.696331684062,6.));
#1418 = VECTOR('',#1419,1.);
#1419 = DIRECTION('',(0.,0.,1.));
#1420 = PLANE('',#1421);
#1421 = AXIS2_PLACEMENT_3D('',#1422,#1423,#1424);
#1422 = CARTESIAN_POINT('',(-3.075555574075,-0.388533024049,6.));
#1423 = DIRECTION('',(0.646189965826,0.763176603458,-0.));
#1424 = DIRECTION('',(0.763176603458,-0.646189965826,0.));
#1425 = ADVANCED_FACE('',(#1426),#1444,.T.);
#1426 = FACE_BOUND('',#1427,.T.);
#1427 = EDGE_LOOP('',(#1428,#1436,#1437,#1438));
#1428 = ORIENTED_EDGE('',*,*,#1429,.F.);
#1429 = EDGE_CURVE('',#1406,#1430,#1432,.T.);
#1430 = VERTEX_POINT('',#1431);
#1431 = CARTESIAN_POINT('',(-2.882307106254,-1.141186113323,6.));
#1432 = LINE('',#1433,#1434);
#1433 = CARTESIAN_POINT('',(-2.71203285116,-0.696331684062,6.));
#1434 = VECTOR('',#1435,1.);
#1435 = DIRECTION('',(-0.357472365459,-0.933923716335,0.));
#1436 = ORIENTED_EDGE('',*,*,#1415,.T.);
#1437 = ORIENTED_EDGE('',*,*,#542,.F.);
#1438 = ORIENTED_EDGE('',*,*,#1439,.F.);
#1439 = EDGE_CURVE('',#1430,#535,#1440,.T.);
#1440 = LINE('',#1441,#1442);
#1441 = CARTESIAN_POINT('',(-2.882307106254,-1.141186113323,6.));
#1442 = VECTOR('',#1443,1.);
#1443 = DIRECTION('',(0.,0.,1.));
#1444 = PLANE('',#1445);
#1445 = AXIS2_PLACEMENT_3D('',#1446,#1447,#1448);
#1446 = CARTESIAN_POINT('',(-2.71203285116,-0.696331684062,6.));
#1447 = DIRECTION('',(0.933923716335,-0.357472365459,0.));
#1448 = DIRECTION('',(-0.357472365459,-0.933923716335,0.));
#1449 = ADVANCED_FACE('',(#1450),#1468,.T.);
#1450 = FACE_BOUND('',#1451,.T.);
#1451 = EDGE_LOOP('',(#1452,#1460,#1461,#1462));
#1452 = ORIENTED_EDGE('',*,*,#1453,.F.);
#1453 = EDGE_CURVE('',#1430,#1454,#1456,.T.);
#1454 = VERTEX_POINT('',#1455);
#1455 = CARTESIAN_POINT('',(-2.453658704123,-1.348910287485,6.));
#1456 = LINE('',#1457,#1458);
#1457 = CARTESIAN_POINT('',(-2.882307106254,-1.141186113323,6.));
#1458 = VECTOR('',#1459,1.);
#1459 = DIRECTION('',(0.899900916765,-0.436094416388,0.));
#1460 = ORIENTED_EDGE('',*,*,#1439,.T.);
#1461 = ORIENTED_EDGE('',*,*,#534,.F.);
#1462 = ORIENTED_EDGE('',*,*,#1463,.F.);
#1463 = EDGE_CURVE('',#1454,#527,#1464,.T.);
#1464 = LINE('',#1465,#1466);
#1465 = CARTESIAN_POINT('',(-2.453658704123,-1.348910287485,6.));
#1466 = VECTOR('',#1467,1.);
#1467 = DIRECTION('',(0.,0.,1.));
#1468 = PLANE('',#1469);
#1469 = AXIS2_PLACEMENT_3D('',#1470,#1471,#1472);
#1470 = CARTESIAN_POINT('',(-2.882307106254,-1.141186113323,6.));
#1471 = DIRECTION('',(0.436094416388,0.899900916765,-0.));
#1472 = DIRECTION('',(0.899900916765,-0.436094416388,0.));
#1473 = ADVANCED_FACE('',(#1474),#1492,.T.);
#1474 = FACE_BOUND('',#1475,.T.);
#1475 = EDGE_LOOP('',(#1476,#1484,#1485,#1486));
#1476 = ORIENTED_EDGE('',*,*,#1477,.F.);
#1477 = EDGE_CURVE('',#1454,#1478,#1480,.T.);
#1478 = VERTEX_POINT('',#1479);
#1479 = CARTESIAN_POINT('',(-2.507952682562,-1.822134282107,6.));
#1480 = LINE('',#1481,#1482);
#1481 = CARTESIAN_POINT('',(-2.453658704123,-1.348910287485,6.));
#1482 = VECTOR('',#1483,1.);
#1483 = DIRECTION('',(-0.113984330117,-0.993482547651,0.));
#1484 = ORIENTED_EDGE('',*,*,#1463,.T.);
#1485 = ORIENTED_EDGE('',*,*,#526,.F.);
#1486 = ORIENTED_EDGE('',*,*,#1487,.F.);
#1487 = EDGE_CURVE('',#1478,#519,#1488,.T.);
#1488 = LINE('',#1489,#1490);
#1489 = CARTESIAN_POINT('',(-2.507952682562,-1.822134282107,6.));
#1490 = VECTOR('',#1491,1.);
#1491 = DIRECTION('',(0.,0.,1.));
#1492 = PLANE('',#1493);
#1493 = AXIS2_PLACEMENT_3D('',#1494,#1495,#1496);
#1494 = CARTESIAN_POINT('',(-2.453658704123,-1.348910287485,6.));
#1495 = DIRECTION('',(0.993482547651,-0.113984330117,0.));
#1496 = DIRECTION('',(-0.113984330117,-0.993482547651,0.));
#1497 = ADVANCED_FACE('',(#1498),#1516,.T.);
#1498 = FACE_BOUND('',#1499,.T.);
#1499 = EDGE_LOOP('',(#1500,#1508,#1509,#1510));
#1500 = ORIENTED_EDGE('',*,*,#1501,.F.);
#1501 = EDGE_CURVE('',#1478,#1502,#1504,.T.);
#1502 = VERTEX_POINT('',#1503);
#1503 = CARTESIAN_POINT('',(-2.04111215678,-1.9167318966,6.));
#1504 = LINE('',#1505,#1506);
#1505 = CARTESIAN_POINT('',(-2.507952682562,-1.822134282107,6.));
#1506 = VECTOR('',#1507,1.);
#1507 = DIRECTION('',(0.980081145868,-0.198597450926,0.));
#1508 = ORIENTED_EDGE('',*,*,#1487,.T.);
#1509 = ORIENTED_EDGE('',*,*,#518,.F.);
#1510 = ORIENTED_EDGE('',*,*,#1511,.F.);
#1511 = EDGE_CURVE('',#1502,#511,#1512,.T.);
#1512 = LINE('',#1513,#1514);
#1513 = CARTESIAN_POINT('',(-2.04111215678,-1.9167318966,6.));
#1514 = VECTOR('',#1515,1.);
#1515 = DIRECTION('',(0.,0.,1.));
#1516 = PLANE('',#1517);
#1517 = AXIS2_PLACEMENT_3D('',#1518,#1519,#1520);
#1518 = CARTESIAN_POINT('',(-2.507952682562,-1.822134282107,6.));
#1519 = DIRECTION('',(0.198597450926,0.980081145868,-0.));
#1520 = DIRECTION('',(0.980081145868,-0.198597450926,0.));
#1521 = ADVANCED_FACE('',(#1522),#1540,.T.);
#1522 = FACE_BOUND('',#1523,.T.);
#1523 = EDGE_LOOP('',(#1524,#1532,#1533,#1534));
#1524 = ORIENTED_EDGE('',*,*,#1525,.F.);
#1525 = EDGE_CURVE('',#1502,#1526,#1528,.T.);
#1526 = VERTEX_POINT('',#1527);
#1527 = CARTESIAN_POINT('',(-1.976014368221,-2.388591052605,6.));
#1528 = LINE('',#1529,#1530);
#1529 = CARTESIAN_POINT('',(-2.04111215678,-1.9167318966,6.));
#1530 = VECTOR('',#1531,1.);
#1531 = DIRECTION('',(0.136665759892,-0.990617216726,0.));
#1532 = ORIENTED_EDGE('',*,*,#1511,.T.);
#1533 = ORIENTED_EDGE('',*,*,#510,.F.);
#1534 = ORIENTED_EDGE('',*,*,#1535,.F.);
#1535 = EDGE_CURVE('',#1526,#503,#1536,.T.);
#1536 = LINE('',#1537,#1538);
#1537 = CARTESIAN_POINT('',(-1.976014368221,-2.388591052605,6.));
#1538 = VECTOR('',#1539,1.);
#1539 = DIRECTION('',(0.,0.,1.));
#1540 = PLANE('',#1541);
#1541 = AXIS2_PLACEMENT_3D('',#1542,#1543,#1544);
#1542 = CARTESIAN_POINT('',(-2.04111215678,-1.9167318966,6.));
#1543 = DIRECTION('',(0.990617216726,0.136665759892,-0.));
#1544 = DIRECTION('',(0.136665759892,-0.990617216726,0.));
#1545 = ADVANCED_FACE('',(#1546),#1564,.T.);
#1546 = FACE_BOUND('',#1547,.T.);
#1547 = EDGE_LOOP('',(#1548,#1556,#1557,#1558));
#1548 = ORIENTED_EDGE('',*,*,#1549,.F.);
#1549 = EDGE_CURVE('',#1526,#1550,#1552,.T.);
#1550 = VERTEX_POINT('',#1551);
#1551 = CARTESIAN_POINT('',(-1.500315025941,-2.364118191406,6.));
#1552 = LINE('',#1553,#1554);
#1553 = CARTESIAN_POINT('',(-1.976014368221,-2.388591052605,6.));
#1554 = VECTOR('',#1555,1.);
#1555 = DIRECTION('',(0.998679272089,5.137812276833E-02,0.));
#1556 = ORIENTED_EDGE('',*,*,#1535,.T.);
#1557 = ORIENTED_EDGE('',*,*,#502,.F.);
#1558 = ORIENTED_EDGE('',*,*,#1559,.F.);
#1559 = EDGE_CURVE('',#1550,#495,#1560,.T.);
#1560 = LINE('',#1561,#1562);
#1561 = CARTESIAN_POINT('',(-1.500315025941,-2.364118191406,6.));
#1562 = VECTOR('',#1563,1.);
#1563 = DIRECTION('',(0.,0.,1.));
#1564 = PLANE('',#1565);
#1565 = AXIS2_PLACEMENT_3D('',#1566,#1567,#1568);
#1566 = CARTESIAN_POINT('',(-1.976014368221,-2.388591052605,6.));
#1567 = DIRECTION('',(-5.137812276833E-02,0.998679272089,0.));
#1568 = DIRECTION('',(0.998679272089,5.137812276833E-02,0.));
#1569 = ADVANCED_FACE('',(#1570),#1588,.T.);
#1570 = FACE_BOUND('',#1571,.T.);
#1571 = EDGE_LOOP('',(#1572,#1580,#1581,#1582));
#1572 = ORIENTED_EDGE('',*,*,#1573,.F.);
#1573 = EDGE_CURVE('',#1550,#1574,#1576,.T.);
#1574 = VERTEX_POINT('',#1575);
#1575 = CARTESIAN_POINT('',(-1.319915803852,-2.804963862645,6.));
#1576 = LINE('',#1577,#1578);
#1577 = CARTESIAN_POINT('',(-1.500315025941,-2.364118191406,6.));
#1578 = VECTOR('',#1579,1.);
#1579 = DIRECTION('',(0.378728637585,-0.925507762838,0.));
#1580 = ORIENTED_EDGE('',*,*,#1559,.T.);
#1581 = ORIENTED_EDGE('',*,*,#494,.F.);
#1582 = ORIENTED_EDGE('',*,*,#1583,.F.);
#1583 = EDGE_CURVE('',#1574,#487,#1584,.T.);
#1584 = LINE('',#1585,#1586);
#1585 = CARTESIAN_POINT('',(-1.319915803852,-2.804963862645,6.));
#1586 = VECTOR('',#1587,1.);
#1587 = DIRECTION('',(0.,0.,1.));
#1588 = PLANE('',#1589);
#1589 = AXIS2_PLACEMENT_3D('',#1590,#1591,#1592);
#1590 = CARTESIAN_POINT('',(-1.500315025941,-2.364118191406,6.));
#1591 = DIRECTION('',(0.925507762838,0.378728637585,-0.));
#1592 = DIRECTION('',(0.378728637585,-0.925507762838,0.));
#1593 = ADVANCED_FACE('',(#1594),#1612,.T.);
#1594 = FACE_BOUND('',#1595,.T.);
#1595 = EDGE_LOOP('',(#1596,#1604,#1605,#1606));
#1596 = ORIENTED_EDGE('',*,*,#1597,.F.);
#1597 = EDGE_CURVE('',#1574,#1598,#1600,.T.);
#1598 = VERTEX_POINT('',#1599);
#1599 = CARTESIAN_POINT('',(-0.86524758425,-2.662958245626,6.));
#1600 = LINE('',#1601,#1602);
#1601 = CARTESIAN_POINT('',(-1.319915803852,-2.804963862645,6.));
#1602 = VECTOR('',#1603,1.);
#1603 = DIRECTION('',(0.95452670676,0.298125420054,0.));
#1604 = ORIENTED_EDGE('',*,*,#1583,.T.);
#1605 = ORIENTED_EDGE('',*,*,#486,.F.);
#1606 = ORIENTED_EDGE('',*,*,#1607,.F.);
#1607 = EDGE_CURVE('',#1598,#479,#1608,.T.);
#1608 = LINE('',#1609,#1610);
#1609 = CARTESIAN_POINT('',(-0.86524758425,-2.662958245626,6.));
#1610 = VECTOR('',#1611,1.);
#1611 = DIRECTION('',(0.,0.,1.));
#1612 = PLANE('',#1613);
#1613 = AXIS2_PLACEMENT_3D('',#1614,#1615,#1616);
#1614 = CARTESIAN_POINT('',(-1.319915803852,-2.804963862645,6.));
#1615 = DIRECTION('',(-0.298125420054,0.95452670676,0.));
#1616 = DIRECTION('',(0.95452670676,0.298125420054,0.));
#1617 = ADVANCED_FACE('',(#1618),#1636,.T.);
#1618 = FACE_BOUND('',#1619,.T.);
#1619 = EDGE_LOOP('',(#1620,#1628,#1629,#1630));
#1620 = ORIENTED_EDGE('',*,*,#1621,.F.);
#1621 = EDGE_CURVE('',#1598,#1622,#1624,.T.);
#1622 = VERTEX_POINT('',#1623);
#1623 = CARTESIAN_POINT('',(-0.580882075216,-3.045090477259,6.));
#1624 = LINE('',#1625,#1626);
#1625 = CARTESIAN_POINT('',(-0.86524758425,-2.662958245626,6.));
#1626 = VECTOR('',#1627,1.);
#1627 = DIRECTION('',(0.596994602113,-0.802245252431,0.));
#1628 = ORIENTED_EDGE('',*,*,#1607,.T.);
#1629 = ORIENTED_EDGE('',*,*,#478,.F.);
#1630 = ORIENTED_EDGE('',*,*,#1631,.F.);
#1631 = EDGE_CURVE('',#1622,#471,#1632,.T.);
#1632 = LINE('',#1633,#1634);
#1633 = CARTESIAN_POINT('',(-0.580882075216,-3.045090477259,6.));
#1634 = VECTOR('',#1635,1.);
#1635 = DIRECTION('',(0.,0.,1.));
#1636 = PLANE('',#1637);
#1637 = AXIS2_PLACEMENT_3D('',#1638,#1639,#1640);
#1638 = CARTESIAN_POINT('',(-0.86524758425,-2.662958245626,6.));
#1639 = DIRECTION('',(0.802245252431,0.596994602113,-0.));
#1640 = DIRECTION('',(0.596994602113,-0.802245252431,0.));
#1641 = ADVANCED_FACE('',(#1642),#1660,.T.);
#1642 = FACE_BOUND('',#1643,.T.);
#1643 = EDGE_LOOP('',(#1644,#1652,#1653,#1654));
#1644 = ORIENTED_EDGE('',*,*,#1645,.F.);
#1645 = EDGE_CURVE('',#1622,#1646,#1648,.T.);
#1646 = VERTEX_POINT('',#1647);
#1647 = CARTESIAN_POINT('',(-0.175813454682,-2.794474839599,6.));
#1648 = LINE('',#1649,#1650);
#1649 = CARTESIAN_POINT('',(-0.580882075216,-3.045090477259,6.));
#1650 = VECTOR('',#1651,1.);
#1651 = DIRECTION('',(0.850397717941,0.526140400768,0.));
#1652 = ORIENTED_EDGE('',*,*,#1631,.T.);
#1653 = ORIENTED_EDGE('',*,*,#470,.F.);
#1654 = ORIENTED_EDGE('',*,*,#1655,.F.);
#1655 = EDGE_CURVE('',#1646,#463,#1656,.T.);
#1656 = LINE('',#1657,#1658);
#1657 = CARTESIAN_POINT('',(-0.175813454682,-2.794474839599,6.));
#1658 = VECTOR('',#1659,1.);
#1659 = DIRECTION('',(0.,0.,1.));
#1660 = PLANE('',#1661);
#1661 = AXIS2_PLACEMENT_3D('',#1662,#1663,#1664);
#1662 = CARTESIAN_POINT('',(-0.580882075216,-3.045090477259,6.));
#1663 = DIRECTION('',(-0.526140400768,0.850397717941,0.));
#1664 = DIRECTION('',(0.850397717941,0.526140400768,0.));
#1665 = ADVANCED_FACE('',(#1666),#1684,.T.);
#1666 = FACE_BOUND('',#1667,.T.);
#1667 = EDGE_LOOP('',(#1668,#1676,#1677,#1678));
#1668 = ORIENTED_EDGE('',*,*,#1669,.F.);
#1669 = EDGE_CURVE('',#1646,#1670,#1672,.T.);
#1670 = VERTEX_POINT('',#1671);
#1671 = CARTESIAN_POINT('',(0.194650610541,-3.093882858128,6.));
#1672 = LINE('',#1673,#1674);
#1673 = CARTESIAN_POINT('',(-0.175813454682,-2.794474839599,6.));
#1674 = VECTOR('',#1675,1.);
#1675 = DIRECTION('',(0.777749200197,-0.628574722363,0.));
#1676 = ORIENTED_EDGE('',*,*,#1655,.T.);
#1677 = ORIENTED_EDGE('',*,*,#462,.F.);
#1678 = ORIENTED_EDGE('',*,*,#1679,.F.);
#1679 = EDGE_CURVE('',#1670,#455,#1680,.T.);
#1680 = LINE('',#1681,#1682);
#1681 = CARTESIAN_POINT('',(0.194650610541,-3.093882858128,6.));
#1682 = VECTOR('',#1683,1.);
#1683 = DIRECTION('',(0.,0.,1.));
#1684 = PLANE('',#1685);
#1685 = AXIS2_PLACEMENT_3D('',#1686,#1687,#1688);
#1686 = CARTESIAN_POINT('',(-0.175813454682,-2.794474839599,6.));
#1687 = DIRECTION('',(0.628574722363,0.777749200197,-0.));
#1688 = DIRECTION('',(0.777749200197,-0.628574722363,0.));
#1689 = ADVANCED_FACE('',(#1690),#1708,.T.);
#1690 = FACE_BOUND('',#1691,.T.);
#1691 = EDGE_LOOP('',(#1692,#1700,#1701,#1702));
#1692 = ORIENTED_EDGE('',*,*,#1693,.F.);
#1693 = EDGE_CURVE('',#1670,#1694,#1696,.T.);
#1694 = VERTEX_POINT('',#1695);
#1695 = CARTESIAN_POINT('',(0.52466768084,-2.75040430204,6.));
#1696 = LINE('',#1697,#1698);
#1697 = CARTESIAN_POINT('',(0.194650610541,-3.093882858128,6.));
#1698 = VECTOR('',#1699,1.);
#1699 = DIRECTION('',(0.69283511296,0.721096045094,0.));
#1700 = ORIENTED_EDGE('',*,*,#1679,.T.);
#1701 = ORIENTED_EDGE('',*,*,#454,.F.);
#1702 = ORIENTED_EDGE('',*,*,#1703,.F.);
#1703 = EDGE_CURVE('',#1694,#447,#1704,.T.);
#1704 = LINE('',#1705,#1706);
#1705 = CARTESIAN_POINT('',(0.52466768084,-2.75040430204,6.));
#1706 = VECTOR('',#1707,1.);
#1707 = DIRECTION('',(0.,0.,1.));
#1708 = PLANE('',#1709);
#1709 = AXIS2_PLACEMENT_3D('',#1710,#1711,#1712);
#1710 = CARTESIAN_POINT('',(0.194650610541,-3.093882858128,6.));
#1711 = DIRECTION('',(-0.721096045094,0.69283511296,0.));
#1712 = DIRECTION('',(0.69283511296,0.721096045094,0.));
#1713 = ADVANCED_FACE('',(#1714),#1732,.T.);
#1714 = FACE_BOUND('',#1715,.T.);
#1715 = EDGE_LOOP('',(#1716,#1724,#1725,#1726));
#1716 = ORIENTED_EDGE('',*,*,#1717,.F.);
#1717 = EDGE_CURVE('',#1694,#1718,#1720,.T.);
#1718 = VERTEX_POINT('',#1719);
#1719 = CARTESIAN_POINT('',(0.957952682562,-2.948275200515,6.));
#1720 = LINE('',#1721,#1722);
#1721 = CARTESIAN_POINT('',(0.52466768084,-2.75040430204,6.));
#1722 = VECTOR('',#1723,1.);
#1723 = DIRECTION('',(0.909634955671,-0.415408530752,0.));
#1724 = ORIENTED_EDGE('',*,*,#1703,.T.);
#1725 = ORIENTED_EDGE('',*,*,#446,.F.);
#1726 = ORIENTED_EDGE('',*,*,#1727,.F.);
#1727 = EDGE_CURVE('',#1718,#439,#1728,.T.);
#1728 = LINE('',#1729,#1730);
#1729 = CARTESIAN_POINT('',(0.957952682562,-2.948275200515,6.));
#1730 = VECTOR('',#1731,1.);
#1731 = DIRECTION('',(0.,0.,1.));
#1732 = PLANE('',#1733);
#1733 = AXIS2_PLACEMENT_3D('',#1734,#1735,#1736);
#1734 = CARTESIAN_POINT('',(0.52466768084,-2.75040430204,6.));
#1735 = DIRECTION('',(0.415408530752,0.909634955671,-0.));
#1736 = DIRECTION('',(0.909634955671,-0.415408530752,0.));
#1737 = ADVANCED_FACE('',(#1738),#1756,.T.);
#1738 = FACE_BOUND('',#1739,.T.);
#1739 = EDGE_LOOP('',(#1740,#1748,#1749,#1750));
#1740 = ORIENTED_EDGE('',*,*,#1741,.F.);
#1741 = EDGE_CURVE('',#1718,#1742,#1744,.T.);
#1742 = VERTEX_POINT('',#1743);
#1743 = CARTESIAN_POINT('',(1.192182016382,-2.533515746905,6.));
#1744 = LINE('',#1745,#1746);
#1745 = CARTESIAN_POINT('',(0.957952682562,-2.948275200515,6.));
#1746 = VECTOR('',#1747,1.);
#1747 = DIRECTION('',(0.491739129762,0.8707425729,0.));
#1748 = ORIENTED_EDGE('',*,*,#1727,.T.);
#1749 = ORIENTED_EDGE('',*,*,#438,.F.);
#1750 = ORIENTED_EDGE('',*,*,#1751,.F.);
#1751 = EDGE_CURVE('',#1742,#431,#1752,.T.);
#1752 = LINE('',#1753,#1754);
#1753 = CARTESIAN_POINT('',(1.192182016382,-2.533515746905,6.));
#1754 = VECTOR('',#1755,1.);
#1755 = DIRECTION('',(0.,0.,1.));
#1756 = PLANE('',#1757);
#1757 = AXIS2_PLACEMENT_3D('',#1758,#1759,#1760);
#1758 = CARTESIAN_POINT('',(0.957952682562,-2.948275200515,6.));
#1759 = DIRECTION('',(-0.8707425729,0.491739129762,0.));
#1760 = DIRECTION('',(0.491739129762,0.8707425729,0.));
#1761 = ADVANCED_FACE('',(#1762),#1780,.T.);
#1762 = FACE_BOUND('',#1763,.T.);
#1763 = EDGE_LOOP('',(#1764,#1772,#1773,#1774));
#1764 = ORIENTED_EDGE('',*,*,#1765,.F.);
#1765 = EDGE_CURVE('',#1742,#1766,#1768,.T.);
#1766 = VERTEX_POINT('',#1767);
#1767 = CARTESIAN_POINT('',(1.661063064435,-2.617416569056,6.));
#1768 = LINE('',#1769,#1770);
#1769 = CARTESIAN_POINT('',(1.192182016382,-2.533515746905,6.));
#1770 = VECTOR('',#1771,1.);
#1771 = DIRECTION('',(0.984365001477,-0.176140693389,0.));
#1772 = ORIENTED_EDGE('',*,*,#1751,.T.);
#1773 = ORIENTED_EDGE('',*,*,#430,.F.);
#1774 = ORIENTED_EDGE('',*,*,#1775,.F.);
#1775 = EDGE_CURVE('',#1766,#423,#1776,.T.);
#1776 = LINE('',#1777,#1778);
#1777 = CARTESIAN_POINT('',(1.661063064435,-2.617416569056,6.));
#1778 = VECTOR('',#1779,1.);
#1779 = DIRECTION('',(0.,0.,1.));
#1780 = PLANE('',#1781);
#1781 = AXIS2_PLACEMENT_3D('',#1782,#1783,#1784);
#1782 = CARTESIAN_POINT('',(1.192182016382,-2.533515746905,6.));
#1783 = DIRECTION('',(0.176140693389,0.984365001477,-0.));
#1784 = DIRECTION('',(0.984365001477,-0.176140693389,0.));
#1785 = ADVANCED_FACE('',(#1786),#1804,.T.);
#1786 = FACE_BOUND('',#1787,.T.);
#1787 = EDGE_LOOP('',(#1788,#1796,#1797,#1798));
#1788 = ORIENTED_EDGE('',*,*,#1789,.F.);
#1789 = EDGE_CURVE('',#1766,#1790,#1792,.T.);
#1790 = VERTEX_POINT('',#1791);
#1791 = CARTESIAN_POINT('',(1.784787171296,-2.157437079772,6.));
#1792 = LINE('',#1793,#1794);
#1793 = CARTESIAN_POINT('',(1.661063064435,-2.617416569056,6.));
#1794 = VECTOR('',#1795,1.);
#1795 = DIRECTION('',(0.259745368552,0.965677142484,0.));
#1796 = ORIENTED_EDGE('',*,*,#1775,.T.);
#1797 = ORIENTED_EDGE('',*,*,#422,.F.);
#1798 = ORIENTED_EDGE('',*,*,#1799,.F.);
#1799 = EDGE_CURVE('',#1790,#415,#1800,.T.);
#1800 = LINE('',#1801,#1802);
#1801 = CARTESIAN_POINT('',(1.784787171296,-2.157437079772,6.));
#1802 = VECTOR('',#1803,1.);
#1803 = DIRECTION('',(0.,0.,1.));
#1804 = PLANE('',#1805);
#1805 = AXIS2_PLACEMENT_3D('',#1806,#1807,#1808);
#1806 = CARTESIAN_POINT('',(1.661063064435,-2.617416569056,6.));
#1807 = DIRECTION('',(-0.965677142484,0.259745368552,0.));
#1808 = DIRECTION('',(0.259745368552,0.965677142484,0.));
#1809 = ADVANCED_FACE('',(#1810),#1828,.T.);
#1810 = FACE_BOUND('',#1811,.T.);
#1811 = EDGE_LOOP('',(#1812,#1820,#1821,#1822));
#1812 = ORIENTED_EDGE('',*,*,#1813,.F.);
#1813 = EDGE_CURVE('',#1790,#1814,#1816,.T.);
#1814 = VERTEX_POINT('',#1815);
#1815 = CARTESIAN_POINT('',(2.259802745006,-2.122096028379,6.));
#1816 = LINE('',#1817,#1818);
#1817 = CARTESIAN_POINT('',(1.784787171296,-2.157437079772,6.));
#1818 = VECTOR('',#1819,1.);
#1819 = DIRECTION('',(0.997243773999,7.41947115402E-02,0.));
#1820 = ORIENTED_EDGE('',*,*,#1799,.T.);
#1821 = ORIENTED_EDGE('',*,*,#414,.F.);
#1822 = ORIENTED_EDGE('',*,*,#1823,.F.);
#1823 = EDGE_CURVE('',#1814,#407,#1824,.T.);
#1824 = LINE('',#1825,#1826);
#1825 = CARTESIAN_POINT('',(2.259802745006,-2.122096028379,6.));
#1826 = VECTOR('',#1827,1.);
#1827 = DIRECTION('',(0.,0.,1.));
#1828 = PLANE('',#1829);
#1829 = AXIS2_PLACEMENT_3D('',#1830,#1831,#1832);
#1830 = CARTESIAN_POINT('',(1.784787171296,-2.157437079772,6.));
#1831 = DIRECTION('',(-7.41947115402E-02,0.997243773999,0.));
#1832 = DIRECTION('',(0.997243773999,7.41947115402E-02,0.));
#1833 = ADVANCED_FACE('',(#1834),#1852,.T.);
#1834 = FACE_BOUND('',#1835,.T.);
#1835 = EDGE_LOOP('',(#1836,#1844,#1845,#1846));
#1836 = ORIENTED_EDGE('',*,*,#1837,.F.);
#1837 = EDGE_CURVE('',#1814,#1838,#1840,.T.);
#1838 = VERTEX_POINT('',#1839);
#1839 = CARTESIAN_POINT('',(2.26524758425,-1.645798706419,6.));
#1840 = LINE('',#1841,#1842);
#1841 = CARTESIAN_POINT('',(2.259802745006,-2.122096028379,6.));
#1842 = VECTOR('',#1843,1.);
#1843 = DIRECTION('',(1.143085055838E-02,0.999934665693,0.));
#1844 = ORIENTED_EDGE('',*,*,#1823,.T.);
#1845 = ORIENTED_EDGE('',*,*,#406,.F.);
#1846 = ORIENTED_EDGE('',*,*,#1847,.F.);
#1847 = EDGE_CURVE('',#1838,#399,#1848,.T.);
#1848 = LINE('',#1849,#1850);
#1849 = CARTESIAN_POINT('',(2.26524758425,-1.645798706419,6.));
#1850 = VECTOR('',#1851,1.);
#1851 = DIRECTION('',(0.,0.,1.));
#1852 = PLANE('',#1853);
#1853 = AXIS2_PLACEMENT_3D('',#1854,#1855,#1856);
#1854 = CARTESIAN_POINT('',(2.259802745006,-2.122096028379,6.));
#1855 = DIRECTION('',(-0.999934665693,1.143085055838E-02,0.));
#1856 = DIRECTION('',(1.143085055838E-02,0.999934665693,0.));
#1857 = ADVANCED_FACE('',(#1858),#1876,.T.);
#1858 = FACE_BOUND('',#1859,.T.);
#1859 = EDGE_LOOP('',(#1860,#1868,#1869,#1870));
#1860 = ORIENTED_EDGE('',*,*,#1861,.F.);
#1861 = EDGE_CURVE('',#1838,#1862,#1864,.T.);
#1862 = VERTEX_POINT('',#1863);
#1863 = CARTESIAN_POINT('',(2.716550708136,-1.493436389715,6.));
#1864 = LINE('',#1865,#1866);
#1865 = CARTESIAN_POINT('',(2.26524758425,-1.645798706419,6.));
#1866 = VECTOR('',#1867,1.);
#1867 = DIRECTION('',(0.947462052594,0.319868189874,0.));
#1868 = ORIENTED_EDGE('',*,*,#1847,.T.);
#1869 = ORIENTED_EDGE('',*,*,#398,.F.);
#1870 = ORIENTED_EDGE('',*,*,#1871,.F.);
#1871 = EDGE_CURVE('',#1862,#391,#1872,.T.);
#1872 = LINE('',#1873,#1874);
#1873 = CARTESIAN_POINT('',(2.716550708136,-1.493436389715,6.));
#1874 = VECTOR('',#1875,1.);
#1875 = DIRECTION('',(0.,0.,1.));
#1876 = PLANE('',#1877);
#1877 = AXIS2_PLACEMENT_3D('',#1878,#1879,#1880);
#1878 = CARTESIAN_POINT('',(2.26524758425,-1.645798706419,6.));
#1879 = DIRECTION('',(-0.319868189874,0.947462052594,0.));
#1880 = DIRECTION('',(0.947462052594,0.319868189874,0.));
#1881 = ADVANCED_FACE('',(#1882),#1900,.T.);
#1882 = FACE_BOUND('',#1883,.T.);
#1883 = EDGE_LOOP('',(#1884,#1892,#1893,#1894));
#1884 = ORIENTED_EDGE('',*,*,#1885,.F.);
#1885 = EDGE_CURVE('',#1862,#1886,#1888,.T.);
#1886 = VERTEX_POINT('',#1887);
#1887 = CARTESIAN_POINT('',(2.603374160487,-1.030748747517,6.));
#1888 = LINE('',#1889,#1890);
#1889 = CARTESIAN_POINT('',(2.716550708136,-1.493436389715,6.));
#1890 = VECTOR('',#1891,1.);
#1891 = DIRECTION('',(-0.237601909815,0.971362616355,0.));
#1892 = ORIENTED_EDGE('',*,*,#1871,.T.);
#1893 = ORIENTED_EDGE('',*,*,#390,.F.);
#1894 = ORIENTED_EDGE('',*,*,#1895,.F.);
#1895 = EDGE_CURVE('',#1886,#383,#1896,.T.);
#1896 = LINE('',#1897,#1898);
#1897 = CARTESIAN_POINT('',(2.603374160487,-1.030748747517,6.));
#1898 = VECTOR('',#1899,1.);
#1899 = DIRECTION('',(0.,0.,1.));
#1900 = PLANE('',#1901);
#1901 = AXIS2_PLACEMENT_3D('',#1902,#1903,#1904);
#1902 = CARTESIAN_POINT('',(2.716550708136,-1.493436389715,6.));
#1903 = DIRECTION('',(-0.971362616355,-0.237601909815,0.));
#1904 = DIRECTION('',(-0.237601909815,0.971362616355,0.));
#1905 = ADVANCED_FACE('',(#1906),#1924,.T.);
#1906 = FACE_BOUND('',#1907,.T.);
#1907 = EDGE_LOOP('',(#1908,#1916,#1917,#1918));
#1908 = ORIENTED_EDGE('',*,*,#1909,.F.);
#1909 = EDGE_CURVE('',#1886,#1910,#1912,.T.);
#1910 = VERTEX_POINT('',#1911);
#1911 = CARTESIAN_POINT('',(3.002607799499,-0.770938650211,6.));
#1912 = LINE('',#1913,#1914);
#1913 = CARTESIAN_POINT('',(2.603374160487,-1.030748747517,6.));
#1914 = VECTOR('',#1915,1.);
#1915 = DIRECTION('',(0.838147805904,0.545443173446,0.));
#1916 = ORIENTED_EDGE('',*,*,#1895,.T.);
#1917 = ORIENTED_EDGE('',*,*,#382,.F.);
#1918 = ORIENTED_EDGE('',*,*,#1919,.F.);
#1919 = EDGE_CURVE('',#1910,#375,#1920,.T.);
#1920 = LINE('',#1921,#1922);
#1921 = CARTESIAN_POINT('',(3.002607799499,-0.770938650211,6.));
#1922 = VECTOR('',#1923,1.);
#1923 = DIRECTION('',(0.,0.,1.));
#1924 = PLANE('',#1925);
#1925 = AXIS2_PLACEMENT_3D('',#1926,#1927,#1928);
#1926 = CARTESIAN_POINT('',(2.603374160487,-1.030748747517,6.));
#1927 = DIRECTION('',(-0.545443173446,0.838147805904,0.));
#1928 = DIRECTION('',(0.838147805904,0.545443173446,0.));
#1929 = ADVANCED_FACE('',(#1930),#1948,.T.);
#1930 = FACE_BOUND('',#1931,.T.);
#1931 = EDGE_LOOP('',(#1932,#1940,#1941,#1942));
#1932 = ORIENTED_EDGE('',*,*,#1933,.F.);
#1933 = EDGE_CURVE('',#1910,#1934,#1936,.T.);
#1934 = VERTEX_POINT('',#1935);
#1935 = CARTESIAN_POINT('',(2.777921163681,-0.35093305398,6.));
#1936 = LINE('',#1937,#1938);
#1937 = CARTESIAN_POINT('',(3.002607799499,-0.770938650211,6.));
#1938 = VECTOR('',#1939,1.);
#1939 = DIRECTION('',(-0.471705268357,0.881756281409,0.));
#1940 = ORIENTED_EDGE('',*,*,#1919,.T.);
#1941 = ORIENTED_EDGE('',*,*,#374,.F.);
#1942 = ORIENTED_EDGE('',*,*,#1943,.F.);
#1943 = EDGE_CURVE('',#1934,#367,#1944,.T.);
#1944 = LINE('',#1945,#1946);
#1945 = CARTESIAN_POINT('',(2.777921163681,-0.35093305398,6.));
#1946 = VECTOR('',#1947,1.);
#1947 = DIRECTION('',(0.,0.,1.));
#1948 = PLANE('',#1949);
#1949 = AXIS2_PLACEMENT_3D('',#1950,#1951,#1952);
#1950 = CARTESIAN_POINT('',(3.002607799499,-0.770938650211,6.));
#1951 = DIRECTION('',(-0.881756281409,-0.471705268357,0.));
#1952 = DIRECTION('',(-0.471705268357,0.881756281409,0.));
#1953 = ADVANCED_FACE('',(#1954),#1972,.T.);
#1954 = FACE_BOUND('',#1955,.T.);
#1955 = EDGE_LOOP('',(#1956,#1964,#1965,#1966));
#1956 = ORIENTED_EDGE('',*,*,#1957,.F.);
#1957 = EDGE_CURVE('',#1934,#1958,#1960,.T.);
#1958 = VERTEX_POINT('',#1959);
#1959 = CARTESIAN_POINT('',(3.1,0.,6.));
#1960 = LINE('',#1961,#1962);
#1961 = CARTESIAN_POINT('',(2.777921163681,-0.35093305398,6.));
#1962 = VECTOR('',#1963,1.);
#1963 = DIRECTION('',(0.676169650076,0.73674595643,0.));
#1964 = ORIENTED_EDGE('',*,*,#1943,.T.);
#1965 = ORIENTED_EDGE('',*,*,#366,.F.);
#1966 = ORIENTED_EDGE('',*,*,#1967,.F.);
#1967 = EDGE_CURVE('',#1958,#359,#1968,.T.);
#1968 = LINE('',#1969,#1970);
#1969 = CARTESIAN_POINT('',(3.1,0.,6.));
#1970 = VECTOR('',#1971,1.);
#1971 = DIRECTION('',(0.,0.,1.));
#1972 = PLANE('',#1973);
#1973 = AXIS2_PLACEMENT_3D('',#1974,#1975,#1976);
#1974 = CARTESIAN_POINT('',(2.777921163681,-0.35093305398,6.));
#1975 = DIRECTION('',(-0.73674595643,0.676169650076,0.));
#1976 = DIRECTION('',(0.676169650076,0.73674595643,0.));
#1977 = ADVANCED_FACE('',(#1978),#1989,.T.);
#1978 = FACE_BOUND('',#1979,.T.);
#1979 = EDGE_LOOP('',(#1980,#1986,#1987,#1988));
#1980 = ORIENTED_EDGE('',*,*,#1981,.F.);
#1981 = EDGE_CURVE('',#1958,#799,#1982,.T.);
#1982 = LINE('',#1983,#1984);
#1983 = CARTESIAN_POINT('',(3.1,0.,6.));
#1984 = VECTOR('',#1985,1.);
#1985 = DIRECTION('',(-0.676169650076,0.73674595643,0.));
#1986 = ORIENTED_EDGE('',*,*,#1967,.T.);
#1987 = ORIENTED_EDGE('',*,*,#358,.F.);
#1988 = ORIENTED_EDGE('',*,*,#808,.F.);
#1989 = PLANE('',#1990);
#1990 = AXIS2_PLACEMENT_3D('',#1991,#1992,#1993);
#1991 = CARTESIAN_POINT('',(3.1,0.,6.));
#1992 = DIRECTION('',(-0.73674595643,-0.676169650076,0.));
#1993 = DIRECTION('',(-0.676169650076,0.73674595643,0.));
#1994 = ADVANCED_FACE('',(#1995,#2047),#2058,.T.);
#1995 = FACE_BOUND('',#1996,.T.);
#1996 = EDGE_LOOP('',(#1997,#1998,#1999,#2000,#2001,#2002,#2003,#2004,
    #2005,#2006,#2007,#2008,#2009,#2010,#2011,#2012,#2013,#2014,#2015,
    #2016,#2017,#2018,#2019,#2020,#2021,#2022,#2023,#2024,#2025,#2026,
    #2027,#2028,#2029,#2030,#2031,#2032,#2033,#2034,#2035,#2036,#2037,
    #2038,#2039,#2040,#2041,#2042,#2043,#2044,#2045,#2046));
#1997 = ORIENTED_EDGE('',*,*,#1981,.T.);
#1998 = ORIENTED_EDGE('',*,*,#798,.T.);
#1999 = ORIENTED_EDGE('',*,*,#829,.T.);
#2000 = ORIENTED_EDGE('',*,*,#853,.T.);
#2001 = ORIENTED_EDGE('',*,*,#877,.T.);
#2002 = ORIENTED_EDGE('',*,*,#901,.T.);
#2003 = ORIENTED_EDGE('',*,*,#925,.T.);
#2004 = ORIENTED_EDGE('',*,*,#949,.T.);
#2005 = ORIENTED_EDGE('',*,*,#973,.T.);
#2006 = ORIENTED_EDGE('',*,*,#997,.T.);
#2007 = ORIENTED_EDGE('',*,*,#1021,.T.);
#2008 = ORIENTED_EDGE('',*,*,#1045,.T.);
#2009 = ORIENTED_EDGE('',*,*,#1069,.T.);
#2010 = ORIENTED_EDGE('',*,*,#1093,.T.);
#2011 = ORIENTED_EDGE('',*,*,#1117,.T.);
#2012 = ORIENTED_EDGE('',*,*,#1141,.T.);
#2013 = ORIENTED_EDGE('',*,*,#1165,.T.);
#2014 = ORIENTED_EDGE('',*,*,#1189,.T.);
#2015 = ORIENTED_EDGE('',*,*,#1213,.T.);
#2016 = ORIENTED_EDGE('',*,*,#1237,.T.);
#2017 = ORIENTED_EDGE('',*,*,#1261,.T.);
#2018 = ORIENTED_EDGE('',*,*,#1285,.T.);
#2019 = ORIENTED_EDGE('',*,*,#1309,.T.);
#2020 = ORIENTED_EDGE('',*,*,#1333,.T.);
#2021 = ORIENTED_EDGE('',*,*,#1357,.T.);
#2022 = ORIENTED_EDGE('',*,*,#1381,.T.);
#2023 = ORIENTED_EDGE('',*,*,#1405,.T.);
#2024 = ORIENTED_EDGE('',*,*,#1429,.T.);
#2025 = ORIENTED_EDGE('',*,*,#1453,.T.);
#2026 = ORIENTED_EDGE('',*,*,#1477,.T.);
#2027 = ORIENTED_EDGE('',*,*,#1501,.T.);
#2028 = ORIENTED_EDGE('',*,*,#1525,.T.);
#2029 = ORIENTED_EDGE('',*,*,#1549,.T.);
#2030 = ORIENTED_EDGE('',*,*,#1573,.T.);
#2031 = ORIENTED_EDGE('',*,*,#1597,.T.);
#2032 = ORIENTED_EDGE('',*,*,#1621,.T.);
#2033 = ORIENTED_EDGE('',*,*,#1645,.T.);
#2034 = ORIENTED_EDGE('',*,*,#1669,.T.);
#2035 = ORIENTED_EDGE('',*,*,#1693,.T.);
#2036 = ORIENTED_EDGE('',*,*,#1717,.T.);
#2037 = ORIENTED_EDGE('',*,*,#1741,.T.);
#2038 = ORIENTED_EDGE('',*,*,#1765,.T.);
#2039 = ORIENTED_EDGE('',*,*,#1789,.T.);
#2040 = ORIENTED_EDGE('',*,*,#1813,.T.);
#2041 = ORIENTED_EDGE('',*,*,#1837,.T.);
#2042 = ORIENTED_EDGE('',*,*,#1861,.T.);
#2043 = ORIENTED_EDGE('',*,*,#1885,.T.);
#2044 = ORIENTED_EDGE('',*,*,#1909,.T.);
#2045 = ORIENTED_EDGE('',*,*,#1933,.T.);
#2046 = ORIENTED_EDGE('',*,*,#1957,.T.);
#2047 = FACE_BOUND('',#2048,.T.);
#2048 = EDGE_LOOP('',(#2049));
#2049 = ORIENTED_EDGE('',*,*,#2050,.F.);
#2050 = EDGE_CURVE('',#2051,#2051,#2053,.T.);
#2051 = VERTEX_POINT('',#2052);
#2052 = CARTESIAN_POINT('',(1.6,-3.918869757272E-16,6.));
#2053 = CIRCLE('',#2054,1.6);
#2054 = AXIS2_PLACEMENT_3D('',#2055,#2056,#2057);
#2055 = CARTESIAN_POINT('',(0.,0.,6.));
#2056 = DIRECTION('',(0.,0.,1.));
#2057 = DIRECTION('',(1.,0.,-0.));
#2058 = PLANE('',#2059);
#2059 = AXIS2_PLACEMENT_3D('',#2060,#2061,#2062);
#2060 = CARTESIAN_POINT('',(-2.983415107267E-16,-1.281936178904E-16,6.)
  );
#2061 = DIRECTION('',(0.,0.,1.));
#2062 = DIRECTION('',(1.,0.,-0.));
#2063 = ADVANCED_FACE('',(#2064),#2083,.F.);
#2064 = FACE_BOUND('',#2065,.F.);
#2065 = EDGE_LOOP('',(#2066,#2067,#2075,#2082));
#2066 = ORIENTED_EDGE('',*,*,#2050,.F.);
#2067 = ORIENTED_EDGE('',*,*,#2068,.F.);
#2068 = EDGE_CURVE('',#2069,#2051,#2071,.T.);
#2069 = VERTEX_POINT('',#2070);
#2070 = CARTESIAN_POINT('',(1.6,-3.918869757272E-16,0.));
#2071 = LINE('',#2072,#2073);
#2072 = CARTESIAN_POINT('',(1.6,-3.918869757272E-16,-1.));
#2073 = VECTOR('',#2074,1.);
#2074 = DIRECTION('',(0.,0.,1.));
#2075 = ORIENTED_EDGE('',*,*,#2076,.T.);
#2076 = EDGE_CURVE('',#2069,#2069,#2077,.T.);
#2077 = CIRCLE('',#2078,1.6);
#2078 = AXIS2_PLACEMENT_3D('',#2079,#2080,#2081);
#2079 = CARTESIAN_POINT('',(0.,0.,0.));
#2080 = DIRECTION('',(0.,0.,1.));
#2081 = DIRECTION('',(1.,0.,-0.));
#2082 = ORIENTED_EDGE('',*,*,#2068,.T.);
#2083 = CYLINDRICAL_SURFACE('',#2084,1.6);
#2084 = AXIS2_PLACEMENT_3D('',#2085,#2086,#2087);
#2085 = CARTESIAN_POINT('',(0.,0.,-1.));
#2086 = DIRECTION('',(0.,0.,1.));
#2087 = DIRECTION('',(1.,0.,-0.));
#2088 = ADVANCED_FACE('',(#2089,#2099,#2102,#2105),#2108,.T.);
#2089 = FACE_BOUND('',#2090,.T.);
#2090 = EDGE_LOOP('',(#2091,#2092,#2093,#2094,#2095,#2096,#2097,#2098));
#2091 = ORIENTED_EDGE('',*,*,#128,.T.);
#2092 = ORIENTED_EDGE('',*,*,#187,.F.);
#2093 = ORIENTED_EDGE('',*,*,#321,.T.);
#2094 = ORIENTED_EDGE('',*,*,#757,.F.);
#2095 = ORIENTED_EDGE('',*,*,#297,.F.);
#2096 = ORIENTED_EDGE('',*,*,#197,.F.);
#2097 = ORIENTED_EDGE('',*,*,#61,.F.);
#2098 = ORIENTED_EDGE('',*,*,#31,.T.);
#2099 = FACE_BOUND('',#2100,.T.);
#2100 = EDGE_LOOP('',(#2101));
#2101 = ORIENTED_EDGE('',*,*,#2076,.T.);
#2102 = FACE_BOUND('',#2103,.T.);
#2103 = EDGE_LOOP('',(#2104));
#2104 = ORIENTED_EDGE('',*,*,#238,.T.);
#2105 = FACE_BOUND('',#2106,.T.);
#2106 = EDGE_LOOP('',(#2107));
#2107 = ORIENTED_EDGE('',*,*,#782,.T.);
#2108 = PLANE('',#2109);
#2109 = AXIS2_PLACEMENT_3D('',#2110,#2111,#2112);
#2110 = CARTESIAN_POINT('',(5.20766835643E-16,0.,0.));
#2111 = DIRECTION('',(-0.,-0.,-1.));
#2112 = DIRECTION('',(-1.,0.,0.));
#2113 = ( GEOMETRIC_REPRESENTATION_CONTEXT(3) 
GLOBAL_UNCERTAINTY_ASSIGNED_CONTEXT((#2117)) 
GLOBAL_UNIT_ASSIGNED_CONTEXT((#2114,#2115,#2116)) REPRESENTATION_CONTEXT
('Context #1','3D Context with UNIT and UNCERTAINTY') );
#2114 = ( LENGTH_UNIT() NAMED_UNIT(*) SI_UNIT(.MILLI.,.METRE.) );
#2115 = ( NAMED_UNIT(*) PLANE_ANGLE_UNIT() SI_UNIT($,.RADIAN.) );
#2116 = ( NAMED_UNIT(*) SI_UNIT($,.STERADIAN.) SOLID_ANGLE_UNIT() );
#2117 = UNCERTAINTY_MEASURE_WITH_UNIT(LENGTH_MEASURE(1.E-07),#2114,
  'distance_accuracy_value','confusion accuracy');
#2118 = PRODUCT_RELATED_PRODUCT_CATEGORY('part',$,(#7));
ENDSEC;
END-ISO-10303-21;
