ISO-10303-21;
HEADER;
FILE_DESCRIPTION(('FreeCAD Model'),'2;1');
FILE_NAME('Open CASCADE Shape Model','2026-10-08T01:03:42',('FreeCAD'),(
    'FreeCAD'),'Open CASCADE STEP processor 7.8','FreeCAD','Unknown');
FILE_SCHEMA(('AUTOMOTIVE_DESIGN { 1 0 10303 214 1 1 1 1 }'));
ENDSEC;
DATA;
#1 = APPLICATION_PROTOCOL_DEFINITION('international standard',
  'automotive_design',2000,#2);
#2 = APPLICATION_CONTEXT(
  'core data for automotive mechanical design processes');
#3 = SHAPE_DEFINITION_REPRESENTATION(#4,#10);
#4 = PRODUCT_DEFINITION_SHAPE('','',#5);
#5 = PRODUCT_DEFINITION('design','',#6,#9);
#6 = PRODUCT_DEFINITION_FORMATION('','',#7);
#7 = PRODUCT('Open CASCADE STEP translator 7.8 1',
  'Open CASCADE STEP translator 7.8 1','',(#8));
#8 = PRODUCT_CONTEXT('',#2,'mechanical');
#9 = PRODUCT_DEFINITION_CONTEXT('part definition',#2,'design');
#10 = ADVANCED_BREP_SHAPE_REPRESENTATION('',(#11,#15),#1256);
#11 = AXIS2_PLACEMENT_3D('',#12,#13,#14);
#12 = CARTESIAN_POINT('',(0.,0.,0.));
#13 = DIRECTION('',(0.,0.,1.));
#14 = DIRECTION('',(1.,0.,-0.));
#15 = MANIFOLD_SOLID_BREP('',#16);
#16 = CLOSED_SHELL('',(#17,#68,#99,#130,#148,#243,#283,#314,#393,#424,
    #448,#475,#495,#520,#529,#654,#685,#760,#782,#799,#816,#833,#850,
    #897,#919,#943,#967,#992,#1039,#1061,#1085,#1102,#1135,#1188,#1206,
    #1224,#1238));
#17 = ADVANCED_FACE('',(#18),#63,.T.);
#18 = FACE_BOUND('',#19,.T.);
#19 = EDGE_LOOP('',(#20,#30,#39,#48,#56));
#20 = ORIENTED_EDGE('',*,*,#21,.F.);
#21 = EDGE_CURVE('',#22,#24,#26,.T.);
#22 = VERTEX_POINT('',#23);
#23 = CARTESIAN_POINT('',(34.98,10.428326807307,3.5));
#24 = VERTEX_POINT('',#25);
#25 = CARTESIAN_POINT('',(34.98,3.570714214271,3.5));
#26 = LINE('',#27,#28);
#27 = CARTESIAN_POINT('',(34.98,-9.,3.5));
#28 = VECTOR('',#29,1.);
#29 = DIRECTION('',(0.,-1.,0.));
#30 = ORIENTED_EDGE('',*,*,#31,.T.);
#31 = EDGE_CURVE('',#22,#32,#34,.T.);
#32 = VERTEX_POINT('',#33);
#33 = CARTESIAN_POINT('',(34.98,2.694222958124E-15,11.));
#34 = CIRCLE('',#35,11.);
#35 = AXIS2_PLACEMENT_3D('',#36,#37,#38);
#36 = CARTESIAN_POINT('',(34.98,0.,0.));
#37 = DIRECTION('',(1.,0.,0.));
#38 = DIRECTION('',(-0.,0.,1.));
#39 = ORIENTED_EDGE('',*,*,#40,.T.);
#40 = EDGE_CURVE('',#32,#41,#43,.T.);
#41 = VERTEX_POINT('',#42);
#42 = CARTESIAN_POINT('',(34.98,-10.4283268073,3.5));
#43 = CIRCLE('',#44,11.);
#44 = AXIS2_PLACEMENT_3D('',#45,#46,#47);
#45 = CARTESIAN_POINT('',(34.98,0.,0.));
#46 = DIRECTION('',(1.,0.,0.));
#47 = DIRECTION('',(-0.,0.,1.));
#48 = ORIENTED_EDGE('',*,*,#49,.F.);
#49 = EDGE_CURVE('',#50,#41,#52,.T.);
#50 = VERTEX_POINT('',#51);
#51 = CARTESIAN_POINT('',(34.98,-3.570714214271,3.5));
#52 = LINE('',#53,#54);
#53 = CARTESIAN_POINT('',(34.98,-9.,3.5));
#54 = VECTOR('',#55,1.);
#55 = DIRECTION('',(0.,-1.,0.));
#56 = ORIENTED_EDGE('',*,*,#57,.F.);
#57 = EDGE_CURVE('',#24,#50,#58,.T.);
#58 = CIRCLE('',#59,5.);
#59 = AXIS2_PLACEMENT_3D('',#60,#61,#62);
#60 = CARTESIAN_POINT('',(34.98,0.,0.));
#61 = DIRECTION('',(1.,0.,0.));
#62 = DIRECTION('',(-0.,1.,0.));
#63 = PLANE('',#64);
#64 = AXIS2_PLACEMENT_3D('',#65,#66,#67);
#65 = CARTESIAN_POINT('',(34.98,0.,0.));
#66 = DIRECTION('',(1.,0.,0.));
#67 = DIRECTION('',(-0.,0.,1.));
#68 = ADVANCED_FACE('',(#69),#94,.F.);
#69 = FACE_BOUND('',#70,.F.);
#70 = EDGE_LOOP('',(#71,#81,#87,#88));
#71 = ORIENTED_EDGE('',*,*,#72,.F.);
#72 = EDGE_CURVE('',#73,#75,#77,.T.);
#73 = VERTEX_POINT('',#74);
#74 = CARTESIAN_POINT('',(32.98,-10.4283268073,3.5));
#75 = VERTEX_POINT('',#76);
#76 = CARTESIAN_POINT('',(32.98,-3.570714214271,3.5));
#77 = LINE('',#78,#79);
#78 = CARTESIAN_POINT('',(32.98,-18.,3.5));
#79 = VECTOR('',#80,1.);
#80 = DIRECTION('',(0.,1.,0.));
#81 = ORIENTED_EDGE('',*,*,#82,.T.);
#82 = EDGE_CURVE('',#73,#41,#83,.T.);
#83 = LINE('',#84,#85);
#84 = CARTESIAN_POINT('',(30.98,-10.4283268073,3.5));
#85 = VECTOR('',#86,1.);
#86 = DIRECTION('',(1.,0.,0.));
#87 = ORIENTED_EDGE('',*,*,#49,.F.);
#88 = ORIENTED_EDGE('',*,*,#89,.F.);
#89 = EDGE_CURVE('',#75,#50,#90,.T.);
#90 = LINE('',#91,#92);
#91 = CARTESIAN_POINT('',(32.98,-3.570714214271,3.5));
#92 = VECTOR('',#93,1.);
#93 = DIRECTION('',(1.,0.,0.));
#94 = PLANE('',#95);
#95 = AXIS2_PLACEMENT_3D('',#96,#97,#98);
#96 = CARTESIAN_POINT('',(32.98,-18.,3.5));
#97 = DIRECTION('',(0.,0.,1.));
#98 = DIRECTION('',(1.,0.,0.));
#99 = ADVANCED_FACE('',(#100),#125,.F.);
#100 = FACE_BOUND('',#101,.F.);
#101 = EDGE_LOOP('',(#102,#112,#118,#119));
#102 = ORIENTED_EDGE('',*,*,#103,.F.);
#103 = EDGE_CURVE('',#104,#106,#108,.T.);
#104 = VERTEX_POINT('',#105);
#105 = CARTESIAN_POINT('',(32.98,3.570714214271,3.5));
#106 = VERTEX_POINT('',#107);
#107 = CARTESIAN_POINT('',(32.98,10.428326807307,3.5));
#108 = LINE('',#109,#110);
#109 = CARTESIAN_POINT('',(32.98,-18.,3.5));
#110 = VECTOR('',#111,1.);
#111 = DIRECTION('',(0.,1.,0.));
#112 = ORIENTED_EDGE('',*,*,#113,.T.);
#113 = EDGE_CURVE('',#104,#24,#114,.T.);
#114 = LINE('',#115,#116);
#115 = CARTESIAN_POINT('',(32.98,3.570714214271,3.5));
#116 = VECTOR('',#117,1.);
#117 = DIRECTION('',(1.,0.,0.));
#118 = ORIENTED_EDGE('',*,*,#21,.F.);
#119 = ORIENTED_EDGE('',*,*,#120,.F.);
#120 = EDGE_CURVE('',#106,#22,#121,.T.);
#121 = LINE('',#122,#123);
#122 = CARTESIAN_POINT('',(30.98,10.428326807307,3.5));
#123 = VECTOR('',#124,1.);
#124 = DIRECTION('',(1.,0.,0.));
#125 = PLANE('',#126);
#126 = AXIS2_PLACEMENT_3D('',#127,#128,#129);
#127 = CARTESIAN_POINT('',(32.98,-18.,3.5));
#128 = DIRECTION('',(0.,0.,1.));
#129 = DIRECTION('',(1.,0.,0.));
#130 = ADVANCED_FACE('',(#131),#143,.F.);
#131 = FACE_BOUND('',#132,.F.);
#132 = EDGE_LOOP('',(#133,#134,#135,#142));
#133 = ORIENTED_EDGE('',*,*,#57,.F.);
#134 = ORIENTED_EDGE('',*,*,#113,.F.);
#135 = ORIENTED_EDGE('',*,*,#136,.T.);
#136 = EDGE_CURVE('',#104,#75,#137,.T.);
#137 = CIRCLE('',#138,5.);
#138 = AXIS2_PLACEMENT_3D('',#139,#140,#141);
#139 = CARTESIAN_POINT('',(32.98,0.,0.));
#140 = DIRECTION('',(1.,0.,0.));
#141 = DIRECTION('',(0.,1.,0.));
#142 = ORIENTED_EDGE('',*,*,#89,.T.);
#143 = CYLINDRICAL_SURFACE('',#144,5.);
#144 = AXIS2_PLACEMENT_3D('',#145,#146,#147);
#145 = CARTESIAN_POINT('',(32.98,0.,0.));
#146 = DIRECTION('',(1.,0.,0.));
#147 = DIRECTION('',(0.,1.,0.));
#148 = ADVANCED_FACE('',(#149,#227),#238,.T.);
#149 = FACE_BOUND('',#150,.T.);
#150 = EDGE_LOOP('',(#151,#152,#161,#169,#177,#185,#194,#202,#210,#218,
    #225,#226));
#151 = ORIENTED_EDGE('',*,*,#72,.F.);
#152 = ORIENTED_EDGE('',*,*,#153,.T.);
#153 = EDGE_CURVE('',#73,#154,#156,.T.);
#154 = VERTEX_POINT('',#155);
#155 = CARTESIAN_POINT('',(32.98,-11.,0.));
#156 = CIRCLE('',#157,11.);
#157 = AXIS2_PLACEMENT_3D('',#158,#159,#160);
#158 = CARTESIAN_POINT('',(32.98,0.,0.));
#159 = DIRECTION('',(1.,0.,0.));
#160 = DIRECTION('',(-0.,0.,1.));
#161 = ORIENTED_EDGE('',*,*,#162,.F.);
#162 = EDGE_CURVE('',#163,#154,#165,.T.);
#163 = VERTEX_POINT('',#164);
#164 = CARTESIAN_POINT('',(32.98,-18.,0.));
#165 = LINE('',#166,#167);
#166 = CARTESIAN_POINT('',(32.98,-18.5,0.));
#167 = VECTOR('',#168,1.);
#168 = DIRECTION('',(0.,1.,0.));
#169 = ORIENTED_EDGE('',*,*,#170,.F.);
#170 = EDGE_CURVE('',#171,#163,#173,.T.);
#171 = VERTEX_POINT('',#172);
#172 = CARTESIAN_POINT('',(32.98,-18.,-3.5));
#173 = LINE('',#174,#175);
#174 = CARTESIAN_POINT('',(32.98,-18.,-3.5));
#175 = VECTOR('',#176,1.);
#176 = DIRECTION('',(0.,0.,1.));
#177 = ORIENTED_EDGE('',*,*,#178,.T.);
#178 = EDGE_CURVE('',#171,#179,#181,.T.);
#179 = VERTEX_POINT('',#180);
#180 = CARTESIAN_POINT('',(32.98,-3.570714214271,-3.5));
#181 = LINE('',#182,#183);
#182 = CARTESIAN_POINT('',(32.98,-18.,-3.5));
#183 = VECTOR('',#184,1.);
#184 = DIRECTION('',(0.,1.,0.));
#185 = ORIENTED_EDGE('',*,*,#186,.T.);
#186 = EDGE_CURVE('',#179,#187,#189,.T.);
#187 = VERTEX_POINT('',#188);
#188 = CARTESIAN_POINT('',(32.98,3.570714214271,-3.5));
#189 = CIRCLE('',#190,5.);
#190 = AXIS2_PLACEMENT_3D('',#191,#192,#193);
#191 = CARTESIAN_POINT('',(32.98,0.,0.));
#192 = DIRECTION('',(1.,0.,0.));
#193 = DIRECTION('',(0.,1.,0.));
#194 = ORIENTED_EDGE('',*,*,#195,.T.);
#195 = EDGE_CURVE('',#187,#196,#198,.T.);
#196 = VERTEX_POINT('',#197);
#197 = CARTESIAN_POINT('',(32.98,18.,-3.5));
#198 = LINE('',#199,#200);
#199 = CARTESIAN_POINT('',(32.98,-18.,-3.5));
#200 = VECTOR('',#201,1.);
#201 = DIRECTION('',(0.,1.,0.));
#202 = ORIENTED_EDGE('',*,*,#203,.T.);
#203 = EDGE_CURVE('',#196,#204,#206,.T.);
#204 = VERTEX_POINT('',#205);
#205 = CARTESIAN_POINT('',(32.98,18.,0.));
#206 = LINE('',#207,#208);
#207 = CARTESIAN_POINT('',(32.98,18.,-3.5));
#208 = VECTOR('',#209,1.);
#209 = DIRECTION('',(0.,0.,1.));
#210 = ORIENTED_EDGE('',*,*,#211,.F.);
#211 = EDGE_CURVE('',#212,#204,#214,.T.);
#212 = VERTEX_POINT('',#213);
#213 = CARTESIAN_POINT('',(32.98,11.,0.));
#214 = LINE('',#215,#216);
#215 = CARTESIAN_POINT('',(32.98,-18.5,0.));
#216 = VECTOR('',#217,1.);
#217 = DIRECTION('',(0.,1.,0.));
#218 = ORIENTED_EDGE('',*,*,#219,.T.);
#219 = EDGE_CURVE('',#212,#106,#220,.T.);
#220 = CIRCLE('',#221,11.);
#221 = AXIS2_PLACEMENT_3D('',#222,#223,#224);
#222 = CARTESIAN_POINT('',(32.98,0.,0.));
#223 = DIRECTION('',(1.,0.,0.));
#224 = DIRECTION('',(-0.,0.,1.));
#225 = ORIENTED_EDGE('',*,*,#103,.F.);
#226 = ORIENTED_EDGE('',*,*,#136,.T.);
#227 = FACE_BOUND('',#228,.T.);
#228 = EDGE_LOOP('',(#229));
#229 = ORIENTED_EDGE('',*,*,#230,.F.);
#230 = EDGE_CURVE('',#231,#231,#233,.T.);
#231 = VERTEX_POINT('',#232);
#232 = CARTESIAN_POINT('',(32.98,3.,-7.347880794884E-16));
#233 = CIRCLE('',#234,3.);
#234 = AXIS2_PLACEMENT_3D('',#235,#236,#237);
#235 = CARTESIAN_POINT('',(32.98,0.,0.));
#236 = DIRECTION('',(1.,0.,0.));
#237 = DIRECTION('',(0.,1.,0.));
#238 = PLANE('',#239);
#239 = AXIS2_PLACEMENT_3D('',#240,#241,#242);
#240 = CARTESIAN_POINT('',(32.98,5.961174863324E-16,-0.609759161304));
#241 = DIRECTION('',(1.,0.,0.));
#242 = DIRECTION('',(-0.,0.,1.));
#243 = ADVANCED_FACE('',(#244),#278,.T.);
#244 = FACE_BOUND('',#245,.T.);
#245 = EDGE_LOOP('',(#246,#256,#264,#272));
#246 = ORIENTED_EDGE('',*,*,#247,.F.);
#247 = EDGE_CURVE('',#248,#250,#252,.T.);
#248 = VERTEX_POINT('',#249);
#249 = CARTESIAN_POINT('',(-34.98,-19.,0.));
#250 = VERTEX_POINT('',#251);
#251 = CARTESIAN_POINT('',(-34.98,-11.,-5.461926184918E-14));
#252 = LINE('',#253,#254);
#253 = CARTESIAN_POINT('',(-34.98,-19.,0.));
#254 = VECTOR('',#255,1.);
#255 = DIRECTION('',(-0.,1.,0.));
#256 = ORIENTED_EDGE('',*,*,#257,.T.);
#257 = EDGE_CURVE('',#248,#258,#260,.T.);
#258 = VERTEX_POINT('',#259);
#259 = CARTESIAN_POINT('',(-30.98,-19.,0.));
#260 = LINE('',#261,#262);
#261 = CARTESIAN_POINT('',(-34.98,-19.,0.));
#262 = VECTOR('',#263,1.);
#263 = DIRECTION('',(1.,0.,-0.));
#264 = ORIENTED_EDGE('',*,*,#265,.T.);
#265 = EDGE_CURVE('',#258,#266,#268,.T.);
#266 = VERTEX_POINT('',#267);
#267 = CARTESIAN_POINT('',(-30.98,-11.,-5.461926184918E-14));
#268 = LINE('',#269,#270);
#269 = CARTESIAN_POINT('',(-30.98,-19.,0.));
#270 = VECTOR('',#271,1.);
#271 = DIRECTION('',(-0.,1.,0.));
#272 = ORIENTED_EDGE('',*,*,#273,.F.);
#273 = EDGE_CURVE('',#250,#266,#274,.T.);
#274 = LINE('',#275,#276);
#275 = CARTESIAN_POINT('',(-34.98,-11.,0.));
#276 = VECTOR('',#277,1.);
#277 = DIRECTION('',(1.,0.,0.));
#278 = PLANE('',#279);
#279 = AXIS2_PLACEMENT_3D('',#280,#281,#282);
#280 = CARTESIAN_POINT('',(-34.98,-19.,0.));
#281 = DIRECTION('',(0.,0.,1.));
#282 = DIRECTION('',(1.,0.,-0.));
#283 = ADVANCED_FACE('',(#284),#309,.F.);
#284 = FACE_BOUND('',#285,.F.);
#285 = EDGE_LOOP('',(#286,#296,#302,#303));
#286 = ORIENTED_EDGE('',*,*,#287,.F.);
#287 = EDGE_CURVE('',#288,#290,#292,.T.);
#288 = VERTEX_POINT('',#289);
#289 = CARTESIAN_POINT('',(-34.98,-19.,-17.4));
#290 = VERTEX_POINT('',#291);
#291 = CARTESIAN_POINT('',(-30.98,-19.,-17.4));
#292 = LINE('',#293,#294);
#293 = CARTESIAN_POINT('',(-34.98,-19.,-17.4));
#294 = VECTOR('',#295,1.);
#295 = DIRECTION('',(1.,0.,-0.));
#296 = ORIENTED_EDGE('',*,*,#297,.T.);
#297 = EDGE_CURVE('',#288,#248,#298,.T.);
#298 = LINE('',#299,#300);
#299 = CARTESIAN_POINT('',(-34.98,-19.,-17.4));
#300 = VECTOR('',#301,1.);
#301 = DIRECTION('',(0.,0.,1.));
#302 = ORIENTED_EDGE('',*,*,#257,.T.);
#303 = ORIENTED_EDGE('',*,*,#304,.F.);
#304 = EDGE_CURVE('',#290,#258,#305,.T.);
#305 = LINE('',#306,#307);
#306 = CARTESIAN_POINT('',(-30.98,-19.,-17.4));
#307 = VECTOR('',#308,1.);
#308 = DIRECTION('',(0.,0.,1.));
#309 = PLANE('',#310);
#310 = AXIS2_PLACEMENT_3D('',#311,#312,#313);
#311 = CARTESIAN_POINT('',(-34.98,-19.,-17.4));
#312 = DIRECTION('',(-0.,1.,0.));
#313 = DIRECTION('',(0.,0.,1.));
#314 = ADVANCED_FACE('',(#315,#359),#388,.T.);
#315 = FACE_BOUND('',#316,.T.);
#316 = EDGE_LOOP('',(#317,#318,#319,#328,#337,#345,#353));
#317 = ORIENTED_EDGE('',*,*,#297,.T.);
#318 = ORIENTED_EDGE('',*,*,#247,.T.);
#319 = ORIENTED_EDGE('',*,*,#320,.F.);
#320 = EDGE_CURVE('',#321,#250,#323,.T.);
#321 = VERTEX_POINT('',#322);
#322 = CARTESIAN_POINT('',(-34.98,2.694222958124E-15,11.));
#323 = CIRCLE('',#324,11.);
#324 = AXIS2_PLACEMENT_3D('',#325,#326,#327);
#325 = CARTESIAN_POINT('',(-34.98,0.,0.));
#326 = DIRECTION('',(1.,0.,0.));
#327 = DIRECTION('',(-0.,0.,1.));
#328 = ORIENTED_EDGE('',*,*,#329,.F.);
#329 = EDGE_CURVE('',#330,#321,#332,.T.);
#330 = VERTEX_POINT('',#331);
#331 = CARTESIAN_POINT('',(-34.98,11.,-5.474512800115E-14));
#332 = CIRCLE('',#333,11.);
#333 = AXIS2_PLACEMENT_3D('',#334,#335,#336);
#334 = CARTESIAN_POINT('',(-34.98,0.,0.));
#335 = DIRECTION('',(1.,0.,0.));
#336 = DIRECTION('',(-0.,0.,1.));
#337 = ORIENTED_EDGE('',*,*,#338,.T.);
#338 = EDGE_CURVE('',#330,#339,#341,.T.);
#339 = VERTEX_POINT('',#340);
#340 = CARTESIAN_POINT('',(-34.98,19.,0.));
#341 = LINE('',#342,#343);
#342 = CARTESIAN_POINT('',(-34.98,-19.,0.));
#343 = VECTOR('',#344,1.);
#344 = DIRECTION('',(-0.,1.,0.));
#345 = ORIENTED_EDGE('',*,*,#346,.F.);
#346 = EDGE_CURVE('',#347,#339,#349,.T.);
#347 = VERTEX_POINT('',#348);
#348 = CARTESIAN_POINT('',(-34.98,19.,-17.4));
#349 = LINE('',#350,#351);
#350 = CARTESIAN_POINT('',(-34.98,19.,-17.4));
#351 = VECTOR('',#352,1.);
#352 = DIRECTION('',(0.,0.,1.));
#353 = ORIENTED_EDGE('',*,*,#354,.F.);
#354 = EDGE_CURVE('',#288,#347,#355,.T.);
#355 = LINE('',#356,#357);
#356 = CARTESIAN_POINT('',(-34.98,-19.,-17.4));
#357 = VECTOR('',#358,1.);
#358 = DIRECTION('',(-0.,1.,0.));
#359 = FACE_BOUND('',#360,.T.);
#360 = EDGE_LOOP('',(#361,#372,#381));
#361 = ORIENTED_EDGE('',*,*,#362,.F.);
#362 = EDGE_CURVE('',#363,#365,#367,.T.);
#363 = VERTEX_POINT('',#364);
#364 = CARTESIAN_POINT('',(-34.98,5.878304635907E-16,-2.4));
#365 = VERTEX_POINT('',#366);
#366 = CARTESIAN_POINT('',(-34.98,-2.4,0.));
#367 = CIRCLE('',#368,2.4);
#368 = AXIS2_PLACEMENT_3D('',#369,#370,#371);
#369 = CARTESIAN_POINT('',(-34.98,0.,0.));
#370 = DIRECTION('',(-1.,0.,0.));
#371 = DIRECTION('',(0.,0.,-1.));
#372 = ORIENTED_EDGE('',*,*,#373,.F.);
#373 = EDGE_CURVE('',#374,#363,#376,.T.);
#374 = VERTEX_POINT('',#375);
#375 = CARTESIAN_POINT('',(-34.98,2.4,0.));
#376 = CIRCLE('',#377,2.4);
#377 = AXIS2_PLACEMENT_3D('',#378,#379,#380);
#378 = CARTESIAN_POINT('',(-34.98,0.,0.));
#379 = DIRECTION('',(-1.,0.,0.));
#380 = DIRECTION('',(0.,0.,-1.));
#381 = ORIENTED_EDGE('',*,*,#382,.F.);
#382 = EDGE_CURVE('',#365,#374,#383,.T.);
#383 = CIRCLE('',#384,2.4);
#384 = AXIS2_PLACEMENT_3D('',#385,#386,#387);
#385 = CARTESIAN_POINT('',(-34.98,0.,0.));
#386 = DIRECTION('',(-1.,0.,0.));
#387 = DIRECTION('',(0.,0.,-1.));
#388 = PLANE('',#389);
#389 = AXIS2_PLACEMENT_3D('',#390,#391,#392);
#390 = CARTESIAN_POINT('',(-34.98,-1.155691222284E-16,-5.938366296967));
#391 = DIRECTION('',(-1.,-0.,-0.));
#392 = DIRECTION('',(0.,0.,-1.));
#393 = ADVANCED_FACE('',(#394),#419,.T.);
#394 = FACE_BOUND('',#395,.T.);
#395 = EDGE_LOOP('',(#396,#397,#405,#413));
#396 = ORIENTED_EDGE('',*,*,#338,.F.);
#397 = ORIENTED_EDGE('',*,*,#398,.T.);
#398 = EDGE_CURVE('',#330,#399,#401,.T.);
#399 = VERTEX_POINT('',#400);
#400 = CARTESIAN_POINT('',(-30.98,11.,-5.474512800115E-14));
#401 = LINE('',#402,#403);
#402 = CARTESIAN_POINT('',(-34.98,11.,0.));
#403 = VECTOR('',#404,1.);
#404 = DIRECTION('',(1.,0.,0.));
#405 = ORIENTED_EDGE('',*,*,#406,.T.);
#406 = EDGE_CURVE('',#399,#407,#409,.T.);
#407 = VERTEX_POINT('',#408);
#408 = CARTESIAN_POINT('',(-30.98,19.,0.));
#409 = LINE('',#410,#411);
#410 = CARTESIAN_POINT('',(-30.98,-19.,0.));
#411 = VECTOR('',#412,1.);
#412 = DIRECTION('',(-0.,1.,0.));
#413 = ORIENTED_EDGE('',*,*,#414,.F.);
#414 = EDGE_CURVE('',#339,#407,#415,.T.);
#415 = LINE('',#416,#417);
#416 = CARTESIAN_POINT('',(-34.98,19.,0.));
#417 = VECTOR('',#418,1.);
#418 = DIRECTION('',(1.,0.,-0.));
#419 = PLANE('',#420);
#420 = AXIS2_PLACEMENT_3D('',#421,#422,#423);
#421 = CARTESIAN_POINT('',(-34.98,-19.,0.));
#422 = DIRECTION('',(0.,0.,1.));
#423 = DIRECTION('',(1.,0.,-0.));
#424 = ADVANCED_FACE('',(#425),#443,.T.);
#425 = FACE_BOUND('',#426,.T.);
#426 = EDGE_LOOP('',(#427,#435,#436,#437));
#427 = ORIENTED_EDGE('',*,*,#428,.F.);
#428 = EDGE_CURVE('',#347,#429,#431,.T.);
#429 = VERTEX_POINT('',#430);
#430 = CARTESIAN_POINT('',(-30.98,19.,-17.4));
#431 = LINE('',#432,#433);
#432 = CARTESIAN_POINT('',(-34.98,19.,-17.4));
#433 = VECTOR('',#434,1.);
#434 = DIRECTION('',(1.,0.,-0.));
#435 = ORIENTED_EDGE('',*,*,#346,.T.);
#436 = ORIENTED_EDGE('',*,*,#414,.T.);
#437 = ORIENTED_EDGE('',*,*,#438,.F.);
#438 = EDGE_CURVE('',#429,#407,#439,.T.);
#439 = LINE('',#440,#441);
#440 = CARTESIAN_POINT('',(-30.98,19.,-17.4));
#441 = VECTOR('',#442,1.);
#442 = DIRECTION('',(0.,0.,1.));
#443 = PLANE('',#444);
#444 = AXIS2_PLACEMENT_3D('',#445,#446,#447);
#445 = CARTESIAN_POINT('',(-34.98,19.,-17.4));
#446 = DIRECTION('',(-0.,1.,0.));
#447 = DIRECTION('',(0.,0.,1.));
#448 = ADVANCED_FACE('',(#449),#470,.T.);
#449 = FACE_BOUND('',#450,.T.);
#450 = EDGE_LOOP('',(#451,#459,#466,#467,#468,#469));
#451 = ORIENTED_EDGE('',*,*,#452,.T.);
#452 = EDGE_CURVE('',#363,#453,#455,.T.);
#453 = VERTEX_POINT('',#454);
#454 = CARTESIAN_POINT('',(-38.48,5.878304635907E-16,-2.4));
#455 = LINE('',#456,#457);
#456 = CARTESIAN_POINT('',(-34.48,5.878304635907E-16,-2.4));
#457 = VECTOR('',#458,1.);
#458 = DIRECTION('',(-1.,0.,0.));
#459 = ORIENTED_EDGE('',*,*,#460,.F.);
#460 = EDGE_CURVE('',#453,#453,#461,.T.);
#461 = CIRCLE('',#462,2.4);
#462 = AXIS2_PLACEMENT_3D('',#463,#464,#465);
#463 = CARTESIAN_POINT('',(-38.48,0.,0.));
#464 = DIRECTION('',(-1.,0.,0.));
#465 = DIRECTION('',(0.,0.,-1.));
#466 = ORIENTED_EDGE('',*,*,#452,.F.);
#467 = ORIENTED_EDGE('',*,*,#362,.T.);
#468 = ORIENTED_EDGE('',*,*,#382,.T.);
#469 = ORIENTED_EDGE('',*,*,#373,.T.);
#470 = CYLINDRICAL_SURFACE('',#471,2.4);
#471 = AXIS2_PLACEMENT_3D('',#472,#473,#474);
#472 = CARTESIAN_POINT('',(-34.48,0.,0.));
#473 = DIRECTION('',(-1.,0.,0.));
#474 = DIRECTION('',(0.,0.,-1.));
#475 = ADVANCED_FACE('',(#476,#479),#490,.T.);
#476 = FACE_BOUND('',#477,.T.);
#477 = EDGE_LOOP('',(#478));
#478 = ORIENTED_EDGE('',*,*,#460,.T.);
#479 = FACE_BOUND('',#480,.T.);
#480 = EDGE_LOOP('',(#481));
#481 = ORIENTED_EDGE('',*,*,#482,.F.);
#482 = EDGE_CURVE('',#483,#483,#485,.T.);
#483 = VERTEX_POINT('',#484);
#484 = CARTESIAN_POINT('',(-38.48,3.429011037613E-16,-1.4));
#485 = CIRCLE('',#486,1.4);
#486 = AXIS2_PLACEMENT_3D('',#487,#488,#489);
#487 = CARTESIAN_POINT('',(-38.48,0.,0.));
#488 = DIRECTION('',(-1.,0.,0.));
#489 = DIRECTION('',(0.,0.,-1.));
#490 = PLANE('',#491);
#491 = AXIS2_PLACEMENT_3D('',#492,#493,#494);
#492 = CARTESIAN_POINT('',(-38.48,0.,0.));
#493 = DIRECTION('',(-1.,0.,0.));
#494 = DIRECTION('',(0.,0.,-1.));
#495 = ADVANCED_FACE('',(#496),#515,.F.);
#496 = FACE_BOUND('',#497,.F.);
#497 = EDGE_LOOP('',(#498,#499,#507,#514));
#498 = ORIENTED_EDGE('',*,*,#482,.F.);
#499 = ORIENTED_EDGE('',*,*,#500,.F.);
#500 = EDGE_CURVE('',#501,#483,#503,.T.);
#501 = VERTEX_POINT('',#502);
#502 = CARTESIAN_POINT('',(-31.48,3.429011037613E-16,-1.4));
#503 = LINE('',#504,#505);
#504 = CARTESIAN_POINT('',(-31.48,3.429011037613E-16,-1.4));
#505 = VECTOR('',#506,1.);
#506 = DIRECTION('',(-1.,0.,0.));
#507 = ORIENTED_EDGE('',*,*,#508,.T.);
#508 = EDGE_CURVE('',#501,#501,#509,.T.);
#509 = CIRCLE('',#510,1.4);
#510 = AXIS2_PLACEMENT_3D('',#511,#512,#513);
#511 = CARTESIAN_POINT('',(-31.48,0.,0.));
#512 = DIRECTION('',(-1.,0.,0.));
#513 = DIRECTION('',(0.,0.,-1.));
#514 = ORIENTED_EDGE('',*,*,#500,.T.);
#515 = CYLINDRICAL_SURFACE('',#516,1.4);
#516 = AXIS2_PLACEMENT_3D('',#517,#518,#519);
#517 = CARTESIAN_POINT('',(-31.48,0.,0.));
#518 = DIRECTION('',(-1.,0.,0.));
#519 = DIRECTION('',(0.,0.,-1.));
#520 = ADVANCED_FACE('',(#521),#524,.T.);
#521 = FACE_BOUND('',#522,.F.);
#522 = EDGE_LOOP('',(#523));
#523 = ORIENTED_EDGE('',*,*,#508,.F.);
#524 = PLANE('',#525);
#525 = AXIS2_PLACEMENT_3D('',#526,#527,#528);
#526 = CARTESIAN_POINT('',(-31.48,0.,0.));
#527 = DIRECTION('',(-1.,0.,0.));
#528 = DIRECTION('',(0.,0.,-1.));
#529 = ADVANCED_FACE('',(#530,#605,#616,#627,#638),#649,.T.);
#530 = FACE_BOUND('',#531,.T.);
#531 = EDGE_LOOP('',(#532,#533,#534,#542,#550,#558,#566,#574,#582,#590,
    #598,#604));
#532 = ORIENTED_EDGE('',*,*,#354,.T.);
#533 = ORIENTED_EDGE('',*,*,#428,.T.);
#534 = ORIENTED_EDGE('',*,*,#535,.F.);
#535 = EDGE_CURVE('',#536,#429,#538,.T.);
#536 = VERTEX_POINT('',#537);
#537 = CARTESIAN_POINT('',(-30.98,15.24,-17.4));
#538 = LINE('',#539,#540);
#539 = CARTESIAN_POINT('',(-30.98,-19.,-17.4));
#540 = VECTOR('',#541,1.);
#541 = DIRECTION('',(-0.,1.,0.));
#542 = ORIENTED_EDGE('',*,*,#543,.T.);
#543 = EDGE_CURVE('',#536,#544,#546,.T.);
#544 = VERTEX_POINT('',#545);
#545 = CARTESIAN_POINT('',(30.98,15.24,-17.4));
#546 = LINE('',#547,#548);
#547 = CARTESIAN_POINT('',(-34.98,15.24,-17.4));
#548 = VECTOR('',#549,1.);
#549 = DIRECTION('',(1.,0.,-0.));
#550 = ORIENTED_EDGE('',*,*,#551,.T.);
#551 = EDGE_CURVE('',#544,#552,#554,.T.);
#552 = VERTEX_POINT('',#553);
#553 = CARTESIAN_POINT('',(30.98,19.,-17.4));
#554 = LINE('',#555,#556);
#555 = CARTESIAN_POINT('',(30.98,-19.,-17.4));
#556 = VECTOR('',#557,1.);
#557 = DIRECTION('',(-0.,1.,0.));
#558 = ORIENTED_EDGE('',*,*,#559,.T.);
#559 = EDGE_CURVE('',#552,#560,#562,.T.);
#560 = VERTEX_POINT('',#561);
#561 = CARTESIAN_POINT('',(34.98,19.,-17.4));
#562 = LINE('',#563,#564);
#563 = CARTESIAN_POINT('',(30.98,19.,-17.4));
#564 = VECTOR('',#565,1.);
#565 = DIRECTION('',(1.,0.,-0.));
#566 = ORIENTED_EDGE('',*,*,#567,.F.);
#567 = EDGE_CURVE('',#568,#560,#570,.T.);
#568 = VERTEX_POINT('',#569);
#569 = CARTESIAN_POINT('',(34.98,-19.,-17.4));
#570 = LINE('',#571,#572);
#571 = CARTESIAN_POINT('',(34.98,-19.,-17.4));
#572 = VECTOR('',#573,1.);
#573 = DIRECTION('',(-0.,1.,0.));
#574 = ORIENTED_EDGE('',*,*,#575,.F.);
#575 = EDGE_CURVE('',#576,#568,#578,.T.);
#576 = VERTEX_POINT('',#577);
#577 = CARTESIAN_POINT('',(30.98,-19.,-17.4));
#578 = LINE('',#579,#580);
#579 = CARTESIAN_POINT('',(30.98,-19.,-17.4));
#580 = VECTOR('',#581,1.);
#581 = DIRECTION('',(1.,0.,-0.));
#582 = ORIENTED_EDGE('',*,*,#583,.T.);
#583 = EDGE_CURVE('',#576,#584,#586,.T.);
#584 = VERTEX_POINT('',#585);
#585 = CARTESIAN_POINT('',(30.98,-15.24,-17.4));
#586 = LINE('',#587,#588);
#587 = CARTESIAN_POINT('',(30.98,-19.,-17.4));
#588 = VECTOR('',#589,1.);
#589 = DIRECTION('',(-0.,1.,0.));
#590 = ORIENTED_EDGE('',*,*,#591,.F.);
#591 = EDGE_CURVE('',#592,#584,#594,.T.);
#592 = VERTEX_POINT('',#593);
#593 = CARTESIAN_POINT('',(-30.98,-15.24,-17.4));
#594 = LINE('',#595,#596);
#595 = CARTESIAN_POINT('',(-34.98,-15.24,-17.4));
#596 = VECTOR('',#597,1.);
#597 = DIRECTION('',(1.,0.,-0.));
#598 = ORIENTED_EDGE('',*,*,#599,.F.);
#599 = EDGE_CURVE('',#290,#592,#600,.T.);
#600 = LINE('',#601,#602);
#601 = CARTESIAN_POINT('',(-30.98,-19.,-17.4));
#602 = VECTOR('',#603,1.);
#603 = DIRECTION('',(-0.,1.,0.));
#604 = ORIENTED_EDGE('',*,*,#287,.F.);
#605 = FACE_BOUND('',#606,.T.);
#606 = EDGE_LOOP('',(#607));
#607 = ORIENTED_EDGE('',*,*,#608,.T.);
#608 = EDGE_CURVE('',#609,#609,#611,.T.);
#609 = VERTEX_POINT('',#610);
#610 = CARTESIAN_POINT('',(-6.52,-7.62,-17.4));
#611 = CIRCLE('',#612,1.1);
#612 = AXIS2_PLACEMENT_3D('',#613,#614,#615);
#613 = CARTESIAN_POINT('',(-7.62,-7.62,-17.4));
#614 = DIRECTION('',(0.,0.,1.));
#615 = DIRECTION('',(1.,0.,-0.));
#616 = FACE_BOUND('',#617,.T.);
#617 = EDGE_LOOP('',(#618));
#618 = ORIENTED_EDGE('',*,*,#619,.T.);
#619 = EDGE_CURVE('',#620,#620,#622,.T.);
#620 = VERTEX_POINT('',#621);
#621 = CARTESIAN_POINT('',(8.72,-7.62,-17.4));
#622 = CIRCLE('',#623,1.1);
#623 = AXIS2_PLACEMENT_3D('',#624,#625,#626);
#624 = CARTESIAN_POINT('',(7.62,-7.62,-17.4));
#625 = DIRECTION('',(0.,0.,1.));
#626 = DIRECTION('',(1.,0.,-0.));
#627 = FACE_BOUND('',#628,.T.);
#628 = EDGE_LOOP('',(#629));
#629 = ORIENTED_EDGE('',*,*,#630,.T.);
#630 = EDGE_CURVE('',#631,#631,#633,.T.);
#631 = VERTEX_POINT('',#632);
#632 = CARTESIAN_POINT('',(-6.52,7.62,-17.4));
#633 = CIRCLE('',#634,1.1);
#634 = AXIS2_PLACEMENT_3D('',#635,#636,#637);
#635 = CARTESIAN_POINT('',(-7.62,7.62,-17.4));
#636 = DIRECTION('',(0.,0.,1.));
#637 = DIRECTION('',(1.,0.,-0.));
#638 = FACE_BOUND('',#639,.T.);
#639 = EDGE_LOOP('',(#640));
#640 = ORIENTED_EDGE('',*,*,#641,.T.);
#641 = EDGE_CURVE('',#642,#642,#644,.T.);
#642 = VERTEX_POINT('',#643);
#643 = CARTESIAN_POINT('',(8.72,7.62,-17.4));
#644 = CIRCLE('',#645,1.1);
#645 = AXIS2_PLACEMENT_3D('',#646,#647,#648);
#646 = CARTESIAN_POINT('',(7.62,7.62,-17.4));
#647 = DIRECTION('',(0.,0.,1.));
#648 = DIRECTION('',(1.,0.,-0.));
#649 = PLANE('',#650);
#650 = AXIS2_PLACEMENT_3D('',#651,#652,#653);
#651 = CARTESIAN_POINT('',(1.353649132899E-15,-7.845012020212E-16,-17.4)
  );
#652 = DIRECTION('',(-0.,-0.,-1.));
#653 = DIRECTION('',(-1.,0.,0.));
#654 = ADVANCED_FACE('',(#655),#680,.F.);
#655 = FACE_BOUND('',#656,.F.);
#656 = EDGE_LOOP('',(#657,#658,#666,#674));
#657 = ORIENTED_EDGE('',*,*,#591,.F.);
#658 = ORIENTED_EDGE('',*,*,#659,.F.);
#659 = EDGE_CURVE('',#660,#592,#662,.T.);
#660 = VERTEX_POINT('',#661);
#661 = CARTESIAN_POINT('',(-30.98,-15.24,-14.4));
#662 = LINE('',#663,#664);
#663 = CARTESIAN_POINT('',(-30.98,-15.24,-17.4));
#664 = VECTOR('',#665,1.);
#665 = DIRECTION('',(-0.,0.,-1.));
#666 = ORIENTED_EDGE('',*,*,#667,.T.);
#667 = EDGE_CURVE('',#660,#668,#670,.T.);
#668 = VERTEX_POINT('',#669);
#669 = CARTESIAN_POINT('',(30.98,-15.24,-14.4));
#670 = LINE('',#671,#672);
#671 = CARTESIAN_POINT('',(-34.98,-15.24,-14.4));
#672 = VECTOR('',#673,1.);
#673 = DIRECTION('',(1.,0.,-0.));
#674 = ORIENTED_EDGE('',*,*,#675,.T.);
#675 = EDGE_CURVE('',#668,#584,#676,.T.);
#676 = LINE('',#677,#678);
#677 = CARTESIAN_POINT('',(30.98,-15.24,-17.4));
#678 = VECTOR('',#679,1.);
#679 = DIRECTION('',(-0.,0.,-1.));
#680 = PLANE('',#681);
#681 = AXIS2_PLACEMENT_3D('',#682,#683,#684);
#682 = CARTESIAN_POINT('',(-34.98,-15.24,-17.4));
#683 = DIRECTION('',(-0.,1.,0.));
#684 = DIRECTION('',(0.,0.,1.));
#685 = ADVANCED_FACE('',(#686,#711,#722,#733,#744),#755,.T.);
#686 = FACE_BOUND('',#687,.T.);
#687 = EDGE_LOOP('',(#688,#696,#697,#705));
#688 = ORIENTED_EDGE('',*,*,#689,.F.);
#689 = EDGE_CURVE('',#660,#690,#692,.T.);
#690 = VERTEX_POINT('',#691);
#691 = CARTESIAN_POINT('',(-30.98,15.24,-14.4));
#692 = LINE('',#693,#694);
#693 = CARTESIAN_POINT('',(-30.98,-17.12,-14.4));
#694 = VECTOR('',#695,1.);
#695 = DIRECTION('',(-0.,1.,0.));
#696 = ORIENTED_EDGE('',*,*,#667,.T.);
#697 = ORIENTED_EDGE('',*,*,#698,.T.);
#698 = EDGE_CURVE('',#668,#699,#701,.T.);
#699 = VERTEX_POINT('',#700);
#700 = CARTESIAN_POINT('',(30.98,15.24,-14.4));
#701 = LINE('',#702,#703);
#702 = CARTESIAN_POINT('',(30.98,-17.12,-14.4));
#703 = VECTOR('',#704,1.);
#704 = DIRECTION('',(-0.,1.,0.));
#705 = ORIENTED_EDGE('',*,*,#706,.F.);
#706 = EDGE_CURVE('',#690,#699,#707,.T.);
#707 = LINE('',#708,#709);
#708 = CARTESIAN_POINT('',(-34.98,15.24,-14.4));
#709 = VECTOR('',#710,1.);
#710 = DIRECTION('',(1.,0.,-0.));
#711 = FACE_BOUND('',#712,.T.);
#712 = EDGE_LOOP('',(#713));
#713 = ORIENTED_EDGE('',*,*,#714,.F.);
#714 = EDGE_CURVE('',#715,#715,#717,.T.);
#715 = VERTEX_POINT('',#716);
#716 = CARTESIAN_POINT('',(-6.52,-7.62,-14.4));
#717 = CIRCLE('',#718,1.1);
#718 = AXIS2_PLACEMENT_3D('',#719,#720,#721);
#719 = CARTESIAN_POINT('',(-7.62,-7.62,-14.4));
#720 = DIRECTION('',(0.,0.,1.));
#721 = DIRECTION('',(1.,0.,-0.));
#722 = FACE_BOUND('',#723,.T.);
#723 = EDGE_LOOP('',(#724));
#724 = ORIENTED_EDGE('',*,*,#725,.F.);
#725 = EDGE_CURVE('',#726,#726,#728,.T.);
#726 = VERTEX_POINT('',#727);
#727 = CARTESIAN_POINT('',(8.72,-7.62,-14.4));
#728 = CIRCLE('',#729,1.1);
#729 = AXIS2_PLACEMENT_3D('',#730,#731,#732);
#730 = CARTESIAN_POINT('',(7.62,-7.62,-14.4));
#731 = DIRECTION('',(0.,0.,1.));
#732 = DIRECTION('',(1.,0.,-0.));
#733 = FACE_BOUND('',#734,.T.);
#734 = EDGE_LOOP('',(#735));
#735 = ORIENTED_EDGE('',*,*,#736,.F.);
#736 = EDGE_CURVE('',#737,#737,#739,.T.);
#737 = VERTEX_POINT('',#738);
#738 = CARTESIAN_POINT('',(-6.52,7.62,-14.4));
#739 = CIRCLE('',#740,1.1);
#740 = AXIS2_PLACEMENT_3D('',#741,#742,#743);
#741 = CARTESIAN_POINT('',(-7.62,7.62,-14.4));
#742 = DIRECTION('',(0.,0.,1.));
#743 = DIRECTION('',(1.,0.,-0.));
#744 = FACE_BOUND('',#745,.T.);
#745 = EDGE_LOOP('',(#746));
#746 = ORIENTED_EDGE('',*,*,#747,.F.);
#747 = EDGE_CURVE('',#748,#748,#750,.T.);
#748 = VERTEX_POINT('',#749);
#749 = CARTESIAN_POINT('',(8.72,7.62,-14.4));
#750 = CIRCLE('',#751,1.1);
#751 = AXIS2_PLACEMENT_3D('',#752,#753,#754);
#752 = CARTESIAN_POINT('',(7.62,7.62,-14.4));
#753 = DIRECTION('',(0.,0.,1.));
#754 = DIRECTION('',(1.,0.,-0.));
#755 = PLANE('',#756);
#756 = AXIS2_PLACEMENT_3D('',#757,#758,#759);
#757 = CARTESIAN_POINT('',(-34.98,-15.24,-14.4));
#758 = DIRECTION('',(0.,0.,1.));
#759 = DIRECTION('',(1.,0.,-0.));
#760 = ADVANCED_FACE('',(#761),#777,.T.);
#761 = FACE_BOUND('',#762,.T.);
#762 = EDGE_LOOP('',(#763,#764,#770,#771));
#763 = ORIENTED_EDGE('',*,*,#543,.F.);
#764 = ORIENTED_EDGE('',*,*,#765,.F.);
#765 = EDGE_CURVE('',#690,#536,#766,.T.);
#766 = LINE('',#767,#768);
#767 = CARTESIAN_POINT('',(-30.98,15.24,-17.4));
#768 = VECTOR('',#769,1.);
#769 = DIRECTION('',(-0.,0.,-1.));
#770 = ORIENTED_EDGE('',*,*,#706,.T.);
#771 = ORIENTED_EDGE('',*,*,#772,.T.);
#772 = EDGE_CURVE('',#699,#544,#773,.T.);
#773 = LINE('',#774,#775);
#774 = CARTESIAN_POINT('',(30.98,15.24,-17.4));
#775 = VECTOR('',#776,1.);
#776 = DIRECTION('',(-0.,0.,-1.));
#777 = PLANE('',#778);
#778 = AXIS2_PLACEMENT_3D('',#779,#780,#781);
#779 = CARTESIAN_POINT('',(-34.98,15.24,-17.4));
#780 = DIRECTION('',(-0.,1.,0.));
#781 = DIRECTION('',(0.,0.,1.));
#782 = ADVANCED_FACE('',(#783),#794,.F.);
#783 = FACE_BOUND('',#784,.F.);
#784 = EDGE_LOOP('',(#785,#786,#792,#793));
#785 = ORIENTED_EDGE('',*,*,#714,.F.);
#786 = ORIENTED_EDGE('',*,*,#787,.F.);
#787 = EDGE_CURVE('',#609,#715,#788,.T.);
#788 = LINE('',#789,#790);
#789 = CARTESIAN_POINT('',(-6.52,-7.62,-17.9));
#790 = VECTOR('',#791,1.);
#791 = DIRECTION('',(0.,0.,1.));
#792 = ORIENTED_EDGE('',*,*,#608,.T.);
#793 = ORIENTED_EDGE('',*,*,#787,.T.);
#794 = CYLINDRICAL_SURFACE('',#795,1.1);
#795 = AXIS2_PLACEMENT_3D('',#796,#797,#798);
#796 = CARTESIAN_POINT('',(-7.62,-7.62,-17.9));
#797 = DIRECTION('',(0.,0.,1.));
#798 = DIRECTION('',(1.,0.,-0.));
#799 = ADVANCED_FACE('',(#800),#811,.F.);
#800 = FACE_BOUND('',#801,.F.);
#801 = EDGE_LOOP('',(#802,#803,#809,#810));
#802 = ORIENTED_EDGE('',*,*,#725,.F.);
#803 = ORIENTED_EDGE('',*,*,#804,.F.);
#804 = EDGE_CURVE('',#620,#726,#805,.T.);
#805 = LINE('',#806,#807);
#806 = CARTESIAN_POINT('',(8.72,-7.62,-17.9));
#807 = VECTOR('',#808,1.);
#808 = DIRECTION('',(0.,0.,1.));
#809 = ORIENTED_EDGE('',*,*,#619,.T.);
#810 = ORIENTED_EDGE('',*,*,#804,.T.);
#811 = CYLINDRICAL_SURFACE('',#812,1.1);
#812 = AXIS2_PLACEMENT_3D('',#813,#814,#815);
#813 = CARTESIAN_POINT('',(7.62,-7.62,-17.9));
#814 = DIRECTION('',(0.,0.,1.));
#815 = DIRECTION('',(1.,0.,-0.));
#816 = ADVANCED_FACE('',(#817),#828,.F.);
#817 = FACE_BOUND('',#818,.F.);
#818 = EDGE_LOOP('',(#819,#820,#826,#827));
#819 = ORIENTED_EDGE('',*,*,#736,.F.);
#820 = ORIENTED_EDGE('',*,*,#821,.F.);
#821 = EDGE_CURVE('',#631,#737,#822,.T.);
#822 = LINE('',#823,#824);
#823 = CARTESIAN_POINT('',(-6.52,7.62,-17.9));
#824 = VECTOR('',#825,1.);
#825 = DIRECTION('',(0.,0.,1.));
#826 = ORIENTED_EDGE('',*,*,#630,.T.);
#827 = ORIENTED_EDGE('',*,*,#821,.T.);
#828 = CYLINDRICAL_SURFACE('',#829,1.1);
#829 = AXIS2_PLACEMENT_3D('',#830,#831,#832);
#830 = CARTESIAN_POINT('',(-7.62,7.62,-17.9));
#831 = DIRECTION('',(0.,0.,1.));
#832 = DIRECTION('',(1.,0.,-0.));
#833 = ADVANCED_FACE('',(#834),#845,.F.);
#834 = FACE_BOUND('',#835,.F.);
#835 = EDGE_LOOP('',(#836,#837,#843,#844));
#836 = ORIENTED_EDGE('',*,*,#747,.F.);
#837 = ORIENTED_EDGE('',*,*,#838,.F.);
#838 = EDGE_CURVE('',#642,#748,#839,.T.);
#839 = LINE('',#840,#841);
#840 = CARTESIAN_POINT('',(8.72,7.62,-17.9));
#841 = VECTOR('',#842,1.);
#842 = DIRECTION('',(0.,0.,1.));
#843 = ORIENTED_EDGE('',*,*,#641,.T.);
#844 = ORIENTED_EDGE('',*,*,#838,.T.);
#845 = CYLINDRICAL_SURFACE('',#846,1.1);
#846 = AXIS2_PLACEMENT_3D('',#847,#848,#849);
#847 = CARTESIAN_POINT('',(7.62,7.62,-17.9));
#848 = DIRECTION('',(0.,0.,1.));
#849 = DIRECTION('',(1.,0.,-0.));
#850 = ADVANCED_FACE('',(#851),#892,.T.);
#851 = FACE_BOUND('',#852,.T.);
#852 = EDGE_LOOP('',(#853,#863,#871,#879,#885,#886));
#853 = ORIENTED_EDGE('',*,*,#854,.F.);
#854 = EDGE_CURVE('',#855,#857,#859,.T.);
#855 = VERTEX_POINT('',#856);
#856 = CARTESIAN_POINT('',(30.98,-19.,0.));
#857 = VERTEX_POINT('',#858);
#858 = CARTESIAN_POINT('',(30.98,-11.,-5.461926184918E-14));
#859 = LINE('',#860,#861);
#860 = CARTESIAN_POINT('',(30.98,-19.,0.));
#861 = VECTOR('',#862,1.);
#862 = DIRECTION('',(-0.,1.,0.));
#863 = ORIENTED_EDGE('',*,*,#864,.T.);
#864 = EDGE_CURVE('',#855,#865,#867,.T.);
#865 = VERTEX_POINT('',#866);
#866 = CARTESIAN_POINT('',(34.98,-19.,0.));
#867 = LINE('',#868,#869);
#868 = CARTESIAN_POINT('',(30.98,-19.,0.));
#869 = VECTOR('',#870,1.);
#870 = DIRECTION('',(1.,0.,-0.));
#871 = ORIENTED_EDGE('',*,*,#872,.T.);
#872 = EDGE_CURVE('',#865,#873,#875,.T.);
#873 = VERTEX_POINT('',#874);
#874 = CARTESIAN_POINT('',(34.98,-18.,0.));
#875 = LINE('',#876,#877);
#876 = CARTESIAN_POINT('',(34.98,-19.,0.));
#877 = VECTOR('',#878,1.);
#878 = DIRECTION('',(-0.,1.,0.));
#879 = ORIENTED_EDGE('',*,*,#880,.T.);
#880 = EDGE_CURVE('',#873,#163,#881,.T.);
#881 = LINE('',#882,#883);
#882 = CARTESIAN_POINT('',(31.98,-18.,0.));
#883 = VECTOR('',#884,1.);
#884 = DIRECTION('',(-1.,0.,0.));
#885 = ORIENTED_EDGE('',*,*,#162,.T.);
#886 = ORIENTED_EDGE('',*,*,#887,.F.);
#887 = EDGE_CURVE('',#857,#154,#888,.T.);
#888 = LINE('',#889,#890);
#889 = CARTESIAN_POINT('',(30.98,-11.,0.));
#890 = VECTOR('',#891,1.);
#891 = DIRECTION('',(1.,0.,0.));
#892 = PLANE('',#893);
#893 = AXIS2_PLACEMENT_3D('',#894,#895,#896);
#894 = CARTESIAN_POINT('',(30.98,-19.,0.));
#895 = DIRECTION('',(0.,0.,1.));
#896 = DIRECTION('',(1.,0.,-0.));
#897 = ADVANCED_FACE('',(#898),#914,.F.);
#898 = FACE_BOUND('',#899,.F.);
#899 = EDGE_LOOP('',(#900,#901,#907,#908));
#900 = ORIENTED_EDGE('',*,*,#575,.F.);
#901 = ORIENTED_EDGE('',*,*,#902,.T.);
#902 = EDGE_CURVE('',#576,#855,#903,.T.);
#903 = LINE('',#904,#905);
#904 = CARTESIAN_POINT('',(30.98,-19.,-17.4));
#905 = VECTOR('',#906,1.);
#906 = DIRECTION('',(0.,0.,1.));
#907 = ORIENTED_EDGE('',*,*,#864,.T.);
#908 = ORIENTED_EDGE('',*,*,#909,.F.);
#909 = EDGE_CURVE('',#568,#865,#910,.T.);
#910 = LINE('',#911,#912);
#911 = CARTESIAN_POINT('',(34.98,-19.,-17.4));
#912 = VECTOR('',#913,1.);
#913 = DIRECTION('',(0.,0.,1.));
#914 = PLANE('',#915);
#915 = AXIS2_PLACEMENT_3D('',#916,#917,#918);
#916 = CARTESIAN_POINT('',(30.98,-19.,-17.4));
#917 = DIRECTION('',(-0.,1.,0.));
#918 = DIRECTION('',(0.,0.,1.));
#919 = ADVANCED_FACE('',(#920),#938,.T.);
#920 = FACE_BOUND('',#921,.T.);
#921 = EDGE_LOOP('',(#922,#930,#931,#932));
#922 = ORIENTED_EDGE('',*,*,#923,.F.);
#923 = EDGE_CURVE('',#171,#924,#926,.T.);
#924 = VERTEX_POINT('',#925);
#925 = CARTESIAN_POINT('',(34.98,-18.,-3.5));
#926 = LINE('',#927,#928);
#927 = CARTESIAN_POINT('',(32.98,-18.,-3.5));
#928 = VECTOR('',#929,1.);
#929 = DIRECTION('',(1.,0.,0.));
#930 = ORIENTED_EDGE('',*,*,#170,.T.);
#931 = ORIENTED_EDGE('',*,*,#880,.F.);
#932 = ORIENTED_EDGE('',*,*,#933,.F.);
#933 = EDGE_CURVE('',#924,#873,#934,.T.);
#934 = LINE('',#935,#936);
#935 = CARTESIAN_POINT('',(34.98,-18.,-10.45));
#936 = VECTOR('',#937,1.);
#937 = DIRECTION('',(0.,-0.,1.));
#938 = PLANE('',#939);
#939 = AXIS2_PLACEMENT_3D('',#940,#941,#942);
#940 = CARTESIAN_POINT('',(32.98,-18.,-3.5));
#941 = DIRECTION('',(0.,1.,0.));
#942 = DIRECTION('',(1.,0.,0.));
#943 = ADVANCED_FACE('',(#944),#962,.T.);
#944 = FACE_BOUND('',#945,.T.);
#945 = EDGE_LOOP('',(#946,#947,#948,#956));
#946 = ORIENTED_EDGE('',*,*,#178,.F.);
#947 = ORIENTED_EDGE('',*,*,#923,.T.);
#948 = ORIENTED_EDGE('',*,*,#949,.F.);
#949 = EDGE_CURVE('',#950,#924,#952,.T.);
#950 = VERTEX_POINT('',#951);
#951 = CARTESIAN_POINT('',(34.98,-3.570714214271,-3.5));
#952 = LINE('',#953,#954);
#953 = CARTESIAN_POINT('',(34.98,-18.5,-3.5));
#954 = VECTOR('',#955,1.);
#955 = DIRECTION('',(0.,-1.,0.));
#956 = ORIENTED_EDGE('',*,*,#957,.F.);
#957 = EDGE_CURVE('',#179,#950,#958,.T.);
#958 = LINE('',#959,#960);
#959 = CARTESIAN_POINT('',(32.98,-3.570714214271,-3.5));
#960 = VECTOR('',#961,1.);
#961 = DIRECTION('',(1.,0.,0.));
#962 = PLANE('',#963);
#963 = AXIS2_PLACEMENT_3D('',#964,#965,#966);
#964 = CARTESIAN_POINT('',(32.98,-18.,-3.5));
#965 = DIRECTION('',(0.,0.,1.));
#966 = DIRECTION('',(1.,0.,0.));
#967 = ADVANCED_FACE('',(#968),#987,.F.);
#968 = FACE_BOUND('',#969,.F.);
#969 = EDGE_LOOP('',(#970,#971,#979,#986));
#970 = ORIENTED_EDGE('',*,*,#186,.T.);
#971 = ORIENTED_EDGE('',*,*,#972,.T.);
#972 = EDGE_CURVE('',#187,#973,#975,.T.);
#973 = VERTEX_POINT('',#974);
#974 = CARTESIAN_POINT('',(34.98,3.570714214271,-3.5));
#975 = LINE('',#976,#977);
#976 = CARTESIAN_POINT('',(32.98,3.570714214271,-3.5));
#977 = VECTOR('',#978,1.);
#978 = DIRECTION('',(1.,0.,0.));
#979 = ORIENTED_EDGE('',*,*,#980,.F.);
#980 = EDGE_CURVE('',#950,#973,#981,.T.);
#981 = CIRCLE('',#982,5.);
#982 = AXIS2_PLACEMENT_3D('',#983,#984,#985);
#983 = CARTESIAN_POINT('',(34.98,0.,0.));
#984 = DIRECTION('',(1.,0.,0.));
#985 = DIRECTION('',(-0.,1.,0.));
#986 = ORIENTED_EDGE('',*,*,#957,.F.);
#987 = CYLINDRICAL_SURFACE('',#988,5.);
#988 = AXIS2_PLACEMENT_3D('',#989,#990,#991);
#989 = CARTESIAN_POINT('',(32.98,0.,0.));
#990 = DIRECTION('',(1.,0.,0.));
#991 = DIRECTION('',(0.,1.,0.));
#992 = ADVANCED_FACE('',(#993),#1034,.T.);
#993 = FACE_BOUND('',#994,.T.);
#994 = EDGE_LOOP('',(#995,#1005,#1011,#1012,#1020,#1028));
#995 = ORIENTED_EDGE('',*,*,#996,.F.);
#996 = EDGE_CURVE('',#997,#999,#1001,.T.);
#997 = VERTEX_POINT('',#998);
#998 = CARTESIAN_POINT('',(30.98,11.,-5.474512800115E-14));
#999 = VERTEX_POINT('',#1000);
#1000 = CARTESIAN_POINT('',(30.98,19.,0.));
#1001 = LINE('',#1002,#1003);
#1002 = CARTESIAN_POINT('',(30.98,-19.,0.));
#1003 = VECTOR('',#1004,1.);
#1004 = DIRECTION('',(-0.,1.,0.));
#1005 = ORIENTED_EDGE('',*,*,#1006,.T.);
#1006 = EDGE_CURVE('',#997,#212,#1007,.T.);
#1007 = LINE('',#1008,#1009);
#1008 = CARTESIAN_POINT('',(30.98,11.,0.));
#1009 = VECTOR('',#1010,1.);
#1010 = DIRECTION('',(1.,0.,0.));
#1011 = ORIENTED_EDGE('',*,*,#211,.T.);
#1012 = ORIENTED_EDGE('',*,*,#1013,.F.);
#1013 = EDGE_CURVE('',#1014,#204,#1016,.T.);
#1014 = VERTEX_POINT('',#1015);
#1015 = CARTESIAN_POINT('',(34.98,18.,0.));
#1016 = LINE('',#1017,#1018);
#1017 = CARTESIAN_POINT('',(31.98,18.,0.));
#1018 = VECTOR('',#1019,1.);
#1019 = DIRECTION('',(-1.,0.,0.));
#1020 = ORIENTED_EDGE('',*,*,#1021,.T.);
#1021 = EDGE_CURVE('',#1014,#1022,#1024,.T.);
#1022 = VERTEX_POINT('',#1023);
#1023 = CARTESIAN_POINT('',(34.98,19.,0.));
#1024 = LINE('',#1025,#1026);
#1025 = CARTESIAN_POINT('',(34.98,-19.,0.));
#1026 = VECTOR('',#1027,1.);
#1027 = DIRECTION('',(-0.,1.,0.));
#1028 = ORIENTED_EDGE('',*,*,#1029,.F.);
#1029 = EDGE_CURVE('',#999,#1022,#1030,.T.);
#1030 = LINE('',#1031,#1032);
#1031 = CARTESIAN_POINT('',(30.98,19.,0.));
#1032 = VECTOR('',#1033,1.);
#1033 = DIRECTION('',(1.,0.,-0.));
#1034 = PLANE('',#1035);
#1035 = AXIS2_PLACEMENT_3D('',#1036,#1037,#1038);
#1036 = CARTESIAN_POINT('',(30.98,-19.,0.));
#1037 = DIRECTION('',(0.,0.,1.));
#1038 = DIRECTION('',(1.,0.,-0.));
#1039 = ADVANCED_FACE('',(#1040),#1056,.T.);
#1040 = FACE_BOUND('',#1041,.T.);
#1041 = EDGE_LOOP('',(#1042,#1043,#1049,#1050));
#1042 = ORIENTED_EDGE('',*,*,#559,.F.);
#1043 = ORIENTED_EDGE('',*,*,#1044,.T.);
#1044 = EDGE_CURVE('',#552,#999,#1045,.T.);
#1045 = LINE('',#1046,#1047);
#1046 = CARTESIAN_POINT('',(30.98,19.,-17.4));
#1047 = VECTOR('',#1048,1.);
#1048 = DIRECTION('',(0.,0.,1.));
#1049 = ORIENTED_EDGE('',*,*,#1029,.T.);
#1050 = ORIENTED_EDGE('',*,*,#1051,.F.);
#1051 = EDGE_CURVE('',#560,#1022,#1052,.T.);
#1052 = LINE('',#1053,#1054);
#1053 = CARTESIAN_POINT('',(34.98,19.,-17.4));
#1054 = VECTOR('',#1055,1.);
#1055 = DIRECTION('',(0.,0.,1.));
#1056 = PLANE('',#1057);
#1057 = AXIS2_PLACEMENT_3D('',#1058,#1059,#1060);
#1058 = CARTESIAN_POINT('',(30.98,19.,-17.4));
#1059 = DIRECTION('',(-0.,1.,0.));
#1060 = DIRECTION('',(0.,0.,1.));
#1061 = ADVANCED_FACE('',(#1062),#1080,.F.);
#1062 = FACE_BOUND('',#1063,.F.);
#1063 = EDGE_LOOP('',(#1064,#1072,#1073,#1074));
#1064 = ORIENTED_EDGE('',*,*,#1065,.F.);
#1065 = EDGE_CURVE('',#196,#1066,#1068,.T.);
#1066 = VERTEX_POINT('',#1067);
#1067 = CARTESIAN_POINT('',(34.98,18.,-3.5));
#1068 = LINE('',#1069,#1070);
#1069 = CARTESIAN_POINT('',(32.98,18.,-3.5));
#1070 = VECTOR('',#1071,1.);
#1071 = DIRECTION('',(1.,0.,0.));
#1072 = ORIENTED_EDGE('',*,*,#203,.T.);
#1073 = ORIENTED_EDGE('',*,*,#1013,.F.);
#1074 = ORIENTED_EDGE('',*,*,#1075,.F.);
#1075 = EDGE_CURVE('',#1066,#1014,#1076,.T.);
#1076 = LINE('',#1077,#1078);
#1077 = CARTESIAN_POINT('',(34.98,18.,-10.45));
#1078 = VECTOR('',#1079,1.);
#1079 = DIRECTION('',(0.,-0.,1.));
#1080 = PLANE('',#1081);
#1081 = AXIS2_PLACEMENT_3D('',#1082,#1083,#1084);
#1082 = CARTESIAN_POINT('',(32.98,18.,-3.5));
#1083 = DIRECTION('',(0.,1.,0.));
#1084 = DIRECTION('',(1.,0.,0.));
#1085 = ADVANCED_FACE('',(#1086),#1097,.T.);
#1086 = FACE_BOUND('',#1087,.T.);
#1087 = EDGE_LOOP('',(#1088,#1089,#1090,#1096));
#1088 = ORIENTED_EDGE('',*,*,#195,.F.);
#1089 = ORIENTED_EDGE('',*,*,#972,.T.);
#1090 = ORIENTED_EDGE('',*,*,#1091,.F.);
#1091 = EDGE_CURVE('',#1066,#973,#1092,.T.);
#1092 = LINE('',#1093,#1094);
#1093 = CARTESIAN_POINT('',(34.98,-18.5,-3.5));
#1094 = VECTOR('',#1095,1.);
#1095 = DIRECTION('',(0.,-1.,0.));
#1096 = ORIENTED_EDGE('',*,*,#1065,.F.);
#1097 = PLANE('',#1098);
#1098 = AXIS2_PLACEMENT_3D('',#1099,#1100,#1101);
#1099 = CARTESIAN_POINT('',(32.98,-18.,-3.5));
#1100 = DIRECTION('',(0.,0.,1.));
#1101 = DIRECTION('',(1.,0.,0.));
#1102 = ADVANCED_FACE('',(#1103),#1130,.T.);
#1103 = FACE_BOUND('',#1104,.T.);
#1104 = EDGE_LOOP('',(#1105,#1106,#1107,#1108,#1109,#1110,#1111,#1112,
    #1113,#1114,#1123));
#1105 = ORIENTED_EDGE('',*,*,#265,.F.);
#1106 = ORIENTED_EDGE('',*,*,#304,.F.);
#1107 = ORIENTED_EDGE('',*,*,#599,.T.);
#1108 = ORIENTED_EDGE('',*,*,#659,.F.);
#1109 = ORIENTED_EDGE('',*,*,#689,.T.);
#1110 = ORIENTED_EDGE('',*,*,#765,.T.);
#1111 = ORIENTED_EDGE('',*,*,#535,.T.);
#1112 = ORIENTED_EDGE('',*,*,#438,.T.);
#1113 = ORIENTED_EDGE('',*,*,#406,.F.);
#1114 = ORIENTED_EDGE('',*,*,#1115,.T.);
#1115 = EDGE_CURVE('',#399,#1116,#1118,.T.);
#1116 = VERTEX_POINT('',#1117);
#1117 = CARTESIAN_POINT('',(-30.98,2.694222958124E-15,11.));
#1118 = CIRCLE('',#1119,11.);
#1119 = AXIS2_PLACEMENT_3D('',#1120,#1121,#1122);
#1120 = CARTESIAN_POINT('',(-30.98,0.,0.));
#1121 = DIRECTION('',(1.,0.,0.));
#1122 = DIRECTION('',(-0.,0.,1.));
#1123 = ORIENTED_EDGE('',*,*,#1124,.T.);
#1124 = EDGE_CURVE('',#1116,#266,#1125,.T.);
#1125 = CIRCLE('',#1126,11.);
#1126 = AXIS2_PLACEMENT_3D('',#1127,#1128,#1129);
#1127 = CARTESIAN_POINT('',(-30.98,0.,0.));
#1128 = DIRECTION('',(1.,0.,0.));
#1129 = DIRECTION('',(-0.,0.,1.));
#1130 = PLANE('',#1131);
#1131 = AXIS2_PLACEMENT_3D('',#1132,#1133,#1134);
#1132 = CARTESIAN_POINT('',(-30.98,7.713462292484E-16,-5.692792572534));
#1133 = DIRECTION('',(1.,0.,0.));
#1134 = DIRECTION('',(-0.,0.,1.));
#1135 = ADVANCED_FACE('',(#1136,#1163),#1183,.T.);
#1136 = FACE_BOUND('',#1137,.T.);
#1137 = EDGE_LOOP('',(#1138,#1139,#1148,#1155,#1156,#1157,#1158,#1159,
    #1160,#1161,#1162));
#1138 = ORIENTED_EDGE('',*,*,#854,.T.);
#1139 = ORIENTED_EDGE('',*,*,#1140,.F.);
#1140 = EDGE_CURVE('',#1141,#857,#1143,.T.);
#1141 = VERTEX_POINT('',#1142);
#1142 = CARTESIAN_POINT('',(30.98,2.694222958124E-15,11.));
#1143 = CIRCLE('',#1144,11.);
#1144 = AXIS2_PLACEMENT_3D('',#1145,#1146,#1147);
#1145 = CARTESIAN_POINT('',(30.98,0.,0.));
#1146 = DIRECTION('',(1.,0.,0.));
#1147 = DIRECTION('',(-0.,0.,1.));
#1148 = ORIENTED_EDGE('',*,*,#1149,.F.);
#1149 = EDGE_CURVE('',#997,#1141,#1150,.T.);
#1150 = CIRCLE('',#1151,11.);
#1151 = AXIS2_PLACEMENT_3D('',#1152,#1153,#1154);
#1152 = CARTESIAN_POINT('',(30.98,0.,0.));
#1153 = DIRECTION('',(1.,0.,0.));
#1154 = DIRECTION('',(-0.,0.,1.));
#1155 = ORIENTED_EDGE('',*,*,#996,.T.);
#1156 = ORIENTED_EDGE('',*,*,#1044,.F.);
#1157 = ORIENTED_EDGE('',*,*,#551,.F.);
#1158 = ORIENTED_EDGE('',*,*,#772,.F.);
#1159 = ORIENTED_EDGE('',*,*,#698,.F.);
#1160 = ORIENTED_EDGE('',*,*,#675,.T.);
#1161 = ORIENTED_EDGE('',*,*,#583,.F.);
#1162 = ORIENTED_EDGE('',*,*,#902,.T.);
#1163 = FACE_BOUND('',#1164,.T.);
#1164 = EDGE_LOOP('',(#1165,#1176));
#1165 = ORIENTED_EDGE('',*,*,#1166,.T.);
#1166 = EDGE_CURVE('',#1167,#1169,#1171,.T.);
#1167 = VERTEX_POINT('',#1168);
#1168 = CARTESIAN_POINT('',(30.98,-3.,0.));
#1169 = VERTEX_POINT('',#1170);
#1170 = CARTESIAN_POINT('',(30.98,3.,-3.673940397442E-16));
#1171 = CIRCLE('',#1172,3.);
#1172 = AXIS2_PLACEMENT_3D('',#1173,#1174,#1175);
#1173 = CARTESIAN_POINT('',(30.98,0.,0.));
#1174 = DIRECTION('',(1.,0.,0.));
#1175 = DIRECTION('',(-0.,1.,0.));
#1176 = ORIENTED_EDGE('',*,*,#1177,.T.);
#1177 = EDGE_CURVE('',#1169,#1167,#1178,.T.);
#1178 = CIRCLE('',#1179,3.);
#1179 = AXIS2_PLACEMENT_3D('',#1180,#1181,#1182);
#1180 = CARTESIAN_POINT('',(30.98,0.,0.));
#1181 = DIRECTION('',(1.,0.,0.));
#1182 = DIRECTION('',(-0.,1.,0.));
#1183 = PLANE('',#1184);
#1184 = AXIS2_PLACEMENT_3D('',#1185,#1186,#1187);
#1185 = CARTESIAN_POINT('',(30.98,-4.407692738562E-16,-5.692792572534));
#1186 = DIRECTION('',(-1.,-0.,-0.));
#1187 = DIRECTION('',(0.,0.,-1.));
#1188 = ADVANCED_FACE('',(#1189),#1201,.F.);
#1189 = FACE_BOUND('',#1190,.F.);
#1190 = EDGE_LOOP('',(#1191,#1197,#1198,#1199,#1200));
#1191 = ORIENTED_EDGE('',*,*,#1192,.T.);
#1192 = EDGE_CURVE('',#1169,#231,#1193,.T.);
#1193 = LINE('',#1194,#1195);
#1194 = CARTESIAN_POINT('',(28.98,3.,-7.347880794884E-16));
#1195 = VECTOR('',#1196,1.);
#1196 = DIRECTION('',(1.,0.,0.));
#1197 = ORIENTED_EDGE('',*,*,#230,.F.);
#1198 = ORIENTED_EDGE('',*,*,#1192,.F.);
#1199 = ORIENTED_EDGE('',*,*,#1177,.T.);
#1200 = ORIENTED_EDGE('',*,*,#1166,.T.);
#1201 = CYLINDRICAL_SURFACE('',#1202,3.);
#1202 = AXIS2_PLACEMENT_3D('',#1203,#1204,#1205);
#1203 = CARTESIAN_POINT('',(28.98,0.,0.));
#1204 = DIRECTION('',(1.,0.,0.));
#1205 = DIRECTION('',(0.,1.,0.));
#1206 = ADVANCED_FACE('',(#1207),#1219,.T.);
#1207 = FACE_BOUND('',#1208,.T.);
#1208 = EDGE_LOOP('',(#1209,#1210,#1211,#1212,#1213,#1214,#1215,#1216,
    #1217,#1218));
#1209 = ORIENTED_EDGE('',*,*,#567,.T.);
#1210 = ORIENTED_EDGE('',*,*,#1051,.T.);
#1211 = ORIENTED_EDGE('',*,*,#1021,.F.);
#1212 = ORIENTED_EDGE('',*,*,#1075,.F.);
#1213 = ORIENTED_EDGE('',*,*,#1091,.T.);
#1214 = ORIENTED_EDGE('',*,*,#980,.F.);
#1215 = ORIENTED_EDGE('',*,*,#949,.T.);
#1216 = ORIENTED_EDGE('',*,*,#933,.T.);
#1217 = ORIENTED_EDGE('',*,*,#872,.F.);
#1218 = ORIENTED_EDGE('',*,*,#909,.F.);
#1219 = PLANE('',#1220);
#1220 = AXIS2_PLACEMENT_3D('',#1221,#1222,#1223);
#1221 = CARTESIAN_POINT('',(34.98,1.828519114695E-15,-9.379659794074));
#1222 = DIRECTION('',(1.,0.,0.));
#1223 = DIRECTION('',(-0.,0.,1.));
#1224 = ADVANCED_FACE('',(#1225),#1233,.T.);
#1225 = FACE_BOUND('',#1226,.T.);
#1226 = EDGE_LOOP('',(#1227,#1228,#1229,#1230,#1231,#1232));
#1227 = ORIENTED_EDGE('',*,*,#1115,.F.);
#1228 = ORIENTED_EDGE('',*,*,#398,.F.);
#1229 = ORIENTED_EDGE('',*,*,#329,.T.);
#1230 = ORIENTED_EDGE('',*,*,#320,.T.);
#1231 = ORIENTED_EDGE('',*,*,#273,.T.);
#1232 = ORIENTED_EDGE('',*,*,#1124,.F.);
#1233 = CYLINDRICAL_SURFACE('',#1234,11.);
#1234 = AXIS2_PLACEMENT_3D('',#1235,#1236,#1237);
#1235 = CARTESIAN_POINT('',(-34.98,0.,0.));
#1236 = DIRECTION('',(1.,0.,0.));
#1237 = DIRECTION('',(-0.,0.,1.));
#1238 = ADVANCED_FACE('',(#1239),#1251,.T.);
#1239 = FACE_BOUND('',#1240,.T.);
#1240 = EDGE_LOOP('',(#1241,#1242,#1243,#1244,#1245,#1246,#1247,#1248,
    #1249,#1250));
#1241 = ORIENTED_EDGE('',*,*,#31,.F.);
#1242 = ORIENTED_EDGE('',*,*,#120,.F.);
#1243 = ORIENTED_EDGE('',*,*,#219,.F.);
#1244 = ORIENTED_EDGE('',*,*,#1006,.F.);
#1245 = ORIENTED_EDGE('',*,*,#1149,.T.);
#1246 = ORIENTED_EDGE('',*,*,#1140,.T.);
#1247 = ORIENTED_EDGE('',*,*,#887,.T.);
#1248 = ORIENTED_EDGE('',*,*,#153,.F.);
#1249 = ORIENTED_EDGE('',*,*,#82,.T.);
#1250 = ORIENTED_EDGE('',*,*,#40,.F.);
#1251 = CYLINDRICAL_SURFACE('',#1252,11.);
#1252 = AXIS2_PLACEMENT_3D('',#1253,#1254,#1255);
#1253 = CARTESIAN_POINT('',(30.98,0.,0.));
#1254 = DIRECTION('',(1.,0.,0.));
#1255 = DIRECTION('',(-0.,0.,1.));
#1256 = ( GEOMETRIC_REPRESENTATION_CONTEXT(3) 
GLOBAL_UNCERTAINTY_ASSIGNED_CONTEXT((#1260)) 
GLOBAL_UNIT_ASSIGNED_CONTEXT((#1257,#1258,#1259)) REPRESENTATION_CONTEXT
('Context #1','3D Context with UNIT and UNCERTAINTY') );
#1257 = ( LENGTH_UNIT() NAMED_UNIT(*) SI_UNIT(.MILLI.,.METRE.) );
#1258 = ( NAMED_UNIT(*) PLANE_ANGLE_UNIT() SI_UNIT($,.RADIAN.) );
#1259 = ( NAMED_UNIT(*) SI_UNIT($,.STERADIAN.) SOLID_ANGLE_UNIT() );
#1260 = UNCERTAINTY_MEASURE_WITH_UNIT(LENGTH_MEASURE(1.E-07),#1257,
  'distance_accuracy_value','confusion accuracy');
#1261 = PRODUCT_RELATED_PRODUCT_CATEGORY('part',$,(#7));
ENDSEC;
END-ISO-10303-21;
