ISO-10303-21;
HEADER;
FILE_DESCRIPTION(('FreeCAD Model'),'2;1');
FILE_NAME('Open CASCADE Shape Model','2026-10-08T02:32:20',('FreeCAD'),(
    'FreeCAD'),'Open CASCADE STEP processor 7.8','FreeCAD','Unknown');
FILE_SCHEMA(('AUTOMOTIVE_DESIGN { 1 0 10303 214 1 1 1 1 }'));
ENDSEC;
DATA;
#1 = APPLICATION_PROTOCOL_DEFINITION('international standard',
  'automotive_design',2000,#2);
#2 = APPLICATION_CONTEXT(
  'core data for automotive mechanical design processes');
#3 = SHAPE_DEFINITION_REPRESENTATION(#4,#10);
#4 = PRODUCT_DEFINITION_SHAPE('','',#5);
#5 = PRODUCT_DEFINITION('design','',#6,#9);
#6 = PRODUCT_DEFINITION_FORMATION('','',#7);
#7 = PRODUCT('Open CASCADE STEP translator 7.8 11',
  'Open CASCADE STEP translator 7.8 11','',(#8));
#8 = PRODUCT_CONTEXT('',#2,'mechanical');
#9 = PRODUCT_DEFINITION_CONTEXT('part definition',#2,'design');
#10 = ADVANCED_BREP_SHAPE_REPRESENTATION('',(#11,#15),#1391);
#11 = AXIS2_PLACEMENT_3D('',#12,#13,#14);
#12 = CARTESIAN_POINT('',(0.,0.,0.));
#13 = DIRECTION('',(0.,0.,1.));
#14 = DIRECTION('',(1.,0.,-0.));
#15 = MANIFOLD_SOLID_BREP('',#16);
#16 = CLOSED_SHELL('',(#17,#144,#191,#222,#253,#278,#303,#328,#353,#378,
    #424,#475,#531,#607,#632,#657,#681,#712,#743,#778,#801,#959,#990,
    #1014,#1038,#1055,#1086,#1111,#1135,#1167,#1191,#1215,#1245,#1272,
    #1284,#1301,#1363,#1377));
#17 = ADVANCED_FACE('',(#18,#84,#95,#106,#117,#128),#139,.F.);
#18 = FACE_BOUND('',#19,.F.);
#19 = EDGE_LOOP('',(#20,#30,#38,#46,#54,#62,#70,#78));
#20 = ORIENTED_EDGE('',*,*,#21,.F.);
#21 = EDGE_CURVE('',#22,#24,#26,.T.);
#22 = VERTEX_POINT('',#23);
#23 = CARTESIAN_POINT('',(25.,-66.85899457832,-20.));
#24 = VERTEX_POINT('',#25);
#25 = CARTESIAN_POINT('',(25.,-66.85899457832,-19.99412953705));
#26 = LINE('',#27,#28);
#27 = CARTESIAN_POINT('',(25.,-66.85899457832,-20.));
#28 = VECTOR('',#29,1.);
#29 = DIRECTION('',(0.,0.,1.));
#30 = ORIENTED_EDGE('',*,*,#31,.F.);
#31 = EDGE_CURVE('',#32,#22,#34,.T.);
#32 = VERTEX_POINT('',#33);
#33 = CARTESIAN_POINT('',(-25.,-66.85899457832,-20.));
#34 = LINE('',#35,#36);
#35 = CARTESIAN_POINT('',(-25.,-66.85899457832,-20.));
#36 = VECTOR('',#37,1.);
#37 = DIRECTION('',(1.,0.,-0.));
#38 = ORIENTED_EDGE('',*,*,#39,.T.);
#39 = EDGE_CURVE('',#32,#40,#42,.T.);
#40 = VERTEX_POINT('',#41);
#41 = CARTESIAN_POINT('',(-25.,-66.85899457832,-19.99412953705));
#42 = LINE('',#43,#44);
#43 = CARTESIAN_POINT('',(-25.,-66.85899457832,-20.));
#44 = VECTOR('',#45,1.);
#45 = DIRECTION('',(0.,0.,1.));
#46 = ORIENTED_EDGE('',*,*,#47,.T.);
#47 = EDGE_CURVE('',#40,#48,#50,.T.);
#48 = VERTEX_POINT('',#49);
#49 = CARTESIAN_POINT('',(-18.,-66.85899457832,-19.99412953705));
#50 = LINE('',#51,#52);
#51 = CARTESIAN_POINT('',(-25.,-66.85899457832,-19.99412953705));
#52 = VECTOR('',#53,1.);
#53 = DIRECTION('',(1.,0.,0.));
#54 = ORIENTED_EDGE('',*,*,#55,.F.);
#55 = EDGE_CURVE('',#56,#48,#58,.T.);
#56 = VERTEX_POINT('',#57);
#57 = CARTESIAN_POINT('',(-18.,-66.85899457832,12.));
#58 = LINE('',#59,#60);
#59 = CARTESIAN_POINT('',(-18.,-66.85899457832,-6.5));
#60 = VECTOR('',#61,1.);
#61 = DIRECTION('',(-0.,0.,-1.));
#62 = ORIENTED_EDGE('',*,*,#63,.T.);
#63 = EDGE_CURVE('',#56,#64,#66,.T.);
#64 = VERTEX_POINT('',#65);
#65 = CARTESIAN_POINT('',(18.,-66.85899457832,12.));
#66 = LINE('',#67,#68);
#67 = CARTESIAN_POINT('',(-25.,-66.85899457832,12.));
#68 = VECTOR('',#69,1.);
#69 = DIRECTION('',(1.,0.,-0.));
#70 = ORIENTED_EDGE('',*,*,#71,.T.);
#71 = EDGE_CURVE('',#64,#72,#74,.T.);
#72 = VERTEX_POINT('',#73);
#73 = CARTESIAN_POINT('',(18.,-66.85899457832,-19.99412953705));
#74 = LINE('',#75,#76);
#75 = CARTESIAN_POINT('',(18.,-66.85899457832,-10.78902846185));
#76 = VECTOR('',#77,1.);
#77 = DIRECTION('',(0.,0.,-1.));
#78 = ORIENTED_EDGE('',*,*,#79,.T.);
#79 = EDGE_CURVE('',#72,#24,#80,.T.);
#80 = LINE('',#81,#82);
#81 = CARTESIAN_POINT('',(-3.5,-66.85899457832,-19.99412953705));
#82 = VECTOR('',#83,1.);
#83 = DIRECTION('',(1.,0.,0.));
#84 = FACE_BOUND('',#85,.F.);
#85 = EDGE_LOOP('',(#86));
#86 = ORIENTED_EDGE('',*,*,#87,.T.);
#87 = EDGE_CURVE('',#88,#88,#90,.T.);
#88 = VERTEX_POINT('',#89);
#89 = CARTESIAN_POINT('',(-11.,-66.85899457832,-13.7));
#90 = CIRCLE('',#91,1.7);
#91 = AXIS2_PLACEMENT_3D('',#92,#93,#94);
#92 = CARTESIAN_POINT('',(-11.,-66.85899457832,-12.));
#93 = DIRECTION('',(0.,-1.,0.));
#94 = DIRECTION('',(0.,-0.,-1.));
#95 = FACE_BOUND('',#96,.F.);
#96 = EDGE_LOOP('',(#97));
#97 = ORIENTED_EDGE('',*,*,#98,.T.);
#98 = EDGE_CURVE('',#99,#99,#101,.T.);
#99 = VERTEX_POINT('',#100);
#100 = CARTESIAN_POINT('',(-11.,-66.85899457832,4.3));
#101 = CIRCLE('',#102,1.7);
#102 = AXIS2_PLACEMENT_3D('',#103,#104,#105);
#103 = CARTESIAN_POINT('',(-11.,-66.85899457832,6.));
#104 = DIRECTION('',(0.,-1.,0.));
#105 = DIRECTION('',(0.,-0.,-1.));
#106 = FACE_BOUND('',#107,.F.);
#107 = EDGE_LOOP('',(#108));
#108 = ORIENTED_EDGE('',*,*,#109,.T.);
#109 = EDGE_CURVE('',#110,#110,#112,.T.);
#110 = VERTEX_POINT('',#111);
#111 = CARTESIAN_POINT('',(-1.102182119233E-15,-66.85899457832,-4.5));
#112 = CIRCLE('',#113,4.5);
#113 = AXIS2_PLACEMENT_3D('',#114,#115,#116);
#114 = CARTESIAN_POINT('',(0.,-66.85899457832,0.));
#115 = DIRECTION('',(0.,-1.,0.));
#116 = DIRECTION('',(0.,-0.,-1.));
#117 = FACE_BOUND('',#118,.F.);
#118 = EDGE_LOOP('',(#119));
#119 = ORIENTED_EDGE('',*,*,#120,.T.);
#120 = EDGE_CURVE('',#121,#121,#123,.T.);
#121 = VERTEX_POINT('',#122);
#122 = CARTESIAN_POINT('',(11.,-66.85899457832,-13.7));
#123 = CIRCLE('',#124,1.7);
#124 = AXIS2_PLACEMENT_3D('',#125,#126,#127);
#125 = CARTESIAN_POINT('',(11.,-66.85899457832,-12.));
#126 = DIRECTION('',(0.,-1.,0.));
#127 = DIRECTION('',(0.,-0.,-1.));
#128 = FACE_BOUND('',#129,.F.);
#129 = EDGE_LOOP('',(#130));
#130 = ORIENTED_EDGE('',*,*,#131,.T.);
#131 = EDGE_CURVE('',#132,#132,#134,.T.);
#132 = VERTEX_POINT('',#133);
#133 = CARTESIAN_POINT('',(11.,-66.85899457832,4.3));
#134 = CIRCLE('',#135,1.7);
#135 = AXIS2_PLACEMENT_3D('',#136,#137,#138);
#136 = CARTESIAN_POINT('',(11.,-66.85899457832,6.));
#137 = DIRECTION('',(0.,-1.,0.));
#138 = DIRECTION('',(0.,-0.,-1.));
#139 = PLANE('',#140);
#140 = AXIS2_PLACEMENT_3D('',#141,#142,#143);
#141 = CARTESIAN_POINT('',(-25.,-66.85899457832,-20.));
#142 = DIRECTION('',(-0.,1.,0.));
#143 = DIRECTION('',(0.,0.,1.));
#144 = ADVANCED_FACE('',(#145),#186,.F.);
#145 = FACE_BOUND('',#146,.F.);
#146 = EDGE_LOOP('',(#147,#155,#156,#164,#172,#180));
#147 = ORIENTED_EDGE('',*,*,#148,.F.);
#148 = EDGE_CURVE('',#32,#149,#151,.T.);
#149 = VERTEX_POINT('',#150);
#150 = CARTESIAN_POINT('',(-25.,-66.84899457832,-20.));
#151 = LINE('',#152,#153);
#152 = CARTESIAN_POINT('',(-25.,-66.85899457832,-20.));
#153 = VECTOR('',#154,1.);
#154 = DIRECTION('',(-0.,1.,0.));
#155 = ORIENTED_EDGE('',*,*,#31,.T.);
#156 = ORIENTED_EDGE('',*,*,#157,.T.);
#157 = EDGE_CURVE('',#22,#158,#160,.T.);
#158 = VERTEX_POINT('',#159);
#159 = CARTESIAN_POINT('',(25.,-66.84899457832,-20.));
#160 = LINE('',#161,#162);
#161 = CARTESIAN_POINT('',(25.,-66.85899457832,-20.));
#162 = VECTOR('',#163,1.);
#163 = DIRECTION('',(-0.,1.,0.));
#164 = ORIENTED_EDGE('',*,*,#165,.T.);
#165 = EDGE_CURVE('',#158,#166,#168,.T.);
#166 = VERTEX_POINT('',#167);
#167 = CARTESIAN_POINT('',(25.,-61.85899457832,-20.));
#168 = LINE('',#169,#170);
#169 = CARTESIAN_POINT('',(25.,-66.85899457832,-20.));
#170 = VECTOR('',#171,1.);
#171 = DIRECTION('',(-0.,1.,0.));
#172 = ORIENTED_EDGE('',*,*,#173,.F.);
#173 = EDGE_CURVE('',#174,#166,#176,.T.);
#174 = VERTEX_POINT('',#175);
#175 = CARTESIAN_POINT('',(-25.,-61.85899457832,-20.));
#176 = LINE('',#177,#178);
#177 = CARTESIAN_POINT('',(-25.,-61.85899457832,-20.));
#178 = VECTOR('',#179,1.);
#179 = DIRECTION('',(1.,0.,-0.));
#180 = ORIENTED_EDGE('',*,*,#181,.F.);
#181 = EDGE_CURVE('',#149,#174,#182,.T.);
#182 = LINE('',#183,#184);
#183 = CARTESIAN_POINT('',(-25.,-66.85899457832,-20.));
#184 = VECTOR('',#185,1.);
#185 = DIRECTION('',(-0.,1.,0.));
#186 = PLANE('',#187);
#187 = AXIS2_PLACEMENT_3D('',#188,#189,#190);
#188 = CARTESIAN_POINT('',(-25.,-66.85899457832,-20.));
#189 = DIRECTION('',(0.,0.,1.));
#190 = DIRECTION('',(1.,0.,-0.));
#191 = ADVANCED_FACE('',(#192),#217,.F.);
#192 = FACE_BOUND('',#193,.F.);
#193 = EDGE_LOOP('',(#194,#202,#210,#216));
#194 = ORIENTED_EDGE('',*,*,#195,.F.);
#195 = EDGE_CURVE('',#196,#72,#198,.T.);
#196 = VERTEX_POINT('',#197);
#197 = CARTESIAN_POINT('',(18.,-112.8419601466,7.));
#198 = LINE('',#199,#200);
#199 = CARTESIAN_POINT('',(18.,-112.8589945783,7.01));
#200 = VECTOR('',#201,1.);
#201 = DIRECTION('',(0.,0.862381984557,-0.506258148291));
#202 = ORIENTED_EDGE('',*,*,#203,.F.);
#203 = EDGE_CURVE('',#204,#196,#206,.T.);
#204 = VERTEX_POINT('',#205);
#205 = CARTESIAN_POINT('',(25.,-112.8419601466,7.));
#206 = LINE('',#207,#208);
#207 = CARTESIAN_POINT('',(-3.5,-112.8419601466,7.));
#208 = VECTOR('',#209,1.);
#209 = DIRECTION('',(-1.,-0.,0.));
#210 = ORIENTED_EDGE('',*,*,#211,.T.);
#211 = EDGE_CURVE('',#204,#24,#212,.T.);
#212 = LINE('',#213,#214);
#213 = CARTESIAN_POINT('',(25.,-112.8589945783,7.01));
#214 = VECTOR('',#215,1.);
#215 = DIRECTION('',(0.,0.862381984557,-0.506258148291));
#216 = ORIENTED_EDGE('',*,*,#79,.F.);
#217 = PLANE('',#218);
#218 = AXIS2_PLACEMENT_3D('',#219,#220,#221);
#219 = CARTESIAN_POINT('',(18.,-112.8589945783,7.01));
#220 = DIRECTION('',(-0.,0.506258148291,0.862381984557));
#221 = DIRECTION('',(0.,0.862381984557,-0.506258148291));
#222 = ADVANCED_FACE('',(#223),#248,.F.);
#223 = FACE_BOUND('',#224,.F.);
#224 = EDGE_LOOP('',(#225,#233,#241,#247));
#225 = ORIENTED_EDGE('',*,*,#226,.F.);
#226 = EDGE_CURVE('',#227,#40,#229,.T.);
#227 = VERTEX_POINT('',#228);
#228 = CARTESIAN_POINT('',(-25.,-112.8419601466,7.));
#229 = LINE('',#230,#231);
#230 = CARTESIAN_POINT('',(-25.,-112.8589945783,7.01));
#231 = VECTOR('',#232,1.);
#232 = DIRECTION('',(0.,0.862381984557,-0.506258148291));
#233 = ORIENTED_EDGE('',*,*,#234,.F.);
#234 = EDGE_CURVE('',#235,#227,#237,.T.);
#235 = VERTEX_POINT('',#236);
#236 = CARTESIAN_POINT('',(-18.,-112.8419601466,7.));
#237 = LINE('',#238,#239);
#238 = CARTESIAN_POINT('',(-25.,-112.8419601466,7.));
#239 = VECTOR('',#240,1.);
#240 = DIRECTION('',(-1.,-0.,0.));
#241 = ORIENTED_EDGE('',*,*,#242,.T.);
#242 = EDGE_CURVE('',#235,#48,#243,.T.);
#243 = LINE('',#244,#245);
#244 = CARTESIAN_POINT('',(-18.,-112.8589945783,7.01));
#245 = VECTOR('',#246,1.);
#246 = DIRECTION('',(0.,0.862381984557,-0.506258148291));
#247 = ORIENTED_EDGE('',*,*,#47,.F.);
#248 = PLANE('',#249);
#249 = AXIS2_PLACEMENT_3D('',#250,#251,#252);
#250 = CARTESIAN_POINT('',(-25.,-112.8589945783,7.01));
#251 = DIRECTION('',(-0.,0.506258148291,0.862381984557));
#252 = DIRECTION('',(0.,0.862381984557,-0.506258148291));
#253 = ADVANCED_FACE('',(#254),#273,.F.);
#254 = FACE_BOUND('',#255,.F.);
#255 = EDGE_LOOP('',(#256,#257,#265,#272));
#256 = ORIENTED_EDGE('',*,*,#87,.F.);
#257 = ORIENTED_EDGE('',*,*,#258,.F.);
#258 = EDGE_CURVE('',#259,#88,#261,.T.);
#259 = VERTEX_POINT('',#260);
#260 = CARTESIAN_POINT('',(-11.,-61.85899457832,-13.7));
#261 = LINE('',#262,#263);
#262 = CARTESIAN_POINT('',(-11.,-60.85899457832,-13.7));
#263 = VECTOR('',#264,1.);
#264 = DIRECTION('',(0.,-1.,0.));
#265 = ORIENTED_EDGE('',*,*,#266,.T.);
#266 = EDGE_CURVE('',#259,#259,#267,.T.);
#267 = CIRCLE('',#268,1.7);
#268 = AXIS2_PLACEMENT_3D('',#269,#270,#271);
#269 = CARTESIAN_POINT('',(-11.,-61.85899457832,-12.));
#270 = DIRECTION('',(0.,-1.,0.));
#271 = DIRECTION('',(0.,-0.,-1.));
#272 = ORIENTED_EDGE('',*,*,#258,.T.);
#273 = CYLINDRICAL_SURFACE('',#274,1.7);
#274 = AXIS2_PLACEMENT_3D('',#275,#276,#277);
#275 = CARTESIAN_POINT('',(-11.,-60.85899457832,-12.));
#276 = DIRECTION('',(0.,-1.,0.));
#277 = DIRECTION('',(0.,-0.,-1.));
#278 = ADVANCED_FACE('',(#279),#298,.F.);
#279 = FACE_BOUND('',#280,.F.);
#280 = EDGE_LOOP('',(#281,#282,#290,#297));
#281 = ORIENTED_EDGE('',*,*,#98,.F.);
#282 = ORIENTED_EDGE('',*,*,#283,.F.);
#283 = EDGE_CURVE('',#284,#99,#286,.T.);
#284 = VERTEX_POINT('',#285);
#285 = CARTESIAN_POINT('',(-11.,-61.85899457832,4.3));
#286 = LINE('',#287,#288);
#287 = CARTESIAN_POINT('',(-11.,-60.85899457832,4.3));
#288 = VECTOR('',#289,1.);
#289 = DIRECTION('',(0.,-1.,0.));
#290 = ORIENTED_EDGE('',*,*,#291,.T.);
#291 = EDGE_CURVE('',#284,#284,#292,.T.);
#292 = CIRCLE('',#293,1.7);
#293 = AXIS2_PLACEMENT_3D('',#294,#295,#296);
#294 = CARTESIAN_POINT('',(-11.,-61.85899457832,6.));
#295 = DIRECTION('',(0.,-1.,0.));
#296 = DIRECTION('',(0.,-0.,-1.));
#297 = ORIENTED_EDGE('',*,*,#283,.T.);
#298 = CYLINDRICAL_SURFACE('',#299,1.7);
#299 = AXIS2_PLACEMENT_3D('',#300,#301,#302);
#300 = CARTESIAN_POINT('',(-11.,-60.85899457832,6.));
#301 = DIRECTION('',(0.,-1.,0.));
#302 = DIRECTION('',(0.,-0.,-1.));
#303 = ADVANCED_FACE('',(#304),#323,.F.);
#304 = FACE_BOUND('',#305,.F.);
#305 = EDGE_LOOP('',(#306,#307,#315,#322));
#306 = ORIENTED_EDGE('',*,*,#109,.F.);
#307 = ORIENTED_EDGE('',*,*,#308,.F.);
#308 = EDGE_CURVE('',#309,#110,#311,.T.);
#309 = VERTEX_POINT('',#310);
#310 = CARTESIAN_POINT('',(-1.102182119233E-15,-61.85899457832,-4.5));
#311 = LINE('',#312,#313);
#312 = CARTESIAN_POINT('',(-1.102182119233E-15,-60.85899457832,-4.5));
#313 = VECTOR('',#314,1.);
#314 = DIRECTION('',(0.,-1.,0.));
#315 = ORIENTED_EDGE('',*,*,#316,.T.);
#316 = EDGE_CURVE('',#309,#309,#317,.T.);
#317 = CIRCLE('',#318,4.5);
#318 = AXIS2_PLACEMENT_3D('',#319,#320,#321);
#319 = CARTESIAN_POINT('',(0.,-61.85899457832,0.));
#320 = DIRECTION('',(0.,-1.,0.));
#321 = DIRECTION('',(0.,-0.,-1.));
#322 = ORIENTED_EDGE('',*,*,#308,.T.);
#323 = CYLINDRICAL_SURFACE('',#324,4.5);
#324 = AXIS2_PLACEMENT_3D('',#325,#326,#327);
#325 = CARTESIAN_POINT('',(0.,-60.85899457832,0.));
#326 = DIRECTION('',(0.,-1.,0.));
#327 = DIRECTION('',(0.,-0.,-1.));
#328 = ADVANCED_FACE('',(#329),#348,.F.);
#329 = FACE_BOUND('',#330,.F.);
#330 = EDGE_LOOP('',(#331,#332,#340,#347));
#331 = ORIENTED_EDGE('',*,*,#120,.F.);
#332 = ORIENTED_EDGE('',*,*,#333,.F.);
#333 = EDGE_CURVE('',#334,#121,#336,.T.);
#334 = VERTEX_POINT('',#335);
#335 = CARTESIAN_POINT('',(11.,-61.85899457832,-13.7));
#336 = LINE('',#337,#338);
#337 = CARTESIAN_POINT('',(11.,-60.85899457832,-13.7));
#338 = VECTOR('',#339,1.);
#339 = DIRECTION('',(0.,-1.,0.));
#340 = ORIENTED_EDGE('',*,*,#341,.T.);
#341 = EDGE_CURVE('',#334,#334,#342,.T.);
#342 = CIRCLE('',#343,1.7);
#343 = AXIS2_PLACEMENT_3D('',#344,#345,#346);
#344 = CARTESIAN_POINT('',(11.,-61.85899457832,-12.));
#345 = DIRECTION('',(0.,-1.,0.));
#346 = DIRECTION('',(0.,-0.,-1.));
#347 = ORIENTED_EDGE('',*,*,#333,.T.);
#348 = CYLINDRICAL_SURFACE('',#349,1.7);
#349 = AXIS2_PLACEMENT_3D('',#350,#351,#352);
#350 = CARTESIAN_POINT('',(11.,-60.85899457832,-12.));
#351 = DIRECTION('',(0.,-1.,0.));
#352 = DIRECTION('',(0.,-0.,-1.));
#353 = ADVANCED_FACE('',(#354),#373,.F.);
#354 = FACE_BOUND('',#355,.F.);
#355 = EDGE_LOOP('',(#356,#357,#365,#372));
#356 = ORIENTED_EDGE('',*,*,#131,.F.);
#357 = ORIENTED_EDGE('',*,*,#358,.F.);
#358 = EDGE_CURVE('',#359,#132,#361,.T.);
#359 = VERTEX_POINT('',#360);
#360 = CARTESIAN_POINT('',(11.,-61.85899457832,4.3));
#361 = LINE('',#362,#363);
#362 = CARTESIAN_POINT('',(11.,-60.85899457832,4.3));
#363 = VECTOR('',#364,1.);
#364 = DIRECTION('',(0.,-1.,0.));
#365 = ORIENTED_EDGE('',*,*,#366,.T.);
#366 = EDGE_CURVE('',#359,#359,#367,.T.);
#367 = CIRCLE('',#368,1.7);
#368 = AXIS2_PLACEMENT_3D('',#369,#370,#371);
#369 = CARTESIAN_POINT('',(11.,-61.85899457832,6.));
#370 = DIRECTION('',(0.,-1.,0.));
#371 = DIRECTION('',(0.,-0.,-1.));
#372 = ORIENTED_EDGE('',*,*,#358,.T.);
#373 = CYLINDRICAL_SURFACE('',#374,1.7);
#374 = AXIS2_PLACEMENT_3D('',#375,#376,#377);
#375 = CARTESIAN_POINT('',(11.,-60.85899457832,6.));
#376 = DIRECTION('',(0.,-1.,0.));
#377 = DIRECTION('',(0.,-0.,-1.));
#378 = ADVANCED_FACE('',(#379,#404,#407,#410,#413,#416),#419,.T.);
#379 = FACE_BOUND('',#380,.T.);
#380 = EDGE_LOOP('',(#381,#382,#390,#398));
#381 = ORIENTED_EDGE('',*,*,#173,.F.);
#382 = ORIENTED_EDGE('',*,*,#383,.T.);
#383 = EDGE_CURVE('',#174,#384,#386,.T.);
#384 = VERTEX_POINT('',#385);
#385 = CARTESIAN_POINT('',(-25.,-61.85899457832,12.));
#386 = LINE('',#387,#388);
#387 = CARTESIAN_POINT('',(-25.,-61.85899457832,-20.));
#388 = VECTOR('',#389,1.);
#389 = DIRECTION('',(0.,0.,1.));
#390 = ORIENTED_EDGE('',*,*,#391,.T.);
#391 = EDGE_CURVE('',#384,#392,#394,.T.);
#392 = VERTEX_POINT('',#393);
#393 = CARTESIAN_POINT('',(25.,-61.85899457832,12.));
#394 = LINE('',#395,#396);
#395 = CARTESIAN_POINT('',(-25.,-61.85899457832,12.));
#396 = VECTOR('',#397,1.);
#397 = DIRECTION('',(1.,0.,-0.));
#398 = ORIENTED_EDGE('',*,*,#399,.F.);
#399 = EDGE_CURVE('',#166,#392,#400,.T.);
#400 = LINE('',#401,#402);
#401 = CARTESIAN_POINT('',(25.,-61.85899457832,-20.));
#402 = VECTOR('',#403,1.);
#403 = DIRECTION('',(0.,0.,1.));
#404 = FACE_BOUND('',#405,.T.);
#405 = EDGE_LOOP('',(#406));
#406 = ORIENTED_EDGE('',*,*,#266,.T.);
#407 = FACE_BOUND('',#408,.T.);
#408 = EDGE_LOOP('',(#409));
#409 = ORIENTED_EDGE('',*,*,#291,.T.);
#410 = FACE_BOUND('',#411,.T.);
#411 = EDGE_LOOP('',(#412));
#412 = ORIENTED_EDGE('',*,*,#316,.T.);
#413 = FACE_BOUND('',#414,.T.);
#414 = EDGE_LOOP('',(#415));
#415 = ORIENTED_EDGE('',*,*,#341,.T.);
#416 = FACE_BOUND('',#417,.T.);
#417 = EDGE_LOOP('',(#418));
#418 = ORIENTED_EDGE('',*,*,#366,.T.);
#419 = PLANE('',#420);
#420 = AXIS2_PLACEMENT_3D('',#421,#422,#423);
#421 = CARTESIAN_POINT('',(-25.,-61.85899457832,-20.));
#422 = DIRECTION('',(-0.,1.,0.));
#423 = DIRECTION('',(0.,0.,1.));
#424 = ADVANCED_FACE('',(#425),#470,.T.);
#425 = FACE_BOUND('',#426,.T.);
#426 = EDGE_LOOP('',(#427,#428,#429,#437,#445,#453,#461,#467,#468,#469)
  );
#427 = ORIENTED_EDGE('',*,*,#39,.T.);
#428 = ORIENTED_EDGE('',*,*,#226,.F.);
#429 = ORIENTED_EDGE('',*,*,#430,.F.);
#430 = EDGE_CURVE('',#431,#227,#433,.T.);
#431 = VERTEX_POINT('',#432);
#432 = CARTESIAN_POINT('',(-25.,-116.8589945783,7.));
#433 = LINE('',#434,#435);
#434 = CARTESIAN_POINT('',(-25.,-116.8589945783,7.));
#435 = VECTOR('',#436,1.);
#436 = DIRECTION('',(-0.,1.,0.));
#437 = ORIENTED_EDGE('',*,*,#438,.T.);
#438 = EDGE_CURVE('',#431,#439,#441,.T.);
#439 = VERTEX_POINT('',#440);
#440 = CARTESIAN_POINT('',(-25.,-116.8589945783,17.));
#441 = LINE('',#442,#443);
#442 = CARTESIAN_POINT('',(-25.,-116.8589945783,7.));
#443 = VECTOR('',#444,1.);
#444 = DIRECTION('',(0.,0.,1.));
#445 = ORIENTED_EDGE('',*,*,#446,.T.);
#446 = EDGE_CURVE('',#439,#447,#449,.T.);
#447 = VERTEX_POINT('',#448);
#448 = CARTESIAN_POINT('',(-25.,-103.8589945783,17.));
#449 = LINE('',#450,#451);
#450 = CARTESIAN_POINT('',(-25.,-116.8589945783,17.));
#451 = VECTOR('',#452,1.);
#452 = DIRECTION('',(-0.,1.,0.));
#453 = ORIENTED_EDGE('',*,*,#454,.F.);
#454 = EDGE_CURVE('',#455,#447,#457,.T.);
#455 = VERTEX_POINT('',#456);
#456 = CARTESIAN_POINT('',(-25.,-103.8589945783,12.));
#457 = LINE('',#458,#459);
#458 = CARTESIAN_POINT('',(-25.,-103.8589945783,7.));
#459 = VECTOR('',#460,1.);
#460 = DIRECTION('',(0.,0.,1.));
#461 = ORIENTED_EDGE('',*,*,#462,.T.);
#462 = EDGE_CURVE('',#455,#384,#463,.T.);
#463 = LINE('',#464,#465);
#464 = CARTESIAN_POINT('',(-25.,-116.8589945783,12.));
#465 = VECTOR('',#466,1.);
#466 = DIRECTION('',(-0.,1.,0.));
#467 = ORIENTED_EDGE('',*,*,#383,.F.);
#468 = ORIENTED_EDGE('',*,*,#181,.F.);
#469 = ORIENTED_EDGE('',*,*,#148,.F.);
#470 = PLANE('',#471);
#471 = AXIS2_PLACEMENT_3D('',#472,#473,#474);
#472 = CARTESIAN_POINT('',(-25.,-86.13997640648,2.25790495159));
#473 = DIRECTION('',(-1.,-0.,-0.));
#474 = DIRECTION('',(0.,0.,-1.));
#475 = ADVANCED_FACE('',(#476),#526,.T.);
#476 = FACE_BOUND('',#477,.T.);
#477 = EDGE_LOOP('',(#478,#488,#496,#504,#512,#520));
#478 = ORIENTED_EDGE('',*,*,#479,.F.);
#479 = EDGE_CURVE('',#480,#482,#484,.T.);
#480 = VERTEX_POINT('',#481);
#481 = CARTESIAN_POINT('',(-18.,-103.8589945783,7.));
#482 = VERTEX_POINT('',#483);
#483 = CARTESIAN_POINT('',(18.,-103.8589945783,7.));
#484 = LINE('',#485,#486);
#485 = CARTESIAN_POINT('',(-25.,-103.8589945783,7.));
#486 = VECTOR('',#487,1.);
#487 = DIRECTION('',(1.,0.,-0.));
#488 = ORIENTED_EDGE('',*,*,#489,.F.);
#489 = EDGE_CURVE('',#490,#480,#492,.T.);
#490 = VERTEX_POINT('',#491);
#491 = CARTESIAN_POINT('',(-18.,-103.8589945783,17.));
#492 = LINE('',#493,#494);
#493 = CARTESIAN_POINT('',(-18.,-103.8589945783,2.710971538147));
#494 = VECTOR('',#495,1.);
#495 = DIRECTION('',(0.,0.,-1.));
#496 = ORIENTED_EDGE('',*,*,#497,.T.);
#497 = EDGE_CURVE('',#490,#498,#500,.T.);
#498 = VERTEX_POINT('',#499);
#499 = CARTESIAN_POINT('',(25.,-103.8589945783,17.));
#500 = LINE('',#501,#502);
#501 = CARTESIAN_POINT('',(-25.,-103.8589945783,17.));
#502 = VECTOR('',#503,1.);
#503 = DIRECTION('',(1.,0.,-0.));
#504 = ORIENTED_EDGE('',*,*,#505,.F.);
#505 = EDGE_CURVE('',#506,#498,#508,.T.);
#506 = VERTEX_POINT('',#507);
#507 = CARTESIAN_POINT('',(25.,-103.8589945783,12.));
#508 = LINE('',#509,#510);
#509 = CARTESIAN_POINT('',(25.,-103.8589945783,7.));
#510 = VECTOR('',#511,1.);
#511 = DIRECTION('',(0.,0.,1.));
#512 = ORIENTED_EDGE('',*,*,#513,.T.);
#513 = EDGE_CURVE('',#506,#514,#516,.T.);
#514 = VERTEX_POINT('',#515);
#515 = CARTESIAN_POINT('',(18.,-103.8589945783,12.));
#516 = LINE('',#517,#518);
#517 = CARTESIAN_POINT('',(-3.5,-103.8589945783,12.));
#518 = VECTOR('',#519,1.);
#519 = DIRECTION('',(-1.,-0.,0.));
#520 = ORIENTED_EDGE('',*,*,#521,.F.);
#521 = EDGE_CURVE('',#482,#514,#522,.T.);
#522 = LINE('',#523,#524);
#523 = CARTESIAN_POINT('',(18.,-103.8589945783,7.));
#524 = VECTOR('',#525,1.);
#525 = DIRECTION('',(0.,0.,1.));
#526 = PLANE('',#527);
#527 = AXIS2_PLACEMENT_3D('',#528,#529,#530);
#528 = CARTESIAN_POINT('',(-25.,-103.8589945783,7.));
#529 = DIRECTION('',(-0.,1.,0.));
#530 = DIRECTION('',(0.,0.,1.));
#531 = ADVANCED_FACE('',(#532,#580,#591),#602,.T.);
#532 = FACE_BOUND('',#533,.T.);
#533 = EDGE_LOOP('',(#534,#542,#543,#551,#557,#558,#566,#574));
#534 = ORIENTED_EDGE('',*,*,#535,.F.);
#535 = EDGE_CURVE('',#447,#536,#538,.T.);
#536 = VERTEX_POINT('',#537);
#537 = CARTESIAN_POINT('',(-23.,-103.8589945783,17.));
#538 = LINE('',#539,#540);
#539 = CARTESIAN_POINT('',(-25.,-103.8589945783,17.));
#540 = VECTOR('',#541,1.);
#541 = DIRECTION('',(1.,0.,-0.));
#542 = ORIENTED_EDGE('',*,*,#446,.F.);
#543 = ORIENTED_EDGE('',*,*,#544,.T.);
#544 = EDGE_CURVE('',#439,#545,#547,.T.);
#545 = VERTEX_POINT('',#546);
#546 = CARTESIAN_POINT('',(25.,-116.8589945783,17.));
#547 = LINE('',#548,#549);
#548 = CARTESIAN_POINT('',(-25.,-116.8589945783,17.));
#549 = VECTOR('',#550,1.);
#550 = DIRECTION('',(1.,0.,-0.));
#551 = ORIENTED_EDGE('',*,*,#552,.T.);
#552 = EDGE_CURVE('',#545,#498,#553,.T.);
#553 = LINE('',#554,#555);
#554 = CARTESIAN_POINT('',(25.,-116.8589945783,17.));
#555 = VECTOR('',#556,1.);
#556 = DIRECTION('',(-0.,1.,0.));
#557 = ORIENTED_EDGE('',*,*,#497,.F.);
#558 = ORIENTED_EDGE('',*,*,#559,.F.);
#559 = EDGE_CURVE('',#560,#490,#562,.T.);
#560 = VERTEX_POINT('',#561);
#561 = CARTESIAN_POINT('',(-18.,-110.7255825991,17.));
#562 = LINE('',#563,#564);
#563 = CARTESIAN_POINT('',(-18.,-113.7922885887,17.));
#564 = VECTOR('',#565,1.);
#565 = DIRECTION('',(0.,1.,0.));
#566 = ORIENTED_EDGE('',*,*,#567,.T.);
#567 = EDGE_CURVE('',#560,#568,#570,.T.);
#568 = VERTEX_POINT('',#569);
#569 = CARTESIAN_POINT('',(-23.,-110.7255825991,17.));
#570 = LINE('',#571,#572);
#571 = CARTESIAN_POINT('',(-24.,-110.7255825991,17.));
#572 = VECTOR('',#573,1.);
#573 = DIRECTION('',(-1.,0.,0.));
#574 = ORIENTED_EDGE('',*,*,#575,.T.);
#575 = EDGE_CURVE('',#568,#536,#576,.T.);
#576 = LINE('',#577,#578);
#577 = CARTESIAN_POINT('',(-23.,-113.7922885887,17.));
#578 = VECTOR('',#579,1.);
#579 = DIRECTION('',(0.,1.,0.));
#580 = FACE_BOUND('',#581,.T.);
#581 = EDGE_LOOP('',(#582));
#582 = ORIENTED_EDGE('',*,*,#583,.F.);
#583 = EDGE_CURVE('',#584,#584,#586,.T.);
#584 = VERTEX_POINT('',#585);
#585 = CARTESIAN_POINT('',(1.7,-111.8589945783,17.));
#586 = CIRCLE('',#587,1.7);
#587 = AXIS2_PLACEMENT_3D('',#588,#589,#590);
#588 = CARTESIAN_POINT('',(0.,-111.8589945783,17.));
#589 = DIRECTION('',(0.,0.,1.));
#590 = DIRECTION('',(1.,0.,-0.));
#591 = FACE_BOUND('',#592,.T.);
#592 = EDGE_LOOP('',(#593));
#593 = ORIENTED_EDGE('',*,*,#594,.F.);
#594 = EDGE_CURVE('',#595,#595,#597,.T.);
#595 = VERTEX_POINT('',#596);
#596 = CARTESIAN_POINT('',(1.7,-107.3589945783,17.));
#597 = CIRCLE('',#598,1.7);
#598 = AXIS2_PLACEMENT_3D('',#599,#600,#601);
#599 = CARTESIAN_POINT('',(0.,-107.3589945783,17.));
#600 = DIRECTION('',(0.,0.,1.));
#601 = DIRECTION('',(1.,0.,-0.));
#602 = PLANE('',#603);
#603 = AXIS2_PLACEMENT_3D('',#604,#605,#606);
#604 = CARTESIAN_POINT('',(-25.,-116.8589945783,17.));
#605 = DIRECTION('',(0.,0.,1.));
#606 = DIRECTION('',(1.,0.,-0.));
#607 = ADVANCED_FACE('',(#608),#627,.F.);
#608 = FACE_BOUND('',#609,.F.);
#609 = EDGE_LOOP('',(#610,#611,#619,#626));
#610 = ORIENTED_EDGE('',*,*,#583,.F.);
#611 = ORIENTED_EDGE('',*,*,#612,.F.);
#612 = EDGE_CURVE('',#613,#584,#615,.T.);
#613 = VERTEX_POINT('',#614);
#614 = CARTESIAN_POINT('',(1.7,-111.8589945783,7.));
#615 = LINE('',#616,#617);
#616 = CARTESIAN_POINT('',(1.7,-111.8589945783,6.));
#617 = VECTOR('',#618,1.);
#618 = DIRECTION('',(0.,0.,1.));
#619 = ORIENTED_EDGE('',*,*,#620,.T.);
#620 = EDGE_CURVE('',#613,#613,#621,.T.);
#621 = CIRCLE('',#622,1.7);
#622 = AXIS2_PLACEMENT_3D('',#623,#624,#625);
#623 = CARTESIAN_POINT('',(0.,-111.8589945783,7.));
#624 = DIRECTION('',(0.,0.,1.));
#625 = DIRECTION('',(1.,0.,-0.));
#626 = ORIENTED_EDGE('',*,*,#612,.T.);
#627 = CYLINDRICAL_SURFACE('',#628,1.7);
#628 = AXIS2_PLACEMENT_3D('',#629,#630,#631);
#629 = CARTESIAN_POINT('',(0.,-111.8589945783,6.));
#630 = DIRECTION('',(0.,0.,1.));
#631 = DIRECTION('',(1.,0.,-0.));
#632 = ADVANCED_FACE('',(#633),#652,.F.);
#633 = FACE_BOUND('',#634,.F.);
#634 = EDGE_LOOP('',(#635,#636,#644,#651));
#635 = ORIENTED_EDGE('',*,*,#594,.F.);
#636 = ORIENTED_EDGE('',*,*,#637,.F.);
#637 = EDGE_CURVE('',#638,#595,#640,.T.);
#638 = VERTEX_POINT('',#639);
#639 = CARTESIAN_POINT('',(1.7,-107.3589945783,7.));
#640 = LINE('',#641,#642);
#641 = CARTESIAN_POINT('',(1.7,-107.3589945783,6.));
#642 = VECTOR('',#643,1.);
#643 = DIRECTION('',(0.,0.,1.));
#644 = ORIENTED_EDGE('',*,*,#645,.T.);
#645 = EDGE_CURVE('',#638,#638,#646,.T.);
#646 = CIRCLE('',#647,1.7);
#647 = AXIS2_PLACEMENT_3D('',#648,#649,#650);
#648 = CARTESIAN_POINT('',(0.,-107.3589945783,7.));
#649 = DIRECTION('',(0.,0.,1.));
#650 = DIRECTION('',(1.,0.,-0.));
#651 = ORIENTED_EDGE('',*,*,#637,.T.);
#652 = CYLINDRICAL_SURFACE('',#653,1.7);
#653 = AXIS2_PLACEMENT_3D('',#654,#655,#656);
#654 = CARTESIAN_POINT('',(0.,-107.3589945783,6.));
#655 = DIRECTION('',(0.,0.,1.));
#656 = DIRECTION('',(1.,0.,-0.));
#657 = ADVANCED_FACE('',(#658),#676,.T.);
#658 = FACE_BOUND('',#659,.T.);
#659 = EDGE_LOOP('',(#660,#668,#669,#670));
#660 = ORIENTED_EDGE('',*,*,#661,.T.);
#661 = EDGE_CURVE('',#662,#455,#664,.T.);
#662 = VERTEX_POINT('',#663);
#663 = CARTESIAN_POINT('',(-23.,-103.8589945783,12.));
#664 = LINE('',#665,#666);
#665 = CARTESIAN_POINT('',(-25.,-103.8589945783,12.));
#666 = VECTOR('',#667,1.);
#667 = DIRECTION('',(-1.,-0.,0.));
#668 = ORIENTED_EDGE('',*,*,#454,.T.);
#669 = ORIENTED_EDGE('',*,*,#535,.T.);
#670 = ORIENTED_EDGE('',*,*,#671,.T.);
#671 = EDGE_CURVE('',#536,#662,#672,.T.);
#672 = LINE('',#673,#674);
#673 = CARTESIAN_POINT('',(-23.,-103.8589945783,10.44727056917));
#674 = VECTOR('',#675,1.);
#675 = DIRECTION('',(0.,0.,-1.));
#676 = PLANE('',#677);
#677 = AXIS2_PLACEMENT_3D('',#678,#679,#680);
#678 = CARTESIAN_POINT('',(-25.,-103.8589945783,7.));
#679 = DIRECTION('',(-0.,1.,0.));
#680 = DIRECTION('',(0.,0.,1.));
#681 = ADVANCED_FACE('',(#682),#707,.F.);
#682 = FACE_BOUND('',#683,.F.);
#683 = EDGE_LOOP('',(#684,#685,#693,#701));
#684 = ORIENTED_EDGE('',*,*,#567,.T.);
#685 = ORIENTED_EDGE('',*,*,#686,.T.);
#686 = EDGE_CURVE('',#568,#687,#689,.T.);
#687 = VERTEX_POINT('',#688);
#688 = CARTESIAN_POINT('',(-23.,-110.7255825991,32.094541138341));
#689 = LINE('',#690,#691);
#690 = CARTESIAN_POINT('',(-23.,-110.7255825991,13.894541138341));
#691 = VECTOR('',#692,1.);
#692 = DIRECTION('',(0.,0.,1.));
#693 = ORIENTED_EDGE('',*,*,#694,.T.);
#694 = EDGE_CURVE('',#687,#695,#697,.T.);
#695 = VERTEX_POINT('',#696);
#696 = CARTESIAN_POINT('',(-18.,-110.7255825991,32.094541138341));
#697 = LINE('',#698,#699);
#698 = CARTESIAN_POINT('',(-23.,-110.7255825991,32.094541138341));
#699 = VECTOR('',#700,1.);
#700 = DIRECTION('',(1.,0.,0.));
#701 = ORIENTED_EDGE('',*,*,#702,.F.);
#702 = EDGE_CURVE('',#560,#695,#703,.T.);
#703 = LINE('',#704,#705);
#704 = CARTESIAN_POINT('',(-18.,-110.7255825991,13.894541138341));
#705 = VECTOR('',#706,1.);
#706 = DIRECTION('',(0.,0.,1.));
#707 = PLANE('',#708);
#708 = AXIS2_PLACEMENT_3D('',#709,#710,#711);
#709 = CARTESIAN_POINT('',(-23.,-110.7255825991,13.894541138341));
#710 = DIRECTION('',(0.,1.,0.));
#711 = DIRECTION('',(1.,0.,0.));
#712 = ADVANCED_FACE('',(#713),#738,.T.);
#713 = FACE_BOUND('',#714,.T.);
#714 = EDGE_LOOP('',(#715,#723,#724,#732));
#715 = ORIENTED_EDGE('',*,*,#716,.F.);
#716 = EDGE_CURVE('',#687,#717,#719,.T.);
#717 = VERTEX_POINT('',#718);
#718 = CARTESIAN_POINT('',(-23.,-72.52558259911,32.094541138341));
#719 = LINE('',#720,#721);
#720 = CARTESIAN_POINT('',(-23.,-110.7255825991,32.094541138341));
#721 = VECTOR('',#722,1.);
#722 = DIRECTION('',(0.,1.,0.));
#723 = ORIENTED_EDGE('',*,*,#694,.T.);
#724 = ORIENTED_EDGE('',*,*,#725,.T.);
#725 = EDGE_CURVE('',#695,#726,#728,.T.);
#726 = VERTEX_POINT('',#727);
#727 = CARTESIAN_POINT('',(-18.,-72.52558259911,32.094541138341));
#728 = LINE('',#729,#730);
#729 = CARTESIAN_POINT('',(-18.,-110.7255825991,32.094541138341));
#730 = VECTOR('',#731,1.);
#731 = DIRECTION('',(0.,1.,0.));
#732 = ORIENTED_EDGE('',*,*,#733,.F.);
#733 = EDGE_CURVE('',#717,#726,#734,.T.);
#734 = LINE('',#735,#736);
#735 = CARTESIAN_POINT('',(-23.,-72.52558259911,32.094541138341));
#736 = VECTOR('',#737,1.);
#737 = DIRECTION('',(1.,0.,0.));
#738 = PLANE('',#739);
#739 = AXIS2_PLACEMENT_3D('',#740,#741,#742);
#740 = CARTESIAN_POINT('',(-23.,-110.7255825991,32.094541138341));
#741 = DIRECTION('',(0.,0.,1.));
#742 = DIRECTION('',(1.,0.,0.));
#743 = ADVANCED_FACE('',(#744),#773,.T.);
#744 = FACE_BOUND('',#745,.T.);
#745 = EDGE_LOOP('',(#746,#747,#748,#749,#750,#756,#757,#758,#766,#772)
  );
#746 = ORIENTED_EDGE('',*,*,#21,.F.);
#747 = ORIENTED_EDGE('',*,*,#157,.T.);
#748 = ORIENTED_EDGE('',*,*,#165,.T.);
#749 = ORIENTED_EDGE('',*,*,#399,.T.);
#750 = ORIENTED_EDGE('',*,*,#751,.F.);
#751 = EDGE_CURVE('',#506,#392,#752,.T.);
#752 = LINE('',#753,#754);
#753 = CARTESIAN_POINT('',(25.,-66.85899457832,12.));
#754 = VECTOR('',#755,1.);
#755 = DIRECTION('',(-0.,1.,0.));
#756 = ORIENTED_EDGE('',*,*,#505,.T.);
#757 = ORIENTED_EDGE('',*,*,#552,.F.);
#758 = ORIENTED_EDGE('',*,*,#759,.F.);
#759 = EDGE_CURVE('',#760,#545,#762,.T.);
#760 = VERTEX_POINT('',#761);
#761 = CARTESIAN_POINT('',(25.,-116.8589945783,7.));
#762 = LINE('',#763,#764);
#763 = CARTESIAN_POINT('',(25.,-116.8589945783,7.));
#764 = VECTOR('',#765,1.);
#765 = DIRECTION('',(0.,0.,1.));
#766 = ORIENTED_EDGE('',*,*,#767,.T.);
#767 = EDGE_CURVE('',#760,#204,#768,.T.);
#768 = LINE('',#769,#770);
#769 = CARTESIAN_POINT('',(25.,-116.8589945783,7.));
#770 = VECTOR('',#771,1.);
#771 = DIRECTION('',(-0.,1.,0.));
#772 = ORIENTED_EDGE('',*,*,#211,.T.);
#773 = PLANE('',#774);
#774 = AXIS2_PLACEMENT_3D('',#775,#776,#777);
#775 = CARTESIAN_POINT('',(25.,-86.13997640648,2.25790495159));
#776 = DIRECTION('',(1.,0.,0.));
#777 = DIRECTION('',(-0.,0.,1.));
#778 = ADVANCED_FACE('',(#779),#796,.T.);
#779 = FACE_BOUND('',#780,.T.);
#780 = EDGE_LOOP('',(#781,#782,#788,#789,#795));
#781 = ORIENTED_EDGE('',*,*,#195,.F.);
#782 = ORIENTED_EDGE('',*,*,#783,.T.);
#783 = EDGE_CURVE('',#196,#482,#784,.T.);
#784 = LINE('',#785,#786);
#785 = CARTESIAN_POINT('',(18.,-116.8589945783,7.));
#786 = VECTOR('',#787,1.);
#787 = DIRECTION('',(-0.,1.,0.));
#788 = ORIENTED_EDGE('',*,*,#521,.T.);
#789 = ORIENTED_EDGE('',*,*,#790,.T.);
#790 = EDGE_CURVE('',#514,#64,#791,.T.);
#791 = LINE('',#792,#793);
#792 = CARTESIAN_POINT('',(18.,-116.8589945783,12.));
#793 = VECTOR('',#794,1.);
#794 = DIRECTION('',(-0.,1.,0.));
#795 = ORIENTED_EDGE('',*,*,#71,.T.);
#796 = PLANE('',#797);
#797 = AXIS2_PLACEMENT_3D('',#798,#799,#800);
#798 = CARTESIAN_POINT('',(18.,-84.96742685445,0.587455141461));
#799 = DIRECTION('',(-1.,-0.,-0.));
#800 = DIRECTION('',(0.,0.,-1.));
#801 = ADVANCED_FACE('',(#802,#830,#864,#909),#954,.T.);
#802 = FACE_BOUND('',#803,.T.);
#803 = EDGE_LOOP('',(#804,#805,#806,#814,#820,#821,#822,#823,#824));
#804 = ORIENTED_EDGE('',*,*,#242,.T.);
#805 = ORIENTED_EDGE('',*,*,#55,.F.);
#806 = ORIENTED_EDGE('',*,*,#807,.F.);
#807 = EDGE_CURVE('',#808,#56,#810,.T.);
#808 = VERTEX_POINT('',#809);
#809 = CARTESIAN_POINT('',(-18.,-72.52558259911,12.));
#810 = LINE('',#811,#812);
#811 = CARTESIAN_POINT('',(-18.,-116.8589945783,12.));
#812 = VECTOR('',#813,1.);
#813 = DIRECTION('',(-0.,1.,0.));
#814 = ORIENTED_EDGE('',*,*,#815,.T.);
#815 = EDGE_CURVE('',#808,#726,#816,.T.);
#816 = LINE('',#817,#818);
#817 = CARTESIAN_POINT('',(-18.,-72.52558259911,7.));
#818 = VECTOR('',#819,1.);
#819 = DIRECTION('',(0.,0.,1.));
#820 = ORIENTED_EDGE('',*,*,#725,.F.);
#821 = ORIENTED_EDGE('',*,*,#702,.F.);
#822 = ORIENTED_EDGE('',*,*,#559,.T.);
#823 = ORIENTED_EDGE('',*,*,#489,.T.);
#824 = ORIENTED_EDGE('',*,*,#825,.F.);
#825 = EDGE_CURVE('',#235,#480,#826,.T.);
#826 = LINE('',#827,#828);
#827 = CARTESIAN_POINT('',(-18.,-116.8589945783,7.));
#828 = VECTOR('',#829,1.);
#829 = DIRECTION('',(-0.,1.,0.));
#830 = FACE_BOUND('',#831,.T.);
#831 = EDGE_LOOP('',(#832,#842,#850,#858));
#832 = ORIENTED_EDGE('',*,*,#833,.T.);
#833 = EDGE_CURVE('',#834,#836,#838,.T.);
#834 = VERTEX_POINT('',#835);
#835 = CARTESIAN_POINT('',(-18.,-79.97558259911,16.644541138341));
#836 = VERTEX_POINT('',#837);
#837 = CARTESIAN_POINT('',(-18.,-103.2755825991,16.644541138341));
#838 = LINE('',#839,#840);
#839 = CARTESIAN_POINT('',(-18.,-107.0005825991,16.644541138341));
#840 = VECTOR('',#841,1.);
#841 = DIRECTION('',(0.,-1.,0.));
#842 = ORIENTED_EDGE('',*,*,#843,.T.);
#843 = EDGE_CURVE('',#836,#844,#846,.T.);
#844 = VERTEX_POINT('',#845);
#845 = CARTESIAN_POINT('',(-18.,-103.2755825991,29.344541138341));
#846 = LINE('',#847,#848);
#847 = CARTESIAN_POINT('',(-18.,-103.2755825991,15.269541138341));
#848 = VECTOR('',#849,1.);
#849 = DIRECTION('',(0.,0.,1.));
#850 = ORIENTED_EDGE('',*,*,#851,.F.);
#851 = EDGE_CURVE('',#852,#844,#854,.T.);
#852 = VERTEX_POINT('',#853);
#853 = CARTESIAN_POINT('',(-18.,-79.97558259911,29.344541138341));
#854 = LINE('',#855,#856);
#855 = CARTESIAN_POINT('',(-18.,-107.0005825991,29.344541138341));
#856 = VECTOR('',#857,1.);
#857 = DIRECTION('',(0.,-1.,0.));
#858 = ORIENTED_EDGE('',*,*,#859,.F.);
#859 = EDGE_CURVE('',#834,#852,#860,.T.);
#860 = LINE('',#861,#862);
#861 = CARTESIAN_POINT('',(-18.,-79.97558259911,15.269541138341));
#862 = VECTOR('',#863,1.);
#863 = DIRECTION('',(0.,0.,1.));
#864 = FACE_BOUND('',#865,.T.);
#865 = EDGE_LOOP('',(#866,#877,#886,#894,#903));
#866 = ORIENTED_EDGE('',*,*,#867,.F.);
#867 = EDGE_CURVE('',#868,#870,#872,.T.);
#868 = VERTEX_POINT('',#869);
#869 = CARTESIAN_POINT('',(-18.,-104.5255825991,22.994541138341));
#870 = VERTEX_POINT('',#871);
#871 = CARTESIAN_POINT('',(-18.,-105.3755825991,23.844541138341));
#872 = CIRCLE('',#873,0.85);
#873 = AXIS2_PLACEMENT_3D('',#874,#875,#876);
#874 = CARTESIAN_POINT('',(-18.,-105.3755825991,22.994541138341));
#875 = DIRECTION('',(1.,0.,0.));
#876 = DIRECTION('',(-0.,1.,0.));
#877 = ORIENTED_EDGE('',*,*,#878,.F.);
#878 = EDGE_CURVE('',#879,#868,#881,.T.);
#879 = VERTEX_POINT('',#880);
#880 = CARTESIAN_POINT('',(-18.,-105.3755825991,22.144541138341));
#881 = CIRCLE('',#882,0.85);
#882 = AXIS2_PLACEMENT_3D('',#883,#884,#885);
#883 = CARTESIAN_POINT('',(-18.,-105.3755825991,22.994541138341));
#884 = DIRECTION('',(1.,0.,0.));
#885 = DIRECTION('',(-0.,1.,0.));
#886 = ORIENTED_EDGE('',*,*,#887,.T.);
#887 = EDGE_CURVE('',#879,#888,#890,.T.);
#888 = VERTEX_POINT('',#889);
#889 = CARTESIAN_POINT('',(-18.,-105.6255825991,22.144541138341));
#890 = LINE('',#891,#892);
#891 = CARTESIAN_POINT('',(-18.,-108.1755825991,22.144541138341));
#892 = VECTOR('',#893,1.);
#893 = DIRECTION('',(0.,-1.,0.));
#894 = ORIENTED_EDGE('',*,*,#895,.F.);
#895 = EDGE_CURVE('',#896,#888,#898,.T.);
#896 = VERTEX_POINT('',#897);
#897 = CARTESIAN_POINT('',(-18.,-105.6255825991,23.844541138341));
#898 = CIRCLE('',#899,0.85);
#899 = AXIS2_PLACEMENT_3D('',#900,#901,#902);
#900 = CARTESIAN_POINT('',(-18.,-105.6255825991,22.994541138341));
#901 = DIRECTION('',(1.,0.,0.));
#902 = DIRECTION('',(-0.,1.,0.));
#903 = ORIENTED_EDGE('',*,*,#904,.F.);
#904 = EDGE_CURVE('',#870,#896,#905,.T.);
#905 = LINE('',#906,#907);
#906 = CARTESIAN_POINT('',(-18.,-108.1755825991,23.844541138341));
#907 = VECTOR('',#908,1.);
#908 = DIRECTION('',(0.,-1.,0.));
#909 = FACE_BOUND('',#910,.T.);
#910 = EDGE_LOOP('',(#911,#922,#930,#939,#948));
#911 = ORIENTED_EDGE('',*,*,#912,.F.);
#912 = EDGE_CURVE('',#913,#915,#917,.T.);
#913 = VERTEX_POINT('',#914);
#914 = CARTESIAN_POINT('',(-18.,-77.87558259911,23.844541138341));
#915 = VERTEX_POINT('',#916);
#916 = CARTESIAN_POINT('',(-18.,-77.87558259911,22.144541138341));
#917 = CIRCLE('',#918,0.85);
#918 = AXIS2_PLACEMENT_3D('',#919,#920,#921);
#919 = CARTESIAN_POINT('',(-18.,-77.87558259911,22.994541138341));
#920 = DIRECTION('',(1.,0.,0.));
#921 = DIRECTION('',(-0.,1.,0.));
#922 = ORIENTED_EDGE('',*,*,#923,.F.);
#923 = EDGE_CURVE('',#924,#913,#926,.T.);
#924 = VERTEX_POINT('',#925);
#925 = CARTESIAN_POINT('',(-18.,-77.62558259911,23.844541138341));
#926 = LINE('',#927,#928);
#927 = CARTESIAN_POINT('',(-18.,-94.30058259911,23.844541138341));
#928 = VECTOR('',#929,1.);
#929 = DIRECTION('',(0.,-1.,0.));
#930 = ORIENTED_EDGE('',*,*,#931,.F.);
#931 = EDGE_CURVE('',#932,#924,#934,.T.);
#932 = VERTEX_POINT('',#933);
#933 = CARTESIAN_POINT('',(-18.,-76.77558259911,22.994541138341));
#934 = CIRCLE('',#935,0.85);
#935 = AXIS2_PLACEMENT_3D('',#936,#937,#938);
#936 = CARTESIAN_POINT('',(-18.,-77.62558259911,22.994541138341));
#937 = DIRECTION('',(1.,0.,0.));
#938 = DIRECTION('',(-0.,1.,0.));
#939 = ORIENTED_EDGE('',*,*,#940,.F.);
#940 = EDGE_CURVE('',#941,#932,#943,.T.);
#941 = VERTEX_POINT('',#942);
#942 = CARTESIAN_POINT('',(-18.,-77.62558259911,22.144541138341));
#943 = CIRCLE('',#944,0.85);
#944 = AXIS2_PLACEMENT_3D('',#945,#946,#947);
#945 = CARTESIAN_POINT('',(-18.,-77.62558259911,22.994541138341));
#946 = DIRECTION('',(1.,0.,0.));
#947 = DIRECTION('',(-0.,1.,0.));
#948 = ORIENTED_EDGE('',*,*,#949,.T.);
#949 = EDGE_CURVE('',#941,#915,#950,.T.);
#950 = LINE('',#951,#952);
#951 = CARTESIAN_POINT('',(-18.,-94.30058259911,22.144541138341));
#952 = VECTOR('',#953,1.);
#953 = DIRECTION('',(0.,-1.,0.));
#954 = PLANE('',#955);
#955 = AXIS2_PLACEMENT_3D('',#956,#957,#958);
#956 = CARTESIAN_POINT('',(-18.,-87.80541878603,10.161227408307));
#957 = DIRECTION('',(1.,0.,0.));
#958 = DIRECTION('',(-0.,0.,1.));
#959 = ADVANCED_FACE('',(#960),#985,.T.);
#960 = FACE_BOUND('',#961,.T.);
#961 = EDGE_LOOP('',(#962,#970,#978,#984));
#962 = ORIENTED_EDGE('',*,*,#963,.F.);
#963 = EDGE_CURVE('',#964,#834,#966,.T.);
#964 = VERTEX_POINT('',#965);
#965 = CARTESIAN_POINT('',(-23.,-79.97558259911,16.644541138341));
#966 = LINE('',#967,#968);
#967 = CARTESIAN_POINT('',(-24.,-79.97558259911,16.644541138341));
#968 = VECTOR('',#969,1.);
#969 = DIRECTION('',(1.,0.,0.));
#970 = ORIENTED_EDGE('',*,*,#971,.T.);
#971 = EDGE_CURVE('',#964,#972,#974,.T.);
#972 = VERTEX_POINT('',#973);
#973 = CARTESIAN_POINT('',(-23.,-103.2755825991,16.644541138341));
#974 = LINE('',#975,#976);
#975 = CARTESIAN_POINT('',(-23.,-107.0005825991,16.644541138341));
#976 = VECTOR('',#977,1.);
#977 = DIRECTION('',(0.,-1.,0.));
#978 = ORIENTED_EDGE('',*,*,#979,.T.);
#979 = EDGE_CURVE('',#972,#836,#980,.T.);
#980 = LINE('',#981,#982);
#981 = CARTESIAN_POINT('',(-24.,-103.2755825991,16.644541138341));
#982 = VECTOR('',#983,1.);
#983 = DIRECTION('',(1.,0.,0.));
#984 = ORIENTED_EDGE('',*,*,#833,.F.);
#985 = PLANE('',#986);
#986 = AXIS2_PLACEMENT_3D('',#987,#988,#989);
#987 = CARTESIAN_POINT('',(-24.,-103.2755825991,16.644541138341));
#988 = DIRECTION('',(0.,0.,1.));
#989 = DIRECTION('',(1.,0.,0.));
#990 = ADVANCED_FACE('',(#991),#1009,.F.);
#991 = FACE_BOUND('',#992,.F.);
#992 = EDGE_LOOP('',(#993,#994,#1002,#1008));
#993 = ORIENTED_EDGE('',*,*,#963,.F.);
#994 = ORIENTED_EDGE('',*,*,#995,.T.);
#995 = EDGE_CURVE('',#964,#996,#998,.T.);
#996 = VERTEX_POINT('',#997);
#997 = CARTESIAN_POINT('',(-23.,-79.97558259911,29.344541138341));
#998 = LINE('',#999,#1000);
#999 = CARTESIAN_POINT('',(-23.,-79.97558259911,15.269541138341));
#1000 = VECTOR('',#1001,1.);
#1001 = DIRECTION('',(0.,0.,1.));
#1002 = ORIENTED_EDGE('',*,*,#1003,.T.);
#1003 = EDGE_CURVE('',#996,#852,#1004,.T.);
#1004 = LINE('',#1005,#1006);
#1005 = CARTESIAN_POINT('',(-24.,-79.97558259911,29.344541138341));
#1006 = VECTOR('',#1007,1.);
#1007 = DIRECTION('',(1.,0.,0.));
#1008 = ORIENTED_EDGE('',*,*,#859,.F.);
#1009 = PLANE('',#1010);
#1010 = AXIS2_PLACEMENT_3D('',#1011,#1012,#1013);
#1011 = CARTESIAN_POINT('',(-24.,-79.97558259911,16.644541138341));
#1012 = DIRECTION('',(0.,1.,0.));
#1013 = DIRECTION('',(1.,0.,0.));
#1014 = ADVANCED_FACE('',(#1015),#1033,.F.);
#1015 = FACE_BOUND('',#1016,.F.);
#1016 = EDGE_LOOP('',(#1017,#1018,#1026,#1032));
#1017 = ORIENTED_EDGE('',*,*,#1003,.F.);
#1018 = ORIENTED_EDGE('',*,*,#1019,.T.);
#1019 = EDGE_CURVE('',#996,#1020,#1022,.T.);
#1020 = VERTEX_POINT('',#1021);
#1021 = CARTESIAN_POINT('',(-23.,-103.2755825991,29.344541138341));
#1022 = LINE('',#1023,#1024);
#1023 = CARTESIAN_POINT('',(-23.,-107.0005825991,29.344541138341));
#1024 = VECTOR('',#1025,1.);
#1025 = DIRECTION('',(0.,-1.,0.));
#1026 = ORIENTED_EDGE('',*,*,#1027,.T.);
#1027 = EDGE_CURVE('',#1020,#844,#1028,.T.);
#1028 = LINE('',#1029,#1030);
#1029 = CARTESIAN_POINT('',(-24.,-103.2755825991,29.344541138341));
#1030 = VECTOR('',#1031,1.);
#1031 = DIRECTION('',(1.,0.,0.));
#1032 = ORIENTED_EDGE('',*,*,#851,.F.);
#1033 = PLANE('',#1034);
#1034 = AXIS2_PLACEMENT_3D('',#1035,#1036,#1037);
#1035 = CARTESIAN_POINT('',(-24.,-103.2755825991,29.344541138341));
#1036 = DIRECTION('',(0.,0.,1.));
#1037 = DIRECTION('',(1.,0.,0.));
#1038 = ADVANCED_FACE('',(#1039),#1050,.T.);
#1039 = FACE_BOUND('',#1040,.T.);
#1040 = EDGE_LOOP('',(#1041,#1042,#1048,#1049));
#1041 = ORIENTED_EDGE('',*,*,#979,.F.);
#1042 = ORIENTED_EDGE('',*,*,#1043,.T.);
#1043 = EDGE_CURVE('',#972,#1020,#1044,.T.);
#1044 = LINE('',#1045,#1046);
#1045 = CARTESIAN_POINT('',(-23.,-103.2755825991,15.269541138341));
#1046 = VECTOR('',#1047,1.);
#1047 = DIRECTION('',(0.,0.,1.));
#1048 = ORIENTED_EDGE('',*,*,#1027,.T.);
#1049 = ORIENTED_EDGE('',*,*,#843,.F.);
#1050 = PLANE('',#1051);
#1051 = AXIS2_PLACEMENT_3D('',#1052,#1053,#1054);
#1052 = CARTESIAN_POINT('',(-24.,-103.2755825991,16.644541138341));
#1053 = DIRECTION('',(0.,1.,0.));
#1054 = DIRECTION('',(1.,0.,0.));
#1055 = ADVANCED_FACE('',(#1056),#1081,.F.);
#1056 = FACE_BOUND('',#1057,.F.);
#1057 = EDGE_LOOP('',(#1058,#1068,#1074,#1075));
#1058 = ORIENTED_EDGE('',*,*,#1059,.T.);
#1059 = EDGE_CURVE('',#1060,#1062,#1064,.T.);
#1060 = VERTEX_POINT('',#1061);
#1061 = CARTESIAN_POINT('',(-23.,-105.3755825991,23.844541138341));
#1062 = VERTEX_POINT('',#1063);
#1063 = CARTESIAN_POINT('',(-23.,-105.6255825991,23.844541138341));
#1064 = LINE('',#1065,#1066);
#1065 = CARTESIAN_POINT('',(-23.,-108.1755825991,23.844541138341));
#1066 = VECTOR('',#1067,1.);
#1067 = DIRECTION('',(0.,-1.,0.));
#1068 = ORIENTED_EDGE('',*,*,#1069,.T.);
#1069 = EDGE_CURVE('',#1062,#896,#1070,.T.);
#1070 = LINE('',#1071,#1072);
#1071 = CARTESIAN_POINT('',(-24.,-105.6255825991,23.844541138341));
#1072 = VECTOR('',#1073,1.);
#1073 = DIRECTION('',(1.,0.,0.));
#1074 = ORIENTED_EDGE('',*,*,#904,.F.);
#1075 = ORIENTED_EDGE('',*,*,#1076,.F.);
#1076 = EDGE_CURVE('',#1060,#870,#1077,.T.);
#1077 = LINE('',#1078,#1079);
#1078 = CARTESIAN_POINT('',(-24.,-105.3755825991,23.844541138341));
#1079 = VECTOR('',#1080,1.);
#1080 = DIRECTION('',(1.,0.,0.));
#1081 = PLANE('',#1082);
#1082 = AXIS2_PLACEMENT_3D('',#1083,#1084,#1085);
#1083 = CARTESIAN_POINT('',(-24.,-105.6255825991,23.844541138341));
#1084 = DIRECTION('',(0.,0.,1.));
#1085 = DIRECTION('',(1.,0.,0.));
#1086 = ADVANCED_FACE('',(#1087),#1106,.F.);
#1087 = FACE_BOUND('',#1088,.F.);
#1088 = EDGE_LOOP('',(#1089,#1090,#1091,#1100));
#1089 = ORIENTED_EDGE('',*,*,#895,.F.);
#1090 = ORIENTED_EDGE('',*,*,#1069,.F.);
#1091 = ORIENTED_EDGE('',*,*,#1092,.T.);
#1092 = EDGE_CURVE('',#1062,#1093,#1095,.T.);
#1093 = VERTEX_POINT('',#1094);
#1094 = CARTESIAN_POINT('',(-23.,-105.6255825991,22.144541138341));
#1095 = CIRCLE('',#1096,0.85);
#1096 = AXIS2_PLACEMENT_3D('',#1097,#1098,#1099);
#1097 = CARTESIAN_POINT('',(-23.,-105.6255825991,22.994541138341));
#1098 = DIRECTION('',(1.,0.,0.));
#1099 = DIRECTION('',(-0.,1.,0.));
#1100 = ORIENTED_EDGE('',*,*,#1101,.T.);
#1101 = EDGE_CURVE('',#1093,#888,#1102,.T.);
#1102 = LINE('',#1103,#1104);
#1103 = CARTESIAN_POINT('',(-24.,-105.6255825991,22.144541138341));
#1104 = VECTOR('',#1105,1.);
#1105 = DIRECTION('',(1.,0.,0.));
#1106 = CYLINDRICAL_SURFACE('',#1107,0.85);
#1107 = AXIS2_PLACEMENT_3D('',#1108,#1109,#1110);
#1108 = CARTESIAN_POINT('',(-24.,-105.6255825991,22.994541138341));
#1109 = DIRECTION('',(1.,0.,0.));
#1110 = DIRECTION('',(0.,1.,0.));
#1111 = ADVANCED_FACE('',(#1112),#1130,.T.);
#1112 = FACE_BOUND('',#1113,.T.);
#1113 = EDGE_LOOP('',(#1114,#1122,#1123,#1124));
#1114 = ORIENTED_EDGE('',*,*,#1115,.T.);
#1115 = EDGE_CURVE('',#1116,#1093,#1118,.T.);
#1116 = VERTEX_POINT('',#1117);
#1117 = CARTESIAN_POINT('',(-23.,-105.3755825991,22.144541138341));
#1118 = LINE('',#1119,#1120);
#1119 = CARTESIAN_POINT('',(-23.,-108.1755825991,22.144541138341));
#1120 = VECTOR('',#1121,1.);
#1121 = DIRECTION('',(0.,-1.,0.));
#1122 = ORIENTED_EDGE('',*,*,#1101,.T.);
#1123 = ORIENTED_EDGE('',*,*,#887,.F.);
#1124 = ORIENTED_EDGE('',*,*,#1125,.F.);
#1125 = EDGE_CURVE('',#1116,#879,#1126,.T.);
#1126 = LINE('',#1127,#1128);
#1127 = CARTESIAN_POINT('',(-24.,-105.3755825991,22.144541138341));
#1128 = VECTOR('',#1129,1.);
#1129 = DIRECTION('',(1.,0.,0.));
#1130 = PLANE('',#1131);
#1131 = AXIS2_PLACEMENT_3D('',#1132,#1133,#1134);
#1132 = CARTESIAN_POINT('',(-24.,-105.6255825991,22.144541138341));
#1133 = DIRECTION('',(0.,0.,1.));
#1134 = DIRECTION('',(1.,0.,0.));
#1135 = ADVANCED_FACE('',(#1136),#1162,.F.);
#1136 = FACE_BOUND('',#1137,.F.);
#1137 = EDGE_LOOP('',(#1138,#1139,#1147,#1156));
#1138 = ORIENTED_EDGE('',*,*,#912,.F.);
#1139 = ORIENTED_EDGE('',*,*,#1140,.F.);
#1140 = EDGE_CURVE('',#1141,#913,#1143,.T.);
#1141 = VERTEX_POINT('',#1142);
#1142 = CARTESIAN_POINT('',(-23.,-77.87558259911,23.844541138341));
#1143 = LINE('',#1144,#1145);
#1144 = CARTESIAN_POINT('',(-24.,-77.87558259911,23.844541138341));
#1145 = VECTOR('',#1146,1.);
#1146 = DIRECTION('',(1.,0.,0.));
#1147 = ORIENTED_EDGE('',*,*,#1148,.T.);
#1148 = EDGE_CURVE('',#1141,#1149,#1151,.T.);
#1149 = VERTEX_POINT('',#1150);
#1150 = CARTESIAN_POINT('',(-23.,-77.87558259911,22.144541138341));
#1151 = CIRCLE('',#1152,0.85);
#1152 = AXIS2_PLACEMENT_3D('',#1153,#1154,#1155);
#1153 = CARTESIAN_POINT('',(-23.,-77.87558259911,22.994541138341));
#1154 = DIRECTION('',(1.,0.,0.));
#1155 = DIRECTION('',(-0.,1.,0.));
#1156 = ORIENTED_EDGE('',*,*,#1157,.T.);
#1157 = EDGE_CURVE('',#1149,#915,#1158,.T.);
#1158 = LINE('',#1159,#1160);
#1159 = CARTESIAN_POINT('',(-24.,-77.87558259911,22.144541138341));
#1160 = VECTOR('',#1161,1.);
#1161 = DIRECTION('',(1.,0.,0.));
#1162 = CYLINDRICAL_SURFACE('',#1163,0.85);
#1163 = AXIS2_PLACEMENT_3D('',#1164,#1165,#1166);
#1164 = CARTESIAN_POINT('',(-24.,-77.87558259911,22.994541138341));
#1165 = DIRECTION('',(1.,0.,0.));
#1166 = DIRECTION('',(0.,1.,0.));
#1167 = ADVANCED_FACE('',(#1168),#1186,.T.);
#1168 = FACE_BOUND('',#1169,.T.);
#1169 = EDGE_LOOP('',(#1170,#1178,#1179,#1180));
#1170 = ORIENTED_EDGE('',*,*,#1171,.T.);
#1171 = EDGE_CURVE('',#1172,#1149,#1174,.T.);
#1172 = VERTEX_POINT('',#1173);
#1173 = CARTESIAN_POINT('',(-23.,-77.62558259911,22.144541138341));
#1174 = LINE('',#1175,#1176);
#1175 = CARTESIAN_POINT('',(-23.,-94.30058259911,22.144541138341));
#1176 = VECTOR('',#1177,1.);
#1177 = DIRECTION('',(0.,-1.,0.));
#1178 = ORIENTED_EDGE('',*,*,#1157,.T.);
#1179 = ORIENTED_EDGE('',*,*,#949,.F.);
#1180 = ORIENTED_EDGE('',*,*,#1181,.F.);
#1181 = EDGE_CURVE('',#1172,#941,#1182,.T.);
#1182 = LINE('',#1183,#1184);
#1183 = CARTESIAN_POINT('',(-24.,-77.62558259911,22.144541138341));
#1184 = VECTOR('',#1185,1.);
#1185 = DIRECTION('',(1.,0.,0.));
#1186 = PLANE('',#1187);
#1187 = AXIS2_PLACEMENT_3D('',#1188,#1189,#1190);
#1188 = CARTESIAN_POINT('',(-24.,-77.87558259911,22.144541138341));
#1189 = DIRECTION('',(0.,0.,1.));
#1190 = DIRECTION('',(1.,0.,0.));
#1191 = ADVANCED_FACE('',(#1192),#1210,.F.);
#1192 = FACE_BOUND('',#1193,.F.);
#1193 = EDGE_LOOP('',(#1194,#1202,#1203,#1204));
#1194 = ORIENTED_EDGE('',*,*,#1195,.T.);
#1195 = EDGE_CURVE('',#1196,#1141,#1198,.T.);
#1196 = VERTEX_POINT('',#1197);
#1197 = CARTESIAN_POINT('',(-23.,-77.62558259911,23.844541138341));
#1198 = LINE('',#1199,#1200);
#1199 = CARTESIAN_POINT('',(-23.,-94.30058259911,23.844541138341));
#1200 = VECTOR('',#1201,1.);
#1201 = DIRECTION('',(0.,-1.,0.));
#1202 = ORIENTED_EDGE('',*,*,#1140,.T.);
#1203 = ORIENTED_EDGE('',*,*,#923,.F.);
#1204 = ORIENTED_EDGE('',*,*,#1205,.F.);
#1205 = EDGE_CURVE('',#1196,#924,#1206,.T.);
#1206 = LINE('',#1207,#1208);
#1207 = CARTESIAN_POINT('',(-24.,-77.62558259911,23.844541138341));
#1208 = VECTOR('',#1209,1.);
#1209 = DIRECTION('',(1.,0.,0.));
#1210 = PLANE('',#1211);
#1211 = AXIS2_PLACEMENT_3D('',#1212,#1213,#1214);
#1212 = CARTESIAN_POINT('',(-24.,-77.87558259911,23.844541138341));
#1213 = DIRECTION('',(0.,0.,1.));
#1214 = DIRECTION('',(1.,0.,0.));
#1215 = ADVANCED_FACE('',(#1216),#1240,.T.);
#1216 = FACE_BOUND('',#1217,.T.);
#1217 = EDGE_LOOP('',(#1218,#1219,#1220,#1228,#1234,#1235,#1236,#1237,
    #1238,#1239));
#1218 = ORIENTED_EDGE('',*,*,#462,.F.);
#1219 = ORIENTED_EDGE('',*,*,#661,.F.);
#1220 = ORIENTED_EDGE('',*,*,#1221,.T.);
#1221 = EDGE_CURVE('',#662,#1222,#1224,.T.);
#1222 = VERTEX_POINT('',#1223);
#1223 = CARTESIAN_POINT('',(-23.,-72.52558259911,12.));
#1224 = LINE('',#1225,#1226);
#1225 = CARTESIAN_POINT('',(-23.,-113.7922885887,12.));
#1226 = VECTOR('',#1227,1.);
#1227 = DIRECTION('',(-0.,1.,0.));
#1228 = ORIENTED_EDGE('',*,*,#1229,.F.);
#1229 = EDGE_CURVE('',#808,#1222,#1230,.T.);
#1230 = LINE('',#1231,#1232);
#1231 = CARTESIAN_POINT('',(-24.,-72.52558259911,12.));
#1232 = VECTOR('',#1233,1.);
#1233 = DIRECTION('',(-1.,-0.,0.));
#1234 = ORIENTED_EDGE('',*,*,#807,.T.);
#1235 = ORIENTED_EDGE('',*,*,#63,.T.);
#1236 = ORIENTED_EDGE('',*,*,#790,.F.);
#1237 = ORIENTED_EDGE('',*,*,#513,.F.);
#1238 = ORIENTED_EDGE('',*,*,#751,.T.);
#1239 = ORIENTED_EDGE('',*,*,#391,.F.);
#1240 = PLANE('',#1241);
#1241 = AXIS2_PLACEMENT_3D('',#1242,#1243,#1244);
#1242 = CARTESIAN_POINT('',(-0.607236666264,-77.80602147795,12.));
#1243 = DIRECTION('',(0.,0.,1.));
#1244 = DIRECTION('',(1.,0.,-0.));
#1245 = ADVANCED_FACE('',(#1246,#1261,#1264),#1267,.T.);
#1246 = FACE_BOUND('',#1247,.T.);
#1247 = EDGE_LOOP('',(#1248,#1249,#1250,#1256,#1257,#1258,#1259,#1260));
#1248 = ORIENTED_EDGE('',*,*,#203,.F.);
#1249 = ORIENTED_EDGE('',*,*,#767,.F.);
#1250 = ORIENTED_EDGE('',*,*,#1251,.F.);
#1251 = EDGE_CURVE('',#431,#760,#1252,.T.);
#1252 = LINE('',#1253,#1254);
#1253 = CARTESIAN_POINT('',(18.,-116.8589945783,7.));
#1254 = VECTOR('',#1255,1.);
#1255 = DIRECTION('',(1.,0.,-0.));
#1256 = ORIENTED_EDGE('',*,*,#430,.T.);
#1257 = ORIENTED_EDGE('',*,*,#234,.F.);
#1258 = ORIENTED_EDGE('',*,*,#825,.T.);
#1259 = ORIENTED_EDGE('',*,*,#479,.T.);
#1260 = ORIENTED_EDGE('',*,*,#783,.F.);
#1261 = FACE_BOUND('',#1262,.T.);
#1262 = EDGE_LOOP('',(#1263));
#1263 = ORIENTED_EDGE('',*,*,#620,.T.);
#1264 = FACE_BOUND('',#1265,.T.);
#1265 = EDGE_LOOP('',(#1266));
#1266 = ORIENTED_EDGE('',*,*,#645,.T.);
#1267 = PLANE('',#1268);
#1268 = AXIS2_PLACEMENT_3D('',#1269,#1270,#1271);
#1269 = CARTESIAN_POINT('',(0.,-111.3571018636,7.));
#1270 = DIRECTION('',(-0.,-0.,-1.));
#1271 = DIRECTION('',(-1.,0.,0.));
#1272 = ADVANCED_FACE('',(#1273),#1279,.T.);
#1273 = FACE_BOUND('',#1274,.T.);
#1274 = EDGE_LOOP('',(#1275,#1276,#1277,#1278));
#1275 = ORIENTED_EDGE('',*,*,#1251,.T.);
#1276 = ORIENTED_EDGE('',*,*,#759,.T.);
#1277 = ORIENTED_EDGE('',*,*,#544,.F.);
#1278 = ORIENTED_EDGE('',*,*,#438,.F.);
#1279 = PLANE('',#1280);
#1280 = AXIS2_PLACEMENT_3D('',#1281,#1282,#1283);
#1281 = CARTESIAN_POINT('',(0.,-116.8589945783,12.));
#1282 = DIRECTION('',(-0.,-1.,-0.));
#1283 = DIRECTION('',(0.,0.,-1.));
#1284 = ADVANCED_FACE('',(#1285),#1296,.T.);
#1285 = FACE_BOUND('',#1286,.T.);
#1286 = EDGE_LOOP('',(#1287,#1288,#1294,#1295));
#1287 = ORIENTED_EDGE('',*,*,#1229,.T.);
#1288 = ORIENTED_EDGE('',*,*,#1289,.T.);
#1289 = EDGE_CURVE('',#1222,#717,#1290,.T.);
#1290 = LINE('',#1291,#1292);
#1291 = CARTESIAN_POINT('',(-23.,-72.52558259911,7.));
#1292 = VECTOR('',#1293,1.);
#1293 = DIRECTION('',(0.,0.,1.));
#1294 = ORIENTED_EDGE('',*,*,#733,.T.);
#1295 = ORIENTED_EDGE('',*,*,#815,.F.);
#1296 = PLANE('',#1297);
#1297 = AXIS2_PLACEMENT_3D('',#1298,#1299,#1300);
#1298 = CARTESIAN_POINT('',(-20.5,-72.52558259911,22.04727056917));
#1299 = DIRECTION('',(0.,1.,2.754741715838E-16));
#1300 = DIRECTION('',(0.,-2.754741715838E-16,1.));
#1301 = ADVANCED_FACE('',(#1302,#1310,#1316,#1337),#1358,.T.);
#1302 = FACE_BOUND('',#1303,.T.);
#1303 = EDGE_LOOP('',(#1304,#1305,#1306,#1307,#1308,#1309));
#1304 = ORIENTED_EDGE('',*,*,#1289,.F.);
#1305 = ORIENTED_EDGE('',*,*,#1221,.F.);
#1306 = ORIENTED_EDGE('',*,*,#671,.F.);
#1307 = ORIENTED_EDGE('',*,*,#575,.F.);
#1308 = ORIENTED_EDGE('',*,*,#686,.T.);
#1309 = ORIENTED_EDGE('',*,*,#716,.T.);
#1310 = FACE_BOUND('',#1311,.T.);
#1311 = EDGE_LOOP('',(#1312,#1313,#1314,#1315));
#1312 = ORIENTED_EDGE('',*,*,#971,.F.);
#1313 = ORIENTED_EDGE('',*,*,#995,.T.);
#1314 = ORIENTED_EDGE('',*,*,#1019,.T.);
#1315 = ORIENTED_EDGE('',*,*,#1043,.F.);
#1316 = FACE_BOUND('',#1317,.T.);
#1317 = EDGE_LOOP('',(#1318,#1327,#1328,#1329,#1330));
#1318 = ORIENTED_EDGE('',*,*,#1319,.T.);
#1319 = EDGE_CURVE('',#1320,#1060,#1322,.T.);
#1320 = VERTEX_POINT('',#1321);
#1321 = CARTESIAN_POINT('',(-23.,-104.5255825991,22.994541138341));
#1322 = CIRCLE('',#1323,0.85);
#1323 = AXIS2_PLACEMENT_3D('',#1324,#1325,#1326);
#1324 = CARTESIAN_POINT('',(-23.,-105.3755825991,22.994541138341));
#1325 = DIRECTION('',(1.,0.,0.));
#1326 = DIRECTION('',(-0.,1.,0.));
#1327 = ORIENTED_EDGE('',*,*,#1059,.T.);
#1328 = ORIENTED_EDGE('',*,*,#1092,.T.);
#1329 = ORIENTED_EDGE('',*,*,#1115,.F.);
#1330 = ORIENTED_EDGE('',*,*,#1331,.T.);
#1331 = EDGE_CURVE('',#1116,#1320,#1332,.T.);
#1332 = CIRCLE('',#1333,0.85);
#1333 = AXIS2_PLACEMENT_3D('',#1334,#1335,#1336);
#1334 = CARTESIAN_POINT('',(-23.,-105.3755825991,22.994541138341));
#1335 = DIRECTION('',(1.,0.,0.));
#1336 = DIRECTION('',(-0.,1.,0.));
#1337 = FACE_BOUND('',#1338,.T.);
#1338 = EDGE_LOOP('',(#1339,#1340,#1341,#1350,#1357));
#1339 = ORIENTED_EDGE('',*,*,#1148,.T.);
#1340 = ORIENTED_EDGE('',*,*,#1171,.F.);
#1341 = ORIENTED_EDGE('',*,*,#1342,.T.);
#1342 = EDGE_CURVE('',#1172,#1343,#1345,.T.);
#1343 = VERTEX_POINT('',#1344);
#1344 = CARTESIAN_POINT('',(-23.,-76.77558259911,22.994541138341));
#1345 = CIRCLE('',#1346,0.85);
#1346 = AXIS2_PLACEMENT_3D('',#1347,#1348,#1349);
#1347 = CARTESIAN_POINT('',(-23.,-77.62558259911,22.994541138341));
#1348 = DIRECTION('',(1.,0.,0.));
#1349 = DIRECTION('',(-0.,1.,0.));
#1350 = ORIENTED_EDGE('',*,*,#1351,.T.);
#1351 = EDGE_CURVE('',#1343,#1196,#1352,.T.);
#1352 = CIRCLE('',#1353,0.85);
#1353 = AXIS2_PLACEMENT_3D('',#1354,#1355,#1356);
#1354 = CARTESIAN_POINT('',(-23.,-77.62558259911,22.994541138341));
#1355 = DIRECTION('',(1.,0.,0.));
#1356 = DIRECTION('',(-0.,1.,0.));
#1357 = ORIENTED_EDGE('',*,*,#1195,.T.);
#1358 = PLANE('',#1359);
#1359 = AXIS2_PLACEMENT_3D('',#1360,#1361,#1362);
#1360 = CARTESIAN_POINT('',(-23.,-91.33110442471,22.341748743572));
#1361 = DIRECTION('',(-1.,-0.,-0.));
#1362 = DIRECTION('',(0.,0.,-1.));
#1363 = ADVANCED_FACE('',(#1364),#1372,.F.);
#1364 = FACE_BOUND('',#1365,.F.);
#1365 = EDGE_LOOP('',(#1366,#1367,#1368,#1369,#1370,#1371));
#1366 = ORIENTED_EDGE('',*,*,#1125,.F.);
#1367 = ORIENTED_EDGE('',*,*,#1331,.T.);
#1368 = ORIENTED_EDGE('',*,*,#1319,.T.);
#1369 = ORIENTED_EDGE('',*,*,#1076,.T.);
#1370 = ORIENTED_EDGE('',*,*,#867,.F.);
#1371 = ORIENTED_EDGE('',*,*,#878,.F.);
#1372 = CYLINDRICAL_SURFACE('',#1373,0.85);
#1373 = AXIS2_PLACEMENT_3D('',#1374,#1375,#1376);
#1374 = CARTESIAN_POINT('',(-24.,-105.3755825991,22.994541138341));
#1375 = DIRECTION('',(1.,0.,0.));
#1376 = DIRECTION('',(0.,1.,0.));
#1377 = ADVANCED_FACE('',(#1378),#1386,.F.);
#1378 = FACE_BOUND('',#1379,.F.);
#1379 = EDGE_LOOP('',(#1380,#1381,#1382,#1383,#1384,#1385));
#1380 = ORIENTED_EDGE('',*,*,#1205,.T.);
#1381 = ORIENTED_EDGE('',*,*,#931,.F.);
#1382 = ORIENTED_EDGE('',*,*,#940,.F.);
#1383 = ORIENTED_EDGE('',*,*,#1181,.F.);
#1384 = ORIENTED_EDGE('',*,*,#1342,.T.);
#1385 = ORIENTED_EDGE('',*,*,#1351,.T.);
#1386 = CYLINDRICAL_SURFACE('',#1387,0.85);
#1387 = AXIS2_PLACEMENT_3D('',#1388,#1389,#1390);
#1388 = CARTESIAN_POINT('',(-24.,-77.62558259911,22.994541138341));
#1389 = DIRECTION('',(1.,0.,0.));
#1390 = DIRECTION('',(0.,1.,0.));
#1391 = ( GEOMETRIC_REPRESENTATION_CONTEXT(3) 
GLOBAL_UNCERTAINTY_ASSIGNED_CONTEXT((#1395)) 
GLOBAL_UNIT_ASSIGNED_CONTEXT((#1392,#1393,#1394)) REPRESENTATION_CONTEXT
('Context #1','3D Context with UNIT and UNCERTAINTY') );
#1392 = ( LENGTH_UNIT() NAMED_UNIT(*) SI_UNIT(.MILLI.,.METRE.) );
#1393 = ( NAMED_UNIT(*) PLANE_ANGLE_UNIT() SI_UNIT($,.RADIAN.) );
#1394 = ( NAMED_UNIT(*) SI_UNIT($,.STERADIAN.) SOLID_ANGLE_UNIT() );
#1395 = UNCERTAINTY_MEASURE_WITH_UNIT(LENGTH_MEASURE(2.E-07),#1392,
  'distance_accuracy_value','confusion accuracy');
#1396 = PRODUCT_RELATED_PRODUCT_CATEGORY('part',$,(#7));
ENDSEC;
END-ISO-10303-21;
