ISO-10303-21;
HEADER;
FILE_DESCRIPTION(('FreeCAD Model'),'2;1');
FILE_NAME('Open CASCADE Shape Model','2026-10-10T20:43:05',('FreeCAD'),(
    'FreeCAD'),'Open CASCADE STEP processor 7.8','FreeCAD','Unknown');
FILE_SCHEMA(('AUTOMOTIVE_DESIGN { 1 0 10303 214 1 1 1 1 }'));
ENDSEC;
DATA;
#1 = APPLICATION_PROTOCOL_DEFINITION('international standard',
  'automotive_design',2000,#2);
#2 = APPLICATION_CONTEXT(
  'core data for automotive mechanical design processes');
#3 = SHAPE_DEFINITION_REPRESENTATION(#4,#10);
#4 = PRODUCT_DEFINITION_SHAPE('','',#5);
#5 = PRODUCT_DEFINITION('design','',#6,#9);
#6 = PRODUCT_DEFINITION_FORMATION('','',#7);
#7 = PRODUCT('Open CASCADE STEP translator 7.8 11',
  'Open CASCADE STEP translator 7.8 11','',(#8));
#8 = PRODUCT_CONTEXT('',#2,'mechanical');
#9 = PRODUCT_DEFINITION_CONTEXT('part definition',#2,'design');
#10 = ADVANCED_BREP_SHAPE_REPRESENTATION('',(#11,#15),#1901);
#11 = AXIS2_PLACEMENT_3D('',#12,#13,#14);
#12 = CARTESIAN_POINT('',(0.,0.,0.));
#13 = DIRECTION('',(0.,0.,1.));
#14 = DIRECTION('',(1.,0.,-0.));
#15 = MANIFOLD_SOLID_BREP('',#16);
#16 = CLOSED_SHELL('',(#17,#57,#132,#163,#188,#213,#238,#263,#407,#524,
    #555,#663,#685,#702,#726,#748,#779,#810,#834,#858,#875,#906,#949,
    #973,#990,#1002,#1019,#1036,#1067,#1096,#1151,#1182,#1206,#1230,
    #1247,#1259,#1378,#1420,#1444,#1487,#1518,#1568,#1592,#1627,#1658,
    #1690,#1714,#1739,#1751,#1768,#1789,#1801,#1818,#1830,#1873,#1887));
#17 = ADVANCED_FACE('',(#18),#52,.F.);
#18 = FACE_BOUND('',#19,.F.);
#19 = EDGE_LOOP('',(#20,#30,#38,#46));
#20 = ORIENTED_EDGE('',*,*,#21,.T.);
#21 = EDGE_CURVE('',#22,#24,#26,.T.);
#22 = VERTEX_POINT('',#23);
#23 = CARTESIAN_POINT('',(-10.,-93.38272580835,-6.911635239242));
#24 = VERTEX_POINT('',#25);
#25 = CARTESIAN_POINT('',(10.,-93.38272580835,-6.911635239242));
#26 = LINE('',#27,#28);
#27 = CARTESIAN_POINT('',(-10.,-93.38272580835,-6.911635239242));
#28 = VECTOR('',#29,1.);
#29 = DIRECTION('',(1.,0.,0.));
#30 = ORIENTED_EDGE('',*,*,#31,.T.);
#31 = EDGE_CURVE('',#24,#32,#34,.T.);
#32 = VERTEX_POINT('',#33);
#33 = CARTESIAN_POINT('',(10.,-85.41024502054,-6.137264470235));
#34 = LINE('',#35,#36);
#35 = CARTESIAN_POINT('',(10.,-93.38272580835,-6.911635239242));
#36 = VECTOR('',#37,1.);
#37 = DIRECTION('',(0.,0.995315953535,9.667550174874E-02));
#38 = ORIENTED_EDGE('',*,*,#39,.F.);
#39 = EDGE_CURVE('',#40,#32,#42,.T.);
#40 = VERTEX_POINT('',#41);
#41 = CARTESIAN_POINT('',(-10.,-85.41024502054,-6.137264470235));
#42 = LINE('',#43,#44);
#43 = CARTESIAN_POINT('',(-10.,-85.41024502054,-6.137264470235));
#44 = VECTOR('',#45,1.);
#45 = DIRECTION('',(1.,0.,0.));
#46 = ORIENTED_EDGE('',*,*,#47,.F.);
#47 = EDGE_CURVE('',#22,#40,#48,.T.);
#48 = LINE('',#49,#50);
#49 = CARTESIAN_POINT('',(-10.,-93.38272580835,-6.911635239242));
#50 = VECTOR('',#51,1.);
#51 = DIRECTION('',(0.,0.995315953535,9.667550174874E-02));
#52 = PLANE('',#53);
#53 = AXIS2_PLACEMENT_3D('',#54,#55,#56);
#54 = CARTESIAN_POINT('',(-10.,-93.38272580835,-6.911635239242));
#55 = DIRECTION('',(0.,-9.667550174874E-02,0.995315953535));
#56 = DIRECTION('',(0.,0.995315953535,9.667550174874E-02));
#57 = ADVANCED_FACE('',(#58,#83,#94,#105,#116),#127,.F.);
#58 = FACE_BOUND('',#59,.F.);
#59 = EDGE_LOOP('',(#60,#70,#76,#77));
#60 = ORIENTED_EDGE('',*,*,#61,.T.);
#61 = EDGE_CURVE('',#62,#64,#66,.T.);
#62 = VERTEX_POINT('',#63);
#63 = CARTESIAN_POINT('',(-10.,-94.78452058371,7.520446087018));
#64 = VERTEX_POINT('',#65);
#65 = CARTESIAN_POINT('',(10.,-94.78452058371,7.520446087018));
#66 = LINE('',#67,#68);
#67 = CARTESIAN_POINT('',(-10.,-94.78452058371,7.520446087018));
#68 = VECTOR('',#69,1.);
#69 = DIRECTION('',(1.,0.,0.));
#70 = ORIENTED_EDGE('',*,*,#71,.T.);
#71 = EDGE_CURVE('',#64,#24,#72,.T.);
#72 = LINE('',#73,#74);
#73 = CARTESIAN_POINT('',(10.,-94.78452058371,7.520446087018));
#74 = VECTOR('',#75,1.);
#75 = DIRECTION('',(0.,9.667550174874E-02,-0.995315953535));
#76 = ORIENTED_EDGE('',*,*,#21,.F.);
#77 = ORIENTED_EDGE('',*,*,#78,.F.);
#78 = EDGE_CURVE('',#62,#22,#79,.T.);
#79 = LINE('',#80,#81);
#80 = CARTESIAN_POINT('',(-10.,-94.78452058371,7.520446087018));
#81 = VECTOR('',#82,1.);
#82 = DIRECTION('',(0.,9.667550174874E-02,-0.995315953535));
#83 = FACE_BOUND('',#84,.F.);
#84 = EDGE_LOOP('',(#85));
#85 = ORIENTED_EDGE('',*,*,#86,.T.);
#86 = EDGE_CURVE('',#87,#87,#89,.T.);
#87 = VERTEX_POINT('',#88);
#88 = CARTESIAN_POINT('',(5.,-94.18513247287,1.3494871751));
#89 = CIRCLE('',#90,1.7);
#90 = AXIS2_PLACEMENT_3D('',#91,#92,#93);
#91 = CARTESIAN_POINT('',(5.,-94.34948082584,3.041524296109));
#92 = DIRECTION('',(0.,-0.995315953535,-9.667550174874E-02));
#93 = DIRECTION('',(0.,9.667550174874E-02,-0.995315953535));
#94 = FACE_BOUND('',#95,.F.);
#95 = EDGE_LOOP('',(#96));
#96 = ORIENTED_EDGE('',*,*,#97,.T.);
#97 = EDGE_CURVE('',#98,#98,#100,.T.);
#98 = VERTEX_POINT('',#99);
#99 = CARTESIAN_POINT('',(5.,-93.60507946238,-4.622408546111));
#100 = CIRCLE('',#101,1.7);
#101 = AXIS2_PLACEMENT_3D('',#102,#103,#104);
#102 = CARTESIAN_POINT('',(5.,-93.76942781535,-2.930371425102));
#103 = DIRECTION('',(0.,-0.995315953535,-9.667550174874E-02));
#104 = DIRECTION('',(0.,9.667550174874E-02,-0.995315953535));
#105 = FACE_BOUND('',#106,.F.);
#106 = EDGE_LOOP('',(#107));
#107 = ORIENTED_EDGE('',*,*,#108,.T.);
#108 = EDGE_CURVE('',#109,#109,#111,.T.);
#109 = VERTEX_POINT('',#110);
#110 = CARTESIAN_POINT('',(-5.,-94.18513247287,1.3494871751));
#111 = CIRCLE('',#112,1.7);
#112 = AXIS2_PLACEMENT_3D('',#113,#114,#115);
#113 = CARTESIAN_POINT('',(-5.,-94.34948082584,3.041524296109));
#114 = DIRECTION('',(0.,-0.995315953535,-9.667550174874E-02));
#115 = DIRECTION('',(0.,9.667550174874E-02,-0.995315953535));
#116 = FACE_BOUND('',#117,.F.);
#117 = EDGE_LOOP('',(#118));
#118 = ORIENTED_EDGE('',*,*,#119,.T.);
#119 = EDGE_CURVE('',#120,#120,#122,.T.);
#120 = VERTEX_POINT('',#121);
#121 = CARTESIAN_POINT('',(-5.,-93.60507946238,-4.622408546111));
#122 = CIRCLE('',#123,1.7);
#123 = AXIS2_PLACEMENT_3D('',#124,#125,#126);
#124 = CARTESIAN_POINT('',(-5.,-93.76942781535,-2.930371425102));
#125 = DIRECTION('',(0.,-0.995315953535,-9.667550174874E-02));
#126 = DIRECTION('',(0.,9.667550174874E-02,-0.995315953535));
#127 = PLANE('',#128);
#128 = AXIS2_PLACEMENT_3D('',#129,#130,#131);
#129 = CARTESIAN_POINT('',(-10.,-94.78452058371,7.520446087018));
#130 = DIRECTION('',(-0.,0.995315953535,9.667550174874E-02));
#131 = DIRECTION('',(0.,9.667550174874E-02,-0.995315953535));
#132 = ADVANCED_FACE('',(#133),#158,.F.);
#133 = FACE_BOUND('',#134,.F.);
#134 = EDGE_LOOP('',(#135,#143,#151,#157));
#135 = ORIENTED_EDGE('',*,*,#136,.F.);
#136 = EDGE_CURVE('',#137,#62,#139,.T.);
#137 = VERTEX_POINT('',#138);
#138 = CARTESIAN_POINT('',(-10.,-88.81285180904,8.100477054087));
#139 = LINE('',#140,#141);
#140 = CARTESIAN_POINT('',(-10.,-86.81203979589,8.294816856025));
#141 = VECTOR('',#142,1.);
#142 = DIRECTION('',(0.,-0.995315953535,-9.667550174874E-02));
#143 = ORIENTED_EDGE('',*,*,#144,.T.);
#144 = EDGE_CURVE('',#137,#145,#147,.T.);
#145 = VERTEX_POINT('',#146);
#146 = CARTESIAN_POINT('',(10.,-88.81285180904,8.100477054087));
#147 = LINE('',#148,#149);
#148 = CARTESIAN_POINT('',(-10.,-88.81285180904,8.100477054087));
#149 = VECTOR('',#150,1.);
#150 = DIRECTION('',(1.,0.,0.));
#151 = ORIENTED_EDGE('',*,*,#152,.T.);
#152 = EDGE_CURVE('',#145,#64,#153,.T.);
#153 = LINE('',#154,#155);
#154 = CARTESIAN_POINT('',(10.,-86.81203979589,8.294816856025));
#155 = VECTOR('',#156,1.);
#156 = DIRECTION('',(0.,-0.995315953535,-9.667550174874E-02));
#157 = ORIENTED_EDGE('',*,*,#61,.F.);
#158 = PLANE('',#159);
#159 = AXIS2_PLACEMENT_3D('',#160,#161,#162);
#160 = CARTESIAN_POINT('',(-10.,-86.81203979589,8.294816856025));
#161 = DIRECTION('',(0.,9.667550174874E-02,-0.995315953535));
#162 = DIRECTION('',(0.,-0.995315953535,-9.667550174874E-02));
#163 = ADVANCED_FACE('',(#164),#183,.F.);
#164 = FACE_BOUND('',#165,.F.);
#165 = EDGE_LOOP('',(#166,#167,#175,#182));
#166 = ORIENTED_EDGE('',*,*,#86,.F.);
#167 = ORIENTED_EDGE('',*,*,#168,.F.);
#168 = EDGE_CURVE('',#169,#87,#171,.T.);
#169 = VERTEX_POINT('',#170);
#170 = CARTESIAN_POINT('',(5.,-86.21265168505,2.123857944107));
#171 = LINE('',#172,#173);
#172 = CARTESIAN_POINT('',(5.,-85.21733573152,2.220533445856));
#173 = VECTOR('',#174,1.);
#174 = DIRECTION('',(0.,-0.995315953535,-9.667550174874E-02));
#175 = ORIENTED_EDGE('',*,*,#176,.T.);
#176 = EDGE_CURVE('',#169,#169,#177,.T.);
#177 = CIRCLE('',#178,1.7);
#178 = AXIS2_PLACEMENT_3D('',#179,#180,#181);
#179 = CARTESIAN_POINT('',(5.,-86.37700003802,3.815895065117));
#180 = DIRECTION('',(0.,-0.995315953535,-9.667550174874E-02));
#181 = DIRECTION('',(0.,9.667550174874E-02,-0.995315953535));
#182 = ORIENTED_EDGE('',*,*,#168,.T.);
#183 = CYLINDRICAL_SURFACE('',#184,1.7);
#184 = AXIS2_PLACEMENT_3D('',#185,#186,#187);
#185 = CARTESIAN_POINT('',(5.,-85.38168408449,3.912570566866));
#186 = DIRECTION('',(0.,-0.995315953535,-9.667550174874E-02));
#187 = DIRECTION('',(0.,9.667550174874E-02,-0.995315953535));
#188 = ADVANCED_FACE('',(#189),#208,.F.);
#189 = FACE_BOUND('',#190,.F.);
#190 = EDGE_LOOP('',(#191,#192,#200,#207));
#191 = ORIENTED_EDGE('',*,*,#97,.F.);
#192 = ORIENTED_EDGE('',*,*,#193,.F.);
#193 = EDGE_CURVE('',#194,#98,#196,.T.);
#194 = VERTEX_POINT('',#195);
#195 = CARTESIAN_POINT('',(5.,-85.63259867456,-3.848037777104));
#196 = LINE('',#197,#198);
#197 = CARTESIAN_POINT('',(5.,-84.63728272102,-3.751362275355));
#198 = VECTOR('',#199,1.);
#199 = DIRECTION('',(0.,-0.995315953535,-9.667550174874E-02));
#200 = ORIENTED_EDGE('',*,*,#201,.T.);
#201 = EDGE_CURVE('',#194,#194,#202,.T.);
#202 = CIRCLE('',#203,1.7);
#203 = AXIS2_PLACEMENT_3D('',#204,#205,#206);
#204 = CARTESIAN_POINT('',(5.,-85.79694702753,-2.156000656094));
#205 = DIRECTION('',(0.,-0.995315953535,-9.667550174874E-02));
#206 = DIRECTION('',(0.,9.667550174874E-02,-0.995315953535));
#207 = ORIENTED_EDGE('',*,*,#193,.T.);
#208 = CYLINDRICAL_SURFACE('',#209,1.7);
#209 = AXIS2_PLACEMENT_3D('',#210,#211,#212);
#210 = CARTESIAN_POINT('',(5.,-84.801631074,-2.059325154346));
#211 = DIRECTION('',(0.,-0.995315953535,-9.667550174874E-02));
#212 = DIRECTION('',(0.,9.667550174874E-02,-0.995315953535));
#213 = ADVANCED_FACE('',(#214),#233,.F.);
#214 = FACE_BOUND('',#215,.F.);
#215 = EDGE_LOOP('',(#216,#217,#225,#232));
#216 = ORIENTED_EDGE('',*,*,#108,.F.);
#217 = ORIENTED_EDGE('',*,*,#218,.F.);
#218 = EDGE_CURVE('',#219,#109,#221,.T.);
#219 = VERTEX_POINT('',#220);
#220 = CARTESIAN_POINT('',(-5.,-86.21265168505,2.123857944107));
#221 = LINE('',#222,#223);
#222 = CARTESIAN_POINT('',(-5.,-85.21733573152,2.220533445856));
#223 = VECTOR('',#224,1.);
#224 = DIRECTION('',(0.,-0.995315953535,-9.667550174874E-02));
#225 = ORIENTED_EDGE('',*,*,#226,.T.);
#226 = EDGE_CURVE('',#219,#219,#227,.T.);
#227 = CIRCLE('',#228,1.7);
#228 = AXIS2_PLACEMENT_3D('',#229,#230,#231);
#229 = CARTESIAN_POINT('',(-5.,-86.37700003802,3.815895065117));
#230 = DIRECTION('',(0.,-0.995315953535,-9.667550174874E-02));
#231 = DIRECTION('',(0.,9.667550174874E-02,-0.995315953535));
#232 = ORIENTED_EDGE('',*,*,#218,.T.);
#233 = CYLINDRICAL_SURFACE('',#234,1.7);
#234 = AXIS2_PLACEMENT_3D('',#235,#236,#237);
#235 = CARTESIAN_POINT('',(-5.,-85.38168408449,3.912570566866));
#236 = DIRECTION('',(0.,-0.995315953535,-9.667550174874E-02));
#237 = DIRECTION('',(0.,9.667550174874E-02,-0.995315953535));
#238 = ADVANCED_FACE('',(#239),#258,.F.);
#239 = FACE_BOUND('',#240,.F.);
#240 = EDGE_LOOP('',(#241,#242,#250,#257));
#241 = ORIENTED_EDGE('',*,*,#119,.F.);
#242 = ORIENTED_EDGE('',*,*,#243,.F.);
#243 = EDGE_CURVE('',#244,#120,#246,.T.);
#244 = VERTEX_POINT('',#245);
#245 = CARTESIAN_POINT('',(-5.,-85.63259867456,-3.848037777104));
#246 = LINE('',#247,#248);
#247 = CARTESIAN_POINT('',(-5.,-84.63728272102,-3.751362275355));
#248 = VECTOR('',#249,1.);
#249 = DIRECTION('',(0.,-0.995315953535,-9.667550174874E-02));
#250 = ORIENTED_EDGE('',*,*,#251,.T.);
#251 = EDGE_CURVE('',#244,#244,#252,.T.);
#252 = CIRCLE('',#253,1.7);
#253 = AXIS2_PLACEMENT_3D('',#254,#255,#256);
#254 = CARTESIAN_POINT('',(-5.,-85.79694702753,-2.156000656094));
#255 = DIRECTION('',(0.,-0.995315953535,-9.667550174874E-02));
#256 = DIRECTION('',(0.,9.667550174874E-02,-0.995315953535));
#257 = ORIENTED_EDGE('',*,*,#243,.T.);
#258 = CYLINDRICAL_SURFACE('',#259,1.7);
#259 = AXIS2_PLACEMENT_3D('',#260,#261,#262);
#260 = CARTESIAN_POINT('',(-5.,-84.801631074,-2.059325154346));
#261 = DIRECTION('',(0.,-0.995315953535,-9.667550174874E-02));
#262 = DIRECTION('',(0.,9.667550174874E-02,-0.995315953535));
#263 = ADVANCED_FACE('',(#264,#339),#402,.T.);
#264 = FACE_BOUND('',#265,.T.);
#265 = EDGE_LOOP('',(#266,#267,#268,#269,#277,#285,#293,#301,#309,#317,
    #325,#333));
#266 = ORIENTED_EDGE('',*,*,#47,.F.);
#267 = ORIENTED_EDGE('',*,*,#78,.F.);
#268 = ORIENTED_EDGE('',*,*,#136,.F.);
#269 = ORIENTED_EDGE('',*,*,#270,.T.);
#270 = EDGE_CURVE('',#137,#271,#273,.T.);
#271 = VERTEX_POINT('',#272);
#272 = CARTESIAN_POINT('',(-10.,-94.68925299245,68.315170925669));
#273 = LINE('',#274,#275);
#274 = CARTESIAN_POINT('',(-10.,-88.76428711162,7.602841120743));
#275 = VECTOR('',#276,1.);
#276 = DIRECTION('',(0.,-9.712938472394E-02,0.9952717632));
#277 = ORIENTED_EDGE('',*,*,#278,.F.);
#278 = EDGE_CURVE('',#279,#271,#281,.T.);
#279 = VERTEX_POINT('',#280);
#280 = CARTESIAN_POINT('',(-10.,-99.65905685212,67.832451564024));
#281 = LINE('',#282,#283);
#282 = CARTESIAN_POINT('',(-10.,-99.65905685212,67.832451564024));
#283 = VECTOR('',#284,1.);
#284 = DIRECTION('',(0.,0.995315953535,9.667550174874E-02));
#285 = ORIENTED_EDGE('',*,*,#286,.F.);
#286 = EDGE_CURVE('',#287,#279,#289,.T.);
#287 = VERTEX_POINT('',#288);
#288 = CARTESIAN_POINT('',(-10.,-101.4958913853,86.743454681192));
#289 = LINE('',#290,#291);
#290 = CARTESIAN_POINT('',(-10.,-101.4958913853,86.743454681192));
#291 = VECTOR('',#292,1.);
#292 = DIRECTION('',(0.,9.667550174874E-02,-0.995315953535));
#293 = ORIENTED_EDGE('',*,*,#294,.F.);
#294 = EDGE_CURVE('',#295,#287,#297,.T.);
#295 = VERTEX_POINT('',#296);
#296 = CARTESIAN_POINT('',(-10.,-94.5286797106,87.420183193433));
#297 = LINE('',#298,#299);
#298 = CARTESIAN_POINT('',(-10.,-94.5286797106,87.420183193433));
#299 = VECTOR('',#300,1.);
#300 = DIRECTION('',(0.,-0.995315953535,-9.667550174874E-02));
#301 = ORIENTED_EDGE('',*,*,#302,.F.);
#302 = EDGE_CURVE('',#303,#295,#305,.T.);
#303 = VERTEX_POINT('',#304);
#304 = CARTESIAN_POINT('',(-10.,-93.25903507942,74.348644552638));
#305 = LINE('',#306,#307);
#306 = CARTESIAN_POINT('',(-10.,-92.69184517737,68.509180076265));
#307 = VECTOR('',#308,1.);
#308 = DIRECTION('',(0.,-9.667550174874E-02,0.995315953535));
#309 = ORIENTED_EDGE('',*,*,#310,.T.);
#310 = EDGE_CURVE('',#303,#311,#313,.T.);
#311 = VERTEX_POINT('',#312);
#312 = CARTESIAN_POINT('',(-10.,-93.25849249553,74.348404536482));
#313 = LINE('',#314,#315);
#314 = CARTESIAN_POINT('',(-10.,-95.36915875622,75.282073992496));
#315 = VECTOR('',#316,1.);
#316 = DIRECTION('',(0.,0.914518421385,-0.40454425833));
#317 = ORIENTED_EDGE('',*,*,#318,.T.);
#318 = EDGE_CURVE('',#311,#319,#321,.T.);
#319 = VERTEX_POINT('',#320);
#320 = CARTESIAN_POINT('',(-10.,-86.81226674243,8.294794812602));
#321 = LINE('',#322,#323);
#322 = CARTESIAN_POINT('',(-10.,-93.25849249553,74.348404536482));
#323 = VECTOR('',#324,1.);
#324 = DIRECTION('',(0.,9.712938472394E-02,-0.9952717632));
#325 = ORIENTED_EDGE('',*,*,#326,.F.);
#326 = EDGE_CURVE('',#327,#319,#329,.T.);
#327 = VERTEX_POINT('',#328);
#328 = CARTESIAN_POINT('',(-10.,-86.81203979589,8.294816856025));
#329 = LINE('',#330,#331);
#330 = CARTESIAN_POINT('',(-10.,-86.81203979589,8.294816856025));
#331 = VECTOR('',#332,1.);
#332 = DIRECTION('',(0.,-0.995315953535,-9.667550174874E-02));
#333 = ORIENTED_EDGE('',*,*,#334,.F.);
#334 = EDGE_CURVE('',#40,#327,#335,.T.);
#335 = LINE('',#336,#337);
#336 = CARTESIAN_POINT('',(-10.,-85.41024502054,-6.137264470235));
#337 = VECTOR('',#338,1.);
#338 = DIRECTION('',(0.,-9.667550174874E-02,0.995315953535));
#339 = FACE_BOUND('',#340,.T.);
#340 = EDGE_LOOP('',(#341,#352,#361,#369,#378,#387,#395));
#341 = ORIENTED_EDGE('',*,*,#342,.T.);
#342 = EDGE_CURVE('',#343,#345,#347,.T.);
#343 = VERTEX_POINT('',#344);
#344 = CARTESIAN_POINT('',(-10.,-95.28972683211,74.468145731964));
#345 = VERTEX_POINT('',#346);
#346 = CARTESIAN_POINT('',(-10.,-95.15286775831,75.186396005826));
#347 = CIRCLE('',#348,1.7);
#348 = AXIS2_PLACEMENT_3D('',#349,#350,#351);
#349 = CARTESIAN_POINT('',(-10.,-96.85217952698,75.13802749489));
#350 = DIRECTION('',(1.,0.,0.));
#351 = DIRECTION('',(-0.,0.,1.));
#352 = ORIENTED_EDGE('',*,*,#353,.T.);
#353 = EDGE_CURVE('',#345,#354,#356,.T.);
#354 = VERTEX_POINT('',#355);
#355 = CARTESIAN_POINT('',(-10.,-95.16014240597,75.302375847863));
#356 = CIRCLE('',#357,1.7);
#357 = AXIS2_PLACEMENT_3D('',#358,#359,#360);
#358 = CARTESIAN_POINT('',(-10.,-96.85217952698,75.13802749489));
#359 = DIRECTION('',(1.,0.,0.));
#360 = DIRECTION('',(-0.,0.,1.));
#361 = ORIENTED_EDGE('',*,*,#362,.T.);
#362 = EDGE_CURVE('',#354,#363,#365,.T.);
#363 = VERTEX_POINT('',#364);
#364 = CARTESIAN_POINT('',(-10.,-96.03022192171,84.26021942968));
#365 = LINE('',#366,#367);
#366 = CARTESIAN_POINT('',(-10.,-95.71602654103,81.02544258069));
#367 = VECTOR('',#368,1.);
#368 = DIRECTION('',(0.,-9.667550174874E-02,0.995315953535));
#369 = ORIENTED_EDGE('',*,*,#370,.T.);
#370 = EDGE_CURVE('',#363,#371,#373,.T.);
#371 = VERTEX_POINT('',#372);
#372 = CARTESIAN_POINT('',(-10.,-97.72225904272,85.795871076707));
#373 = CIRCLE('',#374,1.7);
#374 = AXIS2_PLACEMENT_3D('',#375,#376,#377);
#375 = CARTESIAN_POINT('',(-10.,-97.72225904272,84.095871076707));
#376 = DIRECTION('',(1.,0.,0.));
#377 = DIRECTION('',(-0.,0.,1.));
#378 = ORIENTED_EDGE('',*,*,#379,.T.);
#379 = EDGE_CURVE('',#371,#380,#382,.T.);
#380 = VERTEX_POINT('',#381);
#381 = CARTESIAN_POINT('',(-10.,-99.41429616373,83.931522723734));
#382 = CIRCLE('',#383,1.7);
#383 = AXIS2_PLACEMENT_3D('',#384,#385,#386);
#384 = CARTESIAN_POINT('',(-10.,-97.72225904272,84.095871076707));
#385 = DIRECTION('',(1.,0.,0.));
#386 = DIRECTION('',(-0.,0.,1.));
#387 = ORIENTED_EDGE('',*,*,#388,.T.);
#388 = EDGE_CURVE('',#380,#389,#391,.T.);
#389 = VERTEX_POINT('',#390);
#390 = CARTESIAN_POINT('',(-10.,-98.54421664799,74.973679141918));
#391 = LINE('',#392,#393);
#392 = CARTESIAN_POINT('',(-10.,-98.66506102518,76.217824083836));
#393 = VECTOR('',#394,1.);
#394 = DIRECTION('',(0.,9.667550174874E-02,-0.995315953535));
#395 = ORIENTED_EDGE('',*,*,#396,.T.);
#396 = EDGE_CURVE('',#389,#343,#397,.T.);
#397 = CIRCLE('',#398,1.7);
#398 = AXIS2_PLACEMENT_3D('',#399,#400,#401);
#399 = CARTESIAN_POINT('',(-10.,-96.85217952698,75.13802749489));
#400 = DIRECTION('',(1.,0.,0.));
#401 = DIRECTION('',(-0.,0.,1.));
#402 = PLANE('',#403);
#403 = AXIS2_PLACEMENT_3D('',#404,#405,#406);
#404 = CARTESIAN_POINT('',(-10.,-92.1545715268,39.947294252124));
#405 = DIRECTION('',(-1.,-0.,-0.));
#406 = DIRECTION('',(0.,0.,-1.));
#407 = ADVANCED_FACE('',(#408,#474),#519,.F.);
#408 = FACE_BOUND('',#409,.F.);
#409 = EDGE_LOOP('',(#410,#420,#428,#436,#444,#452,#460,#468));
#410 = ORIENTED_EDGE('',*,*,#411,.T.);
#411 = EDGE_CURVE('',#412,#414,#416,.T.);
#412 = VERTEX_POINT('',#413);
#413 = CARTESIAN_POINT('',(6.4,-94.64068829504,67.817534992324));
#414 = VERTEX_POINT('',#415);
#415 = CARTESIAN_POINT('',(6.4,-92.64010322843,68.011852750839));
#416 = LINE('',#417,#418);
#417 = CARTESIAN_POINT('',(6.4,-100.6110116345,67.237634707999));
#418 = VECTOR('',#419,1.);
#419 = DIRECTION('',(0.,0.995315953535,9.667550174874E-02));
#420 = ORIENTED_EDGE('',*,*,#421,.F.);
#421 = EDGE_CURVE('',#422,#414,#424,.T.);
#422 = VERTEX_POINT('',#423);
#423 = CARTESIAN_POINT('',(6.4,-93.25849249553,74.348404536482));
#424 = LINE('',#425,#426);
#425 = CARTESIAN_POINT('',(6.4,-93.44710824033,76.281124746968));
#426 = VECTOR('',#427,1.);
#427 = DIRECTION('',(0.,9.712938472394E-02,-0.9952717632));
#428 = ORIENTED_EDGE('',*,*,#429,.F.);
#429 = EDGE_CURVE('',#430,#422,#432,.T.);
#430 = VERTEX_POINT('',#431);
#431 = CARTESIAN_POINT('',(6.4,-93.25903507942,74.348644552638));
#432 = LINE('',#433,#434);
#433 = CARTESIAN_POINT('',(6.4,-95.58632786469,75.378140418129));
#434 = VECTOR('',#435,1.);
#435 = DIRECTION('',(0.,0.914518421385,-0.40454425833));
#436 = ORIENTED_EDGE('',*,*,#437,.T.);
#437 = EDGE_CURVE('',#430,#438,#440,.T.);
#438 = VERTEX_POINT('',#439);
#439 = CARTESIAN_POINT('',(6.4,-94.5286797106,87.420183193433));
#440 = LINE('',#441,#442);
#441 = CARTESIAN_POINT('',(6.4,-93.16313824839,73.361345349749));
#442 = VECTOR('',#443,1.);
#443 = DIRECTION('',(0.,-9.667550174874E-02,0.995315953535));
#444 = ORIENTED_EDGE('',*,*,#445,.T.);
#445 = EDGE_CURVE('',#438,#446,#448,.T.);
#446 = VERTEX_POINT('',#447);
#447 = CARTESIAN_POINT('',(6.4,-101.4958913853,86.743454681192));
#448 = LINE('',#449,#450);
#449 = CARTESIAN_POINT('',(6.4,-95.02882597725,87.371603753804));
#450 = VECTOR('',#451,1.);
#451 = DIRECTION('',(0.,-0.995315953535,-9.667550174874E-02));
#452 = ORIENTED_EDGE('',*,*,#453,.T.);
#453 = EDGE_CURVE('',#446,#454,#456,.T.);
#454 = VERTEX_POINT('',#455);
#455 = CARTESIAN_POINT('',(6.4,-99.65905685212,67.832451564024));
#456 = LINE('',#457,#458);
#457 = CARTESIAN_POINT('',(6.4,-101.0487671897,82.140118396092));
#458 = VECTOR('',#459,1.);
#459 = DIRECTION('',(0.,9.667550174874E-02,-0.995315953535));
#460 = ORIENTED_EDGE('',*,*,#461,.T.);
#461 = EDGE_CURVE('',#454,#462,#464,.T.);
#462 = VERTEX_POINT('',#463);
#463 = CARTESIAN_POINT('',(6.4,-94.68925299245,68.315170925669));
#464 = LINE('',#465,#466);
#465 = CARTESIAN_POINT('',(6.4,-96.67559728139,68.122236380515));
#466 = VECTOR('',#467,1.);
#467 = DIRECTION('',(-0.,0.995315953535,9.667550174874E-02));
#468 = ORIENTED_EDGE('',*,*,#469,.F.);
#469 = EDGE_CURVE('',#412,#462,#470,.T.);
#470 = LINE('',#471,#472);
#471 = CARTESIAN_POINT('',(6.4,-95.08988491089,72.420392398993));
#472 = VECTOR('',#473,1.);
#473 = DIRECTION('',(0.,-9.712938472394E-02,0.9952717632));
#474 = FACE_BOUND('',#475,.F.);
#475 = EDGE_LOOP('',(#476,#486,#495,#504,#512));
#476 = ORIENTED_EDGE('',*,*,#477,.F.);
#477 = EDGE_CURVE('',#478,#480,#482,.T.);
#478 = VERTEX_POINT('',#479);
#479 = CARTESIAN_POINT('',(6.4,-99.41429616373,83.931522723734));
#480 = VERTEX_POINT('',#481);
#481 = CARTESIAN_POINT('',(6.4,-98.54421664799,74.973679141918));
#482 = LINE('',#483,#484);
#483 = CARTESIAN_POINT('',(6.4,-98.6771454629,76.342238578028));
#484 = VECTOR('',#485,1.);
#485 = DIRECTION('',(0.,9.667550174874E-02,-0.995315953535));
#486 = ORIENTED_EDGE('',*,*,#487,.F.);
#487 = EDGE_CURVE('',#488,#478,#490,.T.);
#488 = VERTEX_POINT('',#489);
#489 = CARTESIAN_POINT('',(6.4,-97.72225904272,85.795871076707));
#490 = CIRCLE('',#491,1.7);
#491 = AXIS2_PLACEMENT_3D('',#492,#493,#494);
#492 = CARTESIAN_POINT('',(6.4,-97.72225904272,84.095871076707));
#493 = DIRECTION('',(1.,0.,0.));
#494 = DIRECTION('',(-0.,0.,1.));
#495 = ORIENTED_EDGE('',*,*,#496,.F.);
#496 = EDGE_CURVE('',#497,#488,#499,.T.);
#497 = VERTEX_POINT('',#498);
#498 = CARTESIAN_POINT('',(6.4,-96.03022192171,84.26021942968));
#499 = CIRCLE('',#500,1.7);
#500 = AXIS2_PLACEMENT_3D('',#501,#502,#503);
#501 = CARTESIAN_POINT('',(6.4,-97.72225904272,84.095871076707));
#502 = DIRECTION('',(1.,0.,0.));
#503 = DIRECTION('',(-0.,0.,1.));
#504 = ORIENTED_EDGE('',*,*,#505,.F.);
#505 = EDGE_CURVE('',#506,#497,#508,.T.);
#506 = VERTEX_POINT('',#507);
#507 = CARTESIAN_POINT('',(6.4,-95.16014240597,75.302375847863));
#508 = LINE('',#509,#510);
#509 = CARTESIAN_POINT('',(6.4,-95.72811097875,81.149857074882));
#510 = VECTOR('',#511,1.);
#511 = DIRECTION('',(0.,-9.667550174874E-02,0.995315953535));
#512 = ORIENTED_EDGE('',*,*,#513,.F.);
#513 = EDGE_CURVE('',#480,#506,#514,.T.);
#514 = CIRCLE('',#515,1.7);
#515 = AXIS2_PLACEMENT_3D('',#516,#517,#518);
#516 = CARTESIAN_POINT('',(6.4,-96.85217952698,75.13802749489));
#517 = DIRECTION('',(1.,0.,0.));
#518 = DIRECTION('',(-0.,0.,1.));
#519 = PLANE('',#520);
#520 = AXIS2_PLACEMENT_3D('',#521,#522,#523);
#521 = CARTESIAN_POINT('',(6.4,-94.63472385272,78.116351743975));
#522 = DIRECTION('',(1.,0.,0.));
#523 = DIRECTION('',(-0.,0.,1.));
#524 = ADVANCED_FACE('',(#525),#550,.T.);
#525 = FACE_BOUND('',#526,.T.);
#526 = EDGE_LOOP('',(#527,#537,#543,#544));
#527 = ORIENTED_EDGE('',*,*,#528,.F.);
#528 = EDGE_CURVE('',#529,#531,#533,.T.);
#529 = VERTEX_POINT('',#530);
#530 = CARTESIAN_POINT('',(-6.4,-94.64068829504,67.817534992324));
#531 = VERTEX_POINT('',#532);
#532 = CARTESIAN_POINT('',(-6.4,-92.64010322843,68.011852750839));
#533 = LINE('',#534,#535);
#534 = CARTESIAN_POINT('',(-6.4,-100.6110116345,67.237634707999));
#535 = VECTOR('',#536,1.);
#536 = DIRECTION('',(0.,0.995315953535,9.667550174874E-02));
#537 = ORIENTED_EDGE('',*,*,#538,.F.);
#538 = EDGE_CURVE('',#412,#529,#539,.T.);
#539 = LINE('',#540,#541);
#540 = CARTESIAN_POINT('',(-8.2,-94.64068829504,67.817534992324));
#541 = VECTOR('',#542,1.);
#542 = DIRECTION('',(-1.,-0.,0.));
#543 = ORIENTED_EDGE('',*,*,#411,.T.);
#544 = ORIENTED_EDGE('',*,*,#545,.F.);
#545 = EDGE_CURVE('',#531,#414,#546,.T.);
#546 = LINE('',#547,#548);
#547 = CARTESIAN_POINT('',(-8.2,-92.64010322843,68.011852750839));
#548 = VECTOR('',#549,1.);
#549 = DIRECTION('',(1.,0.,0.));
#550 = PLANE('',#551);
#551 = AXIS2_PLACEMENT_3D('',#552,#553,#554);
#552 = CARTESIAN_POINT('',(-6.4,-100.6110116345,67.237634707999));
#553 = DIRECTION('',(0.,-9.667550174874E-02,0.995315953535));
#554 = DIRECTION('',(0.,0.995315953535,9.667550174874E-02));
#555 = ADVANCED_FACE('',(#556,#613),#658,.T.);
#556 = FACE_BOUND('',#557,.T.);
#557 = EDGE_LOOP('',(#558,#559,#567,#575,#583,#591,#599,#607));
#558 = ORIENTED_EDGE('',*,*,#528,.T.);
#559 = ORIENTED_EDGE('',*,*,#560,.F.);
#560 = EDGE_CURVE('',#561,#531,#563,.T.);
#561 = VERTEX_POINT('',#562);
#562 = CARTESIAN_POINT('',(-6.4,-93.25849249553,74.348404536482));
#563 = LINE('',#564,#565);
#564 = CARTESIAN_POINT('',(-6.4,-93.19942555366,73.743153514277));
#565 = VECTOR('',#566,1.);
#566 = DIRECTION('',(0.,9.712938472394E-02,-0.9952717632));
#567 = ORIENTED_EDGE('',*,*,#568,.F.);
#568 = EDGE_CURVE('',#569,#561,#571,.T.);
#569 = VERTEX_POINT('',#570);
#570 = CARTESIAN_POINT('',(-6.4,-93.25903507942,74.348644552638));
#571 = LINE('',#572,#573);
#572 = CARTESIAN_POINT('',(-6.4,-95.58632786469,75.378140418129));
#573 = VECTOR('',#574,1.);
#574 = DIRECTION('',(0.,0.914518421385,-0.40454425833));
#575 = ORIENTED_EDGE('',*,*,#576,.T.);
#576 = EDGE_CURVE('',#569,#577,#579,.T.);
#577 = VERTEX_POINT('',#578);
#578 = CARTESIAN_POINT('',(-6.4,-94.5286797106,87.420183193433));
#579 = LINE('',#580,#581);
#580 = CARTESIAN_POINT('',(-6.4,-93.16313824839,73.361345349749));
#581 = VECTOR('',#582,1.);
#582 = DIRECTION('',(0.,-9.667550174874E-02,0.995315953535));
#583 = ORIENTED_EDGE('',*,*,#584,.T.);
#584 = EDGE_CURVE('',#577,#585,#587,.T.);
#585 = VERTEX_POINT('',#586);
#586 = CARTESIAN_POINT('',(-6.4,-101.4958913853,86.743454681192));
#587 = LINE('',#588,#589);
#588 = CARTESIAN_POINT('',(-6.4,-95.02882597725,87.371603753804));
#589 = VECTOR('',#590,1.);
#590 = DIRECTION('',(0.,-0.995315953535,-9.667550174874E-02));
#591 = ORIENTED_EDGE('',*,*,#592,.T.);
#592 = EDGE_CURVE('',#585,#593,#595,.T.);
#593 = VERTEX_POINT('',#594);
#594 = CARTESIAN_POINT('',(-6.4,-99.65905685212,67.832451564024));
#595 = LINE('',#596,#597);
#596 = CARTESIAN_POINT('',(-6.4,-101.0487671897,82.140118396092));
#597 = VECTOR('',#598,1.);
#598 = DIRECTION('',(0.,9.667550174874E-02,-0.995315953535));
#599 = ORIENTED_EDGE('',*,*,#600,.T.);
#600 = EDGE_CURVE('',#593,#601,#603,.T.);
#601 = VERTEX_POINT('',#602);
#602 = CARTESIAN_POINT('',(-6.4,-94.68925299245,68.315170925669));
#603 = LINE('',#604,#605);
#604 = CARTESIAN_POINT('',(-6.4,-96.67559728139,68.122236380515));
#605 = VECTOR('',#606,1.);
#606 = DIRECTION('',(-0.,0.995315953535,9.667550174874E-02));
#607 = ORIENTED_EDGE('',*,*,#608,.F.);
#608 = EDGE_CURVE('',#529,#601,#609,.T.);
#609 = LINE('',#610,#611);
#610 = CARTESIAN_POINT('',(-6.4,-95.08988491089,72.420392398993));
#611 = VECTOR('',#612,1.);
#612 = DIRECTION('',(0.,-9.712938472394E-02,0.9952717632));
#613 = FACE_BOUND('',#614,.T.);
#614 = EDGE_LOOP('',(#615,#625,#634,#643,#651));
#615 = ORIENTED_EDGE('',*,*,#616,.F.);
#616 = EDGE_CURVE('',#617,#619,#621,.T.);
#617 = VERTEX_POINT('',#618);
#618 = CARTESIAN_POINT('',(-6.4,-99.41429616373,83.931522723734));
#619 = VERTEX_POINT('',#620);
#620 = CARTESIAN_POINT('',(-6.4,-98.54421664799,74.973679141918));
#621 = LINE('',#622,#623);
#622 = CARTESIAN_POINT('',(-6.4,-98.6771454629,76.342238578028));
#623 = VECTOR('',#624,1.);
#624 = DIRECTION('',(0.,9.667550174874E-02,-0.995315953535));
#625 = ORIENTED_EDGE('',*,*,#626,.F.);
#626 = EDGE_CURVE('',#627,#617,#629,.T.);
#627 = VERTEX_POINT('',#628);
#628 = CARTESIAN_POINT('',(-6.4,-97.72225904272,85.795871076707));
#629 = CIRCLE('',#630,1.7);
#630 = AXIS2_PLACEMENT_3D('',#631,#632,#633);
#631 = CARTESIAN_POINT('',(-6.4,-97.72225904272,84.095871076707));
#632 = DIRECTION('',(1.,0.,0.));
#633 = DIRECTION('',(-0.,0.,1.));
#634 = ORIENTED_EDGE('',*,*,#635,.F.);
#635 = EDGE_CURVE('',#636,#627,#638,.T.);
#636 = VERTEX_POINT('',#637);
#637 = CARTESIAN_POINT('',(-6.4,-96.03022192171,84.26021942968));
#638 = CIRCLE('',#639,1.7);
#639 = AXIS2_PLACEMENT_3D('',#640,#641,#642);
#640 = CARTESIAN_POINT('',(-6.4,-97.72225904272,84.095871076707));
#641 = DIRECTION('',(1.,0.,0.));
#642 = DIRECTION('',(-0.,0.,1.));
#643 = ORIENTED_EDGE('',*,*,#644,.F.);
#644 = EDGE_CURVE('',#645,#636,#647,.T.);
#645 = VERTEX_POINT('',#646);
#646 = CARTESIAN_POINT('',(-6.4,-95.16014240597,75.302375847863));
#647 = LINE('',#648,#649);
#648 = CARTESIAN_POINT('',(-6.4,-95.72811097875,81.149857074882));
#649 = VECTOR('',#650,1.);
#650 = DIRECTION('',(0.,-9.667550174874E-02,0.995315953535));
#651 = ORIENTED_EDGE('',*,*,#652,.F.);
#652 = EDGE_CURVE('',#619,#645,#653,.T.);
#653 = CIRCLE('',#654,1.7);
#654 = AXIS2_PLACEMENT_3D('',#655,#656,#657);
#655 = CARTESIAN_POINT('',(-6.4,-96.85217952698,75.13802749489));
#656 = DIRECTION('',(1.,0.,0.));
#657 = DIRECTION('',(-0.,0.,1.));
#658 = PLANE('',#659);
#659 = AXIS2_PLACEMENT_3D('',#660,#661,#662);
#660 = CARTESIAN_POINT('',(-6.4,-94.63472385272,78.116351743975));
#661 = DIRECTION('',(1.,0.,0.));
#662 = DIRECTION('',(-0.,0.,1.));
#663 = ADVANCED_FACE('',(#664),#680,.T.);
#664 = FACE_BOUND('',#665,.T.);
#665 = EDGE_LOOP('',(#666,#667,#673,#674));
#666 = ORIENTED_EDGE('',*,*,#310,.F.);
#667 = ORIENTED_EDGE('',*,*,#668,.T.);
#668 = EDGE_CURVE('',#303,#569,#669,.T.);
#669 = LINE('',#670,#671);
#670 = CARTESIAN_POINT('',(-10.,-93.25903507942,74.348644552638));
#671 = VECTOR('',#672,1.);
#672 = DIRECTION('',(1.,0.,0.));
#673 = ORIENTED_EDGE('',*,*,#568,.T.);
#674 = ORIENTED_EDGE('',*,*,#675,.F.);
#675 = EDGE_CURVE('',#311,#561,#676,.T.);
#676 = LINE('',#677,#678);
#677 = CARTESIAN_POINT('',(-10.,-93.25849249553,74.348404536482));
#678 = VECTOR('',#679,1.);
#679 = DIRECTION('',(1.,0.,0.));
#680 = PLANE('',#681);
#681 = AXIS2_PLACEMENT_3D('',#682,#683,#684);
#682 = CARTESIAN_POINT('',(-10.,-95.36915875622,75.282073992496));
#683 = DIRECTION('',(-0.,0.40454425833,0.914518421385));
#684 = DIRECTION('',(0.,0.914518421385,-0.40454425833));
#685 = ADVANCED_FACE('',(#686),#697,.F.);
#686 = FACE_BOUND('',#687,.F.);
#687 = EDGE_LOOP('',(#688,#689,#690,#691));
#688 = ORIENTED_EDGE('',*,*,#302,.F.);
#689 = ORIENTED_EDGE('',*,*,#668,.T.);
#690 = ORIENTED_EDGE('',*,*,#576,.T.);
#691 = ORIENTED_EDGE('',*,*,#692,.F.);
#692 = EDGE_CURVE('',#295,#577,#693,.T.);
#693 = LINE('',#694,#695);
#694 = CARTESIAN_POINT('',(-10.,-94.5286797106,87.420183193433));
#695 = VECTOR('',#696,1.);
#696 = DIRECTION('',(1.,0.,0.));
#697 = PLANE('',#698);
#698 = AXIS2_PLACEMENT_3D('',#699,#700,#701);
#699 = CARTESIAN_POINT('',(-10.,-92.69184517737,68.509180076265));
#700 = DIRECTION('',(0.,-0.995315953535,-9.667550174874E-02));
#701 = DIRECTION('',(0.,-9.667550174874E-02,0.995315953535));
#702 = ADVANCED_FACE('',(#703),#721,.F.);
#703 = FACE_BOUND('',#704,.F.);
#704 = EDGE_LOOP('',(#705,#706,#712,#713,#714,#715));
#705 = ORIENTED_EDGE('',*,*,#652,.F.);
#706 = ORIENTED_EDGE('',*,*,#707,.F.);
#707 = EDGE_CURVE('',#389,#619,#708,.T.);
#708 = LINE('',#709,#710);
#709 = CARTESIAN_POINT('',(-11.,-98.54421664799,74.973679141918));
#710 = VECTOR('',#711,1.);
#711 = DIRECTION('',(1.,0.,0.));
#712 = ORIENTED_EDGE('',*,*,#396,.T.);
#713 = ORIENTED_EDGE('',*,*,#342,.T.);
#714 = ORIENTED_EDGE('',*,*,#353,.T.);
#715 = ORIENTED_EDGE('',*,*,#716,.T.);
#716 = EDGE_CURVE('',#354,#645,#717,.T.);
#717 = LINE('',#718,#719);
#718 = CARTESIAN_POINT('',(-11.,-95.16014240597,75.302375847863));
#719 = VECTOR('',#720,1.);
#720 = DIRECTION('',(1.,0.,0.));
#721 = CYLINDRICAL_SURFACE('',#722,1.7);
#722 = AXIS2_PLACEMENT_3D('',#723,#724,#725);
#723 = CARTESIAN_POINT('',(-11.,-96.85217952698,75.13802749489));
#724 = DIRECTION('',(1.,0.,0.));
#725 = DIRECTION('',(-0.,0.,1.));
#726 = ADVANCED_FACE('',(#727),#743,.F.);
#727 = FACE_BOUND('',#728,.F.);
#728 = EDGE_LOOP('',(#729,#730,#736,#737));
#729 = ORIENTED_EDGE('',*,*,#278,.F.);
#730 = ORIENTED_EDGE('',*,*,#731,.T.);
#731 = EDGE_CURVE('',#279,#593,#732,.T.);
#732 = LINE('',#733,#734);
#733 = CARTESIAN_POINT('',(-10.,-99.65905685212,67.832451564024));
#734 = VECTOR('',#735,1.);
#735 = DIRECTION('',(1.,0.,0.));
#736 = ORIENTED_EDGE('',*,*,#600,.T.);
#737 = ORIENTED_EDGE('',*,*,#738,.T.);
#738 = EDGE_CURVE('',#601,#271,#739,.T.);
#739 = LINE('',#740,#741);
#740 = CARTESIAN_POINT('',(-10.,-94.68925299245,68.315170925669));
#741 = VECTOR('',#742,1.);
#742 = DIRECTION('',(-1.,-0.,0.));
#743 = PLANE('',#744);
#744 = AXIS2_PLACEMENT_3D('',#745,#746,#747);
#745 = CARTESIAN_POINT('',(-10.,-99.65905685212,67.832451564024));
#746 = DIRECTION('',(0.,-9.667550174874E-02,0.995315953535));
#747 = DIRECTION('',(0.,0.995315953535,9.667550174874E-02));
#748 = ADVANCED_FACE('',(#749),#774,.F.);
#749 = FACE_BOUND('',#750,.F.);
#750 = EDGE_LOOP('',(#751,#752,#760,#768));
#751 = ORIENTED_EDGE('',*,*,#461,.F.);
#752 = ORIENTED_EDGE('',*,*,#753,.T.);
#753 = EDGE_CURVE('',#454,#754,#756,.T.);
#754 = VERTEX_POINT('',#755);
#755 = CARTESIAN_POINT('',(10.,-99.65905685212,67.832451564024));
#756 = LINE('',#757,#758);
#757 = CARTESIAN_POINT('',(-10.,-99.65905685212,67.832451564024));
#758 = VECTOR('',#759,1.);
#759 = DIRECTION('',(1.,0.,0.));
#760 = ORIENTED_EDGE('',*,*,#761,.T.);
#761 = EDGE_CURVE('',#754,#762,#764,.T.);
#762 = VERTEX_POINT('',#763);
#763 = CARTESIAN_POINT('',(10.,-94.68925299245,68.315170925669));
#764 = LINE('',#765,#766);
#765 = CARTESIAN_POINT('',(10.,-99.65905685212,67.832451564024));
#766 = VECTOR('',#767,1.);
#767 = DIRECTION('',(0.,0.995315953535,9.667550174874E-02));
#768 = ORIENTED_EDGE('',*,*,#769,.T.);
#769 = EDGE_CURVE('',#762,#462,#770,.T.);
#770 = LINE('',#771,#772);
#771 = CARTESIAN_POINT('',(-10.,-94.68925299245,68.315170925669));
#772 = VECTOR('',#773,1.);
#773 = DIRECTION('',(-1.,-0.,0.));
#774 = PLANE('',#775);
#775 = AXIS2_PLACEMENT_3D('',#776,#777,#778);
#776 = CARTESIAN_POINT('',(-10.,-99.65905685212,67.832451564024));
#777 = DIRECTION('',(0.,-9.667550174874E-02,0.995315953535));
#778 = DIRECTION('',(0.,0.995315953535,9.667550174874E-02));
#779 = ADVANCED_FACE('',(#780),#805,.T.);
#780 = FACE_BOUND('',#781,.T.);
#781 = EDGE_LOOP('',(#782,#783,#791,#799));
#782 = ORIENTED_EDGE('',*,*,#429,.F.);
#783 = ORIENTED_EDGE('',*,*,#784,.T.);
#784 = EDGE_CURVE('',#430,#785,#787,.T.);
#785 = VERTEX_POINT('',#786);
#786 = CARTESIAN_POINT('',(10.,-93.25903507942,74.348644552638));
#787 = LINE('',#788,#789);
#788 = CARTESIAN_POINT('',(-10.,-93.25903507942,74.348644552638));
#789 = VECTOR('',#790,1.);
#790 = DIRECTION('',(1.,0.,0.));
#791 = ORIENTED_EDGE('',*,*,#792,.T.);
#792 = EDGE_CURVE('',#785,#793,#795,.T.);
#793 = VERTEX_POINT('',#794);
#794 = CARTESIAN_POINT('',(10.,-93.25849249553,74.348404536482));
#795 = LINE('',#796,#797);
#796 = CARTESIAN_POINT('',(10.,-95.36915875622,75.282073992496));
#797 = VECTOR('',#798,1.);
#798 = DIRECTION('',(0.,0.914518421385,-0.40454425833));
#799 = ORIENTED_EDGE('',*,*,#800,.F.);
#800 = EDGE_CURVE('',#422,#793,#801,.T.);
#801 = LINE('',#802,#803);
#802 = CARTESIAN_POINT('',(-10.,-93.25849249553,74.348404536482));
#803 = VECTOR('',#804,1.);
#804 = DIRECTION('',(1.,0.,0.));
#805 = PLANE('',#806);
#806 = AXIS2_PLACEMENT_3D('',#807,#808,#809);
#807 = CARTESIAN_POINT('',(-10.,-95.36915875622,75.282073992496));
#808 = DIRECTION('',(-0.,0.40454425833,0.914518421385));
#809 = DIRECTION('',(0.,0.914518421385,-0.40454425833));
#810 = ADVANCED_FACE('',(#811),#829,.F.);
#811 = FACE_BOUND('',#812,.F.);
#812 = EDGE_LOOP('',(#813,#814,#822,#828));
#813 = ORIENTED_EDGE('',*,*,#453,.F.);
#814 = ORIENTED_EDGE('',*,*,#815,.T.);
#815 = EDGE_CURVE('',#446,#816,#818,.T.);
#816 = VERTEX_POINT('',#817);
#817 = CARTESIAN_POINT('',(10.,-101.4958913853,86.743454681192));
#818 = LINE('',#819,#820);
#819 = CARTESIAN_POINT('',(-10.,-101.4958913853,86.743454681192));
#820 = VECTOR('',#821,1.);
#821 = DIRECTION('',(1.,0.,0.));
#822 = ORIENTED_EDGE('',*,*,#823,.T.);
#823 = EDGE_CURVE('',#816,#754,#824,.T.);
#824 = LINE('',#825,#826);
#825 = CARTESIAN_POINT('',(10.,-101.4958913853,86.743454681192));
#826 = VECTOR('',#827,1.);
#827 = DIRECTION('',(0.,9.667550174874E-02,-0.995315953535));
#828 = ORIENTED_EDGE('',*,*,#753,.F.);
#829 = PLANE('',#830);
#830 = AXIS2_PLACEMENT_3D('',#831,#832,#833);
#831 = CARTESIAN_POINT('',(-10.,-101.4958913853,86.743454681192));
#832 = DIRECTION('',(-0.,0.995315953535,9.667550174874E-02));
#833 = DIRECTION('',(0.,9.667550174874E-02,-0.995315953535));
#834 = ADVANCED_FACE('',(#835),#853,.F.);
#835 = FACE_BOUND('',#836,.F.);
#836 = EDGE_LOOP('',(#837,#838,#846,#852));
#837 = ORIENTED_EDGE('',*,*,#445,.F.);
#838 = ORIENTED_EDGE('',*,*,#839,.T.);
#839 = EDGE_CURVE('',#438,#840,#842,.T.);
#840 = VERTEX_POINT('',#841);
#841 = CARTESIAN_POINT('',(10.,-94.5286797106,87.420183193433));
#842 = LINE('',#843,#844);
#843 = CARTESIAN_POINT('',(-10.,-94.5286797106,87.420183193433));
#844 = VECTOR('',#845,1.);
#845 = DIRECTION('',(1.,0.,0.));
#846 = ORIENTED_EDGE('',*,*,#847,.T.);
#847 = EDGE_CURVE('',#840,#816,#848,.T.);
#848 = LINE('',#849,#850);
#849 = CARTESIAN_POINT('',(10.,-94.5286797106,87.420183193433));
#850 = VECTOR('',#851,1.);
#851 = DIRECTION('',(0.,-0.995315953535,-9.667550174874E-02));
#852 = ORIENTED_EDGE('',*,*,#815,.F.);
#853 = PLANE('',#854);
#854 = AXIS2_PLACEMENT_3D('',#855,#856,#857);
#855 = CARTESIAN_POINT('',(-10.,-94.5286797106,87.420183193433));
#856 = DIRECTION('',(0.,9.667550174874E-02,-0.995315953535));
#857 = DIRECTION('',(0.,-0.995315953535,-9.667550174874E-02));
#858 = ADVANCED_FACE('',(#859),#870,.F.);
#859 = FACE_BOUND('',#860,.F.);
#860 = EDGE_LOOP('',(#861,#862,#863,#869));
#861 = ORIENTED_EDGE('',*,*,#437,.F.);
#862 = ORIENTED_EDGE('',*,*,#784,.T.);
#863 = ORIENTED_EDGE('',*,*,#864,.T.);
#864 = EDGE_CURVE('',#785,#840,#865,.T.);
#865 = LINE('',#866,#867);
#866 = CARTESIAN_POINT('',(10.,-92.69184517737,68.509180076265));
#867 = VECTOR('',#868,1.);
#868 = DIRECTION('',(0.,-9.667550174874E-02,0.995315953535));
#869 = ORIENTED_EDGE('',*,*,#839,.F.);
#870 = PLANE('',#871);
#871 = AXIS2_PLACEMENT_3D('',#872,#873,#874);
#872 = CARTESIAN_POINT('',(-10.,-92.69184517737,68.509180076265));
#873 = DIRECTION('',(0.,-0.995315953535,-9.667550174874E-02));
#874 = DIRECTION('',(0.,-9.667550174874E-02,0.995315953535));
#875 = ADVANCED_FACE('',(#876),#901,.F.);
#876 = FACE_BOUND('',#877,.F.);
#877 = EDGE_LOOP('',(#878,#879,#887,#895));
#878 = ORIENTED_EDGE('',*,*,#477,.T.);
#879 = ORIENTED_EDGE('',*,*,#880,.T.);
#880 = EDGE_CURVE('',#480,#881,#883,.T.);
#881 = VERTEX_POINT('',#882);
#882 = CARTESIAN_POINT('',(10.,-98.54421664799,74.973679141918));
#883 = LINE('',#884,#885);
#884 = CARTESIAN_POINT('',(-11.,-98.54421664799,74.973679141918));
#885 = VECTOR('',#886,1.);
#886 = DIRECTION('',(1.,0.,0.));
#887 = ORIENTED_EDGE('',*,*,#888,.F.);
#888 = EDGE_CURVE('',#889,#881,#891,.T.);
#889 = VERTEX_POINT('',#890);
#890 = CARTESIAN_POINT('',(10.,-99.41429616373,83.931522723734));
#891 = LINE('',#892,#893);
#892 = CARTESIAN_POINT('',(10.,-98.66506102518,76.217824083836));
#893 = VECTOR('',#894,1.);
#894 = DIRECTION('',(0.,9.667550174874E-02,-0.995315953535));
#895 = ORIENTED_EDGE('',*,*,#896,.F.);
#896 = EDGE_CURVE('',#478,#889,#897,.T.);
#897 = LINE('',#898,#899);
#898 = CARTESIAN_POINT('',(-11.,-99.41429616373,83.931522723734));
#899 = VECTOR('',#900,1.);
#900 = DIRECTION('',(1.,0.,0.));
#901 = PLANE('',#902);
#902 = AXIS2_PLACEMENT_3D('',#903,#904,#905);
#903 = CARTESIAN_POINT('',(-11.,-98.54421664799,74.973679141918));
#904 = DIRECTION('',(0.,-0.995315953535,-9.667550174874E-02));
#905 = DIRECTION('',(0.,-9.667550174874E-02,0.995315953535));
#906 = ADVANCED_FACE('',(#907),#944,.F.);
#907 = FACE_BOUND('',#908,.F.);
#908 = EDGE_LOOP('',(#909,#918,#919,#920,#928,#937));
#909 = ORIENTED_EDGE('',*,*,#910,.F.);
#910 = EDGE_CURVE('',#881,#911,#913,.T.);
#911 = VERTEX_POINT('',#912);
#912 = CARTESIAN_POINT('',(10.,-95.28972683211,74.468145731964));
#913 = CIRCLE('',#914,1.7);
#914 = AXIS2_PLACEMENT_3D('',#915,#916,#917);
#915 = CARTESIAN_POINT('',(10.,-96.85217952698,75.13802749489));
#916 = DIRECTION('',(1.,0.,0.));
#917 = DIRECTION('',(-0.,0.,1.));
#918 = ORIENTED_EDGE('',*,*,#880,.F.);
#919 = ORIENTED_EDGE('',*,*,#513,.T.);
#920 = ORIENTED_EDGE('',*,*,#921,.T.);
#921 = EDGE_CURVE('',#506,#922,#924,.T.);
#922 = VERTEX_POINT('',#923);
#923 = CARTESIAN_POINT('',(10.,-95.16014240597,75.302375847863));
#924 = LINE('',#925,#926);
#925 = CARTESIAN_POINT('',(-11.,-95.16014240597,75.302375847863));
#926 = VECTOR('',#927,1.);
#927 = DIRECTION('',(1.,0.,0.));
#928 = ORIENTED_EDGE('',*,*,#929,.F.);
#929 = EDGE_CURVE('',#930,#922,#932,.T.);
#930 = VERTEX_POINT('',#931);
#931 = CARTESIAN_POINT('',(10.,-95.15286775831,75.186396005826));
#932 = CIRCLE('',#933,1.7);
#933 = AXIS2_PLACEMENT_3D('',#934,#935,#936);
#934 = CARTESIAN_POINT('',(10.,-96.85217952698,75.13802749489));
#935 = DIRECTION('',(1.,0.,0.));
#936 = DIRECTION('',(-0.,0.,1.));
#937 = ORIENTED_EDGE('',*,*,#938,.F.);
#938 = EDGE_CURVE('',#911,#930,#939,.T.);
#939 = CIRCLE('',#940,1.7);
#940 = AXIS2_PLACEMENT_3D('',#941,#942,#943);
#941 = CARTESIAN_POINT('',(10.,-96.85217952698,75.13802749489));
#942 = DIRECTION('',(1.,0.,0.));
#943 = DIRECTION('',(-0.,0.,1.));
#944 = CYLINDRICAL_SURFACE('',#945,1.7);
#945 = AXIS2_PLACEMENT_3D('',#946,#947,#948);
#946 = CARTESIAN_POINT('',(-11.,-96.85217952698,75.13802749489));
#947 = DIRECTION('',(1.,0.,0.));
#948 = DIRECTION('',(-0.,0.,1.));
#949 = ADVANCED_FACE('',(#950),#968,.F.);
#950 = FACE_BOUND('',#951,.F.);
#951 = EDGE_LOOP('',(#952,#953,#961,#967));
#952 = ORIENTED_EDGE('',*,*,#505,.T.);
#953 = ORIENTED_EDGE('',*,*,#954,.T.);
#954 = EDGE_CURVE('',#497,#955,#957,.T.);
#955 = VERTEX_POINT('',#956);
#956 = CARTESIAN_POINT('',(10.,-96.03022192171,84.26021942968));
#957 = LINE('',#958,#959);
#958 = CARTESIAN_POINT('',(-11.,-96.03022192171,84.26021942968));
#959 = VECTOR('',#960,1.);
#960 = DIRECTION('',(1.,0.,0.));
#961 = ORIENTED_EDGE('',*,*,#962,.F.);
#962 = EDGE_CURVE('',#922,#955,#963,.T.);
#963 = LINE('',#964,#965);
#964 = CARTESIAN_POINT('',(10.,-95.71602654103,81.02544258069));
#965 = VECTOR('',#966,1.);
#966 = DIRECTION('',(0.,-9.667550174874E-02,0.995315953535));
#967 = ORIENTED_EDGE('',*,*,#921,.F.);
#968 = PLANE('',#969);
#969 = AXIS2_PLACEMENT_3D('',#970,#971,#972);
#970 = CARTESIAN_POINT('',(-11.,-96.03022192171,84.26021942968));
#971 = DIRECTION('',(-0.,0.995315953535,9.667550174874E-02));
#972 = DIRECTION('',(0.,9.667550174874E-02,-0.995315953535));
#973 = ADVANCED_FACE('',(#974),#985,.F.);
#974 = FACE_BOUND('',#975,.F.);
#975 = EDGE_LOOP('',(#976,#977,#983,#984));
#976 = ORIENTED_EDGE('',*,*,#286,.F.);
#977 = ORIENTED_EDGE('',*,*,#978,.T.);
#978 = EDGE_CURVE('',#287,#585,#979,.T.);
#979 = LINE('',#980,#981);
#980 = CARTESIAN_POINT('',(-10.,-101.4958913853,86.743454681192));
#981 = VECTOR('',#982,1.);
#982 = DIRECTION('',(1.,0.,0.));
#983 = ORIENTED_EDGE('',*,*,#592,.T.);
#984 = ORIENTED_EDGE('',*,*,#731,.F.);
#985 = PLANE('',#986);
#986 = AXIS2_PLACEMENT_3D('',#987,#988,#989);
#987 = CARTESIAN_POINT('',(-10.,-101.4958913853,86.743454681192));
#988 = DIRECTION('',(-0.,0.995315953535,9.667550174874E-02));
#989 = DIRECTION('',(0.,9.667550174874E-02,-0.995315953535));
#990 = ADVANCED_FACE('',(#991),#997,.F.);
#991 = FACE_BOUND('',#992,.F.);
#992 = EDGE_LOOP('',(#993,#994,#995,#996));
#993 = ORIENTED_EDGE('',*,*,#294,.F.);
#994 = ORIENTED_EDGE('',*,*,#692,.T.);
#995 = ORIENTED_EDGE('',*,*,#584,.T.);
#996 = ORIENTED_EDGE('',*,*,#978,.F.);
#997 = PLANE('',#998);
#998 = AXIS2_PLACEMENT_3D('',#999,#1000,#1001);
#999 = CARTESIAN_POINT('',(-10.,-94.5286797106,87.420183193433));
#1000 = DIRECTION('',(0.,9.667550174874E-02,-0.995315953535));
#1001 = DIRECTION('',(0.,-0.995315953535,-9.667550174874E-02));
#1002 = ADVANCED_FACE('',(#1003),#1014,.F.);
#1003 = FACE_BOUND('',#1004,.F.);
#1004 = EDGE_LOOP('',(#1005,#1006,#1007,#1008));
#1005 = ORIENTED_EDGE('',*,*,#388,.T.);
#1006 = ORIENTED_EDGE('',*,*,#707,.T.);
#1007 = ORIENTED_EDGE('',*,*,#616,.F.);
#1008 = ORIENTED_EDGE('',*,*,#1009,.F.);
#1009 = EDGE_CURVE('',#380,#617,#1010,.T.);
#1010 = LINE('',#1011,#1012);
#1011 = CARTESIAN_POINT('',(-11.,-99.41429616373,83.931522723734));
#1012 = VECTOR('',#1013,1.);
#1013 = DIRECTION('',(1.,0.,0.));
#1014 = PLANE('',#1015);
#1015 = AXIS2_PLACEMENT_3D('',#1016,#1017,#1018);
#1016 = CARTESIAN_POINT('',(-11.,-98.54421664799,74.973679141918));
#1017 = DIRECTION('',(0.,-0.995315953535,-9.667550174874E-02));
#1018 = DIRECTION('',(0.,-9.667550174874E-02,0.995315953535));
#1019 = ADVANCED_FACE('',(#1020),#1031,.F.);
#1020 = FACE_BOUND('',#1021,.F.);
#1021 = EDGE_LOOP('',(#1022,#1023,#1029,#1030));
#1022 = ORIENTED_EDGE('',*,*,#362,.T.);
#1023 = ORIENTED_EDGE('',*,*,#1024,.T.);
#1024 = EDGE_CURVE('',#363,#636,#1025,.T.);
#1025 = LINE('',#1026,#1027);
#1026 = CARTESIAN_POINT('',(-11.,-96.03022192171,84.26021942968));
#1027 = VECTOR('',#1028,1.);
#1028 = DIRECTION('',(1.,0.,0.));
#1029 = ORIENTED_EDGE('',*,*,#644,.F.);
#1030 = ORIENTED_EDGE('',*,*,#716,.F.);
#1031 = PLANE('',#1032);
#1032 = AXIS2_PLACEMENT_3D('',#1033,#1034,#1035);
#1033 = CARTESIAN_POINT('',(-11.,-96.03022192171,84.26021942968));
#1034 = DIRECTION('',(-0.,0.995315953535,9.667550174874E-02));
#1035 = DIRECTION('',(0.,9.667550174874E-02,-0.995315953535));
#1036 = ADVANCED_FACE('',(#1037),#1062,.F.);
#1037 = FACE_BOUND('',#1038,.F.);
#1038 = EDGE_LOOP('',(#1039,#1040,#1048,#1056));
#1039 = ORIENTED_EDGE('',*,*,#326,.F.);
#1040 = ORIENTED_EDGE('',*,*,#1041,.T.);
#1041 = EDGE_CURVE('',#327,#1042,#1044,.T.);
#1042 = VERTEX_POINT('',#1043);
#1043 = CARTESIAN_POINT('',(10.,-86.81203979589,8.294816856025));
#1044 = LINE('',#1045,#1046);
#1045 = CARTESIAN_POINT('',(-10.,-86.81203979589,8.294816856025));
#1046 = VECTOR('',#1047,1.);
#1047 = DIRECTION('',(1.,0.,0.));
#1048 = ORIENTED_EDGE('',*,*,#1049,.T.);
#1049 = EDGE_CURVE('',#1042,#1050,#1052,.T.);
#1050 = VERTEX_POINT('',#1051);
#1051 = CARTESIAN_POINT('',(10.,-86.81226674243,8.294794812602));
#1052 = LINE('',#1053,#1054);
#1053 = CARTESIAN_POINT('',(10.,-86.81203979589,8.294816856025));
#1054 = VECTOR('',#1055,1.);
#1055 = DIRECTION('',(0.,-0.995315953535,-9.667550174874E-02));
#1056 = ORIENTED_EDGE('',*,*,#1057,.T.);
#1057 = EDGE_CURVE('',#1050,#319,#1058,.T.);
#1058 = LINE('',#1059,#1060);
#1059 = CARTESIAN_POINT('',(-10.,-86.81226674243,8.294794812602));
#1060 = VECTOR('',#1061,1.);
#1061 = DIRECTION('',(-1.,0.,-0.));
#1062 = PLANE('',#1063);
#1063 = AXIS2_PLACEMENT_3D('',#1064,#1065,#1066);
#1064 = CARTESIAN_POINT('',(-10.,-86.81203979589,8.294816856025));
#1065 = DIRECTION('',(0.,9.667550174874E-02,-0.995315953535));
#1066 = DIRECTION('',(0.,-0.995315953535,-9.667550174874E-02));
#1067 = ADVANCED_FACE('',(#1068,#1079,#1082,#1085,#1088),#1091,.T.);
#1068 = FACE_BOUND('',#1069,.T.);
#1069 = EDGE_LOOP('',(#1070,#1071,#1072,#1078));
#1070 = ORIENTED_EDGE('',*,*,#334,.T.);
#1071 = ORIENTED_EDGE('',*,*,#1041,.T.);
#1072 = ORIENTED_EDGE('',*,*,#1073,.F.);
#1073 = EDGE_CURVE('',#32,#1042,#1074,.T.);
#1074 = LINE('',#1075,#1076);
#1075 = CARTESIAN_POINT('',(10.,-85.41024502054,-6.137264470235));
#1076 = VECTOR('',#1077,1.);
#1077 = DIRECTION('',(0.,-9.667550174874E-02,0.995315953535));
#1078 = ORIENTED_EDGE('',*,*,#39,.F.);
#1079 = FACE_BOUND('',#1080,.T.);
#1080 = EDGE_LOOP('',(#1081));
#1081 = ORIENTED_EDGE('',*,*,#201,.T.);
#1082 = FACE_BOUND('',#1083,.T.);
#1083 = EDGE_LOOP('',(#1084));
#1084 = ORIENTED_EDGE('',*,*,#176,.T.);
#1085 = FACE_BOUND('',#1086,.T.);
#1086 = EDGE_LOOP('',(#1087));
#1087 = ORIENTED_EDGE('',*,*,#251,.T.);
#1088 = FACE_BOUND('',#1089,.T.);
#1089 = EDGE_LOOP('',(#1090));
#1090 = ORIENTED_EDGE('',*,*,#226,.T.);
#1091 = PLANE('',#1092);
#1092 = AXIS2_PLACEMENT_3D('',#1093,#1094,#1095);
#1093 = CARTESIAN_POINT('',(0.,-86.11114240822,1.078776192895));
#1094 = DIRECTION('',(0.,0.995315953535,9.667550174874E-02));
#1095 = DIRECTION('',(0.,-9.667550174874E-02,0.995315953535));
#1096 = ADVANCED_FACE('',(#1097,#1112),#1146,.T.);
#1097 = FACE_BOUND('',#1098,.T.);
#1098 = EDGE_LOOP('',(#1099,#1100,#1101,#1102,#1103,#1104,#1105,#1111));
#1099 = ORIENTED_EDGE('',*,*,#318,.F.);
#1100 = ORIENTED_EDGE('',*,*,#675,.T.);
#1101 = ORIENTED_EDGE('',*,*,#560,.T.);
#1102 = ORIENTED_EDGE('',*,*,#545,.T.);
#1103 = ORIENTED_EDGE('',*,*,#421,.F.);
#1104 = ORIENTED_EDGE('',*,*,#800,.T.);
#1105 = ORIENTED_EDGE('',*,*,#1106,.T.);
#1106 = EDGE_CURVE('',#793,#1050,#1107,.T.);
#1107 = LINE('',#1108,#1109);
#1108 = CARTESIAN_POINT('',(10.,-93.25849249553,74.348404536482));
#1109 = VECTOR('',#1110,1.);
#1110 = DIRECTION('',(0.,9.712938472394E-02,-0.9952717632));
#1111 = ORIENTED_EDGE('',*,*,#1057,.T.);
#1112 = FACE_BOUND('',#1113,.T.);
#1113 = EDGE_LOOP('',(#1114,#1124,#1132,#1140));
#1114 = ORIENTED_EDGE('',*,*,#1115,.F.);
#1115 = EDGE_CURVE('',#1116,#1118,#1120,.T.);
#1116 = VERTEX_POINT('',#1117);
#1117 = CARTESIAN_POINT('',(2.61,-91.07578030974,51.982445852715));
#1118 = VERTEX_POINT('',#1119);
#1119 = CARTESIAN_POINT('',(2.61,-89.99167867097,40.873801928218));
#1120 = LINE('',#1121,#1122);
#1121 = CARTESIAN_POINT('',(2.61,-90.28864106718,43.91673572747));
#1122 = VECTOR('',#1123,1.);
#1123 = DIRECTION('',(0.,9.712938472395E-02,-0.9952717632));
#1124 = ORIENTED_EDGE('',*,*,#1125,.T.);
#1125 = EDGE_CURVE('',#1116,#1126,#1128,.T.);
#1126 = VERTEX_POINT('',#1127);
#1127 = CARTESIAN_POINT('',(-2.61,-91.07578030974,51.982445852715));
#1128 = LINE('',#1129,#1130);
#1129 = CARTESIAN_POINT('',(-6.305,-91.07578030974,51.982445852715));
#1130 = VECTOR('',#1131,1.);
#1131 = DIRECTION('',(-1.,0.,-0.));
#1132 = ORIENTED_EDGE('',*,*,#1133,.T.);
#1133 = EDGE_CURVE('',#1126,#1134,#1136,.T.);
#1134 = VERTEX_POINT('',#1135);
#1135 = CARTESIAN_POINT('',(-2.61,-89.99167867097,40.873801928218));
#1136 = LINE('',#1137,#1138);
#1137 = CARTESIAN_POINT('',(-2.61,-90.78400644052,48.992678192852));
#1138 = VECTOR('',#1139,1.);
#1139 = DIRECTION('',(0.,9.712938472394E-02,-0.9952717632));
#1140 = ORIENTED_EDGE('',*,*,#1141,.T.);
#1141 = EDGE_CURVE('',#1134,#1118,#1142,.T.);
#1142 = LINE('',#1143,#1144);
#1143 = CARTESIAN_POINT('',(-6.305,-89.99167867097,40.873801928218));
#1144 = VECTOR('',#1145,1.);
#1145 = DIRECTION('',(1.,0.,0.));
#1146 = PLANE('',#1147);
#1147 = AXIS2_PLACEMENT_3D('',#1148,#1149,#1150);
#1148 = CARTESIAN_POINT('',(-1.532430898484E-16,-90.19275674147,
    42.934221916793));
#1149 = DIRECTION('',(0.,0.9952717632,9.712938472395E-02));
#1150 = DIRECTION('',(0.,-9.712938472395E-02,0.9952717632));
#1151 = ADVANCED_FACE('',(#1152),#1177,.T.);
#1152 = FACE_BOUND('',#1153,.T.);
#1153 = EDGE_LOOP('',(#1154,#1164,#1170,#1171));
#1154 = ORIENTED_EDGE('',*,*,#1155,.T.);
#1155 = EDGE_CURVE('',#1156,#1158,#1160,.T.);
#1156 = VERTEX_POINT('',#1157);
#1157 = CARTESIAN_POINT('',(2.61,-89.54802357575,40.916894354077));
#1158 = VERTEX_POINT('',#1159);
#1159 = CARTESIAN_POINT('',(2.61,-90.70568763971,52.83554479662));
#1160 = LINE('',#1161,#1162);
#1161 = CARTESIAN_POINT('',(2.61,-89.54802357575,40.916894354077));
#1162 = VECTOR('',#1163,1.);
#1163 = DIRECTION('',(0.,-9.667550174874E-02,0.995315953535));
#1164 = ORIENTED_EDGE('',*,*,#1165,.T.);
#1165 = EDGE_CURVE('',#1158,#1116,#1166,.T.);
#1166 = LINE('',#1167,#1168);
#1167 = CARTESIAN_POINT('',(2.61,-90.70568763971,52.83554479662));
#1168 = VECTOR('',#1169,1.);
#1169 = DIRECTION('',(0.,-0.397984450431,-0.917392161082));
#1170 = ORIENTED_EDGE('',*,*,#1115,.T.);
#1171 = ORIENTED_EDGE('',*,*,#1172,.T.);
#1172 = EDGE_CURVE('',#1118,#1156,#1173,.T.);
#1173 = LINE('',#1174,#1175);
#1174 = CARTESIAN_POINT('',(2.61,-96.02753043326,40.287536837693));
#1175 = VECTOR('',#1176,1.);
#1176 = DIRECTION('',(0.,0.995315953535,9.667550174874E-02));
#1177 = PLANE('',#1178);
#1178 = AXIS2_PLACEMENT_3D('',#1179,#1180,#1181);
#1179 = CARTESIAN_POINT('',(2.61,-92.06622818537,45.475569165265));
#1180 = DIRECTION('',(1.,0.,0.));
#1181 = DIRECTION('',(-0.,0.,1.));
#1182 = ADVANCED_FACE('',(#1183),#1201,.F.);
#1183 = FACE_BOUND('',#1184,.F.);
#1184 = EDGE_LOOP('',(#1185,#1193,#1194,#1195));
#1185 = ORIENTED_EDGE('',*,*,#1186,.F.);
#1186 = EDGE_CURVE('',#1134,#1187,#1189,.T.);
#1187 = VERTEX_POINT('',#1188);
#1188 = CARTESIAN_POINT('',(-2.61,-89.54802357575,40.916894354077));
#1189 = LINE('',#1190,#1191);
#1190 = CARTESIAN_POINT('',(-2.61,-96.02753043326,40.287536837693));
#1191 = VECTOR('',#1192,1.);
#1192 = DIRECTION('',(0.,0.995315953535,9.667550174874E-02));
#1193 = ORIENTED_EDGE('',*,*,#1141,.T.);
#1194 = ORIENTED_EDGE('',*,*,#1172,.T.);
#1195 = ORIENTED_EDGE('',*,*,#1196,.F.);
#1196 = EDGE_CURVE('',#1187,#1156,#1197,.T.);
#1197 = LINE('',#1198,#1199);
#1198 = CARTESIAN_POINT('',(-2.61,-89.54802357575,40.916894354077));
#1199 = VECTOR('',#1200,1.);
#1200 = DIRECTION('',(1.,0.,0.));
#1201 = PLANE('',#1202);
#1202 = AXIS2_PLACEMENT_3D('',#1203,#1204,#1205);
#1203 = CARTESIAN_POINT('',(-2.61,-96.02753043326,40.287536837693));
#1204 = DIRECTION('',(0.,-9.667550174874E-02,0.995315953535));
#1205 = DIRECTION('',(0.,0.995315953535,9.667550174874E-02));
#1206 = ADVANCED_FACE('',(#1207),#1225,.F.);
#1207 = FACE_BOUND('',#1208,.F.);
#1208 = EDGE_LOOP('',(#1209,#1217,#1223,#1224));
#1209 = ORIENTED_EDGE('',*,*,#1210,.T.);
#1210 = EDGE_CURVE('',#1187,#1211,#1213,.T.);
#1211 = VERTEX_POINT('',#1212);
#1212 = CARTESIAN_POINT('',(-2.61,-90.70568763971,52.83554479662));
#1213 = LINE('',#1214,#1215);
#1214 = CARTESIAN_POINT('',(-2.61,-89.54802357575,40.916894354077));
#1215 = VECTOR('',#1216,1.);
#1216 = DIRECTION('',(0.,-9.667550174874E-02,0.995315953535));
#1217 = ORIENTED_EDGE('',*,*,#1218,.T.);
#1218 = EDGE_CURVE('',#1211,#1126,#1219,.T.);
#1219 = LINE('',#1220,#1221);
#1220 = CARTESIAN_POINT('',(-2.61,-90.70568763971,52.83554479662));
#1221 = VECTOR('',#1222,1.);
#1222 = DIRECTION('',(0.,-0.397984450431,-0.917392161082));
#1223 = ORIENTED_EDGE('',*,*,#1133,.T.);
#1224 = ORIENTED_EDGE('',*,*,#1186,.T.);
#1225 = PLANE('',#1226);
#1226 = AXIS2_PLACEMENT_3D('',#1227,#1228,#1229);
#1227 = CARTESIAN_POINT('',(-2.61,-92.06622818537,45.475569165265));
#1228 = DIRECTION('',(1.,0.,0.));
#1229 = DIRECTION('',(-0.,0.,1.));
#1230 = ADVANCED_FACE('',(#1231),#1242,.F.);
#1231 = FACE_BOUND('',#1232,.F.);
#1232 = EDGE_LOOP('',(#1233,#1234,#1240,#1241));
#1233 = ORIENTED_EDGE('',*,*,#1218,.F.);
#1234 = ORIENTED_EDGE('',*,*,#1235,.T.);
#1235 = EDGE_CURVE('',#1211,#1158,#1236,.T.);
#1236 = LINE('',#1237,#1238);
#1237 = CARTESIAN_POINT('',(-2.61,-90.70568763971,52.83554479662));
#1238 = VECTOR('',#1239,1.);
#1239 = DIRECTION('',(1.,0.,0.));
#1240 = ORIENTED_EDGE('',*,*,#1165,.T.);
#1241 = ORIENTED_EDGE('',*,*,#1125,.T.);
#1242 = PLANE('',#1243);
#1243 = AXIS2_PLACEMENT_3D('',#1244,#1245,#1246);
#1244 = CARTESIAN_POINT('',(-2.61,-90.70568763971,52.83554479662));
#1245 = DIRECTION('',(0.,0.917392161082,-0.397984450431));
#1246 = DIRECTION('',(0.,-0.397984450431,-0.917392161082));
#1247 = ADVANCED_FACE('',(#1248),#1254,.F.);
#1248 = FACE_BOUND('',#1249,.F.);
#1249 = EDGE_LOOP('',(#1250,#1251,#1252,#1253));
#1250 = ORIENTED_EDGE('',*,*,#1196,.T.);
#1251 = ORIENTED_EDGE('',*,*,#1155,.T.);
#1252 = ORIENTED_EDGE('',*,*,#1235,.F.);
#1253 = ORIENTED_EDGE('',*,*,#1210,.F.);
#1254 = PLANE('',#1255);
#1255 = AXIS2_PLACEMENT_3D('',#1256,#1257,#1258);
#1256 = CARTESIAN_POINT('',(-2.61,-89.54802357575,40.916894354077));
#1257 = DIRECTION('',(0.,-0.995315953535,-9.667550174874E-02));
#1258 = DIRECTION('',(0.,-9.667550174874E-02,0.995315953535));
#1259 = ADVANCED_FACE('',(#1260,#1275),#1373,.T.);
#1260 = FACE_BOUND('',#1261,.T.);
#1261 = EDGE_LOOP('',(#1262,#1263,#1264,#1270,#1271,#1272,#1273,#1274));
#1262 = ORIENTED_EDGE('',*,*,#270,.F.);
#1263 = ORIENTED_EDGE('',*,*,#144,.T.);
#1264 = ORIENTED_EDGE('',*,*,#1265,.T.);
#1265 = EDGE_CURVE('',#145,#762,#1266,.T.);
#1266 = LINE('',#1267,#1268);
#1267 = CARTESIAN_POINT('',(10.,-88.76428711162,7.602841120743));
#1268 = VECTOR('',#1269,1.);
#1269 = DIRECTION('',(0.,-9.712938472394E-02,0.9952717632));
#1270 = ORIENTED_EDGE('',*,*,#769,.T.);
#1271 = ORIENTED_EDGE('',*,*,#469,.F.);
#1272 = ORIENTED_EDGE('',*,*,#538,.T.);
#1273 = ORIENTED_EDGE('',*,*,#608,.T.);
#1274 = ORIENTED_EDGE('',*,*,#738,.T.);
#1275 = FACE_BOUND('',#1276,.T.);
#1276 = EDGE_LOOP('',(#1277,#1287,#1295,#1303,#1311,#1319,#1327,#1335,
    #1343,#1351,#1359,#1367));
#1277 = ORIENTED_EDGE('',*,*,#1278,.F.);
#1278 = EDGE_CURVE('',#1279,#1281,#1283,.T.);
#1279 = VERTEX_POINT('',#1280);
#1280 = CARTESIAN_POINT('',(5.6,-92.33221661946,44.162935703117));
#1281 = VERTEX_POINT('',#1282);
#1282 = CARTESIAN_POINT('',(5.6,-93.01212238322,51.129838769944));
#1283 = LINE('',#1284,#1285);
#1284 = CARTESIAN_POINT('',(5.6,-92.78232256215,48.7751108598));
#1285 = VECTOR('',#1286,1.);
#1286 = DIRECTION('',(0.,-9.712938472394E-02,0.9952717632));
#1287 = ORIENTED_EDGE('',*,*,#1288,.T.);
#1288 = EDGE_CURVE('',#1279,#1289,#1291,.T.);
#1289 = VERTEX_POINT('',#1290);
#1290 = CARTESIAN_POINT('',(2.61,-92.33221661946,44.162935703117));
#1291 = LINE('',#1292,#1293);
#1292 = CARTESIAN_POINT('',(-3.7,-92.33221661946,44.162935703117));
#1293 = VECTOR('',#1294,1.);
#1294 = DIRECTION('',(-1.,-0.,0.));
#1295 = ORIENTED_EDGE('',*,*,#1296,.F.);
#1296 = EDGE_CURVE('',#1297,#1289,#1299,.T.);
#1297 = VERTEX_POINT('',#1298);
#1298 = CARTESIAN_POINT('',(2.61,-91.99226373758,40.679484169703));
#1299 = LINE('',#1300,#1301);
#1300 = CARTESIAN_POINT('',(2.61,-92.34422221553,44.28595543398));
#1301 = VECTOR('',#1302,1.);
#1302 = DIRECTION('',(0.,-9.712938472395E-02,0.9952717632));
#1303 = ORIENTED_EDGE('',*,*,#1304,.T.);
#1304 = EDGE_CURVE('',#1297,#1305,#1307,.T.);
#1305 = VERTEX_POINT('',#1306);
#1306 = CARTESIAN_POINT('',(-2.61,-91.99226373758,40.679484169703));
#1307 = LINE('',#1308,#1309);
#1308 = CARTESIAN_POINT('',(-6.305,-91.99226373758,40.679484169703));
#1309 = VECTOR('',#1310,1.);
#1310 = DIRECTION('',(-1.,-0.,0.));
#1311 = ORIENTED_EDGE('',*,*,#1312,.T.);
#1312 = EDGE_CURVE('',#1305,#1313,#1315,.T.);
#1313 = VERTEX_POINT('',#1314);
#1314 = CARTESIAN_POINT('',(-2.61,-92.33221661946,44.162935703117));
#1315 = LINE('',#1316,#1317);
#1316 = CARTESIAN_POINT('',(-2.61,-92.17910042441,42.593974612186));
#1317 = VECTOR('',#1318,1.);
#1318 = DIRECTION('',(0.,-9.712938472394E-02,0.9952717632));
#1319 = ORIENTED_EDGE('',*,*,#1320,.T.);
#1320 = EDGE_CURVE('',#1313,#1321,#1323,.T.);
#1321 = VERTEX_POINT('',#1322);
#1322 = CARTESIAN_POINT('',(-5.6,-92.33221661946,44.162935703117));
#1323 = LINE('',#1324,#1325);
#1324 = CARTESIAN_POINT('',(-7.8,-92.33221661946,44.162935703117));
#1325 = VECTOR('',#1326,1.);
#1326 = DIRECTION('',(-1.,-0.,0.));
#1327 = ORIENTED_EDGE('',*,*,#1328,.T.);
#1328 = EDGE_CURVE('',#1321,#1329,#1331,.T.);
#1329 = VERTEX_POINT('',#1330);
#1330 = CARTESIAN_POINT('',(-5.6,-93.01212238322,51.129838769944));
#1331 = LINE('',#1332,#1333);
#1332 = CARTESIAN_POINT('',(-5.6,-92.45207897992,45.391149216212));
#1333 = VECTOR('',#1334,1.);
#1334 = DIRECTION('',(0.,-9.712938472395E-02,0.9952717632));
#1335 = ORIENTED_EDGE('',*,*,#1336,.T.);
#1336 = EDGE_CURVE('',#1329,#1337,#1339,.T.);
#1337 = VERTEX_POINT('',#1338);
#1338 = CARTESIAN_POINT('',(-2.6,-93.01212238322,51.129838769944));
#1339 = LINE('',#1340,#1341);
#1340 = CARTESIAN_POINT('',(-7.8,-93.01212238322,51.129838769944));
#1341 = VECTOR('',#1342,1.);
#1342 = DIRECTION('',(1.,0.,0.));
#1343 = ORIENTED_EDGE('',*,*,#1344,.F.);
#1344 = EDGE_CURVE('',#1345,#1337,#1347,.T.);
#1345 = VERTEX_POINT('',#1346);
#1346 = CARTESIAN_POINT('',(-2.6,-92.72445050205,48.182103630798));
#1347 = LINE('',#1348,#1349);
#1348 = CARTESIAN_POINT('',(-2.6,-92.78232256215,48.7751108598));
#1349 = VECTOR('',#1350,1.);
#1350 = DIRECTION('',(0.,-9.712938472394E-02,0.9952717632));
#1351 = ORIENTED_EDGE('',*,*,#1352,.T.);
#1352 = EDGE_CURVE('',#1345,#1353,#1355,.T.);
#1353 = VERTEX_POINT('',#1354);
#1354 = CARTESIAN_POINT('',(2.6,-92.72445050205,48.182103630798));
#1355 = LINE('',#1356,#1357);
#1356 = CARTESIAN_POINT('',(-6.305,-92.72445050205,48.182103630798));
#1357 = VECTOR('',#1358,1.);
#1358 = DIRECTION('',(1.,0.,0.));
#1359 = ORIENTED_EDGE('',*,*,#1360,.T.);
#1360 = EDGE_CURVE('',#1353,#1361,#1363,.T.);
#1361 = VERTEX_POINT('',#1362);
#1362 = CARTESIAN_POINT('',(2.6,-93.01212238322,51.129838769944));
#1363 = LINE('',#1364,#1365);
#1364 = CARTESIAN_POINT('',(2.6,-92.61720077103,47.083130038006));
#1365 = VECTOR('',#1366,1.);
#1366 = DIRECTION('',(0.,-9.712938472394E-02,0.9952717632));
#1367 = ORIENTED_EDGE('',*,*,#1368,.T.);
#1368 = EDGE_CURVE('',#1361,#1281,#1369,.T.);
#1369 = LINE('',#1370,#1371);
#1370 = CARTESIAN_POINT('',(-3.7,-93.01212238322,51.129838769944));
#1371 = VECTOR('',#1372,1.);
#1372 = DIRECTION('',(1.,0.,0.));
#1373 = PLANE('',#1374);
#1374 = AXIS2_PLACEMENT_3D('',#1375,#1376,#1377);
#1375 = CARTESIAN_POINT('',(6.579038015172E-17,-91.76520220957,
    38.352815180937));
#1376 = DIRECTION('',(-0.,-0.9952717632,-9.712938472395E-02));
#1377 = DIRECTION('',(0.,9.712938472395E-02,-0.9952717632));
#1378 = ADVANCED_FACE('',(#1379,#1404),#1415,.T.);
#1379 = FACE_BOUND('',#1380,.T.);
#1380 = EDGE_LOOP('',(#1381,#1389,#1390,#1398));
#1381 = ORIENTED_EDGE('',*,*,#1382,.T.);
#1382 = EDGE_CURVE('',#1383,#1279,#1385,.T.);
#1383 = VERTEX_POINT('',#1384);
#1384 = CARTESIAN_POINT('',(5.6,-98.8033589432,43.53439063779));
#1385 = LINE('',#1386,#1387);
#1386 = CARTESIAN_POINT('',(5.6,-98.8033589432,43.53439063779));
#1387 = VECTOR('',#1388,1.);
#1388 = DIRECTION('',(0.,0.995315953535,9.667550174874E-02));
#1389 = ORIENTED_EDGE('',*,*,#1278,.T.);
#1390 = ORIENTED_EDGE('',*,*,#1391,.T.);
#1391 = EDGE_CURVE('',#1281,#1392,#1394,.T.);
#1392 = VERTEX_POINT('',#1393);
#1393 = CARTESIAN_POINT('',(5.6,-99.48008745544,50.501602312536));
#1394 = LINE('',#1395,#1396);
#1395 = CARTESIAN_POINT('',(5.6,-93.00058059793,51.130959828921));
#1396 = VECTOR('',#1397,1.);
#1397 = DIRECTION('',(0.,-0.995315953535,-9.667550174874E-02));
#1398 = ORIENTED_EDGE('',*,*,#1399,.T.);
#1399 = EDGE_CURVE('',#1392,#1383,#1400,.T.);
#1400 = LINE('',#1401,#1402);
#1401 = CARTESIAN_POINT('',(5.6,-99.48008745544,50.501602312536));
#1402 = VECTOR('',#1403,1.);
#1403 = DIRECTION('',(0.,9.667550174874E-02,-0.995315953535));
#1404 = FACE_BOUND('',#1405,.T.);
#1405 = EDGE_LOOP('',(#1406));
#1406 = ORIENTED_EDGE('',*,*,#1407,.F.);
#1407 = EDGE_CURVE('',#1408,#1408,#1410,.T.);
#1408 = VERTEX_POINT('',#1409);
#1409 = CARTESIAN_POINT('',(5.6,-96.15577533871,48.258022980409));
#1410 = CIRCLE('',#1411,0.95);
#1411 = AXIS2_PLACEMENT_3D('',#1412,#1413,#1414);
#1412 = CARTESIAN_POINT('',(5.6,-96.15577533871,47.308022980409));
#1413 = DIRECTION('',(1.,0.,0.));
#1414 = DIRECTION('',(-0.,0.,1.));
#1415 = PLANE('',#1416);
#1416 = AXIS2_PLACEMENT_3D('',#1417,#1418,#1419);
#1417 = CARTESIAN_POINT('',(5.6,-95.90196977056,47.332675233355));
#1418 = DIRECTION('',(1.,0.,0.));
#1419 = DIRECTION('',(-0.,0.,1.));
#1420 = ADVANCED_FACE('',(#1421),#1439,.F.);
#1421 = FACE_BOUND('',#1422,.F.);
#1422 = EDGE_LOOP('',(#1423,#1431,#1432,#1433));
#1423 = ORIENTED_EDGE('',*,*,#1424,.F.);
#1424 = EDGE_CURVE('',#1361,#1425,#1427,.T.);
#1425 = VERTEX_POINT('',#1426);
#1426 = CARTESIAN_POINT('',(2.6,-99.48008745544,50.501602312536));
#1427 = LINE('',#1428,#1429);
#1428 = CARTESIAN_POINT('',(2.6,-93.00058059793,51.130959828921));
#1429 = VECTOR('',#1430,1.);
#1430 = DIRECTION('',(0.,-0.995315953535,-9.667550174874E-02));
#1431 = ORIENTED_EDGE('',*,*,#1368,.T.);
#1432 = ORIENTED_EDGE('',*,*,#1391,.T.);
#1433 = ORIENTED_EDGE('',*,*,#1434,.F.);
#1434 = EDGE_CURVE('',#1425,#1392,#1435,.T.);
#1435 = LINE('',#1436,#1437);
#1436 = CARTESIAN_POINT('',(2.6,-99.48008745544,50.501602312536));
#1437 = VECTOR('',#1438,1.);
#1438 = DIRECTION('',(1.,0.,0.));
#1439 = PLANE('',#1440);
#1440 = AXIS2_PLACEMENT_3D('',#1441,#1442,#1443);
#1441 = CARTESIAN_POINT('',(2.6,-93.00058059793,51.130959828921));
#1442 = DIRECTION('',(0.,9.667550174874E-02,-0.995315953535));
#1443 = DIRECTION('',(0.,-0.995315953535,-9.667550174874E-02));
#1444 = ADVANCED_FACE('',(#1445,#1471),#1482,.F.);
#1445 = FACE_BOUND('',#1446,.F.);
#1446 = EDGE_LOOP('',(#1447,#1455,#1456,#1457,#1465));
#1447 = ORIENTED_EDGE('',*,*,#1448,.T.);
#1448 = EDGE_CURVE('',#1449,#1353,#1451,.T.);
#1449 = VERTEX_POINT('',#1450);
#1450 = CARTESIAN_POINT('',(2.6,-94.56200940592,43.946354892107));
#1451 = LINE('',#1452,#1453);
#1452 = CARTESIAN_POINT('',(2.6,-92.12178176069,49.571312627428));
#1453 = VECTOR('',#1454,1.);
#1454 = DIRECTION('',(-0.,0.397984450431,0.917392161082));
#1455 = ORIENTED_EDGE('',*,*,#1360,.T.);
#1456 = ORIENTED_EDGE('',*,*,#1424,.T.);
#1457 = ORIENTED_EDGE('',*,*,#1458,.T.);
#1458 = EDGE_CURVE('',#1425,#1459,#1461,.T.);
#1459 = VERTEX_POINT('',#1460);
#1460 = CARTESIAN_POINT('',(2.6,-98.8033589432,43.53439063779));
#1461 = LINE('',#1462,#1463);
#1462 = CARTESIAN_POINT('',(2.6,-99.48008745544,50.501602312536));
#1463 = VECTOR('',#1464,1.);
#1464 = DIRECTION('',(0.,9.667550174874E-02,-0.995315953535));
#1465 = ORIENTED_EDGE('',*,*,#1466,.T.);
#1466 = EDGE_CURVE('',#1459,#1449,#1467,.T.);
#1467 = LINE('',#1468,#1469);
#1468 = CARTESIAN_POINT('',(2.6,-98.8033589432,43.53439063779));
#1469 = VECTOR('',#1470,1.);
#1470 = DIRECTION('',(0.,0.995315953535,9.667550174874E-02));
#1471 = FACE_BOUND('',#1472,.F.);
#1472 = EDGE_LOOP('',(#1473));
#1473 = ORIENTED_EDGE('',*,*,#1474,.F.);
#1474 = EDGE_CURVE('',#1475,#1475,#1477,.T.);
#1475 = VERTEX_POINT('',#1476);
#1476 = CARTESIAN_POINT('',(2.6,-96.15577533871,48.258022980409));
#1477 = CIRCLE('',#1478,0.95);
#1478 = AXIS2_PLACEMENT_3D('',#1479,#1480,#1481);
#1479 = CARTESIAN_POINT('',(2.6,-96.15577533871,47.308022980409));
#1480 = DIRECTION('',(1.,0.,0.));
#1481 = DIRECTION('',(-0.,0.,1.));
#1482 = PLANE('',#1483);
#1483 = AXIS2_PLACEMENT_3D('',#1484,#1485,#1486);
#1484 = CARTESIAN_POINT('',(2.6,-95.90196977056,47.332675233355));
#1485 = DIRECTION('',(1.,0.,0.));
#1486 = DIRECTION('',(-0.,0.,1.));
#1487 = ADVANCED_FACE('',(#1488),#1513,.F.);
#1488 = FACE_BOUND('',#1489,.F.);
#1489 = EDGE_LOOP('',(#1490,#1491,#1497,#1498,#1499,#1507));
#1490 = ORIENTED_EDGE('',*,*,#1466,.F.);
#1491 = ORIENTED_EDGE('',*,*,#1492,.T.);
#1492 = EDGE_CURVE('',#1459,#1383,#1493,.T.);
#1493 = LINE('',#1494,#1495);
#1494 = CARTESIAN_POINT('',(2.6,-98.8033589432,43.53439063779));
#1495 = VECTOR('',#1496,1.);
#1496 = DIRECTION('',(1.,0.,0.));
#1497 = ORIENTED_EDGE('',*,*,#1382,.T.);
#1498 = ORIENTED_EDGE('',*,*,#1288,.T.);
#1499 = ORIENTED_EDGE('',*,*,#1500,.F.);
#1500 = EDGE_CURVE('',#1501,#1289,#1503,.T.);
#1501 = VERTEX_POINT('',#1502);
#1502 = CARTESIAN_POINT('',(2.61,-94.56200940592,43.946354892107));
#1503 = LINE('',#1504,#1505);
#1504 = CARTESIAN_POINT('',(2.61,-95.37288400083,43.867594265354));
#1505 = VECTOR('',#1506,1.);
#1506 = DIRECTION('',(-0.,0.995315953535,9.667550174874E-02));
#1507 = ORIENTED_EDGE('',*,*,#1508,.T.);
#1508 = EDGE_CURVE('',#1501,#1449,#1509,.T.);
#1509 = LINE('',#1510,#1511);
#1510 = CARTESIAN_POINT('',(-5.E-03,-94.56200940592,43.946354892107));
#1511 = VECTOR('',#1512,1.);
#1512 = DIRECTION('',(-1.,0.,0.));
#1513 = PLANE('',#1514);
#1514 = AXIS2_PLACEMENT_3D('',#1515,#1516,#1517);
#1515 = CARTESIAN_POINT('',(2.6,-98.8033589432,43.53439063779));
#1516 = DIRECTION('',(0.,-9.667550174874E-02,0.995315953535));
#1517 = DIRECTION('',(0.,0.995315953535,9.667550174874E-02));
#1518 = ADVANCED_FACE('',(#1519,#1552),#1563,.T.);
#1519 = FACE_BOUND('',#1520,.T.);
#1520 = EDGE_LOOP('',(#1521,#1529,#1530,#1538,#1546));
#1521 = ORIENTED_EDGE('',*,*,#1522,.T.);
#1522 = EDGE_CURVE('',#1523,#1345,#1525,.T.);
#1523 = VERTEX_POINT('',#1524);
#1524 = CARTESIAN_POINT('',(-2.6,-94.56200940592,43.946354892107));
#1525 = LINE('',#1526,#1527);
#1526 = CARTESIAN_POINT('',(-2.6,-92.12178176069,49.571312627428));
#1527 = VECTOR('',#1528,1.);
#1528 = DIRECTION('',(-0.,0.397984450431,0.917392161082));
#1529 = ORIENTED_EDGE('',*,*,#1344,.T.);
#1530 = ORIENTED_EDGE('',*,*,#1531,.T.);
#1531 = EDGE_CURVE('',#1337,#1532,#1534,.T.);
#1532 = VERTEX_POINT('',#1533);
#1533 = CARTESIAN_POINT('',(-2.6,-99.48008745544,50.501602312536));
#1534 = LINE('',#1535,#1536);
#1535 = CARTESIAN_POINT('',(-2.6,-93.00058059793,51.130959828921));
#1536 = VECTOR('',#1537,1.);
#1537 = DIRECTION('',(0.,-0.995315953535,-9.667550174874E-02));
#1538 = ORIENTED_EDGE('',*,*,#1539,.T.);
#1539 = EDGE_CURVE('',#1532,#1540,#1542,.T.);
#1540 = VERTEX_POINT('',#1541);
#1541 = CARTESIAN_POINT('',(-2.6,-98.8033589432,43.53439063779));
#1542 = LINE('',#1543,#1544);
#1543 = CARTESIAN_POINT('',(-2.6,-99.48008745544,50.501602312536));
#1544 = VECTOR('',#1545,1.);
#1545 = DIRECTION('',(0.,9.667550174874E-02,-0.995315953535));
#1546 = ORIENTED_EDGE('',*,*,#1547,.T.);
#1547 = EDGE_CURVE('',#1540,#1523,#1548,.T.);
#1548 = LINE('',#1549,#1550);
#1549 = CARTESIAN_POINT('',(-2.6,-98.8033589432,43.53439063779));
#1550 = VECTOR('',#1551,1.);
#1551 = DIRECTION('',(0.,0.995315953535,9.667550174874E-02));
#1552 = FACE_BOUND('',#1553,.T.);
#1553 = EDGE_LOOP('',(#1554));
#1554 = ORIENTED_EDGE('',*,*,#1555,.F.);
#1555 = EDGE_CURVE('',#1556,#1556,#1558,.T.);
#1556 = VERTEX_POINT('',#1557);
#1557 = CARTESIAN_POINT('',(-2.6,-96.15577533871,48.258022980409));
#1558 = CIRCLE('',#1559,0.95);
#1559 = AXIS2_PLACEMENT_3D('',#1560,#1561,#1562);
#1560 = CARTESIAN_POINT('',(-2.6,-96.15577533871,47.308022980409));
#1561 = DIRECTION('',(1.,0.,0.));
#1562 = DIRECTION('',(-0.,0.,1.));
#1563 = PLANE('',#1564);
#1564 = AXIS2_PLACEMENT_3D('',#1565,#1566,#1567);
#1565 = CARTESIAN_POINT('',(-2.6,-95.90196977056,47.332675233355));
#1566 = DIRECTION('',(1.,0.,0.));
#1567 = DIRECTION('',(-0.,0.,1.));
#1568 = ADVANCED_FACE('',(#1569),#1587,.F.);
#1569 = FACE_BOUND('',#1570,.F.);
#1570 = EDGE_LOOP('',(#1571,#1579,#1580,#1581));
#1571 = ORIENTED_EDGE('',*,*,#1572,.F.);
#1572 = EDGE_CURVE('',#1329,#1573,#1575,.T.);
#1573 = VERTEX_POINT('',#1574);
#1574 = CARTESIAN_POINT('',(-5.6,-99.48008745544,50.501602312536));
#1575 = LINE('',#1576,#1577);
#1576 = CARTESIAN_POINT('',(-5.6,-93.00058059793,51.130959828921));
#1577 = VECTOR('',#1578,1.);
#1578 = DIRECTION('',(0.,-0.995315953535,-9.667550174874E-02));
#1579 = ORIENTED_EDGE('',*,*,#1336,.T.);
#1580 = ORIENTED_EDGE('',*,*,#1531,.T.);
#1581 = ORIENTED_EDGE('',*,*,#1582,.F.);
#1582 = EDGE_CURVE('',#1573,#1532,#1583,.T.);
#1583 = LINE('',#1584,#1585);
#1584 = CARTESIAN_POINT('',(-5.6,-99.48008745544,50.501602312536));
#1585 = VECTOR('',#1586,1.);
#1586 = DIRECTION('',(1.,0.,0.));
#1587 = PLANE('',#1588);
#1588 = AXIS2_PLACEMENT_3D('',#1589,#1590,#1591);
#1589 = CARTESIAN_POINT('',(-5.6,-93.00058059793,51.130959828921));
#1590 = DIRECTION('',(0.,9.667550174874E-02,-0.995315953535));
#1591 = DIRECTION('',(0.,-0.995315953535,-9.667550174874E-02));
#1592 = ADVANCED_FACE('',(#1593,#1611),#1622,.F.);
#1593 = FACE_BOUND('',#1594,.F.);
#1594 = EDGE_LOOP('',(#1595,#1603,#1604,#1605));
#1595 = ORIENTED_EDGE('',*,*,#1596,.T.);
#1596 = EDGE_CURVE('',#1597,#1321,#1599,.T.);
#1597 = VERTEX_POINT('',#1598);
#1598 = CARTESIAN_POINT('',(-5.6,-98.8033589432,43.53439063779));
#1599 = LINE('',#1600,#1601);
#1600 = CARTESIAN_POINT('',(-5.6,-98.8033589432,43.53439063779));
#1601 = VECTOR('',#1602,1.);
#1602 = DIRECTION('',(0.,0.995315953535,9.667550174874E-02));
#1603 = ORIENTED_EDGE('',*,*,#1328,.T.);
#1604 = ORIENTED_EDGE('',*,*,#1572,.T.);
#1605 = ORIENTED_EDGE('',*,*,#1606,.T.);
#1606 = EDGE_CURVE('',#1573,#1597,#1607,.T.);
#1607 = LINE('',#1608,#1609);
#1608 = CARTESIAN_POINT('',(-5.6,-99.48008745544,50.501602312536));
#1609 = VECTOR('',#1610,1.);
#1610 = DIRECTION('',(0.,9.667550174874E-02,-0.995315953535));
#1611 = FACE_BOUND('',#1612,.F.);
#1612 = EDGE_LOOP('',(#1613));
#1613 = ORIENTED_EDGE('',*,*,#1614,.F.);
#1614 = EDGE_CURVE('',#1615,#1615,#1617,.T.);
#1615 = VERTEX_POINT('',#1616);
#1616 = CARTESIAN_POINT('',(-5.6,-96.15577533871,48.258022980409));
#1617 = CIRCLE('',#1618,0.95);
#1618 = AXIS2_PLACEMENT_3D('',#1619,#1620,#1621);
#1619 = CARTESIAN_POINT('',(-5.6,-96.15577533871,47.308022980409));
#1620 = DIRECTION('',(1.,0.,0.));
#1621 = DIRECTION('',(-0.,0.,1.));
#1622 = PLANE('',#1623);
#1623 = AXIS2_PLACEMENT_3D('',#1624,#1625,#1626);
#1624 = CARTESIAN_POINT('',(-5.6,-95.90196977056,47.332675233355));
#1625 = DIRECTION('',(1.,0.,0.));
#1626 = DIRECTION('',(-0.,0.,1.));
#1627 = ADVANCED_FACE('',(#1628),#1653,.F.);
#1628 = FACE_BOUND('',#1629,.F.);
#1629 = EDGE_LOOP('',(#1630,#1631,#1637,#1638,#1646,#1652));
#1630 = ORIENTED_EDGE('',*,*,#1596,.F.);
#1631 = ORIENTED_EDGE('',*,*,#1632,.T.);
#1632 = EDGE_CURVE('',#1597,#1540,#1633,.T.);
#1633 = LINE('',#1634,#1635);
#1634 = CARTESIAN_POINT('',(-5.6,-98.8033589432,43.53439063779));
#1635 = VECTOR('',#1636,1.);
#1636 = DIRECTION('',(1.,0.,0.));
#1637 = ORIENTED_EDGE('',*,*,#1547,.T.);
#1638 = ORIENTED_EDGE('',*,*,#1639,.T.);
#1639 = EDGE_CURVE('',#1523,#1640,#1642,.T.);
#1640 = VERTEX_POINT('',#1641);
#1641 = CARTESIAN_POINT('',(-2.61,-94.56200940592,43.946354892107));
#1642 = LINE('',#1643,#1644);
#1643 = CARTESIAN_POINT('',(-4.105,-94.56200940592,43.946354892107));
#1644 = VECTOR('',#1645,1.);
#1645 = DIRECTION('',(-1.,0.,0.));
#1646 = ORIENTED_EDGE('',*,*,#1647,.T.);
#1647 = EDGE_CURVE('',#1640,#1313,#1648,.T.);
#1648 = LINE('',#1649,#1650);
#1649 = CARTESIAN_POINT('',(-2.61,-95.37288400083,43.867594265354));
#1650 = VECTOR('',#1651,1.);
#1651 = DIRECTION('',(-0.,0.995315953535,9.667550174874E-02));
#1652 = ORIENTED_EDGE('',*,*,#1320,.T.);
#1653 = PLANE('',#1654);
#1654 = AXIS2_PLACEMENT_3D('',#1655,#1656,#1657);
#1655 = CARTESIAN_POINT('',(-5.6,-98.8033589432,43.53439063779));
#1656 = DIRECTION('',(0.,-9.667550174874E-02,0.995315953535));
#1657 = DIRECTION('',(0.,0.995315953535,9.667550174874E-02));
#1658 = ADVANCED_FACE('',(#1659),#1685,.F.);
#1659 = FACE_BOUND('',#1660,.F.);
#1660 = EDGE_LOOP('',(#1661,#1669,#1670,#1671,#1679));
#1661 = ORIENTED_EDGE('',*,*,#1662,.T.);
#1662 = EDGE_CURVE('',#1663,#1305,#1665,.T.);
#1663 = VERTEX_POINT('',#1664);
#1664 = CARTESIAN_POINT('',(-2.61,-96.02753043326,40.287536837693));
#1665 = LINE('',#1666,#1667);
#1666 = CARTESIAN_POINT('',(-2.61,-96.02753043326,40.287536837693));
#1667 = VECTOR('',#1668,1.);
#1668 = DIRECTION('',(0.,0.995315953535,9.667550174874E-02));
#1669 = ORIENTED_EDGE('',*,*,#1312,.T.);
#1670 = ORIENTED_EDGE('',*,*,#1647,.F.);
#1671 = ORIENTED_EDGE('',*,*,#1672,.T.);
#1672 = EDGE_CURVE('',#1640,#1673,#1675,.T.);
#1673 = VERTEX_POINT('',#1674);
#1674 = CARTESIAN_POINT('',(-2.61,-96.04980348253,40.516847478672));
#1675 = LINE('',#1676,#1677);
#1676 = CARTESIAN_POINT('',(-2.61,-90.70568763971,52.83554479662));
#1677 = VECTOR('',#1678,1.);
#1678 = DIRECTION('',(0.,-0.397984450431,-0.917392161082));
#1679 = ORIENTED_EDGE('',*,*,#1680,.T.);
#1680 = EDGE_CURVE('',#1673,#1663,#1681,.T.);
#1681 = LINE('',#1682,#1683);
#1682 = CARTESIAN_POINT('',(-2.61,-96.04980348253,40.516847478672));
#1683 = VECTOR('',#1684,1.);
#1684 = DIRECTION('',(0.,9.667550174871E-02,-0.995315953535));
#1685 = PLANE('',#1686);
#1686 = AXIS2_PLACEMENT_3D('',#1687,#1688,#1689);
#1687 = CARTESIAN_POINT('',(-2.61,-92.06622818537,45.475569165265));
#1688 = DIRECTION('',(1.,0.,0.));
#1689 = DIRECTION('',(-0.,0.,1.));
#1690 = ADVANCED_FACE('',(#1691),#1709,.F.);
#1691 = FACE_BOUND('',#1692,.F.);
#1692 = EDGE_LOOP('',(#1693,#1694,#1702,#1708));
#1693 = ORIENTED_EDGE('',*,*,#1662,.F.);
#1694 = ORIENTED_EDGE('',*,*,#1695,.T.);
#1695 = EDGE_CURVE('',#1663,#1696,#1698,.T.);
#1696 = VERTEX_POINT('',#1697);
#1697 = CARTESIAN_POINT('',(2.61,-96.02753043326,40.287536837693));
#1698 = LINE('',#1699,#1700);
#1699 = CARTESIAN_POINT('',(-2.61,-96.02753043326,40.287536837693));
#1700 = VECTOR('',#1701,1.);
#1701 = DIRECTION('',(1.,0.,0.));
#1702 = ORIENTED_EDGE('',*,*,#1703,.T.);
#1703 = EDGE_CURVE('',#1696,#1297,#1704,.T.);
#1704 = LINE('',#1705,#1706);
#1705 = CARTESIAN_POINT('',(2.61,-96.02753043326,40.287536837693));
#1706 = VECTOR('',#1707,1.);
#1707 = DIRECTION('',(0.,0.995315953535,9.667550174874E-02));
#1708 = ORIENTED_EDGE('',*,*,#1304,.T.);
#1709 = PLANE('',#1710);
#1710 = AXIS2_PLACEMENT_3D('',#1711,#1712,#1713);
#1711 = CARTESIAN_POINT('',(-2.61,-96.02753043326,40.287536837693));
#1712 = DIRECTION('',(0.,-9.667550174874E-02,0.995315953535));
#1713 = DIRECTION('',(0.,0.995315953535,9.667550174874E-02));
#1714 = ADVANCED_FACE('',(#1715),#1734,.T.);
#1715 = FACE_BOUND('',#1716,.T.);
#1716 = EDGE_LOOP('',(#1717,#1718,#1719,#1720,#1728));
#1717 = ORIENTED_EDGE('',*,*,#1703,.T.);
#1718 = ORIENTED_EDGE('',*,*,#1296,.T.);
#1719 = ORIENTED_EDGE('',*,*,#1500,.F.);
#1720 = ORIENTED_EDGE('',*,*,#1721,.T.);
#1721 = EDGE_CURVE('',#1501,#1722,#1724,.T.);
#1722 = VERTEX_POINT('',#1723);
#1723 = CARTESIAN_POINT('',(2.61,-96.04980348253,40.516847478672));
#1724 = LINE('',#1725,#1726);
#1725 = CARTESIAN_POINT('',(2.61,-90.70568763971,52.83554479662));
#1726 = VECTOR('',#1727,1.);
#1727 = DIRECTION('',(0.,-0.397984450431,-0.917392161082));
#1728 = ORIENTED_EDGE('',*,*,#1729,.T.);
#1729 = EDGE_CURVE('',#1722,#1696,#1730,.T.);
#1730 = LINE('',#1731,#1732);
#1731 = CARTESIAN_POINT('',(2.61,-96.04980348253,40.516847478672));
#1732 = VECTOR('',#1733,1.);
#1733 = DIRECTION('',(0.,9.667550174871E-02,-0.995315953535));
#1734 = PLANE('',#1735);
#1735 = AXIS2_PLACEMENT_3D('',#1736,#1737,#1738);
#1736 = CARTESIAN_POINT('',(2.61,-92.06622818537,45.475569165265));
#1737 = DIRECTION('',(1.,0.,0.));
#1738 = DIRECTION('',(-0.,0.,1.));
#1739 = ADVANCED_FACE('',(#1740),#1746,.F.);
#1740 = FACE_BOUND('',#1741,.F.);
#1741 = EDGE_LOOP('',(#1742,#1743,#1744,#1745));
#1742 = ORIENTED_EDGE('',*,*,#1434,.T.);
#1743 = ORIENTED_EDGE('',*,*,#1399,.T.);
#1744 = ORIENTED_EDGE('',*,*,#1492,.F.);
#1745 = ORIENTED_EDGE('',*,*,#1458,.F.);
#1746 = PLANE('',#1747);
#1747 = AXIS2_PLACEMENT_3D('',#1748,#1749,#1750);
#1748 = CARTESIAN_POINT('',(2.6,-99.48008745544,50.501602312536));
#1749 = DIRECTION('',(-0.,0.995315953535,9.667550174874E-02));
#1750 = DIRECTION('',(0.,9.667550174874E-02,-0.995315953535));
#1751 = ADVANCED_FACE('',(#1752),#1763,.F.);
#1752 = FACE_BOUND('',#1753,.F.);
#1753 = EDGE_LOOP('',(#1754,#1755,#1761,#1762));
#1754 = ORIENTED_EDGE('',*,*,#1407,.F.);
#1755 = ORIENTED_EDGE('',*,*,#1756,.F.);
#1756 = EDGE_CURVE('',#1475,#1408,#1757,.T.);
#1757 = LINE('',#1758,#1759);
#1758 = CARTESIAN_POINT('',(-6.6,-96.15577533871,48.258022980409));
#1759 = VECTOR('',#1760,1.);
#1760 = DIRECTION('',(1.,0.,0.));
#1761 = ORIENTED_EDGE('',*,*,#1474,.T.);
#1762 = ORIENTED_EDGE('',*,*,#1756,.T.);
#1763 = CYLINDRICAL_SURFACE('',#1764,0.95);
#1764 = AXIS2_PLACEMENT_3D('',#1765,#1766,#1767);
#1765 = CARTESIAN_POINT('',(-6.6,-96.15577533871,47.308022980409));
#1766 = DIRECTION('',(1.,0.,0.));
#1767 = DIRECTION('',(-0.,0.,1.));
#1768 = ADVANCED_FACE('',(#1769),#1784,.F.);
#1769 = FACE_BOUND('',#1770,.F.);
#1770 = EDGE_LOOP('',(#1771,#1772,#1773,#1774,#1775,#1776,#1777,#1778));
#1771 = ORIENTED_EDGE('',*,*,#1672,.F.);
#1772 = ORIENTED_EDGE('',*,*,#1639,.F.);
#1773 = ORIENTED_EDGE('',*,*,#1522,.T.);
#1774 = ORIENTED_EDGE('',*,*,#1352,.T.);
#1775 = ORIENTED_EDGE('',*,*,#1448,.F.);
#1776 = ORIENTED_EDGE('',*,*,#1508,.F.);
#1777 = ORIENTED_EDGE('',*,*,#1721,.T.);
#1778 = ORIENTED_EDGE('',*,*,#1779,.F.);
#1779 = EDGE_CURVE('',#1673,#1722,#1780,.T.);
#1780 = LINE('',#1781,#1782);
#1781 = CARTESIAN_POINT('',(-2.61,-96.04980348253,40.516847478672));
#1782 = VECTOR('',#1783,1.);
#1783 = DIRECTION('',(1.,0.,0.));
#1784 = PLANE('',#1785);
#1785 = AXIS2_PLACEMENT_3D('',#1786,#1787,#1788);
#1786 = CARTESIAN_POINT('',(-2.61,-90.70568763971,52.83554479662));
#1787 = DIRECTION('',(0.,0.917392161082,-0.397984450431));
#1788 = DIRECTION('',(0.,-0.397984450431,-0.917392161082));
#1789 = ADVANCED_FACE('',(#1790),#1796,.F.);
#1790 = FACE_BOUND('',#1791,.F.);
#1791 = EDGE_LOOP('',(#1792,#1793,#1794,#1795));
#1792 = ORIENTED_EDGE('',*,*,#1582,.T.);
#1793 = ORIENTED_EDGE('',*,*,#1539,.T.);
#1794 = ORIENTED_EDGE('',*,*,#1632,.F.);
#1795 = ORIENTED_EDGE('',*,*,#1606,.F.);
#1796 = PLANE('',#1797);
#1797 = AXIS2_PLACEMENT_3D('',#1798,#1799,#1800);
#1798 = CARTESIAN_POINT('',(-5.6,-99.48008745544,50.501602312536));
#1799 = DIRECTION('',(-0.,0.995315953535,9.667550174874E-02));
#1800 = DIRECTION('',(0.,9.667550174874E-02,-0.995315953535));
#1801 = ADVANCED_FACE('',(#1802),#1813,.F.);
#1802 = FACE_BOUND('',#1803,.F.);
#1803 = EDGE_LOOP('',(#1804,#1805,#1811,#1812));
#1804 = ORIENTED_EDGE('',*,*,#1555,.F.);
#1805 = ORIENTED_EDGE('',*,*,#1806,.F.);
#1806 = EDGE_CURVE('',#1615,#1556,#1807,.T.);
#1807 = LINE('',#1808,#1809);
#1808 = CARTESIAN_POINT('',(-6.6,-96.15577533871,48.258022980409));
#1809 = VECTOR('',#1810,1.);
#1810 = DIRECTION('',(1.,0.,0.));
#1811 = ORIENTED_EDGE('',*,*,#1614,.T.);
#1812 = ORIENTED_EDGE('',*,*,#1806,.T.);
#1813 = CYLINDRICAL_SURFACE('',#1814,0.95);
#1814 = AXIS2_PLACEMENT_3D('',#1815,#1816,#1817);
#1815 = CARTESIAN_POINT('',(-6.6,-96.15577533871,47.308022980409));
#1816 = DIRECTION('',(1.,0.,0.));
#1817 = DIRECTION('',(-0.,0.,1.));
#1818 = ADVANCED_FACE('',(#1819),#1825,.F.);
#1819 = FACE_BOUND('',#1820,.F.);
#1820 = EDGE_LOOP('',(#1821,#1822,#1823,#1824));
#1821 = ORIENTED_EDGE('',*,*,#1779,.T.);
#1822 = ORIENTED_EDGE('',*,*,#1729,.T.);
#1823 = ORIENTED_EDGE('',*,*,#1695,.F.);
#1824 = ORIENTED_EDGE('',*,*,#1680,.F.);
#1825 = PLANE('',#1826);
#1826 = AXIS2_PLACEMENT_3D('',#1827,#1828,#1829);
#1827 = CARTESIAN_POINT('',(-2.61,-96.04980348253,40.516847478672));
#1828 = DIRECTION('',(-0.,0.995315953535,9.667550174871E-02));
#1829 = DIRECTION('',(0.,9.667550174871E-02,-0.995315953535));
#1830 = ADVANCED_FACE('',(#1831,#1845),#1868,.T.);
#1831 = FACE_BOUND('',#1832,.T.);
#1832 = EDGE_LOOP('',(#1833,#1834,#1835,#1836,#1837,#1838,#1839,#1840,
    #1841,#1842,#1843,#1844));
#1833 = ORIENTED_EDGE('',*,*,#31,.T.);
#1834 = ORIENTED_EDGE('',*,*,#1073,.T.);
#1835 = ORIENTED_EDGE('',*,*,#1049,.T.);
#1836 = ORIENTED_EDGE('',*,*,#1106,.F.);
#1837 = ORIENTED_EDGE('',*,*,#792,.F.);
#1838 = ORIENTED_EDGE('',*,*,#864,.T.);
#1839 = ORIENTED_EDGE('',*,*,#847,.T.);
#1840 = ORIENTED_EDGE('',*,*,#823,.T.);
#1841 = ORIENTED_EDGE('',*,*,#761,.T.);
#1842 = ORIENTED_EDGE('',*,*,#1265,.F.);
#1843 = ORIENTED_EDGE('',*,*,#152,.T.);
#1844 = ORIENTED_EDGE('',*,*,#71,.T.);
#1845 = FACE_BOUND('',#1846,.T.);
#1846 = EDGE_LOOP('',(#1847,#1848,#1849,#1850,#1859,#1866,#1867));
#1847 = ORIENTED_EDGE('',*,*,#938,.F.);
#1848 = ORIENTED_EDGE('',*,*,#910,.F.);
#1849 = ORIENTED_EDGE('',*,*,#888,.F.);
#1850 = ORIENTED_EDGE('',*,*,#1851,.F.);
#1851 = EDGE_CURVE('',#1852,#889,#1854,.T.);
#1852 = VERTEX_POINT('',#1853);
#1853 = CARTESIAN_POINT('',(10.,-97.72225904272,85.795871076707));
#1854 = CIRCLE('',#1855,1.7);
#1855 = AXIS2_PLACEMENT_3D('',#1856,#1857,#1858);
#1856 = CARTESIAN_POINT('',(10.,-97.72225904272,84.095871076707));
#1857 = DIRECTION('',(1.,0.,0.));
#1858 = DIRECTION('',(-0.,0.,1.));
#1859 = ORIENTED_EDGE('',*,*,#1860,.F.);
#1860 = EDGE_CURVE('',#955,#1852,#1861,.T.);
#1861 = CIRCLE('',#1862,1.7);
#1862 = AXIS2_PLACEMENT_3D('',#1863,#1864,#1865);
#1863 = CARTESIAN_POINT('',(10.,-97.72225904272,84.095871076707));
#1864 = DIRECTION('',(1.,0.,0.));
#1865 = DIRECTION('',(-0.,0.,1.));
#1866 = ORIENTED_EDGE('',*,*,#962,.F.);
#1867 = ORIENTED_EDGE('',*,*,#929,.F.);
#1868 = PLANE('',#1869);
#1869 = AXIS2_PLACEMENT_3D('',#1870,#1871,#1872);
#1870 = CARTESIAN_POINT('',(10.,-92.1545715268,39.947294252124));
#1871 = DIRECTION('',(1.,0.,0.));
#1872 = DIRECTION('',(-0.,0.,1.));
#1873 = ADVANCED_FACE('',(#1874),#1882,.F.);
#1874 = FACE_BOUND('',#1875,.F.);
#1875 = EDGE_LOOP('',(#1876,#1877,#1878,#1879,#1880,#1881));
#1876 = ORIENTED_EDGE('',*,*,#896,.T.);
#1877 = ORIENTED_EDGE('',*,*,#1851,.F.);
#1878 = ORIENTED_EDGE('',*,*,#1860,.F.);
#1879 = ORIENTED_EDGE('',*,*,#954,.F.);
#1880 = ORIENTED_EDGE('',*,*,#496,.T.);
#1881 = ORIENTED_EDGE('',*,*,#487,.T.);
#1882 = CYLINDRICAL_SURFACE('',#1883,1.7);
#1883 = AXIS2_PLACEMENT_3D('',#1884,#1885,#1886);
#1884 = CARTESIAN_POINT('',(-11.,-97.72225904272,84.095871076707));
#1885 = DIRECTION('',(1.,0.,0.));
#1886 = DIRECTION('',(-0.,0.,1.));
#1887 = ADVANCED_FACE('',(#1888),#1896,.F.);
#1888 = FACE_BOUND('',#1889,.F.);
#1889 = EDGE_LOOP('',(#1890,#1891,#1892,#1893,#1894,#1895));
#1890 = ORIENTED_EDGE('',*,*,#1009,.T.);
#1891 = ORIENTED_EDGE('',*,*,#626,.F.);
#1892 = ORIENTED_EDGE('',*,*,#635,.F.);
#1893 = ORIENTED_EDGE('',*,*,#1024,.F.);
#1894 = ORIENTED_EDGE('',*,*,#370,.T.);
#1895 = ORIENTED_EDGE('',*,*,#379,.T.);
#1896 = CYLINDRICAL_SURFACE('',#1897,1.7);
#1897 = AXIS2_PLACEMENT_3D('',#1898,#1899,#1900);
#1898 = CARTESIAN_POINT('',(-11.,-97.72225904272,84.095871076707));
#1899 = DIRECTION('',(1.,0.,0.));
#1900 = DIRECTION('',(-0.,0.,1.));
#1901 = ( GEOMETRIC_REPRESENTATION_CONTEXT(3) 
GLOBAL_UNCERTAINTY_ASSIGNED_CONTEXT((#1905)) 
GLOBAL_UNIT_ASSIGNED_CONTEXT((#1902,#1903,#1904)) REPRESENTATION_CONTEXT
('Context #1','3D Context with UNIT and UNCERTAINTY') );
#1902 = ( LENGTH_UNIT() NAMED_UNIT(*) SI_UNIT(.MILLI.,.METRE.) );
#1903 = ( NAMED_UNIT(*) PLANE_ANGLE_UNIT() SI_UNIT($,.RADIAN.) );
#1904 = ( NAMED_UNIT(*) SI_UNIT($,.STERADIAN.) SOLID_ANGLE_UNIT() );
#1905 = UNCERTAINTY_MEASURE_WITH_UNIT(LENGTH_MEASURE(1.E-07),#1902,
  'distance_accuracy_value','confusion accuracy');
#1906 = PRODUCT_RELATED_PRODUCT_CATEGORY('part',$,(#7));
ENDSEC;
END-ISO-10303-21;
