ISO-10303-21;
HEADER;
FILE_DESCRIPTION(('FreeCAD Model'),'2;1');
FILE_NAME('Open CASCADE Shape Model','2026-10-08T02:32:14',('FreeCAD'),(
    'FreeCAD'),'Open CASCADE STEP processor 7.8','FreeCAD','Unknown');
FILE_SCHEMA(('AUTOMOTIVE_DESIGN { 1 0 10303 214 1 1 1 1 }'));
ENDSEC;
DATA;
#1 = APPLICATION_PROTOCOL_DEFINITION('international standard',
  'automotive_design',2000,#2);
#2 = APPLICATION_CONTEXT(
  'core data for automotive mechanical design processes');
#3 = SHAPE_DEFINITION_REPRESENTATION(#4,#10);
#4 = PRODUCT_DEFINITION_SHAPE('','',#5);
#5 = PRODUCT_DEFINITION('design','',#6,#9);
#6 = PRODUCT_DEFINITION_FORMATION('','',#7);
#7 = PRODUCT('Open CASCADE STEP translator 7.8 9',
  'Open CASCADE STEP translator 7.8 9','',(#8));
#8 = PRODUCT_CONTEXT('',#2,'mechanical');
#9 = PRODUCT_DEFINITION_CONTEXT('part definition',#2,'design');
#10 = ADVANCED_BREP_SHAPE_REPRESENTATION('',(#11,#15),#268);
#11 = AXIS2_PLACEMENT_3D('',#12,#13,#14);
#12 = CARTESIAN_POINT('',(0.,0.,0.));
#13 = DIRECTION('',(0.,0.,1.));
#14 = DIRECTION('',(1.,0.,-0.));
#15 = MANIFOLD_SOLID_BREP('',#16);
#16 = CLOSED_SHELL('',(#17,#57,#90,#121,#177,#222,#254));
#17 = ADVANCED_FACE('',(#18),#52,.F.);
#18 = FACE_BOUND('',#19,.F.);
#19 = EDGE_LOOP('',(#20,#30,#38,#46));
#20 = ORIENTED_EDGE('',*,*,#21,.T.);
#21 = EDGE_CURVE('',#22,#24,#26,.T.);
#22 = VERTEX_POINT('',#23);
#23 = CARTESIAN_POINT('',(-2.2,-83.637269211,33.253094493075));
#24 = VERTEX_POINT('',#25);
#25 = CARTESIAN_POINT('',(2.2,-83.637269211,33.253094493075));
#26 = LINE('',#27,#28);
#27 = CARTESIAN_POINT('',(-2.2,-83.637269211,33.253094493075));
#28 = VECTOR('',#29,1.);
#29 = DIRECTION('',(1.,0.,0.));
#30 = ORIENTED_EDGE('',*,*,#31,.T.);
#31 = EDGE_CURVE('',#24,#32,#34,.T.);
#32 = VERTEX_POINT('',#33);
#33 = CARTESIAN_POINT('',(2.2,-83.00950793331,39.722709302183));
#34 = LINE('',#35,#36);
#35 = CARTESIAN_POINT('',(2.2,-83.637269211,33.253094493075));
#36 = VECTOR('',#37,1.);
#37 = DIRECTION('',(0.,9.657865810618E-02,0.995325355247));
#38 = ORIENTED_EDGE('',*,*,#39,.F.);
#39 = EDGE_CURVE('',#40,#32,#42,.T.);
#40 = VERTEX_POINT('',#41);
#41 = CARTESIAN_POINT('',(-2.2,-83.00950793331,39.722709302183));
#42 = LINE('',#43,#44);
#43 = CARTESIAN_POINT('',(-2.2,-83.00950793331,39.722709302183));
#44 = VECTOR('',#45,1.);
#45 = DIRECTION('',(1.,0.,0.));
#46 = ORIENTED_EDGE('',*,*,#47,.F.);
#47 = EDGE_CURVE('',#22,#40,#48,.T.);
#48 = LINE('',#49,#50);
#49 = CARTESIAN_POINT('',(-2.2,-83.637269211,33.253094493075));
#50 = VECTOR('',#51,1.);
#51 = DIRECTION('',(0.,9.657865810618E-02,0.995325355247));
#52 = PLANE('',#53);
#53 = AXIS2_PLACEMENT_3D('',#54,#55,#56);
#54 = CARTESIAN_POINT('',(-2.2,-83.637269211,33.253094493075));
#55 = DIRECTION('',(0.,-0.995325355247,9.657865810618E-02));
#56 = DIRECTION('',(0.,9.657865810618E-02,0.995325355247));
#57 = ADVANCED_FACE('',(#58),#85,.T.);
#58 = FACE_BOUND('',#59,.T.);
#59 = EDGE_LOOP('',(#60,#69,#77,#84));
#60 = ORIENTED_EDGE('',*,*,#61,.F.);
#61 = EDGE_CURVE('',#62,#24,#64,.T.);
#62 = VERTEX_POINT('',#63);
#63 = CARTESIAN_POINT('',(2.2,-88.61389598723,33.735987783606));
#64 = CIRCLE('',#65,2.5);
#65 = AXIS2_PLACEMENT_3D('',#66,#67,#68);
#66 = CARTESIAN_POINT('',(2.2,-86.12558259911,33.494541138341));
#67 = DIRECTION('',(1.,0.,-0.));
#68 = DIRECTION('',(0.,0.13917310096,0.990268068742));
#69 = ORIENTED_EDGE('',*,*,#70,.F.);
#70 = EDGE_CURVE('',#71,#62,#73,.T.);
#71 = VERTEX_POINT('',#72);
#72 = CARTESIAN_POINT('',(-2.2,-88.61389598723,33.735987783606));
#73 = LINE('',#74,#75);
#74 = CARTESIAN_POINT('',(-2.2,-88.61389598723,33.735987783606));
#75 = VECTOR('',#76,1.);
#76 = DIRECTION('',(1.,0.,0.));
#77 = ORIENTED_EDGE('',*,*,#78,.T.);
#78 = EDGE_CURVE('',#71,#22,#79,.T.);
#79 = CIRCLE('',#80,2.5);
#80 = AXIS2_PLACEMENT_3D('',#81,#82,#83);
#81 = CARTESIAN_POINT('',(-2.2,-86.12558259911,33.494541138341));
#82 = DIRECTION('',(1.,0.,-0.));
#83 = DIRECTION('',(0.,0.13917310096,0.990268068742));
#84 = ORIENTED_EDGE('',*,*,#21,.T.);
#85 = CYLINDRICAL_SURFACE('',#86,2.5);
#86 = AXIS2_PLACEMENT_3D('',#87,#88,#89);
#87 = CARTESIAN_POINT('',(-2.2,-86.12558259911,33.494541138341));
#88 = DIRECTION('',(1.,0.,0.));
#89 = DIRECTION('',(0.,0.13917310096,0.990268068742));
#90 = ADVANCED_FACE('',(#91),#116,.F.);
#91 = FACE_BOUND('',#92,.F.);
#92 = EDGE_LOOP('',(#93,#103,#109,#110));
#93 = ORIENTED_EDGE('',*,*,#94,.T.);
#94 = EDGE_CURVE('',#95,#97,#99,.T.);
#95 = VERTEX_POINT('',#96);
#96 = CARTESIAN_POINT('',(-2.2,-87.98613470954,40.205602592714));
#97 = VERTEX_POINT('',#98);
#98 = CARTESIAN_POINT('',(2.2,-87.98613470954,40.205602592714));
#99 = LINE('',#100,#101);
#100 = CARTESIAN_POINT('',(-2.2,-87.98613470954,40.205602592714));
#101 = VECTOR('',#102,1.);
#102 = DIRECTION('',(1.,0.,0.));
#103 = ORIENTED_EDGE('',*,*,#104,.T.);
#104 = EDGE_CURVE('',#97,#62,#105,.T.);
#105 = LINE('',#106,#107);
#106 = CARTESIAN_POINT('',(2.2,-87.98613470954,40.205602592714));
#107 = VECTOR('',#108,1.);
#108 = DIRECTION('',(0.,-9.657865810618E-02,-0.995325355247));
#109 = ORIENTED_EDGE('',*,*,#70,.F.);
#110 = ORIENTED_EDGE('',*,*,#111,.F.);
#111 = EDGE_CURVE('',#95,#71,#112,.T.);
#112 = LINE('',#113,#114);
#113 = CARTESIAN_POINT('',(-2.2,-87.98613470954,40.205602592714));
#114 = VECTOR('',#115,1.);
#115 = DIRECTION('',(0.,-9.657865810618E-02,-0.995325355247));
#116 = PLANE('',#117);
#117 = AXIS2_PLACEMENT_3D('',#118,#119,#120);
#118 = CARTESIAN_POINT('',(-2.2,-87.98613470954,40.205602592714));
#119 = DIRECTION('',(0.,0.995325355247,-9.657865810618E-02));
#120 = DIRECTION('',(0.,-9.657865810618E-02,-0.995325355247));
#121 = ADVANCED_FACE('',(#122,#143),#172,.T.);
#122 = FACE_BOUND('',#123,.T.);
#123 = EDGE_LOOP('',(#124,#125,#134,#141,#142));
#124 = ORIENTED_EDGE('',*,*,#111,.F.);
#125 = ORIENTED_EDGE('',*,*,#126,.F.);
#126 = EDGE_CURVE('',#127,#95,#129,.T.);
#127 = VERTEX_POINT('',#128);
#128 = CARTESIAN_POINT('',(-2.2,-85.14988856902,42.439826119303));
#129 = CIRCLE('',#130,2.5);
#130 = AXIS2_PLACEMENT_3D('',#131,#132,#133);
#131 = CARTESIAN_POINT('',(-2.2,-85.49782132142,39.964155947449));
#132 = DIRECTION('',(1.,0.,-0.));
#133 = DIRECTION('',(0.,0.13917310096,0.990268068742));
#134 = ORIENTED_EDGE('',*,*,#135,.F.);
#135 = EDGE_CURVE('',#40,#127,#136,.T.);
#136 = CIRCLE('',#137,2.5);
#137 = AXIS2_PLACEMENT_3D('',#138,#139,#140);
#138 = CARTESIAN_POINT('',(-2.2,-85.49782132142,39.964155947449));
#139 = DIRECTION('',(1.,0.,-0.));
#140 = DIRECTION('',(0.,0.13917310096,0.990268068742));
#141 = ORIENTED_EDGE('',*,*,#47,.F.);
#142 = ORIENTED_EDGE('',*,*,#78,.F.);
#143 = FACE_BOUND('',#144,.T.);
#144 = EDGE_LOOP('',(#145,#156,#165));
#145 = ORIENTED_EDGE('',*,*,#146,.T.);
#146 = EDGE_CURVE('',#147,#149,#151,.T.);
#147 = VERTEX_POINT('',#148);
#148 = CARTESIAN_POINT('',(-2.2,-86.49314667667,40.060734605555));
#149 = VERTEX_POINT('',#150);
#150 = CARTESIAN_POINT('',(-2.2,-84.50249596618,39.867577289343));
#151 = CIRCLE('',#152,1.);
#152 = AXIS2_PLACEMENT_3D('',#153,#154,#155);
#153 = CARTESIAN_POINT('',(-2.2,-85.49782132142,39.964155947449));
#154 = DIRECTION('',(1.,0.,-0.));
#155 = DIRECTION('',(0.,0.13917310096,0.990268068742));
#156 = ORIENTED_EDGE('',*,*,#157,.T.);
#157 = EDGE_CURVE('',#149,#158,#160,.T.);
#158 = VERTEX_POINT('',#159);
#159 = CARTESIAN_POINT('',(-2.2,-85.35864822046,40.95442401619));
#160 = CIRCLE('',#161,1.);
#161 = AXIS2_PLACEMENT_3D('',#162,#163,#164);
#162 = CARTESIAN_POINT('',(-2.2,-85.49782132142,39.964155947449));
#163 = DIRECTION('',(1.,0.,-0.));
#164 = DIRECTION('',(0.,0.13917310096,0.990268068742));
#165 = ORIENTED_EDGE('',*,*,#166,.T.);
#166 = EDGE_CURVE('',#158,#147,#167,.T.);
#167 = CIRCLE('',#168,1.);
#168 = AXIS2_PLACEMENT_3D('',#169,#170,#171);
#169 = CARTESIAN_POINT('',(-2.2,-85.49782132142,39.964155947449));
#170 = DIRECTION('',(1.,0.,-0.));
#171 = DIRECTION('',(0.,0.13917310096,0.990268068742));
#172 = PLANE('',#173);
#173 = AXIS2_PLACEMENT_3D('',#174,#175,#176);
#174 = CARTESIAN_POINT('',(-2.2,-85.8036897594,36.8034555122));
#175 = DIRECTION('',(-1.,-0.,0.));
#176 = DIRECTION('',(0.,-0.13917310096,-0.990268068742));
#177 = ADVANCED_FACE('',(#178),#217,.F.);
#178 = FACE_BOUND('',#179,.F.);
#179 = EDGE_LOOP('',(#180,#191,#197,#198,#199,#200,#201,#210));
#180 = ORIENTED_EDGE('',*,*,#181,.F.);
#181 = EDGE_CURVE('',#182,#184,#186,.T.);
#182 = VERTEX_POINT('',#183);
#183 = CARTESIAN_POINT('',(2.2,-85.35864822046,40.95442401619));
#184 = VERTEX_POINT('',#185);
#185 = CARTESIAN_POINT('',(2.2,-86.49314667667,40.060734605555));
#186 = CIRCLE('',#187,1.);
#187 = AXIS2_PLACEMENT_3D('',#188,#189,#190);
#188 = CARTESIAN_POINT('',(2.2,-85.49782132142,39.964155947449));
#189 = DIRECTION('',(1.,0.,-0.));
#190 = DIRECTION('',(0.,0.13917310096,0.990268068742));
#191 = ORIENTED_EDGE('',*,*,#192,.F.);
#192 = EDGE_CURVE('',#158,#182,#193,.T.);
#193 = LINE('',#194,#195);
#194 = CARTESIAN_POINT('',(-3.2,-85.35864822046,40.95442401619));
#195 = VECTOR('',#196,1.);
#196 = DIRECTION('',(1.,0.,0.));
#197 = ORIENTED_EDGE('',*,*,#166,.T.);
#198 = ORIENTED_EDGE('',*,*,#146,.T.);
#199 = ORIENTED_EDGE('',*,*,#157,.T.);
#200 = ORIENTED_EDGE('',*,*,#192,.T.);
#201 = ORIENTED_EDGE('',*,*,#202,.F.);
#202 = EDGE_CURVE('',#203,#182,#205,.T.);
#203 = VERTEX_POINT('',#204);
#204 = CARTESIAN_POINT('',(2.2,-84.50249596618,39.867577289343));
#205 = CIRCLE('',#206,1.);
#206 = AXIS2_PLACEMENT_3D('',#207,#208,#209);
#207 = CARTESIAN_POINT('',(2.2,-85.49782132142,39.964155947449));
#208 = DIRECTION('',(1.,0.,-0.));
#209 = DIRECTION('',(0.,0.13917310096,0.990268068742));
#210 = ORIENTED_EDGE('',*,*,#211,.F.);
#211 = EDGE_CURVE('',#184,#203,#212,.T.);
#212 = CIRCLE('',#213,1.);
#213 = AXIS2_PLACEMENT_3D('',#214,#215,#216);
#214 = CARTESIAN_POINT('',(2.2,-85.49782132142,39.964155947449));
#215 = DIRECTION('',(1.,0.,-0.));
#216 = DIRECTION('',(0.,0.13917310096,0.990268068742));
#217 = CYLINDRICAL_SURFACE('',#218,1.);
#218 = AXIS2_PLACEMENT_3D('',#219,#220,#221);
#219 = CARTESIAN_POINT('',(-3.2,-85.49782132142,39.964155947449));
#220 = DIRECTION('',(1.,0.,0.));
#221 = DIRECTION('',(0.,0.13917310096,0.990268068742));
#222 = ADVANCED_FACE('',(#223,#244),#249,.T.);
#223 = FACE_BOUND('',#224,.T.);
#224 = EDGE_LOOP('',(#225,#226,#227,#228,#237));
#225 = ORIENTED_EDGE('',*,*,#104,.T.);
#226 = ORIENTED_EDGE('',*,*,#61,.T.);
#227 = ORIENTED_EDGE('',*,*,#31,.T.);
#228 = ORIENTED_EDGE('',*,*,#229,.T.);
#229 = EDGE_CURVE('',#32,#230,#232,.T.);
#230 = VERTEX_POINT('',#231);
#231 = CARTESIAN_POINT('',(2.2,-85.14988856902,42.439826119303));
#232 = CIRCLE('',#233,2.5);
#233 = AXIS2_PLACEMENT_3D('',#234,#235,#236);
#234 = CARTESIAN_POINT('',(2.2,-85.49782132142,39.964155947449));
#235 = DIRECTION('',(1.,0.,-0.));
#236 = DIRECTION('',(0.,0.13917310096,0.990268068742));
#237 = ORIENTED_EDGE('',*,*,#238,.T.);
#238 = EDGE_CURVE('',#230,#97,#239,.T.);
#239 = CIRCLE('',#240,2.5);
#240 = AXIS2_PLACEMENT_3D('',#241,#242,#243);
#241 = CARTESIAN_POINT('',(2.2,-85.49782132142,39.964155947449));
#242 = DIRECTION('',(1.,0.,-0.));
#243 = DIRECTION('',(0.,0.13917310096,0.990268068742));
#244 = FACE_BOUND('',#245,.T.);
#245 = EDGE_LOOP('',(#246,#247,#248));
#246 = ORIENTED_EDGE('',*,*,#211,.F.);
#247 = ORIENTED_EDGE('',*,*,#181,.F.);
#248 = ORIENTED_EDGE('',*,*,#202,.F.);
#249 = PLANE('',#250);
#250 = AXIS2_PLACEMENT_3D('',#251,#252,#253);
#251 = CARTESIAN_POINT('',(2.2,-85.8036897594,36.8034555122));
#252 = DIRECTION('',(1.,0.,0.));
#253 = DIRECTION('',(0.,0.13917310096,0.990268068742));
#254 = ADVANCED_FACE('',(#255),#263,.T.);
#255 = FACE_BOUND('',#256,.T.);
#256 = EDGE_LOOP('',(#257,#258,#259,#260,#261,#262));
#257 = ORIENTED_EDGE('',*,*,#229,.F.);
#258 = ORIENTED_EDGE('',*,*,#39,.F.);
#259 = ORIENTED_EDGE('',*,*,#135,.T.);
#260 = ORIENTED_EDGE('',*,*,#126,.T.);
#261 = ORIENTED_EDGE('',*,*,#94,.T.);
#262 = ORIENTED_EDGE('',*,*,#238,.F.);
#263 = CYLINDRICAL_SURFACE('',#264,2.5);
#264 = AXIS2_PLACEMENT_3D('',#265,#266,#267);
#265 = CARTESIAN_POINT('',(-2.2,-85.49782132142,39.964155947449));
#266 = DIRECTION('',(1.,0.,0.));
#267 = DIRECTION('',(0.,0.13917310096,0.990268068742));
#268 = ( GEOMETRIC_REPRESENTATION_CONTEXT(3) 
GLOBAL_UNCERTAINTY_ASSIGNED_CONTEXT((#272)) GLOBAL_UNIT_ASSIGNED_CONTEXT
((#269,#270,#271)) REPRESENTATION_CONTEXT('Context #1',
  '3D Context with UNIT and UNCERTAINTY') );
#269 = ( LENGTH_UNIT() NAMED_UNIT(*) SI_UNIT(.MILLI.,.METRE.) );
#270 = ( NAMED_UNIT(*) PLANE_ANGLE_UNIT() SI_UNIT($,.RADIAN.) );
#271 = ( NAMED_UNIT(*) SI_UNIT($,.STERADIAN.) SOLID_ANGLE_UNIT() );
#272 = UNCERTAINTY_MEASURE_WITH_UNIT(LENGTH_MEASURE(1.E-07),#269,
  'distance_accuracy_value','confusion accuracy');
#273 = PRODUCT_RELATED_PRODUCT_CATEGORY('part',$,(#7));
ENDSEC;
END-ISO-10303-21;
