ISO-10303-21;
HEADER;
FILE_DESCRIPTION(('FreeCAD Model'),'2;1');
FILE_NAME('Open CASCADE Shape Model','2026-10-08T01:54:37',('FreeCAD'),(
    'FreeCAD'),'Open CASCADE STEP processor 7.8','FreeCAD','Unknown');
FILE_SCHEMA(('AUTOMOTIVE_DESIGN { 1 0 10303 214 1 1 1 1 }'));
ENDSEC;
DATA;
#1 = APPLICATION_PROTOCOL_DEFINITION('international standard',
  'automotive_design',2000,#2);
#2 = APPLICATION_CONTEXT(
  'core data for automotive mechanical design processes');
#3 = SHAPE_DEFINITION_REPRESENTATION(#4,#10);
#4 = PRODUCT_DEFINITION_SHAPE('','',#5);
#5 = PRODUCT_DEFINITION('design','',#6,#9);
#6 = PRODUCT_DEFINITION_FORMATION('','',#7);
#7 = PRODUCT('Open CASCADE STEP translator 7.8 12',
  'Open CASCADE STEP translator 7.8 12','',(#8));
#8 = PRODUCT_CONTEXT('',#2,'mechanical');
#9 = PRODUCT_DEFINITION_CONTEXT('part definition',#2,'design');
#10 = ADVANCED_BREP_SHAPE_REPRESENTATION('',(#11,#15),#1492);
#11 = AXIS2_PLACEMENT_3D('',#12,#13,#14);
#12 = CARTESIAN_POINT('',(0.,0.,0.));
#13 = DIRECTION('',(0.,0.,1.));
#14 = DIRECTION('',(1.,0.,-0.));
#15 = MANIFOLD_SOLID_BREP('',#16);
#16 = CLOSED_SHELL('',(#17,#57,#276,#307,#342,#373,#397,#421,#445,#476,
    #507,#532,#556,#587,#611,#635,#652,#684,#708,#732,#801,#826,#857,
    #888,#913,#933,#958,#999,#1024,#1044,#1069,#1078,#1176,#1207,#1232,
    #1256,#1280,#1304,#1329,#1353,#1370,#1430,#1449,#1464,#1478));
#17 = ADVANCED_FACE('',(#18),#52,.F.);
#18 = FACE_BOUND('',#19,.F.);
#19 = EDGE_LOOP('',(#20,#30,#38,#46));
#20 = ORIENTED_EDGE('',*,*,#21,.F.);
#21 = EDGE_CURVE('',#22,#24,#26,.T.);
#22 = VERTEX_POINT('',#23);
#23 = CARTESIAN_POINT('',(65.1,-54.35899457832,-22.5));
#24 = VERTEX_POINT('',#25);
#25 = CARTESIAN_POINT('',(60.1,-54.35899457832,-22.5));
#26 = LINE('',#27,#28);
#27 = CARTESIAN_POINT('',(65.1,-54.35899457832,-22.5));
#28 = VECTOR('',#29,1.);
#29 = DIRECTION('',(-1.,0.,0.));
#30 = ORIENTED_EDGE('',*,*,#31,.T.);
#31 = EDGE_CURVE('',#22,#32,#34,.T.);
#32 = VERTEX_POINT('',#33);
#33 = CARTESIAN_POINT('',(65.1,54.358994578326,-22.5));
#34 = LINE('',#35,#36);
#35 = CARTESIAN_POINT('',(65.1,-54.35899457832,-22.5));
#36 = VECTOR('',#37,1.);
#37 = DIRECTION('',(0.,1.,0.));
#38 = ORIENTED_EDGE('',*,*,#39,.T.);
#39 = EDGE_CURVE('',#32,#40,#42,.T.);
#40 = VERTEX_POINT('',#41);
#41 = CARTESIAN_POINT('',(60.1,54.358994578326,-22.5));
#42 = LINE('',#43,#44);
#43 = CARTESIAN_POINT('',(65.1,54.358994578326,-22.5));
#44 = VECTOR('',#45,1.);
#45 = DIRECTION('',(-1.,0.,0.));
#46 = ORIENTED_EDGE('',*,*,#47,.F.);
#47 = EDGE_CURVE('',#24,#40,#48,.T.);
#48 = LINE('',#49,#50);
#49 = CARTESIAN_POINT('',(60.1,-54.35899457832,-22.5));
#50 = VECTOR('',#51,1.);
#51 = DIRECTION('',(0.,1.,0.));
#52 = PLANE('',#53);
#53 = AXIS2_PLACEMENT_3D('',#54,#55,#56);
#54 = CARTESIAN_POINT('',(65.1,-54.35899457832,-22.5));
#55 = DIRECTION('',(0.,0.,1.));
#56 = DIRECTION('',(-1.,0.,0.));
#57 = ADVANCED_FACE('',(#58,#147,#192,#226),#271,.T.);
#58 = FACE_BOUND('',#59,.T.);
#59 = EDGE_LOOP('',(#60,#68,#69,#77,#85,#93,#101,#109,#117,#125,#133,
    #141));
#60 = ORIENTED_EDGE('',*,*,#61,.F.);
#61 = EDGE_CURVE('',#40,#62,#64,.T.);
#62 = VERTEX_POINT('',#63);
#63 = CARTESIAN_POINT('',(60.1,54.358994578326,-7.));
#64 = LINE('',#65,#66);
#65 = CARTESIAN_POINT('',(60.1,54.358994578326,-22.5));
#66 = VECTOR('',#67,1.);
#67 = DIRECTION('',(0.,0.,1.));
#68 = ORIENTED_EDGE('',*,*,#47,.F.);
#69 = ORIENTED_EDGE('',*,*,#70,.T.);
#70 = EDGE_CURVE('',#24,#71,#73,.T.);
#71 = VERTEX_POINT('',#72);
#72 = CARTESIAN_POINT('',(60.1,-54.35899457832,-7.));
#73 = LINE('',#74,#75);
#74 = CARTESIAN_POINT('',(60.1,-54.35899457832,-22.5));
#75 = VECTOR('',#76,1.);
#76 = DIRECTION('',(0.,0.,1.));
#77 = ORIENTED_EDGE('',*,*,#78,.T.);
#78 = EDGE_CURVE('',#71,#79,#81,.T.);
#79 = VERTEX_POINT('',#80);
#80 = CARTESIAN_POINT('',(60.1,-48.35899457832,-7.));
#81 = LINE('',#82,#83);
#82 = CARTESIAN_POINT('',(60.1,-54.35899457832,-7.));
#83 = VECTOR('',#84,1.);
#84 = DIRECTION('',(0.,1.,-0.));
#85 = ORIENTED_EDGE('',*,*,#86,.F.);
#86 = EDGE_CURVE('',#87,#79,#89,.T.);
#87 = VERTEX_POINT('',#88);
#88 = CARTESIAN_POINT('',(60.1,-48.35899457832,7.));
#89 = LINE('',#90,#91);
#90 = CARTESIAN_POINT('',(60.1,-48.35899457832,-14.75));
#91 = VECTOR('',#92,1.);
#92 = DIRECTION('',(0.,0.,-1.));
#93 = ORIENTED_EDGE('',*,*,#94,.F.);
#94 = EDGE_CURVE('',#95,#87,#97,.T.);
#95 = VERTEX_POINT('',#96);
#96 = CARTESIAN_POINT('',(60.1,-54.35899457832,7.));
#97 = LINE('',#98,#99);
#98 = CARTESIAN_POINT('',(60.1,-54.35899457832,7.));
#99 = VECTOR('',#100,1.);
#100 = DIRECTION('',(0.,1.,-0.));
#101 = ORIENTED_EDGE('',*,*,#102,.T.);
#102 = EDGE_CURVE('',#95,#103,#105,.T.);
#103 = VERTEX_POINT('',#104);
#104 = CARTESIAN_POINT('',(60.1,-54.35899457832,11.5));
#105 = LINE('',#106,#107);
#106 = CARTESIAN_POINT('',(60.1,-54.35899457832,-22.5));
#107 = VECTOR('',#108,1.);
#108 = DIRECTION('',(0.,0.,1.));
#109 = ORIENTED_EDGE('',*,*,#110,.T.);
#110 = EDGE_CURVE('',#103,#111,#113,.T.);
#111 = VERTEX_POINT('',#112);
#112 = CARTESIAN_POINT('',(60.1,54.358994578326,11.5));
#113 = LINE('',#114,#115);
#114 = CARTESIAN_POINT('',(60.1,-54.35899457832,11.5));
#115 = VECTOR('',#116,1.);
#116 = DIRECTION('',(0.,1.,0.));
#117 = ORIENTED_EDGE('',*,*,#118,.F.);
#118 = EDGE_CURVE('',#119,#111,#121,.T.);
#119 = VERTEX_POINT('',#120);
#120 = CARTESIAN_POINT('',(60.1,54.358994578326,7.));
#121 = LINE('',#122,#123);
#122 = CARTESIAN_POINT('',(60.1,54.358994578326,-22.5));
#123 = VECTOR('',#124,1.);
#124 = DIRECTION('',(0.,0.,1.));
#125 = ORIENTED_EDGE('',*,*,#126,.F.);
#126 = EDGE_CURVE('',#127,#119,#129,.T.);
#127 = VERTEX_POINT('',#128);
#128 = CARTESIAN_POINT('',(60.1,48.358994578326,7.));
#129 = LINE('',#130,#131);
#130 = CARTESIAN_POINT('',(60.1,-3.,7.));
#131 = VECTOR('',#132,1.);
#132 = DIRECTION('',(0.,1.,-0.));
#133 = ORIENTED_EDGE('',*,*,#134,.T.);
#134 = EDGE_CURVE('',#127,#135,#137,.T.);
#135 = VERTEX_POINT('',#136);
#136 = CARTESIAN_POINT('',(60.1,48.358994578326,-7.));
#137 = LINE('',#138,#139);
#138 = CARTESIAN_POINT('',(60.1,48.358994578326,-14.75));
#139 = VECTOR('',#140,1.);
#140 = DIRECTION('',(0.,0.,-1.));
#141 = ORIENTED_EDGE('',*,*,#142,.T.);
#142 = EDGE_CURVE('',#135,#62,#143,.T.);
#143 = LINE('',#144,#145);
#144 = CARTESIAN_POINT('',(60.1,-3.,-7.));
#145 = VECTOR('',#146,1.);
#146 = DIRECTION('',(0.,1.,-0.));
#147 = FACE_BOUND('',#148,.T.);
#148 = EDGE_LOOP('',(#149,#160,#169,#177,#186));
#149 = ORIENTED_EDGE('',*,*,#150,.F.);
#150 = EDGE_CURVE('',#151,#153,#155,.T.);
#151 = VERTEX_POINT('',#152);
#152 = CARTESIAN_POINT('',(60.1,-2.081899558551E-16,-18.4));
#153 = VERTEX_POINT('',#154);
#154 = CARTESIAN_POINT('',(60.1,0.85,-19.25));
#155 = CIRCLE('',#156,0.85);
#156 = AXIS2_PLACEMENT_3D('',#157,#158,#159);
#157 = CARTESIAN_POINT('',(60.1,0.,-19.25));
#158 = DIRECTION('',(-1.,0.,0.));
#159 = DIRECTION('',(0.,0.,1.));
#160 = ORIENTED_EDGE('',*,*,#161,.F.);
#161 = EDGE_CURVE('',#162,#151,#164,.T.);
#162 = VERTEX_POINT('',#163);
#163 = CARTESIAN_POINT('',(60.1,-0.85,-19.25));
#164 = CIRCLE('',#165,0.85);
#165 = AXIS2_PLACEMENT_3D('',#166,#167,#168);
#166 = CARTESIAN_POINT('',(60.1,0.,-19.25));
#167 = DIRECTION('',(-1.,0.,0.));
#168 = DIRECTION('',(0.,0.,1.));
#169 = ORIENTED_EDGE('',*,*,#170,.T.);
#170 = EDGE_CURVE('',#162,#171,#173,.T.);
#171 = VERTEX_POINT('',#172);
#172 = CARTESIAN_POINT('',(60.1,-0.85,-19.5));
#173 = LINE('',#174,#175);
#174 = CARTESIAN_POINT('',(60.1,-0.85,-21.));
#175 = VECTOR('',#176,1.);
#176 = DIRECTION('',(0.,0.,-1.));
#177 = ORIENTED_EDGE('',*,*,#178,.F.);
#178 = EDGE_CURVE('',#179,#171,#181,.T.);
#179 = VERTEX_POINT('',#180);
#180 = CARTESIAN_POINT('',(60.1,0.85,-19.5));
#181 = CIRCLE('',#182,0.85);
#182 = AXIS2_PLACEMENT_3D('',#183,#184,#185);
#183 = CARTESIAN_POINT('',(60.1,0.,-19.5));
#184 = DIRECTION('',(-1.,0.,0.));
#185 = DIRECTION('',(0.,0.,1.));
#186 = ORIENTED_EDGE('',*,*,#187,.F.);
#187 = EDGE_CURVE('',#153,#179,#188,.T.);
#188 = LINE('',#189,#190);
#189 = CARTESIAN_POINT('',(60.1,0.85,-21.));
#190 = VECTOR('',#191,1.);
#191 = DIRECTION('',(0.,0.,-1.));
#192 = FACE_BOUND('',#193,.T.);
#193 = EDGE_LOOP('',(#194,#204,#212,#220));
#194 = ORIENTED_EDGE('',*,*,#195,.T.);
#195 = EDGE_CURVE('',#196,#198,#200,.T.);
#196 = VERTEX_POINT('',#197);
#197 = CARTESIAN_POINT('',(60.1,-6.35,6.15));
#198 = VERTEX_POINT('',#199);
#199 = CARTESIAN_POINT('',(60.1,-6.35,-17.15));
#200 = LINE('',#201,#202);
#201 = CARTESIAN_POINT('',(60.1,-6.35,-19.825));
#202 = VECTOR('',#203,1.);
#203 = DIRECTION('',(0.,0.,-1.));
#204 = ORIENTED_EDGE('',*,*,#205,.T.);
#205 = EDGE_CURVE('',#198,#206,#208,.T.);
#206 = VERTEX_POINT('',#207);
#207 = CARTESIAN_POINT('',(60.1,6.35,-17.15));
#208 = LINE('',#209,#210);
#209 = CARTESIAN_POINT('',(60.1,-30.35449728916,-17.15));
#210 = VECTOR('',#211,1.);
#211 = DIRECTION('',(0.,1.,-0.));
#212 = ORIENTED_EDGE('',*,*,#213,.F.);
#213 = EDGE_CURVE('',#214,#206,#216,.T.);
#214 = VERTEX_POINT('',#215);
#215 = CARTESIAN_POINT('',(60.1,6.35,6.15));
#216 = LINE('',#217,#218);
#217 = CARTESIAN_POINT('',(60.1,6.35,-19.825));
#218 = VECTOR('',#219,1.);
#219 = DIRECTION('',(0.,0.,-1.));
#220 = ORIENTED_EDGE('',*,*,#221,.F.);
#221 = EDGE_CURVE('',#196,#214,#222,.T.);
#222 = LINE('',#223,#224);
#223 = CARTESIAN_POINT('',(60.1,-30.35449728916,6.15));
#224 = VECTOR('',#225,1.);
#225 = DIRECTION('',(0.,1.,-0.));
#226 = FACE_BOUND('',#227,.T.);
#227 = EDGE_LOOP('',(#228,#239,#247,#256,#265));
#228 = ORIENTED_EDGE('',*,*,#229,.F.);
#229 = EDGE_CURVE('',#230,#232,#234,.T.);
#230 = VERTEX_POINT('',#231);
#231 = CARTESIAN_POINT('',(60.1,0.85,8.25));
#232 = VERTEX_POINT('',#233);
#233 = CARTESIAN_POINT('',(60.1,-0.85,8.25));
#234 = CIRCLE('',#235,0.85);
#235 = AXIS2_PLACEMENT_3D('',#236,#237,#238);
#236 = CARTESIAN_POINT('',(60.1,0.,8.25));
#237 = DIRECTION('',(-1.,0.,0.));
#238 = DIRECTION('',(0.,0.,1.));
#239 = ORIENTED_EDGE('',*,*,#240,.F.);
#240 = EDGE_CURVE('',#241,#230,#243,.T.);
#241 = VERTEX_POINT('',#242);
#242 = CARTESIAN_POINT('',(60.1,0.85,8.5));
#243 = LINE('',#244,#245);
#244 = CARTESIAN_POINT('',(60.1,0.85,-7.125));
#245 = VECTOR('',#246,1.);
#246 = DIRECTION('',(0.,0.,-1.));
#247 = ORIENTED_EDGE('',*,*,#248,.F.);
#248 = EDGE_CURVE('',#249,#241,#251,.T.);
#249 = VERTEX_POINT('',#250);
#250 = CARTESIAN_POINT('',(60.1,-2.081899558551E-16,9.35));
#251 = CIRCLE('',#252,0.85);
#252 = AXIS2_PLACEMENT_3D('',#253,#254,#255);
#253 = CARTESIAN_POINT('',(60.1,0.,8.5));
#254 = DIRECTION('',(-1.,0.,0.));
#255 = DIRECTION('',(0.,0.,1.));
#256 = ORIENTED_EDGE('',*,*,#257,.F.);
#257 = EDGE_CURVE('',#258,#249,#260,.T.);
#258 = VERTEX_POINT('',#259);
#259 = CARTESIAN_POINT('',(60.1,-0.85,8.5));
#260 = CIRCLE('',#261,0.85);
#261 = AXIS2_PLACEMENT_3D('',#262,#263,#264);
#262 = CARTESIAN_POINT('',(60.1,0.,8.5));
#263 = DIRECTION('',(-1.,0.,0.));
#264 = DIRECTION('',(0.,0.,1.));
#265 = ORIENTED_EDGE('',*,*,#266,.T.);
#266 = EDGE_CURVE('',#258,#232,#267,.T.);
#267 = LINE('',#268,#269);
#268 = CARTESIAN_POINT('',(60.1,-0.85,-7.125));
#269 = VECTOR('',#270,1.);
#270 = DIRECTION('',(0.,0.,-1.));
#271 = PLANE('',#272);
#272 = AXIS2_PLACEMENT_3D('',#273,#274,#275);
#273 = CARTESIAN_POINT('',(60.1,-54.35899457832,-22.5));
#274 = DIRECTION('',(-1.,0.,0.));
#275 = DIRECTION('',(0.,0.,1.));
#276 = ADVANCED_FACE('',(#277),#302,.F.);
#277 = FACE_BOUND('',#278,.F.);
#278 = EDGE_LOOP('',(#279,#289,#295,#296));
#279 = ORIENTED_EDGE('',*,*,#280,.T.);
#280 = EDGE_CURVE('',#281,#283,#285,.T.);
#281 = VERTEX_POINT('',#282);
#282 = CARTESIAN_POINT('',(-46.6,54.358994578326,-7.));
#283 = VERTEX_POINT('',#284);
#284 = CARTESIAN_POINT('',(-46.6,48.358994578326,-7.));
#285 = LINE('',#286,#287);
#286 = CARTESIAN_POINT('',(-46.6,-3.,-7.));
#287 = VECTOR('',#288,1.);
#288 = DIRECTION('',(0.,-1.,0.));
#289 = ORIENTED_EDGE('',*,*,#290,.T.);
#290 = EDGE_CURVE('',#283,#135,#291,.T.);
#291 = LINE('',#292,#293);
#292 = CARTESIAN_POINT('',(-52.6,48.358994578326,-7.));
#293 = VECTOR('',#294,1.);
#294 = DIRECTION('',(1.,0.,-0.));
#295 = ORIENTED_EDGE('',*,*,#142,.T.);
#296 = ORIENTED_EDGE('',*,*,#297,.F.);
#297 = EDGE_CURVE('',#281,#62,#298,.T.);
#298 = LINE('',#299,#300);
#299 = CARTESIAN_POINT('',(-52.6,54.358994578326,-7.));
#300 = VECTOR('',#301,1.);
#301 = DIRECTION('',(1.,0.,-0.));
#302 = PLANE('',#303);
#303 = AXIS2_PLACEMENT_3D('',#304,#305,#306);
#304 = CARTESIAN_POINT('',(-52.6,48.358994578326,-7.));
#305 = DIRECTION('',(0.,0.,1.));
#306 = DIRECTION('',(1.,0.,-0.));
#307 = ADVANCED_FACE('',(#308,#326),#337,.F.);
#308 = FACE_BOUND('',#309,.F.);
#309 = EDGE_LOOP('',(#310,#311,#319,#325));
#310 = ORIENTED_EDGE('',*,*,#290,.F.);
#311 = ORIENTED_EDGE('',*,*,#312,.T.);
#312 = EDGE_CURVE('',#283,#313,#315,.T.);
#313 = VERTEX_POINT('',#314);
#314 = CARTESIAN_POINT('',(-46.6,48.358994578326,7.));
#315 = LINE('',#316,#317);
#316 = CARTESIAN_POINT('',(-46.6,48.358994578326,-9.5));
#317 = VECTOR('',#318,1.);
#318 = DIRECTION('',(0.,0.,1.));
#319 = ORIENTED_EDGE('',*,*,#320,.T.);
#320 = EDGE_CURVE('',#313,#127,#321,.T.);
#321 = LINE('',#322,#323);
#322 = CARTESIAN_POINT('',(-52.6,48.358994578326,7.));
#323 = VECTOR('',#324,1.);
#324 = DIRECTION('',(1.,0.,-0.));
#325 = ORIENTED_EDGE('',*,*,#134,.T.);
#326 = FACE_BOUND('',#327,.F.);
#327 = EDGE_LOOP('',(#328));
#328 = ORIENTED_EDGE('',*,*,#329,.F.);
#329 = EDGE_CURVE('',#330,#330,#332,.T.);
#330 = VERTEX_POINT('',#331);
#331 = CARTESIAN_POINT('',(3.5,48.358994578326,8.572527594031E-16));
#332 = CIRCLE('',#333,3.5);
#333 = AXIS2_PLACEMENT_3D('',#334,#335,#336);
#334 = CARTESIAN_POINT('',(0.,48.358994578326,0.));
#335 = DIRECTION('',(-0.,1.,0.));
#336 = DIRECTION('',(1.,0.,0.));
#337 = PLANE('',#338);
#338 = AXIS2_PLACEMENT_3D('',#339,#340,#341);
#339 = CARTESIAN_POINT('',(-52.6,48.358994578326,-7.));
#340 = DIRECTION('',(-0.,1.,0.));
#341 = DIRECTION('',(0.,0.,1.));
#342 = ADVANCED_FACE('',(#343),#368,.F.);
#343 = FACE_BOUND('',#344,.F.);
#344 = EDGE_LOOP('',(#345,#355,#361,#362));
#345 = ORIENTED_EDGE('',*,*,#346,.T.);
#346 = EDGE_CURVE('',#347,#349,#351,.T.);
#347 = VERTEX_POINT('',#348);
#348 = CARTESIAN_POINT('',(-46.6,-48.35899457832,-7.));
#349 = VERTEX_POINT('',#350);
#350 = CARTESIAN_POINT('',(-46.6,-54.35899457832,-7.));
#351 = LINE('',#352,#353);
#352 = CARTESIAN_POINT('',(-46.6,-54.35899457832,-7.));
#353 = VECTOR('',#354,1.);
#354 = DIRECTION('',(0.,-1.,0.));
#355 = ORIENTED_EDGE('',*,*,#356,.T.);
#356 = EDGE_CURVE('',#349,#71,#357,.T.);
#357 = LINE('',#358,#359);
#358 = CARTESIAN_POINT('',(-52.6,-54.35899457832,-7.));
#359 = VECTOR('',#360,1.);
#360 = DIRECTION('',(1.,0.,-0.));
#361 = ORIENTED_EDGE('',*,*,#78,.T.);
#362 = ORIENTED_EDGE('',*,*,#363,.F.);
#363 = EDGE_CURVE('',#347,#79,#364,.T.);
#364 = LINE('',#365,#366);
#365 = CARTESIAN_POINT('',(-52.6,-48.35899457832,-7.));
#366 = VECTOR('',#367,1.);
#367 = DIRECTION('',(1.,0.,-0.));
#368 = PLANE('',#369);
#369 = AXIS2_PLACEMENT_3D('',#370,#371,#372);
#370 = CARTESIAN_POINT('',(-52.6,-54.35899457832,-7.));
#371 = DIRECTION('',(0.,0.,1.));
#372 = DIRECTION('',(1.,0.,-0.));
#373 = ADVANCED_FACE('',(#374),#392,.T.);
#374 = FACE_BOUND('',#375,.T.);
#375 = EDGE_LOOP('',(#376,#384,#385,#386));
#376 = ORIENTED_EDGE('',*,*,#377,.T.);
#377 = EDGE_CURVE('',#378,#313,#380,.T.);
#378 = VERTEX_POINT('',#379);
#379 = CARTESIAN_POINT('',(-46.6,54.358994578326,7.));
#380 = LINE('',#381,#382);
#381 = CARTESIAN_POINT('',(-46.6,-3.,7.));
#382 = VECTOR('',#383,1.);
#383 = DIRECTION('',(0.,-1.,0.));
#384 = ORIENTED_EDGE('',*,*,#320,.T.);
#385 = ORIENTED_EDGE('',*,*,#126,.T.);
#386 = ORIENTED_EDGE('',*,*,#387,.F.);
#387 = EDGE_CURVE('',#378,#119,#388,.T.);
#388 = LINE('',#389,#390);
#389 = CARTESIAN_POINT('',(-52.6,54.358994578326,7.));
#390 = VECTOR('',#391,1.);
#391 = DIRECTION('',(1.,0.,-0.));
#392 = PLANE('',#393);
#393 = AXIS2_PLACEMENT_3D('',#394,#395,#396);
#394 = CARTESIAN_POINT('',(-52.6,48.358994578326,7.));
#395 = DIRECTION('',(0.,0.,1.));
#396 = DIRECTION('',(1.,0.,-0.));
#397 = ADVANCED_FACE('',(#398),#416,.T.);
#398 = FACE_BOUND('',#399,.T.);
#399 = EDGE_LOOP('',(#400,#401,#409,#415));
#400 = ORIENTED_EDGE('',*,*,#363,.F.);
#401 = ORIENTED_EDGE('',*,*,#402,.T.);
#402 = EDGE_CURVE('',#347,#403,#405,.T.);
#403 = VERTEX_POINT('',#404);
#404 = CARTESIAN_POINT('',(-46.6,-48.35899457832,7.));
#405 = LINE('',#406,#407);
#406 = CARTESIAN_POINT('',(-46.6,-48.35899457832,-9.5));
#407 = VECTOR('',#408,1.);
#408 = DIRECTION('',(0.,0.,1.));
#409 = ORIENTED_EDGE('',*,*,#410,.T.);
#410 = EDGE_CURVE('',#403,#87,#411,.T.);
#411 = LINE('',#412,#413);
#412 = CARTESIAN_POINT('',(-52.6,-48.35899457832,7.));
#413 = VECTOR('',#414,1.);
#414 = DIRECTION('',(1.,0.,-0.));
#415 = ORIENTED_EDGE('',*,*,#86,.T.);
#416 = PLANE('',#417);
#417 = AXIS2_PLACEMENT_3D('',#418,#419,#420);
#418 = CARTESIAN_POINT('',(-52.6,-48.35899457832,-7.));
#419 = DIRECTION('',(-0.,1.,0.));
#420 = DIRECTION('',(0.,0.,1.));
#421 = ADVANCED_FACE('',(#422),#440,.T.);
#422 = FACE_BOUND('',#423,.T.);
#423 = EDGE_LOOP('',(#424,#432,#438,#439));
#424 = ORIENTED_EDGE('',*,*,#425,.T.);
#425 = EDGE_CURVE('',#403,#426,#428,.T.);
#426 = VERTEX_POINT('',#427);
#427 = CARTESIAN_POINT('',(-46.6,-54.35899457832,7.));
#428 = LINE('',#429,#430);
#429 = CARTESIAN_POINT('',(-46.6,-54.35899457832,7.));
#430 = VECTOR('',#431,1.);
#431 = DIRECTION('',(0.,-1.,0.));
#432 = ORIENTED_EDGE('',*,*,#433,.T.);
#433 = EDGE_CURVE('',#426,#95,#434,.T.);
#434 = LINE('',#435,#436);
#435 = CARTESIAN_POINT('',(-52.6,-54.35899457832,7.));
#436 = VECTOR('',#437,1.);
#437 = DIRECTION('',(1.,0.,-0.));
#438 = ORIENTED_EDGE('',*,*,#94,.T.);
#439 = ORIENTED_EDGE('',*,*,#410,.F.);
#440 = PLANE('',#441);
#441 = AXIS2_PLACEMENT_3D('',#442,#443,#444);
#442 = CARTESIAN_POINT('',(-52.6,-54.35899457832,7.));
#443 = DIRECTION('',(0.,0.,1.));
#444 = DIRECTION('',(1.,0.,-0.));
#445 = ADVANCED_FACE('',(#446),#471,.T.);
#446 = FACE_BOUND('',#447,.T.);
#447 = EDGE_LOOP('',(#448,#456,#464,#470));
#448 = ORIENTED_EDGE('',*,*,#449,.F.);
#449 = EDGE_CURVE('',#450,#103,#452,.T.);
#450 = VERTEX_POINT('',#451);
#451 = CARTESIAN_POINT('',(65.1,-54.35899457832,11.5));
#452 = LINE('',#453,#454);
#453 = CARTESIAN_POINT('',(65.1,-54.35899457832,11.5));
#454 = VECTOR('',#455,1.);
#455 = DIRECTION('',(-1.,0.,0.));
#456 = ORIENTED_EDGE('',*,*,#457,.T.);
#457 = EDGE_CURVE('',#450,#458,#460,.T.);
#458 = VERTEX_POINT('',#459);
#459 = CARTESIAN_POINT('',(65.1,54.358994578326,11.5));
#460 = LINE('',#461,#462);
#461 = CARTESIAN_POINT('',(65.1,-54.35899457832,11.5));
#462 = VECTOR('',#463,1.);
#463 = DIRECTION('',(0.,1.,0.));
#464 = ORIENTED_EDGE('',*,*,#465,.T.);
#465 = EDGE_CURVE('',#458,#111,#466,.T.);
#466 = LINE('',#467,#468);
#467 = CARTESIAN_POINT('',(65.1,54.358994578326,11.5));
#468 = VECTOR('',#469,1.);
#469 = DIRECTION('',(-1.,0.,0.));
#470 = ORIENTED_EDGE('',*,*,#110,.F.);
#471 = PLANE('',#472);
#472 = AXIS2_PLACEMENT_3D('',#473,#474,#475);
#473 = CARTESIAN_POINT('',(65.1,-54.35899457832,11.5));
#474 = DIRECTION('',(0.,0.,1.));
#475 = DIRECTION('',(-1.,0.,0.));
#476 = ADVANCED_FACE('',(#477),#502,.F.);
#477 = FACE_BOUND('',#478,.F.);
#478 = EDGE_LOOP('',(#479,#489,#495,#496));
#479 = ORIENTED_EDGE('',*,*,#480,.T.);
#480 = EDGE_CURVE('',#481,#483,#485,.T.);
#481 = VERTEX_POINT('',#482);
#482 = CARTESIAN_POINT('',(65.1,0.85,-19.25));
#483 = VERTEX_POINT('',#484);
#484 = CARTESIAN_POINT('',(65.1,0.85,-19.5));
#485 = LINE('',#486,#487);
#486 = CARTESIAN_POINT('',(65.1,0.85,-21.));
#487 = VECTOR('',#488,1.);
#488 = DIRECTION('',(0.,0.,-1.));
#489 = ORIENTED_EDGE('',*,*,#490,.T.);
#490 = EDGE_CURVE('',#483,#179,#491,.T.);
#491 = LINE('',#492,#493);
#492 = CARTESIAN_POINT('',(66.1,0.85,-19.5));
#493 = VECTOR('',#494,1.);
#494 = DIRECTION('',(-1.,0.,0.));
#495 = ORIENTED_EDGE('',*,*,#187,.F.);
#496 = ORIENTED_EDGE('',*,*,#497,.F.);
#497 = EDGE_CURVE('',#481,#153,#498,.T.);
#498 = LINE('',#499,#500);
#499 = CARTESIAN_POINT('',(66.1,0.85,-19.25));
#500 = VECTOR('',#501,1.);
#501 = DIRECTION('',(-1.,0.,0.));
#502 = PLANE('',#503);
#503 = AXIS2_PLACEMENT_3D('',#504,#505,#506);
#504 = CARTESIAN_POINT('',(66.1,0.85,-19.5));
#505 = DIRECTION('',(0.,1.,0.));
#506 = DIRECTION('',(-1.,0.,0.));
#507 = ADVANCED_FACE('',(#508),#527,.F.);
#508 = FACE_BOUND('',#509,.F.);
#509 = EDGE_LOOP('',(#510,#511,#512,#521));
#510 = ORIENTED_EDGE('',*,*,#178,.F.);
#511 = ORIENTED_EDGE('',*,*,#490,.F.);
#512 = ORIENTED_EDGE('',*,*,#513,.T.);
#513 = EDGE_CURVE('',#483,#514,#516,.T.);
#514 = VERTEX_POINT('',#515);
#515 = CARTESIAN_POINT('',(65.1,-0.85,-19.5));
#516 = CIRCLE('',#517,0.85);
#517 = AXIS2_PLACEMENT_3D('',#518,#519,#520);
#518 = CARTESIAN_POINT('',(65.1,0.,-19.5));
#519 = DIRECTION('',(-1.,0.,0.));
#520 = DIRECTION('',(0.,0.,1.));
#521 = ORIENTED_EDGE('',*,*,#522,.T.);
#522 = EDGE_CURVE('',#514,#171,#523,.T.);
#523 = LINE('',#524,#525);
#524 = CARTESIAN_POINT('',(66.1,-0.85,-19.5));
#525 = VECTOR('',#526,1.);
#526 = DIRECTION('',(-1.,0.,0.));
#527 = CYLINDRICAL_SURFACE('',#528,0.85);
#528 = AXIS2_PLACEMENT_3D('',#529,#530,#531);
#529 = CARTESIAN_POINT('',(66.1,0.,-19.5));
#530 = DIRECTION('',(-1.,0.,0.));
#531 = DIRECTION('',(0.,0.,1.));
#532 = ADVANCED_FACE('',(#533),#551,.T.);
#533 = FACE_BOUND('',#534,.T.);
#534 = EDGE_LOOP('',(#535,#543,#544,#545));
#535 = ORIENTED_EDGE('',*,*,#536,.T.);
#536 = EDGE_CURVE('',#537,#514,#539,.T.);
#537 = VERTEX_POINT('',#538);
#538 = CARTESIAN_POINT('',(65.1,-0.85,-19.25));
#539 = LINE('',#540,#541);
#540 = CARTESIAN_POINT('',(65.1,-0.85,-21.));
#541 = VECTOR('',#542,1.);
#542 = DIRECTION('',(0.,0.,-1.));
#543 = ORIENTED_EDGE('',*,*,#522,.T.);
#544 = ORIENTED_EDGE('',*,*,#170,.F.);
#545 = ORIENTED_EDGE('',*,*,#546,.F.);
#546 = EDGE_CURVE('',#537,#162,#547,.T.);
#547 = LINE('',#548,#549);
#548 = CARTESIAN_POINT('',(66.1,-0.85,-19.25));
#549 = VECTOR('',#550,1.);
#550 = DIRECTION('',(-1.,0.,0.));
#551 = PLANE('',#552);
#552 = AXIS2_PLACEMENT_3D('',#553,#554,#555);
#553 = CARTESIAN_POINT('',(66.1,-0.85,-19.5));
#554 = DIRECTION('',(0.,1.,0.));
#555 = DIRECTION('',(-1.,0.,0.));
#556 = ADVANCED_FACE('',(#557),#582,.T.);
#557 = FACE_BOUND('',#558,.T.);
#558 = EDGE_LOOP('',(#559,#567,#575,#581));
#559 = ORIENTED_EDGE('',*,*,#560,.F.);
#560 = EDGE_CURVE('',#561,#196,#563,.T.);
#561 = VERTEX_POINT('',#562);
#562 = CARTESIAN_POINT('',(65.1,-6.35,6.15));
#563 = LINE('',#564,#565);
#564 = CARTESIAN_POINT('',(66.1,-6.35,6.15));
#565 = VECTOR('',#566,1.);
#566 = DIRECTION('',(-1.,0.,0.));
#567 = ORIENTED_EDGE('',*,*,#568,.T.);
#568 = EDGE_CURVE('',#561,#569,#571,.T.);
#569 = VERTEX_POINT('',#570);
#570 = CARTESIAN_POINT('',(65.1,-6.35,-17.15));
#571 = LINE('',#572,#573);
#572 = CARTESIAN_POINT('',(65.1,-6.35,-19.825));
#573 = VECTOR('',#574,1.);
#574 = DIRECTION('',(0.,0.,-1.));
#575 = ORIENTED_EDGE('',*,*,#576,.T.);
#576 = EDGE_CURVE('',#569,#198,#577,.T.);
#577 = LINE('',#578,#579);
#578 = CARTESIAN_POINT('',(66.1,-6.35,-17.15));
#579 = VECTOR('',#580,1.);
#580 = DIRECTION('',(-1.,0.,0.));
#581 = ORIENTED_EDGE('',*,*,#195,.F.);
#582 = PLANE('',#583);
#583 = AXIS2_PLACEMENT_3D('',#584,#585,#586);
#584 = CARTESIAN_POINT('',(66.1,-6.35,-17.15));
#585 = DIRECTION('',(0.,1.,0.));
#586 = DIRECTION('',(-1.,0.,0.));
#587 = ADVANCED_FACE('',(#588),#606,.F.);
#588 = FACE_BOUND('',#589,.F.);
#589 = EDGE_LOOP('',(#590,#591,#599,#605));
#590 = ORIENTED_EDGE('',*,*,#560,.F.);
#591 = ORIENTED_EDGE('',*,*,#592,.T.);
#592 = EDGE_CURVE('',#561,#593,#595,.T.);
#593 = VERTEX_POINT('',#594);
#594 = CARTESIAN_POINT('',(65.1,6.35,6.15));
#595 = LINE('',#596,#597);
#596 = CARTESIAN_POINT('',(65.1,-30.35449728916,6.15));
#597 = VECTOR('',#598,1.);
#598 = DIRECTION('',(0.,1.,-0.));
#599 = ORIENTED_EDGE('',*,*,#600,.T.);
#600 = EDGE_CURVE('',#593,#214,#601,.T.);
#601 = LINE('',#602,#603);
#602 = CARTESIAN_POINT('',(66.1,6.35,6.15));
#603 = VECTOR('',#604,1.);
#604 = DIRECTION('',(-1.,0.,0.));
#605 = ORIENTED_EDGE('',*,*,#221,.F.);
#606 = PLANE('',#607);
#607 = AXIS2_PLACEMENT_3D('',#608,#609,#610);
#608 = CARTESIAN_POINT('',(66.1,-6.35,6.15));
#609 = DIRECTION('',(0.,0.,1.));
#610 = DIRECTION('',(-1.,0.,0.));
#611 = ADVANCED_FACE('',(#612),#630,.F.);
#612 = FACE_BOUND('',#613,.F.);
#613 = EDGE_LOOP('',(#614,#615,#623,#629));
#614 = ORIENTED_EDGE('',*,*,#600,.F.);
#615 = ORIENTED_EDGE('',*,*,#616,.T.);
#616 = EDGE_CURVE('',#593,#617,#619,.T.);
#617 = VERTEX_POINT('',#618);
#618 = CARTESIAN_POINT('',(65.1,6.35,-17.15));
#619 = LINE('',#620,#621);
#620 = CARTESIAN_POINT('',(65.1,6.35,-19.825));
#621 = VECTOR('',#622,1.);
#622 = DIRECTION('',(0.,0.,-1.));
#623 = ORIENTED_EDGE('',*,*,#624,.T.);
#624 = EDGE_CURVE('',#617,#206,#625,.T.);
#625 = LINE('',#626,#627);
#626 = CARTESIAN_POINT('',(66.1,6.35,-17.15));
#627 = VECTOR('',#628,1.);
#628 = DIRECTION('',(-1.,0.,0.));
#629 = ORIENTED_EDGE('',*,*,#213,.F.);
#630 = PLANE('',#631);
#631 = AXIS2_PLACEMENT_3D('',#632,#633,#634);
#632 = CARTESIAN_POINT('',(66.1,6.35,-17.15));
#633 = DIRECTION('',(0.,1.,0.));
#634 = DIRECTION('',(-1.,0.,0.));
#635 = ADVANCED_FACE('',(#636),#647,.T.);
#636 = FACE_BOUND('',#637,.T.);
#637 = EDGE_LOOP('',(#638,#639,#645,#646));
#638 = ORIENTED_EDGE('',*,*,#576,.F.);
#639 = ORIENTED_EDGE('',*,*,#640,.T.);
#640 = EDGE_CURVE('',#569,#617,#641,.T.);
#641 = LINE('',#642,#643);
#642 = CARTESIAN_POINT('',(65.1,-30.35449728916,-17.15));
#643 = VECTOR('',#644,1.);
#644 = DIRECTION('',(0.,1.,-0.));
#645 = ORIENTED_EDGE('',*,*,#624,.T.);
#646 = ORIENTED_EDGE('',*,*,#205,.F.);
#647 = PLANE('',#648);
#648 = AXIS2_PLACEMENT_3D('',#649,#650,#651);
#649 = CARTESIAN_POINT('',(66.1,-6.35,-17.15));
#650 = DIRECTION('',(0.,0.,1.));
#651 = DIRECTION('',(-1.,0.,0.));
#652 = ADVANCED_FACE('',(#653),#679,.F.);
#653 = FACE_BOUND('',#654,.F.);
#654 = EDGE_LOOP('',(#655,#656,#664,#673));
#655 = ORIENTED_EDGE('',*,*,#229,.F.);
#656 = ORIENTED_EDGE('',*,*,#657,.F.);
#657 = EDGE_CURVE('',#658,#230,#660,.T.);
#658 = VERTEX_POINT('',#659);
#659 = CARTESIAN_POINT('',(65.1,0.85,8.25));
#660 = LINE('',#661,#662);
#661 = CARTESIAN_POINT('',(66.1,0.85,8.25));
#662 = VECTOR('',#663,1.);
#663 = DIRECTION('',(-1.,0.,0.));
#664 = ORIENTED_EDGE('',*,*,#665,.T.);
#665 = EDGE_CURVE('',#658,#666,#668,.T.);
#666 = VERTEX_POINT('',#667);
#667 = CARTESIAN_POINT('',(65.1,-0.85,8.25));
#668 = CIRCLE('',#669,0.85);
#669 = AXIS2_PLACEMENT_3D('',#670,#671,#672);
#670 = CARTESIAN_POINT('',(65.1,0.,8.25));
#671 = DIRECTION('',(-1.,0.,0.));
#672 = DIRECTION('',(0.,0.,1.));
#673 = ORIENTED_EDGE('',*,*,#674,.T.);
#674 = EDGE_CURVE('',#666,#232,#675,.T.);
#675 = LINE('',#676,#677);
#676 = CARTESIAN_POINT('',(66.1,-0.85,8.25));
#677 = VECTOR('',#678,1.);
#678 = DIRECTION('',(-1.,0.,0.));
#679 = CYLINDRICAL_SURFACE('',#680,0.85);
#680 = AXIS2_PLACEMENT_3D('',#681,#682,#683);
#681 = CARTESIAN_POINT('',(66.1,0.,8.25));
#682 = DIRECTION('',(-1.,0.,0.));
#683 = DIRECTION('',(0.,0.,1.));
#684 = ADVANCED_FACE('',(#685),#703,.T.);
#685 = FACE_BOUND('',#686,.T.);
#686 = EDGE_LOOP('',(#687,#695,#696,#697));
#687 = ORIENTED_EDGE('',*,*,#688,.T.);
#688 = EDGE_CURVE('',#689,#666,#691,.T.);
#689 = VERTEX_POINT('',#690);
#690 = CARTESIAN_POINT('',(65.1,-0.85,8.5));
#691 = LINE('',#692,#693);
#692 = CARTESIAN_POINT('',(65.1,-0.85,-7.125));
#693 = VECTOR('',#694,1.);
#694 = DIRECTION('',(0.,0.,-1.));
#695 = ORIENTED_EDGE('',*,*,#674,.T.);
#696 = ORIENTED_EDGE('',*,*,#266,.F.);
#697 = ORIENTED_EDGE('',*,*,#698,.F.);
#698 = EDGE_CURVE('',#689,#258,#699,.T.);
#699 = LINE('',#700,#701);
#700 = CARTESIAN_POINT('',(66.1,-0.85,8.5));
#701 = VECTOR('',#702,1.);
#702 = DIRECTION('',(-1.,0.,0.));
#703 = PLANE('',#704);
#704 = AXIS2_PLACEMENT_3D('',#705,#706,#707);
#705 = CARTESIAN_POINT('',(66.1,-0.85,8.25));
#706 = DIRECTION('',(0.,1.,0.));
#707 = DIRECTION('',(-1.,0.,0.));
#708 = ADVANCED_FACE('',(#709),#727,.F.);
#709 = FACE_BOUND('',#710,.F.);
#710 = EDGE_LOOP('',(#711,#719,#720,#721));
#711 = ORIENTED_EDGE('',*,*,#712,.T.);
#712 = EDGE_CURVE('',#713,#658,#715,.T.);
#713 = VERTEX_POINT('',#714);
#714 = CARTESIAN_POINT('',(65.1,0.85,8.5));
#715 = LINE('',#716,#717);
#716 = CARTESIAN_POINT('',(65.1,0.85,-7.125));
#717 = VECTOR('',#718,1.);
#718 = DIRECTION('',(0.,0.,-1.));
#719 = ORIENTED_EDGE('',*,*,#657,.T.);
#720 = ORIENTED_EDGE('',*,*,#240,.F.);
#721 = ORIENTED_EDGE('',*,*,#722,.F.);
#722 = EDGE_CURVE('',#713,#241,#723,.T.);
#723 = LINE('',#724,#725);
#724 = CARTESIAN_POINT('',(66.1,0.85,8.5));
#725 = VECTOR('',#726,1.);
#726 = DIRECTION('',(-1.,0.,0.));
#727 = PLANE('',#728);
#728 = AXIS2_PLACEMENT_3D('',#729,#730,#731);
#729 = CARTESIAN_POINT('',(66.1,0.85,8.25));
#730 = DIRECTION('',(0.,1.,0.));
#731 = DIRECTION('',(-1.,0.,0.));
#732 = ADVANCED_FACE('',(#733,#785),#796,.T.);
#733 = FACE_BOUND('',#734,.T.);
#734 = EDGE_LOOP('',(#735,#743,#751,#757,#758,#759,#760,#768,#776,#782,
    #783,#784));
#735 = ORIENTED_EDGE('',*,*,#736,.F.);
#736 = EDGE_CURVE('',#737,#349,#739,.T.);
#737 = VERTEX_POINT('',#738);
#738 = CARTESIAN_POINT('',(-46.6,-54.35899457832,-12.));
#739 = LINE('',#740,#741);
#740 = CARTESIAN_POINT('',(-46.6,-54.35899457832,-12.));
#741 = VECTOR('',#742,1.);
#742 = DIRECTION('',(0.,0.,1.));
#743 = ORIENTED_EDGE('',*,*,#744,.T.);
#744 = EDGE_CURVE('',#737,#745,#747,.T.);
#745 = VERTEX_POINT('',#746);
#746 = CARTESIAN_POINT('',(-46.6,54.358994578326,-12.));
#747 = LINE('',#748,#749);
#748 = CARTESIAN_POINT('',(-46.6,-54.35899457832,-12.));
#749 = VECTOR('',#750,1.);
#750 = DIRECTION('',(-0.,1.,0.));
#751 = ORIENTED_EDGE('',*,*,#752,.T.);
#752 = EDGE_CURVE('',#745,#281,#753,.T.);
#753 = LINE('',#754,#755);
#754 = CARTESIAN_POINT('',(-46.6,54.358994578326,-12.));
#755 = VECTOR('',#756,1.);
#756 = DIRECTION('',(0.,0.,1.));
#757 = ORIENTED_EDGE('',*,*,#280,.T.);
#758 = ORIENTED_EDGE('',*,*,#312,.T.);
#759 = ORIENTED_EDGE('',*,*,#377,.F.);
#760 = ORIENTED_EDGE('',*,*,#761,.T.);
#761 = EDGE_CURVE('',#378,#762,#764,.T.);
#762 = VERTEX_POINT('',#763);
#763 = CARTESIAN_POINT('',(-46.6,54.358994578326,12.));
#764 = LINE('',#765,#766);
#765 = CARTESIAN_POINT('',(-46.6,54.358994578326,-12.));
#766 = VECTOR('',#767,1.);
#767 = DIRECTION('',(0.,0.,1.));
#768 = ORIENTED_EDGE('',*,*,#769,.F.);
#769 = EDGE_CURVE('',#770,#762,#772,.T.);
#770 = VERTEX_POINT('',#771);
#771 = CARTESIAN_POINT('',(-46.6,-54.35899457832,12.));
#772 = LINE('',#773,#774);
#773 = CARTESIAN_POINT('',(-46.6,-54.35899457832,12.));
#774 = VECTOR('',#775,1.);
#775 = DIRECTION('',(-0.,1.,0.));
#776 = ORIENTED_EDGE('',*,*,#777,.F.);
#777 = EDGE_CURVE('',#426,#770,#778,.T.);
#778 = LINE('',#779,#780);
#779 = CARTESIAN_POINT('',(-46.6,-54.35899457832,-12.));
#780 = VECTOR('',#781,1.);
#781 = DIRECTION('',(0.,0.,1.));
#782 = ORIENTED_EDGE('',*,*,#425,.F.);
#783 = ORIENTED_EDGE('',*,*,#402,.F.);
#784 = ORIENTED_EDGE('',*,*,#346,.T.);
#785 = FACE_BOUND('',#786,.T.);
#786 = EDGE_LOOP('',(#787));
#787 = ORIENTED_EDGE('',*,*,#788,.T.);
#788 = EDGE_CURVE('',#789,#789,#791,.T.);
#789 = VERTEX_POINT('',#790);
#790 = CARTESIAN_POINT('',(-46.6,7.960204194458E-16,-3.25));
#791 = CIRCLE('',#792,3.25);
#792 = AXIS2_PLACEMENT_3D('',#793,#794,#795);
#793 = CARTESIAN_POINT('',(-46.6,0.,0.));
#794 = DIRECTION('',(-1.,0.,0.));
#795 = DIRECTION('',(0.,0.,-1.));
#796 = PLANE('',#797);
#797 = AXIS2_PLACEMENT_3D('',#798,#799,#800);
#798 = CARTESIAN_POINT('',(-46.6,-54.35899457832,-12.));
#799 = DIRECTION('',(1.,0.,-0.));
#800 = DIRECTION('',(0.,0.,1.));
#801 = ADVANCED_FACE('',(#802),#821,.F.);
#802 = FACE_BOUND('',#803,.F.);
#803 = EDGE_LOOP('',(#804,#812,#819,#820));
#804 = ORIENTED_EDGE('',*,*,#805,.T.);
#805 = EDGE_CURVE('',#330,#806,#808,.T.);
#806 = VERTEX_POINT('',#807);
#807 = CARTESIAN_POINT('',(3.5,51.858994578326,8.572527594031E-16));
#808 = LINE('',#809,#810);
#809 = CARTESIAN_POINT('',(3.5,46.358994578326,8.572527594031E-16));
#810 = VECTOR('',#811,1.);
#811 = DIRECTION('',(0.,1.,0.));
#812 = ORIENTED_EDGE('',*,*,#813,.F.);
#813 = EDGE_CURVE('',#806,#806,#814,.T.);
#814 = CIRCLE('',#815,3.5);
#815 = AXIS2_PLACEMENT_3D('',#816,#817,#818);
#816 = CARTESIAN_POINT('',(0.,51.858994578326,0.));
#817 = DIRECTION('',(-0.,1.,0.));
#818 = DIRECTION('',(1.,0.,0.));
#819 = ORIENTED_EDGE('',*,*,#805,.F.);
#820 = ORIENTED_EDGE('',*,*,#329,.T.);
#821 = CYLINDRICAL_SURFACE('',#822,3.5);
#822 = AXIS2_PLACEMENT_3D('',#823,#824,#825);
#823 = CARTESIAN_POINT('',(0.,46.358994578326,0.));
#824 = DIRECTION('',(0.,1.,0.));
#825 = DIRECTION('',(1.,0.,0.));
#826 = ADVANCED_FACE('',(#827),#852,.F.);
#827 = FACE_BOUND('',#828,.F.);
#828 = EDGE_LOOP('',(#829,#839,#845,#846));
#829 = ORIENTED_EDGE('',*,*,#830,.F.);
#830 = EDGE_CURVE('',#831,#833,#835,.T.);
#831 = VERTEX_POINT('',#832);
#832 = CARTESIAN_POINT('',(-52.6,-54.35899457832,-12.));
#833 = VERTEX_POINT('',#834);
#834 = CARTESIAN_POINT('',(-52.6,54.358994578326,-12.));
#835 = LINE('',#836,#837);
#836 = CARTESIAN_POINT('',(-52.6,-54.35899457832,-12.));
#837 = VECTOR('',#838,1.);
#838 = DIRECTION('',(-0.,1.,0.));
#839 = ORIENTED_EDGE('',*,*,#840,.T.);
#840 = EDGE_CURVE('',#831,#737,#841,.T.);
#841 = LINE('',#842,#843);
#842 = CARTESIAN_POINT('',(-52.6,-54.35899457832,-12.));
#843 = VECTOR('',#844,1.);
#844 = DIRECTION('',(1.,0.,-0.));
#845 = ORIENTED_EDGE('',*,*,#744,.T.);
#846 = ORIENTED_EDGE('',*,*,#847,.F.);
#847 = EDGE_CURVE('',#833,#745,#848,.T.);
#848 = LINE('',#849,#850);
#849 = CARTESIAN_POINT('',(-52.6,54.358994578326,-12.));
#850 = VECTOR('',#851,1.);
#851 = DIRECTION('',(1.,0.,-0.));
#852 = PLANE('',#853);
#853 = AXIS2_PLACEMENT_3D('',#854,#855,#856);
#854 = CARTESIAN_POINT('',(-52.6,-54.35899457832,-12.));
#855 = DIRECTION('',(0.,0.,1.));
#856 = DIRECTION('',(1.,0.,-0.));
#857 = ADVANCED_FACE('',(#858),#883,.T.);
#858 = FACE_BOUND('',#859,.T.);
#859 = EDGE_LOOP('',(#860,#870,#876,#877));
#860 = ORIENTED_EDGE('',*,*,#861,.F.);
#861 = EDGE_CURVE('',#862,#864,#866,.T.);
#862 = VERTEX_POINT('',#863);
#863 = CARTESIAN_POINT('',(-52.6,-54.35899457832,12.));
#864 = VERTEX_POINT('',#865);
#865 = CARTESIAN_POINT('',(-52.6,54.358994578326,12.));
#866 = LINE('',#867,#868);
#867 = CARTESIAN_POINT('',(-52.6,-54.35899457832,12.));
#868 = VECTOR('',#869,1.);
#869 = DIRECTION('',(-0.,1.,0.));
#870 = ORIENTED_EDGE('',*,*,#871,.T.);
#871 = EDGE_CURVE('',#862,#770,#872,.T.);
#872 = LINE('',#873,#874);
#873 = CARTESIAN_POINT('',(-52.6,-54.35899457832,12.));
#874 = VECTOR('',#875,1.);
#875 = DIRECTION('',(1.,0.,-0.));
#876 = ORIENTED_EDGE('',*,*,#769,.T.);
#877 = ORIENTED_EDGE('',*,*,#878,.F.);
#878 = EDGE_CURVE('',#864,#762,#879,.T.);
#879 = LINE('',#880,#881);
#880 = CARTESIAN_POINT('',(-52.6,54.358994578326,12.));
#881 = VECTOR('',#882,1.);
#882 = DIRECTION('',(1.,0.,-0.));
#883 = PLANE('',#884);
#884 = AXIS2_PLACEMENT_3D('',#885,#886,#887);
#885 = CARTESIAN_POINT('',(-52.6,-54.35899457832,12.));
#886 = DIRECTION('',(0.,0.,1.));
#887 = DIRECTION('',(1.,0.,-0.));
#888 = ADVANCED_FACE('',(#889),#908,.F.);
#889 = FACE_BOUND('',#890,.F.);
#890 = EDGE_LOOP('',(#891,#899,#906,#907));
#891 = ORIENTED_EDGE('',*,*,#892,.T.);
#892 = EDGE_CURVE('',#789,#893,#895,.T.);
#893 = VERTEX_POINT('',#894);
#894 = CARTESIAN_POINT('',(-48.6,7.960204194458E-16,-3.25));
#895 = LINE('',#896,#897);
#896 = CARTESIAN_POINT('',(-45.6,7.960204194458E-16,-3.25));
#897 = VECTOR('',#898,1.);
#898 = DIRECTION('',(-1.,0.,0.));
#899 = ORIENTED_EDGE('',*,*,#900,.F.);
#900 = EDGE_CURVE('',#893,#893,#901,.T.);
#901 = CIRCLE('',#902,3.25);
#902 = AXIS2_PLACEMENT_3D('',#903,#904,#905);
#903 = CARTESIAN_POINT('',(-48.6,0.,0.));
#904 = DIRECTION('',(-1.,0.,0.));
#905 = DIRECTION('',(0.,0.,-1.));
#906 = ORIENTED_EDGE('',*,*,#892,.F.);
#907 = ORIENTED_EDGE('',*,*,#788,.T.);
#908 = CYLINDRICAL_SURFACE('',#909,3.25);
#909 = AXIS2_PLACEMENT_3D('',#910,#911,#912);
#910 = CARTESIAN_POINT('',(-45.6,0.,0.));
#911 = DIRECTION('',(-1.,0.,0.));
#912 = DIRECTION('',(0.,0.,-1.));
#913 = ADVANCED_FACE('',(#914,#925),#928,.T.);
#914 = FACE_BOUND('',#915,.T.);
#915 = EDGE_LOOP('',(#916));
#916 = ORIENTED_EDGE('',*,*,#917,.T.);
#917 = EDGE_CURVE('',#918,#918,#920,.T.);
#918 = VERTEX_POINT('',#919);
#919 = CARTESIAN_POINT('',(-48.6,1.243016501135E-15,-5.075));
#920 = CIRCLE('',#921,5.075);
#921 = AXIS2_PLACEMENT_3D('',#922,#923,#924);
#922 = CARTESIAN_POINT('',(-48.6,0.,0.));
#923 = DIRECTION('',(-1.,0.,0.));
#924 = DIRECTION('',(0.,0.,-1.));
#925 = FACE_BOUND('',#926,.T.);
#926 = EDGE_LOOP('',(#927));
#927 = ORIENTED_EDGE('',*,*,#900,.F.);
#928 = PLANE('',#929);
#929 = AXIS2_PLACEMENT_3D('',#930,#931,#932);
#930 = CARTESIAN_POINT('',(-48.6,0.,0.));
#931 = DIRECTION('',(-1.,0.,0.));
#932 = DIRECTION('',(0.,0.,-1.));
#933 = ADVANCED_FACE('',(#934),#953,.F.);
#934 = FACE_BOUND('',#935,.F.);
#935 = EDGE_LOOP('',(#936,#945,#951,#952));
#936 = ORIENTED_EDGE('',*,*,#937,.F.);
#937 = EDGE_CURVE('',#938,#938,#940,.T.);
#938 = VERTEX_POINT('',#939);
#939 = CARTESIAN_POINT('',(-52.6,1.243016501135E-15,-5.075));
#940 = CIRCLE('',#941,5.075);
#941 = AXIS2_PLACEMENT_3D('',#942,#943,#944);
#942 = CARTESIAN_POINT('',(-52.6,0.,0.));
#943 = DIRECTION('',(-1.,0.,0.));
#944 = DIRECTION('',(0.,0.,-1.));
#945 = ORIENTED_EDGE('',*,*,#946,.F.);
#946 = EDGE_CURVE('',#918,#938,#947,.T.);
#947 = LINE('',#948,#949);
#948 = CARTESIAN_POINT('',(-48.6,1.243016501135E-15,-5.075));
#949 = VECTOR('',#950,1.);
#950 = DIRECTION('',(-1.,0.,0.));
#951 = ORIENTED_EDGE('',*,*,#917,.T.);
#952 = ORIENTED_EDGE('',*,*,#946,.T.);
#953 = CYLINDRICAL_SURFACE('',#954,5.075);
#954 = AXIS2_PLACEMENT_3D('',#955,#956,#957);
#955 = CARTESIAN_POINT('',(-48.6,0.,0.));
#956 = DIRECTION('',(-1.,0.,0.));
#957 = DIRECTION('',(0.,0.,-1.));
#958 = ADVANCED_FACE('',(#959,#983),#994,.T.);
#959 = FACE_BOUND('',#960,.T.);
#960 = EDGE_LOOP('',(#961,#967,#968,#969,#970,#971,#972,#978,#979,#980,
    #981,#982));
#961 = ORIENTED_EDGE('',*,*,#962,.T.);
#962 = EDGE_CURVE('',#22,#450,#963,.T.);
#963 = LINE('',#964,#965);
#964 = CARTESIAN_POINT('',(65.1,-54.35899457832,-22.5));
#965 = VECTOR('',#966,1.);
#966 = DIRECTION('',(0.,0.,1.));
#967 = ORIENTED_EDGE('',*,*,#449,.T.);
#968 = ORIENTED_EDGE('',*,*,#102,.F.);
#969 = ORIENTED_EDGE('',*,*,#433,.F.);
#970 = ORIENTED_EDGE('',*,*,#777,.T.);
#971 = ORIENTED_EDGE('',*,*,#871,.F.);
#972 = ORIENTED_EDGE('',*,*,#973,.F.);
#973 = EDGE_CURVE('',#831,#862,#974,.T.);
#974 = LINE('',#975,#976);
#975 = CARTESIAN_POINT('',(-52.6,-54.35899457832,-12.));
#976 = VECTOR('',#977,1.);
#977 = DIRECTION('',(0.,0.,1.));
#978 = ORIENTED_EDGE('',*,*,#840,.T.);
#979 = ORIENTED_EDGE('',*,*,#736,.T.);
#980 = ORIENTED_EDGE('',*,*,#356,.T.);
#981 = ORIENTED_EDGE('',*,*,#70,.F.);
#982 = ORIENTED_EDGE('',*,*,#21,.F.);
#983 = FACE_BOUND('',#984,.T.);
#984 = EDGE_LOOP('',(#985));
#985 = ORIENTED_EDGE('',*,*,#986,.F.);
#986 = EDGE_CURVE('',#987,#987,#989,.T.);
#987 = VERTEX_POINT('',#988);
#988 = CARTESIAN_POINT('',(-5.878304635907E-16,-54.35899457832,-2.4));
#989 = CIRCLE('',#990,2.4);
#990 = AXIS2_PLACEMENT_3D('',#991,#992,#993);
#991 = CARTESIAN_POINT('',(0.,-54.35899457832,0.));
#992 = DIRECTION('',(0.,-1.,0.));
#993 = DIRECTION('',(0.,-0.,-1.));
#994 = PLANE('',#995);
#995 = AXIS2_PLACEMENT_3D('',#996,#997,#998);
#996 = CARTESIAN_POINT('',(9.765769944341,-54.35899457832,
    -1.326530612245));
#997 = DIRECTION('',(-0.,-1.,-0.));
#998 = DIRECTION('',(0.,0.,-1.));
#999 = ADVANCED_FACE('',(#1000),#1019,.T.);
#1000 = FACE_BOUND('',#1001,.T.);
#1001 = EDGE_LOOP('',(#1002,#1010,#1017,#1018));
#1002 = ORIENTED_EDGE('',*,*,#1003,.T.);
#1003 = EDGE_CURVE('',#987,#1004,#1006,.T.);
#1004 = VERTEX_POINT('',#1005);
#1005 = CARTESIAN_POINT('',(-5.878304635907E-16,-57.85899457832,-2.4));
#1006 = LINE('',#1007,#1008);
#1007 = CARTESIAN_POINT('',(-5.878304635907E-16,-53.85899457832,-2.4));
#1008 = VECTOR('',#1009,1.);
#1009 = DIRECTION('',(0.,-1.,0.));
#1010 = ORIENTED_EDGE('',*,*,#1011,.F.);
#1011 = EDGE_CURVE('',#1004,#1004,#1012,.T.);
#1012 = CIRCLE('',#1013,2.4);
#1013 = AXIS2_PLACEMENT_3D('',#1014,#1015,#1016);
#1014 = CARTESIAN_POINT('',(0.,-57.85899457832,0.));
#1015 = DIRECTION('',(0.,-1.,0.));
#1016 = DIRECTION('',(0.,-0.,-1.));
#1017 = ORIENTED_EDGE('',*,*,#1003,.F.);
#1018 = ORIENTED_EDGE('',*,*,#986,.T.);
#1019 = CYLINDRICAL_SURFACE('',#1020,2.4);
#1020 = AXIS2_PLACEMENT_3D('',#1021,#1022,#1023);
#1021 = CARTESIAN_POINT('',(0.,-53.85899457832,0.));
#1022 = DIRECTION('',(0.,-1.,0.));
#1023 = DIRECTION('',(0.,-0.,-1.));
#1024 = ADVANCED_FACE('',(#1025,#1028),#1039,.T.);
#1025 = FACE_BOUND('',#1026,.T.);
#1026 = EDGE_LOOP('',(#1027));
#1027 = ORIENTED_EDGE('',*,*,#1011,.T.);
#1028 = FACE_BOUND('',#1029,.T.);
#1029 = EDGE_LOOP('',(#1030));
#1030 = ORIENTED_EDGE('',*,*,#1031,.F.);
#1031 = EDGE_CURVE('',#1032,#1032,#1034,.T.);
#1032 = VERTEX_POINT('',#1033);
#1033 = CARTESIAN_POINT('',(-3.429011037613E-16,-57.85899457832,-1.4));
#1034 = CIRCLE('',#1035,1.4);
#1035 = AXIS2_PLACEMENT_3D('',#1036,#1037,#1038);
#1036 = CARTESIAN_POINT('',(0.,-57.85899457832,0.));
#1037 = DIRECTION('',(0.,-1.,0.));
#1038 = DIRECTION('',(0.,-0.,-1.));
#1039 = PLANE('',#1040);
#1040 = AXIS2_PLACEMENT_3D('',#1041,#1042,#1043);
#1041 = CARTESIAN_POINT('',(0.,-57.85899457832,0.));
#1042 = DIRECTION('',(0.,-1.,0.));
#1043 = DIRECTION('',(0.,-0.,-1.));
#1044 = ADVANCED_FACE('',(#1045),#1064,.F.);
#1045 = FACE_BOUND('',#1046,.F.);
#1046 = EDGE_LOOP('',(#1047,#1048,#1056,#1063));
#1047 = ORIENTED_EDGE('',*,*,#1031,.F.);
#1048 = ORIENTED_EDGE('',*,*,#1049,.F.);
#1049 = EDGE_CURVE('',#1050,#1032,#1052,.T.);
#1050 = VERTEX_POINT('',#1051);
#1051 = CARTESIAN_POINT('',(-3.429011037613E-16,-48.85899457832,-1.4));
#1052 = LINE('',#1053,#1054);
#1053 = CARTESIAN_POINT('',(-3.429011037613E-16,-48.85899457832,-1.4));
#1054 = VECTOR('',#1055,1.);
#1055 = DIRECTION('',(0.,-1.,0.));
#1056 = ORIENTED_EDGE('',*,*,#1057,.T.);
#1057 = EDGE_CURVE('',#1050,#1050,#1058,.T.);
#1058 = CIRCLE('',#1059,1.4);
#1059 = AXIS2_PLACEMENT_3D('',#1060,#1061,#1062);
#1060 = CARTESIAN_POINT('',(0.,-48.85899457832,0.));
#1061 = DIRECTION('',(0.,-1.,0.));
#1062 = DIRECTION('',(0.,-0.,-1.));
#1063 = ORIENTED_EDGE('',*,*,#1049,.T.);
#1064 = CYLINDRICAL_SURFACE('',#1065,1.4);
#1065 = AXIS2_PLACEMENT_3D('',#1066,#1067,#1068);
#1066 = CARTESIAN_POINT('',(0.,-48.85899457832,0.));
#1067 = DIRECTION('',(0.,-1.,0.));
#1068 = DIRECTION('',(0.,-0.,-1.));
#1069 = ADVANCED_FACE('',(#1070),#1073,.T.);
#1070 = FACE_BOUND('',#1071,.F.);
#1071 = EDGE_LOOP('',(#1072));
#1072 = ORIENTED_EDGE('',*,*,#1057,.F.);
#1073 = PLANE('',#1074);
#1074 = AXIS2_PLACEMENT_3D('',#1075,#1076,#1077);
#1075 = CARTESIAN_POINT('',(0.,-48.85899457832,0.));
#1076 = DIRECTION('',(0.,-1.,0.));
#1077 = DIRECTION('',(0.,-0.,-1.));
#1078 = ADVANCED_FACE('',(#1079,#1103),#1171,.T.);
#1079 = FACE_BOUND('',#1080,.T.);
#1080 = EDGE_LOOP('',(#1081,#1082,#1083,#1084,#1085,#1086,#1092,#1093,
    #1094,#1095,#1096,#1097));
#1081 = ORIENTED_EDGE('',*,*,#39,.T.);
#1082 = ORIENTED_EDGE('',*,*,#61,.T.);
#1083 = ORIENTED_EDGE('',*,*,#297,.F.);
#1084 = ORIENTED_EDGE('',*,*,#752,.F.);
#1085 = ORIENTED_EDGE('',*,*,#847,.F.);
#1086 = ORIENTED_EDGE('',*,*,#1087,.T.);
#1087 = EDGE_CURVE('',#833,#864,#1088,.T.);
#1088 = LINE('',#1089,#1090);
#1089 = CARTESIAN_POINT('',(-52.6,54.358994578326,-12.));
#1090 = VECTOR('',#1091,1.);
#1091 = DIRECTION('',(0.,0.,1.));
#1092 = ORIENTED_EDGE('',*,*,#878,.T.);
#1093 = ORIENTED_EDGE('',*,*,#761,.F.);
#1094 = ORIENTED_EDGE('',*,*,#387,.T.);
#1095 = ORIENTED_EDGE('',*,*,#118,.T.);
#1096 = ORIENTED_EDGE('',*,*,#465,.F.);
#1097 = ORIENTED_EDGE('',*,*,#1098,.F.);
#1098 = EDGE_CURVE('',#32,#458,#1099,.T.);
#1099 = LINE('',#1100,#1101);
#1100 = CARTESIAN_POINT('',(65.1,54.358994578326,-22.5));
#1101 = VECTOR('',#1102,1.);
#1102 = DIRECTION('',(0.,0.,1.));
#1103 = FACE_BOUND('',#1104,.T.);
#1104 = EDGE_LOOP('',(#1105,#1115,#1123,#1131,#1140,#1148,#1156,#1164));
#1105 = ORIENTED_EDGE('',*,*,#1106,.T.);
#1106 = EDGE_CURVE('',#1107,#1109,#1111,.T.);
#1107 = VERTEX_POINT('',#1108);
#1108 = CARTESIAN_POINT('',(-3.872983346207,54.358994578326,4.25));
#1109 = VERTEX_POINT('',#1110);
#1110 = CARTESIAN_POINT('',(-23.,54.358994578326,4.25));
#1111 = LINE('',#1112,#1113);
#1112 = CARTESIAN_POINT('',(-37.8,54.358994578326,4.25));
#1113 = VECTOR('',#1114,1.);
#1114 = DIRECTION('',(-1.,0.,-0.));
#1115 = ORIENTED_EDGE('',*,*,#1116,.T.);
#1116 = EDGE_CURVE('',#1109,#1117,#1119,.T.);
#1117 = VERTEX_POINT('',#1118);
#1118 = CARTESIAN_POINT('',(-23.,54.358994578326,-4.25));
#1119 = LINE('',#1120,#1121);
#1120 = CARTESIAN_POINT('',(-23.,54.358994578326,-1.375));
#1121 = VECTOR('',#1122,1.);
#1122 = DIRECTION('',(0.,0.,-1.));
#1123 = ORIENTED_EDGE('',*,*,#1124,.F.);
#1124 = EDGE_CURVE('',#1125,#1117,#1127,.T.);
#1125 = VERTEX_POINT('',#1126);
#1126 = CARTESIAN_POINT('',(-3.872983346207,54.358994578326,-4.25));
#1127 = LINE('',#1128,#1129);
#1128 = CARTESIAN_POINT('',(-37.8,54.358994578326,-4.25));
#1129 = VECTOR('',#1130,1.);
#1130 = DIRECTION('',(-1.,0.,-0.));
#1131 = ORIENTED_EDGE('',*,*,#1132,.F.);
#1132 = EDGE_CURVE('',#1133,#1125,#1135,.T.);
#1133 = VERTEX_POINT('',#1134);
#1134 = CARTESIAN_POINT('',(3.872983346207,54.358994578326,-4.25));
#1135 = CIRCLE('',#1136,5.75);
#1136 = AXIS2_PLACEMENT_3D('',#1137,#1138,#1139);
#1137 = CARTESIAN_POINT('',(0.,54.358994578326,0.));
#1138 = DIRECTION('',(-0.,1.,0.));
#1139 = DIRECTION('',(1.,0.,0.));
#1140 = ORIENTED_EDGE('',*,*,#1141,.F.);
#1141 = EDGE_CURVE('',#1142,#1133,#1144,.T.);
#1142 = VERTEX_POINT('',#1143);
#1143 = CARTESIAN_POINT('',(23.,54.358994578326,-4.25));
#1144 = LINE('',#1145,#1146);
#1145 = CARTESIAN_POINT('',(-37.8,54.358994578326,-4.25));
#1146 = VECTOR('',#1147,1.);
#1147 = DIRECTION('',(-1.,0.,-0.));
#1148 = ORIENTED_EDGE('',*,*,#1149,.F.);
#1149 = EDGE_CURVE('',#1150,#1142,#1152,.T.);
#1150 = VERTEX_POINT('',#1151);
#1151 = CARTESIAN_POINT('',(23.,54.358994578326,4.25));
#1152 = LINE('',#1153,#1154);
#1153 = CARTESIAN_POINT('',(23.,54.358994578326,-1.375));
#1154 = VECTOR('',#1155,1.);
#1155 = DIRECTION('',(0.,0.,-1.));
#1156 = ORIENTED_EDGE('',*,*,#1157,.T.);
#1157 = EDGE_CURVE('',#1150,#1158,#1160,.T.);
#1158 = VERTEX_POINT('',#1159);
#1159 = CARTESIAN_POINT('',(3.872983346207,54.358994578326,4.25));
#1160 = LINE('',#1161,#1162);
#1161 = CARTESIAN_POINT('',(-37.8,54.358994578326,4.25));
#1162 = VECTOR('',#1163,1.);
#1163 = DIRECTION('',(-1.,0.,-0.));
#1164 = ORIENTED_EDGE('',*,*,#1165,.F.);
#1165 = EDGE_CURVE('',#1107,#1158,#1166,.T.);
#1166 = CIRCLE('',#1167,5.75);
#1167 = AXIS2_PLACEMENT_3D('',#1168,#1169,#1170);
#1168 = CARTESIAN_POINT('',(0.,54.358994578326,0.));
#1169 = DIRECTION('',(-0.,1.,0.));
#1170 = DIRECTION('',(1.,0.,0.));
#1171 = PLANE('',#1172);
#1172 = AXIS2_PLACEMENT_3D('',#1173,#1174,#1175);
#1173 = CARTESIAN_POINT('',(9.765769944341,54.358994578327,
    -1.326530612245));
#1174 = DIRECTION('',(0.,1.,0.));
#1175 = DIRECTION('',(0.,-0.,1.));
#1176 = ADVANCED_FACE('',(#1177),#1202,.T.);
#1177 = FACE_BOUND('',#1178,.T.);
#1178 = EDGE_LOOP('',(#1179,#1189,#1195,#1196));
#1179 = ORIENTED_EDGE('',*,*,#1180,.F.);
#1180 = EDGE_CURVE('',#1181,#1183,#1185,.T.);
#1181 = VERTEX_POINT('',#1182);
#1182 = CARTESIAN_POINT('',(-23.,51.858994578326,4.25));
#1183 = VERTEX_POINT('',#1184);
#1184 = CARTESIAN_POINT('',(-3.872983346207,51.858994578326,4.25));
#1185 = LINE('',#1186,#1187);
#1186 = CARTESIAN_POINT('',(-23.,51.858994578326,4.25));
#1187 = VECTOR('',#1188,1.);
#1188 = DIRECTION('',(1.,0.,0.));
#1189 = ORIENTED_EDGE('',*,*,#1190,.T.);
#1190 = EDGE_CURVE('',#1181,#1109,#1191,.T.);
#1191 = LINE('',#1192,#1193);
#1192 = CARTESIAN_POINT('',(-23.,51.858994578326,4.25));
#1193 = VECTOR('',#1194,1.);
#1194 = DIRECTION('',(0.,1.,0.));
#1195 = ORIENTED_EDGE('',*,*,#1106,.F.);
#1196 = ORIENTED_EDGE('',*,*,#1197,.F.);
#1197 = EDGE_CURVE('',#1183,#1107,#1198,.T.);
#1198 = LINE('',#1199,#1200);
#1199 = CARTESIAN_POINT('',(-3.872983346207,51.858994578326,4.25));
#1200 = VECTOR('',#1201,1.);
#1201 = DIRECTION('',(0.,1.,0.));
#1202 = PLANE('',#1203);
#1203 = AXIS2_PLACEMENT_3D('',#1204,#1205,#1206);
#1204 = CARTESIAN_POINT('',(-23.,51.858994578326,4.25));
#1205 = DIRECTION('',(0.,0.,-1.));
#1206 = DIRECTION('',(0.,1.,0.));
#1207 = ADVANCED_FACE('',(#1208),#1227,.F.);
#1208 = FACE_BOUND('',#1209,.F.);
#1209 = EDGE_LOOP('',(#1210,#1219,#1225,#1226));
#1210 = ORIENTED_EDGE('',*,*,#1211,.T.);
#1211 = EDGE_CURVE('',#1183,#1212,#1214,.T.);
#1212 = VERTEX_POINT('',#1213);
#1213 = CARTESIAN_POINT('',(3.872983346208,51.858994578326,4.25));
#1214 = CIRCLE('',#1215,5.75);
#1215 = AXIS2_PLACEMENT_3D('',#1216,#1217,#1218);
#1216 = CARTESIAN_POINT('',(0.,51.858994578326,0.));
#1217 = DIRECTION('',(-0.,1.,0.));
#1218 = DIRECTION('',(1.,0.,0.));
#1219 = ORIENTED_EDGE('',*,*,#1220,.T.);
#1220 = EDGE_CURVE('',#1212,#1158,#1221,.T.);
#1221 = LINE('',#1222,#1223);
#1222 = CARTESIAN_POINT('',(3.872983346207,51.858994578326,4.25));
#1223 = VECTOR('',#1224,1.);
#1224 = DIRECTION('',(0.,1.,0.));
#1225 = ORIENTED_EDGE('',*,*,#1165,.F.);
#1226 = ORIENTED_EDGE('',*,*,#1197,.F.);
#1227 = CYLINDRICAL_SURFACE('',#1228,5.75);
#1228 = AXIS2_PLACEMENT_3D('',#1229,#1230,#1231);
#1229 = CARTESIAN_POINT('',(0.,51.858994578326,0.));
#1230 = DIRECTION('',(0.,1.,0.));
#1231 = DIRECTION('',(1.,0.,0.));
#1232 = ADVANCED_FACE('',(#1233),#1251,.T.);
#1233 = FACE_BOUND('',#1234,.T.);
#1234 = EDGE_LOOP('',(#1235,#1243,#1244,#1245));
#1235 = ORIENTED_EDGE('',*,*,#1236,.F.);
#1236 = EDGE_CURVE('',#1212,#1237,#1239,.T.);
#1237 = VERTEX_POINT('',#1238);
#1238 = CARTESIAN_POINT('',(23.,51.858994578326,4.25));
#1239 = LINE('',#1240,#1241);
#1240 = CARTESIAN_POINT('',(-23.,51.858994578326,4.25));
#1241 = VECTOR('',#1242,1.);
#1242 = DIRECTION('',(1.,0.,0.));
#1243 = ORIENTED_EDGE('',*,*,#1220,.T.);
#1244 = ORIENTED_EDGE('',*,*,#1157,.F.);
#1245 = ORIENTED_EDGE('',*,*,#1246,.F.);
#1246 = EDGE_CURVE('',#1237,#1150,#1247,.T.);
#1247 = LINE('',#1248,#1249);
#1248 = CARTESIAN_POINT('',(23.,51.858994578326,4.25));
#1249 = VECTOR('',#1250,1.);
#1250 = DIRECTION('',(0.,1.,0.));
#1251 = PLANE('',#1252);
#1252 = AXIS2_PLACEMENT_3D('',#1253,#1254,#1255);
#1253 = CARTESIAN_POINT('',(-23.,51.858994578326,4.25));
#1254 = DIRECTION('',(0.,0.,-1.));
#1255 = DIRECTION('',(0.,1.,0.));
#1256 = ADVANCED_FACE('',(#1257),#1275,.F.);
#1257 = FACE_BOUND('',#1258,.F.);
#1258 = EDGE_LOOP('',(#1259,#1260,#1268,#1274));
#1259 = ORIENTED_EDGE('',*,*,#1246,.F.);
#1260 = ORIENTED_EDGE('',*,*,#1261,.T.);
#1261 = EDGE_CURVE('',#1237,#1262,#1264,.T.);
#1262 = VERTEX_POINT('',#1263);
#1263 = CARTESIAN_POINT('',(23.,51.858994578326,-4.25));
#1264 = LINE('',#1265,#1266);
#1265 = CARTESIAN_POINT('',(23.,51.858994578326,4.25));
#1266 = VECTOR('',#1267,1.);
#1267 = DIRECTION('',(0.,0.,-1.));
#1268 = ORIENTED_EDGE('',*,*,#1269,.T.);
#1269 = EDGE_CURVE('',#1262,#1142,#1270,.T.);
#1270 = LINE('',#1271,#1272);
#1271 = CARTESIAN_POINT('',(23.,51.858994578326,-4.25));
#1272 = VECTOR('',#1273,1.);
#1273 = DIRECTION('',(0.,1.,0.));
#1274 = ORIENTED_EDGE('',*,*,#1149,.F.);
#1275 = PLANE('',#1276);
#1276 = AXIS2_PLACEMENT_3D('',#1277,#1278,#1279);
#1277 = CARTESIAN_POINT('',(23.,51.858994578326,4.25));
#1278 = DIRECTION('',(1.,0.,0.));
#1279 = DIRECTION('',(0.,1.,0.));
#1280 = ADVANCED_FACE('',(#1281),#1299,.F.);
#1281 = FACE_BOUND('',#1282,.F.);
#1282 = EDGE_LOOP('',(#1283,#1291,#1297,#1298));
#1283 = ORIENTED_EDGE('',*,*,#1284,.F.);
#1284 = EDGE_CURVE('',#1285,#1262,#1287,.T.);
#1285 = VERTEX_POINT('',#1286);
#1286 = CARTESIAN_POINT('',(3.872983346208,51.858994578326,-4.25));
#1287 = LINE('',#1288,#1289);
#1288 = CARTESIAN_POINT('',(-23.,51.858994578326,-4.25));
#1289 = VECTOR('',#1290,1.);
#1290 = DIRECTION('',(1.,0.,0.));
#1291 = ORIENTED_EDGE('',*,*,#1292,.T.);
#1292 = EDGE_CURVE('',#1285,#1133,#1293,.T.);
#1293 = LINE('',#1294,#1295);
#1294 = CARTESIAN_POINT('',(3.872983346207,51.858994578326,-4.25));
#1295 = VECTOR('',#1296,1.);
#1296 = DIRECTION('',(0.,1.,0.));
#1297 = ORIENTED_EDGE('',*,*,#1141,.F.);
#1298 = ORIENTED_EDGE('',*,*,#1269,.F.);
#1299 = PLANE('',#1300);
#1300 = AXIS2_PLACEMENT_3D('',#1301,#1302,#1303);
#1301 = CARTESIAN_POINT('',(-23.,51.858994578326,-4.25));
#1302 = DIRECTION('',(0.,0.,-1.));
#1303 = DIRECTION('',(0.,1.,0.));
#1304 = ADVANCED_FACE('',(#1305),#1324,.F.);
#1305 = FACE_BOUND('',#1306,.F.);
#1306 = EDGE_LOOP('',(#1307,#1308,#1309,#1318));
#1307 = ORIENTED_EDGE('',*,*,#1132,.F.);
#1308 = ORIENTED_EDGE('',*,*,#1292,.F.);
#1309 = ORIENTED_EDGE('',*,*,#1310,.T.);
#1310 = EDGE_CURVE('',#1285,#1311,#1313,.T.);
#1311 = VERTEX_POINT('',#1312);
#1312 = CARTESIAN_POINT('',(-3.872983346207,51.858994578326,-4.25));
#1313 = CIRCLE('',#1314,5.75);
#1314 = AXIS2_PLACEMENT_3D('',#1315,#1316,#1317);
#1315 = CARTESIAN_POINT('',(0.,51.858994578326,0.));
#1316 = DIRECTION('',(-0.,1.,0.));
#1317 = DIRECTION('',(1.,0.,0.));
#1318 = ORIENTED_EDGE('',*,*,#1319,.T.);
#1319 = EDGE_CURVE('',#1311,#1125,#1320,.T.);
#1320 = LINE('',#1321,#1322);
#1321 = CARTESIAN_POINT('',(-3.872983346207,51.858994578326,-4.25));
#1322 = VECTOR('',#1323,1.);
#1323 = DIRECTION('',(0.,1.,0.));
#1324 = CYLINDRICAL_SURFACE('',#1325,5.75);
#1325 = AXIS2_PLACEMENT_3D('',#1326,#1327,#1328);
#1326 = CARTESIAN_POINT('',(0.,51.858994578326,0.));
#1327 = DIRECTION('',(0.,1.,0.));
#1328 = DIRECTION('',(1.,0.,0.));
#1329 = ADVANCED_FACE('',(#1330),#1348,.F.);
#1330 = FACE_BOUND('',#1331,.F.);
#1331 = EDGE_LOOP('',(#1332,#1340,#1346,#1347));
#1332 = ORIENTED_EDGE('',*,*,#1333,.F.);
#1333 = EDGE_CURVE('',#1334,#1311,#1336,.T.);
#1334 = VERTEX_POINT('',#1335);
#1335 = CARTESIAN_POINT('',(-23.,51.858994578326,-4.25));
#1336 = LINE('',#1337,#1338);
#1337 = CARTESIAN_POINT('',(-23.,51.858994578326,-4.25));
#1338 = VECTOR('',#1339,1.);
#1339 = DIRECTION('',(1.,0.,0.));
#1340 = ORIENTED_EDGE('',*,*,#1341,.T.);
#1341 = EDGE_CURVE('',#1334,#1117,#1342,.T.);
#1342 = LINE('',#1343,#1344);
#1343 = CARTESIAN_POINT('',(-23.,51.858994578326,-4.25));
#1344 = VECTOR('',#1345,1.);
#1345 = DIRECTION('',(0.,1.,0.));
#1346 = ORIENTED_EDGE('',*,*,#1124,.F.);
#1347 = ORIENTED_EDGE('',*,*,#1319,.F.);
#1348 = PLANE('',#1349);
#1349 = AXIS2_PLACEMENT_3D('',#1350,#1351,#1352);
#1350 = CARTESIAN_POINT('',(-23.,51.858994578326,-4.25));
#1351 = DIRECTION('',(0.,0.,-1.));
#1352 = DIRECTION('',(0.,1.,0.));
#1353 = ADVANCED_FACE('',(#1354),#1365,.T.);
#1354 = FACE_BOUND('',#1355,.T.);
#1355 = EDGE_LOOP('',(#1356,#1357,#1363,#1364));
#1356 = ORIENTED_EDGE('',*,*,#1190,.F.);
#1357 = ORIENTED_EDGE('',*,*,#1358,.T.);
#1358 = EDGE_CURVE('',#1181,#1334,#1359,.T.);
#1359 = LINE('',#1360,#1361);
#1360 = CARTESIAN_POINT('',(-23.,51.858994578326,4.25));
#1361 = VECTOR('',#1362,1.);
#1362 = DIRECTION('',(0.,0.,-1.));
#1363 = ORIENTED_EDGE('',*,*,#1341,.T.);
#1364 = ORIENTED_EDGE('',*,*,#1116,.F.);
#1365 = PLANE('',#1366);
#1366 = AXIS2_PLACEMENT_3D('',#1367,#1368,#1369);
#1367 = CARTESIAN_POINT('',(-23.,51.858994578326,4.25));
#1368 = DIRECTION('',(1.,0.,0.));
#1369 = DIRECTION('',(0.,1.,0.));
#1370 = ADVANCED_FACE('',(#1371,#1377,#1383,#1404),#1425,.F.);
#1371 = FACE_BOUND('',#1372,.T.);
#1372 = EDGE_LOOP('',(#1373,#1374,#1375,#1376));
#1373 = ORIENTED_EDGE('',*,*,#1098,.T.);
#1374 = ORIENTED_EDGE('',*,*,#457,.F.);
#1375 = ORIENTED_EDGE('',*,*,#962,.F.);
#1376 = ORIENTED_EDGE('',*,*,#31,.T.);
#1377 = FACE_BOUND('',#1378,.F.);
#1378 = EDGE_LOOP('',(#1379,#1380,#1381,#1382));
#1379 = ORIENTED_EDGE('',*,*,#640,.T.);
#1380 = ORIENTED_EDGE('',*,*,#616,.F.);
#1381 = ORIENTED_EDGE('',*,*,#592,.F.);
#1382 = ORIENTED_EDGE('',*,*,#568,.T.);
#1383 = FACE_BOUND('',#1384,.F.);
#1384 = EDGE_LOOP('',(#1385,#1394,#1395,#1396,#1397));
#1385 = ORIENTED_EDGE('',*,*,#1386,.F.);
#1386 = EDGE_CURVE('',#537,#1387,#1389,.T.);
#1387 = VERTEX_POINT('',#1388);
#1388 = CARTESIAN_POINT('',(65.1,-2.081899558551E-16,-18.4));
#1389 = CIRCLE('',#1390,0.85);
#1390 = AXIS2_PLACEMENT_3D('',#1391,#1392,#1393);
#1391 = CARTESIAN_POINT('',(65.1,0.,-19.25));
#1392 = DIRECTION('',(-1.,0.,0.));
#1393 = DIRECTION('',(0.,0.,1.));
#1394 = ORIENTED_EDGE('',*,*,#536,.T.);
#1395 = ORIENTED_EDGE('',*,*,#513,.F.);
#1396 = ORIENTED_EDGE('',*,*,#480,.F.);
#1397 = ORIENTED_EDGE('',*,*,#1398,.F.);
#1398 = EDGE_CURVE('',#1387,#481,#1399,.T.);
#1399 = CIRCLE('',#1400,0.85);
#1400 = AXIS2_PLACEMENT_3D('',#1401,#1402,#1403);
#1401 = CARTESIAN_POINT('',(65.1,0.,-19.25));
#1402 = DIRECTION('',(-1.,0.,0.));
#1403 = DIRECTION('',(0.,0.,1.));
#1404 = FACE_BOUND('',#1405,.F.);
#1405 = EDGE_LOOP('',(#1406,#1407,#1416,#1423,#1424));
#1406 = ORIENTED_EDGE('',*,*,#712,.F.);
#1407 = ORIENTED_EDGE('',*,*,#1408,.F.);
#1408 = EDGE_CURVE('',#1409,#713,#1411,.T.);
#1409 = VERTEX_POINT('',#1410);
#1410 = CARTESIAN_POINT('',(65.1,-2.081899558551E-16,9.35));
#1411 = CIRCLE('',#1412,0.85);
#1412 = AXIS2_PLACEMENT_3D('',#1413,#1414,#1415);
#1413 = CARTESIAN_POINT('',(65.1,0.,8.5));
#1414 = DIRECTION('',(-1.,0.,0.));
#1415 = DIRECTION('',(0.,0.,1.));
#1416 = ORIENTED_EDGE('',*,*,#1417,.F.);
#1417 = EDGE_CURVE('',#689,#1409,#1418,.T.);
#1418 = CIRCLE('',#1419,0.85);
#1419 = AXIS2_PLACEMENT_3D('',#1420,#1421,#1422);
#1420 = CARTESIAN_POINT('',(65.1,0.,8.5));
#1421 = DIRECTION('',(-1.,0.,0.));
#1422 = DIRECTION('',(0.,0.,1.));
#1423 = ORIENTED_EDGE('',*,*,#688,.T.);
#1424 = ORIENTED_EDGE('',*,*,#665,.F.);
#1425 = PLANE('',#1426);
#1426 = AXIS2_PLACEMENT_3D('',#1427,#1428,#1429);
#1427 = CARTESIAN_POINT('',(65.1,-54.35899457832,-22.5));
#1428 = DIRECTION('',(-1.,0.,0.));
#1429 = DIRECTION('',(0.,0.,1.));
#1430 = ADVANCED_FACE('',(#1431,#1441),#1444,.T.);
#1431 = FACE_BOUND('',#1432,.T.);
#1432 = EDGE_LOOP('',(#1433,#1434,#1435,#1436,#1437,#1438,#1439,#1440));
#1433 = ORIENTED_EDGE('',*,*,#1310,.T.);
#1434 = ORIENTED_EDGE('',*,*,#1333,.F.);
#1435 = ORIENTED_EDGE('',*,*,#1358,.F.);
#1436 = ORIENTED_EDGE('',*,*,#1180,.T.);
#1437 = ORIENTED_EDGE('',*,*,#1211,.T.);
#1438 = ORIENTED_EDGE('',*,*,#1236,.T.);
#1439 = ORIENTED_EDGE('',*,*,#1261,.T.);
#1440 = ORIENTED_EDGE('',*,*,#1284,.F.);
#1441 = FACE_BOUND('',#1442,.T.);
#1442 = EDGE_LOOP('',(#1443));
#1443 = ORIENTED_EDGE('',*,*,#813,.F.);
#1444 = PLANE('',#1445);
#1445 = AXIS2_PLACEMENT_3D('',#1446,#1447,#1448);
#1446 = CARTESIAN_POINT('',(1.287984046625E-15,51.858994578327,
    2.57596809325E-16));
#1447 = DIRECTION('',(0.,1.,0.));
#1448 = DIRECTION('',(0.,-0.,1.));
#1449 = ADVANCED_FACE('',(#1450,#1456),#1459,.F.);
#1450 = FACE_BOUND('',#1451,.T.);
#1451 = EDGE_LOOP('',(#1452,#1453,#1454,#1455));
#1452 = ORIENTED_EDGE('',*,*,#973,.T.);
#1453 = ORIENTED_EDGE('',*,*,#861,.T.);
#1454 = ORIENTED_EDGE('',*,*,#1087,.F.);
#1455 = ORIENTED_EDGE('',*,*,#830,.F.);
#1456 = FACE_BOUND('',#1457,.F.);
#1457 = EDGE_LOOP('',(#1458));
#1458 = ORIENTED_EDGE('',*,*,#937,.T.);
#1459 = PLANE('',#1460);
#1460 = AXIS2_PLACEMENT_3D('',#1461,#1462,#1463);
#1461 = CARTESIAN_POINT('',(-52.6,-54.35899457832,-12.));
#1462 = DIRECTION('',(1.,0.,-0.));
#1463 = DIRECTION('',(0.,0.,1.));
#1464 = ADVANCED_FACE('',(#1465),#1473,.F.);
#1465 = FACE_BOUND('',#1466,.F.);
#1466 = EDGE_LOOP('',(#1467,#1468,#1469,#1470,#1471,#1472));
#1467 = ORIENTED_EDGE('',*,*,#546,.F.);
#1468 = ORIENTED_EDGE('',*,*,#1386,.T.);
#1469 = ORIENTED_EDGE('',*,*,#1398,.T.);
#1470 = ORIENTED_EDGE('',*,*,#497,.T.);
#1471 = ORIENTED_EDGE('',*,*,#150,.F.);
#1472 = ORIENTED_EDGE('',*,*,#161,.F.);
#1473 = CYLINDRICAL_SURFACE('',#1474,0.85);
#1474 = AXIS2_PLACEMENT_3D('',#1475,#1476,#1477);
#1475 = CARTESIAN_POINT('',(66.1,0.,-19.25));
#1476 = DIRECTION('',(-1.,0.,0.));
#1477 = DIRECTION('',(0.,0.,1.));
#1478 = ADVANCED_FACE('',(#1479),#1487,.F.);
#1479 = FACE_BOUND('',#1480,.F.);
#1480 = EDGE_LOOP('',(#1481,#1482,#1483,#1484,#1485,#1486));
#1481 = ORIENTED_EDGE('',*,*,#722,.T.);
#1482 = ORIENTED_EDGE('',*,*,#248,.F.);
#1483 = ORIENTED_EDGE('',*,*,#257,.F.);
#1484 = ORIENTED_EDGE('',*,*,#698,.F.);
#1485 = ORIENTED_EDGE('',*,*,#1417,.T.);
#1486 = ORIENTED_EDGE('',*,*,#1408,.T.);
#1487 = CYLINDRICAL_SURFACE('',#1488,0.85);
#1488 = AXIS2_PLACEMENT_3D('',#1489,#1490,#1491);
#1489 = CARTESIAN_POINT('',(66.1,0.,8.5));
#1490 = DIRECTION('',(-1.,0.,0.));
#1491 = DIRECTION('',(0.,0.,1.));
#1492 = ( GEOMETRIC_REPRESENTATION_CONTEXT(3) 
GLOBAL_UNCERTAINTY_ASSIGNED_CONTEXT((#1496)) 
GLOBAL_UNIT_ASSIGNED_CONTEXT((#1493,#1494,#1495)) REPRESENTATION_CONTEXT
('Context #1','3D Context with UNIT and UNCERTAINTY') );
#1493 = ( LENGTH_UNIT() NAMED_UNIT(*) SI_UNIT(.MILLI.,.METRE.) );
#1494 = ( NAMED_UNIT(*) PLANE_ANGLE_UNIT() SI_UNIT($,.RADIAN.) );
#1495 = ( NAMED_UNIT(*) SI_UNIT($,.STERADIAN.) SOLID_ANGLE_UNIT() );
#1496 = UNCERTAINTY_MEASURE_WITH_UNIT(LENGTH_MEASURE(1.E-07),#1493,
  'distance_accuracy_value','confusion accuracy');
#1497 = PRODUCT_RELATED_PRODUCT_CATEGORY('part',$,(#7));
ENDSEC;
END-ISO-10303-21;
