ISO-10303-21;
HEADER;
FILE_DESCRIPTION(('FreeCAD Model'),'2;1');
FILE_NAME('Open CASCADE Shape Model','2026-10-10T20:49:02',('FreeCAD'),(
    'FreeCAD'),'Open CASCADE STEP processor 7.8','FreeCAD','Unknown');
FILE_SCHEMA(('AUTOMOTIVE_DESIGN { 1 0 10303 214 1 1 1 1 }'));
ENDSEC;
DATA;
#1 = APPLICATION_PROTOCOL_DEFINITION('international standard',
  'automotive_design',2000,#2);
#2 = APPLICATION_CONTEXT(
  'core data for automotive mechanical design processes');
#3 = SHAPE_DEFINITION_REPRESENTATION(#4,#10);
#4 = PRODUCT_DEFINITION_SHAPE('','',#5);
#5 = PRODUCT_DEFINITION('design','',#6,#9);
#6 = PRODUCT_DEFINITION_FORMATION('','',#7);
#7 = PRODUCT('Open CASCADE STEP translator 7.8 6',
  'Open CASCADE STEP translator 7.8 6','',(#8));
#8 = PRODUCT_CONTEXT('',#2,'mechanical');
#9 = PRODUCT_DEFINITION_CONTEXT('part definition',#2,'design');
#10 = ADVANCED_BREP_SHAPE_REPRESENTATION('',(#11,#15),#1849);
#11 = AXIS2_PLACEMENT_3D('',#12,#13,#14);
#12 = CARTESIAN_POINT('',(0.,0.,0.));
#13 = DIRECTION('',(0.,0.,1.));
#14 = DIRECTION('',(1.,0.,-0.));
#15 = MANIFOLD_SOLID_BREP('',#16);
#16 = CLOSED_SHELL('',(#17,#57,#88,#124,#148,#225,#250,#293,#317,#341,
    #688,#705,#730,#761,#785,#809,#833,#857,#881,#905,#929,#953,#977,
    #1001,#1025,#1049,#1073,#1097,#1121,#1145,#1169,#1193,#1217,#1241,
    #1265,#1289,#1313,#1337,#1361,#1385,#1409,#1433,#1457,#1481,#1505,
    #1529,#1553,#1577,#1601,#1625,#1649,#1673,#1697,#1721,#1738,#1799,
    #1824));
#17 = ADVANCED_FACE('',(#18),#52,.F.);
#18 = FACE_BOUND('',#19,.F.);
#19 = EDGE_LOOP('',(#20,#30,#38,#46));
#20 = ORIENTED_EDGE('',*,*,#21,.F.);
#21 = EDGE_CURVE('',#22,#24,#26,.T.);
#22 = VERTEX_POINT('',#23);
#23 = CARTESIAN_POINT('',(-17.85,-3.35,0.));
#24 = VERTEX_POINT('',#25);
#25 = CARTESIAN_POINT('',(-17.85,-3.35,2.));
#26 = LINE('',#27,#28);
#27 = CARTESIAN_POINT('',(-17.85,-3.35,0.));
#28 = VECTOR('',#29,1.);
#29 = DIRECTION('',(0.,0.,1.));
#30 = ORIENTED_EDGE('',*,*,#31,.T.);
#31 = EDGE_CURVE('',#22,#32,#34,.T.);
#32 = VERTEX_POINT('',#33);
#33 = CARTESIAN_POINT('',(-17.85,3.35,0.));
#34 = LINE('',#35,#36);
#35 = CARTESIAN_POINT('',(-17.85,-3.35,0.));
#36 = VECTOR('',#37,1.);
#37 = DIRECTION('',(-0.,1.,0.));
#38 = ORIENTED_EDGE('',*,*,#39,.T.);
#39 = EDGE_CURVE('',#32,#40,#42,.T.);
#40 = VERTEX_POINT('',#41);
#41 = CARTESIAN_POINT('',(-17.85,3.35,2.));
#42 = LINE('',#43,#44);
#43 = CARTESIAN_POINT('',(-17.85,3.35,0.));
#44 = VECTOR('',#45,1.);
#45 = DIRECTION('',(0.,0.,1.));
#46 = ORIENTED_EDGE('',*,*,#47,.F.);
#47 = EDGE_CURVE('',#24,#40,#48,.T.);
#48 = LINE('',#49,#50);
#49 = CARTESIAN_POINT('',(-17.85,-3.35,2.));
#50 = VECTOR('',#51,1.);
#51 = DIRECTION('',(-0.,1.,0.));
#52 = PLANE('',#53);
#53 = AXIS2_PLACEMENT_3D('',#54,#55,#56);
#54 = CARTESIAN_POINT('',(-17.85,-3.35,0.));
#55 = DIRECTION('',(1.,0.,-0.));
#56 = DIRECTION('',(0.,0.,1.));
#57 = ADVANCED_FACE('',(#58),#83,.F.);
#58 = FACE_BOUND('',#59,.F.);
#59 = EDGE_LOOP('',(#60,#68,#69,#77));
#60 = ORIENTED_EDGE('',*,*,#61,.F.);
#61 = EDGE_CURVE('',#22,#62,#64,.T.);
#62 = VERTEX_POINT('',#63);
#63 = CARTESIAN_POINT('',(-3.50713558335,-3.35,0.));
#64 = LINE('',#65,#66);
#65 = CARTESIAN_POINT('',(-17.85,-3.35,0.));
#66 = VECTOR('',#67,1.);
#67 = DIRECTION('',(1.,0.,-0.));
#68 = ORIENTED_EDGE('',*,*,#21,.T.);
#69 = ORIENTED_EDGE('',*,*,#70,.T.);
#70 = EDGE_CURVE('',#24,#71,#73,.T.);
#71 = VERTEX_POINT('',#72);
#72 = CARTESIAN_POINT('',(-3.50713558335,-3.35,2.));
#73 = LINE('',#74,#75);
#74 = CARTESIAN_POINT('',(-17.85,-3.35,2.));
#75 = VECTOR('',#76,1.);
#76 = DIRECTION('',(1.,0.,-0.));
#77 = ORIENTED_EDGE('',*,*,#78,.F.);
#78 = EDGE_CURVE('',#62,#71,#79,.T.);
#79 = LINE('',#80,#81);
#80 = CARTESIAN_POINT('',(-3.50713558335,-3.35,0.));
#81 = VECTOR('',#82,1.);
#82 = DIRECTION('',(0.,0.,1.));
#83 = PLANE('',#84);
#84 = AXIS2_PLACEMENT_3D('',#85,#86,#87);
#85 = CARTESIAN_POINT('',(-17.85,-3.35,0.));
#86 = DIRECTION('',(-0.,1.,0.));
#87 = DIRECTION('',(0.,0.,1.));
#88 = ADVANCED_FACE('',(#89,#108),#119,.T.);
#89 = FACE_BOUND('',#90,.T.);
#90 = EDGE_LOOP('',(#91,#99,#100,#101));
#91 = ORIENTED_EDGE('',*,*,#92,.F.);
#92 = EDGE_CURVE('',#40,#93,#95,.T.);
#93 = VERTEX_POINT('',#94);
#94 = CARTESIAN_POINT('',(-3.50713558335,3.35,2.));
#95 = LINE('',#96,#97);
#96 = CARTESIAN_POINT('',(-17.85,3.35,2.));
#97 = VECTOR('',#98,1.);
#98 = DIRECTION('',(1.,0.,-0.));
#99 = ORIENTED_EDGE('',*,*,#47,.F.);
#100 = ORIENTED_EDGE('',*,*,#70,.T.);
#101 = ORIENTED_EDGE('',*,*,#102,.F.);
#102 = EDGE_CURVE('',#93,#71,#103,.T.);
#103 = CIRCLE('',#104,4.85);
#104 = AXIS2_PLACEMENT_3D('',#105,#106,#107);
#105 = CARTESIAN_POINT('',(0.,0.,2.));
#106 = DIRECTION('',(0.,0.,1.));
#107 = DIRECTION('',(1.,0.,-0.));
#108 = FACE_BOUND('',#109,.T.);
#109 = EDGE_LOOP('',(#110));
#110 = ORIENTED_EDGE('',*,*,#111,.F.);
#111 = EDGE_CURVE('',#112,#112,#114,.T.);
#112 = VERTEX_POINT('',#113);
#113 = CARTESIAN_POINT('',(-13.4,-2.694222958124E-16,2.));
#114 = CIRCLE('',#115,1.1);
#115 = AXIS2_PLACEMENT_3D('',#116,#117,#118);
#116 = CARTESIAN_POINT('',(-14.5,0.,2.));
#117 = DIRECTION('',(0.,0.,1.));
#118 = DIRECTION('',(1.,0.,-0.));
#119 = PLANE('',#120);
#120 = AXIS2_PLACEMENT_3D('',#121,#122,#123);
#121 = CARTESIAN_POINT('',(-17.85,-3.35,2.));
#122 = DIRECTION('',(0.,0.,1.));
#123 = DIRECTION('',(1.,0.,-0.));
#124 = ADVANCED_FACE('',(#125),#143,.T.);
#125 = FACE_BOUND('',#126,.T.);
#126 = EDGE_LOOP('',(#127,#135,#136,#137));
#127 = ORIENTED_EDGE('',*,*,#128,.F.);
#128 = EDGE_CURVE('',#32,#129,#131,.T.);
#129 = VERTEX_POINT('',#130);
#130 = CARTESIAN_POINT('',(-3.50713558335,3.35,0.));
#131 = LINE('',#132,#133);
#132 = CARTESIAN_POINT('',(-17.85,3.35,0.));
#133 = VECTOR('',#134,1.);
#134 = DIRECTION('',(1.,0.,-0.));
#135 = ORIENTED_EDGE('',*,*,#39,.T.);
#136 = ORIENTED_EDGE('',*,*,#92,.T.);
#137 = ORIENTED_EDGE('',*,*,#138,.F.);
#138 = EDGE_CURVE('',#129,#93,#139,.T.);
#139 = LINE('',#140,#141);
#140 = CARTESIAN_POINT('',(-3.50713558335,3.35,0.));
#141 = VECTOR('',#142,1.);
#142 = DIRECTION('',(0.,0.,1.));
#143 = PLANE('',#144);
#144 = AXIS2_PLACEMENT_3D('',#145,#146,#147);
#145 = CARTESIAN_POINT('',(-17.85,3.35,0.));
#146 = DIRECTION('',(-0.,1.,0.));
#147 = DIRECTION('',(0.,0.,1.));
#148 = ADVANCED_FACE('',(#149),#220,.T.);
#149 = FACE_BOUND('',#150,.T.);
#150 = EDGE_LOOP('',(#151,#161,#168,#169,#178,#186,#193,#194,#195,#196,
    #205,#213));
#151 = ORIENTED_EDGE('',*,*,#152,.T.);
#152 = EDGE_CURVE('',#153,#155,#157,.T.);
#153 = VERTEX_POINT('',#154);
#154 = CARTESIAN_POINT('',(4.85,-1.187907395173E-15,2.));
#155 = VERTEX_POINT('',#156);
#156 = CARTESIAN_POINT('',(4.85,-1.187907395173E-15,8.));
#157 = LINE('',#158,#159);
#158 = CARTESIAN_POINT('',(4.85,-1.187907395173E-15,0.));
#159 = VECTOR('',#160,1.);
#160 = DIRECTION('',(0.,0.,1.));
#161 = ORIENTED_EDGE('',*,*,#162,.F.);
#162 = EDGE_CURVE('',#155,#155,#163,.T.);
#163 = CIRCLE('',#164,4.85);
#164 = AXIS2_PLACEMENT_3D('',#165,#166,#167);
#165 = CARTESIAN_POINT('',(0.,0.,8.));
#166 = DIRECTION('',(0.,0.,1.));
#167 = DIRECTION('',(1.,0.,-0.));
#168 = ORIENTED_EDGE('',*,*,#152,.F.);
#169 = ORIENTED_EDGE('',*,*,#170,.T.);
#170 = EDGE_CURVE('',#153,#171,#173,.T.);
#171 = VERTEX_POINT('',#172);
#172 = CARTESIAN_POINT('',(3.50713558335,3.35,2.));
#173 = CIRCLE('',#174,4.85);
#174 = AXIS2_PLACEMENT_3D('',#175,#176,#177);
#175 = CARTESIAN_POINT('',(0.,0.,2.));
#176 = DIRECTION('',(0.,0.,1.));
#177 = DIRECTION('',(1.,0.,-0.));
#178 = ORIENTED_EDGE('',*,*,#179,.F.);
#179 = EDGE_CURVE('',#180,#171,#182,.T.);
#180 = VERTEX_POINT('',#181);
#181 = CARTESIAN_POINT('',(3.50713558335,3.35,0.));
#182 = LINE('',#183,#184);
#183 = CARTESIAN_POINT('',(3.50713558335,3.35,0.));
#184 = VECTOR('',#185,1.);
#185 = DIRECTION('',(0.,0.,1.));
#186 = ORIENTED_EDGE('',*,*,#187,.T.);
#187 = EDGE_CURVE('',#180,#129,#188,.T.);
#188 = CIRCLE('',#189,4.85);
#189 = AXIS2_PLACEMENT_3D('',#190,#191,#192);
#190 = CARTESIAN_POINT('',(0.,0.,0.));
#191 = DIRECTION('',(0.,0.,1.));
#192 = DIRECTION('',(1.,0.,-0.));
#193 = ORIENTED_EDGE('',*,*,#138,.T.);
#194 = ORIENTED_EDGE('',*,*,#102,.T.);
#195 = ORIENTED_EDGE('',*,*,#78,.F.);
#196 = ORIENTED_EDGE('',*,*,#197,.T.);
#197 = EDGE_CURVE('',#62,#198,#200,.T.);
#198 = VERTEX_POINT('',#199);
#199 = CARTESIAN_POINT('',(3.50713558335,-3.35,0.));
#200 = CIRCLE('',#201,4.85);
#201 = AXIS2_PLACEMENT_3D('',#202,#203,#204);
#202 = CARTESIAN_POINT('',(0.,0.,0.));
#203 = DIRECTION('',(0.,0.,1.));
#204 = DIRECTION('',(1.,0.,-0.));
#205 = ORIENTED_EDGE('',*,*,#206,.T.);
#206 = EDGE_CURVE('',#198,#207,#209,.T.);
#207 = VERTEX_POINT('',#208);
#208 = CARTESIAN_POINT('',(3.50713558335,-3.35,2.));
#209 = LINE('',#210,#211);
#210 = CARTESIAN_POINT('',(3.50713558335,-3.35,0.));
#211 = VECTOR('',#212,1.);
#212 = DIRECTION('',(0.,0.,1.));
#213 = ORIENTED_EDGE('',*,*,#214,.T.);
#214 = EDGE_CURVE('',#207,#153,#215,.T.);
#215 = CIRCLE('',#216,4.85);
#216 = AXIS2_PLACEMENT_3D('',#217,#218,#219);
#217 = CARTESIAN_POINT('',(0.,0.,2.));
#218 = DIRECTION('',(0.,0.,1.));
#219 = DIRECTION('',(1.,0.,-0.));
#220 = CYLINDRICAL_SURFACE('',#221,4.85);
#221 = AXIS2_PLACEMENT_3D('',#222,#223,#224);
#222 = CARTESIAN_POINT('',(0.,0.,0.));
#223 = DIRECTION('',(0.,0.,1.));
#224 = DIRECTION('',(1.,0.,-0.));
#225 = ADVANCED_FACE('',(#226),#245,.F.);
#226 = FACE_BOUND('',#227,.F.);
#227 = EDGE_LOOP('',(#228,#229,#237,#244));
#228 = ORIENTED_EDGE('',*,*,#111,.F.);
#229 = ORIENTED_EDGE('',*,*,#230,.F.);
#230 = EDGE_CURVE('',#231,#112,#233,.T.);
#231 = VERTEX_POINT('',#232);
#232 = CARTESIAN_POINT('',(-13.4,-2.694222958124E-16,0.));
#233 = LINE('',#234,#235);
#234 = CARTESIAN_POINT('',(-13.4,-2.694222958124E-16,-1.));
#235 = VECTOR('',#236,1.);
#236 = DIRECTION('',(0.,0.,1.));
#237 = ORIENTED_EDGE('',*,*,#238,.T.);
#238 = EDGE_CURVE('',#231,#231,#239,.T.);
#239 = CIRCLE('',#240,1.1);
#240 = AXIS2_PLACEMENT_3D('',#241,#242,#243);
#241 = CARTESIAN_POINT('',(-14.5,0.,0.));
#242 = DIRECTION('',(0.,0.,1.));
#243 = DIRECTION('',(1.,0.,-0.));
#244 = ORIENTED_EDGE('',*,*,#230,.T.);
#245 = CYLINDRICAL_SURFACE('',#246,1.1);
#246 = AXIS2_PLACEMENT_3D('',#247,#248,#249);
#247 = CARTESIAN_POINT('',(-14.5,0.,-1.));
#248 = DIRECTION('',(0.,0.,1.));
#249 = DIRECTION('',(1.,0.,-0.));
#250 = ADVANCED_FACE('',(#251,#277),#288,.T.);
#251 = FACE_BOUND('',#252,.T.);
#252 = EDGE_LOOP('',(#253,#261,#262,#263,#271));
#253 = ORIENTED_EDGE('',*,*,#254,.F.);
#254 = EDGE_CURVE('',#171,#255,#257,.T.);
#255 = VERTEX_POINT('',#256);
#256 = CARTESIAN_POINT('',(17.85,3.35,2.));
#257 = LINE('',#258,#259);
#258 = CARTESIAN_POINT('',(-17.85,3.35,2.));
#259 = VECTOR('',#260,1.);
#260 = DIRECTION('',(1.,0.,-0.));
#261 = ORIENTED_EDGE('',*,*,#170,.F.);
#262 = ORIENTED_EDGE('',*,*,#214,.F.);
#263 = ORIENTED_EDGE('',*,*,#264,.T.);
#264 = EDGE_CURVE('',#207,#265,#267,.T.);
#265 = VERTEX_POINT('',#266);
#266 = CARTESIAN_POINT('',(17.85,-3.35,2.));
#267 = LINE('',#268,#269);
#268 = CARTESIAN_POINT('',(-17.85,-3.35,2.));
#269 = VECTOR('',#270,1.);
#270 = DIRECTION('',(1.,0.,-0.));
#271 = ORIENTED_EDGE('',*,*,#272,.T.);
#272 = EDGE_CURVE('',#265,#255,#273,.T.);
#273 = LINE('',#274,#275);
#274 = CARTESIAN_POINT('',(17.85,-3.35,2.));
#275 = VECTOR('',#276,1.);
#276 = DIRECTION('',(-0.,1.,0.));
#277 = FACE_BOUND('',#278,.T.);
#278 = EDGE_LOOP('',(#279));
#279 = ORIENTED_EDGE('',*,*,#280,.F.);
#280 = EDGE_CURVE('',#281,#281,#283,.T.);
#281 = VERTEX_POINT('',#282);
#282 = CARTESIAN_POINT('',(15.6,-2.694222958124E-16,2.));
#283 = CIRCLE('',#284,1.1);
#284 = AXIS2_PLACEMENT_3D('',#285,#286,#287);
#285 = CARTESIAN_POINT('',(14.5,0.,2.));
#286 = DIRECTION('',(0.,0.,1.));
#287 = DIRECTION('',(1.,0.,-0.));
#288 = PLANE('',#289);
#289 = AXIS2_PLACEMENT_3D('',#290,#291,#292);
#290 = CARTESIAN_POINT('',(-17.85,-3.35,2.));
#291 = DIRECTION('',(0.,0.,1.));
#292 = DIRECTION('',(1.,0.,-0.));
#293 = ADVANCED_FACE('',(#294),#312,.F.);
#294 = FACE_BOUND('',#295,.F.);
#295 = EDGE_LOOP('',(#296,#304,#305,#306));
#296 = ORIENTED_EDGE('',*,*,#297,.F.);
#297 = EDGE_CURVE('',#198,#298,#300,.T.);
#298 = VERTEX_POINT('',#299);
#299 = CARTESIAN_POINT('',(17.85,-3.35,0.));
#300 = LINE('',#301,#302);
#301 = CARTESIAN_POINT('',(-17.85,-3.35,0.));
#302 = VECTOR('',#303,1.);
#303 = DIRECTION('',(1.,0.,-0.));
#304 = ORIENTED_EDGE('',*,*,#206,.T.);
#305 = ORIENTED_EDGE('',*,*,#264,.T.);
#306 = ORIENTED_EDGE('',*,*,#307,.F.);
#307 = EDGE_CURVE('',#298,#265,#308,.T.);
#308 = LINE('',#309,#310);
#309 = CARTESIAN_POINT('',(17.85,-3.35,0.));
#310 = VECTOR('',#311,1.);
#311 = DIRECTION('',(0.,0.,1.));
#312 = PLANE('',#313);
#313 = AXIS2_PLACEMENT_3D('',#314,#315,#316);
#314 = CARTESIAN_POINT('',(-17.85,-3.35,0.));
#315 = DIRECTION('',(-0.,1.,0.));
#316 = DIRECTION('',(0.,0.,1.));
#317 = ADVANCED_FACE('',(#318),#336,.T.);
#318 = FACE_BOUND('',#319,.T.);
#319 = EDGE_LOOP('',(#320,#328,#329,#330));
#320 = ORIENTED_EDGE('',*,*,#321,.F.);
#321 = EDGE_CURVE('',#180,#322,#324,.T.);
#322 = VERTEX_POINT('',#323);
#323 = CARTESIAN_POINT('',(17.85,3.35,0.));
#324 = LINE('',#325,#326);
#325 = CARTESIAN_POINT('',(-17.85,3.35,0.));
#326 = VECTOR('',#327,1.);
#327 = DIRECTION('',(1.,0.,-0.));
#328 = ORIENTED_EDGE('',*,*,#179,.T.);
#329 = ORIENTED_EDGE('',*,*,#254,.T.);
#330 = ORIENTED_EDGE('',*,*,#331,.F.);
#331 = EDGE_CURVE('',#322,#255,#332,.T.);
#332 = LINE('',#333,#334);
#333 = CARTESIAN_POINT('',(17.85,3.35,0.));
#334 = VECTOR('',#335,1.);
#335 = DIRECTION('',(0.,0.,1.));
#336 = PLANE('',#337);
#337 = AXIS2_PLACEMENT_3D('',#338,#339,#340);
#338 = CARTESIAN_POINT('',(-17.85,3.35,0.));
#339 = DIRECTION('',(-0.,1.,0.));
#340 = DIRECTION('',(0.,0.,1.));
#341 = ADVANCED_FACE('',(#342,#345),#683,.T.);
#342 = FACE_BOUND('',#343,.T.);
#343 = EDGE_LOOP('',(#344));
#344 = ORIENTED_EDGE('',*,*,#162,.T.);
#345 = FACE_BOUND('',#346,.T.);
#346 = EDGE_LOOP('',(#347,#357,#365,#373,#381,#389,#397,#405,#413,#421,
    #429,#437,#445,#453,#461,#469,#477,#485,#493,#501,#509,#517,#525,
    #533,#541,#549,#557,#565,#573,#581,#589,#597,#605,#613,#621,#629,
    #637,#645,#653,#661,#669,#677));
#347 = ORIENTED_EDGE('',*,*,#348,.T.);
#348 = EDGE_CURVE('',#349,#351,#353,.T.);
#349 = VERTEX_POINT('',#350);
#350 = CARTESIAN_POINT('',(2.388932014465,0.736887936027,8.));
#351 = VERTEX_POINT('',#352);
#352 = CARTESIAN_POINT('',(2.175427817695,0.327892985588,8.));
#353 = LINE('',#354,#355);
#354 = CARTESIAN_POINT('',(1.875238579477,-0.24715839263,8.));
#355 = VECTOR('',#356,1.);
#356 = DIRECTION('',(-0.462762818389,-0.886482134009,0.));
#357 = ORIENTED_EDGE('',*,*,#358,.T.);
#358 = EDGE_CURVE('',#351,#359,#361,.T.);
#359 = VERTEX_POINT('',#360);
#360 = CARTESIAN_POINT('',(2.5,0.,8.));
#361 = LINE('',#362,#363);
#362 = CARTESIAN_POINT('',(1.881361866935,0.624967620481,8.));
#363 = VECTOR('',#364,1.);
#364 = DIRECTION('',(0.703498760804,-0.710696484829,0.));
#365 = ORIENTED_EDGE('',*,*,#366,.T.);
#366 = EDGE_CURVE('',#359,#367,#369,.T.);
#367 = VERTEX_POINT('',#368);
#368 = CARTESIAN_POINT('',(2.175427817695,-0.327892985588,8.));
#369 = LINE('',#370,#371);
#370 = CARTESIAN_POINT('',(1.719075775782,-0.788914113274,8.));
#371 = VECTOR('',#372,1.);
#372 = DIRECTION('',(-0.703498760804,-0.710696484829,0.));
#373 = ORIENTED_EDGE('',*,*,#374,.T.);
#374 = EDGE_CURVE('',#367,#375,#377,.T.);
#375 = VERTEX_POINT('',#376);
#376 = CARTESIAN_POINT('',(2.388932014465,-0.736887936027,8.));
#377 = LINE('',#378,#379);
#378 = CARTESIAN_POINT('',(1.981990677862,4.266091740975E-02,8.));
#379 = VECTOR('',#380,1.);
#380 = DIRECTION('',(0.462762818389,-0.886482134009,0.));
#381 = ORIENTED_EDGE('',*,*,#382,.T.);
#382 = EDGE_CURVE('',#375,#383,#385,.T.);
#383 = VERTEX_POINT('',#384);
#384 = CARTESIAN_POINT('',(1.982131509385,-0.954544226059,8.));
#385 = LINE('',#386,#387);
#386 = CARTESIAN_POINT('',(1.41016554537,-1.260571352862,8.));
#387 = VECTOR('',#388,1.);
#388 = DIRECTION('',(-0.881725751067,-0.471762334131,0.));
#389 = ORIENTED_EDGE('',*,*,#390,.T.);
#390 = EDGE_CURVE('',#383,#391,#393,.T.);
#391 = VERTEX_POINT('',#392);
#392 = CARTESIAN_POINT('',(2.06559693579,-1.408300145159,8.));
#393 = LINE('',#394,#395);
#394 = CARTESIAN_POINT('',(1.906510919238,-0.543436395387,8.));
#395 = VECTOR('',#396,1.);
#396 = DIRECTION('',(0.18090836876,-0.983499955319,0.));
#397 = ORIENTED_EDGE('',*,*,#398,.T.);
#398 = EDGE_CURVE('',#391,#399,#401,.T.);
#399 = VERTEX_POINT('',#400);
#400 = CARTESIAN_POINT('',(1.612714118026,-1.496380023096,8.));
#401 = LINE('',#402,#403);
#402 = CARTESIAN_POINT('',(0.975955917842,-1.620221295822,8.));
#403 = VECTOR('',#404,1.);
#404 = DIRECTION('',(-0.981607538959,-0.190910029752,0.));
#405 = ORIENTED_EDGE('',*,*,#406,.T.);
#406 = EDGE_CURVE('',#399,#407,#409,.T.);
#407 = VERTEX_POINT('',#408);
#408 = CARTESIAN_POINT('',(1.558724504647,-1.95457870617,8.));
#409 = LINE('',#410,#411);
#410 = CARTESIAN_POINT('',(1.661629298854,-1.081246999623,8.));
#411 = VECTOR('',#412,1.);
#412 = DIRECTION('',(-0.117020583337,-0.993129489581,0.));
#413 = ORIENTED_EDGE('',*,*,#414,.T.);
#414 = EDGE_CURVE('',#407,#415,#417,.T.);
#415 = VERTEX_POINT('',#416);
#416 = CARTESIAN_POINT('',(1.1,-1.905255888326,8.));
#417 = LINE('',#418,#419);
#418 = CARTESIAN_POINT('',(0.455028324101,-1.835907466424,8.));
#419 = VECTOR('',#420,1.);
#420 = DIRECTION('',(-0.9942691893,0.106905468566,0.));
#421 = ORIENTED_EDGE('',*,*,#422,.T.);
#422 = EDGE_CURVE('',#415,#423,#425,.T.);
#423 = VERTEX_POINT('',#424);
#424 = CARTESIAN_POINT('',(0.913352560916,-2.327184371611,8.));
#425 = LINE('',#426,#427);
#426 = CARTESIAN_POINT('',(1.269104623328,-1.522984062967,8.));
#427 = VECTOR('',#428,1.);
#428 = DIRECTION('',(-0.404551743068,-0.914515110417,0.));
#429 = ORIENTED_EDGE('',*,*,#430,.T.);
#430 = EDGE_CURVE('',#423,#431,#433,.T.);
#431 = VERTEX_POINT('',#432);
#432 = CARTESIAN_POINT('',(0.489546054704,-2.1448414068,8.));
#433 = LINE('',#434,#435);
#434 = CARTESIAN_POINT('',(-0.106330533094,-1.888465201887,8.));
#435 = VECTOR('',#436,1.);
#436 = DIRECTION('',(-0.918585658893,0.395221946855,0.));
#437 = ORIENTED_EDGE('',*,*,#438,.T.);
#438 = EDGE_CURVE('',#431,#439,#441,.T.);
#439 = VERTEX_POINT('',#440);
#440 = CARTESIAN_POINT('',(0.186825233966,-2.493009492953,8.));
#441 = LINE('',#442,#443);
#442 = CARTESIAN_POINT('',(0.763814432644,-1.829397308812,8.));
#443 = VECTOR('',#444,1.);
#444 = DIRECTION('',(-0.656136705082,-0.754642050408,0.));
#445 = ORIENTED_EDGE('',*,*,#446,.T.);
#446 = EDGE_CURVE('',#439,#447,#449,.T.);
#447 = VERTEX_POINT('',#448);
#448 = CARTESIAN_POINT('',(-0.16440620589,-2.193848353799,8.));
#449 = LINE('',#450,#451);
#450 = CARTESIAN_POINT('',(-0.658241455801,-1.773224516769,8.));
#451 = VECTOR('',#452,1.);
#452 = DIRECTION('',(-0.761281761547,0.648421220763,0.));
#453 = ORIENTED_EDGE('',*,*,#454,.T.);
#454 = EDGE_CURVE('',#447,#455,#457,.T.);
#455 = VERTEX_POINT('',#456);
#456 = CARTESIAN_POINT('',(-0.556302334891,-2.437319780455,8.));
#457 = LINE('',#458,#459);
#458 = CARTESIAN_POINT('',(0.190655977676,-1.973260575591,8.));
#459 = VECTOR('',#460,1.);
#460 = DIRECTION('',(-0.84942104144,-0.527715732529,0.));
#461 = ORIENTED_EDGE('',*,*,#462,.T.);
#462 = EDGE_CURVE('',#455,#463,#465,.T.);
#463 = VERTEX_POINT('',#464);
#464 = CARTESIAN_POINT('',(-0.803750253606,-2.047922247017,8.));
#465 = LINE('',#466,#467);
#466 = CARTESIAN_POINT('',(-1.151664736514,-1.500425051669,8.));
#467 = VECTOR('',#468,1.);
#468 = DIRECTION('',(-0.536334638858,0.844005423656,0.));
#469 = ORIENTED_EDGE('',*,*,#470,.T.);
#470 = EDGE_CURVE('',#463,#471,#473,.T.);
#471 = VERTEX_POINT('',#472);
#472 = CARTESIAN_POINT('',(-1.25,-2.165063509461,8.));
#473 = LINE('',#474,#475);
#474 = CARTESIAN_POINT('',(-0.399443097588,-1.941790980717,8.));
#475 = VECTOR('',#476,1.);
#476 = DIRECTION('',(-0.967230590644,-0.253899555973,0.));
#477 = ORIENTED_EDGE('',*,*,#478,.T.);
#478 = EDGE_CURVE('',#471,#479,#481,.T.);
#479 = VERTEX_POINT('',#480);
#480 = CARTESIAN_POINT('',(-1.371677564089,-1.72002926143,8.));
#481 = LINE('',#482,#483);
#482 = CARTESIAN_POINT('',(-1.542757551391,-1.094306236221,8.));
#483 = VECTOR('',#484,1.);
#484 = DIRECTION('',(-0.26373182984,0.964596040801,0.));
#485 = ORIENTED_EDGE('',*,*,#486,.T.);
#486 = EDGE_CURVE('',#479,#487,#489,.T.);
#487 = VERTEX_POINT('',#488);
#488 = CARTESIAN_POINT('',(-1.832629679575,-1.700431844427,8.));
#489 = LINE('',#490,#491);
#490 = CARTESIAN_POINT('',(-0.954049900705,-1.737784735797,8.));
#491 = VECTOR('',#492,1.);
#492 = DIRECTION('',(-0.999097457247,4.247671035214E-02,0.));
#493 = ORIENTED_EDGE('',*,*,#494,.T.);
#494 = EDGE_CURVE('',#487,#495,#497,.T.);
#495 = VERTEX_POINT('',#496);
#496 = CARTESIAN_POINT('',(-1.817725303495,-1.23930412774,8.));
#497 = LINE('',#498,#499);
#498 = CARTESIAN_POINT('',(-1.796769587546,-0.590953509401,8.));
#499 = VECTOR('',#500,1.);
#500 = DIRECTION('',(3.230470962712E-02,0.999478066661,-0.));
#501 = ORIENTED_EDGE('',*,*,#502,.T.);
#502 = EDGE_CURVE('',#495,#503,#505,.T.);
#503 = VERTEX_POINT('',#504);
#504 = CARTESIAN_POINT('',(-2.252422169756,-1.084709347794,8.));
#505 = LINE('',#506,#507);
#506 = CARTESIAN_POINT('',(-1.423885183365,-1.379368690959,8.));
#507 = VECTOR('',#508,1.);
#508 = DIRECTION('',(-0.942190130307,0.335078734556,0.));
#509 = ORIENTED_EDGE('',*,*,#510,.T.);
#510 = EDGE_CURVE('',#503,#511,#513,.T.);
#511 = VERTEX_POINT('',#512);
#512 = CARTESIAN_POINT('',(-2.10226017273,-0.648461383704,8.));
#513 = LINE('',#514,#515);
#514 = CARTESIAN_POINT('',(-1.891130760855,-3.509196991379E-02,8.));
#515 = VECTOR('',#516,1.);
#516 = DIRECTION('',(0.325470833877,0.94555208016,-0.));
#517 = ORIENTED_EDGE('',*,*,#518,.T.);
#518 = EDGE_CURVE('',#511,#519,#521,.T.);
#519 = VERTEX_POINT('',#520);
#520 = CARTESIAN_POINT('',(-2.472077065563,-0.37260566544,8.));
#521 = LINE('',#522,#523);
#522 = CARTESIAN_POINT('',(-1.767202018866,-0.898389684669,8.));
#523 = VECTOR('',#524,1.);
#524 = DIRECTION('',(-0.801565075556,0.597907542726,0.));
#525 = ORIENTED_EDGE('',*,*,#526,.T.);
#526 = EDGE_CURVE('',#519,#527,#529,.T.);
#527 = VERTEX_POINT('',#528);
#528 = CARTESIAN_POINT('',(-2.2,2.694222958124E-16,8.));
#529 = LINE('',#530,#531);
#530 = CARTESIAN_POINT('',(-1.817456666971,0.523887645099,8.));
#531 = VECTOR('',#532,1.);
#532 = DIRECTION('',(0.589717446232,0.807609641851,-0.));
#533 = ORIENTED_EDGE('',*,*,#534,.T.);
#534 = EDGE_CURVE('',#527,#535,#537,.T.);
#535 = VERTEX_POINT('',#536);
#536 = CARTESIAN_POINT('',(-2.472077065563,0.37260566544,8.));
#537 = LINE('',#538,#539);
#538 = CARTESIAN_POINT('',(-1.953495199753,-0.337584812378,8.));
#539 = VECTOR('',#540,1.);
#540 = DIRECTION('',(-0.589717446232,0.807609641851,0.));
#541 = ORIENTED_EDGE('',*,*,#542,.T.);
#542 = EDGE_CURVE('',#535,#543,#545,.T.);
#543 = VERTEX_POINT('',#544);
#544 = CARTESIAN_POINT('',(-2.10226017273,0.648461383704,8.));
#545 = LINE('',#546,#547);
#546 = CARTESIAN_POINT('',(-1.58229357245,1.036317543801,8.));
#547 = VECTOR('',#548,1.);
#548 = DIRECTION('',(0.801565075556,0.597907542726,-0.));
#549 = ORIENTED_EDGE('',*,*,#550,.T.);
#550 = EDGE_CURVE('',#543,#551,#553,.T.);
#551 = VERTEX_POINT('',#552);
#552 = CARTESIAN_POINT('',(-2.252422169756,1.084709347794,8.));
#553 = LINE('',#554,#555);
#554 = CARTESIAN_POINT('',(-1.966211759368,0.253215951959,8.));
#555 = VECTOR('',#556,1.);
#556 = DIRECTION('',(-0.325470833877,0.94555208016,0.));
#557 = ORIENTED_EDGE('',*,*,#558,.T.);
#558 = EDGE_CURVE('',#551,#559,#561,.T.);
#559 = VERTEX_POINT('',#560);
#560 = CARTESIAN_POINT('',(-1.817725303495,1.23930412774,8.));
#561 = LINE('',#562,#563);
#562 = CARTESIAN_POINT('',(-1.206536750235,1.456666080932,8.));
#563 = VECTOR('',#564,1.);
#564 = DIRECTION('',(0.942190130307,0.335078734556,-0.));
#565 = ORIENTED_EDGE('',*,*,#566,.T.);
#566 = EDGE_CURVE('',#559,#567,#569,.T.);
#567 = VERTEX_POINT('',#568);
#568 = CARTESIAN_POINT('',(-1.832629679575,1.700431844427,8.));
#569 = LINE('',#570,#571);
#570 = CARTESIAN_POINT('',(-1.804221775586,0.821517367744,8.));
#571 = VECTOR('',#572,1.);
#572 = DIRECTION('',(-3.230470962712E-02,0.999478066661,0.));
#573 = ORIENTED_EDGE('',*,*,#574,.T.);
#574 = EDGE_CURVE('',#567,#575,#577,.T.);
#575 = VERTEX_POINT('',#576);
#576 = CARTESIAN_POINT('',(-1.371677564089,1.72002926143,8.));
#577 = LINE('',#578,#579);
#578 = CARTESIAN_POINT('',(-0.723573842963,1.747583444298,8.));
#579 = VECTOR('',#580,1.);
#580 = DIRECTION('',(0.999097457247,4.247671035214E-02,-0.));
#581 = ORIENTED_EDGE('',*,*,#582,.T.);
#582 = EDGE_CURVE('',#575,#583,#585,.T.);
#583 = VERTEX_POINT('',#584);
#584 = CARTESIAN_POINT('',(-1.25,2.165063509461,8.));
#585 = LINE('',#586,#587);
#586 = CARTESIAN_POINT('',(-1.481918769346,1.316823360236,8.));
#587 = VECTOR('',#588,1.);
#588 = DIRECTION('',(0.26373182984,0.964596040801,-0.));
#589 = ORIENTED_EDGE('',*,*,#590,.T.);
#590 = EDGE_CURVE('',#583,#591,#593,.T.);
#591 = VERTEX_POINT('',#592);
#592 = CARTESIAN_POINT('',(-0.803750253606,2.047922247017,8.));
#593 = LINE('',#594,#595);
#594 = CARTESIAN_POINT('',(-0.176318224391,1.883220349495,8.));
#595 = VECTOR('',#596,1.);
#596 = DIRECTION('',(0.967230590644,-0.253899555973,0.));
#597 = ORIENTED_EDGE('',*,*,#598,.T.);
#598 = EDGE_CURVE('',#591,#599,#601,.T.);
#599 = VERTEX_POINT('',#600);
#600 = CARTESIAN_POINT('',(-0.556302334891,2.437319780455,8.));
#601 = LINE('',#602,#603);
#602 = CARTESIAN_POINT('',(-1.027940777156,1.695123818387,8.));
#603 = VECTOR('',#604,1.);
#604 = DIRECTION('',(0.536334638858,0.844005423656,-0.));
#605 = ORIENTED_EDGE('',*,*,#606,.T.);
#606 = EDGE_CURVE('',#599,#607,#609,.T.);
#607 = VERTEX_POINT('',#608);
#608 = CARTESIAN_POINT('',(-0.16440620589,2.193848353799,8.));
#609 = LINE('',#610,#611);
#610 = CARTESIAN_POINT('',(0.386604042177,1.851524862263,8.));
#611 = VECTOR('',#612,1.);
#612 = DIRECTION('',(0.84942104144,-0.527715732529,0.));
#613 = ORIENTED_EDGE('',*,*,#614,.T.);
#614 = EDGE_CURVE('',#607,#615,#617,.T.);
#615 = VERTEX_POINT('',#616);
#616 = CARTESIAN_POINT('',(0.186825233966,2.493009492953,8.));
#617 = LINE('',#618,#619);
#618 = CARTESIAN_POINT('',(-0.482625735873,1.922805086346,8.));
#619 = VECTOR('',#620,1.);
#620 = DIRECTION('',(0.761281761547,0.648421220763,-0.));
#621 = ORIENTED_EDGE('',*,*,#622,.T.);
#622 = EDGE_CURVE('',#615,#623,#625,.T.);
#623 = VERTEX_POINT('',#624);
#624 = CARTESIAN_POINT('',(0.489546054704,2.1448414068,8.));
#625 = LINE('',#626,#627);
#626 = CARTESIAN_POINT('',(0.915174843013,1.655313265736,8.));
#627 = VECTOR('',#628,1.);
#628 = DIRECTION('',(0.656136705082,-0.754642050408,0.));
#629 = ORIENTED_EDGE('',*,*,#630,.T.);
#630 = EDGE_CURVE('',#623,#631,#633,.T.);
#631 = VERTEX_POINT('',#632);
#632 = CARTESIAN_POINT('',(0.913352560916,2.327184371611,8.));
#633 = LINE('',#634,#635);
#634 = CARTESIAN_POINT('',(0.105572720012,1.979636684292,8.));
#635 = VECTOR('',#636,1.);
#636 = DIRECTION('',(0.918585658893,0.395221946855,-0.));
#637 = ORIENTED_EDGE('',*,*,#638,.T.);
#638 = EDGE_CURVE('',#631,#639,#641,.T.);
#639 = VERTEX_POINT('',#640);
#640 = CARTESIAN_POINT('',(1.1,1.905255888326,8.));
#641 = LINE('',#642,#643);
#642 = CARTESIAN_POINT('',(1.36242834287,1.312019821325,8.));
#643 = VECTOR('',#644,1.);
#644 = DIRECTION('',(0.404551743068,-0.914515110417,0.));
#645 = ORIENTED_EDGE('',*,*,#646,.T.);
#646 = EDGE_CURVE('',#639,#647,#649,.T.);
#647 = VERTEX_POINT('',#648);
#648 = CARTESIAN_POINT('',(1.558724504647,1.95457870617,8.));
#649 = LINE('',#650,#651);
#650 = CARTESIAN_POINT('',(0.684390576425,1.860568875346,8.));
#651 = VECTOR('',#652,1.);
#652 = DIRECTION('',(0.9942691893,0.106905468566,-0.));
#653 = ORIENTED_EDGE('',*,*,#654,.T.);
#654 = EDGE_CURVE('',#647,#655,#657,.T.);
#655 = VERTEX_POINT('',#656);
#656 = CARTESIAN_POINT('',(1.612714118026,1.496380023096,8.));
#657 = LINE('',#658,#659);
#658 = CARTESIAN_POINT('',(1.688624105544,0.852147658086,8.));
#659 = VECTOR('',#660,1.);
#660 = DIRECTION('',(0.117020583337,-0.993129489581,0.));
#661 = ORIENTED_EDGE('',*,*,#662,.T.);
#662 = EDGE_CURVE('',#655,#663,#665,.T.);
#663 = VERTEX_POINT('',#664);
#664 = CARTESIAN_POINT('',(2.06559693579,1.408300145159,8.));
#665 = LINE('',#666,#667);
#666 = CARTESIAN_POINT('',(1.202397326724,1.576181356853,8.));
#667 = VECTOR('',#668,1.);
#668 = DIRECTION('',(0.981607538959,-0.190910029752,0.));
#669 = ORIENTED_EDGE('',*,*,#670,.T.);
#670 = EDGE_CURVE('',#663,#671,#673,.T.);
#671 = VERTEX_POINT('',#672);
#672 = CARTESIAN_POINT('',(1.982131509385,0.954544226059,8.));
#673 = LINE('',#674,#675);
#674 = CARTESIAN_POINT('',(1.864778206036,0.316558435837,8.));
#675 = VECTOR('',#676,1.);
#676 = DIRECTION('',(-0.18090836876,-0.983499955319,0.));
#677 = ORIENTED_EDGE('',*,*,#678,.T.);
#678 = EDGE_CURVE('',#671,#349,#679,.T.);
#679 = LINE('',#680,#681);
#680 = CARTESIAN_POINT('',(1.61356579791,1.151743207846,8.));
#681 = VECTOR('',#682,1.);
#682 = DIRECTION('',(0.881725751067,-0.471762334131,0.));
#683 = PLANE('',#684);
#684 = AXIS2_PLACEMENT_3D('',#685,#686,#687);
#685 = CARTESIAN_POINT('',(0.,0.,8.));
#686 = DIRECTION('',(0.,0.,1.));
#687 = DIRECTION('',(1.,0.,-0.));
#688 = ADVANCED_FACE('',(#689),#700,.T.);
#689 = FACE_BOUND('',#690,.T.);
#690 = EDGE_LOOP('',(#691,#692,#698,#699));
#691 = ORIENTED_EDGE('',*,*,#307,.F.);
#692 = ORIENTED_EDGE('',*,*,#693,.T.);
#693 = EDGE_CURVE('',#298,#322,#694,.T.);
#694 = LINE('',#695,#696);
#695 = CARTESIAN_POINT('',(17.85,-3.35,0.));
#696 = VECTOR('',#697,1.);
#697 = DIRECTION('',(-0.,1.,0.));
#698 = ORIENTED_EDGE('',*,*,#331,.T.);
#699 = ORIENTED_EDGE('',*,*,#272,.F.);
#700 = PLANE('',#701);
#701 = AXIS2_PLACEMENT_3D('',#702,#703,#704);
#702 = CARTESIAN_POINT('',(17.85,-3.35,0.));
#703 = DIRECTION('',(1.,0.,-0.));
#704 = DIRECTION('',(0.,0.,1.));
#705 = ADVANCED_FACE('',(#706),#725,.F.);
#706 = FACE_BOUND('',#707,.F.);
#707 = EDGE_LOOP('',(#708,#709,#717,#724));
#708 = ORIENTED_EDGE('',*,*,#280,.F.);
#709 = ORIENTED_EDGE('',*,*,#710,.F.);
#710 = EDGE_CURVE('',#711,#281,#713,.T.);
#711 = VERTEX_POINT('',#712);
#712 = CARTESIAN_POINT('',(15.6,-2.694222958124E-16,0.));
#713 = LINE('',#714,#715);
#714 = CARTESIAN_POINT('',(15.6,-2.694222958124E-16,-1.));
#715 = VECTOR('',#716,1.);
#716 = DIRECTION('',(0.,0.,1.));
#717 = ORIENTED_EDGE('',*,*,#718,.T.);
#718 = EDGE_CURVE('',#711,#711,#719,.T.);
#719 = CIRCLE('',#720,1.1);
#720 = AXIS2_PLACEMENT_3D('',#721,#722,#723);
#721 = CARTESIAN_POINT('',(14.5,0.,0.));
#722 = DIRECTION('',(0.,0.,1.));
#723 = DIRECTION('',(1.,0.,-0.));
#724 = ORIENTED_EDGE('',*,*,#710,.T.);
#725 = CYLINDRICAL_SURFACE('',#726,1.1);
#726 = AXIS2_PLACEMENT_3D('',#727,#728,#729);
#727 = CARTESIAN_POINT('',(14.5,0.,-1.));
#728 = DIRECTION('',(0.,0.,1.));
#729 = DIRECTION('',(1.,0.,-0.));
#730 = ADVANCED_FACE('',(#731),#756,.T.);
#731 = FACE_BOUND('',#732,.T.);
#732 = EDGE_LOOP('',(#733,#743,#749,#750));
#733 = ORIENTED_EDGE('',*,*,#734,.F.);
#734 = EDGE_CURVE('',#735,#737,#739,.T.);
#735 = VERTEX_POINT('',#736);
#736 = CARTESIAN_POINT('',(2.175427817695,0.327892985588,4.5));
#737 = VERTEX_POINT('',#738);
#738 = CARTESIAN_POINT('',(2.388932014465,0.736887936027,4.5));
#739 = LINE('',#740,#741);
#740 = CARTESIAN_POINT('',(2.175427817695,0.327892985588,4.5));
#741 = VECTOR('',#742,1.);
#742 = DIRECTION('',(0.462762818389,0.886482134009,0.));
#743 = ORIENTED_EDGE('',*,*,#744,.T.);
#744 = EDGE_CURVE('',#735,#351,#745,.T.);
#745 = LINE('',#746,#747);
#746 = CARTESIAN_POINT('',(2.175427817695,0.327892985588,4.5));
#747 = VECTOR('',#748,1.);
#748 = DIRECTION('',(0.,0.,1.));
#749 = ORIENTED_EDGE('',*,*,#348,.F.);
#750 = ORIENTED_EDGE('',*,*,#751,.F.);
#751 = EDGE_CURVE('',#737,#349,#752,.T.);
#752 = LINE('',#753,#754);
#753 = CARTESIAN_POINT('',(2.388932014465,0.736887936027,4.5));
#754 = VECTOR('',#755,1.);
#755 = DIRECTION('',(0.,0.,1.));
#756 = PLANE('',#757);
#757 = AXIS2_PLACEMENT_3D('',#758,#759,#760);
#758 = CARTESIAN_POINT('',(2.175427817695,0.327892985588,4.5));
#759 = DIRECTION('',(-0.886482134009,0.462762818389,0.));
#760 = DIRECTION('',(0.462762818389,0.886482134009,0.));
#761 = ADVANCED_FACE('',(#762),#780,.T.);
#762 = FACE_BOUND('',#763,.T.);
#763 = EDGE_LOOP('',(#764,#772,#773,#774));
#764 = ORIENTED_EDGE('',*,*,#765,.F.);
#765 = EDGE_CURVE('',#737,#766,#768,.T.);
#766 = VERTEX_POINT('',#767);
#767 = CARTESIAN_POINT('',(1.982131509385,0.954544226059,4.5));
#768 = LINE('',#769,#770);
#769 = CARTESIAN_POINT('',(2.388932014465,0.736887936027,4.5));
#770 = VECTOR('',#771,1.);
#771 = DIRECTION('',(-0.881725751067,0.471762334131,0.));
#772 = ORIENTED_EDGE('',*,*,#751,.T.);
#773 = ORIENTED_EDGE('',*,*,#678,.F.);
#774 = ORIENTED_EDGE('',*,*,#775,.F.);
#775 = EDGE_CURVE('',#766,#671,#776,.T.);
#776 = LINE('',#777,#778);
#777 = CARTESIAN_POINT('',(1.982131509385,0.954544226059,4.5));
#778 = VECTOR('',#779,1.);
#779 = DIRECTION('',(0.,0.,1.));
#780 = PLANE('',#781);
#781 = AXIS2_PLACEMENT_3D('',#782,#783,#784);
#782 = CARTESIAN_POINT('',(2.388932014465,0.736887936027,4.5));
#783 = DIRECTION('',(-0.471762334131,-0.881725751067,0.));
#784 = DIRECTION('',(-0.881725751067,0.471762334131,0.));
#785 = ADVANCED_FACE('',(#786),#804,.T.);
#786 = FACE_BOUND('',#787,.T.);
#787 = EDGE_LOOP('',(#788,#796,#797,#798));
#788 = ORIENTED_EDGE('',*,*,#789,.F.);
#789 = EDGE_CURVE('',#766,#790,#792,.T.);
#790 = VERTEX_POINT('',#791);
#791 = CARTESIAN_POINT('',(2.06559693579,1.408300145159,4.5));
#792 = LINE('',#793,#794);
#793 = CARTESIAN_POINT('',(1.982131509385,0.954544226059,4.5));
#794 = VECTOR('',#795,1.);
#795 = DIRECTION('',(0.18090836876,0.983499955319,0.));
#796 = ORIENTED_EDGE('',*,*,#775,.T.);
#797 = ORIENTED_EDGE('',*,*,#670,.F.);
#798 = ORIENTED_EDGE('',*,*,#799,.F.);
#799 = EDGE_CURVE('',#790,#663,#800,.T.);
#800 = LINE('',#801,#802);
#801 = CARTESIAN_POINT('',(2.06559693579,1.408300145159,4.5));
#802 = VECTOR('',#803,1.);
#803 = DIRECTION('',(0.,0.,1.));
#804 = PLANE('',#805);
#805 = AXIS2_PLACEMENT_3D('',#806,#807,#808);
#806 = CARTESIAN_POINT('',(1.982131509385,0.954544226059,4.5));
#807 = DIRECTION('',(-0.983499955319,0.18090836876,0.));
#808 = DIRECTION('',(0.18090836876,0.983499955319,0.));
#809 = ADVANCED_FACE('',(#810),#828,.T.);
#810 = FACE_BOUND('',#811,.T.);
#811 = EDGE_LOOP('',(#812,#820,#821,#822));
#812 = ORIENTED_EDGE('',*,*,#813,.F.);
#813 = EDGE_CURVE('',#790,#814,#816,.T.);
#814 = VERTEX_POINT('',#815);
#815 = CARTESIAN_POINT('',(1.612714118026,1.496380023096,4.5));
#816 = LINE('',#817,#818);
#817 = CARTESIAN_POINT('',(2.06559693579,1.408300145159,4.5));
#818 = VECTOR('',#819,1.);
#819 = DIRECTION('',(-0.981607538959,0.190910029752,0.));
#820 = ORIENTED_EDGE('',*,*,#799,.T.);
#821 = ORIENTED_EDGE('',*,*,#662,.F.);
#822 = ORIENTED_EDGE('',*,*,#823,.F.);
#823 = EDGE_CURVE('',#814,#655,#824,.T.);
#824 = LINE('',#825,#826);
#825 = CARTESIAN_POINT('',(1.612714118026,1.496380023096,4.5));
#826 = VECTOR('',#827,1.);
#827 = DIRECTION('',(0.,0.,1.));
#828 = PLANE('',#829);
#829 = AXIS2_PLACEMENT_3D('',#830,#831,#832);
#830 = CARTESIAN_POINT('',(2.06559693579,1.408300145159,4.5));
#831 = DIRECTION('',(-0.190910029752,-0.981607538959,0.));
#832 = DIRECTION('',(-0.981607538959,0.190910029752,0.));
#833 = ADVANCED_FACE('',(#834),#852,.T.);
#834 = FACE_BOUND('',#835,.T.);
#835 = EDGE_LOOP('',(#836,#844,#845,#846));
#836 = ORIENTED_EDGE('',*,*,#837,.F.);
#837 = EDGE_CURVE('',#814,#838,#840,.T.);
#838 = VERTEX_POINT('',#839);
#839 = CARTESIAN_POINT('',(1.558724504647,1.95457870617,4.5));
#840 = LINE('',#841,#842);
#841 = CARTESIAN_POINT('',(1.612714118026,1.496380023096,4.5));
#842 = VECTOR('',#843,1.);
#843 = DIRECTION('',(-0.117020583337,0.993129489581,0.));
#844 = ORIENTED_EDGE('',*,*,#823,.T.);
#845 = ORIENTED_EDGE('',*,*,#654,.F.);
#846 = ORIENTED_EDGE('',*,*,#847,.F.);
#847 = EDGE_CURVE('',#838,#647,#848,.T.);
#848 = LINE('',#849,#850);
#849 = CARTESIAN_POINT('',(1.558724504647,1.95457870617,4.5));
#850 = VECTOR('',#851,1.);
#851 = DIRECTION('',(0.,0.,1.));
#852 = PLANE('',#853);
#853 = AXIS2_PLACEMENT_3D('',#854,#855,#856);
#854 = CARTESIAN_POINT('',(1.612714118026,1.496380023096,4.5));
#855 = DIRECTION('',(-0.993129489581,-0.117020583337,0.));
#856 = DIRECTION('',(-0.117020583337,0.993129489581,0.));
#857 = ADVANCED_FACE('',(#858),#876,.T.);
#858 = FACE_BOUND('',#859,.T.);
#859 = EDGE_LOOP('',(#860,#868,#869,#870));
#860 = ORIENTED_EDGE('',*,*,#861,.F.);
#861 = EDGE_CURVE('',#838,#862,#864,.T.);
#862 = VERTEX_POINT('',#863);
#863 = CARTESIAN_POINT('',(1.1,1.905255888326,4.5));
#864 = LINE('',#865,#866);
#865 = CARTESIAN_POINT('',(1.558724504647,1.95457870617,4.5));
#866 = VECTOR('',#867,1.);
#867 = DIRECTION('',(-0.9942691893,-0.106905468566,0.));
#868 = ORIENTED_EDGE('',*,*,#847,.T.);
#869 = ORIENTED_EDGE('',*,*,#646,.F.);
#870 = ORIENTED_EDGE('',*,*,#871,.F.);
#871 = EDGE_CURVE('',#862,#639,#872,.T.);
#872 = LINE('',#873,#874);
#873 = CARTESIAN_POINT('',(1.1,1.905255888326,4.5));
#874 = VECTOR('',#875,1.);
#875 = DIRECTION('',(0.,0.,1.));
#876 = PLANE('',#877);
#877 = AXIS2_PLACEMENT_3D('',#878,#879,#880);
#878 = CARTESIAN_POINT('',(1.558724504647,1.95457870617,4.5));
#879 = DIRECTION('',(0.106905468566,-0.9942691893,0.));
#880 = DIRECTION('',(-0.9942691893,-0.106905468566,0.));
#881 = ADVANCED_FACE('',(#882),#900,.T.);
#882 = FACE_BOUND('',#883,.T.);
#883 = EDGE_LOOP('',(#884,#892,#893,#894));
#884 = ORIENTED_EDGE('',*,*,#885,.F.);
#885 = EDGE_CURVE('',#862,#886,#888,.T.);
#886 = VERTEX_POINT('',#887);
#887 = CARTESIAN_POINT('',(0.913352560916,2.327184371611,4.5));
#888 = LINE('',#889,#890);
#889 = CARTESIAN_POINT('',(1.1,1.905255888326,4.5));
#890 = VECTOR('',#891,1.);
#891 = DIRECTION('',(-0.404551743068,0.914515110417,0.));
#892 = ORIENTED_EDGE('',*,*,#871,.T.);
#893 = ORIENTED_EDGE('',*,*,#638,.F.);
#894 = ORIENTED_EDGE('',*,*,#895,.F.);
#895 = EDGE_CURVE('',#886,#631,#896,.T.);
#896 = LINE('',#897,#898);
#897 = CARTESIAN_POINT('',(0.913352560916,2.327184371611,4.5));
#898 = VECTOR('',#899,1.);
#899 = DIRECTION('',(0.,0.,1.));
#900 = PLANE('',#901);
#901 = AXIS2_PLACEMENT_3D('',#902,#903,#904);
#902 = CARTESIAN_POINT('',(1.1,1.905255888326,4.5));
#903 = DIRECTION('',(-0.914515110417,-0.404551743068,0.));
#904 = DIRECTION('',(-0.404551743068,0.914515110417,0.));
#905 = ADVANCED_FACE('',(#906),#924,.T.);
#906 = FACE_BOUND('',#907,.T.);
#907 = EDGE_LOOP('',(#908,#916,#917,#918));
#908 = ORIENTED_EDGE('',*,*,#909,.F.);
#909 = EDGE_CURVE('',#886,#910,#912,.T.);
#910 = VERTEX_POINT('',#911);
#911 = CARTESIAN_POINT('',(0.489546054704,2.1448414068,4.5));
#912 = LINE('',#913,#914);
#913 = CARTESIAN_POINT('',(0.913352560916,2.327184371611,4.5));
#914 = VECTOR('',#915,1.);
#915 = DIRECTION('',(-0.918585658893,-0.395221946855,0.));
#916 = ORIENTED_EDGE('',*,*,#895,.T.);
#917 = ORIENTED_EDGE('',*,*,#630,.F.);
#918 = ORIENTED_EDGE('',*,*,#919,.F.);
#919 = EDGE_CURVE('',#910,#623,#920,.T.);
#920 = LINE('',#921,#922);
#921 = CARTESIAN_POINT('',(0.489546054704,2.1448414068,4.5));
#922 = VECTOR('',#923,1.);
#923 = DIRECTION('',(0.,0.,1.));
#924 = PLANE('',#925);
#925 = AXIS2_PLACEMENT_3D('',#926,#927,#928);
#926 = CARTESIAN_POINT('',(0.913352560916,2.327184371611,4.5));
#927 = DIRECTION('',(0.395221946855,-0.918585658893,0.));
#928 = DIRECTION('',(-0.918585658893,-0.395221946855,0.));
#929 = ADVANCED_FACE('',(#930),#948,.T.);
#930 = FACE_BOUND('',#931,.T.);
#931 = EDGE_LOOP('',(#932,#940,#941,#942));
#932 = ORIENTED_EDGE('',*,*,#933,.F.);
#933 = EDGE_CURVE('',#910,#934,#936,.T.);
#934 = VERTEX_POINT('',#935);
#935 = CARTESIAN_POINT('',(0.186825233966,2.493009492953,4.5));
#936 = LINE('',#937,#938);
#937 = CARTESIAN_POINT('',(0.489546054704,2.1448414068,4.5));
#938 = VECTOR('',#939,1.);
#939 = DIRECTION('',(-0.656136705082,0.754642050408,0.));
#940 = ORIENTED_EDGE('',*,*,#919,.T.);
#941 = ORIENTED_EDGE('',*,*,#622,.F.);
#942 = ORIENTED_EDGE('',*,*,#943,.F.);
#943 = EDGE_CURVE('',#934,#615,#944,.T.);
#944 = LINE('',#945,#946);
#945 = CARTESIAN_POINT('',(0.186825233966,2.493009492953,4.5));
#946 = VECTOR('',#947,1.);
#947 = DIRECTION('',(0.,0.,1.));
#948 = PLANE('',#949);
#949 = AXIS2_PLACEMENT_3D('',#950,#951,#952);
#950 = CARTESIAN_POINT('',(0.489546054704,2.1448414068,4.5));
#951 = DIRECTION('',(-0.754642050408,-0.656136705082,0.));
#952 = DIRECTION('',(-0.656136705082,0.754642050408,0.));
#953 = ADVANCED_FACE('',(#954),#972,.T.);
#954 = FACE_BOUND('',#955,.T.);
#955 = EDGE_LOOP('',(#956,#964,#965,#966));
#956 = ORIENTED_EDGE('',*,*,#957,.F.);
#957 = EDGE_CURVE('',#934,#958,#960,.T.);
#958 = VERTEX_POINT('',#959);
#959 = CARTESIAN_POINT('',(-0.16440620589,2.193848353799,4.5));
#960 = LINE('',#961,#962);
#961 = CARTESIAN_POINT('',(0.186825233966,2.493009492953,4.5));
#962 = VECTOR('',#963,1.);
#963 = DIRECTION('',(-0.761281761547,-0.648421220763,0.));
#964 = ORIENTED_EDGE('',*,*,#943,.T.);
#965 = ORIENTED_EDGE('',*,*,#614,.F.);
#966 = ORIENTED_EDGE('',*,*,#967,.F.);
#967 = EDGE_CURVE('',#958,#607,#968,.T.);
#968 = LINE('',#969,#970);
#969 = CARTESIAN_POINT('',(-0.16440620589,2.193848353799,4.5));
#970 = VECTOR('',#971,1.);
#971 = DIRECTION('',(0.,0.,1.));
#972 = PLANE('',#973);
#973 = AXIS2_PLACEMENT_3D('',#974,#975,#976);
#974 = CARTESIAN_POINT('',(0.186825233966,2.493009492953,4.5));
#975 = DIRECTION('',(0.648421220763,-0.761281761547,0.));
#976 = DIRECTION('',(-0.761281761547,-0.648421220763,0.));
#977 = ADVANCED_FACE('',(#978),#996,.T.);
#978 = FACE_BOUND('',#979,.T.);
#979 = EDGE_LOOP('',(#980,#988,#989,#990));
#980 = ORIENTED_EDGE('',*,*,#981,.F.);
#981 = EDGE_CURVE('',#958,#982,#984,.T.);
#982 = VERTEX_POINT('',#983);
#983 = CARTESIAN_POINT('',(-0.556302334891,2.437319780455,4.5));
#984 = LINE('',#985,#986);
#985 = CARTESIAN_POINT('',(-0.16440620589,2.193848353799,4.5));
#986 = VECTOR('',#987,1.);
#987 = DIRECTION('',(-0.84942104144,0.527715732529,0.));
#988 = ORIENTED_EDGE('',*,*,#967,.T.);
#989 = ORIENTED_EDGE('',*,*,#606,.F.);
#990 = ORIENTED_EDGE('',*,*,#991,.F.);
#991 = EDGE_CURVE('',#982,#599,#992,.T.);
#992 = LINE('',#993,#994);
#993 = CARTESIAN_POINT('',(-0.556302334891,2.437319780455,4.5));
#994 = VECTOR('',#995,1.);
#995 = DIRECTION('',(0.,0.,1.));
#996 = PLANE('',#997);
#997 = AXIS2_PLACEMENT_3D('',#998,#999,#1000);
#998 = CARTESIAN_POINT('',(-0.16440620589,2.193848353799,4.5));
#999 = DIRECTION('',(-0.527715732529,-0.84942104144,0.));
#1000 = DIRECTION('',(-0.84942104144,0.527715732529,0.));
#1001 = ADVANCED_FACE('',(#1002),#1020,.T.);
#1002 = FACE_BOUND('',#1003,.T.);
#1003 = EDGE_LOOP('',(#1004,#1012,#1013,#1014));
#1004 = ORIENTED_EDGE('',*,*,#1005,.F.);
#1005 = EDGE_CURVE('',#982,#1006,#1008,.T.);
#1006 = VERTEX_POINT('',#1007);
#1007 = CARTESIAN_POINT('',(-0.803750253606,2.047922247017,4.5));
#1008 = LINE('',#1009,#1010);
#1009 = CARTESIAN_POINT('',(-0.556302334891,2.437319780455,4.5));
#1010 = VECTOR('',#1011,1.);
#1011 = DIRECTION('',(-0.536334638858,-0.844005423656,0.));
#1012 = ORIENTED_EDGE('',*,*,#991,.T.);
#1013 = ORIENTED_EDGE('',*,*,#598,.F.);
#1014 = ORIENTED_EDGE('',*,*,#1015,.F.);
#1015 = EDGE_CURVE('',#1006,#591,#1016,.T.);
#1016 = LINE('',#1017,#1018);
#1017 = CARTESIAN_POINT('',(-0.803750253606,2.047922247017,4.5));
#1018 = VECTOR('',#1019,1.);
#1019 = DIRECTION('',(0.,0.,1.));
#1020 = PLANE('',#1021);
#1021 = AXIS2_PLACEMENT_3D('',#1022,#1023,#1024);
#1022 = CARTESIAN_POINT('',(-0.556302334891,2.437319780455,4.5));
#1023 = DIRECTION('',(0.844005423656,-0.536334638858,0.));
#1024 = DIRECTION('',(-0.536334638858,-0.844005423656,0.));
#1025 = ADVANCED_FACE('',(#1026),#1044,.T.);
#1026 = FACE_BOUND('',#1027,.T.);
#1027 = EDGE_LOOP('',(#1028,#1036,#1037,#1038));
#1028 = ORIENTED_EDGE('',*,*,#1029,.F.);
#1029 = EDGE_CURVE('',#1006,#1030,#1032,.T.);
#1030 = VERTEX_POINT('',#1031);
#1031 = CARTESIAN_POINT('',(-1.25,2.165063509461,4.5));
#1032 = LINE('',#1033,#1034);
#1033 = CARTESIAN_POINT('',(-0.803750253606,2.047922247017,4.5));
#1034 = VECTOR('',#1035,1.);
#1035 = DIRECTION('',(-0.967230590644,0.253899555973,0.));
#1036 = ORIENTED_EDGE('',*,*,#1015,.T.);
#1037 = ORIENTED_EDGE('',*,*,#590,.F.);
#1038 = ORIENTED_EDGE('',*,*,#1039,.F.);
#1039 = EDGE_CURVE('',#1030,#583,#1040,.T.);
#1040 = LINE('',#1041,#1042);
#1041 = CARTESIAN_POINT('',(-1.25,2.165063509461,4.5));
#1042 = VECTOR('',#1043,1.);
#1043 = DIRECTION('',(0.,0.,1.));
#1044 = PLANE('',#1045);
#1045 = AXIS2_PLACEMENT_3D('',#1046,#1047,#1048);
#1046 = CARTESIAN_POINT('',(-0.803750253606,2.047922247017,4.5));
#1047 = DIRECTION('',(-0.253899555973,-0.967230590644,0.));
#1048 = DIRECTION('',(-0.967230590644,0.253899555973,0.));
#1049 = ADVANCED_FACE('',(#1050),#1068,.T.);
#1050 = FACE_BOUND('',#1051,.T.);
#1051 = EDGE_LOOP('',(#1052,#1060,#1061,#1062));
#1052 = ORIENTED_EDGE('',*,*,#1053,.F.);
#1053 = EDGE_CURVE('',#1030,#1054,#1056,.T.);
#1054 = VERTEX_POINT('',#1055);
#1055 = CARTESIAN_POINT('',(-1.371677564089,1.72002926143,4.5));
#1056 = LINE('',#1057,#1058);
#1057 = CARTESIAN_POINT('',(-1.25,2.165063509461,4.5));
#1058 = VECTOR('',#1059,1.);
#1059 = DIRECTION('',(-0.26373182984,-0.964596040801,0.));
#1060 = ORIENTED_EDGE('',*,*,#1039,.T.);
#1061 = ORIENTED_EDGE('',*,*,#582,.F.);
#1062 = ORIENTED_EDGE('',*,*,#1063,.F.);
#1063 = EDGE_CURVE('',#1054,#575,#1064,.T.);
#1064 = LINE('',#1065,#1066);
#1065 = CARTESIAN_POINT('',(-1.371677564089,1.72002926143,4.5));
#1066 = VECTOR('',#1067,1.);
#1067 = DIRECTION('',(0.,0.,1.));
#1068 = PLANE('',#1069);
#1069 = AXIS2_PLACEMENT_3D('',#1070,#1071,#1072);
#1070 = CARTESIAN_POINT('',(-1.25,2.165063509461,4.5));
#1071 = DIRECTION('',(0.964596040801,-0.26373182984,0.));
#1072 = DIRECTION('',(-0.26373182984,-0.964596040801,0.));
#1073 = ADVANCED_FACE('',(#1074),#1092,.T.);
#1074 = FACE_BOUND('',#1075,.T.);
#1075 = EDGE_LOOP('',(#1076,#1084,#1085,#1086));
#1076 = ORIENTED_EDGE('',*,*,#1077,.F.);
#1077 = EDGE_CURVE('',#1054,#1078,#1080,.T.);
#1078 = VERTEX_POINT('',#1079);
#1079 = CARTESIAN_POINT('',(-1.832629679575,1.700431844427,4.5));
#1080 = LINE('',#1081,#1082);
#1081 = CARTESIAN_POINT('',(-1.371677564089,1.72002926143,4.5));
#1082 = VECTOR('',#1083,1.);
#1083 = DIRECTION('',(-0.999097457247,-4.247671035214E-02,0.));
#1084 = ORIENTED_EDGE('',*,*,#1063,.T.);
#1085 = ORIENTED_EDGE('',*,*,#574,.F.);
#1086 = ORIENTED_EDGE('',*,*,#1087,.F.);
#1087 = EDGE_CURVE('',#1078,#567,#1088,.T.);
#1088 = LINE('',#1089,#1090);
#1089 = CARTESIAN_POINT('',(-1.832629679575,1.700431844427,4.5));
#1090 = VECTOR('',#1091,1.);
#1091 = DIRECTION('',(0.,0.,1.));
#1092 = PLANE('',#1093);
#1093 = AXIS2_PLACEMENT_3D('',#1094,#1095,#1096);
#1094 = CARTESIAN_POINT('',(-1.371677564089,1.72002926143,4.5));
#1095 = DIRECTION('',(4.247671035214E-02,-0.999097457247,0.));
#1096 = DIRECTION('',(-0.999097457247,-4.247671035214E-02,0.));
#1097 = ADVANCED_FACE('',(#1098),#1116,.T.);
#1098 = FACE_BOUND('',#1099,.T.);
#1099 = EDGE_LOOP('',(#1100,#1108,#1109,#1110));
#1100 = ORIENTED_EDGE('',*,*,#1101,.F.);
#1101 = EDGE_CURVE('',#1078,#1102,#1104,.T.);
#1102 = VERTEX_POINT('',#1103);
#1103 = CARTESIAN_POINT('',(-1.817725303495,1.23930412774,4.5));
#1104 = LINE('',#1105,#1106);
#1105 = CARTESIAN_POINT('',(-1.832629679575,1.700431844427,4.5));
#1106 = VECTOR('',#1107,1.);
#1107 = DIRECTION('',(3.230470962712E-02,-0.999478066661,0.));
#1108 = ORIENTED_EDGE('',*,*,#1087,.T.);
#1109 = ORIENTED_EDGE('',*,*,#566,.F.);
#1110 = ORIENTED_EDGE('',*,*,#1111,.F.);
#1111 = EDGE_CURVE('',#1102,#559,#1112,.T.);
#1112 = LINE('',#1113,#1114);
#1113 = CARTESIAN_POINT('',(-1.817725303495,1.23930412774,4.5));
#1114 = VECTOR('',#1115,1.);
#1115 = DIRECTION('',(0.,0.,1.));
#1116 = PLANE('',#1117);
#1117 = AXIS2_PLACEMENT_3D('',#1118,#1119,#1120);
#1118 = CARTESIAN_POINT('',(-1.832629679575,1.700431844427,4.5));
#1119 = DIRECTION('',(0.999478066661,3.230470962712E-02,-0.));
#1120 = DIRECTION('',(3.230470962712E-02,-0.999478066661,0.));
#1121 = ADVANCED_FACE('',(#1122),#1140,.T.);
#1122 = FACE_BOUND('',#1123,.T.);
#1123 = EDGE_LOOP('',(#1124,#1132,#1133,#1134));
#1124 = ORIENTED_EDGE('',*,*,#1125,.F.);
#1125 = EDGE_CURVE('',#1102,#1126,#1128,.T.);
#1126 = VERTEX_POINT('',#1127);
#1127 = CARTESIAN_POINT('',(-2.252422169756,1.084709347794,4.5));
#1128 = LINE('',#1129,#1130);
#1129 = CARTESIAN_POINT('',(-1.817725303495,1.23930412774,4.5));
#1130 = VECTOR('',#1131,1.);
#1131 = DIRECTION('',(-0.942190130307,-0.335078734556,0.));
#1132 = ORIENTED_EDGE('',*,*,#1111,.T.);
#1133 = ORIENTED_EDGE('',*,*,#558,.F.);
#1134 = ORIENTED_EDGE('',*,*,#1135,.F.);
#1135 = EDGE_CURVE('',#1126,#551,#1136,.T.);
#1136 = LINE('',#1137,#1138);
#1137 = CARTESIAN_POINT('',(-2.252422169756,1.084709347794,4.5));
#1138 = VECTOR('',#1139,1.);
#1139 = DIRECTION('',(0.,0.,1.));
#1140 = PLANE('',#1141);
#1141 = AXIS2_PLACEMENT_3D('',#1142,#1143,#1144);
#1142 = CARTESIAN_POINT('',(-1.817725303495,1.23930412774,4.5));
#1143 = DIRECTION('',(0.335078734556,-0.942190130307,0.));
#1144 = DIRECTION('',(-0.942190130307,-0.335078734556,0.));
#1145 = ADVANCED_FACE('',(#1146),#1164,.T.);
#1146 = FACE_BOUND('',#1147,.T.);
#1147 = EDGE_LOOP('',(#1148,#1156,#1157,#1158));
#1148 = ORIENTED_EDGE('',*,*,#1149,.F.);
#1149 = EDGE_CURVE('',#1126,#1150,#1152,.T.);
#1150 = VERTEX_POINT('',#1151);
#1151 = CARTESIAN_POINT('',(-2.10226017273,0.648461383704,4.5));
#1152 = LINE('',#1153,#1154);
#1153 = CARTESIAN_POINT('',(-2.252422169756,1.084709347794,4.5));
#1154 = VECTOR('',#1155,1.);
#1155 = DIRECTION('',(0.325470833877,-0.94555208016,0.));
#1156 = ORIENTED_EDGE('',*,*,#1135,.T.);
#1157 = ORIENTED_EDGE('',*,*,#550,.F.);
#1158 = ORIENTED_EDGE('',*,*,#1159,.F.);
#1159 = EDGE_CURVE('',#1150,#543,#1160,.T.);
#1160 = LINE('',#1161,#1162);
#1161 = CARTESIAN_POINT('',(-2.10226017273,0.648461383704,4.5));
#1162 = VECTOR('',#1163,1.);
#1163 = DIRECTION('',(0.,0.,1.));
#1164 = PLANE('',#1165);
#1165 = AXIS2_PLACEMENT_3D('',#1166,#1167,#1168);
#1166 = CARTESIAN_POINT('',(-2.252422169756,1.084709347794,4.5));
#1167 = DIRECTION('',(0.94555208016,0.325470833877,-0.));
#1168 = DIRECTION('',(0.325470833877,-0.94555208016,0.));
#1169 = ADVANCED_FACE('',(#1170),#1188,.T.);
#1170 = FACE_BOUND('',#1171,.T.);
#1171 = EDGE_LOOP('',(#1172,#1180,#1181,#1182));
#1172 = ORIENTED_EDGE('',*,*,#1173,.F.);
#1173 = EDGE_CURVE('',#1150,#1174,#1176,.T.);
#1174 = VERTEX_POINT('',#1175);
#1175 = CARTESIAN_POINT('',(-2.472077065563,0.37260566544,4.5));
#1176 = LINE('',#1177,#1178);
#1177 = CARTESIAN_POINT('',(-2.10226017273,0.648461383704,4.5));
#1178 = VECTOR('',#1179,1.);
#1179 = DIRECTION('',(-0.801565075556,-0.597907542726,0.));
#1180 = ORIENTED_EDGE('',*,*,#1159,.T.);
#1181 = ORIENTED_EDGE('',*,*,#542,.F.);
#1182 = ORIENTED_EDGE('',*,*,#1183,.F.);
#1183 = EDGE_CURVE('',#1174,#535,#1184,.T.);
#1184 = LINE('',#1185,#1186);
#1185 = CARTESIAN_POINT('',(-2.472077065563,0.37260566544,4.5));
#1186 = VECTOR('',#1187,1.);
#1187 = DIRECTION('',(0.,0.,1.));
#1188 = PLANE('',#1189);
#1189 = AXIS2_PLACEMENT_3D('',#1190,#1191,#1192);
#1190 = CARTESIAN_POINT('',(-2.10226017273,0.648461383704,4.5));
#1191 = DIRECTION('',(0.597907542726,-0.801565075556,0.));
#1192 = DIRECTION('',(-0.801565075556,-0.597907542726,0.));
#1193 = ADVANCED_FACE('',(#1194),#1212,.T.);
#1194 = FACE_BOUND('',#1195,.T.);
#1195 = EDGE_LOOP('',(#1196,#1204,#1205,#1206));
#1196 = ORIENTED_EDGE('',*,*,#1197,.F.);
#1197 = EDGE_CURVE('',#1174,#1198,#1200,.T.);
#1198 = VERTEX_POINT('',#1199);
#1199 = CARTESIAN_POINT('',(-2.2,2.694222958124E-16,4.5));
#1200 = LINE('',#1201,#1202);
#1201 = CARTESIAN_POINT('',(-2.472077065563,0.37260566544,4.5));
#1202 = VECTOR('',#1203,1.);
#1203 = DIRECTION('',(0.589717446232,-0.807609641851,0.));
#1204 = ORIENTED_EDGE('',*,*,#1183,.T.);
#1205 = ORIENTED_EDGE('',*,*,#534,.F.);
#1206 = ORIENTED_EDGE('',*,*,#1207,.F.);
#1207 = EDGE_CURVE('',#1198,#527,#1208,.T.);
#1208 = LINE('',#1209,#1210);
#1209 = CARTESIAN_POINT('',(-2.2,2.694222958124E-16,4.5));
#1210 = VECTOR('',#1211,1.);
#1211 = DIRECTION('',(0.,0.,1.));
#1212 = PLANE('',#1213);
#1213 = AXIS2_PLACEMENT_3D('',#1214,#1215,#1216);
#1214 = CARTESIAN_POINT('',(-2.472077065563,0.37260566544,4.5));
#1215 = DIRECTION('',(0.807609641851,0.589717446232,-0.));
#1216 = DIRECTION('',(0.589717446232,-0.807609641851,0.));
#1217 = ADVANCED_FACE('',(#1218),#1236,.T.);
#1218 = FACE_BOUND('',#1219,.T.);
#1219 = EDGE_LOOP('',(#1220,#1228,#1229,#1230));
#1220 = ORIENTED_EDGE('',*,*,#1221,.F.);
#1221 = EDGE_CURVE('',#1198,#1222,#1224,.T.);
#1222 = VERTEX_POINT('',#1223);
#1223 = CARTESIAN_POINT('',(-2.472077065563,-0.37260566544,4.5));
#1224 = LINE('',#1225,#1226);
#1225 = CARTESIAN_POINT('',(-2.2,2.694222958124E-16,4.5));
#1226 = VECTOR('',#1227,1.);
#1227 = DIRECTION('',(-0.589717446232,-0.807609641851,0.));
#1228 = ORIENTED_EDGE('',*,*,#1207,.T.);
#1229 = ORIENTED_EDGE('',*,*,#526,.F.);
#1230 = ORIENTED_EDGE('',*,*,#1231,.F.);
#1231 = EDGE_CURVE('',#1222,#519,#1232,.T.);
#1232 = LINE('',#1233,#1234);
#1233 = CARTESIAN_POINT('',(-2.472077065563,-0.37260566544,4.5));
#1234 = VECTOR('',#1235,1.);
#1235 = DIRECTION('',(0.,0.,1.));
#1236 = PLANE('',#1237);
#1237 = AXIS2_PLACEMENT_3D('',#1238,#1239,#1240);
#1238 = CARTESIAN_POINT('',(-2.2,2.694222958124E-16,4.5));
#1239 = DIRECTION('',(0.807609641851,-0.589717446232,0.));
#1240 = DIRECTION('',(-0.589717446232,-0.807609641851,0.));
#1241 = ADVANCED_FACE('',(#1242),#1260,.T.);
#1242 = FACE_BOUND('',#1243,.T.);
#1243 = EDGE_LOOP('',(#1244,#1252,#1253,#1254));
#1244 = ORIENTED_EDGE('',*,*,#1245,.F.);
#1245 = EDGE_CURVE('',#1222,#1246,#1248,.T.);
#1246 = VERTEX_POINT('',#1247);
#1247 = CARTESIAN_POINT('',(-2.10226017273,-0.648461383704,4.5));
#1248 = LINE('',#1249,#1250);
#1249 = CARTESIAN_POINT('',(-2.472077065563,-0.37260566544,4.5));
#1250 = VECTOR('',#1251,1.);
#1251 = DIRECTION('',(0.801565075556,-0.597907542726,0.));
#1252 = ORIENTED_EDGE('',*,*,#1231,.T.);
#1253 = ORIENTED_EDGE('',*,*,#518,.F.);
#1254 = ORIENTED_EDGE('',*,*,#1255,.F.);
#1255 = EDGE_CURVE('',#1246,#511,#1256,.T.);
#1256 = LINE('',#1257,#1258);
#1257 = CARTESIAN_POINT('',(-2.10226017273,-0.648461383704,4.5));
#1258 = VECTOR('',#1259,1.);
#1259 = DIRECTION('',(0.,0.,1.));
#1260 = PLANE('',#1261);
#1261 = AXIS2_PLACEMENT_3D('',#1262,#1263,#1264);
#1262 = CARTESIAN_POINT('',(-2.472077065563,-0.37260566544,4.5));
#1263 = DIRECTION('',(0.597907542726,0.801565075556,-0.));
#1264 = DIRECTION('',(0.801565075556,-0.597907542726,0.));
#1265 = ADVANCED_FACE('',(#1266),#1284,.T.);
#1266 = FACE_BOUND('',#1267,.T.);
#1267 = EDGE_LOOP('',(#1268,#1276,#1277,#1278));
#1268 = ORIENTED_EDGE('',*,*,#1269,.F.);
#1269 = EDGE_CURVE('',#1246,#1270,#1272,.T.);
#1270 = VERTEX_POINT('',#1271);
#1271 = CARTESIAN_POINT('',(-2.252422169756,-1.084709347794,4.5));
#1272 = LINE('',#1273,#1274);
#1273 = CARTESIAN_POINT('',(-2.10226017273,-0.648461383704,4.5));
#1274 = VECTOR('',#1275,1.);
#1275 = DIRECTION('',(-0.325470833877,-0.94555208016,0.));
#1276 = ORIENTED_EDGE('',*,*,#1255,.T.);
#1277 = ORIENTED_EDGE('',*,*,#510,.F.);
#1278 = ORIENTED_EDGE('',*,*,#1279,.F.);
#1279 = EDGE_CURVE('',#1270,#503,#1280,.T.);
#1280 = LINE('',#1281,#1282);
#1281 = CARTESIAN_POINT('',(-2.252422169756,-1.084709347794,4.5));
#1282 = VECTOR('',#1283,1.);
#1283 = DIRECTION('',(0.,0.,1.));
#1284 = PLANE('',#1285);
#1285 = AXIS2_PLACEMENT_3D('',#1286,#1287,#1288);
#1286 = CARTESIAN_POINT('',(-2.10226017273,-0.648461383704,4.5));
#1287 = DIRECTION('',(0.94555208016,-0.325470833877,0.));
#1288 = DIRECTION('',(-0.325470833877,-0.94555208016,0.));
#1289 = ADVANCED_FACE('',(#1290),#1308,.T.);
#1290 = FACE_BOUND('',#1291,.T.);
#1291 = EDGE_LOOP('',(#1292,#1300,#1301,#1302));
#1292 = ORIENTED_EDGE('',*,*,#1293,.F.);
#1293 = EDGE_CURVE('',#1270,#1294,#1296,.T.);
#1294 = VERTEX_POINT('',#1295);
#1295 = CARTESIAN_POINT('',(-1.817725303495,-1.23930412774,4.5));
#1296 = LINE('',#1297,#1298);
#1297 = CARTESIAN_POINT('',(-2.252422169756,-1.084709347794,4.5));
#1298 = VECTOR('',#1299,1.);
#1299 = DIRECTION('',(0.942190130307,-0.335078734556,0.));
#1300 = ORIENTED_EDGE('',*,*,#1279,.T.);
#1301 = ORIENTED_EDGE('',*,*,#502,.F.);
#1302 = ORIENTED_EDGE('',*,*,#1303,.F.);
#1303 = EDGE_CURVE('',#1294,#495,#1304,.T.);
#1304 = LINE('',#1305,#1306);
#1305 = CARTESIAN_POINT('',(-1.817725303495,-1.23930412774,4.5));
#1306 = VECTOR('',#1307,1.);
#1307 = DIRECTION('',(0.,0.,1.));
#1308 = PLANE('',#1309);
#1309 = AXIS2_PLACEMENT_3D('',#1310,#1311,#1312);
#1310 = CARTESIAN_POINT('',(-2.252422169756,-1.084709347794,4.5));
#1311 = DIRECTION('',(0.335078734556,0.942190130307,-0.));
#1312 = DIRECTION('',(0.942190130307,-0.335078734556,0.));
#1313 = ADVANCED_FACE('',(#1314),#1332,.T.);
#1314 = FACE_BOUND('',#1315,.T.);
#1315 = EDGE_LOOP('',(#1316,#1324,#1325,#1326));
#1316 = ORIENTED_EDGE('',*,*,#1317,.F.);
#1317 = EDGE_CURVE('',#1294,#1318,#1320,.T.);
#1318 = VERTEX_POINT('',#1319);
#1319 = CARTESIAN_POINT('',(-1.832629679575,-1.700431844427,4.5));
#1320 = LINE('',#1321,#1322);
#1321 = CARTESIAN_POINT('',(-1.817725303495,-1.23930412774,4.5));
#1322 = VECTOR('',#1323,1.);
#1323 = DIRECTION('',(-3.230470962712E-02,-0.999478066661,0.));
#1324 = ORIENTED_EDGE('',*,*,#1303,.T.);
#1325 = ORIENTED_EDGE('',*,*,#494,.F.);
#1326 = ORIENTED_EDGE('',*,*,#1327,.F.);
#1327 = EDGE_CURVE('',#1318,#487,#1328,.T.);
#1328 = LINE('',#1329,#1330);
#1329 = CARTESIAN_POINT('',(-1.832629679575,-1.700431844427,4.5));
#1330 = VECTOR('',#1331,1.);
#1331 = DIRECTION('',(0.,0.,1.));
#1332 = PLANE('',#1333);
#1333 = AXIS2_PLACEMENT_3D('',#1334,#1335,#1336);
#1334 = CARTESIAN_POINT('',(-1.817725303495,-1.23930412774,4.5));
#1335 = DIRECTION('',(0.999478066661,-3.230470962712E-02,0.));
#1336 = DIRECTION('',(-3.230470962712E-02,-0.999478066661,0.));
#1337 = ADVANCED_FACE('',(#1338),#1356,.T.);
#1338 = FACE_BOUND('',#1339,.T.);
#1339 = EDGE_LOOP('',(#1340,#1348,#1349,#1350));
#1340 = ORIENTED_EDGE('',*,*,#1341,.F.);
#1341 = EDGE_CURVE('',#1318,#1342,#1344,.T.);
#1342 = VERTEX_POINT('',#1343);
#1343 = CARTESIAN_POINT('',(-1.371677564089,-1.72002926143,4.5));
#1344 = LINE('',#1345,#1346);
#1345 = CARTESIAN_POINT('',(-1.832629679575,-1.700431844427,4.5));
#1346 = VECTOR('',#1347,1.);
#1347 = DIRECTION('',(0.999097457247,-4.247671035214E-02,0.));
#1348 = ORIENTED_EDGE('',*,*,#1327,.T.);
#1349 = ORIENTED_EDGE('',*,*,#486,.F.);
#1350 = ORIENTED_EDGE('',*,*,#1351,.F.);
#1351 = EDGE_CURVE('',#1342,#479,#1352,.T.);
#1352 = LINE('',#1353,#1354);
#1353 = CARTESIAN_POINT('',(-1.371677564089,-1.72002926143,4.5));
#1354 = VECTOR('',#1355,1.);
#1355 = DIRECTION('',(0.,0.,1.));
#1356 = PLANE('',#1357);
#1357 = AXIS2_PLACEMENT_3D('',#1358,#1359,#1360);
#1358 = CARTESIAN_POINT('',(-1.832629679575,-1.700431844427,4.5));
#1359 = DIRECTION('',(4.247671035214E-02,0.999097457247,-0.));
#1360 = DIRECTION('',(0.999097457247,-4.247671035214E-02,0.));
#1361 = ADVANCED_FACE('',(#1362),#1380,.T.);
#1362 = FACE_BOUND('',#1363,.T.);
#1363 = EDGE_LOOP('',(#1364,#1372,#1373,#1374));
#1364 = ORIENTED_EDGE('',*,*,#1365,.F.);
#1365 = EDGE_CURVE('',#1342,#1366,#1368,.T.);
#1366 = VERTEX_POINT('',#1367);
#1367 = CARTESIAN_POINT('',(-1.25,-2.165063509461,4.5));
#1368 = LINE('',#1369,#1370);
#1369 = CARTESIAN_POINT('',(-1.371677564089,-1.72002926143,4.5));
#1370 = VECTOR('',#1371,1.);
#1371 = DIRECTION('',(0.26373182984,-0.964596040801,0.));
#1372 = ORIENTED_EDGE('',*,*,#1351,.T.);
#1373 = ORIENTED_EDGE('',*,*,#478,.F.);
#1374 = ORIENTED_EDGE('',*,*,#1375,.F.);
#1375 = EDGE_CURVE('',#1366,#471,#1376,.T.);
#1376 = LINE('',#1377,#1378);
#1377 = CARTESIAN_POINT('',(-1.25,-2.165063509461,4.5));
#1378 = VECTOR('',#1379,1.);
#1379 = DIRECTION('',(0.,0.,1.));
#1380 = PLANE('',#1381);
#1381 = AXIS2_PLACEMENT_3D('',#1382,#1383,#1384);
#1382 = CARTESIAN_POINT('',(-1.371677564089,-1.72002926143,4.5));
#1383 = DIRECTION('',(0.964596040801,0.26373182984,-0.));
#1384 = DIRECTION('',(0.26373182984,-0.964596040801,0.));
#1385 = ADVANCED_FACE('',(#1386),#1404,.T.);
#1386 = FACE_BOUND('',#1387,.T.);
#1387 = EDGE_LOOP('',(#1388,#1396,#1397,#1398));
#1388 = ORIENTED_EDGE('',*,*,#1389,.F.);
#1389 = EDGE_CURVE('',#1366,#1390,#1392,.T.);
#1390 = VERTEX_POINT('',#1391);
#1391 = CARTESIAN_POINT('',(-0.803750253606,-2.047922247017,4.5));
#1392 = LINE('',#1393,#1394);
#1393 = CARTESIAN_POINT('',(-1.25,-2.165063509461,4.5));
#1394 = VECTOR('',#1395,1.);
#1395 = DIRECTION('',(0.967230590644,0.253899555973,0.));
#1396 = ORIENTED_EDGE('',*,*,#1375,.T.);
#1397 = ORIENTED_EDGE('',*,*,#470,.F.);
#1398 = ORIENTED_EDGE('',*,*,#1399,.F.);
#1399 = EDGE_CURVE('',#1390,#463,#1400,.T.);
#1400 = LINE('',#1401,#1402);
#1401 = CARTESIAN_POINT('',(-0.803750253606,-2.047922247017,4.5));
#1402 = VECTOR('',#1403,1.);
#1403 = DIRECTION('',(0.,0.,1.));
#1404 = PLANE('',#1405);
#1405 = AXIS2_PLACEMENT_3D('',#1406,#1407,#1408);
#1406 = CARTESIAN_POINT('',(-1.25,-2.165063509461,4.5));
#1407 = DIRECTION('',(-0.253899555973,0.967230590644,0.));
#1408 = DIRECTION('',(0.967230590644,0.253899555973,0.));
#1409 = ADVANCED_FACE('',(#1410),#1428,.T.);
#1410 = FACE_BOUND('',#1411,.T.);
#1411 = EDGE_LOOP('',(#1412,#1420,#1421,#1422));
#1412 = ORIENTED_EDGE('',*,*,#1413,.F.);
#1413 = EDGE_CURVE('',#1390,#1414,#1416,.T.);
#1414 = VERTEX_POINT('',#1415);
#1415 = CARTESIAN_POINT('',(-0.556302334891,-2.437319780455,4.5));
#1416 = LINE('',#1417,#1418);
#1417 = CARTESIAN_POINT('',(-0.803750253606,-2.047922247017,4.5));
#1418 = VECTOR('',#1419,1.);
#1419 = DIRECTION('',(0.536334638858,-0.844005423656,0.));
#1420 = ORIENTED_EDGE('',*,*,#1399,.T.);
#1421 = ORIENTED_EDGE('',*,*,#462,.F.);
#1422 = ORIENTED_EDGE('',*,*,#1423,.F.);
#1423 = EDGE_CURVE('',#1414,#455,#1424,.T.);
#1424 = LINE('',#1425,#1426);
#1425 = CARTESIAN_POINT('',(-0.556302334891,-2.437319780455,4.5));
#1426 = VECTOR('',#1427,1.);
#1427 = DIRECTION('',(0.,0.,1.));
#1428 = PLANE('',#1429);
#1429 = AXIS2_PLACEMENT_3D('',#1430,#1431,#1432);
#1430 = CARTESIAN_POINT('',(-0.803750253606,-2.047922247017,4.5));
#1431 = DIRECTION('',(0.844005423656,0.536334638858,-0.));
#1432 = DIRECTION('',(0.536334638858,-0.844005423656,0.));
#1433 = ADVANCED_FACE('',(#1434),#1452,.T.);
#1434 = FACE_BOUND('',#1435,.T.);
#1435 = EDGE_LOOP('',(#1436,#1444,#1445,#1446));
#1436 = ORIENTED_EDGE('',*,*,#1437,.F.);
#1437 = EDGE_CURVE('',#1414,#1438,#1440,.T.);
#1438 = VERTEX_POINT('',#1439);
#1439 = CARTESIAN_POINT('',(-0.16440620589,-2.193848353799,4.5));
#1440 = LINE('',#1441,#1442);
#1441 = CARTESIAN_POINT('',(-0.556302334891,-2.437319780455,4.5));
#1442 = VECTOR('',#1443,1.);
#1443 = DIRECTION('',(0.84942104144,0.527715732529,0.));
#1444 = ORIENTED_EDGE('',*,*,#1423,.T.);
#1445 = ORIENTED_EDGE('',*,*,#454,.F.);
#1446 = ORIENTED_EDGE('',*,*,#1447,.F.);
#1447 = EDGE_CURVE('',#1438,#447,#1448,.T.);
#1448 = LINE('',#1449,#1450);
#1449 = CARTESIAN_POINT('',(-0.16440620589,-2.193848353799,4.5));
#1450 = VECTOR('',#1451,1.);
#1451 = DIRECTION('',(0.,0.,1.));
#1452 = PLANE('',#1453);
#1453 = AXIS2_PLACEMENT_3D('',#1454,#1455,#1456);
#1454 = CARTESIAN_POINT('',(-0.556302334891,-2.437319780455,4.5));
#1455 = DIRECTION('',(-0.527715732529,0.84942104144,0.));
#1456 = DIRECTION('',(0.84942104144,0.527715732529,0.));
#1457 = ADVANCED_FACE('',(#1458),#1476,.T.);
#1458 = FACE_BOUND('',#1459,.T.);
#1459 = EDGE_LOOP('',(#1460,#1468,#1469,#1470));
#1460 = ORIENTED_EDGE('',*,*,#1461,.F.);
#1461 = EDGE_CURVE('',#1438,#1462,#1464,.T.);
#1462 = VERTEX_POINT('',#1463);
#1463 = CARTESIAN_POINT('',(0.186825233966,-2.493009492953,4.5));
#1464 = LINE('',#1465,#1466);
#1465 = CARTESIAN_POINT('',(-0.16440620589,-2.193848353799,4.5));
#1466 = VECTOR('',#1467,1.);
#1467 = DIRECTION('',(0.761281761547,-0.648421220763,0.));
#1468 = ORIENTED_EDGE('',*,*,#1447,.T.);
#1469 = ORIENTED_EDGE('',*,*,#446,.F.);
#1470 = ORIENTED_EDGE('',*,*,#1471,.F.);
#1471 = EDGE_CURVE('',#1462,#439,#1472,.T.);
#1472 = LINE('',#1473,#1474);
#1473 = CARTESIAN_POINT('',(0.186825233966,-2.493009492953,4.5));
#1474 = VECTOR('',#1475,1.);
#1475 = DIRECTION('',(0.,0.,1.));
#1476 = PLANE('',#1477);
#1477 = AXIS2_PLACEMENT_3D('',#1478,#1479,#1480);
#1478 = CARTESIAN_POINT('',(-0.16440620589,-2.193848353799,4.5));
#1479 = DIRECTION('',(0.648421220763,0.761281761547,-0.));
#1480 = DIRECTION('',(0.761281761547,-0.648421220763,0.));
#1481 = ADVANCED_FACE('',(#1482),#1500,.T.);
#1482 = FACE_BOUND('',#1483,.T.);
#1483 = EDGE_LOOP('',(#1484,#1492,#1493,#1494));
#1484 = ORIENTED_EDGE('',*,*,#1485,.F.);
#1485 = EDGE_CURVE('',#1462,#1486,#1488,.T.);
#1486 = VERTEX_POINT('',#1487);
#1487 = CARTESIAN_POINT('',(0.489546054704,-2.1448414068,4.5));
#1488 = LINE('',#1489,#1490);
#1489 = CARTESIAN_POINT('',(0.186825233966,-2.493009492953,4.5));
#1490 = VECTOR('',#1491,1.);
#1491 = DIRECTION('',(0.656136705082,0.754642050408,0.));
#1492 = ORIENTED_EDGE('',*,*,#1471,.T.);
#1493 = ORIENTED_EDGE('',*,*,#438,.F.);
#1494 = ORIENTED_EDGE('',*,*,#1495,.F.);
#1495 = EDGE_CURVE('',#1486,#431,#1496,.T.);
#1496 = LINE('',#1497,#1498);
#1497 = CARTESIAN_POINT('',(0.489546054704,-2.1448414068,4.5));
#1498 = VECTOR('',#1499,1.);
#1499 = DIRECTION('',(0.,0.,1.));
#1500 = PLANE('',#1501);
#1501 = AXIS2_PLACEMENT_3D('',#1502,#1503,#1504);
#1502 = CARTESIAN_POINT('',(0.186825233966,-2.493009492953,4.5));
#1503 = DIRECTION('',(-0.754642050408,0.656136705082,0.));
#1504 = DIRECTION('',(0.656136705082,0.754642050408,0.));
#1505 = ADVANCED_FACE('',(#1506),#1524,.T.);
#1506 = FACE_BOUND('',#1507,.T.);
#1507 = EDGE_LOOP('',(#1508,#1516,#1517,#1518));
#1508 = ORIENTED_EDGE('',*,*,#1509,.F.);
#1509 = EDGE_CURVE('',#1486,#1510,#1512,.T.);
#1510 = VERTEX_POINT('',#1511);
#1511 = CARTESIAN_POINT('',(0.913352560916,-2.327184371611,4.5));
#1512 = LINE('',#1513,#1514);
#1513 = CARTESIAN_POINT('',(0.489546054704,-2.1448414068,4.5));
#1514 = VECTOR('',#1515,1.);
#1515 = DIRECTION('',(0.918585658893,-0.395221946855,0.));
#1516 = ORIENTED_EDGE('',*,*,#1495,.T.);
#1517 = ORIENTED_EDGE('',*,*,#430,.F.);
#1518 = ORIENTED_EDGE('',*,*,#1519,.F.);
#1519 = EDGE_CURVE('',#1510,#423,#1520,.T.);
#1520 = LINE('',#1521,#1522);
#1521 = CARTESIAN_POINT('',(0.913352560916,-2.327184371611,4.5));
#1522 = VECTOR('',#1523,1.);
#1523 = DIRECTION('',(0.,0.,1.));
#1524 = PLANE('',#1525);
#1525 = AXIS2_PLACEMENT_3D('',#1526,#1527,#1528);
#1526 = CARTESIAN_POINT('',(0.489546054704,-2.1448414068,4.5));
#1527 = DIRECTION('',(0.395221946855,0.918585658893,-0.));
#1528 = DIRECTION('',(0.918585658893,-0.395221946855,0.));
#1529 = ADVANCED_FACE('',(#1530),#1548,.T.);
#1530 = FACE_BOUND('',#1531,.T.);
#1531 = EDGE_LOOP('',(#1532,#1540,#1541,#1542));
#1532 = ORIENTED_EDGE('',*,*,#1533,.F.);
#1533 = EDGE_CURVE('',#1510,#1534,#1536,.T.);
#1534 = VERTEX_POINT('',#1535);
#1535 = CARTESIAN_POINT('',(1.1,-1.905255888326,4.5));
#1536 = LINE('',#1537,#1538);
#1537 = CARTESIAN_POINT('',(0.913352560916,-2.327184371611,4.5));
#1538 = VECTOR('',#1539,1.);
#1539 = DIRECTION('',(0.404551743068,0.914515110417,0.));
#1540 = ORIENTED_EDGE('',*,*,#1519,.T.);
#1541 = ORIENTED_EDGE('',*,*,#422,.F.);
#1542 = ORIENTED_EDGE('',*,*,#1543,.F.);
#1543 = EDGE_CURVE('',#1534,#415,#1544,.T.);
#1544 = LINE('',#1545,#1546);
#1545 = CARTESIAN_POINT('',(1.1,-1.905255888326,4.5));
#1546 = VECTOR('',#1547,1.);
#1547 = DIRECTION('',(0.,0.,1.));
#1548 = PLANE('',#1549);
#1549 = AXIS2_PLACEMENT_3D('',#1550,#1551,#1552);
#1550 = CARTESIAN_POINT('',(0.913352560916,-2.327184371611,4.5));
#1551 = DIRECTION('',(-0.914515110417,0.404551743068,0.));
#1552 = DIRECTION('',(0.404551743068,0.914515110417,0.));
#1553 = ADVANCED_FACE('',(#1554),#1572,.T.);
#1554 = FACE_BOUND('',#1555,.T.);
#1555 = EDGE_LOOP('',(#1556,#1564,#1565,#1566));
#1556 = ORIENTED_EDGE('',*,*,#1557,.F.);
#1557 = EDGE_CURVE('',#1534,#1558,#1560,.T.);
#1558 = VERTEX_POINT('',#1559);
#1559 = CARTESIAN_POINT('',(1.558724504647,-1.95457870617,4.5));
#1560 = LINE('',#1561,#1562);
#1561 = CARTESIAN_POINT('',(1.1,-1.905255888326,4.5));
#1562 = VECTOR('',#1563,1.);
#1563 = DIRECTION('',(0.9942691893,-0.106905468566,0.));
#1564 = ORIENTED_EDGE('',*,*,#1543,.T.);
#1565 = ORIENTED_EDGE('',*,*,#414,.F.);
#1566 = ORIENTED_EDGE('',*,*,#1567,.F.);
#1567 = EDGE_CURVE('',#1558,#407,#1568,.T.);
#1568 = LINE('',#1569,#1570);
#1569 = CARTESIAN_POINT('',(1.558724504647,-1.95457870617,4.5));
#1570 = VECTOR('',#1571,1.);
#1571 = DIRECTION('',(0.,0.,1.));
#1572 = PLANE('',#1573);
#1573 = AXIS2_PLACEMENT_3D('',#1574,#1575,#1576);
#1574 = CARTESIAN_POINT('',(1.1,-1.905255888326,4.5));
#1575 = DIRECTION('',(0.106905468566,0.9942691893,-0.));
#1576 = DIRECTION('',(0.9942691893,-0.106905468566,0.));
#1577 = ADVANCED_FACE('',(#1578),#1596,.T.);
#1578 = FACE_BOUND('',#1579,.T.);
#1579 = EDGE_LOOP('',(#1580,#1588,#1589,#1590));
#1580 = ORIENTED_EDGE('',*,*,#1581,.F.);
#1581 = EDGE_CURVE('',#1558,#1582,#1584,.T.);
#1582 = VERTEX_POINT('',#1583);
#1583 = CARTESIAN_POINT('',(1.612714118026,-1.496380023096,4.5));
#1584 = LINE('',#1585,#1586);
#1585 = CARTESIAN_POINT('',(1.558724504647,-1.95457870617,4.5));
#1586 = VECTOR('',#1587,1.);
#1587 = DIRECTION('',(0.117020583337,0.993129489581,0.));
#1588 = ORIENTED_EDGE('',*,*,#1567,.T.);
#1589 = ORIENTED_EDGE('',*,*,#406,.F.);
#1590 = ORIENTED_EDGE('',*,*,#1591,.F.);
#1591 = EDGE_CURVE('',#1582,#399,#1592,.T.);
#1592 = LINE('',#1593,#1594);
#1593 = CARTESIAN_POINT('',(1.612714118026,-1.496380023096,4.5));
#1594 = VECTOR('',#1595,1.);
#1595 = DIRECTION('',(0.,0.,1.));
#1596 = PLANE('',#1597);
#1597 = AXIS2_PLACEMENT_3D('',#1598,#1599,#1600);
#1598 = CARTESIAN_POINT('',(1.558724504647,-1.95457870617,4.5));
#1599 = DIRECTION('',(-0.993129489581,0.117020583337,0.));
#1600 = DIRECTION('',(0.117020583337,0.993129489581,0.));
#1601 = ADVANCED_FACE('',(#1602),#1620,.T.);
#1602 = FACE_BOUND('',#1603,.T.);
#1603 = EDGE_LOOP('',(#1604,#1612,#1613,#1614));
#1604 = ORIENTED_EDGE('',*,*,#1605,.F.);
#1605 = EDGE_CURVE('',#1582,#1606,#1608,.T.);
#1606 = VERTEX_POINT('',#1607);
#1607 = CARTESIAN_POINT('',(2.06559693579,-1.408300145159,4.5));
#1608 = LINE('',#1609,#1610);
#1609 = CARTESIAN_POINT('',(1.612714118026,-1.496380023096,4.5));
#1610 = VECTOR('',#1611,1.);
#1611 = DIRECTION('',(0.981607538959,0.190910029752,0.));
#1612 = ORIENTED_EDGE('',*,*,#1591,.T.);
#1613 = ORIENTED_EDGE('',*,*,#398,.F.);
#1614 = ORIENTED_EDGE('',*,*,#1615,.F.);
#1615 = EDGE_CURVE('',#1606,#391,#1616,.T.);
#1616 = LINE('',#1617,#1618);
#1617 = CARTESIAN_POINT('',(2.06559693579,-1.408300145159,4.5));
#1618 = VECTOR('',#1619,1.);
#1619 = DIRECTION('',(0.,0.,1.));
#1620 = PLANE('',#1621);
#1621 = AXIS2_PLACEMENT_3D('',#1622,#1623,#1624);
#1622 = CARTESIAN_POINT('',(1.612714118026,-1.496380023096,4.5));
#1623 = DIRECTION('',(-0.190910029752,0.981607538959,0.));
#1624 = DIRECTION('',(0.981607538959,0.190910029752,0.));
#1625 = ADVANCED_FACE('',(#1626),#1644,.T.);
#1626 = FACE_BOUND('',#1627,.T.);
#1627 = EDGE_LOOP('',(#1628,#1636,#1637,#1638));
#1628 = ORIENTED_EDGE('',*,*,#1629,.F.);
#1629 = EDGE_CURVE('',#1606,#1630,#1632,.T.);
#1630 = VERTEX_POINT('',#1631);
#1631 = CARTESIAN_POINT('',(1.982131509385,-0.954544226059,4.5));
#1632 = LINE('',#1633,#1634);
#1633 = CARTESIAN_POINT('',(2.06559693579,-1.408300145159,4.5));
#1634 = VECTOR('',#1635,1.);
#1635 = DIRECTION('',(-0.18090836876,0.983499955319,0.));
#1636 = ORIENTED_EDGE('',*,*,#1615,.T.);
#1637 = ORIENTED_EDGE('',*,*,#390,.F.);
#1638 = ORIENTED_EDGE('',*,*,#1639,.F.);
#1639 = EDGE_CURVE('',#1630,#383,#1640,.T.);
#1640 = LINE('',#1641,#1642);
#1641 = CARTESIAN_POINT('',(1.982131509385,-0.954544226059,4.5));
#1642 = VECTOR('',#1643,1.);
#1643 = DIRECTION('',(0.,0.,1.));
#1644 = PLANE('',#1645);
#1645 = AXIS2_PLACEMENT_3D('',#1646,#1647,#1648);
#1646 = CARTESIAN_POINT('',(2.06559693579,-1.408300145159,4.5));
#1647 = DIRECTION('',(-0.983499955319,-0.18090836876,0.));
#1648 = DIRECTION('',(-0.18090836876,0.983499955319,0.));
#1649 = ADVANCED_FACE('',(#1650),#1668,.T.);
#1650 = FACE_BOUND('',#1651,.T.);
#1651 = EDGE_LOOP('',(#1652,#1660,#1661,#1662));
#1652 = ORIENTED_EDGE('',*,*,#1653,.F.);
#1653 = EDGE_CURVE('',#1630,#1654,#1656,.T.);
#1654 = VERTEX_POINT('',#1655);
#1655 = CARTESIAN_POINT('',(2.388932014465,-0.736887936027,4.5));
#1656 = LINE('',#1657,#1658);
#1657 = CARTESIAN_POINT('',(1.982131509385,-0.954544226059,4.5));
#1658 = VECTOR('',#1659,1.);
#1659 = DIRECTION('',(0.881725751067,0.471762334131,0.));
#1660 = ORIENTED_EDGE('',*,*,#1639,.T.);
#1661 = ORIENTED_EDGE('',*,*,#382,.F.);
#1662 = ORIENTED_EDGE('',*,*,#1663,.F.);
#1663 = EDGE_CURVE('',#1654,#375,#1664,.T.);
#1664 = LINE('',#1665,#1666);
#1665 = CARTESIAN_POINT('',(2.388932014465,-0.736887936027,4.5));
#1666 = VECTOR('',#1667,1.);
#1667 = DIRECTION('',(0.,0.,1.));
#1668 = PLANE('',#1669);
#1669 = AXIS2_PLACEMENT_3D('',#1670,#1671,#1672);
#1670 = CARTESIAN_POINT('',(1.982131509385,-0.954544226059,4.5));
#1671 = DIRECTION('',(-0.471762334131,0.881725751067,0.));
#1672 = DIRECTION('',(0.881725751067,0.471762334131,0.));
#1673 = ADVANCED_FACE('',(#1674),#1692,.T.);
#1674 = FACE_BOUND('',#1675,.T.);
#1675 = EDGE_LOOP('',(#1676,#1684,#1685,#1686));
#1676 = ORIENTED_EDGE('',*,*,#1677,.F.);
#1677 = EDGE_CURVE('',#1654,#1678,#1680,.T.);
#1678 = VERTEX_POINT('',#1679);
#1679 = CARTESIAN_POINT('',(2.175427817695,-0.327892985588,4.5));
#1680 = LINE('',#1681,#1682);
#1681 = CARTESIAN_POINT('',(2.388932014465,-0.736887936027,4.5));
#1682 = VECTOR('',#1683,1.);
#1683 = DIRECTION('',(-0.462762818389,0.886482134009,0.));
#1684 = ORIENTED_EDGE('',*,*,#1663,.T.);
#1685 = ORIENTED_EDGE('',*,*,#374,.F.);
#1686 = ORIENTED_EDGE('',*,*,#1687,.F.);
#1687 = EDGE_CURVE('',#1678,#367,#1688,.T.);
#1688 = LINE('',#1689,#1690);
#1689 = CARTESIAN_POINT('',(2.175427817695,-0.327892985588,4.5));
#1690 = VECTOR('',#1691,1.);
#1691 = DIRECTION('',(0.,0.,1.));
#1692 = PLANE('',#1693);
#1693 = AXIS2_PLACEMENT_3D('',#1694,#1695,#1696);
#1694 = CARTESIAN_POINT('',(2.388932014465,-0.736887936027,4.5));
#1695 = DIRECTION('',(-0.886482134009,-0.462762818389,0.));
#1696 = DIRECTION('',(-0.462762818389,0.886482134009,0.));
#1697 = ADVANCED_FACE('',(#1698),#1716,.T.);
#1698 = FACE_BOUND('',#1699,.T.);
#1699 = EDGE_LOOP('',(#1700,#1708,#1709,#1710));
#1700 = ORIENTED_EDGE('',*,*,#1701,.F.);
#1701 = EDGE_CURVE('',#1678,#1702,#1704,.T.);
#1702 = VERTEX_POINT('',#1703);
#1703 = CARTESIAN_POINT('',(2.5,0.,4.5));
#1704 = LINE('',#1705,#1706);
#1705 = CARTESIAN_POINT('',(2.175427817695,-0.327892985588,4.5));
#1706 = VECTOR('',#1707,1.);
#1707 = DIRECTION('',(0.703498760804,0.710696484829,0.));
#1708 = ORIENTED_EDGE('',*,*,#1687,.T.);
#1709 = ORIENTED_EDGE('',*,*,#366,.F.);
#1710 = ORIENTED_EDGE('',*,*,#1711,.F.);
#1711 = EDGE_CURVE('',#1702,#359,#1712,.T.);
#1712 = LINE('',#1713,#1714);
#1713 = CARTESIAN_POINT('',(2.5,0.,4.5));
#1714 = VECTOR('',#1715,1.);
#1715 = DIRECTION('',(0.,0.,1.));
#1716 = PLANE('',#1717);
#1717 = AXIS2_PLACEMENT_3D('',#1718,#1719,#1720);
#1718 = CARTESIAN_POINT('',(2.175427817695,-0.327892985588,4.5));
#1719 = DIRECTION('',(-0.710696484829,0.703498760804,0.));
#1720 = DIRECTION('',(0.703498760804,0.710696484829,0.));
#1721 = ADVANCED_FACE('',(#1722),#1733,.T.);
#1722 = FACE_BOUND('',#1723,.T.);
#1723 = EDGE_LOOP('',(#1724,#1730,#1731,#1732));
#1724 = ORIENTED_EDGE('',*,*,#1725,.F.);
#1725 = EDGE_CURVE('',#1702,#735,#1726,.T.);
#1726 = LINE('',#1727,#1728);
#1727 = CARTESIAN_POINT('',(2.5,0.,4.5));
#1728 = VECTOR('',#1729,1.);
#1729 = DIRECTION('',(-0.703498760804,0.710696484829,0.));
#1730 = ORIENTED_EDGE('',*,*,#1711,.T.);
#1731 = ORIENTED_EDGE('',*,*,#358,.F.);
#1732 = ORIENTED_EDGE('',*,*,#744,.F.);
#1733 = PLANE('',#1734);
#1734 = AXIS2_PLACEMENT_3D('',#1735,#1736,#1737);
#1735 = CARTESIAN_POINT('',(2.5,0.,4.5));
#1736 = DIRECTION('',(-0.710696484829,-0.703498760804,0.));
#1737 = DIRECTION('',(-0.703498760804,0.710696484829,0.));
#1738 = ADVANCED_FACE('',(#1739,#1783),#1794,.T.);
#1739 = FACE_BOUND('',#1740,.T.);
#1740 = EDGE_LOOP('',(#1741,#1742,#1743,#1744,#1745,#1746,#1747,#1748,
    #1749,#1750,#1751,#1752,#1753,#1754,#1755,#1756,#1757,#1758,#1759,
    #1760,#1761,#1762,#1763,#1764,#1765,#1766,#1767,#1768,#1769,#1770,
    #1771,#1772,#1773,#1774,#1775,#1776,#1777,#1778,#1779,#1780,#1781,
    #1782));
#1741 = ORIENTED_EDGE('',*,*,#1725,.T.);
#1742 = ORIENTED_EDGE('',*,*,#734,.T.);
#1743 = ORIENTED_EDGE('',*,*,#765,.T.);
#1744 = ORIENTED_EDGE('',*,*,#789,.T.);
#1745 = ORIENTED_EDGE('',*,*,#813,.T.);
#1746 = ORIENTED_EDGE('',*,*,#837,.T.);
#1747 = ORIENTED_EDGE('',*,*,#861,.T.);
#1748 = ORIENTED_EDGE('',*,*,#885,.T.);
#1749 = ORIENTED_EDGE('',*,*,#909,.T.);
#1750 = ORIENTED_EDGE('',*,*,#933,.T.);
#1751 = ORIENTED_EDGE('',*,*,#957,.T.);
#1752 = ORIENTED_EDGE('',*,*,#981,.T.);
#1753 = ORIENTED_EDGE('',*,*,#1005,.T.);
#1754 = ORIENTED_EDGE('',*,*,#1029,.T.);
#1755 = ORIENTED_EDGE('',*,*,#1053,.T.);
#1756 = ORIENTED_EDGE('',*,*,#1077,.T.);
#1757 = ORIENTED_EDGE('',*,*,#1101,.T.);
#1758 = ORIENTED_EDGE('',*,*,#1125,.T.);
#1759 = ORIENTED_EDGE('',*,*,#1149,.T.);
#1760 = ORIENTED_EDGE('',*,*,#1173,.T.);
#1761 = ORIENTED_EDGE('',*,*,#1197,.T.);
#1762 = ORIENTED_EDGE('',*,*,#1221,.T.);
#1763 = ORIENTED_EDGE('',*,*,#1245,.T.);
#1764 = ORIENTED_EDGE('',*,*,#1269,.T.);
#1765 = ORIENTED_EDGE('',*,*,#1293,.T.);
#1766 = ORIENTED_EDGE('',*,*,#1317,.T.);
#1767 = ORIENTED_EDGE('',*,*,#1341,.T.);
#1768 = ORIENTED_EDGE('',*,*,#1365,.T.);
#1769 = ORIENTED_EDGE('',*,*,#1389,.T.);
#1770 = ORIENTED_EDGE('',*,*,#1413,.T.);
#1771 = ORIENTED_EDGE('',*,*,#1437,.T.);
#1772 = ORIENTED_EDGE('',*,*,#1461,.T.);
#1773 = ORIENTED_EDGE('',*,*,#1485,.T.);
#1774 = ORIENTED_EDGE('',*,*,#1509,.T.);
#1775 = ORIENTED_EDGE('',*,*,#1533,.T.);
#1776 = ORIENTED_EDGE('',*,*,#1557,.T.);
#1777 = ORIENTED_EDGE('',*,*,#1581,.T.);
#1778 = ORIENTED_EDGE('',*,*,#1605,.T.);
#1779 = ORIENTED_EDGE('',*,*,#1629,.T.);
#1780 = ORIENTED_EDGE('',*,*,#1653,.T.);
#1781 = ORIENTED_EDGE('',*,*,#1677,.T.);
#1782 = ORIENTED_EDGE('',*,*,#1701,.T.);
#1783 = FACE_BOUND('',#1784,.T.);
#1784 = EDGE_LOOP('',(#1785));
#1785 = ORIENTED_EDGE('',*,*,#1786,.F.);
#1786 = EDGE_CURVE('',#1787,#1787,#1789,.T.);
#1787 = VERTEX_POINT('',#1788);
#1788 = CARTESIAN_POINT('',(1.1,-2.694222958124E-16,4.5));
#1789 = CIRCLE('',#1790,1.1);
#1790 = AXIS2_PLACEMENT_3D('',#1791,#1792,#1793);
#1791 = CARTESIAN_POINT('',(0.,0.,4.5));
#1792 = DIRECTION('',(0.,0.,1.));
#1793 = DIRECTION('',(1.,0.,-0.));
#1794 = PLANE('',#1795);
#1795 = AXIS2_PLACEMENT_3D('',#1796,#1797,#1798);
#1796 = CARTESIAN_POINT('',(-9.167120989189E-17,-8.880648458277E-17,4.5)
  );
#1797 = DIRECTION('',(0.,0.,1.));
#1798 = DIRECTION('',(1.,0.,-0.));
#1799 = ADVANCED_FACE('',(#1800),#1819,.F.);
#1800 = FACE_BOUND('',#1801,.F.);
#1801 = EDGE_LOOP('',(#1802,#1803,#1811,#1818));
#1802 = ORIENTED_EDGE('',*,*,#1786,.F.);
#1803 = ORIENTED_EDGE('',*,*,#1804,.F.);
#1804 = EDGE_CURVE('',#1805,#1787,#1807,.T.);
#1805 = VERTEX_POINT('',#1806);
#1806 = CARTESIAN_POINT('',(1.1,-2.694222958124E-16,0.));
#1807 = LINE('',#1808,#1809);
#1808 = CARTESIAN_POINT('',(1.1,-2.694222958124E-16,-1.));
#1809 = VECTOR('',#1810,1.);
#1810 = DIRECTION('',(0.,0.,1.));
#1811 = ORIENTED_EDGE('',*,*,#1812,.T.);
#1812 = EDGE_CURVE('',#1805,#1805,#1813,.T.);
#1813 = CIRCLE('',#1814,1.1);
#1814 = AXIS2_PLACEMENT_3D('',#1815,#1816,#1817);
#1815 = CARTESIAN_POINT('',(0.,0.,0.));
#1816 = DIRECTION('',(0.,0.,1.));
#1817 = DIRECTION('',(1.,0.,-0.));
#1818 = ORIENTED_EDGE('',*,*,#1804,.T.);
#1819 = CYLINDRICAL_SURFACE('',#1820,1.1);
#1820 = AXIS2_PLACEMENT_3D('',#1821,#1822,#1823);
#1821 = CARTESIAN_POINT('',(0.,0.,-1.));
#1822 = DIRECTION('',(0.,0.,1.));
#1823 = DIRECTION('',(1.,0.,-0.));
#1824 = ADVANCED_FACE('',(#1825,#1835,#1838,#1841),#1844,.T.);
#1825 = FACE_BOUND('',#1826,.T.);
#1826 = EDGE_LOOP('',(#1827,#1828,#1829,#1830,#1831,#1832,#1833,#1834));
#1827 = ORIENTED_EDGE('',*,*,#128,.T.);
#1828 = ORIENTED_EDGE('',*,*,#187,.F.);
#1829 = ORIENTED_EDGE('',*,*,#321,.T.);
#1830 = ORIENTED_EDGE('',*,*,#693,.F.);
#1831 = ORIENTED_EDGE('',*,*,#297,.F.);
#1832 = ORIENTED_EDGE('',*,*,#197,.F.);
#1833 = ORIENTED_EDGE('',*,*,#61,.F.);
#1834 = ORIENTED_EDGE('',*,*,#31,.T.);
#1835 = FACE_BOUND('',#1836,.T.);
#1836 = EDGE_LOOP('',(#1837));
#1837 = ORIENTED_EDGE('',*,*,#1812,.T.);
#1838 = FACE_BOUND('',#1839,.T.);
#1839 = EDGE_LOOP('',(#1840));
#1840 = ORIENTED_EDGE('',*,*,#238,.T.);
#1841 = FACE_BOUND('',#1842,.T.);
#1842 = EDGE_LOOP('',(#1843));
#1843 = ORIENTED_EDGE('',*,*,#718,.T.);
#1844 = PLANE('',#1845);
#1845 = AXIS2_PLACEMENT_3D('',#1846,#1847,#1848);
#1846 = CARTESIAN_POINT('',(-8.236875689758E-16,-8.236875689758E-17,0.)
  );
#1847 = DIRECTION('',(-0.,-0.,-1.));
#1848 = DIRECTION('',(-1.,0.,0.));
#1849 = ( GEOMETRIC_REPRESENTATION_CONTEXT(3) 
GLOBAL_UNCERTAINTY_ASSIGNED_CONTEXT((#1853)) 
GLOBAL_UNIT_ASSIGNED_CONTEXT((#1850,#1851,#1852)) REPRESENTATION_CONTEXT
('Context #1','3D Context with UNIT and UNCERTAINTY') );
#1850 = ( LENGTH_UNIT() NAMED_UNIT(*) SI_UNIT(.MILLI.,.METRE.) );
#1851 = ( NAMED_UNIT(*) PLANE_ANGLE_UNIT() SI_UNIT($,.RADIAN.) );
#1852 = ( NAMED_UNIT(*) SI_UNIT($,.STERADIAN.) SOLID_ANGLE_UNIT() );
#1853 = UNCERTAINTY_MEASURE_WITH_UNIT(LENGTH_MEASURE(1.E-07),#1850,
  'distance_accuracy_value','confusion accuracy');
#1854 = PRODUCT_RELATED_PRODUCT_CATEGORY('part',$,(#7));
ENDSEC;
END-ISO-10303-21;
