ISO-10303-21;
HEADER;
FILE_DESCRIPTION(('FreeCAD Model'),'2;1');
FILE_NAME('Open CASCADE Shape Model','2026-10-10T12:52:42',('FreeCAD'),(
    'FreeCAD'),'Open CASCADE STEP processor 7.8','FreeCAD','Unknown');
FILE_SCHEMA(('AUTOMOTIVE_DESIGN { 1 0 10303 214 1 1 1 1 }'));
ENDSEC;
DATA;
#1 = APPLICATION_PROTOCOL_DEFINITION('international standard',
  'automotive_design',2000,#2);
#2 = APPLICATION_CONTEXT(
  'core data for automotive mechanical design processes');
#3 = SHAPE_DEFINITION_REPRESENTATION(#4,#10);
#4 = PRODUCT_DEFINITION_SHAPE('','',#5);
#5 = PRODUCT_DEFINITION('design','',#6,#9);
#6 = PRODUCT_DEFINITION_FORMATION('','',#7);
#7 = PRODUCT('Open CASCADE STEP translator 7.8 8',
  'Open CASCADE STEP translator 7.8 8','',(#8));
#8 = PRODUCT_CONTEXT('',#2,'mechanical');
#9 = PRODUCT_DEFINITION_CONTEXT('part definition',#2,'design');
#10 = ADVANCED_BREP_SHAPE_REPRESENTATION('',(#11,#15),#2148);
#11 = AXIS2_PLACEMENT_3D('',#12,#13,#14);
#12 = CARTESIAN_POINT('',(0.,0.,0.));
#13 = DIRECTION('',(0.,0.,1.));
#14 = DIRECTION('',(1.,0.,-0.));
#15 = MANIFOLD_SOLID_BREP('',#16);
#16 = CLOSED_SHELL('',(#17,#73,#104,#135,#166,#182,#198,#286,#333,#357,
    #421,#659,#684,#709,#734,#758,#789,#814,#838,#869,#900,#918,#949,
    #974,#998,#1029,#1053,#1077,#1094,#1125,#1156,#1174,#1313,#1329,
    #1346,#1362,#1379,#1464,#1495,#1520,#1544,#1568,#1592,#1617,#1641,
    #1658,#1697,#1809,#1834,#1854,#1879,#1924,#1969,#1994,#2019,#2055,
    #2067,#2092,#2106,#2120,#2134));
#17 = ADVANCED_FACE('',(#18),#68,.F.);
#18 = FACE_BOUND('',#19,.F.);
#19 = EDGE_LOOP('',(#20,#30,#38,#46,#54,#62));
#20 = ORIENTED_EDGE('',*,*,#21,.F.);
#21 = EDGE_CURVE('',#22,#24,#26,.T.);
#22 = VERTEX_POINT('',#23);
#23 = CARTESIAN_POINT('',(-16.,-86.85899457832,-90.38465764503));
#24 = VERTEX_POINT('',#25);
#25 = CARTESIAN_POINT('',(16.,-86.85899457832,-90.38465764503));
#26 = LINE('',#27,#28);
#27 = CARTESIAN_POINT('',(-16.,-86.85899457832,-90.38465764503));
#28 = VECTOR('',#29,1.);
#29 = DIRECTION('',(1.,0.,-0.));
#30 = ORIENTED_EDGE('',*,*,#31,.T.);
#31 = EDGE_CURVE('',#22,#32,#34,.T.);
#32 = VERTEX_POINT('',#33);
#33 = CARTESIAN_POINT('',(-16.,-86.85899457832,-84.38465764503));
#34 = LINE('',#35,#36);
#35 = CARTESIAN_POINT('',(-16.,-86.85899457832,-90.38465764503));
#36 = VECTOR('',#37,1.);
#37 = DIRECTION('',(0.,0.,1.));
#38 = ORIENTED_EDGE('',*,*,#39,.T.);
#39 = EDGE_CURVE('',#32,#40,#42,.T.);
#40 = VERTEX_POINT('',#41);
#41 = CARTESIAN_POINT('',(-11.,-86.85899457832,-84.38465764503));
#42 = LINE('',#43,#44);
#43 = CARTESIAN_POINT('',(-16.,-86.85899457832,-84.38465764503));
#44 = VECTOR('',#45,1.);
#45 = DIRECTION('',(1.,0.,-0.));
#46 = ORIENTED_EDGE('',*,*,#47,.T.);
#47 = EDGE_CURVE('',#40,#48,#50,.T.);
#48 = VERTEX_POINT('',#49);
#49 = CARTESIAN_POINT('',(11.,-86.85899457832,-84.38465764503));
#50 = LINE('',#51,#52);
#51 = CARTESIAN_POINT('',(-16.,-86.85899457832,-84.38465764503));
#52 = VECTOR('',#53,1.);
#53 = DIRECTION('',(1.,0.,-0.));
#54 = ORIENTED_EDGE('',*,*,#55,.T.);
#55 = EDGE_CURVE('',#48,#56,#58,.T.);
#56 = VERTEX_POINT('',#57);
#57 = CARTESIAN_POINT('',(16.,-86.85899457832,-84.38465764503));
#58 = LINE('',#59,#60);
#59 = CARTESIAN_POINT('',(-16.,-86.85899457832,-84.38465764503));
#60 = VECTOR('',#61,1.);
#61 = DIRECTION('',(1.,0.,-0.));
#62 = ORIENTED_EDGE('',*,*,#63,.F.);
#63 = EDGE_CURVE('',#24,#56,#64,.T.);
#64 = LINE('',#65,#66);
#65 = CARTESIAN_POINT('',(16.,-86.85899457832,-90.38465764503));
#66 = VECTOR('',#67,1.);
#67 = DIRECTION('',(0.,0.,1.));
#68 = PLANE('',#69);
#69 = AXIS2_PLACEMENT_3D('',#70,#71,#72);
#70 = CARTESIAN_POINT('',(-16.,-86.85899457832,-90.38465764503));
#71 = DIRECTION('',(-0.,1.,0.));
#72 = DIRECTION('',(0.,0.,1.));
#73 = ADVANCED_FACE('',(#74),#99,.T.);
#74 = FACE_BOUND('',#75,.T.);
#75 = EDGE_LOOP('',(#76,#77,#85,#93));
#76 = ORIENTED_EDGE('',*,*,#39,.T.);
#77 = ORIENTED_EDGE('',*,*,#78,.T.);
#78 = EDGE_CURVE('',#40,#79,#81,.T.);
#79 = VERTEX_POINT('',#80);
#80 = CARTESIAN_POINT('',(-11.,-61.85899457832,-59.38465764503));
#81 = LINE('',#82,#83);
#82 = CARTESIAN_POINT('',(-11.,-86.85899457832,-84.38465764503));
#83 = VECTOR('',#84,1.);
#84 = DIRECTION('',(0.,0.707106781187,0.707106781187));
#85 = ORIENTED_EDGE('',*,*,#86,.F.);
#86 = EDGE_CURVE('',#87,#79,#89,.T.);
#87 = VERTEX_POINT('',#88);
#88 = CARTESIAN_POINT('',(-16.,-61.85899457832,-59.38465764503));
#89 = LINE('',#90,#91);
#90 = CARTESIAN_POINT('',(-16.,-61.85899457832,-59.38465764503));
#91 = VECTOR('',#92,1.);
#92 = DIRECTION('',(1.,0.,0.));
#93 = ORIENTED_EDGE('',*,*,#94,.F.);
#94 = EDGE_CURVE('',#32,#87,#95,.T.);
#95 = LINE('',#96,#97);
#96 = CARTESIAN_POINT('',(-16.,-86.85899457832,-84.38465764503));
#97 = VECTOR('',#98,1.);
#98 = DIRECTION('',(0.,0.707106781187,0.707106781187));
#99 = PLANE('',#100);
#100 = AXIS2_PLACEMENT_3D('',#101,#102,#103);
#101 = CARTESIAN_POINT('',(-16.,-86.85899457832,-84.38465764503));
#102 = DIRECTION('',(0.,-0.707106781187,0.707106781187));
#103 = DIRECTION('',(0.,0.707106781187,0.707106781187));
#104 = ADVANCED_FACE('',(#105),#130,.T.);
#105 = FACE_BOUND('',#106,.T.);
#106 = EDGE_LOOP('',(#107,#115,#116,#124));
#107 = ORIENTED_EDGE('',*,*,#108,.T.);
#108 = EDGE_CURVE('',#109,#40,#111,.T.);
#109 = VERTEX_POINT('',#110);
#110 = CARTESIAN_POINT('',(-11.,-61.85899457832,-84.38465764503));
#111 = LINE('',#112,#113);
#112 = CARTESIAN_POINT('',(-11.,-61.85899457832,-84.38465764503));
#113 = VECTOR('',#114,1.);
#114 = DIRECTION('',(0.,-1.,0.));
#115 = ORIENTED_EDGE('',*,*,#47,.T.);
#116 = ORIENTED_EDGE('',*,*,#117,.F.);
#117 = EDGE_CURVE('',#118,#48,#120,.T.);
#118 = VERTEX_POINT('',#119);
#119 = CARTESIAN_POINT('',(11.,-61.85899457832,-84.38465764503));
#120 = LINE('',#121,#122);
#121 = CARTESIAN_POINT('',(11.,-61.85899457832,-84.38465764503));
#122 = VECTOR('',#123,1.);
#123 = DIRECTION('',(0.,-1.,0.));
#124 = ORIENTED_EDGE('',*,*,#125,.T.);
#125 = EDGE_CURVE('',#118,#109,#126,.T.);
#126 = LINE('',#127,#128);
#127 = CARTESIAN_POINT('',(-16.,-61.85899457832,-84.38465764503));
#128 = VECTOR('',#129,1.);
#129 = DIRECTION('',(-1.,-0.,0.));
#130 = PLANE('',#131);
#131 = AXIS2_PLACEMENT_3D('',#132,#133,#134);
#132 = CARTESIAN_POINT('',(-16.,-86.85899457832,-84.38465764503));
#133 = DIRECTION('',(0.,0.,1.));
#134 = DIRECTION('',(1.,0.,-0.));
#135 = ADVANCED_FACE('',(#136),#161,.T.);
#136 = FACE_BOUND('',#137,.T.);
#137 = EDGE_LOOP('',(#138,#139,#147,#155));
#138 = ORIENTED_EDGE('',*,*,#55,.T.);
#139 = ORIENTED_EDGE('',*,*,#140,.T.);
#140 = EDGE_CURVE('',#56,#141,#143,.T.);
#141 = VERTEX_POINT('',#142);
#142 = CARTESIAN_POINT('',(16.,-61.85899457832,-59.38465764503));
#143 = LINE('',#144,#145);
#144 = CARTESIAN_POINT('',(16.,-86.85899457832,-84.38465764503));
#145 = VECTOR('',#146,1.);
#146 = DIRECTION('',(0.,0.707106781187,0.707106781187));
#147 = ORIENTED_EDGE('',*,*,#148,.F.);
#148 = EDGE_CURVE('',#149,#141,#151,.T.);
#149 = VERTEX_POINT('',#150);
#150 = CARTESIAN_POINT('',(11.,-61.85899457832,-59.38465764503));
#151 = LINE('',#152,#153);
#152 = CARTESIAN_POINT('',(11.,-61.85899457832,-59.38465764503));
#153 = VECTOR('',#154,1.);
#154 = DIRECTION('',(1.,0.,0.));
#155 = ORIENTED_EDGE('',*,*,#156,.F.);
#156 = EDGE_CURVE('',#48,#149,#157,.T.);
#157 = LINE('',#158,#159);
#158 = CARTESIAN_POINT('',(11.,-86.85899457832,-84.38465764503));
#159 = VECTOR('',#160,1.);
#160 = DIRECTION('',(0.,0.707106781187,0.707106781187));
#161 = PLANE('',#162);
#162 = AXIS2_PLACEMENT_3D('',#163,#164,#165);
#163 = CARTESIAN_POINT('',(11.,-86.85899457832,-84.38465764503));
#164 = DIRECTION('',(0.,-0.707106781187,0.707106781187));
#165 = DIRECTION('',(0.,0.707106781187,0.707106781187));
#166 = ADVANCED_FACE('',(#167),#177,.F.);
#167 = FACE_BOUND('',#168,.F.);
#168 = EDGE_LOOP('',(#169,#170,#171));
#169 = ORIENTED_EDGE('',*,*,#108,.T.);
#170 = ORIENTED_EDGE('',*,*,#78,.T.);
#171 = ORIENTED_EDGE('',*,*,#172,.T.);
#172 = EDGE_CURVE('',#79,#109,#173,.T.);
#173 = LINE('',#174,#175);
#174 = CARTESIAN_POINT('',(-11.,-61.85899457832,-59.38465764503));
#175 = VECTOR('',#176,1.);
#176 = DIRECTION('',(0.,0.,-1.));
#177 = PLANE('',#178);
#178 = AXIS2_PLACEMENT_3D('',#179,#180,#181);
#179 = CARTESIAN_POINT('',(-11.,-70.69782934315,-75.5458228802));
#180 = DIRECTION('',(-1.,-0.,-0.));
#181 = DIRECTION('',(0.,0.,-1.));
#182 = ADVANCED_FACE('',(#183),#193,.T.);
#183 = FACE_BOUND('',#184,.T.);
#184 = EDGE_LOOP('',(#185,#186,#187));
#185 = ORIENTED_EDGE('',*,*,#117,.T.);
#186 = ORIENTED_EDGE('',*,*,#156,.T.);
#187 = ORIENTED_EDGE('',*,*,#188,.T.);
#188 = EDGE_CURVE('',#149,#118,#189,.T.);
#189 = LINE('',#190,#191);
#190 = CARTESIAN_POINT('',(11.,-61.85899457832,-59.38465764503));
#191 = VECTOR('',#192,1.);
#192 = DIRECTION('',(0.,0.,-1.));
#193 = PLANE('',#194);
#194 = AXIS2_PLACEMENT_3D('',#195,#196,#197);
#195 = CARTESIAN_POINT('',(11.,-70.69782934315,-75.5458228802));
#196 = DIRECTION('',(-1.,-0.,-0.));
#197 = DIRECTION('',(0.,0.,-1.));
#198 = ADVANCED_FACE('',(#199),#281,.T.);
#199 = FACE_BOUND('',#200,.T.);
#200 = EDGE_LOOP('',(#201,#202,#203,#211,#219,#227,#235,#243,#251,#259,
    #267,#275));
#201 = ORIENTED_EDGE('',*,*,#31,.T.);
#202 = ORIENTED_EDGE('',*,*,#94,.T.);
#203 = ORIENTED_EDGE('',*,*,#204,.T.);
#204 = EDGE_CURVE('',#87,#205,#207,.T.);
#205 = VERTEX_POINT('',#206);
#206 = CARTESIAN_POINT('',(-16.,-61.85899457832,12.));
#207 = LINE('',#208,#209);
#208 = CARTESIAN_POINT('',(-16.,-61.85899457832,-90.38465764503));
#209 = VECTOR('',#210,1.);
#210 = DIRECTION('',(0.,0.,1.));
#211 = ORIENTED_EDGE('',*,*,#212,.T.);
#212 = EDGE_CURVE('',#205,#213,#215,.T.);
#213 = VERTEX_POINT('',#214);
#214 = CARTESIAN_POINT('',(-16.,-55.85899457832,12.));
#215 = LINE('',#216,#217);
#216 = CARTESIAN_POINT('',(-16.,-61.85899457832,12.));
#217 = VECTOR('',#218,1.);
#218 = DIRECTION('',(-0.,1.,0.));
#219 = ORIENTED_EDGE('',*,*,#220,.F.);
#220 = EDGE_CURVE('',#221,#213,#223,.T.);
#221 = VERTEX_POINT('',#222);
#222 = CARTESIAN_POINT('',(-16.,-55.85899457832,-84.38465764503));
#223 = LINE('',#224,#225);
#224 = CARTESIAN_POINT('',(-16.,-55.85899457832,-90.38465764503));
#225 = VECTOR('',#226,1.);
#226 = DIRECTION('',(0.,0.,1.));
#227 = ORIENTED_EDGE('',*,*,#228,.T.);
#228 = EDGE_CURVE('',#221,#229,#231,.T.);
#229 = VERTEX_POINT('',#230);
#230 = CARTESIAN_POINT('',(-16.,75.058994578326,-84.38465764503));
#231 = LINE('',#232,#233);
#232 = CARTESIAN_POINT('',(-16.,-86.85899457832,-84.38465764503));
#233 = VECTOR('',#234,1.);
#234 = DIRECTION('',(-0.,1.,0.));
#235 = ORIENTED_EDGE('',*,*,#236,.T.);
#236 = EDGE_CURVE('',#229,#237,#239,.T.);
#237 = VERTEX_POINT('',#238);
#238 = CARTESIAN_POINT('',(-16.,75.058994578326,19.5));
#239 = LINE('',#240,#241);
#240 = CARTESIAN_POINT('',(-16.,75.058994578326,-90.38465764503));
#241 = VECTOR('',#242,1.);
#242 = DIRECTION('',(0.,0.,1.));
#243 = ORIENTED_EDGE('',*,*,#244,.T.);
#244 = EDGE_CURVE('',#237,#245,#247,.T.);
#245 = VERTEX_POINT('',#246);
#246 = CARTESIAN_POINT('',(-16.,81.058994578326,19.5));
#247 = LINE('',#248,#249);
#248 = CARTESIAN_POINT('',(-16.,75.058994578326,19.5));
#249 = VECTOR('',#250,1.);
#250 = DIRECTION('',(-0.,1.,0.));
#251 = ORIENTED_EDGE('',*,*,#252,.F.);
#252 = EDGE_CURVE('',#253,#245,#255,.T.);
#253 = VERTEX_POINT('',#254);
#254 = CARTESIAN_POINT('',(-16.,81.058994578326,-59.38465764503));
#255 = LINE('',#256,#257);
#256 = CARTESIAN_POINT('',(-16.,81.058994578326,-90.38465764503));
#257 = VECTOR('',#258,1.);
#258 = DIRECTION('',(0.,0.,1.));
#259 = ORIENTED_EDGE('',*,*,#260,.F.);
#260 = EDGE_CURVE('',#261,#253,#263,.T.);
#261 = VERTEX_POINT('',#262);
#262 = CARTESIAN_POINT('',(-16.,106.05899457832,-84.38465764503));
#263 = LINE('',#264,#265);
#264 = CARTESIAN_POINT('',(-16.,106.05899457832,-84.38465764503));
#265 = VECTOR('',#266,1.);
#266 = DIRECTION('',(0.,-0.707106781187,0.707106781187));
#267 = ORIENTED_EDGE('',*,*,#268,.F.);
#268 = EDGE_CURVE('',#269,#261,#271,.T.);
#269 = VERTEX_POINT('',#270);
#270 = CARTESIAN_POINT('',(-16.,106.05899457832,-90.38465764503));
#271 = LINE('',#272,#273);
#272 = CARTESIAN_POINT('',(-16.,106.05899457832,-90.38465764503));
#273 = VECTOR('',#274,1.);
#274 = DIRECTION('',(0.,0.,1.));
#275 = ORIENTED_EDGE('',*,*,#276,.F.);
#276 = EDGE_CURVE('',#22,#269,#277,.T.);
#277 = LINE('',#278,#279);
#278 = CARTESIAN_POINT('',(-16.,-86.85899457832,-90.38465764503));
#279 = VECTOR('',#280,1.);
#280 = DIRECTION('',(-0.,1.,0.));
#281 = PLANE('',#282);
#282 = AXIS2_PLACEMENT_3D('',#283,#284,#285);
#283 = CARTESIAN_POINT('',(-16.,10.935202917045,-57.92593310524));
#284 = DIRECTION('',(-1.,-0.,-0.));
#285 = DIRECTION('',(0.,0.,-1.));
#286 = ADVANCED_FACE('',(#287),#328,.T.);
#287 = FACE_BOUND('',#288,.T.);
#288 = EDGE_LOOP('',(#289,#297,#298,#306,#314,#322));
#289 = ORIENTED_EDGE('',*,*,#290,.F.);
#290 = EDGE_CURVE('',#269,#291,#293,.T.);
#291 = VERTEX_POINT('',#292);
#292 = CARTESIAN_POINT('',(16.,106.05899457832,-90.38465764503));
#293 = LINE('',#294,#295);
#294 = CARTESIAN_POINT('',(-16.,106.05899457832,-90.38465764503));
#295 = VECTOR('',#296,1.);
#296 = DIRECTION('',(1.,0.,-0.));
#297 = ORIENTED_EDGE('',*,*,#268,.T.);
#298 = ORIENTED_EDGE('',*,*,#299,.T.);
#299 = EDGE_CURVE('',#261,#300,#302,.T.);
#300 = VERTEX_POINT('',#301);
#301 = CARTESIAN_POINT('',(-11.,106.05899457832,-84.38465764503));
#302 = LINE('',#303,#304);
#303 = CARTESIAN_POINT('',(-16.,106.05899457832,-84.38465764503));
#304 = VECTOR('',#305,1.);
#305 = DIRECTION('',(1.,0.,-0.));
#306 = ORIENTED_EDGE('',*,*,#307,.T.);
#307 = EDGE_CURVE('',#300,#308,#310,.T.);
#308 = VERTEX_POINT('',#309);
#309 = CARTESIAN_POINT('',(11.,106.05899457832,-84.38465764503));
#310 = LINE('',#311,#312);
#311 = CARTESIAN_POINT('',(-16.,106.05899457832,-84.38465764503));
#312 = VECTOR('',#313,1.);
#313 = DIRECTION('',(1.,0.,-0.));
#314 = ORIENTED_EDGE('',*,*,#315,.T.);
#315 = EDGE_CURVE('',#308,#316,#318,.T.);
#316 = VERTEX_POINT('',#317);
#317 = CARTESIAN_POINT('',(16.,106.05899457832,-84.38465764503));
#318 = LINE('',#319,#320);
#319 = CARTESIAN_POINT('',(-16.,106.05899457832,-84.38465764503));
#320 = VECTOR('',#321,1.);
#321 = DIRECTION('',(1.,0.,-0.));
#322 = ORIENTED_EDGE('',*,*,#323,.F.);
#323 = EDGE_CURVE('',#291,#316,#324,.T.);
#324 = LINE('',#325,#326);
#325 = CARTESIAN_POINT('',(16.,106.05899457832,-90.38465764503));
#326 = VECTOR('',#327,1.);
#327 = DIRECTION('',(0.,0.,1.));
#328 = PLANE('',#329);
#329 = AXIS2_PLACEMENT_3D('',#330,#331,#332);
#330 = CARTESIAN_POINT('',(-16.,106.05899457832,-90.38465764503));
#331 = DIRECTION('',(-0.,1.,0.));
#332 = DIRECTION('',(0.,0.,1.));
#333 = ADVANCED_FACE('',(#334),#352,.F.);
#334 = FACE_BOUND('',#335,.F.);
#335 = EDGE_LOOP('',(#336,#337,#345,#351));
#336 = ORIENTED_EDGE('',*,*,#299,.T.);
#337 = ORIENTED_EDGE('',*,*,#338,.T.);
#338 = EDGE_CURVE('',#300,#339,#341,.T.);
#339 = VERTEX_POINT('',#340);
#340 = CARTESIAN_POINT('',(-11.,81.058994578326,-59.38465764503));
#341 = LINE('',#342,#343);
#342 = CARTESIAN_POINT('',(-11.,106.05899457832,-84.38465764503));
#343 = VECTOR('',#344,1.);
#344 = DIRECTION('',(0.,-0.707106781187,0.707106781187));
#345 = ORIENTED_EDGE('',*,*,#346,.F.);
#346 = EDGE_CURVE('',#253,#339,#347,.T.);
#347 = LINE('',#348,#349);
#348 = CARTESIAN_POINT('',(-16.,81.058994578326,-59.38465764503));
#349 = VECTOR('',#350,1.);
#350 = DIRECTION('',(1.,0.,0.));
#351 = ORIENTED_EDGE('',*,*,#260,.F.);
#352 = PLANE('',#353);
#353 = AXIS2_PLACEMENT_3D('',#354,#355,#356);
#354 = CARTESIAN_POINT('',(-16.,106.05899457832,-84.38465764503));
#355 = DIRECTION('',(0.,-0.707106781187,-0.707106781187));
#356 = DIRECTION('',(0.,-0.707106781187,0.707106781187));
#357 = ADVANCED_FACE('',(#358,#383,#394,#405),#416,.T.);
#358 = FACE_BOUND('',#359,.T.);
#359 = EDGE_LOOP('',(#360,#361,#369,#377));
#360 = ORIENTED_EDGE('',*,*,#228,.F.);
#361 = ORIENTED_EDGE('',*,*,#362,.F.);
#362 = EDGE_CURVE('',#363,#221,#365,.T.);
#363 = VERTEX_POINT('',#364);
#364 = CARTESIAN_POINT('',(16.,-55.85899457832,-84.38465764503));
#365 = LINE('',#366,#367);
#366 = CARTESIAN_POINT('',(-16.,-55.85899457832,-84.38465764503));
#367 = VECTOR('',#368,1.);
#368 = DIRECTION('',(-1.,-0.,0.));
#369 = ORIENTED_EDGE('',*,*,#370,.T.);
#370 = EDGE_CURVE('',#363,#371,#373,.T.);
#371 = VERTEX_POINT('',#372);
#372 = CARTESIAN_POINT('',(16.,75.058994578326,-84.38465764503));
#373 = LINE('',#374,#375);
#374 = CARTESIAN_POINT('',(16.,-86.85899457832,-84.38465764503));
#375 = VECTOR('',#376,1.);
#376 = DIRECTION('',(-0.,1.,0.));
#377 = ORIENTED_EDGE('',*,*,#378,.T.);
#378 = EDGE_CURVE('',#371,#229,#379,.T.);
#379 = LINE('',#380,#381);
#380 = CARTESIAN_POINT('',(-16.,75.058994578326,-84.38465764503));
#381 = VECTOR('',#382,1.);
#382 = DIRECTION('',(-1.,-0.,0.));
#383 = FACE_BOUND('',#384,.T.);
#384 = EDGE_LOOP('',(#385));
#385 = ORIENTED_EDGE('',*,*,#386,.T.);
#386 = EDGE_CURVE('',#387,#387,#389,.T.);
#387 = VERTEX_POINT('',#388);
#388 = CARTESIAN_POINT('',(-2.449293598295E-16,-18.5,-84.38465764503));
#389 = CIRCLE('',#390,1.);
#390 = AXIS2_PLACEMENT_3D('',#391,#392,#393);
#391 = CARTESIAN_POINT('',(0.,-19.5,-84.38465764503));
#392 = DIRECTION('',(0.,0.,-1.));
#393 = DIRECTION('',(0.,1.,0.));
#394 = FACE_BOUND('',#395,.T.);
#395 = EDGE_LOOP('',(#396));
#396 = ORIENTED_EDGE('',*,*,#397,.T.);
#397 = EDGE_CURVE('',#398,#398,#400,.T.);
#398 = VERTEX_POINT('',#399);
#399 = CARTESIAN_POINT('',(-8.572527594031E-16,3.5,-84.38465764503));
#400 = CIRCLE('',#401,3.5);
#401 = AXIS2_PLACEMENT_3D('',#402,#403,#404);
#402 = CARTESIAN_POINT('',(0.,0.,-84.38465764503));
#403 = DIRECTION('',(0.,0.,-1.));
#404 = DIRECTION('',(0.,1.,0.));
#405 = FACE_BOUND('',#406,.T.);
#406 = EDGE_LOOP('',(#407));
#407 = ORIENTED_EDGE('',*,*,#408,.T.);
#408 = EDGE_CURVE('',#409,#409,#411,.T.);
#409 = VERTEX_POINT('',#410);
#410 = CARTESIAN_POINT('',(-2.449293598295E-16,20.5,-84.38465764503));
#411 = CIRCLE('',#412,1.);
#412 = AXIS2_PLACEMENT_3D('',#413,#414,#415);
#413 = CARTESIAN_POINT('',(0.,19.5,-84.38465764503));
#414 = DIRECTION('',(0.,0.,-1.));
#415 = DIRECTION('',(0.,1.,0.));
#416 = PLANE('',#417);
#417 = AXIS2_PLACEMENT_3D('',#418,#419,#420);
#418 = CARTESIAN_POINT('',(-16.,-86.85899457832,-84.38465764503));
#419 = DIRECTION('',(0.,0.,1.));
#420 = DIRECTION('',(1.,0.,-0.));
#421 = ADVANCED_FACE('',(#422,#440,#485,#530,#575,#609),#654,.F.);
#422 = FACE_BOUND('',#423,.F.);
#423 = EDGE_LOOP('',(#424,#425,#426,#434));
#424 = ORIENTED_EDGE('',*,*,#378,.T.);
#425 = ORIENTED_EDGE('',*,*,#236,.T.);
#426 = ORIENTED_EDGE('',*,*,#427,.T.);
#427 = EDGE_CURVE('',#237,#428,#430,.T.);
#428 = VERTEX_POINT('',#429);
#429 = CARTESIAN_POINT('',(16.,75.058994578326,19.5));
#430 = LINE('',#431,#432);
#431 = CARTESIAN_POINT('',(-16.,75.058994578326,19.5));
#432 = VECTOR('',#433,1.);
#433 = DIRECTION('',(1.,0.,-0.));
#434 = ORIENTED_EDGE('',*,*,#435,.F.);
#435 = EDGE_CURVE('',#371,#428,#436,.T.);
#436 = LINE('',#437,#438);
#437 = CARTESIAN_POINT('',(16.,75.058994578326,-90.38465764503));
#438 = VECTOR('',#439,1.);
#439 = DIRECTION('',(0.,0.,1.));
#440 = FACE_BOUND('',#441,.F.);
#441 = EDGE_LOOP('',(#442,#453,#462,#470,#479));
#442 = ORIENTED_EDGE('',*,*,#443,.T.);
#443 = EDGE_CURVE('',#444,#446,#448,.T.);
#444 = VERTEX_POINT('',#445);
#445 = CARTESIAN_POINT('',(-3.675,75.058994578326,-34.95));
#446 = VERTEX_POINT('',#447);
#447 = CARTESIAN_POINT('',(-4.875,75.058994578326,-33.75));
#448 = CIRCLE('',#449,1.2);
#449 = AXIS2_PLACEMENT_3D('',#450,#451,#452);
#450 = CARTESIAN_POINT('',(-4.875,75.058994578326,-34.95));
#451 = DIRECTION('',(0.,-1.,0.));
#452 = DIRECTION('',(0.,0.,1.));
#453 = ORIENTED_EDGE('',*,*,#454,.T.);
#454 = EDGE_CURVE('',#446,#455,#457,.T.);
#455 = VERTEX_POINT('',#456);
#456 = CARTESIAN_POINT('',(-6.075,75.058994578326,-34.95));
#457 = CIRCLE('',#458,1.2);
#458 = AXIS2_PLACEMENT_3D('',#459,#460,#461);
#459 = CARTESIAN_POINT('',(-4.875,75.058994578326,-34.95));
#460 = DIRECTION('',(0.,-1.,0.));
#461 = DIRECTION('',(0.,0.,1.));
#462 = ORIENTED_EDGE('',*,*,#463,.F.);
#463 = EDGE_CURVE('',#464,#455,#466,.T.);
#464 = VERTEX_POINT('',#465);
#465 = CARTESIAN_POINT('',(-6.075,75.058994578326,-35.15));
#466 = LINE('',#467,#468);
#467 = CARTESIAN_POINT('',(-6.075,75.058994578326,-62.76732882251));
#468 = VECTOR('',#469,1.);
#469 = DIRECTION('',(0.,0.,1.));
#470 = ORIENTED_EDGE('',*,*,#471,.T.);
#471 = EDGE_CURVE('',#464,#472,#474,.T.);
#472 = VERTEX_POINT('',#473);
#473 = CARTESIAN_POINT('',(-3.675,75.058994578326,-35.15));
#474 = CIRCLE('',#475,1.2);
#475 = AXIS2_PLACEMENT_3D('',#476,#477,#478);
#476 = CARTESIAN_POINT('',(-4.875,75.058994578326,-35.15));
#477 = DIRECTION('',(0.,-1.,0.));
#478 = DIRECTION('',(0.,0.,1.));
#479 = ORIENTED_EDGE('',*,*,#480,.T.);
#480 = EDGE_CURVE('',#472,#444,#481,.T.);
#481 = LINE('',#482,#483);
#482 = CARTESIAN_POINT('',(-3.675,75.058994578326,-62.76732882251));
#483 = VECTOR('',#484,1.);
#484 = DIRECTION('',(0.,0.,1.));
#485 = FACE_BOUND('',#486,.F.);
#486 = EDGE_LOOP('',(#487,#497,#506,#514,#523));
#487 = ORIENTED_EDGE('',*,*,#488,.F.);
#488 = EDGE_CURVE('',#489,#491,#493,.T.);
#489 = VERTEX_POINT('',#490);
#490 = CARTESIAN_POINT('',(-6.075,75.058994578326,13.45));
#491 = VERTEX_POINT('',#492);
#492 = CARTESIAN_POINT('',(-6.075,75.058994578326,13.65));
#493 = LINE('',#494,#495);
#494 = CARTESIAN_POINT('',(-6.075,75.058994578326,-38.46732882251));
#495 = VECTOR('',#496,1.);
#496 = DIRECTION('',(0.,0.,1.));
#497 = ORIENTED_EDGE('',*,*,#498,.T.);
#498 = EDGE_CURVE('',#489,#499,#501,.T.);
#499 = VERTEX_POINT('',#500);
#500 = CARTESIAN_POINT('',(-3.675,75.058994578326,13.45));
#501 = CIRCLE('',#502,1.2);
#502 = AXIS2_PLACEMENT_3D('',#503,#504,#505);
#503 = CARTESIAN_POINT('',(-4.875,75.058994578326,13.45));
#504 = DIRECTION('',(0.,-1.,0.));
#505 = DIRECTION('',(0.,0.,1.));
#506 = ORIENTED_EDGE('',*,*,#507,.T.);
#507 = EDGE_CURVE('',#499,#508,#510,.T.);
#508 = VERTEX_POINT('',#509);
#509 = CARTESIAN_POINT('',(-3.675,75.058994578326,13.65));
#510 = LINE('',#511,#512);
#511 = CARTESIAN_POINT('',(-3.675,75.058994578326,-38.46732882251));
#512 = VECTOR('',#513,1.);
#513 = DIRECTION('',(0.,0.,1.));
#514 = ORIENTED_EDGE('',*,*,#515,.T.);
#515 = EDGE_CURVE('',#508,#516,#518,.T.);
#516 = VERTEX_POINT('',#517);
#517 = CARTESIAN_POINT('',(-4.875,75.058994578326,14.85));
#518 = CIRCLE('',#519,1.2);
#519 = AXIS2_PLACEMENT_3D('',#520,#521,#522);
#520 = CARTESIAN_POINT('',(-4.875,75.058994578326,13.65));
#521 = DIRECTION('',(0.,-1.,0.));
#522 = DIRECTION('',(0.,0.,1.));
#523 = ORIENTED_EDGE('',*,*,#524,.T.);
#524 = EDGE_CURVE('',#516,#491,#525,.T.);
#525 = CIRCLE('',#526,1.2);
#526 = AXIS2_PLACEMENT_3D('',#527,#528,#529);
#527 = CARTESIAN_POINT('',(-4.875,75.058994578326,13.65));
#528 = DIRECTION('',(0.,-1.,0.));
#529 = DIRECTION('',(0.,0.,1.));
#530 = FACE_BOUND('',#531,.F.);
#531 = EDGE_LOOP('',(#532,#543,#552,#560,#569));
#532 = ORIENTED_EDGE('',*,*,#533,.T.);
#533 = EDGE_CURVE('',#534,#536,#538,.T.);
#534 = VERTEX_POINT('',#535);
#535 = CARTESIAN_POINT('',(6.075,75.058994578326,-34.95));
#536 = VERTEX_POINT('',#537);
#537 = CARTESIAN_POINT('',(4.875,75.058994578326,-33.75));
#538 = CIRCLE('',#539,1.2);
#539 = AXIS2_PLACEMENT_3D('',#540,#541,#542);
#540 = CARTESIAN_POINT('',(4.875,75.058994578326,-34.95));
#541 = DIRECTION('',(0.,-1.,0.));
#542 = DIRECTION('',(0.,0.,1.));
#543 = ORIENTED_EDGE('',*,*,#544,.T.);
#544 = EDGE_CURVE('',#536,#545,#547,.T.);
#545 = VERTEX_POINT('',#546);
#546 = CARTESIAN_POINT('',(3.675,75.058994578326,-34.95));
#547 = CIRCLE('',#548,1.2);
#548 = AXIS2_PLACEMENT_3D('',#549,#550,#551);
#549 = CARTESIAN_POINT('',(4.875,75.058994578326,-34.95));
#550 = DIRECTION('',(0.,-1.,0.));
#551 = DIRECTION('',(0.,0.,1.));
#552 = ORIENTED_EDGE('',*,*,#553,.F.);
#553 = EDGE_CURVE('',#554,#545,#556,.T.);
#554 = VERTEX_POINT('',#555);
#555 = CARTESIAN_POINT('',(3.675,75.058994578326,-35.15));
#556 = LINE('',#557,#558);
#557 = CARTESIAN_POINT('',(3.675,75.058994578326,-62.76732882251));
#558 = VECTOR('',#559,1.);
#559 = DIRECTION('',(0.,0.,1.));
#560 = ORIENTED_EDGE('',*,*,#561,.T.);
#561 = EDGE_CURVE('',#554,#562,#564,.T.);
#562 = VERTEX_POINT('',#563);
#563 = CARTESIAN_POINT('',(6.075,75.058994578326,-35.15));
#564 = CIRCLE('',#565,1.2);
#565 = AXIS2_PLACEMENT_3D('',#566,#567,#568);
#566 = CARTESIAN_POINT('',(4.875,75.058994578326,-35.15));
#567 = DIRECTION('',(0.,-1.,0.));
#568 = DIRECTION('',(0.,0.,1.));
#569 = ORIENTED_EDGE('',*,*,#570,.T.);
#570 = EDGE_CURVE('',#562,#534,#571,.T.);
#571 = LINE('',#572,#573);
#572 = CARTESIAN_POINT('',(6.075,75.058994578326,-62.76732882251));
#573 = VECTOR('',#574,1.);
#574 = DIRECTION('',(0.,0.,1.));
#575 = FACE_BOUND('',#576,.F.);
#576 = EDGE_LOOP('',(#577,#587,#595,#603));
#577 = ORIENTED_EDGE('',*,*,#578,.F.);
#578 = EDGE_CURVE('',#579,#581,#583,.T.);
#579 = VERTEX_POINT('',#580);
#580 = CARTESIAN_POINT('',(-10.5,75.058994578326,-31.25));
#581 = VERTEX_POINT('',#582);
#582 = CARTESIAN_POINT('',(-10.5,75.058994578326,9.75));
#583 = LINE('',#584,#585);
#584 = CARTESIAN_POINT('',(-10.5,75.058994578326,-60.81732882251));
#585 = VECTOR('',#586,1.);
#586 = DIRECTION('',(0.,0.,1.));
#587 = ORIENTED_EDGE('',*,*,#588,.T.);
#588 = EDGE_CURVE('',#579,#589,#591,.T.);
#589 = VERTEX_POINT('',#590);
#590 = CARTESIAN_POINT('',(10.5,75.058994578326,-31.25));
#591 = LINE('',#592,#593);
#592 = CARTESIAN_POINT('',(-2.75,75.058994578326,-31.25));
#593 = VECTOR('',#594,1.);
#594 = DIRECTION('',(1.,0.,-0.));
#595 = ORIENTED_EDGE('',*,*,#596,.T.);
#596 = EDGE_CURVE('',#589,#597,#599,.T.);
#597 = VERTEX_POINT('',#598);
#598 = CARTESIAN_POINT('',(10.5,75.058994578326,9.75));
#599 = LINE('',#600,#601);
#600 = CARTESIAN_POINT('',(10.5,75.058994578326,-60.81732882251));
#601 = VECTOR('',#602,1.);
#602 = DIRECTION('',(0.,0.,1.));
#603 = ORIENTED_EDGE('',*,*,#604,.F.);
#604 = EDGE_CURVE('',#581,#597,#605,.T.);
#605 = LINE('',#606,#607);
#606 = CARTESIAN_POINT('',(-2.75,75.058994578326,9.75));
#607 = VECTOR('',#608,1.);
#608 = DIRECTION('',(1.,0.,-0.));
#609 = FACE_BOUND('',#610,.F.);
#610 = EDGE_LOOP('',(#611,#621,#630,#638,#647));
#611 = ORIENTED_EDGE('',*,*,#612,.F.);
#612 = EDGE_CURVE('',#613,#615,#617,.T.);
#613 = VERTEX_POINT('',#614);
#614 = CARTESIAN_POINT('',(3.675,75.058994578326,13.45));
#615 = VERTEX_POINT('',#616);
#616 = CARTESIAN_POINT('',(3.675,75.058994578326,13.65));
#617 = LINE('',#618,#619);
#618 = CARTESIAN_POINT('',(3.675,75.058994578326,-38.46732882251));
#619 = VECTOR('',#620,1.);
#620 = DIRECTION('',(0.,0.,1.));
#621 = ORIENTED_EDGE('',*,*,#622,.T.);
#622 = EDGE_CURVE('',#613,#623,#625,.T.);
#623 = VERTEX_POINT('',#624);
#624 = CARTESIAN_POINT('',(6.075,75.058994578326,13.45));
#625 = CIRCLE('',#626,1.2);
#626 = AXIS2_PLACEMENT_3D('',#627,#628,#629);
#627 = CARTESIAN_POINT('',(4.875,75.058994578326,13.45));
#628 = DIRECTION('',(0.,-1.,0.));
#629 = DIRECTION('',(0.,0.,1.));
#630 = ORIENTED_EDGE('',*,*,#631,.T.);
#631 = EDGE_CURVE('',#623,#632,#634,.T.);
#632 = VERTEX_POINT('',#633);
#633 = CARTESIAN_POINT('',(6.075,75.058994578326,13.65));
#634 = LINE('',#635,#636);
#635 = CARTESIAN_POINT('',(6.075,75.058994578326,-38.46732882251));
#636 = VECTOR('',#637,1.);
#637 = DIRECTION('',(0.,0.,1.));
#638 = ORIENTED_EDGE('',*,*,#639,.T.);
#639 = EDGE_CURVE('',#632,#640,#642,.T.);
#640 = VERTEX_POINT('',#641);
#641 = CARTESIAN_POINT('',(4.875,75.058994578326,14.85));
#642 = CIRCLE('',#643,1.2);
#643 = AXIS2_PLACEMENT_3D('',#644,#645,#646);
#644 = CARTESIAN_POINT('',(4.875,75.058994578326,13.65));
#645 = DIRECTION('',(0.,-1.,0.));
#646 = DIRECTION('',(0.,0.,1.));
#647 = ORIENTED_EDGE('',*,*,#648,.T.);
#648 = EDGE_CURVE('',#640,#615,#649,.T.);
#649 = CIRCLE('',#650,1.2);
#650 = AXIS2_PLACEMENT_3D('',#651,#652,#653);
#651 = CARTESIAN_POINT('',(4.875,75.058994578326,13.65));
#652 = DIRECTION('',(0.,-1.,0.));
#653 = DIRECTION('',(0.,0.,1.));
#654 = PLANE('',#655);
#655 = AXIS2_PLACEMENT_3D('',#656,#657,#658);
#656 = CARTESIAN_POINT('',(-16.,75.058994578326,-90.38465764503));
#657 = DIRECTION('',(-0.,1.,0.));
#658 = DIRECTION('',(0.,0.,1.));
#659 = ADVANCED_FACE('',(#660),#679,.F.);
#660 = FACE_BOUND('',#661,.F.);
#661 = EDGE_LOOP('',(#662,#670,#677,#678));
#662 = ORIENTED_EDGE('',*,*,#663,.T.);
#663 = EDGE_CURVE('',#387,#664,#666,.T.);
#664 = VERTEX_POINT('',#665);
#665 = CARTESIAN_POINT('',(-2.449293598295E-16,-18.5,-87.88465764503));
#666 = LINE('',#667,#668);
#667 = CARTESIAN_POINT('',(-2.449293598295E-16,-18.5,-82.89465764503));
#668 = VECTOR('',#669,1.);
#669 = DIRECTION('',(0.,0.,-1.));
#670 = ORIENTED_EDGE('',*,*,#671,.F.);
#671 = EDGE_CURVE('',#664,#664,#672,.T.);
#672 = CIRCLE('',#673,1.);
#673 = AXIS2_PLACEMENT_3D('',#674,#675,#676);
#674 = CARTESIAN_POINT('',(0.,-19.5,-87.88465764503));
#675 = DIRECTION('',(0.,0.,-1.));
#676 = DIRECTION('',(0.,1.,0.));
#677 = ORIENTED_EDGE('',*,*,#663,.F.);
#678 = ORIENTED_EDGE('',*,*,#386,.T.);
#679 = CYLINDRICAL_SURFACE('',#680,1.);
#680 = AXIS2_PLACEMENT_3D('',#681,#682,#683);
#681 = CARTESIAN_POINT('',(0.,-19.5,-82.89465764503));
#682 = DIRECTION('',(0.,0.,-1.));
#683 = DIRECTION('',(0.,1.,0.));
#684 = ADVANCED_FACE('',(#685),#704,.F.);
#685 = FACE_BOUND('',#686,.F.);
#686 = EDGE_LOOP('',(#687,#695,#702,#703));
#687 = ORIENTED_EDGE('',*,*,#688,.T.);
#688 = EDGE_CURVE('',#398,#689,#691,.T.);
#689 = VERTEX_POINT('',#690);
#690 = CARTESIAN_POINT('',(-8.572527594031E-16,3.5,-87.88465764503));
#691 = LINE('',#692,#693);
#692 = CARTESIAN_POINT('',(-8.572527594031E-16,3.5,-82.38465764503));
#693 = VECTOR('',#694,1.);
#694 = DIRECTION('',(0.,0.,-1.));
#695 = ORIENTED_EDGE('',*,*,#696,.F.);
#696 = EDGE_CURVE('',#689,#689,#697,.T.);
#697 = CIRCLE('',#698,3.5);
#698 = AXIS2_PLACEMENT_3D('',#699,#700,#701);
#699 = CARTESIAN_POINT('',(0.,0.,-87.88465764503));
#700 = DIRECTION('',(0.,0.,-1.));
#701 = DIRECTION('',(0.,1.,0.));
#702 = ORIENTED_EDGE('',*,*,#688,.F.);
#703 = ORIENTED_EDGE('',*,*,#397,.T.);
#704 = CYLINDRICAL_SURFACE('',#705,3.5);
#705 = AXIS2_PLACEMENT_3D('',#706,#707,#708);
#706 = CARTESIAN_POINT('',(0.,0.,-82.38465764503));
#707 = DIRECTION('',(0.,0.,-1.));
#708 = DIRECTION('',(0.,1.,0.));
#709 = ADVANCED_FACE('',(#710),#729,.F.);
#710 = FACE_BOUND('',#711,.F.);
#711 = EDGE_LOOP('',(#712,#720,#727,#728));
#712 = ORIENTED_EDGE('',*,*,#713,.T.);
#713 = EDGE_CURVE('',#409,#714,#716,.T.);
#714 = VERTEX_POINT('',#715);
#715 = CARTESIAN_POINT('',(-2.449293598295E-16,20.5,-87.88465764503));
#716 = LINE('',#717,#718);
#717 = CARTESIAN_POINT('',(-2.449293598295E-16,20.5,-82.89465764503));
#718 = VECTOR('',#719,1.);
#719 = DIRECTION('',(0.,0.,-1.));
#720 = ORIENTED_EDGE('',*,*,#721,.F.);
#721 = EDGE_CURVE('',#714,#714,#722,.T.);
#722 = CIRCLE('',#723,1.);
#723 = AXIS2_PLACEMENT_3D('',#724,#725,#726);
#724 = CARTESIAN_POINT('',(0.,19.5,-87.88465764503));
#725 = DIRECTION('',(0.,0.,-1.));
#726 = DIRECTION('',(0.,1.,0.));
#727 = ORIENTED_EDGE('',*,*,#713,.F.);
#728 = ORIENTED_EDGE('',*,*,#408,.T.);
#729 = CYLINDRICAL_SURFACE('',#730,1.);
#730 = AXIS2_PLACEMENT_3D('',#731,#732,#733);
#731 = CARTESIAN_POINT('',(0.,19.5,-82.89465764503));
#732 = DIRECTION('',(0.,0.,-1.));
#733 = DIRECTION('',(0.,1.,0.));
#734 = ADVANCED_FACE('',(#735),#753,.T.);
#735 = FACE_BOUND('',#736,.T.);
#736 = EDGE_LOOP('',(#737,#738,#739,#747));
#737 = ORIENTED_EDGE('',*,*,#244,.F.);
#738 = ORIENTED_EDGE('',*,*,#427,.T.);
#739 = ORIENTED_EDGE('',*,*,#740,.T.);
#740 = EDGE_CURVE('',#428,#741,#743,.T.);
#741 = VERTEX_POINT('',#742);
#742 = CARTESIAN_POINT('',(16.,81.058994578326,19.5));
#743 = LINE('',#744,#745);
#744 = CARTESIAN_POINT('',(16.,75.058994578326,19.5));
#745 = VECTOR('',#746,1.);
#746 = DIRECTION('',(-0.,1.,0.));
#747 = ORIENTED_EDGE('',*,*,#748,.F.);
#748 = EDGE_CURVE('',#245,#741,#749,.T.);
#749 = LINE('',#750,#751);
#750 = CARTESIAN_POINT('',(-16.,81.058994578326,19.5));
#751 = VECTOR('',#752,1.);
#752 = DIRECTION('',(1.,0.,-0.));
#753 = PLANE('',#754);
#754 = AXIS2_PLACEMENT_3D('',#755,#756,#757);
#755 = CARTESIAN_POINT('',(-16.,75.058994578326,19.5));
#756 = DIRECTION('',(0.,0.,1.));
#757 = DIRECTION('',(1.,0.,-0.));
#758 = ADVANCED_FACE('',(#759),#784,.T.);
#759 = FACE_BOUND('',#760,.T.);
#760 = EDGE_LOOP('',(#761,#771,#777,#778));
#761 = ORIENTED_EDGE('',*,*,#762,.F.);
#762 = EDGE_CURVE('',#763,#765,#767,.T.);
#763 = VERTEX_POINT('',#764);
#764 = CARTESIAN_POINT('',(-3.675,81.058994578326,-35.15));
#765 = VERTEX_POINT('',#766);
#766 = CARTESIAN_POINT('',(-3.675,81.058994578326,-34.95));
#767 = LINE('',#768,#769);
#768 = CARTESIAN_POINT('',(-3.675,81.058994578326,-62.76732882251));
#769 = VECTOR('',#770,1.);
#770 = DIRECTION('',(0.,0.,1.));
#771 = ORIENTED_EDGE('',*,*,#772,.T.);
#772 = EDGE_CURVE('',#763,#472,#773,.T.);
#773 = LINE('',#774,#775);
#774 = CARTESIAN_POINT('',(-3.675,82.058994578326,-35.15));
#775 = VECTOR('',#776,1.);
#776 = DIRECTION('',(0.,-1.,0.));
#777 = ORIENTED_EDGE('',*,*,#480,.T.);
#778 = ORIENTED_EDGE('',*,*,#779,.F.);
#779 = EDGE_CURVE('',#765,#444,#780,.T.);
#780 = LINE('',#781,#782);
#781 = CARTESIAN_POINT('',(-3.675,82.058994578326,-34.95));
#782 = VECTOR('',#783,1.);
#783 = DIRECTION('',(0.,-1.,0.));
#784 = PLANE('',#785);
#785 = AXIS2_PLACEMENT_3D('',#786,#787,#788);
#786 = CARTESIAN_POINT('',(-3.675,82.058994578326,-35.15));
#787 = DIRECTION('',(-1.,0.,0.));
#788 = DIRECTION('',(0.,-1.,0.));
#789 = ADVANCED_FACE('',(#790),#809,.F.);
#790 = FACE_BOUND('',#791,.F.);
#791 = EDGE_LOOP('',(#792,#793,#801,#808));
#792 = ORIENTED_EDGE('',*,*,#471,.F.);
#793 = ORIENTED_EDGE('',*,*,#794,.F.);
#794 = EDGE_CURVE('',#795,#464,#797,.T.);
#795 = VERTEX_POINT('',#796);
#796 = CARTESIAN_POINT('',(-6.075,81.058994578326,-35.15));
#797 = LINE('',#798,#799);
#798 = CARTESIAN_POINT('',(-6.075,82.058994578326,-35.15));
#799 = VECTOR('',#800,1.);
#800 = DIRECTION('',(0.,-1.,0.));
#801 = ORIENTED_EDGE('',*,*,#802,.T.);
#802 = EDGE_CURVE('',#795,#763,#803,.T.);
#803 = CIRCLE('',#804,1.2);
#804 = AXIS2_PLACEMENT_3D('',#805,#806,#807);
#805 = CARTESIAN_POINT('',(-4.875,81.058994578326,-35.15));
#806 = DIRECTION('',(0.,-1.,0.));
#807 = DIRECTION('',(0.,0.,1.));
#808 = ORIENTED_EDGE('',*,*,#772,.T.);
#809 = CYLINDRICAL_SURFACE('',#810,1.2);
#810 = AXIS2_PLACEMENT_3D('',#811,#812,#813);
#811 = CARTESIAN_POINT('',(-4.875,82.058994578326,-35.15));
#812 = DIRECTION('',(0.,-1.,0.));
#813 = DIRECTION('',(0.,0.,1.));
#814 = ADVANCED_FACE('',(#815),#833,.F.);
#815 = FACE_BOUND('',#816,.F.);
#816 = EDGE_LOOP('',(#817,#825,#826,#827));
#817 = ORIENTED_EDGE('',*,*,#818,.F.);
#818 = EDGE_CURVE('',#795,#819,#821,.T.);
#819 = VERTEX_POINT('',#820);
#820 = CARTESIAN_POINT('',(-6.075,81.058994578326,-34.95));
#821 = LINE('',#822,#823);
#822 = CARTESIAN_POINT('',(-6.075,81.058994578326,-62.76732882251));
#823 = VECTOR('',#824,1.);
#824 = DIRECTION('',(0.,0.,1.));
#825 = ORIENTED_EDGE('',*,*,#794,.T.);
#826 = ORIENTED_EDGE('',*,*,#463,.T.);
#827 = ORIENTED_EDGE('',*,*,#828,.F.);
#828 = EDGE_CURVE('',#819,#455,#829,.T.);
#829 = LINE('',#830,#831);
#830 = CARTESIAN_POINT('',(-6.075,82.058994578326,-34.95));
#831 = VECTOR('',#832,1.);
#832 = DIRECTION('',(0.,-1.,0.));
#833 = PLANE('',#834);
#834 = AXIS2_PLACEMENT_3D('',#835,#836,#837);
#835 = CARTESIAN_POINT('',(-6.075,82.058994578326,-35.15));
#836 = DIRECTION('',(-1.,0.,0.));
#837 = DIRECTION('',(0.,-1.,0.));
#838 = ADVANCED_FACE('',(#839),#864,.F.);
#839 = FACE_BOUND('',#840,.F.);
#840 = EDGE_LOOP('',(#841,#851,#857,#858));
#841 = ORIENTED_EDGE('',*,*,#842,.F.);
#842 = EDGE_CURVE('',#843,#845,#847,.T.);
#843 = VERTEX_POINT('',#844);
#844 = CARTESIAN_POINT('',(-6.075,81.058994578326,13.45));
#845 = VERTEX_POINT('',#846);
#846 = CARTESIAN_POINT('',(-6.075,81.058994578326,13.65));
#847 = LINE('',#848,#849);
#848 = CARTESIAN_POINT('',(-6.075,81.058994578326,-38.46732882251));
#849 = VECTOR('',#850,1.);
#850 = DIRECTION('',(0.,0.,1.));
#851 = ORIENTED_EDGE('',*,*,#852,.T.);
#852 = EDGE_CURVE('',#843,#489,#853,.T.);
#853 = LINE('',#854,#855);
#854 = CARTESIAN_POINT('',(-6.075,82.058994578326,13.45));
#855 = VECTOR('',#856,1.);
#856 = DIRECTION('',(0.,-1.,0.));
#857 = ORIENTED_EDGE('',*,*,#488,.T.);
#858 = ORIENTED_EDGE('',*,*,#859,.F.);
#859 = EDGE_CURVE('',#845,#491,#860,.T.);
#860 = LINE('',#861,#862);
#861 = CARTESIAN_POINT('',(-6.075,82.058994578326,13.65));
#862 = VECTOR('',#863,1.);
#863 = DIRECTION('',(0.,-1.,0.));
#864 = PLANE('',#865);
#865 = AXIS2_PLACEMENT_3D('',#866,#867,#868);
#866 = CARTESIAN_POINT('',(-6.075,82.058994578326,13.45));
#867 = DIRECTION('',(-1.,0.,0.));
#868 = DIRECTION('',(0.,-1.,0.));
#869 = ADVANCED_FACE('',(#870),#895,.T.);
#870 = FACE_BOUND('',#871,.T.);
#871 = EDGE_LOOP('',(#872,#882,#888,#889));
#872 = ORIENTED_EDGE('',*,*,#873,.F.);
#873 = EDGE_CURVE('',#874,#876,#878,.T.);
#874 = VERTEX_POINT('',#875);
#875 = CARTESIAN_POINT('',(-3.675,81.058994578326,13.45));
#876 = VERTEX_POINT('',#877);
#877 = CARTESIAN_POINT('',(-3.675,81.058994578326,13.65));
#878 = LINE('',#879,#880);
#879 = CARTESIAN_POINT('',(-3.675,81.058994578326,-38.46732882251));
#880 = VECTOR('',#881,1.);
#881 = DIRECTION('',(0.,0.,1.));
#882 = ORIENTED_EDGE('',*,*,#883,.T.);
#883 = EDGE_CURVE('',#874,#499,#884,.T.);
#884 = LINE('',#885,#886);
#885 = CARTESIAN_POINT('',(-3.675,82.058994578326,13.45));
#886 = VECTOR('',#887,1.);
#887 = DIRECTION('',(0.,-1.,0.));
#888 = ORIENTED_EDGE('',*,*,#507,.T.);
#889 = ORIENTED_EDGE('',*,*,#890,.F.);
#890 = EDGE_CURVE('',#876,#508,#891,.T.);
#891 = LINE('',#892,#893);
#892 = CARTESIAN_POINT('',(-3.675,82.058994578326,13.65));
#893 = VECTOR('',#894,1.);
#894 = DIRECTION('',(0.,-1.,0.));
#895 = PLANE('',#896);
#896 = AXIS2_PLACEMENT_3D('',#897,#898,#899);
#897 = CARTESIAN_POINT('',(-3.675,82.058994578326,13.45));
#898 = DIRECTION('',(-1.,0.,0.));
#899 = DIRECTION('',(0.,-1.,0.));
#900 = ADVANCED_FACE('',(#901),#913,.F.);
#901 = FACE_BOUND('',#902,.F.);
#902 = EDGE_LOOP('',(#903,#904,#905,#912));
#903 = ORIENTED_EDGE('',*,*,#498,.F.);
#904 = ORIENTED_EDGE('',*,*,#852,.F.);
#905 = ORIENTED_EDGE('',*,*,#906,.T.);
#906 = EDGE_CURVE('',#843,#874,#907,.T.);
#907 = CIRCLE('',#908,1.2);
#908 = AXIS2_PLACEMENT_3D('',#909,#910,#911);
#909 = CARTESIAN_POINT('',(-4.875,81.058994578326,13.45));
#910 = DIRECTION('',(0.,-1.,0.));
#911 = DIRECTION('',(0.,0.,1.));
#912 = ORIENTED_EDGE('',*,*,#883,.T.);
#913 = CYLINDRICAL_SURFACE('',#914,1.2);
#914 = AXIS2_PLACEMENT_3D('',#915,#916,#917);
#915 = CARTESIAN_POINT('',(-4.875,82.058994578326,13.45));
#916 = DIRECTION('',(0.,-1.,0.));
#917 = DIRECTION('',(0.,0.,1.));
#918 = ADVANCED_FACE('',(#919),#944,.T.);
#919 = FACE_BOUND('',#920,.T.);
#920 = EDGE_LOOP('',(#921,#931,#937,#938));
#921 = ORIENTED_EDGE('',*,*,#922,.F.);
#922 = EDGE_CURVE('',#923,#925,#927,.T.);
#923 = VERTEX_POINT('',#924);
#924 = CARTESIAN_POINT('',(6.075,81.058994578326,-35.15));
#925 = VERTEX_POINT('',#926);
#926 = CARTESIAN_POINT('',(6.075,81.058994578326,-34.95));
#927 = LINE('',#928,#929);
#928 = CARTESIAN_POINT('',(6.075,81.058994578326,-62.76732882251));
#929 = VECTOR('',#930,1.);
#930 = DIRECTION('',(0.,0.,1.));
#931 = ORIENTED_EDGE('',*,*,#932,.T.);
#932 = EDGE_CURVE('',#923,#562,#933,.T.);
#933 = LINE('',#934,#935);
#934 = CARTESIAN_POINT('',(6.075,82.058994578326,-35.15));
#935 = VECTOR('',#936,1.);
#936 = DIRECTION('',(0.,-1.,0.));
#937 = ORIENTED_EDGE('',*,*,#570,.T.);
#938 = ORIENTED_EDGE('',*,*,#939,.F.);
#939 = EDGE_CURVE('',#925,#534,#940,.T.);
#940 = LINE('',#941,#942);
#941 = CARTESIAN_POINT('',(6.075,82.058994578326,-34.95));
#942 = VECTOR('',#943,1.);
#943 = DIRECTION('',(0.,-1.,0.));
#944 = PLANE('',#945);
#945 = AXIS2_PLACEMENT_3D('',#946,#947,#948);
#946 = CARTESIAN_POINT('',(6.075,82.058994578326,-35.15));
#947 = DIRECTION('',(-1.,0.,0.));
#948 = DIRECTION('',(0.,-1.,0.));
#949 = ADVANCED_FACE('',(#950),#969,.F.);
#950 = FACE_BOUND('',#951,.F.);
#951 = EDGE_LOOP('',(#952,#953,#961,#968));
#952 = ORIENTED_EDGE('',*,*,#561,.F.);
#953 = ORIENTED_EDGE('',*,*,#954,.F.);
#954 = EDGE_CURVE('',#955,#554,#957,.T.);
#955 = VERTEX_POINT('',#956);
#956 = CARTESIAN_POINT('',(3.675,81.058994578326,-35.15));
#957 = LINE('',#958,#959);
#958 = CARTESIAN_POINT('',(3.675,82.058994578326,-35.15));
#959 = VECTOR('',#960,1.);
#960 = DIRECTION('',(0.,-1.,0.));
#961 = ORIENTED_EDGE('',*,*,#962,.T.);
#962 = EDGE_CURVE('',#955,#923,#963,.T.);
#963 = CIRCLE('',#964,1.2);
#964 = AXIS2_PLACEMENT_3D('',#965,#966,#967);
#965 = CARTESIAN_POINT('',(4.875,81.058994578326,-35.15));
#966 = DIRECTION('',(0.,-1.,0.));
#967 = DIRECTION('',(0.,0.,1.));
#968 = ORIENTED_EDGE('',*,*,#932,.T.);
#969 = CYLINDRICAL_SURFACE('',#970,1.2);
#970 = AXIS2_PLACEMENT_3D('',#971,#972,#973);
#971 = CARTESIAN_POINT('',(4.875,82.058994578326,-35.15));
#972 = DIRECTION('',(0.,-1.,0.));
#973 = DIRECTION('',(0.,0.,1.));
#974 = ADVANCED_FACE('',(#975),#993,.F.);
#975 = FACE_BOUND('',#976,.F.);
#976 = EDGE_LOOP('',(#977,#985,#986,#987));
#977 = ORIENTED_EDGE('',*,*,#978,.F.);
#978 = EDGE_CURVE('',#955,#979,#981,.T.);
#979 = VERTEX_POINT('',#980);
#980 = CARTESIAN_POINT('',(3.675,81.058994578326,-34.95));
#981 = LINE('',#982,#983);
#982 = CARTESIAN_POINT('',(3.675,81.058994578326,-62.76732882251));
#983 = VECTOR('',#984,1.);
#984 = DIRECTION('',(0.,0.,1.));
#985 = ORIENTED_EDGE('',*,*,#954,.T.);
#986 = ORIENTED_EDGE('',*,*,#553,.T.);
#987 = ORIENTED_EDGE('',*,*,#988,.F.);
#988 = EDGE_CURVE('',#979,#545,#989,.T.);
#989 = LINE('',#990,#991);
#990 = CARTESIAN_POINT('',(3.675,82.058994578326,-34.95));
#991 = VECTOR('',#992,1.);
#992 = DIRECTION('',(0.,-1.,0.));
#993 = PLANE('',#994);
#994 = AXIS2_PLACEMENT_3D('',#995,#996,#997);
#995 = CARTESIAN_POINT('',(3.675,82.058994578326,-35.15));
#996 = DIRECTION('',(-1.,0.,0.));
#997 = DIRECTION('',(0.,-1.,0.));
#998 = ADVANCED_FACE('',(#999),#1024,.F.);
#999 = FACE_BOUND('',#1000,.F.);
#1000 = EDGE_LOOP('',(#1001,#1009,#1017,#1023));
#1001 = ORIENTED_EDGE('',*,*,#1002,.F.);
#1002 = EDGE_CURVE('',#1003,#581,#1005,.T.);
#1003 = VERTEX_POINT('',#1004);
#1004 = CARTESIAN_POINT('',(-10.5,81.058994578326,9.75));
#1005 = LINE('',#1006,#1007);
#1006 = CARTESIAN_POINT('',(-10.5,82.058994578326,9.75));
#1007 = VECTOR('',#1008,1.);
#1008 = DIRECTION('',(0.,-1.,0.));
#1009 = ORIENTED_EDGE('',*,*,#1010,.F.);
#1010 = EDGE_CURVE('',#1011,#1003,#1013,.T.);
#1011 = VERTEX_POINT('',#1012);
#1012 = CARTESIAN_POINT('',(-10.5,81.058994578326,-31.25));
#1013 = LINE('',#1014,#1015);
#1014 = CARTESIAN_POINT('',(-10.5,81.058994578326,-60.81732882251));
#1015 = VECTOR('',#1016,1.);
#1016 = DIRECTION('',(0.,0.,1.));
#1017 = ORIENTED_EDGE('',*,*,#1018,.T.);
#1018 = EDGE_CURVE('',#1011,#579,#1019,.T.);
#1019 = LINE('',#1020,#1021);
#1020 = CARTESIAN_POINT('',(-10.5,82.058994578326,-31.25));
#1021 = VECTOR('',#1022,1.);
#1022 = DIRECTION('',(0.,-1.,0.));
#1023 = ORIENTED_EDGE('',*,*,#578,.T.);
#1024 = PLANE('',#1025);
#1025 = AXIS2_PLACEMENT_3D('',#1026,#1027,#1028);
#1026 = CARTESIAN_POINT('',(-10.5,82.058994578326,-31.25));
#1027 = DIRECTION('',(-1.,0.,0.));
#1028 = DIRECTION('',(0.,-1.,0.));
#1029 = ADVANCED_FACE('',(#1030),#1048,.F.);
#1030 = FACE_BOUND('',#1031,.F.);
#1031 = EDGE_LOOP('',(#1032,#1040,#1046,#1047));
#1032 = ORIENTED_EDGE('',*,*,#1033,.F.);
#1033 = EDGE_CURVE('',#1034,#597,#1036,.T.);
#1034 = VERTEX_POINT('',#1035);
#1035 = CARTESIAN_POINT('',(10.5,81.058994578326,9.75));
#1036 = LINE('',#1037,#1038);
#1037 = CARTESIAN_POINT('',(10.5,82.058994578326,9.75));
#1038 = VECTOR('',#1039,1.);
#1039 = DIRECTION('',(0.,-1.,0.));
#1040 = ORIENTED_EDGE('',*,*,#1041,.F.);
#1041 = EDGE_CURVE('',#1003,#1034,#1042,.T.);
#1042 = LINE('',#1043,#1044);
#1043 = CARTESIAN_POINT('',(-2.75,81.058994578326,9.75));
#1044 = VECTOR('',#1045,1.);
#1045 = DIRECTION('',(1.,0.,-0.));
#1046 = ORIENTED_EDGE('',*,*,#1002,.T.);
#1047 = ORIENTED_EDGE('',*,*,#604,.T.);
#1048 = PLANE('',#1049);
#1049 = AXIS2_PLACEMENT_3D('',#1050,#1051,#1052);
#1050 = CARTESIAN_POINT('',(10.5,82.058994578326,9.75));
#1051 = DIRECTION('',(0.,0.,1.));
#1052 = DIRECTION('',(0.,-1.,0.));
#1053 = ADVANCED_FACE('',(#1054),#1072,.T.);
#1054 = FACE_BOUND('',#1055,.T.);
#1055 = EDGE_LOOP('',(#1056,#1057,#1065,#1071));
#1056 = ORIENTED_EDGE('',*,*,#1033,.F.);
#1057 = ORIENTED_EDGE('',*,*,#1058,.F.);
#1058 = EDGE_CURVE('',#1059,#1034,#1061,.T.);
#1059 = VERTEX_POINT('',#1060);
#1060 = CARTESIAN_POINT('',(10.5,81.058994578326,-31.25));
#1061 = LINE('',#1062,#1063);
#1062 = CARTESIAN_POINT('',(10.5,81.058994578326,-60.81732882251));
#1063 = VECTOR('',#1064,1.);
#1064 = DIRECTION('',(0.,0.,1.));
#1065 = ORIENTED_EDGE('',*,*,#1066,.T.);
#1066 = EDGE_CURVE('',#1059,#589,#1067,.T.);
#1067 = LINE('',#1068,#1069);
#1068 = CARTESIAN_POINT('',(10.5,82.058994578326,-31.25));
#1069 = VECTOR('',#1070,1.);
#1070 = DIRECTION('',(0.,-1.,0.));
#1071 = ORIENTED_EDGE('',*,*,#596,.T.);
#1072 = PLANE('',#1073);
#1073 = AXIS2_PLACEMENT_3D('',#1074,#1075,#1076);
#1074 = CARTESIAN_POINT('',(10.5,82.058994578326,-31.25));
#1075 = DIRECTION('',(-1.,0.,0.));
#1076 = DIRECTION('',(0.,-1.,0.));
#1077 = ADVANCED_FACE('',(#1078),#1089,.T.);
#1078 = FACE_BOUND('',#1079,.T.);
#1079 = EDGE_LOOP('',(#1080,#1081,#1087,#1088));
#1080 = ORIENTED_EDGE('',*,*,#1066,.F.);
#1081 = ORIENTED_EDGE('',*,*,#1082,.F.);
#1082 = EDGE_CURVE('',#1011,#1059,#1083,.T.);
#1083 = LINE('',#1084,#1085);
#1084 = CARTESIAN_POINT('',(-2.75,81.058994578326,-31.25));
#1085 = VECTOR('',#1086,1.);
#1086 = DIRECTION('',(1.,0.,-0.));
#1087 = ORIENTED_EDGE('',*,*,#1018,.T.);
#1088 = ORIENTED_EDGE('',*,*,#588,.T.);
#1089 = PLANE('',#1090);
#1090 = AXIS2_PLACEMENT_3D('',#1091,#1092,#1093);
#1091 = CARTESIAN_POINT('',(10.5,82.058994578326,-31.25));
#1092 = DIRECTION('',(0.,0.,1.));
#1093 = DIRECTION('',(0.,-1.,0.));
#1094 = ADVANCED_FACE('',(#1095),#1120,.F.);
#1095 = FACE_BOUND('',#1096,.F.);
#1096 = EDGE_LOOP('',(#1097,#1107,#1113,#1114));
#1097 = ORIENTED_EDGE('',*,*,#1098,.F.);
#1098 = EDGE_CURVE('',#1099,#1101,#1103,.T.);
#1099 = VERTEX_POINT('',#1100);
#1100 = CARTESIAN_POINT('',(3.675,81.058994578326,13.45));
#1101 = VERTEX_POINT('',#1102);
#1102 = CARTESIAN_POINT('',(3.675,81.058994578326,13.65));
#1103 = LINE('',#1104,#1105);
#1104 = CARTESIAN_POINT('',(3.675,81.058994578326,-38.46732882251));
#1105 = VECTOR('',#1106,1.);
#1106 = DIRECTION('',(0.,0.,1.));
#1107 = ORIENTED_EDGE('',*,*,#1108,.T.);
#1108 = EDGE_CURVE('',#1099,#613,#1109,.T.);
#1109 = LINE('',#1110,#1111);
#1110 = CARTESIAN_POINT('',(3.675,82.058994578326,13.45));
#1111 = VECTOR('',#1112,1.);
#1112 = DIRECTION('',(0.,-1.,0.));
#1113 = ORIENTED_EDGE('',*,*,#612,.T.);
#1114 = ORIENTED_EDGE('',*,*,#1115,.F.);
#1115 = EDGE_CURVE('',#1101,#615,#1116,.T.);
#1116 = LINE('',#1117,#1118);
#1117 = CARTESIAN_POINT('',(3.675,82.058994578326,13.65));
#1118 = VECTOR('',#1119,1.);
#1119 = DIRECTION('',(0.,-1.,0.));
#1120 = PLANE('',#1121);
#1121 = AXIS2_PLACEMENT_3D('',#1122,#1123,#1124);
#1122 = CARTESIAN_POINT('',(3.675,82.058994578326,13.45));
#1123 = DIRECTION('',(-1.,0.,0.));
#1124 = DIRECTION('',(0.,-1.,0.));
#1125 = ADVANCED_FACE('',(#1126),#1151,.T.);
#1126 = FACE_BOUND('',#1127,.T.);
#1127 = EDGE_LOOP('',(#1128,#1138,#1144,#1145));
#1128 = ORIENTED_EDGE('',*,*,#1129,.F.);
#1129 = EDGE_CURVE('',#1130,#1132,#1134,.T.);
#1130 = VERTEX_POINT('',#1131);
#1131 = CARTESIAN_POINT('',(6.075,81.058994578326,13.45));
#1132 = VERTEX_POINT('',#1133);
#1133 = CARTESIAN_POINT('',(6.075,81.058994578326,13.65));
#1134 = LINE('',#1135,#1136);
#1135 = CARTESIAN_POINT('',(6.075,81.058994578326,-38.46732882251));
#1136 = VECTOR('',#1137,1.);
#1137 = DIRECTION('',(0.,0.,1.));
#1138 = ORIENTED_EDGE('',*,*,#1139,.T.);
#1139 = EDGE_CURVE('',#1130,#623,#1140,.T.);
#1140 = LINE('',#1141,#1142);
#1141 = CARTESIAN_POINT('',(6.075,82.058994578326,13.45));
#1142 = VECTOR('',#1143,1.);
#1143 = DIRECTION('',(0.,-1.,0.));
#1144 = ORIENTED_EDGE('',*,*,#631,.T.);
#1145 = ORIENTED_EDGE('',*,*,#1146,.F.);
#1146 = EDGE_CURVE('',#1132,#632,#1147,.T.);
#1147 = LINE('',#1148,#1149);
#1148 = CARTESIAN_POINT('',(6.075,82.058994578326,13.65));
#1149 = VECTOR('',#1150,1.);
#1150 = DIRECTION('',(0.,-1.,0.));
#1151 = PLANE('',#1152);
#1152 = AXIS2_PLACEMENT_3D('',#1153,#1154,#1155);
#1153 = CARTESIAN_POINT('',(6.075,82.058994578326,13.45));
#1154 = DIRECTION('',(-1.,0.,0.));
#1155 = DIRECTION('',(0.,-1.,0.));
#1156 = ADVANCED_FACE('',(#1157),#1169,.F.);
#1157 = FACE_BOUND('',#1158,.F.);
#1158 = EDGE_LOOP('',(#1159,#1160,#1161,#1168));
#1159 = ORIENTED_EDGE('',*,*,#622,.F.);
#1160 = ORIENTED_EDGE('',*,*,#1108,.F.);
#1161 = ORIENTED_EDGE('',*,*,#1162,.T.);
#1162 = EDGE_CURVE('',#1099,#1130,#1163,.T.);
#1163 = CIRCLE('',#1164,1.2);
#1164 = AXIS2_PLACEMENT_3D('',#1165,#1166,#1167);
#1165 = CARTESIAN_POINT('',(4.875,81.058994578326,13.45));
#1166 = DIRECTION('',(0.,-1.,0.));
#1167 = DIRECTION('',(0.,0.,1.));
#1168 = ORIENTED_EDGE('',*,*,#1139,.T.);
#1169 = CYLINDRICAL_SURFACE('',#1170,1.2);
#1170 = AXIS2_PLACEMENT_3D('',#1171,#1172,#1173);
#1171 = CARTESIAN_POINT('',(4.875,82.058994578326,13.45));
#1172 = DIRECTION('',(0.,-1.,0.));
#1173 = DIRECTION('',(0.,0.,1.));
#1174 = ADVANCED_FACE('',(#1175,#1218,#1239,#1260,#1281,#1287),#1308,.T.
  );
#1175 = FACE_BOUND('',#1176,.T.);
#1176 = EDGE_LOOP('',(#1177,#1178,#1179,#1180,#1188,#1196,#1204,#1212));
#1177 = ORIENTED_EDGE('',*,*,#346,.F.);
#1178 = ORIENTED_EDGE('',*,*,#252,.T.);
#1179 = ORIENTED_EDGE('',*,*,#748,.T.);
#1180 = ORIENTED_EDGE('',*,*,#1181,.F.);
#1181 = EDGE_CURVE('',#1182,#741,#1184,.T.);
#1182 = VERTEX_POINT('',#1183);
#1183 = CARTESIAN_POINT('',(16.,81.058994578326,-59.38465764503));
#1184 = LINE('',#1185,#1186);
#1185 = CARTESIAN_POINT('',(16.,81.058994578326,-90.38465764503));
#1186 = VECTOR('',#1187,1.);
#1187 = DIRECTION('',(0.,0.,1.));
#1188 = ORIENTED_EDGE('',*,*,#1189,.F.);
#1189 = EDGE_CURVE('',#1190,#1182,#1192,.T.);
#1190 = VERTEX_POINT('',#1191);
#1191 = CARTESIAN_POINT('',(11.,81.058994578326,-59.38465764503));
#1192 = LINE('',#1193,#1194);
#1193 = CARTESIAN_POINT('',(11.,81.058994578326,-59.38465764503));
#1194 = VECTOR('',#1195,1.);
#1195 = DIRECTION('',(1.,0.,0.));
#1196 = ORIENTED_EDGE('',*,*,#1197,.T.);
#1197 = EDGE_CURVE('',#1190,#1198,#1200,.T.);
#1198 = VERTEX_POINT('',#1199);
#1199 = CARTESIAN_POINT('',(11.,81.058994578326,-84.38465764503));
#1200 = LINE('',#1201,#1202);
#1201 = CARTESIAN_POINT('',(11.,81.058994578326,-59.38465764503));
#1202 = VECTOR('',#1203,1.);
#1203 = DIRECTION('',(0.,0.,-1.));
#1204 = ORIENTED_EDGE('',*,*,#1205,.T.);
#1205 = EDGE_CURVE('',#1198,#1206,#1208,.T.);
#1206 = VERTEX_POINT('',#1207);
#1207 = CARTESIAN_POINT('',(-11.,81.058994578326,-84.38465764503));
#1208 = LINE('',#1209,#1210);
#1209 = CARTESIAN_POINT('',(-16.,81.058994578326,-84.38465764503));
#1210 = VECTOR('',#1211,1.);
#1211 = DIRECTION('',(-1.,-0.,0.));
#1212 = ORIENTED_EDGE('',*,*,#1213,.F.);
#1213 = EDGE_CURVE('',#339,#1206,#1214,.T.);
#1214 = LINE('',#1215,#1216);
#1215 = CARTESIAN_POINT('',(-11.,81.058994578326,-59.38465764503));
#1216 = VECTOR('',#1217,1.);
#1217 = DIRECTION('',(0.,0.,-1.));
#1218 = FACE_BOUND('',#1219,.T.);
#1219 = EDGE_LOOP('',(#1220,#1229,#1236,#1237,#1238));
#1220 = ORIENTED_EDGE('',*,*,#1221,.T.);
#1221 = EDGE_CURVE('',#765,#1222,#1224,.T.);
#1222 = VERTEX_POINT('',#1223);
#1223 = CARTESIAN_POINT('',(-4.875,81.058994578326,-33.75));
#1224 = CIRCLE('',#1225,1.2);
#1225 = AXIS2_PLACEMENT_3D('',#1226,#1227,#1228);
#1226 = CARTESIAN_POINT('',(-4.875,81.058994578326,-34.95));
#1227 = DIRECTION('',(0.,-1.,0.));
#1228 = DIRECTION('',(0.,0.,1.));
#1229 = ORIENTED_EDGE('',*,*,#1230,.T.);
#1230 = EDGE_CURVE('',#1222,#819,#1231,.T.);
#1231 = CIRCLE('',#1232,1.2);
#1232 = AXIS2_PLACEMENT_3D('',#1233,#1234,#1235);
#1233 = CARTESIAN_POINT('',(-4.875,81.058994578326,-34.95));
#1234 = DIRECTION('',(0.,-1.,0.));
#1235 = DIRECTION('',(0.,0.,1.));
#1236 = ORIENTED_EDGE('',*,*,#818,.F.);
#1237 = ORIENTED_EDGE('',*,*,#802,.T.);
#1238 = ORIENTED_EDGE('',*,*,#762,.T.);
#1239 = FACE_BOUND('',#1240,.T.);
#1240 = EDGE_LOOP('',(#1241,#1242,#1243,#1244,#1253));
#1241 = ORIENTED_EDGE('',*,*,#842,.F.);
#1242 = ORIENTED_EDGE('',*,*,#906,.T.);
#1243 = ORIENTED_EDGE('',*,*,#873,.T.);
#1244 = ORIENTED_EDGE('',*,*,#1245,.T.);
#1245 = EDGE_CURVE('',#876,#1246,#1248,.T.);
#1246 = VERTEX_POINT('',#1247);
#1247 = CARTESIAN_POINT('',(-4.875,81.058994578326,14.85));
#1248 = CIRCLE('',#1249,1.2);
#1249 = AXIS2_PLACEMENT_3D('',#1250,#1251,#1252);
#1250 = CARTESIAN_POINT('',(-4.875,81.058994578326,13.65));
#1251 = DIRECTION('',(0.,-1.,0.));
#1252 = DIRECTION('',(0.,0.,1.));
#1253 = ORIENTED_EDGE('',*,*,#1254,.T.);
#1254 = EDGE_CURVE('',#1246,#845,#1255,.T.);
#1255 = CIRCLE('',#1256,1.2);
#1256 = AXIS2_PLACEMENT_3D('',#1257,#1258,#1259);
#1257 = CARTESIAN_POINT('',(-4.875,81.058994578326,13.65));
#1258 = DIRECTION('',(0.,-1.,0.));
#1259 = DIRECTION('',(0.,0.,1.));
#1260 = FACE_BOUND('',#1261,.T.);
#1261 = EDGE_LOOP('',(#1262,#1271,#1278,#1279,#1280));
#1262 = ORIENTED_EDGE('',*,*,#1263,.T.);
#1263 = EDGE_CURVE('',#925,#1264,#1266,.T.);
#1264 = VERTEX_POINT('',#1265);
#1265 = CARTESIAN_POINT('',(4.875,81.058994578326,-33.75));
#1266 = CIRCLE('',#1267,1.2);
#1267 = AXIS2_PLACEMENT_3D('',#1268,#1269,#1270);
#1268 = CARTESIAN_POINT('',(4.875,81.058994578326,-34.95));
#1269 = DIRECTION('',(0.,-1.,0.));
#1270 = DIRECTION('',(0.,0.,1.));
#1271 = ORIENTED_EDGE('',*,*,#1272,.T.);
#1272 = EDGE_CURVE('',#1264,#979,#1273,.T.);
#1273 = CIRCLE('',#1274,1.2);
#1274 = AXIS2_PLACEMENT_3D('',#1275,#1276,#1277);
#1275 = CARTESIAN_POINT('',(4.875,81.058994578326,-34.95));
#1276 = DIRECTION('',(0.,-1.,0.));
#1277 = DIRECTION('',(0.,0.,1.));
#1278 = ORIENTED_EDGE('',*,*,#978,.F.);
#1279 = ORIENTED_EDGE('',*,*,#962,.T.);
#1280 = ORIENTED_EDGE('',*,*,#922,.T.);
#1281 = FACE_BOUND('',#1282,.T.);
#1282 = EDGE_LOOP('',(#1283,#1284,#1285,#1286));
#1283 = ORIENTED_EDGE('',*,*,#1010,.F.);
#1284 = ORIENTED_EDGE('',*,*,#1082,.T.);
#1285 = ORIENTED_EDGE('',*,*,#1058,.T.);
#1286 = ORIENTED_EDGE('',*,*,#1041,.F.);
#1287 = FACE_BOUND('',#1288,.T.);
#1288 = EDGE_LOOP('',(#1289,#1290,#1291,#1292,#1301));
#1289 = ORIENTED_EDGE('',*,*,#1098,.F.);
#1290 = ORIENTED_EDGE('',*,*,#1162,.T.);
#1291 = ORIENTED_EDGE('',*,*,#1129,.T.);
#1292 = ORIENTED_EDGE('',*,*,#1293,.T.);
#1293 = EDGE_CURVE('',#1132,#1294,#1296,.T.);
#1294 = VERTEX_POINT('',#1295);
#1295 = CARTESIAN_POINT('',(4.875,81.058994578326,14.85));
#1296 = CIRCLE('',#1297,1.2);
#1297 = AXIS2_PLACEMENT_3D('',#1298,#1299,#1300);
#1298 = CARTESIAN_POINT('',(4.875,81.058994578326,13.65));
#1299 = DIRECTION('',(0.,-1.,0.));
#1300 = DIRECTION('',(0.,0.,1.));
#1301 = ORIENTED_EDGE('',*,*,#1302,.T.);
#1302 = EDGE_CURVE('',#1294,#1101,#1303,.T.);
#1303 = CIRCLE('',#1304,1.2);
#1304 = AXIS2_PLACEMENT_3D('',#1305,#1306,#1307);
#1305 = CARTESIAN_POINT('',(4.875,81.058994578326,13.65));
#1306 = DIRECTION('',(0.,-1.,0.));
#1307 = DIRECTION('',(0.,0.,1.));
#1308 = PLANE('',#1309);
#1309 = AXIS2_PLACEMENT_3D('',#1310,#1311,#1312);
#1310 = CARTESIAN_POINT('',(-16.,81.058994578326,-90.38465764503));
#1311 = DIRECTION('',(-0.,1.,0.));
#1312 = DIRECTION('',(0.,0.,1.));
#1313 = ADVANCED_FACE('',(#1314),#1324,.T.);
#1314 = FACE_BOUND('',#1315,.T.);
#1315 = EDGE_LOOP('',(#1316,#1322,#1323));
#1316 = ORIENTED_EDGE('',*,*,#1317,.T.);
#1317 = EDGE_CURVE('',#1206,#300,#1318,.T.);
#1318 = LINE('',#1319,#1320);
#1319 = CARTESIAN_POINT('',(-11.,81.058994578326,-84.38465764503));
#1320 = VECTOR('',#1321,1.);
#1321 = DIRECTION('',(0.,1.,0.));
#1322 = ORIENTED_EDGE('',*,*,#338,.T.);
#1323 = ORIENTED_EDGE('',*,*,#1213,.T.);
#1324 = PLANE('',#1325);
#1325 = AXIS2_PLACEMENT_3D('',#1326,#1327,#1328);
#1326 = CARTESIAN_POINT('',(-11.,89.897829343158,-75.5458228802));
#1327 = DIRECTION('',(1.,0.,0.));
#1328 = DIRECTION('',(-0.,0.,1.));
#1329 = ADVANCED_FACE('',(#1330),#1341,.T.);
#1330 = FACE_BOUND('',#1331,.T.);
#1331 = EDGE_LOOP('',(#1332,#1333,#1334,#1340));
#1332 = ORIENTED_EDGE('',*,*,#1317,.F.);
#1333 = ORIENTED_EDGE('',*,*,#1205,.F.);
#1334 = ORIENTED_EDGE('',*,*,#1335,.T.);
#1335 = EDGE_CURVE('',#1198,#308,#1336,.T.);
#1336 = LINE('',#1337,#1338);
#1337 = CARTESIAN_POINT('',(11.,81.058994578326,-84.38465764503));
#1338 = VECTOR('',#1339,1.);
#1339 = DIRECTION('',(0.,1.,0.));
#1340 = ORIENTED_EDGE('',*,*,#307,.F.);
#1341 = PLANE('',#1342);
#1342 = AXIS2_PLACEMENT_3D('',#1343,#1344,#1345);
#1343 = CARTESIAN_POINT('',(-16.,-86.85899457832,-84.38465764503));
#1344 = DIRECTION('',(0.,0.,1.));
#1345 = DIRECTION('',(1.,0.,-0.));
#1346 = ADVANCED_FACE('',(#1347),#1357,.F.);
#1347 = FACE_BOUND('',#1348,.F.);
#1348 = EDGE_LOOP('',(#1349,#1350,#1356));
#1349 = ORIENTED_EDGE('',*,*,#1335,.T.);
#1350 = ORIENTED_EDGE('',*,*,#1351,.T.);
#1351 = EDGE_CURVE('',#308,#1190,#1352,.T.);
#1352 = LINE('',#1353,#1354);
#1353 = CARTESIAN_POINT('',(11.,106.05899457832,-84.38465764503));
#1354 = VECTOR('',#1355,1.);
#1355 = DIRECTION('',(0.,-0.707106781187,0.707106781187));
#1356 = ORIENTED_EDGE('',*,*,#1197,.T.);
#1357 = PLANE('',#1358);
#1358 = AXIS2_PLACEMENT_3D('',#1359,#1360,#1361);
#1359 = CARTESIAN_POINT('',(11.,89.897829343158,-75.5458228802));
#1360 = DIRECTION('',(1.,0.,0.));
#1361 = DIRECTION('',(-0.,0.,1.));
#1362 = ADVANCED_FACE('',(#1363),#1374,.F.);
#1363 = FACE_BOUND('',#1364,.F.);
#1364 = EDGE_LOOP('',(#1365,#1366,#1372,#1373));
#1365 = ORIENTED_EDGE('',*,*,#315,.T.);
#1366 = ORIENTED_EDGE('',*,*,#1367,.T.);
#1367 = EDGE_CURVE('',#316,#1182,#1368,.T.);
#1368 = LINE('',#1369,#1370);
#1369 = CARTESIAN_POINT('',(16.,106.05899457832,-84.38465764503));
#1370 = VECTOR('',#1371,1.);
#1371 = DIRECTION('',(0.,-0.707106781187,0.707106781187));
#1372 = ORIENTED_EDGE('',*,*,#1189,.F.);
#1373 = ORIENTED_EDGE('',*,*,#1351,.F.);
#1374 = PLANE('',#1375);
#1375 = AXIS2_PLACEMENT_3D('',#1376,#1377,#1378);
#1376 = CARTESIAN_POINT('',(11.,106.05899457832,-84.38465764503));
#1377 = DIRECTION('',(0.,-0.707106781187,-0.707106781187));
#1378 = DIRECTION('',(0.,-0.707106781187,0.707106781187));
#1379 = ADVANCED_FACE('',(#1380,#1391),#1459,.F.);
#1380 = FACE_BOUND('',#1381,.T.);
#1381 = EDGE_LOOP('',(#1382,#1383,#1384,#1390));
#1382 = ORIENTED_EDGE('',*,*,#276,.T.);
#1383 = ORIENTED_EDGE('',*,*,#290,.T.);
#1384 = ORIENTED_EDGE('',*,*,#1385,.F.);
#1385 = EDGE_CURVE('',#24,#291,#1386,.T.);
#1386 = LINE('',#1387,#1388);
#1387 = CARTESIAN_POINT('',(16.,-86.85899457832,-90.38465764503));
#1388 = VECTOR('',#1389,1.);
#1389 = DIRECTION('',(-0.,1.,0.));
#1390 = ORIENTED_EDGE('',*,*,#21,.F.);
#1391 = FACE_BOUND('',#1392,.F.);
#1392 = EDGE_LOOP('',(#1393,#1403,#1411,#1420,#1428,#1436,#1444,#1453));
#1393 = ORIENTED_EDGE('',*,*,#1394,.T.);
#1394 = EDGE_CURVE('',#1395,#1397,#1399,.T.);
#1395 = VERTEX_POINT('',#1396);
#1396 = CARTESIAN_POINT('',(4.25,-23.,-90.38465764503));
#1397 = VERTEX_POINT('',#1398);
#1398 = CARTESIAN_POINT('',(-4.25,-23.,-90.38465764503));
#1399 = LINE('',#1400,#1401);
#1400 = CARTESIAN_POINT('',(-10.125,-23.,-90.38465764503));
#1401 = VECTOR('',#1402,1.);
#1402 = DIRECTION('',(-1.,0.,0.));
#1403 = ORIENTED_EDGE('',*,*,#1404,.T.);
#1404 = EDGE_CURVE('',#1397,#1405,#1407,.T.);
#1405 = VERTEX_POINT('',#1406);
#1406 = CARTESIAN_POINT('',(-4.25,-3.872983346207,-90.38465764503));
#1407 = LINE('',#1408,#1409);
#1408 = CARTESIAN_POINT('',(-4.25,-54.92949728916,-90.38465764503));
#1409 = VECTOR('',#1410,1.);
#1410 = DIRECTION('',(0.,1.,0.));
#1411 = ORIENTED_EDGE('',*,*,#1412,.T.);
#1412 = EDGE_CURVE('',#1405,#1413,#1415,.T.);
#1413 = VERTEX_POINT('',#1414);
#1414 = CARTESIAN_POINT('',(-4.25,3.872983346207,-90.38465764503));
#1415 = CIRCLE('',#1416,5.75);
#1416 = AXIS2_PLACEMENT_3D('',#1417,#1418,#1419);
#1417 = CARTESIAN_POINT('',(0.,0.,-90.38465764503));
#1418 = DIRECTION('',(0.,0.,-1.));
#1419 = DIRECTION('',(0.,1.,0.));
#1420 = ORIENTED_EDGE('',*,*,#1421,.T.);
#1421 = EDGE_CURVE('',#1413,#1422,#1424,.T.);
#1422 = VERTEX_POINT('',#1423);
#1423 = CARTESIAN_POINT('',(-4.25,23.,-90.38465764503));
#1424 = LINE('',#1425,#1426);
#1425 = CARTESIAN_POINT('',(-4.25,-54.92949728916,-90.38465764503));
#1426 = VECTOR('',#1427,1.);
#1427 = DIRECTION('',(0.,1.,0.));
#1428 = ORIENTED_EDGE('',*,*,#1429,.F.);
#1429 = EDGE_CURVE('',#1430,#1422,#1432,.T.);
#1430 = VERTEX_POINT('',#1431);
#1431 = CARTESIAN_POINT('',(4.25,23.,-90.38465764503));
#1432 = LINE('',#1433,#1434);
#1433 = CARTESIAN_POINT('',(-10.125,23.,-90.38465764503));
#1434 = VECTOR('',#1435,1.);
#1435 = DIRECTION('',(-1.,0.,0.));
#1436 = ORIENTED_EDGE('',*,*,#1437,.F.);
#1437 = EDGE_CURVE('',#1438,#1430,#1440,.T.);
#1438 = VERTEX_POINT('',#1439);
#1439 = CARTESIAN_POINT('',(4.25,3.872983346207,-90.38465764503));
#1440 = LINE('',#1441,#1442);
#1441 = CARTESIAN_POINT('',(4.25,-54.92949728916,-90.38465764503));
#1442 = VECTOR('',#1443,1.);
#1443 = DIRECTION('',(0.,1.,0.));
#1444 = ORIENTED_EDGE('',*,*,#1445,.T.);
#1445 = EDGE_CURVE('',#1438,#1446,#1448,.T.);
#1446 = VERTEX_POINT('',#1447);
#1447 = CARTESIAN_POINT('',(4.25,-3.872983346207,-90.38465764503));
#1448 = CIRCLE('',#1449,5.75);
#1449 = AXIS2_PLACEMENT_3D('',#1450,#1451,#1452);
#1450 = CARTESIAN_POINT('',(0.,0.,-90.38465764503));
#1451 = DIRECTION('',(0.,0.,-1.));
#1452 = DIRECTION('',(0.,1.,0.));
#1453 = ORIENTED_EDGE('',*,*,#1454,.F.);
#1454 = EDGE_CURVE('',#1395,#1446,#1455,.T.);
#1455 = LINE('',#1456,#1457);
#1456 = CARTESIAN_POINT('',(4.25,-54.92949728916,-90.38465764503));
#1457 = VECTOR('',#1458,1.);
#1458 = DIRECTION('',(0.,1.,0.));
#1459 = PLANE('',#1460);
#1460 = AXIS2_PLACEMENT_3D('',#1461,#1462,#1463);
#1461 = CARTESIAN_POINT('',(-16.,-86.85899457832,-90.38465764503));
#1462 = DIRECTION('',(0.,0.,1.));
#1463 = DIRECTION('',(1.,0.,-0.));
#1464 = ADVANCED_FACE('',(#1465),#1490,.F.);
#1465 = FACE_BOUND('',#1466,.F.);
#1466 = EDGE_LOOP('',(#1467,#1477,#1483,#1484));
#1467 = ORIENTED_EDGE('',*,*,#1468,.F.);
#1468 = EDGE_CURVE('',#1469,#1471,#1473,.T.);
#1469 = VERTEX_POINT('',#1470);
#1470 = CARTESIAN_POINT('',(4.25,-23.,-87.88465764503));
#1471 = VERTEX_POINT('',#1472);
#1472 = CARTESIAN_POINT('',(4.25,-3.872983346207,-87.88465764503));
#1473 = LINE('',#1474,#1475);
#1474 = CARTESIAN_POINT('',(4.25,-23.,-87.88465764503));
#1475 = VECTOR('',#1476,1.);
#1476 = DIRECTION('',(0.,1.,0.));
#1477 = ORIENTED_EDGE('',*,*,#1478,.T.);
#1478 = EDGE_CURVE('',#1469,#1395,#1479,.T.);
#1479 = LINE('',#1480,#1481);
#1480 = CARTESIAN_POINT('',(4.25,-23.,-87.88465764503));
#1481 = VECTOR('',#1482,1.);
#1482 = DIRECTION('',(0.,0.,-1.));
#1483 = ORIENTED_EDGE('',*,*,#1454,.T.);
#1484 = ORIENTED_EDGE('',*,*,#1485,.F.);
#1485 = EDGE_CURVE('',#1471,#1446,#1486,.T.);
#1486 = LINE('',#1487,#1488);
#1487 = CARTESIAN_POINT('',(4.25,-3.872983346207,-87.88465764503));
#1488 = VECTOR('',#1489,1.);
#1489 = DIRECTION('',(0.,0.,-1.));
#1490 = PLANE('',#1491);
#1491 = AXIS2_PLACEMENT_3D('',#1492,#1493,#1494);
#1492 = CARTESIAN_POINT('',(4.25,-23.,-87.88465764503));
#1493 = DIRECTION('',(1.,0.,0.));
#1494 = DIRECTION('',(0.,0.,-1.));
#1495 = ADVANCED_FACE('',(#1496),#1515,.F.);
#1496 = FACE_BOUND('',#1497,.F.);
#1497 = EDGE_LOOP('',(#1498,#1499,#1507,#1514));
#1498 = ORIENTED_EDGE('',*,*,#1445,.F.);
#1499 = ORIENTED_EDGE('',*,*,#1500,.F.);
#1500 = EDGE_CURVE('',#1501,#1438,#1503,.T.);
#1501 = VERTEX_POINT('',#1502);
#1502 = CARTESIAN_POINT('',(4.25,3.872983346208,-87.88465764503));
#1503 = LINE('',#1504,#1505);
#1504 = CARTESIAN_POINT('',(4.25,3.872983346207,-87.88465764503));
#1505 = VECTOR('',#1506,1.);
#1506 = DIRECTION('',(0.,0.,-1.));
#1507 = ORIENTED_EDGE('',*,*,#1508,.T.);
#1508 = EDGE_CURVE('',#1501,#1471,#1509,.T.);
#1509 = CIRCLE('',#1510,5.75);
#1510 = AXIS2_PLACEMENT_3D('',#1511,#1512,#1513);
#1511 = CARTESIAN_POINT('',(0.,0.,-87.88465764503));
#1512 = DIRECTION('',(0.,0.,-1.));
#1513 = DIRECTION('',(0.,1.,0.));
#1514 = ORIENTED_EDGE('',*,*,#1485,.T.);
#1515 = CYLINDRICAL_SURFACE('',#1516,5.75);
#1516 = AXIS2_PLACEMENT_3D('',#1517,#1518,#1519);
#1517 = CARTESIAN_POINT('',(0.,0.,-87.88465764503));
#1518 = DIRECTION('',(0.,0.,-1.));
#1519 = DIRECTION('',(0.,1.,0.));
#1520 = ADVANCED_FACE('',(#1521),#1539,.F.);
#1521 = FACE_BOUND('',#1522,.F.);
#1522 = EDGE_LOOP('',(#1523,#1531,#1532,#1533));
#1523 = ORIENTED_EDGE('',*,*,#1524,.F.);
#1524 = EDGE_CURVE('',#1501,#1525,#1527,.T.);
#1525 = VERTEX_POINT('',#1526);
#1526 = CARTESIAN_POINT('',(4.25,23.,-87.88465764503));
#1527 = LINE('',#1528,#1529);
#1528 = CARTESIAN_POINT('',(4.25,-23.,-87.88465764503));
#1529 = VECTOR('',#1530,1.);
#1530 = DIRECTION('',(0.,1.,0.));
#1531 = ORIENTED_EDGE('',*,*,#1500,.T.);
#1532 = ORIENTED_EDGE('',*,*,#1437,.T.);
#1533 = ORIENTED_EDGE('',*,*,#1534,.F.);
#1534 = EDGE_CURVE('',#1525,#1430,#1535,.T.);
#1535 = LINE('',#1536,#1537);
#1536 = CARTESIAN_POINT('',(4.25,23.,-87.88465764503));
#1537 = VECTOR('',#1538,1.);
#1538 = DIRECTION('',(0.,0.,-1.));
#1539 = PLANE('',#1540);
#1540 = AXIS2_PLACEMENT_3D('',#1541,#1542,#1543);
#1541 = CARTESIAN_POINT('',(4.25,-23.,-87.88465764503));
#1542 = DIRECTION('',(1.,0.,0.));
#1543 = DIRECTION('',(0.,0.,-1.));
#1544 = ADVANCED_FACE('',(#1545),#1563,.F.);
#1545 = FACE_BOUND('',#1546,.F.);
#1546 = EDGE_LOOP('',(#1547,#1555,#1561,#1562));
#1547 = ORIENTED_EDGE('',*,*,#1548,.F.);
#1548 = EDGE_CURVE('',#1549,#1422,#1551,.T.);
#1549 = VERTEX_POINT('',#1550);
#1550 = CARTESIAN_POINT('',(-4.25,23.,-87.88465764503));
#1551 = LINE('',#1552,#1553);
#1552 = CARTESIAN_POINT('',(-4.25,23.,-87.88465764503));
#1553 = VECTOR('',#1554,1.);
#1554 = DIRECTION('',(0.,0.,-1.));
#1555 = ORIENTED_EDGE('',*,*,#1556,.T.);
#1556 = EDGE_CURVE('',#1549,#1525,#1557,.T.);
#1557 = LINE('',#1558,#1559);
#1558 = CARTESIAN_POINT('',(-4.25,23.,-87.88465764503));
#1559 = VECTOR('',#1560,1.);
#1560 = DIRECTION('',(1.,0.,0.));
#1561 = ORIENTED_EDGE('',*,*,#1534,.T.);
#1562 = ORIENTED_EDGE('',*,*,#1429,.T.);
#1563 = PLANE('',#1564);
#1564 = AXIS2_PLACEMENT_3D('',#1565,#1566,#1567);
#1565 = CARTESIAN_POINT('',(-4.25,23.,-87.88465764503));
#1566 = DIRECTION('',(0.,1.,0.));
#1567 = DIRECTION('',(0.,0.,-1.));
#1568 = ADVANCED_FACE('',(#1569),#1587,.T.);
#1569 = FACE_BOUND('',#1570,.T.);
#1570 = EDGE_LOOP('',(#1571,#1579,#1585,#1586));
#1571 = ORIENTED_EDGE('',*,*,#1572,.F.);
#1572 = EDGE_CURVE('',#1573,#1549,#1575,.T.);
#1573 = VERTEX_POINT('',#1574);
#1574 = CARTESIAN_POINT('',(-4.25,3.872983346208,-87.88465764503));
#1575 = LINE('',#1576,#1577);
#1576 = CARTESIAN_POINT('',(-4.25,-23.,-87.88465764503));
#1577 = VECTOR('',#1578,1.);
#1578 = DIRECTION('',(0.,1.,0.));
#1579 = ORIENTED_EDGE('',*,*,#1580,.T.);
#1580 = EDGE_CURVE('',#1573,#1413,#1581,.T.);
#1581 = LINE('',#1582,#1583);
#1582 = CARTESIAN_POINT('',(-4.25,3.872983346207,-87.88465764503));
#1583 = VECTOR('',#1584,1.);
#1584 = DIRECTION('',(0.,0.,-1.));
#1585 = ORIENTED_EDGE('',*,*,#1421,.T.);
#1586 = ORIENTED_EDGE('',*,*,#1548,.F.);
#1587 = PLANE('',#1588);
#1588 = AXIS2_PLACEMENT_3D('',#1589,#1590,#1591);
#1589 = CARTESIAN_POINT('',(-4.25,-23.,-87.88465764503));
#1590 = DIRECTION('',(1.,0.,0.));
#1591 = DIRECTION('',(0.,0.,-1.));
#1592 = ADVANCED_FACE('',(#1593),#1612,.F.);
#1593 = FACE_BOUND('',#1594,.F.);
#1594 = EDGE_LOOP('',(#1595,#1604,#1605,#1606));
#1595 = ORIENTED_EDGE('',*,*,#1596,.T.);
#1596 = EDGE_CURVE('',#1597,#1573,#1599,.T.);
#1597 = VERTEX_POINT('',#1598);
#1598 = CARTESIAN_POINT('',(-4.25,-3.872983346207,-87.88465764503));
#1599 = CIRCLE('',#1600,5.75);
#1600 = AXIS2_PLACEMENT_3D('',#1601,#1602,#1603);
#1601 = CARTESIAN_POINT('',(0.,0.,-87.88465764503));
#1602 = DIRECTION('',(0.,0.,-1.));
#1603 = DIRECTION('',(0.,1.,0.));
#1604 = ORIENTED_EDGE('',*,*,#1580,.T.);
#1605 = ORIENTED_EDGE('',*,*,#1412,.F.);
#1606 = ORIENTED_EDGE('',*,*,#1607,.F.);
#1607 = EDGE_CURVE('',#1597,#1405,#1608,.T.);
#1608 = LINE('',#1609,#1610);
#1609 = CARTESIAN_POINT('',(-4.25,-3.872983346207,-87.88465764503));
#1610 = VECTOR('',#1611,1.);
#1611 = DIRECTION('',(0.,0.,-1.));
#1612 = CYLINDRICAL_SURFACE('',#1613,5.75);
#1613 = AXIS2_PLACEMENT_3D('',#1614,#1615,#1616);
#1614 = CARTESIAN_POINT('',(0.,0.,-87.88465764503));
#1615 = DIRECTION('',(0.,0.,-1.));
#1616 = DIRECTION('',(0.,1.,0.));
#1617 = ADVANCED_FACE('',(#1618),#1636,.T.);
#1618 = FACE_BOUND('',#1619,.T.);
#1619 = EDGE_LOOP('',(#1620,#1628,#1634,#1635));
#1620 = ORIENTED_EDGE('',*,*,#1621,.F.);
#1621 = EDGE_CURVE('',#1622,#1597,#1624,.T.);
#1622 = VERTEX_POINT('',#1623);
#1623 = CARTESIAN_POINT('',(-4.25,-23.,-87.88465764503));
#1624 = LINE('',#1625,#1626);
#1625 = CARTESIAN_POINT('',(-4.25,-23.,-87.88465764503));
#1626 = VECTOR('',#1627,1.);
#1627 = DIRECTION('',(0.,1.,0.));
#1628 = ORIENTED_EDGE('',*,*,#1629,.T.);
#1629 = EDGE_CURVE('',#1622,#1397,#1630,.T.);
#1630 = LINE('',#1631,#1632);
#1631 = CARTESIAN_POINT('',(-4.25,-23.,-87.88465764503));
#1632 = VECTOR('',#1633,1.);
#1633 = DIRECTION('',(0.,0.,-1.));
#1634 = ORIENTED_EDGE('',*,*,#1404,.T.);
#1635 = ORIENTED_EDGE('',*,*,#1607,.F.);
#1636 = PLANE('',#1637);
#1637 = AXIS2_PLACEMENT_3D('',#1638,#1639,#1640);
#1638 = CARTESIAN_POINT('',(-4.25,-23.,-87.88465764503));
#1639 = DIRECTION('',(1.,0.,0.));
#1640 = DIRECTION('',(0.,0.,-1.));
#1641 = ADVANCED_FACE('',(#1642),#1653,.T.);
#1642 = FACE_BOUND('',#1643,.T.);
#1643 = EDGE_LOOP('',(#1644,#1645,#1651,#1652));
#1644 = ORIENTED_EDGE('',*,*,#1629,.F.);
#1645 = ORIENTED_EDGE('',*,*,#1646,.T.);
#1646 = EDGE_CURVE('',#1622,#1469,#1647,.T.);
#1647 = LINE('',#1648,#1649);
#1648 = CARTESIAN_POINT('',(-4.25,-23.,-87.88465764503));
#1649 = VECTOR('',#1650,1.);
#1650 = DIRECTION('',(1.,0.,0.));
#1651 = ORIENTED_EDGE('',*,*,#1478,.T.);
#1652 = ORIENTED_EDGE('',*,*,#1394,.T.);
#1653 = PLANE('',#1654);
#1654 = AXIS2_PLACEMENT_3D('',#1655,#1656,#1657);
#1655 = CARTESIAN_POINT('',(-4.25,-23.,-87.88465764503));
#1656 = DIRECTION('',(0.,1.,0.));
#1657 = DIRECTION('',(0.,0.,-1.));
#1658 = ADVANCED_FACE('',(#1659),#1692,.T.);
#1659 = FACE_BOUND('',#1660,.T.);
#1660 = EDGE_LOOP('',(#1661,#1662,#1663,#1664,#1665,#1666,#1667,#1668,
    #1669,#1677,#1685,#1691));
#1661 = ORIENTED_EDGE('',*,*,#63,.F.);
#1662 = ORIENTED_EDGE('',*,*,#1385,.T.);
#1663 = ORIENTED_EDGE('',*,*,#323,.T.);
#1664 = ORIENTED_EDGE('',*,*,#1367,.T.);
#1665 = ORIENTED_EDGE('',*,*,#1181,.T.);
#1666 = ORIENTED_EDGE('',*,*,#740,.F.);
#1667 = ORIENTED_EDGE('',*,*,#435,.F.);
#1668 = ORIENTED_EDGE('',*,*,#370,.F.);
#1669 = ORIENTED_EDGE('',*,*,#1670,.T.);
#1670 = EDGE_CURVE('',#363,#1671,#1673,.T.);
#1671 = VERTEX_POINT('',#1672);
#1672 = CARTESIAN_POINT('',(16.,-55.85899457832,12.));
#1673 = LINE('',#1674,#1675);
#1674 = CARTESIAN_POINT('',(16.,-55.85899457832,-90.38465764503));
#1675 = VECTOR('',#1676,1.);
#1676 = DIRECTION('',(0.,0.,1.));
#1677 = ORIENTED_EDGE('',*,*,#1678,.F.);
#1678 = EDGE_CURVE('',#1679,#1671,#1681,.T.);
#1679 = VERTEX_POINT('',#1680);
#1680 = CARTESIAN_POINT('',(16.,-61.85899457832,12.));
#1681 = LINE('',#1682,#1683);
#1682 = CARTESIAN_POINT('',(16.,-61.85899457832,12.));
#1683 = VECTOR('',#1684,1.);
#1684 = DIRECTION('',(-0.,1.,0.));
#1685 = ORIENTED_EDGE('',*,*,#1686,.F.);
#1686 = EDGE_CURVE('',#141,#1679,#1687,.T.);
#1687 = LINE('',#1688,#1689);
#1688 = CARTESIAN_POINT('',(16.,-61.85899457832,-90.38465764503));
#1689 = VECTOR('',#1690,1.);
#1690 = DIRECTION('',(0.,0.,1.));
#1691 = ORIENTED_EDGE('',*,*,#140,.F.);
#1692 = PLANE('',#1693);
#1693 = AXIS2_PLACEMENT_3D('',#1694,#1695,#1696);
#1694 = CARTESIAN_POINT('',(16.,10.935202917045,-57.92593310524));
#1695 = DIRECTION('',(1.,0.,0.));
#1696 = DIRECTION('',(-0.,0.,1.));
#1697 = ADVANCED_FACE('',(#1698,#1713,#1724,#1753,#1782,#1793),#1804,.T.
  );
#1698 = FACE_BOUND('',#1699,.T.);
#1699 = EDGE_LOOP('',(#1700,#1701,#1707,#1708,#1709,#1710,#1711,#1712));
#1700 = ORIENTED_EDGE('',*,*,#1686,.T.);
#1701 = ORIENTED_EDGE('',*,*,#1702,.F.);
#1702 = EDGE_CURVE('',#205,#1679,#1703,.T.);
#1703 = LINE('',#1704,#1705);
#1704 = CARTESIAN_POINT('',(-16.,-61.85899457832,12.));
#1705 = VECTOR('',#1706,1.);
#1706 = DIRECTION('',(1.,0.,-0.));
#1707 = ORIENTED_EDGE('',*,*,#204,.F.);
#1708 = ORIENTED_EDGE('',*,*,#86,.T.);
#1709 = ORIENTED_EDGE('',*,*,#172,.T.);
#1710 = ORIENTED_EDGE('',*,*,#125,.F.);
#1711 = ORIENTED_EDGE('',*,*,#188,.F.);
#1712 = ORIENTED_EDGE('',*,*,#148,.T.);
#1713 = FACE_BOUND('',#1714,.T.);
#1714 = EDGE_LOOP('',(#1715));
#1715 = ORIENTED_EDGE('',*,*,#1716,.F.);
#1716 = EDGE_CURVE('',#1717,#1717,#1719,.T.);
#1717 = VERTEX_POINT('',#1718);
#1718 = CARTESIAN_POINT('',(-1.243016501135E-15,-61.85899457832,-5.075)
  );
#1719 = CIRCLE('',#1720,5.075);
#1720 = AXIS2_PLACEMENT_3D('',#1721,#1722,#1723);
#1721 = CARTESIAN_POINT('',(0.,-61.85899457832,0.));
#1722 = DIRECTION('',(0.,-1.,0.));
#1723 = DIRECTION('',(0.,-0.,-1.));
#1724 = FACE_BOUND('',#1725,.T.);
#1725 = EDGE_LOOP('',(#1726,#1737,#1746));
#1726 = ORIENTED_EDGE('',*,*,#1727,.T.);
#1727 = EDGE_CURVE('',#1728,#1730,#1732,.T.);
#1728 = VERTEX_POINT('',#1729);
#1729 = CARTESIAN_POINT('',(-11.24945823067,-61.85899457832,
    7.377595946259));
#1730 = VERTEX_POINT('',#1731);
#1731 = CARTESIAN_POINT('',(-11.,-61.85899457832,7.4));
#1732 = CIRCLE('',#1733,1.4);
#1733 = AXIS2_PLACEMENT_3D('',#1734,#1735,#1736);
#1734 = CARTESIAN_POINT('',(-11.,-61.85899457832,6.));
#1735 = DIRECTION('',(0.,1.,0.));
#1736 = DIRECTION('',(0.,-0.,1.));
#1737 = ORIENTED_EDGE('',*,*,#1738,.T.);
#1738 = EDGE_CURVE('',#1730,#1739,#1741,.T.);
#1739 = VERTEX_POINT('',#1740);
#1740 = CARTESIAN_POINT('',(-12.3950666562,-61.85899457832,
    6.117426678175));
#1741 = CIRCLE('',#1742,1.4);
#1742 = AXIS2_PLACEMENT_3D('',#1743,#1744,#1745);
#1743 = CARTESIAN_POINT('',(-11.,-61.85899457832,6.));
#1744 = DIRECTION('',(0.,1.,0.));
#1745 = DIRECTION('',(0.,-0.,1.));
#1746 = ORIENTED_EDGE('',*,*,#1747,.T.);
#1747 = EDGE_CURVE('',#1739,#1728,#1748,.T.);
#1748 = CIRCLE('',#1749,1.4);
#1749 = AXIS2_PLACEMENT_3D('',#1750,#1751,#1752);
#1750 = CARTESIAN_POINT('',(-11.,-61.85899457832,6.));
#1751 = DIRECTION('',(0.,1.,0.));
#1752 = DIRECTION('',(0.,-0.,1.));
#1753 = FACE_BOUND('',#1754,.T.);
#1754 = EDGE_LOOP('',(#1755,#1766,#1775));
#1755 = ORIENTED_EDGE('',*,*,#1756,.T.);
#1756 = EDGE_CURVE('',#1757,#1759,#1761,.T.);
#1757 = VERTEX_POINT('',#1758);
#1758 = CARTESIAN_POINT('',(12.395066656204,-61.85899457832,
    6.117426678175));
#1759 = VERTEX_POINT('',#1760);
#1760 = CARTESIAN_POINT('',(11.,-61.85899457832,7.4));
#1761 = CIRCLE('',#1762,1.4);
#1762 = AXIS2_PLACEMENT_3D('',#1763,#1764,#1765);
#1763 = CARTESIAN_POINT('',(11.,-61.85899457832,6.));
#1764 = DIRECTION('',(0.,1.,0.));
#1765 = DIRECTION('',(0.,-0.,1.));
#1766 = ORIENTED_EDGE('',*,*,#1767,.T.);
#1767 = EDGE_CURVE('',#1759,#1768,#1770,.T.);
#1768 = VERTEX_POINT('',#1769);
#1769 = CARTESIAN_POINT('',(11.249458230674,-61.85899457832,
    7.377595946259));
#1770 = CIRCLE('',#1771,1.4);
#1771 = AXIS2_PLACEMENT_3D('',#1772,#1773,#1774);
#1772 = CARTESIAN_POINT('',(11.,-61.85899457832,6.));
#1773 = DIRECTION('',(0.,1.,0.));
#1774 = DIRECTION('',(0.,-0.,1.));
#1775 = ORIENTED_EDGE('',*,*,#1776,.T.);
#1776 = EDGE_CURVE('',#1768,#1757,#1777,.T.);
#1777 = CIRCLE('',#1778,1.4);
#1778 = AXIS2_PLACEMENT_3D('',#1779,#1780,#1781);
#1779 = CARTESIAN_POINT('',(11.,-61.85899457832,6.));
#1780 = DIRECTION('',(0.,1.,0.));
#1781 = DIRECTION('',(0.,-0.,1.));
#1782 = FACE_BOUND('',#1783,.T.);
#1783 = EDGE_LOOP('',(#1784));
#1784 = ORIENTED_EDGE('',*,*,#1785,.T.);
#1785 = EDGE_CURVE('',#1786,#1786,#1788,.T.);
#1786 = VERTEX_POINT('',#1787);
#1787 = CARTESIAN_POINT('',(-11.,-61.85899457832,-10.6));
#1788 = CIRCLE('',#1789,1.4);
#1789 = AXIS2_PLACEMENT_3D('',#1790,#1791,#1792);
#1790 = CARTESIAN_POINT('',(-11.,-61.85899457832,-12.));
#1791 = DIRECTION('',(0.,1.,0.));
#1792 = DIRECTION('',(0.,-0.,1.));
#1793 = FACE_BOUND('',#1794,.T.);
#1794 = EDGE_LOOP('',(#1795));
#1795 = ORIENTED_EDGE('',*,*,#1796,.T.);
#1796 = EDGE_CURVE('',#1797,#1797,#1799,.T.);
#1797 = VERTEX_POINT('',#1798);
#1798 = CARTESIAN_POINT('',(11.,-61.85899457832,-10.6));
#1799 = CIRCLE('',#1800,1.4);
#1800 = AXIS2_PLACEMENT_3D('',#1801,#1802,#1803);
#1801 = CARTESIAN_POINT('',(11.,-61.85899457832,-12.));
#1802 = DIRECTION('',(0.,1.,0.));
#1803 = DIRECTION('',(0.,-0.,1.));
#1804 = PLANE('',#1805);
#1805 = AXIS2_PLACEMENT_3D('',#1806,#1807,#1808);
#1806 = CARTESIAN_POINT('',(0.,-61.85899457832,-35.21869223468));
#1807 = DIRECTION('',(-0.,-1.,-0.));
#1808 = DIRECTION('',(0.,0.,-1.));
#1809 = ADVANCED_FACE('',(#1810),#1829,.F.);
#1810 = FACE_BOUND('',#1811,.F.);
#1811 = EDGE_LOOP('',(#1812,#1813,#1821,#1828));
#1812 = ORIENTED_EDGE('',*,*,#1716,.F.);
#1813 = ORIENTED_EDGE('',*,*,#1814,.F.);
#1814 = EDGE_CURVE('',#1815,#1717,#1817,.T.);
#1815 = VERTEX_POINT('',#1816);
#1816 = CARTESIAN_POINT('',(-1.243016501135E-15,-57.85899457832,-5.075)
  );
#1817 = LINE('',#1818,#1819);
#1818 = CARTESIAN_POINT('',(-1.243016501135E-15,-57.85899457832,-5.075)
  );
#1819 = VECTOR('',#1820,1.);
#1820 = DIRECTION('',(0.,-1.,0.));
#1821 = ORIENTED_EDGE('',*,*,#1822,.T.);
#1822 = EDGE_CURVE('',#1815,#1815,#1823,.T.);
#1823 = CIRCLE('',#1824,5.075);
#1824 = AXIS2_PLACEMENT_3D('',#1825,#1826,#1827);
#1825 = CARTESIAN_POINT('',(0.,-57.85899457832,0.));
#1826 = DIRECTION('',(0.,-1.,0.));
#1827 = DIRECTION('',(0.,-0.,-1.));
#1828 = ORIENTED_EDGE('',*,*,#1814,.T.);
#1829 = CYLINDRICAL_SURFACE('',#1830,5.075);
#1830 = AXIS2_PLACEMENT_3D('',#1831,#1832,#1833);
#1831 = CARTESIAN_POINT('',(0.,-57.85899457832,0.));
#1832 = DIRECTION('',(0.,-1.,0.));
#1833 = DIRECTION('',(0.,-0.,-1.));
#1834 = ADVANCED_FACE('',(#1835,#1838),#1849,.T.);
#1835 = FACE_BOUND('',#1836,.T.);
#1836 = EDGE_LOOP('',(#1837));
#1837 = ORIENTED_EDGE('',*,*,#1822,.T.);
#1838 = FACE_BOUND('',#1839,.T.);
#1839 = EDGE_LOOP('',(#1840));
#1840 = ORIENTED_EDGE('',*,*,#1841,.F.);
#1841 = EDGE_CURVE('',#1842,#1842,#1844,.T.);
#1842 = VERTEX_POINT('',#1843);
#1843 = CARTESIAN_POINT('',(-7.960204194458E-16,-57.85899457832,-3.25));
#1844 = CIRCLE('',#1845,3.25);
#1845 = AXIS2_PLACEMENT_3D('',#1846,#1847,#1848);
#1846 = CARTESIAN_POINT('',(0.,-57.85899457832,0.));
#1847 = DIRECTION('',(0.,-1.,0.));
#1848 = DIRECTION('',(0.,-0.,-1.));
#1849 = PLANE('',#1850);
#1850 = AXIS2_PLACEMENT_3D('',#1851,#1852,#1853);
#1851 = CARTESIAN_POINT('',(0.,-57.85899457832,0.));
#1852 = DIRECTION('',(0.,-1.,0.));
#1853 = DIRECTION('',(0.,-0.,-1.));
#1854 = ADVANCED_FACE('',(#1855),#1874,.F.);
#1855 = FACE_BOUND('',#1856,.F.);
#1856 = EDGE_LOOP('',(#1857,#1865,#1866,#1867));
#1857 = ORIENTED_EDGE('',*,*,#1858,.T.);
#1858 = EDGE_CURVE('',#1859,#1842,#1861,.T.);
#1859 = VERTEX_POINT('',#1860);
#1860 = CARTESIAN_POINT('',(-7.960204194458E-16,-55.85899457832,-3.25));
#1861 = LINE('',#1862,#1863);
#1862 = CARTESIAN_POINT('',(-7.960204194458E-16,-54.85899457832,-3.25));
#1863 = VECTOR('',#1864,1.);
#1864 = DIRECTION('',(0.,-1.,0.));
#1865 = ORIENTED_EDGE('',*,*,#1841,.F.);
#1866 = ORIENTED_EDGE('',*,*,#1858,.F.);
#1867 = ORIENTED_EDGE('',*,*,#1868,.T.);
#1868 = EDGE_CURVE('',#1859,#1859,#1869,.T.);
#1869 = CIRCLE('',#1870,3.25);
#1870 = AXIS2_PLACEMENT_3D('',#1871,#1872,#1873);
#1871 = CARTESIAN_POINT('',(0.,-55.85899457832,0.));
#1872 = DIRECTION('',(0.,-1.,0.));
#1873 = DIRECTION('',(0.,-0.,-1.));
#1874 = CYLINDRICAL_SURFACE('',#1875,3.25);
#1875 = AXIS2_PLACEMENT_3D('',#1876,#1877,#1878);
#1876 = CARTESIAN_POINT('',(0.,-54.85899457832,0.));
#1877 = DIRECTION('',(0.,-1.,0.));
#1878 = DIRECTION('',(0.,-0.,-1.));
#1879 = ADVANCED_FACE('',(#1880),#1919,.F.);
#1880 = FACE_BOUND('',#1881,.F.);
#1881 = EDGE_LOOP('',(#1882,#1893,#1899,#1900,#1901,#1902,#1903,#1912));
#1882 = ORIENTED_EDGE('',*,*,#1883,.F.);
#1883 = EDGE_CURVE('',#1884,#1886,#1888,.T.);
#1884 = VERTEX_POINT('',#1885);
#1885 = CARTESIAN_POINT('',(-11.,-55.85899457832,7.4));
#1886 = VERTEX_POINT('',#1887);
#1887 = CARTESIAN_POINT('',(-12.3950666562,-55.85899457832,
    6.117426678175));
#1888 = CIRCLE('',#1889,1.4);
#1889 = AXIS2_PLACEMENT_3D('',#1890,#1891,#1892);
#1890 = CARTESIAN_POINT('',(-11.,-55.85899457832,6.));
#1891 = DIRECTION('',(0.,1.,0.));
#1892 = DIRECTION('',(0.,-0.,1.));
#1893 = ORIENTED_EDGE('',*,*,#1894,.F.);
#1894 = EDGE_CURVE('',#1730,#1884,#1895,.T.);
#1895 = LINE('',#1896,#1897);
#1896 = CARTESIAN_POINT('',(-11.,-62.85899457832,7.4));
#1897 = VECTOR('',#1898,1.);
#1898 = DIRECTION('',(0.,1.,0.));
#1899 = ORIENTED_EDGE('',*,*,#1738,.T.);
#1900 = ORIENTED_EDGE('',*,*,#1747,.T.);
#1901 = ORIENTED_EDGE('',*,*,#1727,.T.);
#1902 = ORIENTED_EDGE('',*,*,#1894,.T.);
#1903 = ORIENTED_EDGE('',*,*,#1904,.F.);
#1904 = EDGE_CURVE('',#1905,#1884,#1907,.T.);
#1905 = VERTEX_POINT('',#1906);
#1906 = CARTESIAN_POINT('',(-11.24945823067,-55.85899457832,
    7.377595946259));
#1907 = CIRCLE('',#1908,1.4);
#1908 = AXIS2_PLACEMENT_3D('',#1909,#1910,#1911);
#1909 = CARTESIAN_POINT('',(-11.,-55.85899457832,6.));
#1910 = DIRECTION('',(0.,1.,0.));
#1911 = DIRECTION('',(0.,-0.,1.));
#1912 = ORIENTED_EDGE('',*,*,#1913,.F.);
#1913 = EDGE_CURVE('',#1886,#1905,#1914,.T.);
#1914 = CIRCLE('',#1915,1.4);
#1915 = AXIS2_PLACEMENT_3D('',#1916,#1917,#1918);
#1916 = CARTESIAN_POINT('',(-11.,-55.85899457832,6.));
#1917 = DIRECTION('',(0.,1.,0.));
#1918 = DIRECTION('',(0.,-0.,1.));
#1919 = CYLINDRICAL_SURFACE('',#1920,1.4);
#1920 = AXIS2_PLACEMENT_3D('',#1921,#1922,#1923);
#1921 = CARTESIAN_POINT('',(-11.,-62.85899457832,6.));
#1922 = DIRECTION('',(0.,1.,0.));
#1923 = DIRECTION('',(0.,-0.,1.));
#1924 = ADVANCED_FACE('',(#1925),#1964,.F.);
#1925 = FACE_BOUND('',#1926,.F.);
#1926 = EDGE_LOOP('',(#1927,#1938,#1944,#1945,#1946,#1947,#1948,#1957));
#1927 = ORIENTED_EDGE('',*,*,#1928,.F.);
#1928 = EDGE_CURVE('',#1929,#1931,#1933,.T.);
#1929 = VERTEX_POINT('',#1930);
#1930 = CARTESIAN_POINT('',(11.,-55.85899457832,7.4));
#1931 = VERTEX_POINT('',#1932);
#1932 = CARTESIAN_POINT('',(11.249458230674,-55.85899457832,
    7.377595946259));
#1933 = CIRCLE('',#1934,1.4);
#1934 = AXIS2_PLACEMENT_3D('',#1935,#1936,#1937);
#1935 = CARTESIAN_POINT('',(11.,-55.85899457832,6.));
#1936 = DIRECTION('',(0.,1.,0.));
#1937 = DIRECTION('',(0.,-0.,1.));
#1938 = ORIENTED_EDGE('',*,*,#1939,.F.);
#1939 = EDGE_CURVE('',#1759,#1929,#1940,.T.);
#1940 = LINE('',#1941,#1942);
#1941 = CARTESIAN_POINT('',(11.,-62.85899457832,7.4));
#1942 = VECTOR('',#1943,1.);
#1943 = DIRECTION('',(0.,1.,0.));
#1944 = ORIENTED_EDGE('',*,*,#1767,.T.);
#1945 = ORIENTED_EDGE('',*,*,#1776,.T.);
#1946 = ORIENTED_EDGE('',*,*,#1756,.T.);
#1947 = ORIENTED_EDGE('',*,*,#1939,.T.);
#1948 = ORIENTED_EDGE('',*,*,#1949,.F.);
#1949 = EDGE_CURVE('',#1950,#1929,#1952,.T.);
#1950 = VERTEX_POINT('',#1951);
#1951 = CARTESIAN_POINT('',(12.395066656204,-55.85899457832,
    6.117426678175));
#1952 = CIRCLE('',#1953,1.4);
#1953 = AXIS2_PLACEMENT_3D('',#1954,#1955,#1956);
#1954 = CARTESIAN_POINT('',(11.,-55.85899457832,6.));
#1955 = DIRECTION('',(0.,1.,0.));
#1956 = DIRECTION('',(0.,-0.,1.));
#1957 = ORIENTED_EDGE('',*,*,#1958,.F.);
#1958 = EDGE_CURVE('',#1931,#1950,#1959,.T.);
#1959 = CIRCLE('',#1960,1.4);
#1960 = AXIS2_PLACEMENT_3D('',#1961,#1962,#1963);
#1961 = CARTESIAN_POINT('',(11.,-55.85899457832,6.));
#1962 = DIRECTION('',(0.,1.,0.));
#1963 = DIRECTION('',(0.,-0.,1.));
#1964 = CYLINDRICAL_SURFACE('',#1965,1.4);
#1965 = AXIS2_PLACEMENT_3D('',#1966,#1967,#1968);
#1966 = CARTESIAN_POINT('',(11.,-62.85899457832,6.));
#1967 = DIRECTION('',(0.,1.,0.));
#1968 = DIRECTION('',(0.,-0.,1.));
#1969 = ADVANCED_FACE('',(#1970),#1989,.F.);
#1970 = FACE_BOUND('',#1971,.F.);
#1971 = EDGE_LOOP('',(#1972,#1981,#1987,#1988));
#1972 = ORIENTED_EDGE('',*,*,#1973,.F.);
#1973 = EDGE_CURVE('',#1974,#1974,#1976,.T.);
#1974 = VERTEX_POINT('',#1975);
#1975 = CARTESIAN_POINT('',(-11.,-55.85899457832,-10.6));
#1976 = CIRCLE('',#1977,1.4);
#1977 = AXIS2_PLACEMENT_3D('',#1978,#1979,#1980);
#1978 = CARTESIAN_POINT('',(-11.,-55.85899457832,-12.));
#1979 = DIRECTION('',(0.,1.,0.));
#1980 = DIRECTION('',(0.,-0.,1.));
#1981 = ORIENTED_EDGE('',*,*,#1982,.F.);
#1982 = EDGE_CURVE('',#1786,#1974,#1983,.T.);
#1983 = LINE('',#1984,#1985);
#1984 = CARTESIAN_POINT('',(-11.,-62.85899457832,-10.6));
#1985 = VECTOR('',#1986,1.);
#1986 = DIRECTION('',(0.,1.,0.));
#1987 = ORIENTED_EDGE('',*,*,#1785,.T.);
#1988 = ORIENTED_EDGE('',*,*,#1982,.T.);
#1989 = CYLINDRICAL_SURFACE('',#1990,1.4);
#1990 = AXIS2_PLACEMENT_3D('',#1991,#1992,#1993);
#1991 = CARTESIAN_POINT('',(-11.,-62.85899457832,-12.));
#1992 = DIRECTION('',(0.,1.,0.));
#1993 = DIRECTION('',(0.,-0.,1.));
#1994 = ADVANCED_FACE('',(#1995),#2014,.F.);
#1995 = FACE_BOUND('',#1996,.F.);
#1996 = EDGE_LOOP('',(#1997,#2006,#2012,#2013));
#1997 = ORIENTED_EDGE('',*,*,#1998,.F.);
#1998 = EDGE_CURVE('',#1999,#1999,#2001,.T.);
#1999 = VERTEX_POINT('',#2000);
#2000 = CARTESIAN_POINT('',(11.,-55.85899457832,-10.6));
#2001 = CIRCLE('',#2002,1.4);
#2002 = AXIS2_PLACEMENT_3D('',#2003,#2004,#2005);
#2003 = CARTESIAN_POINT('',(11.,-55.85899457832,-12.));
#2004 = DIRECTION('',(0.,1.,0.));
#2005 = DIRECTION('',(0.,-0.,1.));
#2006 = ORIENTED_EDGE('',*,*,#2007,.F.);
#2007 = EDGE_CURVE('',#1797,#1999,#2008,.T.);
#2008 = LINE('',#2009,#2010);
#2009 = CARTESIAN_POINT('',(11.,-62.85899457832,-10.6));
#2010 = VECTOR('',#2011,1.);
#2011 = DIRECTION('',(0.,1.,0.));
#2012 = ORIENTED_EDGE('',*,*,#1796,.T.);
#2013 = ORIENTED_EDGE('',*,*,#2007,.T.);
#2014 = CYLINDRICAL_SURFACE('',#2015,1.4);
#2015 = AXIS2_PLACEMENT_3D('',#2016,#2017,#2018);
#2016 = CARTESIAN_POINT('',(11.,-62.85899457832,-12.));
#2017 = DIRECTION('',(0.,1.,0.));
#2018 = DIRECTION('',(0.,-0.,1.));
#2019 = ADVANCED_FACE('',(#2020,#2031,#2034,#2039,#2044,#2047),#2050,.T.
  );
#2020 = FACE_BOUND('',#2021,.T.);
#2021 = EDGE_LOOP('',(#2022,#2023,#2024,#2025));
#2022 = ORIENTED_EDGE('',*,*,#1670,.F.);
#2023 = ORIENTED_EDGE('',*,*,#362,.T.);
#2024 = ORIENTED_EDGE('',*,*,#220,.T.);
#2025 = ORIENTED_EDGE('',*,*,#2026,.T.);
#2026 = EDGE_CURVE('',#213,#1671,#2027,.T.);
#2027 = LINE('',#2028,#2029);
#2028 = CARTESIAN_POINT('',(-16.,-55.85899457832,12.));
#2029 = VECTOR('',#2030,1.);
#2030 = DIRECTION('',(1.,0.,-0.));
#2031 = FACE_BOUND('',#2032,.T.);
#2032 = EDGE_LOOP('',(#2033));
#2033 = ORIENTED_EDGE('',*,*,#1868,.T.);
#2034 = FACE_BOUND('',#2035,.T.);
#2035 = EDGE_LOOP('',(#2036,#2037,#2038));
#2036 = ORIENTED_EDGE('',*,*,#1904,.F.);
#2037 = ORIENTED_EDGE('',*,*,#1913,.F.);
#2038 = ORIENTED_EDGE('',*,*,#1883,.F.);
#2039 = FACE_BOUND('',#2040,.T.);
#2040 = EDGE_LOOP('',(#2041,#2042,#2043));
#2041 = ORIENTED_EDGE('',*,*,#1949,.F.);
#2042 = ORIENTED_EDGE('',*,*,#1958,.F.);
#2043 = ORIENTED_EDGE('',*,*,#1928,.F.);
#2044 = FACE_BOUND('',#2045,.T.);
#2045 = EDGE_LOOP('',(#2046));
#2046 = ORIENTED_EDGE('',*,*,#1973,.F.);
#2047 = FACE_BOUND('',#2048,.T.);
#2048 = EDGE_LOOP('',(#2049));
#2049 = ORIENTED_EDGE('',*,*,#1998,.F.);
#2050 = PLANE('',#2051);
#2051 = AXIS2_PLACEMENT_3D('',#2052,#2053,#2054);
#2052 = CARTESIAN_POINT('',(-16.,-55.85899457832,-90.38465764503));
#2053 = DIRECTION('',(-0.,1.,0.));
#2054 = DIRECTION('',(0.,0.,1.));
#2055 = ADVANCED_FACE('',(#2056),#2062,.T.);
#2056 = FACE_BOUND('',#2057,.T.);
#2057 = EDGE_LOOP('',(#2058,#2059,#2060,#2061));
#2058 = ORIENTED_EDGE('',*,*,#2026,.F.);
#2059 = ORIENTED_EDGE('',*,*,#212,.F.);
#2060 = ORIENTED_EDGE('',*,*,#1702,.T.);
#2061 = ORIENTED_EDGE('',*,*,#1678,.T.);
#2062 = PLANE('',#2063);
#2063 = AXIS2_PLACEMENT_3D('',#2064,#2065,#2066);
#2064 = CARTESIAN_POINT('',(-16.,-61.85899457832,12.));
#2065 = DIRECTION('',(0.,0.,1.));
#2066 = DIRECTION('',(1.,0.,-0.));
#2067 = ADVANCED_FACE('',(#2068,#2078,#2081,#2084),#2087,.T.);
#2068 = FACE_BOUND('',#2069,.T.);
#2069 = EDGE_LOOP('',(#2070,#2071,#2072,#2073,#2074,#2075,#2076,#2077));
#2070 = ORIENTED_EDGE('',*,*,#1468,.F.);
#2071 = ORIENTED_EDGE('',*,*,#1646,.F.);
#2072 = ORIENTED_EDGE('',*,*,#1621,.T.);
#2073 = ORIENTED_EDGE('',*,*,#1596,.T.);
#2074 = ORIENTED_EDGE('',*,*,#1572,.T.);
#2075 = ORIENTED_EDGE('',*,*,#1556,.T.);
#2076 = ORIENTED_EDGE('',*,*,#1524,.F.);
#2077 = ORIENTED_EDGE('',*,*,#1508,.T.);
#2078 = FACE_BOUND('',#2079,.T.);
#2079 = EDGE_LOOP('',(#2080));
#2080 = ORIENTED_EDGE('',*,*,#696,.F.);
#2081 = FACE_BOUND('',#2082,.T.);
#2082 = EDGE_LOOP('',(#2083));
#2083 = ORIENTED_EDGE('',*,*,#671,.F.);
#2084 = FACE_BOUND('',#2085,.T.);
#2085 = EDGE_LOOP('',(#2086));
#2086 = ORIENTED_EDGE('',*,*,#721,.F.);
#2087 = PLANE('',#2088);
#2088 = AXIS2_PLACEMENT_3D('',#2089,#2090,#2091);
#2089 = CARTESIAN_POINT('',(-4.829940174844E-17,2.028574873434E-15,
    -87.88465764503));
#2090 = DIRECTION('',(-0.,-0.,-1.));
#2091 = DIRECTION('',(-1.,0.,0.));
#2092 = ADVANCED_FACE('',(#2093),#2101,.F.);
#2093 = FACE_BOUND('',#2094,.F.);
#2094 = EDGE_LOOP('',(#2095,#2096,#2097,#2098,#2099,#2100));
#2095 = ORIENTED_EDGE('',*,*,#828,.T.);
#2096 = ORIENTED_EDGE('',*,*,#454,.F.);
#2097 = ORIENTED_EDGE('',*,*,#443,.F.);
#2098 = ORIENTED_EDGE('',*,*,#779,.F.);
#2099 = ORIENTED_EDGE('',*,*,#1221,.T.);
#2100 = ORIENTED_EDGE('',*,*,#1230,.T.);
#2101 = CYLINDRICAL_SURFACE('',#2102,1.2);
#2102 = AXIS2_PLACEMENT_3D('',#2103,#2104,#2105);
#2103 = CARTESIAN_POINT('',(-4.875,82.058994578326,-34.95));
#2104 = DIRECTION('',(0.,-1.,0.));
#2105 = DIRECTION('',(0.,0.,1.));
#2106 = ADVANCED_FACE('',(#2107),#2115,.F.);
#2107 = FACE_BOUND('',#2108,.F.);
#2108 = EDGE_LOOP('',(#2109,#2110,#2111,#2112,#2113,#2114));
#2109 = ORIENTED_EDGE('',*,*,#890,.F.);
#2110 = ORIENTED_EDGE('',*,*,#1245,.T.);
#2111 = ORIENTED_EDGE('',*,*,#1254,.T.);
#2112 = ORIENTED_EDGE('',*,*,#859,.T.);
#2113 = ORIENTED_EDGE('',*,*,#524,.F.);
#2114 = ORIENTED_EDGE('',*,*,#515,.F.);
#2115 = CYLINDRICAL_SURFACE('',#2116,1.2);
#2116 = AXIS2_PLACEMENT_3D('',#2117,#2118,#2119);
#2117 = CARTESIAN_POINT('',(-4.875,82.058994578326,13.65));
#2118 = DIRECTION('',(0.,-1.,0.));
#2119 = DIRECTION('',(0.,0.,1.));
#2120 = ADVANCED_FACE('',(#2121),#2129,.F.);
#2121 = FACE_BOUND('',#2122,.F.);
#2122 = EDGE_LOOP('',(#2123,#2124,#2125,#2126,#2127,#2128));
#2123 = ORIENTED_EDGE('',*,*,#988,.T.);
#2124 = ORIENTED_EDGE('',*,*,#544,.F.);
#2125 = ORIENTED_EDGE('',*,*,#533,.F.);
#2126 = ORIENTED_EDGE('',*,*,#939,.F.);
#2127 = ORIENTED_EDGE('',*,*,#1263,.T.);
#2128 = ORIENTED_EDGE('',*,*,#1272,.T.);
#2129 = CYLINDRICAL_SURFACE('',#2130,1.2);
#2130 = AXIS2_PLACEMENT_3D('',#2131,#2132,#2133);
#2131 = CARTESIAN_POINT('',(4.875,82.058994578326,-34.95));
#2132 = DIRECTION('',(0.,-1.,0.));
#2133 = DIRECTION('',(0.,0.,1.));
#2134 = ADVANCED_FACE('',(#2135),#2143,.F.);
#2135 = FACE_BOUND('',#2136,.F.);
#2136 = EDGE_LOOP('',(#2137,#2138,#2139,#2140,#2141,#2142));
#2137 = ORIENTED_EDGE('',*,*,#1146,.F.);
#2138 = ORIENTED_EDGE('',*,*,#1293,.T.);
#2139 = ORIENTED_EDGE('',*,*,#1302,.T.);
#2140 = ORIENTED_EDGE('',*,*,#1115,.T.);
#2141 = ORIENTED_EDGE('',*,*,#648,.F.);
#2142 = ORIENTED_EDGE('',*,*,#639,.F.);
#2143 = CYLINDRICAL_SURFACE('',#2144,1.2);
#2144 = AXIS2_PLACEMENT_3D('',#2145,#2146,#2147);
#2145 = CARTESIAN_POINT('',(4.875,82.058994578326,13.65));
#2146 = DIRECTION('',(0.,-1.,0.));
#2147 = DIRECTION('',(0.,0.,1.));
#2148 = ( GEOMETRIC_REPRESENTATION_CONTEXT(3) 
GLOBAL_UNCERTAINTY_ASSIGNED_CONTEXT((#2152)) 
GLOBAL_UNIT_ASSIGNED_CONTEXT((#2149,#2150,#2151)) REPRESENTATION_CONTEXT
('Context #1','3D Context with UNIT and UNCERTAINTY') );
#2149 = ( LENGTH_UNIT() NAMED_UNIT(*) SI_UNIT(.MILLI.,.METRE.) );
#2150 = ( NAMED_UNIT(*) PLANE_ANGLE_UNIT() SI_UNIT($,.RADIAN.) );
#2151 = ( NAMED_UNIT(*) SI_UNIT($,.STERADIAN.) SOLID_ANGLE_UNIT() );
#2152 = UNCERTAINTY_MEASURE_WITH_UNIT(LENGTH_MEASURE(1.E-07),#2149,
  'distance_accuracy_value','confusion accuracy');
#2153 = PRODUCT_RELATED_PRODUCT_CATEGORY('part',$,(#7));
ENDSEC;
END-ISO-10303-21;
