ISO-10303-21;
HEADER;
FILE_DESCRIPTION(('FreeCAD Model'),'2;1');
FILE_NAME('Open CASCADE Shape Model','2026-10-10T20:49:03',('FreeCAD'),(
    'FreeCAD'),'Open CASCADE STEP processor 7.8','FreeCAD','Unknown');
FILE_SCHEMA(('AUTOMOTIVE_DESIGN { 1 0 10303 214 1 1 1 1 }'));
ENDSEC;
DATA;
#1 = APPLICATION_PROTOCOL_DEFINITION('international standard',
  'automotive_design',2000,#2);
#2 = APPLICATION_CONTEXT(
  'core data for automotive mechanical design processes');
#3 = SHAPE_DEFINITION_REPRESENTATION(#4,#10);
#4 = PRODUCT_DEFINITION_SHAPE('','',#5);
#5 = PRODUCT_DEFINITION('design','',#6,#9);
#6 = PRODUCT_DEFINITION_FORMATION('','',#7);
#7 = PRODUCT('Open CASCADE STEP translator 7.8 10',
  'Open CASCADE STEP translator 7.8 10','',(#8));
#8 = PRODUCT_CONTEXT('',#2,'mechanical');
#9 = PRODUCT_DEFINITION_CONTEXT('part definition',#2,'design');
#10 = ADVANCED_BREP_SHAPE_REPRESENTATION('',(#11,#15),#1243);
#11 = AXIS2_PLACEMENT_3D('',#12,#13,#14);
#12 = CARTESIAN_POINT('',(0.,0.,0.));
#13 = DIRECTION('',(0.,0.,1.));
#14 = DIRECTION('',(1.,0.,-0.));
#15 = MANIFOLD_SOLID_BREP('',#16);
#16 = CLOSED_SHELL('',(#17,#57,#88,#139,#170,#201,#232,#263,#294,#325,
    #356,#387,#427,#458,#489,#522,#553,#593,#624,#657,#679,#704,#744,
    #778,#809,#958,#989,#1024,#1049,#1066,#1131,#1156,#1219,#1231));
#17 = ADVANCED_FACE('',(#18),#52,.T.);
#18 = FACE_BOUND('',#19,.T.);
#19 = EDGE_LOOP('',(#20,#30,#38,#46));
#20 = ORIENTED_EDGE('',*,*,#21,.F.);
#21 = EDGE_CURVE('',#22,#24,#26,.T.);
#22 = VERTEX_POINT('',#23);
#23 = CARTESIAN_POINT('',(-6.,-82.2738954632,102.08804930258));
#24 = VERTEX_POINT('',#25);
#25 = CARTESIAN_POINT('',(-6.,-52.54230101739,81.126666666667));
#26 = LINE('',#27,#28);
#27 = CARTESIAN_POINT('',(-6.,-87.37792983943,105.68649800811));
#28 = VECTOR('',#29,1.);
#29 = DIRECTION('',(0.,0.817299601622,-0.576212947779));
#30 = ORIENTED_EDGE('',*,*,#31,.T.);
#31 = EDGE_CURVE('',#22,#32,#34,.T.);
#32 = VERTEX_POINT('',#33);
#33 = CARTESIAN_POINT('',(6.,-82.2738954632,102.08804930258));
#34 = LINE('',#35,#36);
#35 = CARTESIAN_POINT('',(-6.,-82.2738954632,102.08804930258));
#36 = VECTOR('',#37,1.);
#37 = DIRECTION('',(1.,0.,0.));
#38 = ORIENTED_EDGE('',*,*,#39,.T.);
#39 = EDGE_CURVE('',#32,#40,#42,.T.);
#40 = VERTEX_POINT('',#41);
#41 = CARTESIAN_POINT('',(6.,-52.54230101739,81.126666666667));
#42 = LINE('',#43,#44);
#43 = CARTESIAN_POINT('',(6.,-87.37792983943,105.68649800811));
#44 = VECTOR('',#45,1.);
#45 = DIRECTION('',(0.,0.817299601622,-0.576212947779));
#46 = ORIENTED_EDGE('',*,*,#47,.T.);
#47 = EDGE_CURVE('',#40,#24,#48,.T.);
#48 = LINE('',#49,#50);
#49 = CARTESIAN_POINT('',(-6.,-52.54230101739,81.126666666667));
#50 = VECTOR('',#51,1.);
#51 = DIRECTION('',(-1.,0.,-0.));
#52 = PLANE('',#53);
#53 = AXIS2_PLACEMENT_3D('',#54,#55,#56);
#54 = CARTESIAN_POINT('',(-6.,-87.37792983943,105.68649800811));
#55 = DIRECTION('',(-0.,0.576212947779,0.817299601622));
#56 = DIRECTION('',(0.,0.817299601622,-0.576212947779));
#57 = ADVANCED_FACE('',(#58),#83,.T.);
#58 = FACE_BOUND('',#59,.T.);
#59 = EDGE_LOOP('',(#60,#68,#69,#77));
#60 = ORIENTED_EDGE('',*,*,#61,.T.);
#61 = EDGE_CURVE('',#62,#24,#64,.T.);
#62 = VERTEX_POINT('',#63);
#63 = CARTESIAN_POINT('',(-6.,-5.,81.126666666667));
#64 = LINE('',#65,#66);
#65 = CARTESIAN_POINT('',(-6.,-49.99,81.126666666667));
#66 = VECTOR('',#67,1.);
#67 = DIRECTION('',(0.,-1.,0.));
#68 = ORIENTED_EDGE('',*,*,#47,.F.);
#69 = ORIENTED_EDGE('',*,*,#70,.F.);
#70 = EDGE_CURVE('',#71,#40,#73,.T.);
#71 = VERTEX_POINT('',#72);
#72 = CARTESIAN_POINT('',(6.,-5.,81.126666666667));
#73 = LINE('',#74,#75);
#74 = CARTESIAN_POINT('',(6.,8.,81.126666666667));
#75 = VECTOR('',#76,1.);
#76 = DIRECTION('',(0.,-1.,0.));
#77 = ORIENTED_EDGE('',*,*,#78,.F.);
#78 = EDGE_CURVE('',#62,#71,#79,.T.);
#79 = LINE('',#80,#81);
#80 = CARTESIAN_POINT('',(-6.,-5.,81.126666666667));
#81 = VECTOR('',#82,1.);
#82 = DIRECTION('',(1.,0.,0.));
#83 = PLANE('',#84);
#84 = AXIS2_PLACEMENT_3D('',#85,#86,#87);
#85 = CARTESIAN_POINT('',(1.193341076208E-16,-28.77115050869,
    81.126666666667));
#86 = DIRECTION('',(0.,0.,1.));
#87 = DIRECTION('',(1.,0.,-0.));
#88 = ADVANCED_FACE('',(#89),#134,.T.);
#89 = FACE_BOUND('',#90,.T.);
#90 = EDGE_LOOP('',(#91,#102,#110,#119,#126,#127));
#91 = ORIENTED_EDGE('',*,*,#92,.T.);
#92 = EDGE_CURVE('',#93,#95,#97,.T.);
#93 = VERTEX_POINT('',#94);
#94 = CARTESIAN_POINT('',(-6.,-90.25899457832,109.6));
#95 = VERTEX_POINT('',#96);
#96 = CARTESIAN_POINT('',(-6.,-95.25899457832,95.355002001602));
#97 = CIRCLE('',#98,8.);
#98 = AXIS2_PLACEMENT_3D('',#99,#100,#101);
#99 = CARTESIAN_POINT('',(-6.,-90.25899457832,101.6));
#100 = DIRECTION('',(1.,0.,0.));
#101 = DIRECTION('',(-0.,0.,1.));
#102 = ORIENTED_EDGE('',*,*,#103,.T.);
#103 = EDGE_CURVE('',#95,#104,#106,.T.);
#104 = VERTEX_POINT('',#105);
#105 = CARTESIAN_POINT('',(6.,-95.25899457832,95.355002001602));
#106 = LINE('',#107,#108);
#107 = CARTESIAN_POINT('',(-6.,-95.25899457832,95.355002001602));
#108 = VECTOR('',#109,1.);
#109 = DIRECTION('',(1.,0.,0.));
#110 = ORIENTED_EDGE('',*,*,#111,.F.);
#111 = EDGE_CURVE('',#112,#104,#114,.T.);
#112 = VERTEX_POINT('',#113);
#113 = CARTESIAN_POINT('',(6.,-90.25899457832,109.6));
#114 = CIRCLE('',#115,8.);
#115 = AXIS2_PLACEMENT_3D('',#116,#117,#118);
#116 = CARTESIAN_POINT('',(6.,-90.25899457832,101.6));
#117 = DIRECTION('',(1.,0.,0.));
#118 = DIRECTION('',(-0.,0.,1.));
#119 = ORIENTED_EDGE('',*,*,#120,.F.);
#120 = EDGE_CURVE('',#32,#112,#121,.T.);
#121 = CIRCLE('',#122,8.);
#122 = AXIS2_PLACEMENT_3D('',#123,#124,#125);
#123 = CARTESIAN_POINT('',(6.,-90.25899457832,101.6));
#124 = DIRECTION('',(1.,0.,0.));
#125 = DIRECTION('',(-0.,0.,1.));
#126 = ORIENTED_EDGE('',*,*,#31,.F.);
#127 = ORIENTED_EDGE('',*,*,#128,.T.);
#128 = EDGE_CURVE('',#22,#93,#129,.T.);
#129 = CIRCLE('',#130,8.);
#130 = AXIS2_PLACEMENT_3D('',#131,#132,#133);
#131 = CARTESIAN_POINT('',(-6.,-90.25899457832,101.6));
#132 = DIRECTION('',(1.,0.,0.));
#133 = DIRECTION('',(-0.,0.,1.));
#134 = CYLINDRICAL_SURFACE('',#135,8.);
#135 = AXIS2_PLACEMENT_3D('',#136,#137,#138);
#136 = CARTESIAN_POINT('',(-6.,-90.25899457832,101.6));
#137 = DIRECTION('',(1.,0.,0.));
#138 = DIRECTION('',(-0.,0.,1.));
#139 = ADVANCED_FACE('',(#140),#165,.T.);
#140 = FACE_BOUND('',#141,.T.);
#141 = EDGE_LOOP('',(#142,#150,#158,#164));
#142 = ORIENTED_EDGE('',*,*,#143,.F.);
#143 = EDGE_CURVE('',#144,#95,#146,.T.);
#144 = VERTEX_POINT('',#145);
#145 = CARTESIAN_POINT('',(-6.,-95.25899457832,78.6));
#146 = LINE('',#147,#148);
#147 = CARTESIAN_POINT('',(-6.,-95.25899457832,78.6));
#148 = VECTOR('',#149,1.);
#149 = DIRECTION('',(0.,0.,1.));
#150 = ORIENTED_EDGE('',*,*,#151,.T.);
#151 = EDGE_CURVE('',#144,#152,#154,.T.);
#152 = VERTEX_POINT('',#153);
#153 = CARTESIAN_POINT('',(6.,-95.25899457832,78.6));
#154 = LINE('',#155,#156);
#155 = CARTESIAN_POINT('',(-6.,-95.25899457832,78.6));
#156 = VECTOR('',#157,1.);
#157 = DIRECTION('',(1.,0.,0.));
#158 = ORIENTED_EDGE('',*,*,#159,.T.);
#159 = EDGE_CURVE('',#152,#104,#160,.T.);
#160 = LINE('',#161,#162);
#161 = CARTESIAN_POINT('',(6.,-95.25899457832,78.6));
#162 = VECTOR('',#163,1.);
#163 = DIRECTION('',(0.,0.,1.));
#164 = ORIENTED_EDGE('',*,*,#103,.F.);
#165 = PLANE('',#166);
#166 = AXIS2_PLACEMENT_3D('',#167,#168,#169);
#167 = CARTESIAN_POINT('',(-6.,-95.25899457832,78.6));
#168 = DIRECTION('',(0.,-1.,0.));
#169 = DIRECTION('',(0.,0.,1.));
#170 = ADVANCED_FACE('',(#171),#196,.T.);
#171 = FACE_BOUND('',#172,.T.);
#172 = EDGE_LOOP('',(#173,#183,#189,#190));
#173 = ORIENTED_EDGE('',*,*,#174,.T.);
#174 = EDGE_CURVE('',#175,#177,#179,.T.);
#175 = VERTEX_POINT('',#176);
#176 = CARTESIAN_POINT('',(-6.,-85.25899457832,78.6));
#177 = VERTEX_POINT('',#178);
#178 = CARTESIAN_POINT('',(6.,-85.25899457832,78.6));
#179 = LINE('',#180,#181);
#180 = CARTESIAN_POINT('',(-6.,-85.25899457832,78.6));
#181 = VECTOR('',#182,1.);
#182 = DIRECTION('',(1.,0.,0.));
#183 = ORIENTED_EDGE('',*,*,#184,.T.);
#184 = EDGE_CURVE('',#177,#152,#185,.T.);
#185 = LINE('',#186,#187);
#186 = CARTESIAN_POINT('',(6.,-85.25899457832,78.6));
#187 = VECTOR('',#188,1.);
#188 = DIRECTION('',(0.,-1.,0.));
#189 = ORIENTED_EDGE('',*,*,#151,.F.);
#190 = ORIENTED_EDGE('',*,*,#191,.F.);
#191 = EDGE_CURVE('',#175,#144,#192,.T.);
#192 = LINE('',#193,#194);
#193 = CARTESIAN_POINT('',(-6.,-85.25899457832,78.6));
#194 = VECTOR('',#195,1.);
#195 = DIRECTION('',(0.,-1.,0.));
#196 = PLANE('',#197);
#197 = AXIS2_PLACEMENT_3D('',#198,#199,#200);
#198 = CARTESIAN_POINT('',(-6.,-85.25899457832,78.6));
#199 = DIRECTION('',(0.,0.,-1.));
#200 = DIRECTION('',(0.,-1.,0.));
#201 = ADVANCED_FACE('',(#202),#227,.T.);
#202 = FACE_BOUND('',#203,.T.);
#203 = EDGE_LOOP('',(#204,#212,#220,#226));
#204 = ORIENTED_EDGE('',*,*,#205,.F.);
#205 = EDGE_CURVE('',#206,#175,#208,.T.);
#206 = VERTEX_POINT('',#207);
#207 = CARTESIAN_POINT('',(-6.,-85.25899457832,91.957190039919));
#208 = LINE('',#209,#210);
#209 = CARTESIAN_POINT('',(-6.,-85.25899457832,101.6));
#210 = VECTOR('',#211,1.);
#211 = DIRECTION('',(0.,0.,-1.));
#212 = ORIENTED_EDGE('',*,*,#213,.F.);
#213 = EDGE_CURVE('',#214,#206,#216,.T.);
#214 = VERTEX_POINT('',#215);
#215 = CARTESIAN_POINT('',(6.,-85.25899457832,91.957190039919));
#216 = LINE('',#217,#218);
#217 = CARTESIAN_POINT('',(-6.,-85.25899457832,91.957190039919));
#218 = VECTOR('',#219,1.);
#219 = DIRECTION('',(-1.,0.,0.));
#220 = ORIENTED_EDGE('',*,*,#221,.T.);
#221 = EDGE_CURVE('',#214,#177,#222,.T.);
#222 = LINE('',#223,#224);
#223 = CARTESIAN_POINT('',(6.,-85.25899457832,101.6));
#224 = VECTOR('',#225,1.);
#225 = DIRECTION('',(0.,0.,-1.));
#226 = ORIENTED_EDGE('',*,*,#174,.F.);
#227 = PLANE('',#228);
#228 = AXIS2_PLACEMENT_3D('',#229,#230,#231);
#229 = CARTESIAN_POINT('',(-6.,-85.25899457832,101.6));
#230 = DIRECTION('',(-0.,1.,0.));
#231 = DIRECTION('',(0.,0.,-1.));
#232 = ADVANCED_FACE('',(#233),#258,.T.);
#233 = FACE_BOUND('',#234,.T.);
#234 = EDGE_LOOP('',(#235,#243,#251,#257));
#235 = ORIENTED_EDGE('',*,*,#236,.F.);
#236 = EDGE_CURVE('',#237,#206,#239,.T.);
#237 = VERTEX_POINT('',#238);
#238 = CARTESIAN_POINT('',(-6.,-58.,72.739040920202));
#239 = LINE('',#240,#241);
#240 = CARTESIAN_POINT('',(-6.,-56.88106473889,71.950168658555));
#241 = VECTOR('',#242,1.);
#242 = DIRECTION('',(0.,-0.817299601622,0.576212947779));
#243 = ORIENTED_EDGE('',*,*,#244,.T.);
#244 = EDGE_CURVE('',#237,#245,#247,.T.);
#245 = VERTEX_POINT('',#246);
#246 = CARTESIAN_POINT('',(6.,-58.,72.739040920202));
#247 = LINE('',#248,#249);
#248 = CARTESIAN_POINT('',(-6.,-58.,72.739040920202));
#249 = VECTOR('',#250,1.);
#250 = DIRECTION('',(1.,0.,0.));
#251 = ORIENTED_EDGE('',*,*,#252,.T.);
#252 = EDGE_CURVE('',#245,#214,#253,.T.);
#253 = LINE('',#254,#255);
#254 = CARTESIAN_POINT('',(6.,-56.88106473889,71.950168658555));
#255 = VECTOR('',#256,1.);
#256 = DIRECTION('',(0.,-0.817299601622,0.576212947779));
#257 = ORIENTED_EDGE('',*,*,#213,.T.);
#258 = PLANE('',#259);
#259 = AXIS2_PLACEMENT_3D('',#260,#261,#262);
#260 = CARTESIAN_POINT('',(-6.,-56.88106473889,71.950168658555));
#261 = DIRECTION('',(0.,-0.576212947779,-0.817299601622));
#262 = DIRECTION('',(0.,-0.817299601622,0.576212947779));
#263 = ADVANCED_FACE('',(#264),#289,.F.);
#264 = FACE_BOUND('',#265,.F.);
#265 = EDGE_LOOP('',(#266,#274,#275,#283));
#266 = ORIENTED_EDGE('',*,*,#267,.F.);
#267 = EDGE_CURVE('',#237,#268,#270,.T.);
#268 = VERTEX_POINT('',#269);
#269 = CARTESIAN_POINT('',(-6.,-58.,71.266666666667));
#270 = LINE('',#271,#272);
#271 = CARTESIAN_POINT('',(-6.,-58.,81.126666666667));
#272 = VECTOR('',#273,1.);
#273 = DIRECTION('',(0.,0.,-1.));
#274 = ORIENTED_EDGE('',*,*,#244,.T.);
#275 = ORIENTED_EDGE('',*,*,#276,.T.);
#276 = EDGE_CURVE('',#245,#277,#279,.T.);
#277 = VERTEX_POINT('',#278);
#278 = CARTESIAN_POINT('',(6.,-58.,71.266666666667));
#279 = LINE('',#280,#281);
#280 = CARTESIAN_POINT('',(6.,-58.,81.126666666667));
#281 = VECTOR('',#282,1.);
#282 = DIRECTION('',(0.,0.,-1.));
#283 = ORIENTED_EDGE('',*,*,#284,.F.);
#284 = EDGE_CURVE('',#268,#277,#285,.T.);
#285 = LINE('',#286,#287);
#286 = CARTESIAN_POINT('',(-6.,-58.,71.266666666667));
#287 = VECTOR('',#288,1.);
#288 = DIRECTION('',(1.,0.,0.));
#289 = PLANE('',#290);
#290 = AXIS2_PLACEMENT_3D('',#291,#292,#293);
#291 = CARTESIAN_POINT('',(-6.,-58.,81.126666666667));
#292 = DIRECTION('',(-0.,1.,0.));
#293 = DIRECTION('',(0.,0.,-1.));
#294 = ADVANCED_FACE('',(#295),#320,.F.);
#295 = FACE_BOUND('',#296,.F.);
#296 = EDGE_LOOP('',(#297,#298,#306,#314));
#297 = ORIENTED_EDGE('',*,*,#284,.T.);
#298 = ORIENTED_EDGE('',*,*,#299,.T.);
#299 = EDGE_CURVE('',#277,#300,#302,.T.);
#300 = VERTEX_POINT('',#301);
#301 = CARTESIAN_POINT('',(6.,-49.99,71.266666666667));
#302 = LINE('',#303,#304);
#303 = CARTESIAN_POINT('',(6.,-58.,71.266666666667));
#304 = VECTOR('',#305,1.);
#305 = DIRECTION('',(0.,1.,0.));
#306 = ORIENTED_EDGE('',*,*,#307,.F.);
#307 = EDGE_CURVE('',#308,#300,#310,.T.);
#308 = VERTEX_POINT('',#309);
#309 = CARTESIAN_POINT('',(-6.,-49.99,71.266666666667));
#310 = LINE('',#311,#312);
#311 = CARTESIAN_POINT('',(-6.,-49.99,71.266666666667));
#312 = VECTOR('',#313,1.);
#313 = DIRECTION('',(1.,0.,0.));
#314 = ORIENTED_EDGE('',*,*,#315,.F.);
#315 = EDGE_CURVE('',#268,#308,#316,.T.);
#316 = LINE('',#317,#318);
#317 = CARTESIAN_POINT('',(-6.,-58.,71.266666666667));
#318 = VECTOR('',#319,1.);
#319 = DIRECTION('',(0.,1.,0.));
#320 = PLANE('',#321);
#321 = AXIS2_PLACEMENT_3D('',#322,#323,#324);
#322 = CARTESIAN_POINT('',(-6.,-58.,71.266666666667));
#323 = DIRECTION('',(0.,0.,1.));
#324 = DIRECTION('',(0.,1.,0.));
#325 = ADVANCED_FACE('',(#326),#351,.F.);
#326 = FACE_BOUND('',#327,.F.);
#327 = EDGE_LOOP('',(#328,#336,#337,#345));
#328 = ORIENTED_EDGE('',*,*,#329,.F.);
#329 = EDGE_CURVE('',#308,#330,#332,.T.);
#330 = VERTEX_POINT('',#331);
#331 = CARTESIAN_POINT('',(-6.,-49.99,74.266666666667));
#332 = LINE('',#333,#334);
#333 = CARTESIAN_POINT('',(-6.,-49.99,71.266666666667));
#334 = VECTOR('',#335,1.);
#335 = DIRECTION('',(0.,0.,1.));
#336 = ORIENTED_EDGE('',*,*,#307,.T.);
#337 = ORIENTED_EDGE('',*,*,#338,.T.);
#338 = EDGE_CURVE('',#300,#339,#341,.T.);
#339 = VERTEX_POINT('',#340);
#340 = CARTESIAN_POINT('',(6.,-49.99,74.266666666667));
#341 = LINE('',#342,#343);
#342 = CARTESIAN_POINT('',(6.,-49.99,71.266666666667));
#343 = VECTOR('',#344,1.);
#344 = DIRECTION('',(0.,0.,1.));
#345 = ORIENTED_EDGE('',*,*,#346,.F.);
#346 = EDGE_CURVE('',#330,#339,#347,.T.);
#347 = LINE('',#348,#349);
#348 = CARTESIAN_POINT('',(-6.,-49.99,74.266666666667));
#349 = VECTOR('',#350,1.);
#350 = DIRECTION('',(1.,0.,0.));
#351 = PLANE('',#352);
#352 = AXIS2_PLACEMENT_3D('',#353,#354,#355);
#353 = CARTESIAN_POINT('',(-6.,-49.99,71.266666666667));
#354 = DIRECTION('',(0.,-1.,0.));
#355 = DIRECTION('',(0.,0.,1.));
#356 = ADVANCED_FACE('',(#357),#382,.F.);
#357 = FACE_BOUND('',#358,.F.);
#358 = EDGE_LOOP('',(#359,#367,#375,#381));
#359 = ORIENTED_EDGE('',*,*,#360,.F.);
#360 = EDGE_CURVE('',#361,#62,#363,.T.);
#361 = VERTEX_POINT('',#362);
#362 = CARTESIAN_POINT('',(-6.,-5.,85.126666666667));
#363 = LINE('',#364,#365);
#364 = CARTESIAN_POINT('',(-6.,-5.,85.126666666667));
#365 = VECTOR('',#366,1.);
#366 = DIRECTION('',(0.,0.,-1.));
#367 = ORIENTED_EDGE('',*,*,#368,.T.);
#368 = EDGE_CURVE('',#361,#369,#371,.T.);
#369 = VERTEX_POINT('',#370);
#370 = CARTESIAN_POINT('',(6.,-5.,85.126666666667));
#371 = LINE('',#372,#373);
#372 = CARTESIAN_POINT('',(-6.,-5.,85.126666666667));
#373 = VECTOR('',#374,1.);
#374 = DIRECTION('',(1.,0.,0.));
#375 = ORIENTED_EDGE('',*,*,#376,.T.);
#376 = EDGE_CURVE('',#369,#71,#377,.T.);
#377 = LINE('',#378,#379);
#378 = CARTESIAN_POINT('',(6.,-5.,85.126666666667));
#379 = VECTOR('',#380,1.);
#380 = DIRECTION('',(0.,0.,-1.));
#381 = ORIENTED_EDGE('',*,*,#78,.F.);
#382 = PLANE('',#383);
#383 = AXIS2_PLACEMENT_3D('',#384,#385,#386);
#384 = CARTESIAN_POINT('',(-6.,-5.,85.126666666667));
#385 = DIRECTION('',(-0.,1.,0.));
#386 = DIRECTION('',(0.,0.,-1.));
#387 = ADVANCED_FACE('',(#388),#422,.F.);
#388 = FACE_BOUND('',#389,.F.);
#389 = EDGE_LOOP('',(#390,#400,#408,#416));
#390 = ORIENTED_EDGE('',*,*,#391,.F.);
#391 = EDGE_CURVE('',#392,#394,#396,.T.);
#392 = VERTEX_POINT('',#393);
#393 = CARTESIAN_POINT('',(-6.,8.,77.153652702443));
#394 = VERTEX_POINT('',#395);
#395 = CARTESIAN_POINT('',(-6.,8.,81.126666666667));
#396 = LINE('',#397,#398);
#397 = CARTESIAN_POINT('',(-6.,8.,77.126666666667));
#398 = VECTOR('',#399,1.);
#399 = DIRECTION('',(0.,0.,1.));
#400 = ORIENTED_EDGE('',*,*,#401,.T.);
#401 = EDGE_CURVE('',#392,#402,#404,.T.);
#402 = VERTEX_POINT('',#403);
#403 = CARTESIAN_POINT('',(6.,8.,77.153652702443));
#404 = LINE('',#405,#406);
#405 = CARTESIAN_POINT('',(-6.,8.,77.153652702443));
#406 = VECTOR('',#407,1.);
#407 = DIRECTION('',(1.,0.,0.));
#408 = ORIENTED_EDGE('',*,*,#409,.T.);
#409 = EDGE_CURVE('',#402,#410,#412,.T.);
#410 = VERTEX_POINT('',#411);
#411 = CARTESIAN_POINT('',(6.,8.,81.126666666667));
#412 = LINE('',#413,#414);
#413 = CARTESIAN_POINT('',(6.,8.,77.126666666667));
#414 = VECTOR('',#415,1.);
#415 = DIRECTION('',(0.,0.,1.));
#416 = ORIENTED_EDGE('',*,*,#417,.F.);
#417 = EDGE_CURVE('',#394,#410,#418,.T.);
#418 = LINE('',#419,#420);
#419 = CARTESIAN_POINT('',(-6.,8.,81.126666666667));
#420 = VECTOR('',#421,1.);
#421 = DIRECTION('',(1.,0.,0.));
#422 = PLANE('',#423);
#423 = AXIS2_PLACEMENT_3D('',#424,#425,#426);
#424 = CARTESIAN_POINT('',(-6.,8.,77.126666666667));
#425 = DIRECTION('',(0.,-1.,0.));
#426 = DIRECTION('',(0.,0.,1.));
#427 = ADVANCED_FACE('',(#428),#453,.F.);
#428 = FACE_BOUND('',#429,.F.);
#429 = EDGE_LOOP('',(#430,#438,#439,#447));
#430 = ORIENTED_EDGE('',*,*,#431,.F.);
#431 = EDGE_CURVE('',#394,#432,#434,.T.);
#432 = VERTEX_POINT('',#433);
#433 = CARTESIAN_POINT('',(-6.,5.,81.126666666667));
#434 = LINE('',#435,#436);
#435 = CARTESIAN_POINT('',(-6.,8.,81.126666666667));
#436 = VECTOR('',#437,1.);
#437 = DIRECTION('',(0.,-1.,0.));
#438 = ORIENTED_EDGE('',*,*,#417,.T.);
#439 = ORIENTED_EDGE('',*,*,#440,.T.);
#440 = EDGE_CURVE('',#410,#441,#443,.T.);
#441 = VERTEX_POINT('',#442);
#442 = CARTESIAN_POINT('',(6.,5.,81.126666666667));
#443 = LINE('',#444,#445);
#444 = CARTESIAN_POINT('',(6.,8.,81.126666666667));
#445 = VECTOR('',#446,1.);
#446 = DIRECTION('',(0.,-1.,0.));
#447 = ORIENTED_EDGE('',*,*,#448,.T.);
#448 = EDGE_CURVE('',#441,#432,#449,.T.);
#449 = LINE('',#450,#451);
#450 = CARTESIAN_POINT('',(-6.,5.,81.126666666667));
#451 = VECTOR('',#452,1.);
#452 = DIRECTION('',(-1.,-0.,-0.));
#453 = PLANE('',#454);
#454 = AXIS2_PLACEMENT_3D('',#455,#456,#457);
#455 = CARTESIAN_POINT('',(-6.,8.,81.126666666667));
#456 = DIRECTION('',(0.,0.,-1.));
#457 = DIRECTION('',(0.,-1.,0.));
#458 = ADVANCED_FACE('',(#459),#484,.F.);
#459 = FACE_BOUND('',#460,.F.);
#460 = EDGE_LOOP('',(#461,#469,#470,#478));
#461 = ORIENTED_EDGE('',*,*,#462,.F.);
#462 = EDGE_CURVE('',#432,#463,#465,.T.);
#463 = VERTEX_POINT('',#464);
#464 = CARTESIAN_POINT('',(-6.,5.,85.126666666667));
#465 = LINE('',#466,#467);
#466 = CARTESIAN_POINT('',(-6.,5.,81.116666666667));
#467 = VECTOR('',#468,1.);
#468 = DIRECTION('',(0.,0.,1.));
#469 = ORIENTED_EDGE('',*,*,#448,.F.);
#470 = ORIENTED_EDGE('',*,*,#471,.T.);
#471 = EDGE_CURVE('',#441,#472,#474,.T.);
#472 = VERTEX_POINT('',#473);
#473 = CARTESIAN_POINT('',(6.,5.,85.126666666667));
#474 = LINE('',#475,#476);
#475 = CARTESIAN_POINT('',(6.,5.,81.116666666667));
#476 = VECTOR('',#477,1.);
#477 = DIRECTION('',(0.,0.,1.));
#478 = ORIENTED_EDGE('',*,*,#479,.F.);
#479 = EDGE_CURVE('',#463,#472,#480,.T.);
#480 = LINE('',#481,#482);
#481 = CARTESIAN_POINT('',(-6.,5.,85.126666666667));
#482 = VECTOR('',#483,1.);
#483 = DIRECTION('',(1.,0.,0.));
#484 = PLANE('',#485);
#485 = AXIS2_PLACEMENT_3D('',#486,#487,#488);
#486 = CARTESIAN_POINT('',(-6.,5.,81.116666666667));
#487 = DIRECTION('',(0.,-1.,0.));
#488 = DIRECTION('',(0.,0.,1.));
#489 = ADVANCED_FACE('',(#490,#506),#517,.F.);
#490 = FACE_BOUND('',#491,.F.);
#491 = EDGE_LOOP('',(#492,#493,#499,#500));
#492 = ORIENTED_EDGE('',*,*,#479,.T.);
#493 = ORIENTED_EDGE('',*,*,#494,.T.);
#494 = EDGE_CURVE('',#472,#369,#495,.T.);
#495 = LINE('',#496,#497);
#496 = CARTESIAN_POINT('',(6.,5.,85.126666666667));
#497 = VECTOR('',#498,1.);
#498 = DIRECTION('',(0.,-1.,0.));
#499 = ORIENTED_EDGE('',*,*,#368,.F.);
#500 = ORIENTED_EDGE('',*,*,#501,.F.);
#501 = EDGE_CURVE('',#463,#361,#502,.T.);
#502 = LINE('',#503,#504);
#503 = CARTESIAN_POINT('',(-6.,5.,85.126666666667));
#504 = VECTOR('',#505,1.);
#505 = DIRECTION('',(0.,-1.,0.));
#506 = FACE_BOUND('',#507,.F.);
#507 = EDGE_LOOP('',(#508));
#508 = ORIENTED_EDGE('',*,*,#509,.T.);
#509 = EDGE_CURVE('',#510,#510,#512,.T.);
#510 = VERTEX_POINT('',#511);
#511 = CARTESIAN_POINT('',(1.7,-4.163799117101E-16,85.126666666667));
#512 = CIRCLE('',#513,1.7);
#513 = AXIS2_PLACEMENT_3D('',#514,#515,#516);
#514 = CARTESIAN_POINT('',(0.,0.,85.126666666667));
#515 = DIRECTION('',(0.,0.,1.));
#516 = DIRECTION('',(1.,0.,-0.));
#517 = PLANE('',#518);
#518 = AXIS2_PLACEMENT_3D('',#519,#520,#521);
#519 = CARTESIAN_POINT('',(-6.,5.,85.126666666667));
#520 = DIRECTION('',(0.,0.,-1.));
#521 = DIRECTION('',(0.,-1.,0.));
#522 = ADVANCED_FACE('',(#523),#548,.F.);
#523 = FACE_BOUND('',#524,.F.);
#524 = EDGE_LOOP('',(#525,#533,#541,#547));
#525 = ORIENTED_EDGE('',*,*,#526,.F.);
#526 = EDGE_CURVE('',#527,#392,#529,.T.);
#527 = VERTEX_POINT('',#528);
#528 = CARTESIAN_POINT('',(-6.,9.623468659469,77.746265023613));
#529 = LINE('',#530,#531);
#530 = CARTESIAN_POINT('',(-6.,9.623468659469,77.746265023613));
#531 = VECTOR('',#532,1.);
#532 = DIRECTION('',(0.,-0.939372712847,-0.342897807455));
#533 = ORIENTED_EDGE('',*,*,#534,.T.);
#534 = EDGE_CURVE('',#527,#535,#537,.T.);
#535 = VERTEX_POINT('',#536);
#536 = CARTESIAN_POINT('',(6.,9.623468659469,77.746265023613));
#537 = LINE('',#538,#539);
#538 = CARTESIAN_POINT('',(-6.,9.623468659469,77.746265023613));
#539 = VECTOR('',#540,1.);
#540 = DIRECTION('',(1.,0.,0.));
#541 = ORIENTED_EDGE('',*,*,#542,.T.);
#542 = EDGE_CURVE('',#535,#402,#543,.T.);
#543 = LINE('',#544,#545);
#544 = CARTESIAN_POINT('',(6.,9.623468659469,77.746265023613));
#545 = VECTOR('',#546,1.);
#546 = DIRECTION('',(0.,-0.939372712847,-0.342897807455));
#547 = ORIENTED_EDGE('',*,*,#401,.F.);
#548 = PLANE('',#549);
#549 = AXIS2_PLACEMENT_3D('',#550,#551,#552);
#550 = CARTESIAN_POINT('',(-6.,9.623468659469,77.746265023613));
#551 = DIRECTION('',(0.,0.342897807455,-0.939372712847));
#552 = DIRECTION('',(0.,-0.939372712847,-0.342897807455));
#553 = ADVANCED_FACE('',(#554),#588,.F.);
#554 = FACE_BOUND('',#555,.F.);
#555 = EDGE_LOOP('',(#556,#566,#574,#582));
#556 = ORIENTED_EDGE('',*,*,#557,.F.);
#557 = EDGE_CURVE('',#558,#560,#562,.T.);
#558 = VERTEX_POINT('',#559);
#559 = CARTESIAN_POINT('',(-6.,9.106665188532E-02,74.266666666667));
#560 = VERTEX_POINT('',#561);
#561 = CARTESIAN_POINT('',(-6.,-9.163985597479,70.888308874504));
#562 = LINE('',#563,#564);
#563 = CARTESIAN_POINT('',(-6.,9.623468659469,77.746265023613));
#564 = VECTOR('',#565,1.);
#565 = DIRECTION('',(0.,-0.939372712847,-0.342897807455));
#566 = ORIENTED_EDGE('',*,*,#567,.F.);
#567 = EDGE_CURVE('',#568,#558,#570,.T.);
#568 = VERTEX_POINT('',#569);
#569 = CARTESIAN_POINT('',(6.,9.106665188532E-02,74.266666666667));
#570 = LINE('',#571,#572);
#571 = CARTESIAN_POINT('',(-6.,9.106665188533E-02,74.266666666667));
#572 = VECTOR('',#573,1.);
#573 = DIRECTION('',(-1.,0.,0.));
#574 = ORIENTED_EDGE('',*,*,#575,.T.);
#575 = EDGE_CURVE('',#568,#576,#578,.T.);
#576 = VERTEX_POINT('',#577);
#577 = CARTESIAN_POINT('',(6.,-9.163985597479,70.888308874504));
#578 = LINE('',#579,#580);
#579 = CARTESIAN_POINT('',(6.,9.623468659469,77.746265023613));
#580 = VECTOR('',#581,1.);
#581 = DIRECTION('',(0.,-0.939372712847,-0.342897807455));
#582 = ORIENTED_EDGE('',*,*,#583,.F.);
#583 = EDGE_CURVE('',#560,#576,#584,.T.);
#584 = LINE('',#585,#586);
#585 = CARTESIAN_POINT('',(-6.,-9.163985597479,70.888308874504));
#586 = VECTOR('',#587,1.);
#587 = DIRECTION('',(1.,0.,0.));
#588 = PLANE('',#589);
#589 = AXIS2_PLACEMENT_3D('',#590,#591,#592);
#590 = CARTESIAN_POINT('',(-6.,9.623468659469,77.746265023613));
#591 = DIRECTION('',(0.,0.342897807455,-0.939372712847));
#592 = DIRECTION('',(0.,-0.939372712847,-0.342897807455));
#593 = ADVANCED_FACE('',(#594),#619,.F.);
#594 = FACE_BOUND('',#595,.F.);
#595 = EDGE_LOOP('',(#596,#597,#605,#613));
#596 = ORIENTED_EDGE('',*,*,#583,.T.);
#597 = ORIENTED_EDGE('',*,*,#598,.T.);
#598 = EDGE_CURVE('',#576,#599,#601,.T.);
#599 = VERTEX_POINT('',#600);
#600 = CARTESIAN_POINT('',(6.,-5.045782929939,59.606442593207));
#601 = LINE('',#602,#603);
#602 = CARTESIAN_POINT('',(6.,-9.163985597479,70.888308874504));
#603 = VECTOR('',#604,1.);
#604 = DIRECTION('',(0.,0.342897807455,-0.939372712847));
#605 = ORIENTED_EDGE('',*,*,#606,.F.);
#606 = EDGE_CURVE('',#607,#599,#609,.T.);
#607 = VERTEX_POINT('',#608);
#608 = CARTESIAN_POINT('',(-6.,-5.045782929939,59.606442593207));
#609 = LINE('',#610,#611);
#610 = CARTESIAN_POINT('',(-6.,-5.045782929939,59.606442593207));
#611 = VECTOR('',#612,1.);
#612 = DIRECTION('',(1.,0.,0.));
#613 = ORIENTED_EDGE('',*,*,#614,.F.);
#614 = EDGE_CURVE('',#560,#607,#615,.T.);
#615 = LINE('',#616,#617);
#616 = CARTESIAN_POINT('',(-6.,-9.163985597479,70.888308874504));
#617 = VECTOR('',#618,1.);
#618 = DIRECTION('',(0.,0.342897807455,-0.939372712847));
#619 = PLANE('',#620);
#620 = AXIS2_PLACEMENT_3D('',#621,#622,#623);
#621 = CARTESIAN_POINT('',(-6.,-9.163985597479,70.888308874504));
#622 = DIRECTION('',(0.,0.939372712847,0.342897807455));
#623 = DIRECTION('',(0.,0.342897807455,-0.939372712847));
#624 = ADVANCED_FACE('',(#625),#652,.T.);
#625 = FACE_BOUND('',#626,.T.);
#626 = EDGE_LOOP('',(#627,#636,#637,#646));
#627 = ORIENTED_EDGE('',*,*,#628,.F.);
#628 = EDGE_CURVE('',#599,#629,#631,.T.);
#629 = VERTEX_POINT('',#630);
#630 = CARTESIAN_POINT('',(6.,13.741671327009,66.464398742316));
#631 = CIRCLE('',#632,10.);
#632 = AXIS2_PLACEMENT_3D('',#633,#634,#635);
#633 = CARTESIAN_POINT('',(6.,4.347944198535,63.035420667762));
#634 = DIRECTION('',(1.,0.,0.));
#635 = DIRECTION('',(0.,-0.342897807455,0.939372712847));
#636 = ORIENTED_EDGE('',*,*,#606,.F.);
#637 = ORIENTED_EDGE('',*,*,#638,.T.);
#638 = EDGE_CURVE('',#607,#639,#641,.T.);
#639 = VERTEX_POINT('',#640);
#640 = CARTESIAN_POINT('',(-6.,13.741671327009,66.464398742316));
#641 = CIRCLE('',#642,10.);
#642 = AXIS2_PLACEMENT_3D('',#643,#644,#645);
#643 = CARTESIAN_POINT('',(-6.,4.347944198535,63.035420667762));
#644 = DIRECTION('',(1.,0.,0.));
#645 = DIRECTION('',(0.,-0.342897807455,0.939372712847));
#646 = ORIENTED_EDGE('',*,*,#647,.T.);
#647 = EDGE_CURVE('',#639,#629,#648,.T.);
#648 = LINE('',#649,#650);
#649 = CARTESIAN_POINT('',(-6.,13.741671327009,66.464398742316));
#650 = VECTOR('',#651,1.);
#651 = DIRECTION('',(1.,0.,0.));
#652 = CYLINDRICAL_SURFACE('',#653,10.);
#653 = AXIS2_PLACEMENT_3D('',#654,#655,#656);
#654 = CARTESIAN_POINT('',(-6.,4.347944198535,63.035420667762));
#655 = DIRECTION('',(1.,0.,0.));
#656 = DIRECTION('',(0.,-0.342897807455,0.939372712847));
#657 = ADVANCED_FACE('',(#658),#674,.F.);
#658 = FACE_BOUND('',#659,.F.);
#659 = EDGE_LOOP('',(#660,#661,#667,#668));
#660 = ORIENTED_EDGE('',*,*,#647,.T.);
#661 = ORIENTED_EDGE('',*,*,#662,.T.);
#662 = EDGE_CURVE('',#629,#535,#663,.T.);
#663 = LINE('',#664,#665);
#664 = CARTESIAN_POINT('',(6.,13.741671327009,66.464398742316));
#665 = VECTOR('',#666,1.);
#666 = DIRECTION('',(0.,-0.342897807455,0.939372712847));
#667 = ORIENTED_EDGE('',*,*,#534,.F.);
#668 = ORIENTED_EDGE('',*,*,#669,.F.);
#669 = EDGE_CURVE('',#639,#527,#670,.T.);
#670 = LINE('',#671,#672);
#671 = CARTESIAN_POINT('',(-6.,13.741671327009,66.464398742316));
#672 = VECTOR('',#673,1.);
#673 = DIRECTION('',(0.,-0.342897807455,0.939372712847));
#674 = PLANE('',#675);
#675 = AXIS2_PLACEMENT_3D('',#676,#677,#678);
#676 = CARTESIAN_POINT('',(-6.,13.741671327009,66.464398742316));
#677 = DIRECTION('',(0.,-0.939372712847,-0.342897807455));
#678 = DIRECTION('',(0.,-0.342897807455,0.939372712847));
#679 = ADVANCED_FACE('',(#680),#699,.F.);
#680 = FACE_BOUND('',#681,.F.);
#681 = EDGE_LOOP('',(#682,#683,#691,#698));
#682 = ORIENTED_EDGE('',*,*,#509,.F.);
#683 = ORIENTED_EDGE('',*,*,#684,.F.);
#684 = EDGE_CURVE('',#685,#510,#687,.T.);
#685 = VERTEX_POINT('',#686);
#686 = CARTESIAN_POINT('',(1.7,-4.163799117101E-16,77.126666666667));
#687 = LINE('',#688,#689);
#688 = CARTESIAN_POINT('',(1.7,-4.163799117101E-16,76.126666666667));
#689 = VECTOR('',#690,1.);
#690 = DIRECTION('',(0.,0.,1.));
#691 = ORIENTED_EDGE('',*,*,#692,.T.);
#692 = EDGE_CURVE('',#685,#685,#693,.T.);
#693 = CIRCLE('',#694,1.7);
#694 = AXIS2_PLACEMENT_3D('',#695,#696,#697);
#695 = CARTESIAN_POINT('',(0.,0.,77.126666666667));
#696 = DIRECTION('',(0.,0.,1.));
#697 = DIRECTION('',(1.,0.,-0.));
#698 = ORIENTED_EDGE('',*,*,#684,.T.);
#699 = CYLINDRICAL_SURFACE('',#700,1.7);
#700 = AXIS2_PLACEMENT_3D('',#701,#702,#703);
#701 = CARTESIAN_POINT('',(0.,0.,76.126666666667));
#702 = DIRECTION('',(0.,0.,1.));
#703 = DIRECTION('',(1.,0.,-0.));
#704 = ADVANCED_FACE('',(#705),#739,.F.);
#705 = FACE_BOUND('',#706,.F.);
#706 = EDGE_LOOP('',(#707,#717,#725,#733));
#707 = ORIENTED_EDGE('',*,*,#708,.F.);
#708 = EDGE_CURVE('',#709,#711,#713,.T.);
#709 = VERTEX_POINT('',#710);
#710 = CARTESIAN_POINT('',(-6.,-49.99,75.626666666667));
#711 = VERTEX_POINT('',#712);
#712 = CARTESIAN_POINT('',(-6.,-49.99,77.126666666667));
#713 = LINE('',#714,#715);
#714 = CARTESIAN_POINT('',(-6.,-49.99,71.266666666667));
#715 = VECTOR('',#716,1.);
#716 = DIRECTION('',(0.,0.,1.));
#717 = ORIENTED_EDGE('',*,*,#718,.F.);
#718 = EDGE_CURVE('',#719,#709,#721,.T.);
#719 = VERTEX_POINT('',#720);
#720 = CARTESIAN_POINT('',(6.,-49.99,75.626666666667));
#721 = LINE('',#722,#723);
#722 = CARTESIAN_POINT('',(-6.,-49.99,75.626666666667));
#723 = VECTOR('',#724,1.);
#724 = DIRECTION('',(-1.,0.,0.));
#725 = ORIENTED_EDGE('',*,*,#726,.T.);
#726 = EDGE_CURVE('',#719,#727,#729,.T.);
#727 = VERTEX_POINT('',#728);
#728 = CARTESIAN_POINT('',(6.,-49.99,77.126666666667));
#729 = LINE('',#730,#731);
#730 = CARTESIAN_POINT('',(6.,-49.99,71.266666666667));
#731 = VECTOR('',#732,1.);
#732 = DIRECTION('',(0.,0.,1.));
#733 = ORIENTED_EDGE('',*,*,#734,.T.);
#734 = EDGE_CURVE('',#727,#711,#735,.T.);
#735 = LINE('',#736,#737);
#736 = CARTESIAN_POINT('',(-6.,-49.99,77.126666666667));
#737 = VECTOR('',#738,1.);
#738 = DIRECTION('',(-1.,0.,0.));
#739 = PLANE('',#740);
#740 = AXIS2_PLACEMENT_3D('',#741,#742,#743);
#741 = CARTESIAN_POINT('',(-6.,-49.99,71.266666666667));
#742 = DIRECTION('',(0.,-1.,0.));
#743 = DIRECTION('',(0.,0.,1.));
#744 = ADVANCED_FACE('',(#745,#770),#773,.F.);
#745 = FACE_BOUND('',#746,.F.);
#746 = EDGE_LOOP('',(#747,#755,#756,#764));
#747 = ORIENTED_EDGE('',*,*,#748,.F.);
#748 = EDGE_CURVE('',#711,#749,#751,.T.);
#749 = VERTEX_POINT('',#750);
#750 = CARTESIAN_POINT('',(-6.,7.926071426865,77.126666666667));
#751 = LINE('',#752,#753);
#752 = CARTESIAN_POINT('',(-6.,-51.,77.126666666667));
#753 = VECTOR('',#754,1.);
#754 = DIRECTION('',(0.,1.,0.));
#755 = ORIENTED_EDGE('',*,*,#734,.F.);
#756 = ORIENTED_EDGE('',*,*,#757,.T.);
#757 = EDGE_CURVE('',#727,#758,#760,.T.);
#758 = VERTEX_POINT('',#759);
#759 = CARTESIAN_POINT('',(6.,7.926071426865,77.126666666667));
#760 = LINE('',#761,#762);
#761 = CARTESIAN_POINT('',(6.,-51.,77.126666666667));
#762 = VECTOR('',#763,1.);
#763 = DIRECTION('',(0.,1.,0.));
#764 = ORIENTED_EDGE('',*,*,#765,.T.);
#765 = EDGE_CURVE('',#758,#749,#766,.T.);
#766 = LINE('',#767,#768);
#767 = CARTESIAN_POINT('',(-6.,7.926071426865,77.126666666667));
#768 = VECTOR('',#769,1.);
#769 = DIRECTION('',(-1.,0.,0.));
#770 = FACE_BOUND('',#771,.F.);
#771 = EDGE_LOOP('',(#772));
#772 = ORIENTED_EDGE('',*,*,#692,.F.);
#773 = PLANE('',#774);
#774 = AXIS2_PLACEMENT_3D('',#775,#776,#777);
#775 = CARTESIAN_POINT('',(-6.,-51.,77.126666666667));
#776 = DIRECTION('',(0.,0.,1.));
#777 = DIRECTION('',(0.,1.,0.));
#778 = ADVANCED_FACE('',(#779),#804,.F.);
#779 = FACE_BOUND('',#780,.F.);
#780 = EDGE_LOOP('',(#781,#789,#790,#798));
#781 = ORIENTED_EDGE('',*,*,#782,.F.);
#782 = EDGE_CURVE('',#749,#783,#785,.T.);
#783 = VERTEX_POINT('',#784);
#784 = CARTESIAN_POINT('',(-6.,3.816803188239,75.626666666667));
#785 = LINE('',#786,#787);
#786 = CARTESIAN_POINT('',(-6.,9.623468659469,77.746265023613));
#787 = VECTOR('',#788,1.);
#788 = DIRECTION('',(0.,-0.939372712847,-0.342897807455));
#789 = ORIENTED_EDGE('',*,*,#765,.F.);
#790 = ORIENTED_EDGE('',*,*,#791,.T.);
#791 = EDGE_CURVE('',#758,#792,#794,.T.);
#792 = VERTEX_POINT('',#793);
#793 = CARTESIAN_POINT('',(6.,3.816803188239,75.626666666667));
#794 = LINE('',#795,#796);
#795 = CARTESIAN_POINT('',(6.,9.623468659469,77.746265023613));
#796 = VECTOR('',#797,1.);
#797 = DIRECTION('',(0.,-0.939372712847,-0.342897807455));
#798 = ORIENTED_EDGE('',*,*,#799,.F.);
#799 = EDGE_CURVE('',#783,#792,#800,.T.);
#800 = LINE('',#801,#802);
#801 = CARTESIAN_POINT('',(-6.,3.816803188239,75.626666666667));
#802 = VECTOR('',#803,1.);
#803 = DIRECTION('',(1.,-0.,0.));
#804 = PLANE('',#805);
#805 = AXIS2_PLACEMENT_3D('',#806,#807,#808);
#806 = CARTESIAN_POINT('',(-6.,9.623468659469,77.746265023613));
#807 = DIRECTION('',(0.,0.342897807455,-0.939372712847));
#808 = DIRECTION('',(0.,-0.939372712847,-0.342897807455));
#809 = ADVANCED_FACE('',(#810,#839,#850,#895,#942),#953,.T.);
#810 = FACE_BOUND('',#811,.T.);
#811 = EDGE_LOOP('',(#812,#813,#814,#815,#816,#817,#818,#819,#820,#821,
    #822,#823,#824,#825,#826,#832,#833,#834,#835,#836,#837,#838));
#812 = ORIENTED_EDGE('',*,*,#92,.F.);
#813 = ORIENTED_EDGE('',*,*,#128,.F.);
#814 = ORIENTED_EDGE('',*,*,#21,.T.);
#815 = ORIENTED_EDGE('',*,*,#61,.F.);
#816 = ORIENTED_EDGE('',*,*,#360,.F.);
#817 = ORIENTED_EDGE('',*,*,#501,.F.);
#818 = ORIENTED_EDGE('',*,*,#462,.F.);
#819 = ORIENTED_EDGE('',*,*,#431,.F.);
#820 = ORIENTED_EDGE('',*,*,#391,.F.);
#821 = ORIENTED_EDGE('',*,*,#526,.F.);
#822 = ORIENTED_EDGE('',*,*,#669,.F.);
#823 = ORIENTED_EDGE('',*,*,#638,.F.);
#824 = ORIENTED_EDGE('',*,*,#614,.F.);
#825 = ORIENTED_EDGE('',*,*,#557,.F.);
#826 = ORIENTED_EDGE('',*,*,#827,.T.);
#827 = EDGE_CURVE('',#558,#330,#828,.T.);
#828 = LINE('',#829,#830);
#829 = CARTESIAN_POINT('',(-6.,10.,74.266666666667));
#830 = VECTOR('',#831,1.);
#831 = DIRECTION('',(0.,-1.,0.));
#832 = ORIENTED_EDGE('',*,*,#329,.F.);
#833 = ORIENTED_EDGE('',*,*,#315,.F.);
#834 = ORIENTED_EDGE('',*,*,#267,.F.);
#835 = ORIENTED_EDGE('',*,*,#236,.T.);
#836 = ORIENTED_EDGE('',*,*,#205,.T.);
#837 = ORIENTED_EDGE('',*,*,#191,.T.);
#838 = ORIENTED_EDGE('',*,*,#143,.T.);
#839 = FACE_BOUND('',#840,.T.);
#840 = EDGE_LOOP('',(#841,#847,#848,#849));
#841 = ORIENTED_EDGE('',*,*,#842,.T.);
#842 = EDGE_CURVE('',#709,#783,#843,.T.);
#843 = LINE('',#844,#845);
#844 = CARTESIAN_POINT('',(-6.,-50.,75.626666666667));
#845 = VECTOR('',#846,1.);
#846 = DIRECTION('',(0.,1.,0.));
#847 = ORIENTED_EDGE('',*,*,#782,.F.);
#848 = ORIENTED_EDGE('',*,*,#748,.F.);
#849 = ORIENTED_EDGE('',*,*,#708,.F.);
#850 = FACE_BOUND('',#851,.T.);
#851 = EDGE_LOOP('',(#852,#862,#871,#880,#888));
#852 = ORIENTED_EDGE('',*,*,#853,.F.);
#853 = EDGE_CURVE('',#854,#856,#858,.T.);
#854 = VERTEX_POINT('',#855);
#855 = CARTESIAN_POINT('',(-6.,-78.19356738778,96.152480682932));
#856 = VERTEX_POINT('',#857);
#857 = CARTESIAN_POINT('',(-6.,-59.91516404515,83.265832200732));
#858 = LINE('',#859,#860);
#859 = CARTESIAN_POINT('',(-6.,-74.44126615375,93.50703151016));
#860 = VECTOR('',#861,1.);
#861 = DIRECTION('',(0.,0.817299601622,-0.576212947779));
#862 = ORIENTED_EDGE('',*,*,#863,.T.);
#863 = EDGE_CURVE('',#854,#864,#866,.T.);
#864 = VERTEX_POINT('',#865);
#865 = CARTESIAN_POINT('',(-6.,-79.63409975723,96.609231678876));
#866 = CIRCLE('',#867,2.5);
#867 = AXIS2_PLACEMENT_3D('',#868,#869,#870);
#868 = CARTESIAN_POINT('',(-6.,-79.63409975723,94.109231678876));
#869 = DIRECTION('',(1.,0.,0.));
#870 = DIRECTION('',(-0.,0.,1.));
#871 = ORIENTED_EDGE('',*,*,#872,.T.);
#872 = EDGE_CURVE('',#864,#873,#875,.T.);
#873 = VERTEX_POINT('',#874);
#874 = CARTESIAN_POINT('',(-6.,-81.07463212668,92.06598267482));
#875 = CIRCLE('',#876,2.5);
#876 = AXIS2_PLACEMENT_3D('',#877,#878,#879);
#877 = CARTESIAN_POINT('',(-6.,-79.63409975723,94.109231678876));
#878 = DIRECTION('',(1.,0.,0.));
#879 = DIRECTION('',(-0.,0.,1.));
#880 = ORIENTED_EDGE('',*,*,#881,.F.);
#881 = EDGE_CURVE('',#882,#873,#884,.T.);
#882 = VERTEX_POINT('',#883);
#883 = CARTESIAN_POINT('',(-6.,-62.79622878404,79.17933419262));
#884 = LINE('',#885,#886);
#885 = CARTESIAN_POINT('',(-6.,-68.18312922132,82.977209260949));
#886 = VECTOR('',#887,1.);
#887 = DIRECTION('',(0.,-0.817299601622,0.576212947779));
#888 = ORIENTED_EDGE('',*,*,#889,.T.);
#889 = EDGE_CURVE('',#882,#856,#890,.T.);
#890 = CIRCLE('',#891,2.5);
#891 = AXIS2_PLACEMENT_3D('',#892,#893,#894);
#892 = CARTESIAN_POINT('',(-6.,-61.3556964146,81.222583196676));
#893 = DIRECTION('',(1.,0.,0.));
#894 = DIRECTION('',(-0.,0.,1.));
#895 = FACE_BOUND('',#896,.T.);
#896 = EDGE_LOOP('',(#897,#908,#917,#926,#935));
#897 = ORIENTED_EDGE('',*,*,#898,.T.);
#898 = EDGE_CURVE('',#899,#901,#903,.T.);
#899 = VERTEX_POINT('',#900);
#900 = CARTESIAN_POINT('',(-6.,-88.44392379282,104.17449374511));
#901 = VERTEX_POINT('',#902);
#902 = CARTESIAN_POINT('',(-6.,-90.25899457832,104.75));
#903 = CIRCLE('',#904,3.15);
#904 = AXIS2_PLACEMENT_3D('',#905,#906,#907);
#905 = CARTESIAN_POINT('',(-6.,-90.25899457832,101.6));
#906 = DIRECTION('',(1.,0.,0.));
#907 = DIRECTION('',(-0.,0.,1.));
#908 = ORIENTED_EDGE('',*,*,#909,.T.);
#909 = EDGE_CURVE('',#901,#910,#912,.T.);
#910 = VERTEX_POINT('',#911);
#911 = CARTESIAN_POINT('',(-6.,-93.40899457832,101.6));
#912 = CIRCLE('',#913,3.15);
#913 = AXIS2_PLACEMENT_3D('',#914,#915,#916);
#914 = CARTESIAN_POINT('',(-6.,-90.25899457832,101.6));
#915 = DIRECTION('',(1.,0.,0.));
#916 = DIRECTION('',(-0.,0.,1.));
#917 = ORIENTED_EDGE('',*,*,#918,.T.);
#918 = EDGE_CURVE('',#910,#919,#921,.T.);
#919 = VERTEX_POINT('',#920);
#920 = CARTESIAN_POINT('',(-6.,-92.07406536383,99.025506254889));
#921 = CIRCLE('',#922,3.15);
#922 = AXIS2_PLACEMENT_3D('',#923,#924,#925);
#923 = CARTESIAN_POINT('',(-6.,-90.25899457832,101.6));
#924 = DIRECTION('',(1.,0.,0.));
#925 = DIRECTION('',(-0.,0.,1.));
#926 = ORIENTED_EDGE('',*,*,#927,.T.);
#927 = EDGE_CURVE('',#919,#928,#930,.T.);
#928 = VERTEX_POINT('',#929);
#929 = CARTESIAN_POINT('',(-6.,-87.10899457832,101.6));
#930 = CIRCLE('',#931,3.15);
#931 = AXIS2_PLACEMENT_3D('',#932,#933,#934);
#932 = CARTESIAN_POINT('',(-6.,-90.25899457832,101.6));
#933 = DIRECTION('',(1.,0.,0.));
#934 = DIRECTION('',(-0.,0.,1.));
#935 = ORIENTED_EDGE('',*,*,#936,.T.);
#936 = EDGE_CURVE('',#928,#899,#937,.T.);
#937 = CIRCLE('',#938,3.15);
#938 = AXIS2_PLACEMENT_3D('',#939,#940,#941);
#939 = CARTESIAN_POINT('',(-6.,-90.25899457832,101.6));
#940 = DIRECTION('',(1.,0.,0.));
#941 = DIRECTION('',(-0.,0.,1.));
#942 = FACE_BOUND('',#943,.T.);
#943 = EDGE_LOOP('',(#944));
#944 = ORIENTED_EDGE('',*,*,#945,.T.);
#945 = EDGE_CURVE('',#946,#946,#948,.T.);
#946 = VERTEX_POINT('',#947);
#947 = CARTESIAN_POINT('',(-6.,-90.25899457832,85.));
#948 = CIRCLE('',#949,1.4);
#949 = AXIS2_PLACEMENT_3D('',#950,#951,#952);
#950 = CARTESIAN_POINT('',(-6.,-90.25899457832,83.6));
#951 = DIRECTION('',(1.,0.,0.));
#952 = DIRECTION('',(-0.,0.,1.));
#953 = PLANE('',#954);
#954 = AXIS2_PLACEMENT_3D('',#955,#956,#957);
#955 = CARTESIAN_POINT('',(-6.,-42.01160950221,80.477199460536));
#956 = DIRECTION('',(-1.,-0.,-0.));
#957 = DIRECTION('',(0.,0.,-1.));
#958 = ADVANCED_FACE('',(#959),#984,.F.);
#959 = FACE_BOUND('',#960,.F.);
#960 = EDGE_LOOP('',(#961,#962,#970,#978));
#961 = ORIENTED_EDGE('',*,*,#853,.F.);
#962 = ORIENTED_EDGE('',*,*,#963,.T.);
#963 = EDGE_CURVE('',#854,#964,#966,.T.);
#964 = VERTEX_POINT('',#965);
#965 = CARTESIAN_POINT('',(6.,-78.19356738778,96.152480682932));
#966 = LINE('',#967,#968);
#967 = CARTESIAN_POINT('',(-7.,-78.19356738778,96.152480682932));
#968 = VECTOR('',#969,1.);
#969 = DIRECTION('',(1.,0.,0.));
#970 = ORIENTED_EDGE('',*,*,#971,.T.);
#971 = EDGE_CURVE('',#964,#972,#974,.T.);
#972 = VERTEX_POINT('',#973);
#973 = CARTESIAN_POINT('',(6.,-59.91516404515,83.265832200732));
#974 = LINE('',#975,#976);
#975 = CARTESIAN_POINT('',(6.,-74.44126615375,93.50703151016));
#976 = VECTOR('',#977,1.);
#977 = DIRECTION('',(0.,0.817299601622,-0.576212947779));
#978 = ORIENTED_EDGE('',*,*,#979,.F.);
#979 = EDGE_CURVE('',#856,#972,#980,.T.);
#980 = LINE('',#981,#982);
#981 = CARTESIAN_POINT('',(-7.,-59.91516404515,83.265832200732));
#982 = VECTOR('',#983,1.);
#983 = DIRECTION('',(1.,0.,0.));
#984 = PLANE('',#985);
#985 = AXIS2_PLACEMENT_3D('',#986,#987,#988);
#986 = CARTESIAN_POINT('',(-7.,-78.19356738778,96.152480682932));
#987 = DIRECTION('',(-0.,0.576212947779,0.817299601622));
#988 = DIRECTION('',(0.,0.817299601622,-0.576212947779));
#989 = ADVANCED_FACE('',(#990),#1019,.F.);
#990 = FACE_BOUND('',#991,.F.);
#991 = EDGE_LOOP('',(#992,#993,#994,#995,#1003,#1012));
#992 = ORIENTED_EDGE('',*,*,#963,.F.);
#993 = ORIENTED_EDGE('',*,*,#863,.T.);
#994 = ORIENTED_EDGE('',*,*,#872,.T.);
#995 = ORIENTED_EDGE('',*,*,#996,.T.);
#996 = EDGE_CURVE('',#873,#997,#999,.T.);
#997 = VERTEX_POINT('',#998);
#998 = CARTESIAN_POINT('',(6.,-81.07463212668,92.06598267482));
#999 = LINE('',#1000,#1001);
#1000 = CARTESIAN_POINT('',(-7.,-81.07463212668,92.06598267482));
#1001 = VECTOR('',#1002,1.);
#1002 = DIRECTION('',(1.,0.,0.));
#1003 = ORIENTED_EDGE('',*,*,#1004,.F.);
#1004 = EDGE_CURVE('',#1005,#997,#1007,.T.);
#1005 = VERTEX_POINT('',#1006);
#1006 = CARTESIAN_POINT('',(6.,-79.63409975723,96.609231678876));
#1007 = CIRCLE('',#1008,2.5);
#1008 = AXIS2_PLACEMENT_3D('',#1009,#1010,#1011);
#1009 = CARTESIAN_POINT('',(6.,-79.63409975723,94.109231678876));
#1010 = DIRECTION('',(1.,0.,0.));
#1011 = DIRECTION('',(-0.,0.,1.));
#1012 = ORIENTED_EDGE('',*,*,#1013,.F.);
#1013 = EDGE_CURVE('',#964,#1005,#1014,.T.);
#1014 = CIRCLE('',#1015,2.5);
#1015 = AXIS2_PLACEMENT_3D('',#1016,#1017,#1018);
#1016 = CARTESIAN_POINT('',(6.,-79.63409975723,94.109231678876));
#1017 = DIRECTION('',(1.,0.,0.));
#1018 = DIRECTION('',(-0.,0.,1.));
#1019 = CYLINDRICAL_SURFACE('',#1020,2.5);
#1020 = AXIS2_PLACEMENT_3D('',#1021,#1022,#1023);
#1021 = CARTESIAN_POINT('',(-7.,-79.63409975723,94.109231678876));
#1022 = DIRECTION('',(1.,0.,0.));
#1023 = DIRECTION('',(-0.,0.,1.));
#1024 = ADVANCED_FACE('',(#1025),#1044,.F.);
#1025 = FACE_BOUND('',#1026,.F.);
#1026 = EDGE_LOOP('',(#1027,#1036,#1042,#1043));
#1027 = ORIENTED_EDGE('',*,*,#1028,.F.);
#1028 = EDGE_CURVE('',#1029,#972,#1031,.T.);
#1029 = VERTEX_POINT('',#1030);
#1030 = CARTESIAN_POINT('',(6.,-62.79622878404,79.17933419262));
#1031 = CIRCLE('',#1032,2.5);
#1032 = AXIS2_PLACEMENT_3D('',#1033,#1034,#1035);
#1033 = CARTESIAN_POINT('',(6.,-61.3556964146,81.222583196676));
#1034 = DIRECTION('',(1.,0.,0.));
#1035 = DIRECTION('',(-0.,0.,1.));
#1036 = ORIENTED_EDGE('',*,*,#1037,.F.);
#1037 = EDGE_CURVE('',#882,#1029,#1038,.T.);
#1038 = LINE('',#1039,#1040);
#1039 = CARTESIAN_POINT('',(-7.,-62.79622878404,79.17933419262));
#1040 = VECTOR('',#1041,1.);
#1041 = DIRECTION('',(1.,0.,0.));
#1042 = ORIENTED_EDGE('',*,*,#889,.T.);
#1043 = ORIENTED_EDGE('',*,*,#979,.T.);
#1044 = CYLINDRICAL_SURFACE('',#1045,2.5);
#1045 = AXIS2_PLACEMENT_3D('',#1046,#1047,#1048);
#1046 = CARTESIAN_POINT('',(-7.,-61.3556964146,81.222583196676));
#1047 = DIRECTION('',(1.,0.,0.));
#1048 = DIRECTION('',(-0.,0.,1.));
#1049 = ADVANCED_FACE('',(#1050),#1061,.F.);
#1050 = FACE_BOUND('',#1051,.F.);
#1051 = EDGE_LOOP('',(#1052,#1053,#1054,#1060));
#1052 = ORIENTED_EDGE('',*,*,#881,.F.);
#1053 = ORIENTED_EDGE('',*,*,#1037,.T.);
#1054 = ORIENTED_EDGE('',*,*,#1055,.T.);
#1055 = EDGE_CURVE('',#1029,#997,#1056,.T.);
#1056 = LINE('',#1057,#1058);
#1057 = CARTESIAN_POINT('',(6.,-68.18312922132,82.977209260949));
#1058 = VECTOR('',#1059,1.);
#1059 = DIRECTION('',(0.,-0.817299601622,0.576212947779));
#1060 = ORIENTED_EDGE('',*,*,#996,.F.);
#1061 = PLANE('',#1062);
#1062 = AXIS2_PLACEMENT_3D('',#1063,#1064,#1065);
#1063 = CARTESIAN_POINT('',(-7.,-62.79622878404,79.17933419262));
#1064 = DIRECTION('',(0.,-0.576212947779,-0.817299601622));
#1065 = DIRECTION('',(0.,-0.817299601622,0.576212947779));
#1066 = ADVANCED_FACE('',(#1067),#1126,.F.);
#1067 = FACE_BOUND('',#1068,.F.);
#1068 = EDGE_LOOP('',(#1069,#1080,#1086,#1087,#1088,#1089,#1090,#1091,
    #1092,#1101,#1110,#1119));
#1069 = ORIENTED_EDGE('',*,*,#1070,.F.);
#1070 = EDGE_CURVE('',#1071,#1073,#1075,.T.);
#1071 = VERTEX_POINT('',#1072);
#1072 = CARTESIAN_POINT('',(6.,-90.25899457832,104.75));
#1073 = VERTEX_POINT('',#1074);
#1074 = CARTESIAN_POINT('',(6.,-93.40899457832,101.6));
#1075 = CIRCLE('',#1076,3.15);
#1076 = AXIS2_PLACEMENT_3D('',#1077,#1078,#1079);
#1077 = CARTESIAN_POINT('',(6.,-90.25899457832,101.6));
#1078 = DIRECTION('',(1.,0.,0.));
#1079 = DIRECTION('',(-0.,0.,1.));
#1080 = ORIENTED_EDGE('',*,*,#1081,.F.);
#1081 = EDGE_CURVE('',#901,#1071,#1082,.T.);
#1082 = LINE('',#1083,#1084);
#1083 = CARTESIAN_POINT('',(-7.,-90.25899457832,104.75));
#1084 = VECTOR('',#1085,1.);
#1085 = DIRECTION('',(1.,0.,0.));
#1086 = ORIENTED_EDGE('',*,*,#909,.T.);
#1087 = ORIENTED_EDGE('',*,*,#918,.T.);
#1088 = ORIENTED_EDGE('',*,*,#927,.T.);
#1089 = ORIENTED_EDGE('',*,*,#936,.T.);
#1090 = ORIENTED_EDGE('',*,*,#898,.T.);
#1091 = ORIENTED_EDGE('',*,*,#1081,.T.);
#1092 = ORIENTED_EDGE('',*,*,#1093,.F.);
#1093 = EDGE_CURVE('',#1094,#1071,#1096,.T.);
#1094 = VERTEX_POINT('',#1095);
#1095 = CARTESIAN_POINT('',(6.,-88.44392379282,104.17449374511));
#1096 = CIRCLE('',#1097,3.15);
#1097 = AXIS2_PLACEMENT_3D('',#1098,#1099,#1100);
#1098 = CARTESIAN_POINT('',(6.,-90.25899457832,101.6));
#1099 = DIRECTION('',(1.,0.,0.));
#1100 = DIRECTION('',(-0.,0.,1.));
#1101 = ORIENTED_EDGE('',*,*,#1102,.F.);
#1102 = EDGE_CURVE('',#1103,#1094,#1105,.T.);
#1103 = VERTEX_POINT('',#1104);
#1104 = CARTESIAN_POINT('',(6.,-87.10899457832,101.6));
#1105 = CIRCLE('',#1106,3.15);
#1106 = AXIS2_PLACEMENT_3D('',#1107,#1108,#1109);
#1107 = CARTESIAN_POINT('',(6.,-90.25899457832,101.6));
#1108 = DIRECTION('',(1.,0.,0.));
#1109 = DIRECTION('',(-0.,0.,1.));
#1110 = ORIENTED_EDGE('',*,*,#1111,.F.);
#1111 = EDGE_CURVE('',#1112,#1103,#1114,.T.);
#1112 = VERTEX_POINT('',#1113);
#1113 = CARTESIAN_POINT('',(6.,-92.07406536383,99.025506254889));
#1114 = CIRCLE('',#1115,3.15);
#1115 = AXIS2_PLACEMENT_3D('',#1116,#1117,#1118);
#1116 = CARTESIAN_POINT('',(6.,-90.25899457832,101.6));
#1117 = DIRECTION('',(1.,0.,0.));
#1118 = DIRECTION('',(-0.,0.,1.));
#1119 = ORIENTED_EDGE('',*,*,#1120,.F.);
#1120 = EDGE_CURVE('',#1073,#1112,#1121,.T.);
#1121 = CIRCLE('',#1122,3.15);
#1122 = AXIS2_PLACEMENT_3D('',#1123,#1124,#1125);
#1123 = CARTESIAN_POINT('',(6.,-90.25899457832,101.6));
#1124 = DIRECTION('',(1.,0.,0.));
#1125 = DIRECTION('',(-0.,0.,1.));
#1126 = CYLINDRICAL_SURFACE('',#1127,3.15);
#1127 = AXIS2_PLACEMENT_3D('',#1128,#1129,#1130);
#1128 = CARTESIAN_POINT('',(-7.,-90.25899457832,101.6));
#1129 = DIRECTION('',(1.,0.,0.));
#1130 = DIRECTION('',(-0.,0.,1.));
#1131 = ADVANCED_FACE('',(#1132),#1151,.F.);
#1132 = FACE_BOUND('',#1133,.F.);
#1133 = EDGE_LOOP('',(#1134,#1143,#1149,#1150));
#1134 = ORIENTED_EDGE('',*,*,#1135,.F.);
#1135 = EDGE_CURVE('',#1136,#1136,#1138,.T.);
#1136 = VERTEX_POINT('',#1137);
#1137 = CARTESIAN_POINT('',(6.,-90.25899457832,85.));
#1138 = CIRCLE('',#1139,1.4);
#1139 = AXIS2_PLACEMENT_3D('',#1140,#1141,#1142);
#1140 = CARTESIAN_POINT('',(6.,-90.25899457832,83.6));
#1141 = DIRECTION('',(1.,0.,0.));
#1142 = DIRECTION('',(-0.,0.,1.));
#1143 = ORIENTED_EDGE('',*,*,#1144,.F.);
#1144 = EDGE_CURVE('',#946,#1136,#1145,.T.);
#1145 = LINE('',#1146,#1147);
#1146 = CARTESIAN_POINT('',(-7.,-90.25899457832,85.));
#1147 = VECTOR('',#1148,1.);
#1148 = DIRECTION('',(1.,0.,0.));
#1149 = ORIENTED_EDGE('',*,*,#945,.T.);
#1150 = ORIENTED_EDGE('',*,*,#1144,.T.);
#1151 = CYLINDRICAL_SURFACE('',#1152,1.4);
#1152 = AXIS2_PLACEMENT_3D('',#1153,#1154,#1155);
#1153 = CARTESIAN_POINT('',(-7.,-90.25899457832,83.6));
#1154 = DIRECTION('',(1.,0.,0.));
#1155 = DIRECTION('',(-0.,0.,1.));
#1156 = ADVANCED_FACE('',(#1157,#1186,#1197,#1204,#1211),#1214,.T.);
#1157 = FACE_BOUND('',#1158,.T.);
#1158 = EDGE_LOOP('',(#1159,#1160,#1161,#1162,#1163,#1164,#1165,#1166,
    #1167,#1168,#1174,#1175,#1176,#1177,#1178,#1179,#1180,#1181,#1182,
    #1183,#1184,#1185));
#1159 = ORIENTED_EDGE('',*,*,#120,.T.);
#1160 = ORIENTED_EDGE('',*,*,#111,.T.);
#1161 = ORIENTED_EDGE('',*,*,#159,.F.);
#1162 = ORIENTED_EDGE('',*,*,#184,.F.);
#1163 = ORIENTED_EDGE('',*,*,#221,.F.);
#1164 = ORIENTED_EDGE('',*,*,#252,.F.);
#1165 = ORIENTED_EDGE('',*,*,#276,.T.);
#1166 = ORIENTED_EDGE('',*,*,#299,.T.);
#1167 = ORIENTED_EDGE('',*,*,#338,.T.);
#1168 = ORIENTED_EDGE('',*,*,#1169,.F.);
#1169 = EDGE_CURVE('',#568,#339,#1170,.T.);
#1170 = LINE('',#1171,#1172);
#1171 = CARTESIAN_POINT('',(6.,-48.75,74.266666666667));
#1172 = VECTOR('',#1173,1.);
#1173 = DIRECTION('',(0.,-1.,0.));
#1174 = ORIENTED_EDGE('',*,*,#575,.T.);
#1175 = ORIENTED_EDGE('',*,*,#598,.T.);
#1176 = ORIENTED_EDGE('',*,*,#628,.T.);
#1177 = ORIENTED_EDGE('',*,*,#662,.T.);
#1178 = ORIENTED_EDGE('',*,*,#542,.T.);
#1179 = ORIENTED_EDGE('',*,*,#409,.T.);
#1180 = ORIENTED_EDGE('',*,*,#440,.T.);
#1181 = ORIENTED_EDGE('',*,*,#471,.T.);
#1182 = ORIENTED_EDGE('',*,*,#494,.T.);
#1183 = ORIENTED_EDGE('',*,*,#376,.T.);
#1184 = ORIENTED_EDGE('',*,*,#70,.T.);
#1185 = ORIENTED_EDGE('',*,*,#39,.F.);
#1186 = FACE_BOUND('',#1187,.T.);
#1187 = EDGE_LOOP('',(#1188,#1189,#1190,#1196));
#1188 = ORIENTED_EDGE('',*,*,#757,.T.);
#1189 = ORIENTED_EDGE('',*,*,#791,.T.);
#1190 = ORIENTED_EDGE('',*,*,#1191,.F.);
#1191 = EDGE_CURVE('',#719,#792,#1192,.T.);
#1192 = LINE('',#1193,#1194);
#1193 = CARTESIAN_POINT('',(6.,0.,75.626666666667));
#1194 = VECTOR('',#1195,1.);
#1195 = DIRECTION('',(0.,1.,0.));
#1196 = ORIENTED_EDGE('',*,*,#726,.T.);
#1197 = FACE_BOUND('',#1198,.T.);
#1198 = EDGE_LOOP('',(#1199,#1200,#1201,#1202,#1203));
#1199 = ORIENTED_EDGE('',*,*,#971,.T.);
#1200 = ORIENTED_EDGE('',*,*,#1028,.F.);
#1201 = ORIENTED_EDGE('',*,*,#1055,.T.);
#1202 = ORIENTED_EDGE('',*,*,#1004,.F.);
#1203 = ORIENTED_EDGE('',*,*,#1013,.F.);
#1204 = FACE_BOUND('',#1205,.T.);
#1205 = EDGE_LOOP('',(#1206,#1207,#1208,#1209,#1210));
#1206 = ORIENTED_EDGE('',*,*,#1093,.F.);
#1207 = ORIENTED_EDGE('',*,*,#1102,.F.);
#1208 = ORIENTED_EDGE('',*,*,#1111,.F.);
#1209 = ORIENTED_EDGE('',*,*,#1120,.F.);
#1210 = ORIENTED_EDGE('',*,*,#1070,.F.);
#1211 = FACE_BOUND('',#1212,.T.);
#1212 = EDGE_LOOP('',(#1213));
#1213 = ORIENTED_EDGE('',*,*,#1135,.F.);
#1214 = PLANE('',#1215);
#1215 = AXIS2_PLACEMENT_3D('',#1216,#1217,#1218);
#1216 = CARTESIAN_POINT('',(6.,-42.01160950221,80.477199460536));
#1217 = DIRECTION('',(1.,0.,0.));
#1218 = DIRECTION('',(-0.,0.,1.));
#1219 = ADVANCED_FACE('',(#1220),#1226,.T.);
#1220 = FACE_BOUND('',#1221,.T.);
#1221 = EDGE_LOOP('',(#1222,#1223,#1224,#1225));
#1222 = ORIENTED_EDGE('',*,*,#827,.F.);
#1223 = ORIENTED_EDGE('',*,*,#567,.F.);
#1224 = ORIENTED_EDGE('',*,*,#1169,.T.);
#1225 = ORIENTED_EDGE('',*,*,#346,.F.);
#1226 = PLANE('',#1227);
#1227 = AXIS2_PLACEMENT_3D('',#1228,#1229,#1230);
#1228 = CARTESIAN_POINT('',(0.,-24.94946667405,74.266666666667));
#1229 = DIRECTION('',(-0.,-0.,-1.));
#1230 = DIRECTION('',(-1.,0.,0.));
#1231 = ADVANCED_FACE('',(#1232),#1238,.T.);
#1232 = FACE_BOUND('',#1233,.T.);
#1233 = EDGE_LOOP('',(#1234,#1235,#1236,#1237));
#1234 = ORIENTED_EDGE('',*,*,#842,.F.);
#1235 = ORIENTED_EDGE('',*,*,#718,.F.);
#1236 = ORIENTED_EDGE('',*,*,#1191,.T.);
#1237 = ORIENTED_EDGE('',*,*,#799,.F.);
#1238 = PLANE('',#1239);
#1239 = AXIS2_PLACEMENT_3D('',#1240,#1241,#1242);
#1240 = CARTESIAN_POINT('',(0.,-23.08659840588,75.626666666667));
#1241 = DIRECTION('',(0.,0.,1.));
#1242 = DIRECTION('',(1.,0.,-0.));
#1243 = ( GEOMETRIC_REPRESENTATION_CONTEXT(3) 
GLOBAL_UNCERTAINTY_ASSIGNED_CONTEXT((#1247)) 
GLOBAL_UNIT_ASSIGNED_CONTEXT((#1244,#1245,#1246)) REPRESENTATION_CONTEXT
('Context #1','3D Context with UNIT and UNCERTAINTY') );
#1244 = ( LENGTH_UNIT() NAMED_UNIT(*) SI_UNIT(.MILLI.,.METRE.) );
#1245 = ( NAMED_UNIT(*) PLANE_ANGLE_UNIT() SI_UNIT($,.RADIAN.) );
#1246 = ( NAMED_UNIT(*) SI_UNIT($,.STERADIAN.) SOLID_ANGLE_UNIT() );
#1247 = UNCERTAINTY_MEASURE_WITH_UNIT(LENGTH_MEASURE(2.E-07),#1244,
  'distance_accuracy_value','confusion accuracy');
#1248 = PRODUCT_RELATED_PRODUCT_CATEGORY('part',$,(#7));
ENDSEC;
END-ISO-10303-21;
