ISO-10303-21;
HEADER;
FILE_DESCRIPTION(('FreeCAD Model'),'2;1');
FILE_NAME('Open CASCADE Shape Model','2026-10-10T12:52:48',('FreeCAD'),(
    'FreeCAD'),'Open CASCADE STEP processor 7.8','FreeCAD','Unknown');
FILE_SCHEMA(('AUTOMOTIVE_DESIGN { 1 0 10303 214 1 1 1 1 }'));
ENDSEC;
DATA;
#1 = APPLICATION_PROTOCOL_DEFINITION('international standard',
  'automotive_design',2000,#2);
#2 = APPLICATION_CONTEXT(
  'core data for automotive mechanical design processes');
#3 = SHAPE_DEFINITION_REPRESENTATION(#4,#10);
#4 = PRODUCT_DEFINITION_SHAPE('','',#5);
#5 = PRODUCT_DEFINITION('design','',#6,#9);
#6 = PRODUCT_DEFINITION_FORMATION('','',#7);
#7 = PRODUCT('Open CASCADE STEP translator 7.8 15',
  'Open CASCADE STEP translator 7.8 15','',(#8));
#8 = PRODUCT_CONTEXT('',#2,'mechanical');
#9 = PRODUCT_DEFINITION_CONTEXT('part definition',#2,'design');
#10 = ADVANCED_BREP_SHAPE_REPRESENTATION('',(#11,#15),#1570);
#11 = AXIS2_PLACEMENT_3D('',#12,#13,#14);
#12 = CARTESIAN_POINT('',(0.,0.,0.));
#13 = DIRECTION('',(0.,0.,1.));
#14 = DIRECTION('',(1.,0.,-0.));
#15 = MANIFOLD_SOLID_BREP('',#16);
#16 = CLOSED_SHELL('',(#17,#57,#276,#307,#364,#395,#419,#443,#467,#498,
    #529,#554,#578,#609,#633,#657,#674,#706,#730,#754,#823,#848,#873,
    #898,#929,#960,#985,#1005,#1030,#1071,#1096,#1116,#1141,#1150,#1248,
    #1279,#1304,#1328,#1352,#1376,#1401,#1425,#1442,#1502,#1527,#1542,
    #1556));
#17 = ADVANCED_FACE('',(#18),#52,.F.);
#18 = FACE_BOUND('',#19,.F.);
#19 = EDGE_LOOP('',(#20,#30,#38,#46));
#20 = ORIENTED_EDGE('',*,*,#21,.F.);
#21 = EDGE_CURVE('',#22,#24,#26,.T.);
#22 = VERTEX_POINT('',#23);
#23 = CARTESIAN_POINT('',(67.1,-54.35899457832,-22.3));
#24 = VERTEX_POINT('',#25);
#25 = CARTESIAN_POINT('',(62.1,-54.35899457832,-22.3));
#26 = LINE('',#27,#28);
#27 = CARTESIAN_POINT('',(67.1,-54.35899457832,-22.3));
#28 = VECTOR('',#29,1.);
#29 = DIRECTION('',(-1.,0.,0.));
#30 = ORIENTED_EDGE('',*,*,#31,.T.);
#31 = EDGE_CURVE('',#22,#32,#34,.T.);
#32 = VERTEX_POINT('',#33);
#33 = CARTESIAN_POINT('',(67.1,54.358994578326,-22.3));
#34 = LINE('',#35,#36);
#35 = CARTESIAN_POINT('',(67.1,-54.35899457832,-22.3));
#36 = VECTOR('',#37,1.);
#37 = DIRECTION('',(0.,1.,0.));
#38 = ORIENTED_EDGE('',*,*,#39,.T.);
#39 = EDGE_CURVE('',#32,#40,#42,.T.);
#40 = VERTEX_POINT('',#41);
#41 = CARTESIAN_POINT('',(62.1,54.358994578326,-22.3));
#42 = LINE('',#43,#44);
#43 = CARTESIAN_POINT('',(67.1,54.358994578326,-22.3));
#44 = VECTOR('',#45,1.);
#45 = DIRECTION('',(-1.,0.,0.));
#46 = ORIENTED_EDGE('',*,*,#47,.F.);
#47 = EDGE_CURVE('',#24,#40,#48,.T.);
#48 = LINE('',#49,#50);
#49 = CARTESIAN_POINT('',(62.1,-54.35899457832,-22.3));
#50 = VECTOR('',#51,1.);
#51 = DIRECTION('',(0.,1.,0.));
#52 = PLANE('',#53);
#53 = AXIS2_PLACEMENT_3D('',#54,#55,#56);
#54 = CARTESIAN_POINT('',(67.1,-54.35899457832,-22.3));
#55 = DIRECTION('',(0.,0.,1.));
#56 = DIRECTION('',(-1.,0.,0.));
#57 = ADVANCED_FACE('',(#58,#147,#192,#226),#271,.T.);
#58 = FACE_BOUND('',#59,.T.);
#59 = EDGE_LOOP('',(#60,#68,#69,#77,#85,#93,#101,#109,#117,#125,#133,
    #141));
#60 = ORIENTED_EDGE('',*,*,#61,.F.);
#61 = EDGE_CURVE('',#40,#62,#64,.T.);
#62 = VERTEX_POINT('',#63);
#63 = CARTESIAN_POINT('',(62.1,54.358994578326,-7.));
#64 = LINE('',#65,#66);
#65 = CARTESIAN_POINT('',(62.1,54.358994578326,-22.3));
#66 = VECTOR('',#67,1.);
#67 = DIRECTION('',(0.,0.,1.));
#68 = ORIENTED_EDGE('',*,*,#47,.F.);
#69 = ORIENTED_EDGE('',*,*,#70,.T.);
#70 = EDGE_CURVE('',#24,#71,#73,.T.);
#71 = VERTEX_POINT('',#72);
#72 = CARTESIAN_POINT('',(62.1,-54.35899457832,-7.));
#73 = LINE('',#74,#75);
#74 = CARTESIAN_POINT('',(62.1,-54.35899457832,-22.3));
#75 = VECTOR('',#76,1.);
#76 = DIRECTION('',(0.,0.,1.));
#77 = ORIENTED_EDGE('',*,*,#78,.T.);
#78 = EDGE_CURVE('',#71,#79,#81,.T.);
#79 = VERTEX_POINT('',#80);
#80 = CARTESIAN_POINT('',(62.1,-48.35899457832,-7.));
#81 = LINE('',#82,#83);
#82 = CARTESIAN_POINT('',(62.1,-54.35899457832,-7.));
#83 = VECTOR('',#84,1.);
#84 = DIRECTION('',(0.,1.,-0.));
#85 = ORIENTED_EDGE('',*,*,#86,.F.);
#86 = EDGE_CURVE('',#87,#79,#89,.T.);
#87 = VERTEX_POINT('',#88);
#88 = CARTESIAN_POINT('',(62.1,-48.35899457832,7.));
#89 = LINE('',#90,#91);
#90 = CARTESIAN_POINT('',(62.1,-48.35899457832,-14.65));
#91 = VECTOR('',#92,1.);
#92 = DIRECTION('',(0.,0.,-1.));
#93 = ORIENTED_EDGE('',*,*,#94,.F.);
#94 = EDGE_CURVE('',#95,#87,#97,.T.);
#95 = VERTEX_POINT('',#96);
#96 = CARTESIAN_POINT('',(62.1,-54.35899457832,7.));
#97 = LINE('',#98,#99);
#98 = CARTESIAN_POINT('',(62.1,-54.35899457832,7.));
#99 = VECTOR('',#100,1.);
#100 = DIRECTION('',(0.,1.,-0.));
#101 = ORIENTED_EDGE('',*,*,#102,.T.);
#102 = EDGE_CURVE('',#95,#103,#105,.T.);
#103 = VERTEX_POINT('',#104);
#104 = CARTESIAN_POINT('',(62.1,-54.35899457832,11.4));
#105 = LINE('',#106,#107);
#106 = CARTESIAN_POINT('',(62.1,-54.35899457832,-22.3));
#107 = VECTOR('',#108,1.);
#108 = DIRECTION('',(0.,0.,1.));
#109 = ORIENTED_EDGE('',*,*,#110,.T.);
#110 = EDGE_CURVE('',#103,#111,#113,.T.);
#111 = VERTEX_POINT('',#112);
#112 = CARTESIAN_POINT('',(62.1,54.358994578326,11.4));
#113 = LINE('',#114,#115);
#114 = CARTESIAN_POINT('',(62.1,-54.35899457832,11.4));
#115 = VECTOR('',#116,1.);
#116 = DIRECTION('',(0.,1.,0.));
#117 = ORIENTED_EDGE('',*,*,#118,.F.);
#118 = EDGE_CURVE('',#119,#111,#121,.T.);
#119 = VERTEX_POINT('',#120);
#120 = CARTESIAN_POINT('',(62.1,54.358994578326,7.));
#121 = LINE('',#122,#123);
#122 = CARTESIAN_POINT('',(62.1,54.358994578326,-22.3));
#123 = VECTOR('',#124,1.);
#124 = DIRECTION('',(0.,0.,1.));
#125 = ORIENTED_EDGE('',*,*,#126,.F.);
#126 = EDGE_CURVE('',#127,#119,#129,.T.);
#127 = VERTEX_POINT('',#128);
#128 = CARTESIAN_POINT('',(62.1,48.358994578326,7.));
#129 = LINE('',#130,#131);
#130 = CARTESIAN_POINT('',(62.1,-3.,7.));
#131 = VECTOR('',#132,1.);
#132 = DIRECTION('',(0.,1.,-0.));
#133 = ORIENTED_EDGE('',*,*,#134,.T.);
#134 = EDGE_CURVE('',#127,#135,#137,.T.);
#135 = VERTEX_POINT('',#136);
#136 = CARTESIAN_POINT('',(62.1,48.358994578326,-7.));
#137 = LINE('',#138,#139);
#138 = CARTESIAN_POINT('',(62.1,48.358994578326,-14.65));
#139 = VECTOR('',#140,1.);
#140 = DIRECTION('',(0.,0.,-1.));
#141 = ORIENTED_EDGE('',*,*,#142,.T.);
#142 = EDGE_CURVE('',#135,#62,#143,.T.);
#143 = LINE('',#144,#145);
#144 = CARTESIAN_POINT('',(62.1,-3.,-7.));
#145 = VECTOR('',#146,1.);
#146 = DIRECTION('',(0.,1.,-0.));
#147 = FACE_BOUND('',#148,.T.);
#148 = EDGE_LOOP('',(#149,#160,#169,#177,#186));
#149 = ORIENTED_EDGE('',*,*,#150,.F.);
#150 = EDGE_CURVE('',#151,#153,#155,.T.);
#151 = VERTEX_POINT('',#152);
#152 = CARTESIAN_POINT('',(62.1,-2.081899558551E-16,-18.25));
#153 = VERTEX_POINT('',#154);
#154 = CARTESIAN_POINT('',(62.1,0.85,-19.1));
#155 = CIRCLE('',#156,0.85);
#156 = AXIS2_PLACEMENT_3D('',#157,#158,#159);
#157 = CARTESIAN_POINT('',(62.1,0.,-19.1));
#158 = DIRECTION('',(-1.,0.,0.));
#159 = DIRECTION('',(0.,0.,1.));
#160 = ORIENTED_EDGE('',*,*,#161,.F.);
#161 = EDGE_CURVE('',#162,#151,#164,.T.);
#162 = VERTEX_POINT('',#163);
#163 = CARTESIAN_POINT('',(62.1,-0.85,-19.1));
#164 = CIRCLE('',#165,0.85);
#165 = AXIS2_PLACEMENT_3D('',#166,#167,#168);
#166 = CARTESIAN_POINT('',(62.1,0.,-19.1));
#167 = DIRECTION('',(-1.,0.,0.));
#168 = DIRECTION('',(0.,0.,1.));
#169 = ORIENTED_EDGE('',*,*,#170,.T.);
#170 = EDGE_CURVE('',#162,#171,#173,.T.);
#171 = VERTEX_POINT('',#172);
#172 = CARTESIAN_POINT('',(62.1,-0.85,-19.3));
#173 = LINE('',#174,#175);
#174 = CARTESIAN_POINT('',(62.1,-0.85,-20.8));
#175 = VECTOR('',#176,1.);
#176 = DIRECTION('',(0.,0.,-1.));
#177 = ORIENTED_EDGE('',*,*,#178,.F.);
#178 = EDGE_CURVE('',#179,#171,#181,.T.);
#179 = VERTEX_POINT('',#180);
#180 = CARTESIAN_POINT('',(62.1,0.85,-19.3));
#181 = CIRCLE('',#182,0.85);
#182 = AXIS2_PLACEMENT_3D('',#183,#184,#185);
#183 = CARTESIAN_POINT('',(62.1,0.,-19.3));
#184 = DIRECTION('',(-1.,0.,0.));
#185 = DIRECTION('',(0.,0.,1.));
#186 = ORIENTED_EDGE('',*,*,#187,.F.);
#187 = EDGE_CURVE('',#153,#179,#188,.T.);
#188 = LINE('',#189,#190);
#189 = CARTESIAN_POINT('',(62.1,0.85,-20.8));
#190 = VECTOR('',#191,1.);
#191 = DIRECTION('',(0.,0.,-1.));
#192 = FACE_BOUND('',#193,.T.);
#193 = EDGE_LOOP('',(#194,#204,#212,#220));
#194 = ORIENTED_EDGE('',*,*,#195,.T.);
#195 = EDGE_CURVE('',#196,#198,#200,.T.);
#196 = VERTEX_POINT('',#197);
#197 = CARTESIAN_POINT('',(62.1,-6.4,6.3));
#198 = VERTEX_POINT('',#199);
#199 = CARTESIAN_POINT('',(62.1,-6.4,-17.2));
#200 = LINE('',#201,#202);
#201 = CARTESIAN_POINT('',(62.1,-6.4,-19.75));
#202 = VECTOR('',#203,1.);
#203 = DIRECTION('',(0.,0.,-1.));
#204 = ORIENTED_EDGE('',*,*,#205,.T.);
#205 = EDGE_CURVE('',#198,#206,#208,.T.);
#206 = VERTEX_POINT('',#207);
#207 = CARTESIAN_POINT('',(62.1,6.4,-17.2));
#208 = LINE('',#209,#210);
#209 = CARTESIAN_POINT('',(62.1,-30.37949728916,-17.2));
#210 = VECTOR('',#211,1.);
#211 = DIRECTION('',(0.,1.,-0.));
#212 = ORIENTED_EDGE('',*,*,#213,.F.);
#213 = EDGE_CURVE('',#214,#206,#216,.T.);
#214 = VERTEX_POINT('',#215);
#215 = CARTESIAN_POINT('',(62.1,6.4,6.3));
#216 = LINE('',#217,#218);
#217 = CARTESIAN_POINT('',(62.1,6.4,-19.75));
#218 = VECTOR('',#219,1.);
#219 = DIRECTION('',(0.,0.,-1.));
#220 = ORIENTED_EDGE('',*,*,#221,.F.);
#221 = EDGE_CURVE('',#196,#214,#222,.T.);
#222 = LINE('',#223,#224);
#223 = CARTESIAN_POINT('',(62.1,-30.37949728916,6.3));
#224 = VECTOR('',#225,1.);
#225 = DIRECTION('',(0.,1.,-0.));
#226 = FACE_BOUND('',#227,.T.);
#227 = EDGE_LOOP('',(#228,#239,#247,#256,#265));
#228 = ORIENTED_EDGE('',*,*,#229,.F.);
#229 = EDGE_CURVE('',#230,#232,#234,.T.);
#230 = VERTEX_POINT('',#231);
#231 = CARTESIAN_POINT('',(62.1,0.85,8.2));
#232 = VERTEX_POINT('',#233);
#233 = CARTESIAN_POINT('',(62.1,-0.85,8.2));
#234 = CIRCLE('',#235,0.85);
#235 = AXIS2_PLACEMENT_3D('',#236,#237,#238);
#236 = CARTESIAN_POINT('',(62.1,0.,8.2));
#237 = DIRECTION('',(-1.,0.,0.));
#238 = DIRECTION('',(0.,0.,1.));
#239 = ORIENTED_EDGE('',*,*,#240,.F.);
#240 = EDGE_CURVE('',#241,#230,#243,.T.);
#241 = VERTEX_POINT('',#242);
#242 = CARTESIAN_POINT('',(62.1,0.85,8.4));
#243 = LINE('',#244,#245);
#244 = CARTESIAN_POINT('',(62.1,0.85,-7.05));
#245 = VECTOR('',#246,1.);
#246 = DIRECTION('',(0.,0.,-1.));
#247 = ORIENTED_EDGE('',*,*,#248,.F.);
#248 = EDGE_CURVE('',#249,#241,#251,.T.);
#249 = VERTEX_POINT('',#250);
#250 = CARTESIAN_POINT('',(62.1,-2.08189955855E-16,9.25));
#251 = CIRCLE('',#252,0.85);
#252 = AXIS2_PLACEMENT_3D('',#253,#254,#255);
#253 = CARTESIAN_POINT('',(62.1,0.,8.4));
#254 = DIRECTION('',(-1.,0.,0.));
#255 = DIRECTION('',(0.,0.,1.));
#256 = ORIENTED_EDGE('',*,*,#257,.F.);
#257 = EDGE_CURVE('',#258,#249,#260,.T.);
#258 = VERTEX_POINT('',#259);
#259 = CARTESIAN_POINT('',(62.1,-0.85,8.4));
#260 = CIRCLE('',#261,0.85);
#261 = AXIS2_PLACEMENT_3D('',#262,#263,#264);
#262 = CARTESIAN_POINT('',(62.1,0.,8.4));
#263 = DIRECTION('',(-1.,0.,0.));
#264 = DIRECTION('',(0.,0.,1.));
#265 = ORIENTED_EDGE('',*,*,#266,.T.);
#266 = EDGE_CURVE('',#258,#232,#267,.T.);
#267 = LINE('',#268,#269);
#268 = CARTESIAN_POINT('',(62.1,-0.85,-7.05));
#269 = VECTOR('',#270,1.);
#270 = DIRECTION('',(0.,0.,-1.));
#271 = PLANE('',#272);
#272 = AXIS2_PLACEMENT_3D('',#273,#274,#275);
#273 = CARTESIAN_POINT('',(62.1,-54.35899457832,-22.3));
#274 = DIRECTION('',(-1.,0.,0.));
#275 = DIRECTION('',(0.,0.,1.));
#276 = ADVANCED_FACE('',(#277),#302,.F.);
#277 = FACE_BOUND('',#278,.F.);
#278 = EDGE_LOOP('',(#279,#289,#295,#296));
#279 = ORIENTED_EDGE('',*,*,#280,.T.);
#280 = EDGE_CURVE('',#281,#283,#285,.T.);
#281 = VERTEX_POINT('',#282);
#282 = CARTESIAN_POINT('',(-46.6,54.358994578326,-7.));
#283 = VERTEX_POINT('',#284);
#284 = CARTESIAN_POINT('',(-46.6,48.358994578326,-7.));
#285 = LINE('',#286,#287);
#286 = CARTESIAN_POINT('',(-46.6,-3.,-7.));
#287 = VECTOR('',#288,1.);
#288 = DIRECTION('',(0.,-1.,0.));
#289 = ORIENTED_EDGE('',*,*,#290,.T.);
#290 = EDGE_CURVE('',#283,#135,#291,.T.);
#291 = LINE('',#292,#293);
#292 = CARTESIAN_POINT('',(-52.6,48.358994578326,-7.));
#293 = VECTOR('',#294,1.);
#294 = DIRECTION('',(1.,0.,-0.));
#295 = ORIENTED_EDGE('',*,*,#142,.T.);
#296 = ORIENTED_EDGE('',*,*,#297,.F.);
#297 = EDGE_CURVE('',#281,#62,#298,.T.);
#298 = LINE('',#299,#300);
#299 = CARTESIAN_POINT('',(-52.6,54.358994578326,-7.));
#300 = VECTOR('',#301,1.);
#301 = DIRECTION('',(1.,0.,-0.));
#302 = PLANE('',#303);
#303 = AXIS2_PLACEMENT_3D('',#304,#305,#306);
#304 = CARTESIAN_POINT('',(-52.6,48.358994578326,-7.));
#305 = DIRECTION('',(0.,0.,1.));
#306 = DIRECTION('',(1.,0.,-0.));
#307 = ADVANCED_FACE('',(#308,#326,#337,#348),#359,.F.);
#308 = FACE_BOUND('',#309,.F.);
#309 = EDGE_LOOP('',(#310,#311,#319,#325));
#310 = ORIENTED_EDGE('',*,*,#290,.F.);
#311 = ORIENTED_EDGE('',*,*,#312,.T.);
#312 = EDGE_CURVE('',#283,#313,#315,.T.);
#313 = VERTEX_POINT('',#314);
#314 = CARTESIAN_POINT('',(-46.6,48.358994578326,7.));
#315 = LINE('',#316,#317);
#316 = CARTESIAN_POINT('',(-46.6,48.358994578326,-9.5));
#317 = VECTOR('',#318,1.);
#318 = DIRECTION('',(0.,0.,1.));
#319 = ORIENTED_EDGE('',*,*,#320,.T.);
#320 = EDGE_CURVE('',#313,#127,#321,.T.);
#321 = LINE('',#322,#323);
#322 = CARTESIAN_POINT('',(-52.6,48.358994578326,7.));
#323 = VECTOR('',#324,1.);
#324 = DIRECTION('',(1.,0.,-0.));
#325 = ORIENTED_EDGE('',*,*,#134,.T.);
#326 = FACE_BOUND('',#327,.F.);
#327 = EDGE_LOOP('',(#328));
#328 = ORIENTED_EDGE('',*,*,#329,.F.);
#329 = EDGE_CURVE('',#330,#330,#332,.T.);
#330 = VERTEX_POINT('',#331);
#331 = CARTESIAN_POINT('',(-18.5,48.358994578326,2.449293598295E-16));
#332 = CIRCLE('',#333,1.);
#333 = AXIS2_PLACEMENT_3D('',#334,#335,#336);
#334 = CARTESIAN_POINT('',(-19.5,48.358994578326,0.));
#335 = DIRECTION('',(-0.,1.,0.));
#336 = DIRECTION('',(1.,0.,0.));
#337 = FACE_BOUND('',#338,.F.);
#338 = EDGE_LOOP('',(#339));
#339 = ORIENTED_EDGE('',*,*,#340,.F.);
#340 = EDGE_CURVE('',#341,#341,#343,.T.);
#341 = VERTEX_POINT('',#342);
#342 = CARTESIAN_POINT('',(3.5,48.358994578326,8.572527594031E-16));
#343 = CIRCLE('',#344,3.5);
#344 = AXIS2_PLACEMENT_3D('',#345,#346,#347);
#345 = CARTESIAN_POINT('',(0.,48.358994578326,0.));
#346 = DIRECTION('',(-0.,1.,0.));
#347 = DIRECTION('',(1.,0.,0.));
#348 = FACE_BOUND('',#349,.F.);
#349 = EDGE_LOOP('',(#350));
#350 = ORIENTED_EDGE('',*,*,#351,.F.);
#351 = EDGE_CURVE('',#352,#352,#354,.T.);
#352 = VERTEX_POINT('',#353);
#353 = CARTESIAN_POINT('',(20.5,48.358994578326,2.449293598295E-16));
#354 = CIRCLE('',#355,1.);
#355 = AXIS2_PLACEMENT_3D('',#356,#357,#358);
#356 = CARTESIAN_POINT('',(19.5,48.358994578326,0.));
#357 = DIRECTION('',(-0.,1.,0.));
#358 = DIRECTION('',(1.,0.,0.));
#359 = PLANE('',#360);
#360 = AXIS2_PLACEMENT_3D('',#361,#362,#363);
#361 = CARTESIAN_POINT('',(-52.6,48.358994578326,-7.));
#362 = DIRECTION('',(-0.,1.,0.));
#363 = DIRECTION('',(0.,0.,1.));
#364 = ADVANCED_FACE('',(#365),#390,.F.);
#365 = FACE_BOUND('',#366,.F.);
#366 = EDGE_LOOP('',(#367,#377,#383,#384));
#367 = ORIENTED_EDGE('',*,*,#368,.T.);
#368 = EDGE_CURVE('',#369,#371,#373,.T.);
#369 = VERTEX_POINT('',#370);
#370 = CARTESIAN_POINT('',(-46.6,-48.35899457832,-7.));
#371 = VERTEX_POINT('',#372);
#372 = CARTESIAN_POINT('',(-46.6,-54.35899457832,-7.));
#373 = LINE('',#374,#375);
#374 = CARTESIAN_POINT('',(-46.6,-54.35899457832,-7.));
#375 = VECTOR('',#376,1.);
#376 = DIRECTION('',(0.,-1.,0.));
#377 = ORIENTED_EDGE('',*,*,#378,.T.);
#378 = EDGE_CURVE('',#371,#71,#379,.T.);
#379 = LINE('',#380,#381);
#380 = CARTESIAN_POINT('',(-52.6,-54.35899457832,-7.));
#381 = VECTOR('',#382,1.);
#382 = DIRECTION('',(1.,0.,-0.));
#383 = ORIENTED_EDGE('',*,*,#78,.T.);
#384 = ORIENTED_EDGE('',*,*,#385,.F.);
#385 = EDGE_CURVE('',#369,#79,#386,.T.);
#386 = LINE('',#387,#388);
#387 = CARTESIAN_POINT('',(-52.6,-48.35899457832,-7.));
#388 = VECTOR('',#389,1.);
#389 = DIRECTION('',(1.,0.,-0.));
#390 = PLANE('',#391);
#391 = AXIS2_PLACEMENT_3D('',#392,#393,#394);
#392 = CARTESIAN_POINT('',(-52.6,-54.35899457832,-7.));
#393 = DIRECTION('',(0.,0.,1.));
#394 = DIRECTION('',(1.,0.,-0.));
#395 = ADVANCED_FACE('',(#396),#414,.T.);
#396 = FACE_BOUND('',#397,.T.);
#397 = EDGE_LOOP('',(#398,#406,#407,#408));
#398 = ORIENTED_EDGE('',*,*,#399,.T.);
#399 = EDGE_CURVE('',#400,#313,#402,.T.);
#400 = VERTEX_POINT('',#401);
#401 = CARTESIAN_POINT('',(-46.6,54.358994578326,7.));
#402 = LINE('',#403,#404);
#403 = CARTESIAN_POINT('',(-46.6,-3.,7.));
#404 = VECTOR('',#405,1.);
#405 = DIRECTION('',(0.,-1.,0.));
#406 = ORIENTED_EDGE('',*,*,#320,.T.);
#407 = ORIENTED_EDGE('',*,*,#126,.T.);
#408 = ORIENTED_EDGE('',*,*,#409,.F.);
#409 = EDGE_CURVE('',#400,#119,#410,.T.);
#410 = LINE('',#411,#412);
#411 = CARTESIAN_POINT('',(-52.6,54.358994578326,7.));
#412 = VECTOR('',#413,1.);
#413 = DIRECTION('',(1.,0.,-0.));
#414 = PLANE('',#415);
#415 = AXIS2_PLACEMENT_3D('',#416,#417,#418);
#416 = CARTESIAN_POINT('',(-52.6,48.358994578326,7.));
#417 = DIRECTION('',(0.,0.,1.));
#418 = DIRECTION('',(1.,0.,-0.));
#419 = ADVANCED_FACE('',(#420),#438,.T.);
#420 = FACE_BOUND('',#421,.T.);
#421 = EDGE_LOOP('',(#422,#423,#431,#437));
#422 = ORIENTED_EDGE('',*,*,#385,.F.);
#423 = ORIENTED_EDGE('',*,*,#424,.T.);
#424 = EDGE_CURVE('',#369,#425,#427,.T.);
#425 = VERTEX_POINT('',#426);
#426 = CARTESIAN_POINT('',(-46.6,-48.35899457832,7.));
#427 = LINE('',#428,#429);
#428 = CARTESIAN_POINT('',(-46.6,-48.35899457832,-9.5));
#429 = VECTOR('',#430,1.);
#430 = DIRECTION('',(0.,0.,1.));
#431 = ORIENTED_EDGE('',*,*,#432,.T.);
#432 = EDGE_CURVE('',#425,#87,#433,.T.);
#433 = LINE('',#434,#435);
#434 = CARTESIAN_POINT('',(-52.6,-48.35899457832,7.));
#435 = VECTOR('',#436,1.);
#436 = DIRECTION('',(1.,0.,-0.));
#437 = ORIENTED_EDGE('',*,*,#86,.T.);
#438 = PLANE('',#439);
#439 = AXIS2_PLACEMENT_3D('',#440,#441,#442);
#440 = CARTESIAN_POINT('',(-52.6,-48.35899457832,-7.));
#441 = DIRECTION('',(-0.,1.,0.));
#442 = DIRECTION('',(0.,0.,1.));
#443 = ADVANCED_FACE('',(#444),#462,.T.);
#444 = FACE_BOUND('',#445,.T.);
#445 = EDGE_LOOP('',(#446,#454,#460,#461));
#446 = ORIENTED_EDGE('',*,*,#447,.T.);
#447 = EDGE_CURVE('',#425,#448,#450,.T.);
#448 = VERTEX_POINT('',#449);
#449 = CARTESIAN_POINT('',(-46.6,-54.35899457832,7.));
#450 = LINE('',#451,#452);
#451 = CARTESIAN_POINT('',(-46.6,-54.35899457832,7.));
#452 = VECTOR('',#453,1.);
#453 = DIRECTION('',(0.,-1.,0.));
#454 = ORIENTED_EDGE('',*,*,#455,.T.);
#455 = EDGE_CURVE('',#448,#95,#456,.T.);
#456 = LINE('',#457,#458);
#457 = CARTESIAN_POINT('',(-52.6,-54.35899457832,7.));
#458 = VECTOR('',#459,1.);
#459 = DIRECTION('',(1.,0.,-0.));
#460 = ORIENTED_EDGE('',*,*,#94,.T.);
#461 = ORIENTED_EDGE('',*,*,#432,.F.);
#462 = PLANE('',#463);
#463 = AXIS2_PLACEMENT_3D('',#464,#465,#466);
#464 = CARTESIAN_POINT('',(-52.6,-54.35899457832,7.));
#465 = DIRECTION('',(0.,0.,1.));
#466 = DIRECTION('',(1.,0.,-0.));
#467 = ADVANCED_FACE('',(#468),#493,.T.);
#468 = FACE_BOUND('',#469,.T.);
#469 = EDGE_LOOP('',(#470,#478,#486,#492));
#470 = ORIENTED_EDGE('',*,*,#471,.F.);
#471 = EDGE_CURVE('',#472,#103,#474,.T.);
#472 = VERTEX_POINT('',#473);
#473 = CARTESIAN_POINT('',(67.1,-54.35899457832,11.4));
#474 = LINE('',#475,#476);
#475 = CARTESIAN_POINT('',(67.1,-54.35899457832,11.4));
#476 = VECTOR('',#477,1.);
#477 = DIRECTION('',(-1.,0.,0.));
#478 = ORIENTED_EDGE('',*,*,#479,.T.);
#479 = EDGE_CURVE('',#472,#480,#482,.T.);
#480 = VERTEX_POINT('',#481);
#481 = CARTESIAN_POINT('',(67.1,54.358994578326,11.4));
#482 = LINE('',#483,#484);
#483 = CARTESIAN_POINT('',(67.1,-54.35899457832,11.4));
#484 = VECTOR('',#485,1.);
#485 = DIRECTION('',(0.,1.,0.));
#486 = ORIENTED_EDGE('',*,*,#487,.T.);
#487 = EDGE_CURVE('',#480,#111,#488,.T.);
#488 = LINE('',#489,#490);
#489 = CARTESIAN_POINT('',(67.1,54.358994578326,11.4));
#490 = VECTOR('',#491,1.);
#491 = DIRECTION('',(-1.,0.,0.));
#492 = ORIENTED_EDGE('',*,*,#110,.F.);
#493 = PLANE('',#494);
#494 = AXIS2_PLACEMENT_3D('',#495,#496,#497);
#495 = CARTESIAN_POINT('',(67.1,-54.35899457832,11.4));
#496 = DIRECTION('',(0.,0.,1.));
#497 = DIRECTION('',(-1.,0.,0.));
#498 = ADVANCED_FACE('',(#499),#524,.F.);
#499 = FACE_BOUND('',#500,.F.);
#500 = EDGE_LOOP('',(#501,#511,#517,#518));
#501 = ORIENTED_EDGE('',*,*,#502,.T.);
#502 = EDGE_CURVE('',#503,#505,#507,.T.);
#503 = VERTEX_POINT('',#504);
#504 = CARTESIAN_POINT('',(67.1,0.85,-19.1));
#505 = VERTEX_POINT('',#506);
#506 = CARTESIAN_POINT('',(67.1,0.85,-19.3));
#507 = LINE('',#508,#509);
#508 = CARTESIAN_POINT('',(67.1,0.85,-20.8));
#509 = VECTOR('',#510,1.);
#510 = DIRECTION('',(0.,0.,-1.));
#511 = ORIENTED_EDGE('',*,*,#512,.T.);
#512 = EDGE_CURVE('',#505,#179,#513,.T.);
#513 = LINE('',#514,#515);
#514 = CARTESIAN_POINT('',(68.1,0.85,-19.3));
#515 = VECTOR('',#516,1.);
#516 = DIRECTION('',(-1.,0.,0.));
#517 = ORIENTED_EDGE('',*,*,#187,.F.);
#518 = ORIENTED_EDGE('',*,*,#519,.F.);
#519 = EDGE_CURVE('',#503,#153,#520,.T.);
#520 = LINE('',#521,#522);
#521 = CARTESIAN_POINT('',(68.1,0.85,-19.1));
#522 = VECTOR('',#523,1.);
#523 = DIRECTION('',(-1.,0.,0.));
#524 = PLANE('',#525);
#525 = AXIS2_PLACEMENT_3D('',#526,#527,#528);
#526 = CARTESIAN_POINT('',(68.1,0.85,-19.3));
#527 = DIRECTION('',(0.,1.,0.));
#528 = DIRECTION('',(-1.,0.,0.));
#529 = ADVANCED_FACE('',(#530),#549,.F.);
#530 = FACE_BOUND('',#531,.F.);
#531 = EDGE_LOOP('',(#532,#533,#534,#543));
#532 = ORIENTED_EDGE('',*,*,#178,.F.);
#533 = ORIENTED_EDGE('',*,*,#512,.F.);
#534 = ORIENTED_EDGE('',*,*,#535,.T.);
#535 = EDGE_CURVE('',#505,#536,#538,.T.);
#536 = VERTEX_POINT('',#537);
#537 = CARTESIAN_POINT('',(67.1,-0.85,-19.3));
#538 = CIRCLE('',#539,0.85);
#539 = AXIS2_PLACEMENT_3D('',#540,#541,#542);
#540 = CARTESIAN_POINT('',(67.1,0.,-19.3));
#541 = DIRECTION('',(-1.,0.,0.));
#542 = DIRECTION('',(0.,0.,1.));
#543 = ORIENTED_EDGE('',*,*,#544,.T.);
#544 = EDGE_CURVE('',#536,#171,#545,.T.);
#545 = LINE('',#546,#547);
#546 = CARTESIAN_POINT('',(68.1,-0.85,-19.3));
#547 = VECTOR('',#548,1.);
#548 = DIRECTION('',(-1.,0.,0.));
#549 = CYLINDRICAL_SURFACE('',#550,0.85);
#550 = AXIS2_PLACEMENT_3D('',#551,#552,#553);
#551 = CARTESIAN_POINT('',(68.1,0.,-19.3));
#552 = DIRECTION('',(-1.,0.,0.));
#553 = DIRECTION('',(0.,0.,1.));
#554 = ADVANCED_FACE('',(#555),#573,.T.);
#555 = FACE_BOUND('',#556,.T.);
#556 = EDGE_LOOP('',(#557,#565,#566,#567));
#557 = ORIENTED_EDGE('',*,*,#558,.T.);
#558 = EDGE_CURVE('',#559,#536,#561,.T.);
#559 = VERTEX_POINT('',#560);
#560 = CARTESIAN_POINT('',(67.1,-0.85,-19.1));
#561 = LINE('',#562,#563);
#562 = CARTESIAN_POINT('',(67.1,-0.85,-20.8));
#563 = VECTOR('',#564,1.);
#564 = DIRECTION('',(0.,0.,-1.));
#565 = ORIENTED_EDGE('',*,*,#544,.T.);
#566 = ORIENTED_EDGE('',*,*,#170,.F.);
#567 = ORIENTED_EDGE('',*,*,#568,.F.);
#568 = EDGE_CURVE('',#559,#162,#569,.T.);
#569 = LINE('',#570,#571);
#570 = CARTESIAN_POINT('',(68.1,-0.85,-19.1));
#571 = VECTOR('',#572,1.);
#572 = DIRECTION('',(-1.,0.,0.));
#573 = PLANE('',#574);
#574 = AXIS2_PLACEMENT_3D('',#575,#576,#577);
#575 = CARTESIAN_POINT('',(68.1,-0.85,-19.3));
#576 = DIRECTION('',(0.,1.,0.));
#577 = DIRECTION('',(-1.,0.,0.));
#578 = ADVANCED_FACE('',(#579),#604,.T.);
#579 = FACE_BOUND('',#580,.T.);
#580 = EDGE_LOOP('',(#581,#589,#597,#603));
#581 = ORIENTED_EDGE('',*,*,#582,.F.);
#582 = EDGE_CURVE('',#583,#196,#585,.T.);
#583 = VERTEX_POINT('',#584);
#584 = CARTESIAN_POINT('',(67.1,-6.4,6.3));
#585 = LINE('',#586,#587);
#586 = CARTESIAN_POINT('',(68.1,-6.4,6.3));
#587 = VECTOR('',#588,1.);
#588 = DIRECTION('',(-1.,0.,0.));
#589 = ORIENTED_EDGE('',*,*,#590,.T.);
#590 = EDGE_CURVE('',#583,#591,#593,.T.);
#591 = VERTEX_POINT('',#592);
#592 = CARTESIAN_POINT('',(67.1,-6.4,-17.2));
#593 = LINE('',#594,#595);
#594 = CARTESIAN_POINT('',(67.1,-6.4,-19.75));
#595 = VECTOR('',#596,1.);
#596 = DIRECTION('',(0.,0.,-1.));
#597 = ORIENTED_EDGE('',*,*,#598,.T.);
#598 = EDGE_CURVE('',#591,#198,#599,.T.);
#599 = LINE('',#600,#601);
#600 = CARTESIAN_POINT('',(68.1,-6.4,-17.2));
#601 = VECTOR('',#602,1.);
#602 = DIRECTION('',(-1.,0.,0.));
#603 = ORIENTED_EDGE('',*,*,#195,.F.);
#604 = PLANE('',#605);
#605 = AXIS2_PLACEMENT_3D('',#606,#607,#608);
#606 = CARTESIAN_POINT('',(68.1,-6.4,-17.2));
#607 = DIRECTION('',(0.,1.,0.));
#608 = DIRECTION('',(-1.,0.,0.));
#609 = ADVANCED_FACE('',(#610),#628,.F.);
#610 = FACE_BOUND('',#611,.F.);
#611 = EDGE_LOOP('',(#612,#613,#621,#627));
#612 = ORIENTED_EDGE('',*,*,#582,.F.);
#613 = ORIENTED_EDGE('',*,*,#614,.T.);
#614 = EDGE_CURVE('',#583,#615,#617,.T.);
#615 = VERTEX_POINT('',#616);
#616 = CARTESIAN_POINT('',(67.1,6.4,6.3));
#617 = LINE('',#618,#619);
#618 = CARTESIAN_POINT('',(67.1,-30.37949728916,6.3));
#619 = VECTOR('',#620,1.);
#620 = DIRECTION('',(0.,1.,-0.));
#621 = ORIENTED_EDGE('',*,*,#622,.T.);
#622 = EDGE_CURVE('',#615,#214,#623,.T.);
#623 = LINE('',#624,#625);
#624 = CARTESIAN_POINT('',(68.1,6.4,6.3));
#625 = VECTOR('',#626,1.);
#626 = DIRECTION('',(-1.,0.,0.));
#627 = ORIENTED_EDGE('',*,*,#221,.F.);
#628 = PLANE('',#629);
#629 = AXIS2_PLACEMENT_3D('',#630,#631,#632);
#630 = CARTESIAN_POINT('',(68.1,-6.4,6.3));
#631 = DIRECTION('',(0.,0.,1.));
#632 = DIRECTION('',(-1.,0.,0.));
#633 = ADVANCED_FACE('',(#634),#652,.F.);
#634 = FACE_BOUND('',#635,.F.);
#635 = EDGE_LOOP('',(#636,#637,#645,#651));
#636 = ORIENTED_EDGE('',*,*,#622,.F.);
#637 = ORIENTED_EDGE('',*,*,#638,.T.);
#638 = EDGE_CURVE('',#615,#639,#641,.T.);
#639 = VERTEX_POINT('',#640);
#640 = CARTESIAN_POINT('',(67.1,6.4,-17.2));
#641 = LINE('',#642,#643);
#642 = CARTESIAN_POINT('',(67.1,6.4,-19.75));
#643 = VECTOR('',#644,1.);
#644 = DIRECTION('',(0.,0.,-1.));
#645 = ORIENTED_EDGE('',*,*,#646,.T.);
#646 = EDGE_CURVE('',#639,#206,#647,.T.);
#647 = LINE('',#648,#649);
#648 = CARTESIAN_POINT('',(68.1,6.4,-17.2));
#649 = VECTOR('',#650,1.);
#650 = DIRECTION('',(-1.,0.,0.));
#651 = ORIENTED_EDGE('',*,*,#213,.F.);
#652 = PLANE('',#653);
#653 = AXIS2_PLACEMENT_3D('',#654,#655,#656);
#654 = CARTESIAN_POINT('',(68.1,6.4,-17.2));
#655 = DIRECTION('',(0.,1.,0.));
#656 = DIRECTION('',(-1.,0.,0.));
#657 = ADVANCED_FACE('',(#658),#669,.T.);
#658 = FACE_BOUND('',#659,.T.);
#659 = EDGE_LOOP('',(#660,#661,#667,#668));
#660 = ORIENTED_EDGE('',*,*,#598,.F.);
#661 = ORIENTED_EDGE('',*,*,#662,.T.);
#662 = EDGE_CURVE('',#591,#639,#663,.T.);
#663 = LINE('',#664,#665);
#664 = CARTESIAN_POINT('',(67.1,-30.37949728916,-17.2));
#665 = VECTOR('',#666,1.);
#666 = DIRECTION('',(0.,1.,-0.));
#667 = ORIENTED_EDGE('',*,*,#646,.T.);
#668 = ORIENTED_EDGE('',*,*,#205,.F.);
#669 = PLANE('',#670);
#670 = AXIS2_PLACEMENT_3D('',#671,#672,#673);
#671 = CARTESIAN_POINT('',(68.1,-6.4,-17.2));
#672 = DIRECTION('',(0.,0.,1.));
#673 = DIRECTION('',(-1.,0.,0.));
#674 = ADVANCED_FACE('',(#675),#701,.F.);
#675 = FACE_BOUND('',#676,.F.);
#676 = EDGE_LOOP('',(#677,#678,#686,#695));
#677 = ORIENTED_EDGE('',*,*,#229,.F.);
#678 = ORIENTED_EDGE('',*,*,#679,.F.);
#679 = EDGE_CURVE('',#680,#230,#682,.T.);
#680 = VERTEX_POINT('',#681);
#681 = CARTESIAN_POINT('',(67.1,0.85,8.2));
#682 = LINE('',#683,#684);
#683 = CARTESIAN_POINT('',(68.1,0.85,8.2));
#684 = VECTOR('',#685,1.);
#685 = DIRECTION('',(-1.,0.,0.));
#686 = ORIENTED_EDGE('',*,*,#687,.T.);
#687 = EDGE_CURVE('',#680,#688,#690,.T.);
#688 = VERTEX_POINT('',#689);
#689 = CARTESIAN_POINT('',(67.1,-0.85,8.2));
#690 = CIRCLE('',#691,0.85);
#691 = AXIS2_PLACEMENT_3D('',#692,#693,#694);
#692 = CARTESIAN_POINT('',(67.1,0.,8.2));
#693 = DIRECTION('',(-1.,0.,0.));
#694 = DIRECTION('',(0.,0.,1.));
#695 = ORIENTED_EDGE('',*,*,#696,.T.);
#696 = EDGE_CURVE('',#688,#232,#697,.T.);
#697 = LINE('',#698,#699);
#698 = CARTESIAN_POINT('',(68.1,-0.85,8.2));
#699 = VECTOR('',#700,1.);
#700 = DIRECTION('',(-1.,0.,0.));
#701 = CYLINDRICAL_SURFACE('',#702,0.85);
#702 = AXIS2_PLACEMENT_3D('',#703,#704,#705);
#703 = CARTESIAN_POINT('',(68.1,0.,8.2));
#704 = DIRECTION('',(-1.,0.,0.));
#705 = DIRECTION('',(0.,0.,1.));
#706 = ADVANCED_FACE('',(#707),#725,.T.);
#707 = FACE_BOUND('',#708,.T.);
#708 = EDGE_LOOP('',(#709,#717,#718,#719));
#709 = ORIENTED_EDGE('',*,*,#710,.T.);
#710 = EDGE_CURVE('',#711,#688,#713,.T.);
#711 = VERTEX_POINT('',#712);
#712 = CARTESIAN_POINT('',(67.1,-0.85,8.4));
#713 = LINE('',#714,#715);
#714 = CARTESIAN_POINT('',(67.1,-0.85,-7.05));
#715 = VECTOR('',#716,1.);
#716 = DIRECTION('',(0.,0.,-1.));
#717 = ORIENTED_EDGE('',*,*,#696,.T.);
#718 = ORIENTED_EDGE('',*,*,#266,.F.);
#719 = ORIENTED_EDGE('',*,*,#720,.F.);
#720 = EDGE_CURVE('',#711,#258,#721,.T.);
#721 = LINE('',#722,#723);
#722 = CARTESIAN_POINT('',(68.1,-0.85,8.4));
#723 = VECTOR('',#724,1.);
#724 = DIRECTION('',(-1.,0.,0.));
#725 = PLANE('',#726);
#726 = AXIS2_PLACEMENT_3D('',#727,#728,#729);
#727 = CARTESIAN_POINT('',(68.1,-0.85,8.2));
#728 = DIRECTION('',(0.,1.,0.));
#729 = DIRECTION('',(-1.,0.,0.));
#730 = ADVANCED_FACE('',(#731),#749,.F.);
#731 = FACE_BOUND('',#732,.F.);
#732 = EDGE_LOOP('',(#733,#741,#742,#743));
#733 = ORIENTED_EDGE('',*,*,#734,.T.);
#734 = EDGE_CURVE('',#735,#680,#737,.T.);
#735 = VERTEX_POINT('',#736);
#736 = CARTESIAN_POINT('',(67.1,0.85,8.4));
#737 = LINE('',#738,#739);
#738 = CARTESIAN_POINT('',(67.1,0.85,-7.05));
#739 = VECTOR('',#740,1.);
#740 = DIRECTION('',(0.,0.,-1.));
#741 = ORIENTED_EDGE('',*,*,#679,.T.);
#742 = ORIENTED_EDGE('',*,*,#240,.F.);
#743 = ORIENTED_EDGE('',*,*,#744,.F.);
#744 = EDGE_CURVE('',#735,#241,#745,.T.);
#745 = LINE('',#746,#747);
#746 = CARTESIAN_POINT('',(68.1,0.85,8.4));
#747 = VECTOR('',#748,1.);
#748 = DIRECTION('',(-1.,0.,0.));
#749 = PLANE('',#750);
#750 = AXIS2_PLACEMENT_3D('',#751,#752,#753);
#751 = CARTESIAN_POINT('',(68.1,0.85,8.2));
#752 = DIRECTION('',(0.,1.,0.));
#753 = DIRECTION('',(-1.,0.,0.));
#754 = ADVANCED_FACE('',(#755,#807),#818,.T.);
#755 = FACE_BOUND('',#756,.T.);
#756 = EDGE_LOOP('',(#757,#765,#773,#779,#780,#781,#782,#790,#798,#804,
    #805,#806));
#757 = ORIENTED_EDGE('',*,*,#758,.F.);
#758 = EDGE_CURVE('',#759,#371,#761,.T.);
#759 = VERTEX_POINT('',#760);
#760 = CARTESIAN_POINT('',(-46.6,-54.35899457832,-12.));
#761 = LINE('',#762,#763);
#762 = CARTESIAN_POINT('',(-46.6,-54.35899457832,-12.));
#763 = VECTOR('',#764,1.);
#764 = DIRECTION('',(0.,0.,1.));
#765 = ORIENTED_EDGE('',*,*,#766,.T.);
#766 = EDGE_CURVE('',#759,#767,#769,.T.);
#767 = VERTEX_POINT('',#768);
#768 = CARTESIAN_POINT('',(-46.6,54.358994578326,-12.));
#769 = LINE('',#770,#771);
#770 = CARTESIAN_POINT('',(-46.6,-54.35899457832,-12.));
#771 = VECTOR('',#772,1.);
#772 = DIRECTION('',(-0.,1.,0.));
#773 = ORIENTED_EDGE('',*,*,#774,.T.);
#774 = EDGE_CURVE('',#767,#281,#775,.T.);
#775 = LINE('',#776,#777);
#776 = CARTESIAN_POINT('',(-46.6,54.358994578326,-12.));
#777 = VECTOR('',#778,1.);
#778 = DIRECTION('',(0.,0.,1.));
#779 = ORIENTED_EDGE('',*,*,#280,.T.);
#780 = ORIENTED_EDGE('',*,*,#312,.T.);
#781 = ORIENTED_EDGE('',*,*,#399,.F.);
#782 = ORIENTED_EDGE('',*,*,#783,.T.);
#783 = EDGE_CURVE('',#400,#784,#786,.T.);
#784 = VERTEX_POINT('',#785);
#785 = CARTESIAN_POINT('',(-46.6,54.358994578326,12.));
#786 = LINE('',#787,#788);
#787 = CARTESIAN_POINT('',(-46.6,54.358994578326,-12.));
#788 = VECTOR('',#789,1.);
#789 = DIRECTION('',(0.,0.,1.));
#790 = ORIENTED_EDGE('',*,*,#791,.F.);
#791 = EDGE_CURVE('',#792,#784,#794,.T.);
#792 = VERTEX_POINT('',#793);
#793 = CARTESIAN_POINT('',(-46.6,-54.35899457832,12.));
#794 = LINE('',#795,#796);
#795 = CARTESIAN_POINT('',(-46.6,-54.35899457832,12.));
#796 = VECTOR('',#797,1.);
#797 = DIRECTION('',(-0.,1.,0.));
#798 = ORIENTED_EDGE('',*,*,#799,.F.);
#799 = EDGE_CURVE('',#448,#792,#800,.T.);
#800 = LINE('',#801,#802);
#801 = CARTESIAN_POINT('',(-46.6,-54.35899457832,-12.));
#802 = VECTOR('',#803,1.);
#803 = DIRECTION('',(0.,0.,1.));
#804 = ORIENTED_EDGE('',*,*,#447,.F.);
#805 = ORIENTED_EDGE('',*,*,#424,.F.);
#806 = ORIENTED_EDGE('',*,*,#368,.T.);
#807 = FACE_BOUND('',#808,.T.);
#808 = EDGE_LOOP('',(#809));
#809 = ORIENTED_EDGE('',*,*,#810,.T.);
#810 = EDGE_CURVE('',#811,#811,#813,.T.);
#811 = VERTEX_POINT('',#812);
#812 = CARTESIAN_POINT('',(-46.6,7.960204194458E-16,-3.25));
#813 = CIRCLE('',#814,3.25);
#814 = AXIS2_PLACEMENT_3D('',#815,#816,#817);
#815 = CARTESIAN_POINT('',(-46.6,0.,0.));
#816 = DIRECTION('',(-1.,0.,0.));
#817 = DIRECTION('',(0.,0.,-1.));
#818 = PLANE('',#819);
#819 = AXIS2_PLACEMENT_3D('',#820,#821,#822);
#820 = CARTESIAN_POINT('',(-46.6,-54.35899457832,-12.));
#821 = DIRECTION('',(1.,0.,-0.));
#822 = DIRECTION('',(0.,0.,1.));
#823 = ADVANCED_FACE('',(#824),#843,.F.);
#824 = FACE_BOUND('',#825,.F.);
#825 = EDGE_LOOP('',(#826,#834,#841,#842));
#826 = ORIENTED_EDGE('',*,*,#827,.T.);
#827 = EDGE_CURVE('',#330,#828,#830,.T.);
#828 = VERTEX_POINT('',#829);
#829 = CARTESIAN_POINT('',(-18.5,51.858994578326,2.449293598295E-16));
#830 = LINE('',#831,#832);
#831 = CARTESIAN_POINT('',(-18.5,46.868994578326,2.449293598295E-16));
#832 = VECTOR('',#833,1.);
#833 = DIRECTION('',(0.,1.,0.));
#834 = ORIENTED_EDGE('',*,*,#835,.F.);
#835 = EDGE_CURVE('',#828,#828,#836,.T.);
#836 = CIRCLE('',#837,1.);
#837 = AXIS2_PLACEMENT_3D('',#838,#839,#840);
#838 = CARTESIAN_POINT('',(-19.5,51.858994578326,0.));
#839 = DIRECTION('',(-0.,1.,0.));
#840 = DIRECTION('',(1.,0.,0.));
#841 = ORIENTED_EDGE('',*,*,#827,.F.);
#842 = ORIENTED_EDGE('',*,*,#329,.T.);
#843 = CYLINDRICAL_SURFACE('',#844,1.);
#844 = AXIS2_PLACEMENT_3D('',#845,#846,#847);
#845 = CARTESIAN_POINT('',(-19.5,46.868994578326,0.));
#846 = DIRECTION('',(0.,1.,0.));
#847 = DIRECTION('',(1.,0.,0.));
#848 = ADVANCED_FACE('',(#849),#868,.F.);
#849 = FACE_BOUND('',#850,.F.);
#850 = EDGE_LOOP('',(#851,#859,#866,#867));
#851 = ORIENTED_EDGE('',*,*,#852,.T.);
#852 = EDGE_CURVE('',#341,#853,#855,.T.);
#853 = VERTEX_POINT('',#854);
#854 = CARTESIAN_POINT('',(3.5,51.858994578326,8.572527594031E-16));
#855 = LINE('',#856,#857);
#856 = CARTESIAN_POINT('',(3.5,46.358994578326,8.572527594031E-16));
#857 = VECTOR('',#858,1.);
#858 = DIRECTION('',(0.,1.,0.));
#859 = ORIENTED_EDGE('',*,*,#860,.F.);
#860 = EDGE_CURVE('',#853,#853,#861,.T.);
#861 = CIRCLE('',#862,3.5);
#862 = AXIS2_PLACEMENT_3D('',#863,#864,#865);
#863 = CARTESIAN_POINT('',(0.,51.858994578326,0.));
#864 = DIRECTION('',(-0.,1.,0.));
#865 = DIRECTION('',(1.,0.,0.));
#866 = ORIENTED_EDGE('',*,*,#852,.F.);
#867 = ORIENTED_EDGE('',*,*,#340,.T.);
#868 = CYLINDRICAL_SURFACE('',#869,3.5);
#869 = AXIS2_PLACEMENT_3D('',#870,#871,#872);
#870 = CARTESIAN_POINT('',(0.,46.358994578326,0.));
#871 = DIRECTION('',(0.,1.,0.));
#872 = DIRECTION('',(1.,0.,0.));
#873 = ADVANCED_FACE('',(#874),#893,.F.);
#874 = FACE_BOUND('',#875,.F.);
#875 = EDGE_LOOP('',(#876,#884,#891,#892));
#876 = ORIENTED_EDGE('',*,*,#877,.T.);
#877 = EDGE_CURVE('',#352,#878,#880,.T.);
#878 = VERTEX_POINT('',#879);
#879 = CARTESIAN_POINT('',(20.5,51.858994578326,2.449293598295E-16));
#880 = LINE('',#881,#882);
#881 = CARTESIAN_POINT('',(20.5,46.868994578326,2.449293598295E-16));
#882 = VECTOR('',#883,1.);
#883 = DIRECTION('',(0.,1.,0.));
#884 = ORIENTED_EDGE('',*,*,#885,.F.);
#885 = EDGE_CURVE('',#878,#878,#886,.T.);
#886 = CIRCLE('',#887,1.);
#887 = AXIS2_PLACEMENT_3D('',#888,#889,#890);
#888 = CARTESIAN_POINT('',(19.5,51.858994578326,0.));
#889 = DIRECTION('',(-0.,1.,0.));
#890 = DIRECTION('',(1.,0.,0.));
#891 = ORIENTED_EDGE('',*,*,#877,.F.);
#892 = ORIENTED_EDGE('',*,*,#351,.T.);
#893 = CYLINDRICAL_SURFACE('',#894,1.);
#894 = AXIS2_PLACEMENT_3D('',#895,#896,#897);
#895 = CARTESIAN_POINT('',(19.5,46.868994578326,0.));
#896 = DIRECTION('',(0.,1.,0.));
#897 = DIRECTION('',(1.,0.,0.));
#898 = ADVANCED_FACE('',(#899),#924,.F.);
#899 = FACE_BOUND('',#900,.F.);
#900 = EDGE_LOOP('',(#901,#911,#917,#918));
#901 = ORIENTED_EDGE('',*,*,#902,.F.);
#902 = EDGE_CURVE('',#903,#905,#907,.T.);
#903 = VERTEX_POINT('',#904);
#904 = CARTESIAN_POINT('',(-52.6,-54.35899457832,-12.));
#905 = VERTEX_POINT('',#906);
#906 = CARTESIAN_POINT('',(-52.6,54.358994578326,-12.));
#907 = LINE('',#908,#909);
#908 = CARTESIAN_POINT('',(-52.6,-54.35899457832,-12.));
#909 = VECTOR('',#910,1.);
#910 = DIRECTION('',(-0.,1.,0.));
#911 = ORIENTED_EDGE('',*,*,#912,.T.);
#912 = EDGE_CURVE('',#903,#759,#913,.T.);
#913 = LINE('',#914,#915);
#914 = CARTESIAN_POINT('',(-52.6,-54.35899457832,-12.));
#915 = VECTOR('',#916,1.);
#916 = DIRECTION('',(1.,0.,-0.));
#917 = ORIENTED_EDGE('',*,*,#766,.T.);
#918 = ORIENTED_EDGE('',*,*,#919,.F.);
#919 = EDGE_CURVE('',#905,#767,#920,.T.);
#920 = LINE('',#921,#922);
#921 = CARTESIAN_POINT('',(-52.6,54.358994578326,-12.));
#922 = VECTOR('',#923,1.);
#923 = DIRECTION('',(1.,0.,-0.));
#924 = PLANE('',#925);
#925 = AXIS2_PLACEMENT_3D('',#926,#927,#928);
#926 = CARTESIAN_POINT('',(-52.6,-54.35899457832,-12.));
#927 = DIRECTION('',(0.,0.,1.));
#928 = DIRECTION('',(1.,0.,-0.));
#929 = ADVANCED_FACE('',(#930),#955,.T.);
#930 = FACE_BOUND('',#931,.T.);
#931 = EDGE_LOOP('',(#932,#942,#948,#949));
#932 = ORIENTED_EDGE('',*,*,#933,.F.);
#933 = EDGE_CURVE('',#934,#936,#938,.T.);
#934 = VERTEX_POINT('',#935);
#935 = CARTESIAN_POINT('',(-52.6,-54.35899457832,12.));
#936 = VERTEX_POINT('',#937);
#937 = CARTESIAN_POINT('',(-52.6,54.358994578326,12.));
#938 = LINE('',#939,#940);
#939 = CARTESIAN_POINT('',(-52.6,-54.35899457832,12.));
#940 = VECTOR('',#941,1.);
#941 = DIRECTION('',(-0.,1.,0.));
#942 = ORIENTED_EDGE('',*,*,#943,.T.);
#943 = EDGE_CURVE('',#934,#792,#944,.T.);
#944 = LINE('',#945,#946);
#945 = CARTESIAN_POINT('',(-52.6,-54.35899457832,12.));
#946 = VECTOR('',#947,1.);
#947 = DIRECTION('',(1.,0.,-0.));
#948 = ORIENTED_EDGE('',*,*,#791,.T.);
#949 = ORIENTED_EDGE('',*,*,#950,.F.);
#950 = EDGE_CURVE('',#936,#784,#951,.T.);
#951 = LINE('',#952,#953);
#952 = CARTESIAN_POINT('',(-52.6,54.358994578326,12.));
#953 = VECTOR('',#954,1.);
#954 = DIRECTION('',(1.,0.,-0.));
#955 = PLANE('',#956);
#956 = AXIS2_PLACEMENT_3D('',#957,#958,#959);
#957 = CARTESIAN_POINT('',(-52.6,-54.35899457832,12.));
#958 = DIRECTION('',(0.,0.,1.));
#959 = DIRECTION('',(1.,0.,-0.));
#960 = ADVANCED_FACE('',(#961),#980,.F.);
#961 = FACE_BOUND('',#962,.F.);
#962 = EDGE_LOOP('',(#963,#971,#978,#979));
#963 = ORIENTED_EDGE('',*,*,#964,.T.);
#964 = EDGE_CURVE('',#811,#965,#967,.T.);
#965 = VERTEX_POINT('',#966);
#966 = CARTESIAN_POINT('',(-48.6,7.960204194458E-16,-3.25));
#967 = LINE('',#968,#969);
#968 = CARTESIAN_POINT('',(-45.6,7.960204194458E-16,-3.25));
#969 = VECTOR('',#970,1.);
#970 = DIRECTION('',(-1.,0.,0.));
#971 = ORIENTED_EDGE('',*,*,#972,.F.);
#972 = EDGE_CURVE('',#965,#965,#973,.T.);
#973 = CIRCLE('',#974,3.25);
#974 = AXIS2_PLACEMENT_3D('',#975,#976,#977);
#975 = CARTESIAN_POINT('',(-48.6,0.,0.));
#976 = DIRECTION('',(-1.,0.,0.));
#977 = DIRECTION('',(0.,0.,-1.));
#978 = ORIENTED_EDGE('',*,*,#964,.F.);
#979 = ORIENTED_EDGE('',*,*,#810,.T.);
#980 = CYLINDRICAL_SURFACE('',#981,3.25);
#981 = AXIS2_PLACEMENT_3D('',#982,#983,#984);
#982 = CARTESIAN_POINT('',(-45.6,0.,0.));
#983 = DIRECTION('',(-1.,0.,0.));
#984 = DIRECTION('',(0.,0.,-1.));
#985 = ADVANCED_FACE('',(#986,#997),#1000,.T.);
#986 = FACE_BOUND('',#987,.T.);
#987 = EDGE_LOOP('',(#988));
#988 = ORIENTED_EDGE('',*,*,#989,.T.);
#989 = EDGE_CURVE('',#990,#990,#992,.T.);
#990 = VERTEX_POINT('',#991);
#991 = CARTESIAN_POINT('',(-48.6,1.243016501135E-15,-5.075));
#992 = CIRCLE('',#993,5.075);
#993 = AXIS2_PLACEMENT_3D('',#994,#995,#996);
#994 = CARTESIAN_POINT('',(-48.6,0.,0.));
#995 = DIRECTION('',(-1.,0.,0.));
#996 = DIRECTION('',(0.,0.,-1.));
#997 = FACE_BOUND('',#998,.T.);
#998 = EDGE_LOOP('',(#999));
#999 = ORIENTED_EDGE('',*,*,#972,.F.);
#1000 = PLANE('',#1001);
#1001 = AXIS2_PLACEMENT_3D('',#1002,#1003,#1004);
#1002 = CARTESIAN_POINT('',(-48.6,0.,0.));
#1003 = DIRECTION('',(-1.,0.,0.));
#1004 = DIRECTION('',(0.,0.,-1.));
#1005 = ADVANCED_FACE('',(#1006),#1025,.F.);
#1006 = FACE_BOUND('',#1007,.F.);
#1007 = EDGE_LOOP('',(#1008,#1017,#1023,#1024));
#1008 = ORIENTED_EDGE('',*,*,#1009,.F.);
#1009 = EDGE_CURVE('',#1010,#1010,#1012,.T.);
#1010 = VERTEX_POINT('',#1011);
#1011 = CARTESIAN_POINT('',(-52.6,1.243016501135E-15,-5.075));
#1012 = CIRCLE('',#1013,5.075);
#1013 = AXIS2_PLACEMENT_3D('',#1014,#1015,#1016);
#1014 = CARTESIAN_POINT('',(-52.6,0.,0.));
#1015 = DIRECTION('',(-1.,0.,0.));
#1016 = DIRECTION('',(0.,0.,-1.));
#1017 = ORIENTED_EDGE('',*,*,#1018,.F.);
#1018 = EDGE_CURVE('',#990,#1010,#1019,.T.);
#1019 = LINE('',#1020,#1021);
#1020 = CARTESIAN_POINT('',(-48.6,1.243016501135E-15,-5.075));
#1021 = VECTOR('',#1022,1.);
#1022 = DIRECTION('',(-1.,0.,0.));
#1023 = ORIENTED_EDGE('',*,*,#989,.T.);
#1024 = ORIENTED_EDGE('',*,*,#1018,.T.);
#1025 = CYLINDRICAL_SURFACE('',#1026,5.075);
#1026 = AXIS2_PLACEMENT_3D('',#1027,#1028,#1029);
#1027 = CARTESIAN_POINT('',(-48.6,0.,0.));
#1028 = DIRECTION('',(-1.,0.,0.));
#1029 = DIRECTION('',(0.,0.,-1.));
#1030 = ADVANCED_FACE('',(#1031,#1055),#1066,.T.);
#1031 = FACE_BOUND('',#1032,.T.);
#1032 = EDGE_LOOP('',(#1033,#1039,#1040,#1041,#1042,#1043,#1044,#1050,
    #1051,#1052,#1053,#1054));
#1033 = ORIENTED_EDGE('',*,*,#1034,.T.);
#1034 = EDGE_CURVE('',#22,#472,#1035,.T.);
#1035 = LINE('',#1036,#1037);
#1036 = CARTESIAN_POINT('',(67.1,-54.35899457832,-22.3));
#1037 = VECTOR('',#1038,1.);
#1038 = DIRECTION('',(0.,0.,1.));
#1039 = ORIENTED_EDGE('',*,*,#471,.T.);
#1040 = ORIENTED_EDGE('',*,*,#102,.F.);
#1041 = ORIENTED_EDGE('',*,*,#455,.F.);
#1042 = ORIENTED_EDGE('',*,*,#799,.T.);
#1043 = ORIENTED_EDGE('',*,*,#943,.F.);
#1044 = ORIENTED_EDGE('',*,*,#1045,.F.);
#1045 = EDGE_CURVE('',#903,#934,#1046,.T.);
#1046 = LINE('',#1047,#1048);
#1047 = CARTESIAN_POINT('',(-52.6,-54.35899457832,-12.));
#1048 = VECTOR('',#1049,1.);
#1049 = DIRECTION('',(0.,0.,1.));
#1050 = ORIENTED_EDGE('',*,*,#912,.T.);
#1051 = ORIENTED_EDGE('',*,*,#758,.T.);
#1052 = ORIENTED_EDGE('',*,*,#378,.T.);
#1053 = ORIENTED_EDGE('',*,*,#70,.F.);
#1054 = ORIENTED_EDGE('',*,*,#21,.F.);
#1055 = FACE_BOUND('',#1056,.T.);
#1056 = EDGE_LOOP('',(#1057));
#1057 = ORIENTED_EDGE('',*,*,#1058,.F.);
#1058 = EDGE_CURVE('',#1059,#1059,#1061,.T.);
#1059 = VERTEX_POINT('',#1060);
#1060 = CARTESIAN_POINT('',(-5.878304635907E-16,-54.35899457832,-2.4));
#1061 = CIRCLE('',#1062,2.4);
#1062 = AXIS2_PLACEMENT_3D('',#1063,#1064,#1065);
#1063 = CARTESIAN_POINT('',(0.,-54.35899457832,0.));
#1064 = DIRECTION('',(0.,-1.,0.));
#1065 = DIRECTION('',(0.,-0.,-1.));
#1066 = PLANE('',#1067);
#1067 = AXIS2_PLACEMENT_3D('',#1068,#1069,#1070);
#1068 = CARTESIAN_POINT('',(10.685097919217,-54.35899457832,
    -1.290789473684));
#1069 = DIRECTION('',(-0.,-1.,-0.));
#1070 = DIRECTION('',(0.,0.,-1.));
#1071 = ADVANCED_FACE('',(#1072),#1091,.T.);
#1072 = FACE_BOUND('',#1073,.T.);
#1073 = EDGE_LOOP('',(#1074,#1082,#1089,#1090));
#1074 = ORIENTED_EDGE('',*,*,#1075,.T.);
#1075 = EDGE_CURVE('',#1059,#1076,#1078,.T.);
#1076 = VERTEX_POINT('',#1077);
#1077 = CARTESIAN_POINT('',(-5.878304635907E-16,-57.85899457832,-2.4));
#1078 = LINE('',#1079,#1080);
#1079 = CARTESIAN_POINT('',(-5.878304635907E-16,-53.85899457832,-2.4));
#1080 = VECTOR('',#1081,1.);
#1081 = DIRECTION('',(0.,-1.,0.));
#1082 = ORIENTED_EDGE('',*,*,#1083,.F.);
#1083 = EDGE_CURVE('',#1076,#1076,#1084,.T.);
#1084 = CIRCLE('',#1085,2.4);
#1085 = AXIS2_PLACEMENT_3D('',#1086,#1087,#1088);
#1086 = CARTESIAN_POINT('',(0.,-57.85899457832,0.));
#1087 = DIRECTION('',(0.,-1.,0.));
#1088 = DIRECTION('',(0.,-0.,-1.));
#1089 = ORIENTED_EDGE('',*,*,#1075,.F.);
#1090 = ORIENTED_EDGE('',*,*,#1058,.T.);
#1091 = CYLINDRICAL_SURFACE('',#1092,2.4);
#1092 = AXIS2_PLACEMENT_3D('',#1093,#1094,#1095);
#1093 = CARTESIAN_POINT('',(0.,-53.85899457832,0.));
#1094 = DIRECTION('',(0.,-1.,0.));
#1095 = DIRECTION('',(0.,-0.,-1.));
#1096 = ADVANCED_FACE('',(#1097,#1100),#1111,.T.);
#1097 = FACE_BOUND('',#1098,.T.);
#1098 = EDGE_LOOP('',(#1099));
#1099 = ORIENTED_EDGE('',*,*,#1083,.T.);
#1100 = FACE_BOUND('',#1101,.T.);
#1101 = EDGE_LOOP('',(#1102));
#1102 = ORIENTED_EDGE('',*,*,#1103,.F.);
#1103 = EDGE_CURVE('',#1104,#1104,#1106,.T.);
#1104 = VERTEX_POINT('',#1105);
#1105 = CARTESIAN_POINT('',(-3.429011037613E-16,-57.85899457832,-1.4));
#1106 = CIRCLE('',#1107,1.4);
#1107 = AXIS2_PLACEMENT_3D('',#1108,#1109,#1110);
#1108 = CARTESIAN_POINT('',(0.,-57.85899457832,0.));
#1109 = DIRECTION('',(0.,-1.,0.));
#1110 = DIRECTION('',(0.,-0.,-1.));
#1111 = PLANE('',#1112);
#1112 = AXIS2_PLACEMENT_3D('',#1113,#1114,#1115);
#1113 = CARTESIAN_POINT('',(0.,-57.85899457832,0.));
#1114 = DIRECTION('',(0.,-1.,0.));
#1115 = DIRECTION('',(0.,-0.,-1.));
#1116 = ADVANCED_FACE('',(#1117),#1136,.F.);
#1117 = FACE_BOUND('',#1118,.F.);
#1118 = EDGE_LOOP('',(#1119,#1120,#1128,#1135));
#1119 = ORIENTED_EDGE('',*,*,#1103,.F.);
#1120 = ORIENTED_EDGE('',*,*,#1121,.F.);
#1121 = EDGE_CURVE('',#1122,#1104,#1124,.T.);
#1122 = VERTEX_POINT('',#1123);
#1123 = CARTESIAN_POINT('',(-3.429011037613E-16,-48.85899457832,-1.4));
#1124 = LINE('',#1125,#1126);
#1125 = CARTESIAN_POINT('',(-3.429011037613E-16,-48.85899457832,-1.4));
#1126 = VECTOR('',#1127,1.);
#1127 = DIRECTION('',(0.,-1.,0.));
#1128 = ORIENTED_EDGE('',*,*,#1129,.T.);
#1129 = EDGE_CURVE('',#1122,#1122,#1130,.T.);
#1130 = CIRCLE('',#1131,1.4);
#1131 = AXIS2_PLACEMENT_3D('',#1132,#1133,#1134);
#1132 = CARTESIAN_POINT('',(0.,-48.85899457832,0.));
#1133 = DIRECTION('',(0.,-1.,0.));
#1134 = DIRECTION('',(0.,-0.,-1.));
#1135 = ORIENTED_EDGE('',*,*,#1121,.T.);
#1136 = CYLINDRICAL_SURFACE('',#1137,1.4);
#1137 = AXIS2_PLACEMENT_3D('',#1138,#1139,#1140);
#1138 = CARTESIAN_POINT('',(0.,-48.85899457832,0.));
#1139 = DIRECTION('',(0.,-1.,0.));
#1140 = DIRECTION('',(0.,-0.,-1.));
#1141 = ADVANCED_FACE('',(#1142),#1145,.T.);
#1142 = FACE_BOUND('',#1143,.F.);
#1143 = EDGE_LOOP('',(#1144));
#1144 = ORIENTED_EDGE('',*,*,#1129,.F.);
#1145 = PLANE('',#1146);
#1146 = AXIS2_PLACEMENT_3D('',#1147,#1148,#1149);
#1147 = CARTESIAN_POINT('',(0.,-48.85899457832,0.));
#1148 = DIRECTION('',(0.,-1.,0.));
#1149 = DIRECTION('',(0.,-0.,-1.));
#1150 = ADVANCED_FACE('',(#1151,#1175),#1243,.T.);
#1151 = FACE_BOUND('',#1152,.T.);
#1152 = EDGE_LOOP('',(#1153,#1154,#1155,#1156,#1157,#1158,#1164,#1165,
    #1166,#1167,#1168,#1169));
#1153 = ORIENTED_EDGE('',*,*,#39,.T.);
#1154 = ORIENTED_EDGE('',*,*,#61,.T.);
#1155 = ORIENTED_EDGE('',*,*,#297,.F.);
#1156 = ORIENTED_EDGE('',*,*,#774,.F.);
#1157 = ORIENTED_EDGE('',*,*,#919,.F.);
#1158 = ORIENTED_EDGE('',*,*,#1159,.T.);
#1159 = EDGE_CURVE('',#905,#936,#1160,.T.);
#1160 = LINE('',#1161,#1162);
#1161 = CARTESIAN_POINT('',(-52.6,54.358994578326,-12.));
#1162 = VECTOR('',#1163,1.);
#1163 = DIRECTION('',(0.,0.,1.));
#1164 = ORIENTED_EDGE('',*,*,#950,.T.);
#1165 = ORIENTED_EDGE('',*,*,#783,.F.);
#1166 = ORIENTED_EDGE('',*,*,#409,.T.);
#1167 = ORIENTED_EDGE('',*,*,#118,.T.);
#1168 = ORIENTED_EDGE('',*,*,#487,.F.);
#1169 = ORIENTED_EDGE('',*,*,#1170,.F.);
#1170 = EDGE_CURVE('',#32,#480,#1171,.T.);
#1171 = LINE('',#1172,#1173);
#1172 = CARTESIAN_POINT('',(67.1,54.358994578326,-22.3));
#1173 = VECTOR('',#1174,1.);
#1174 = DIRECTION('',(0.,0.,1.));
#1175 = FACE_BOUND('',#1176,.T.);
#1176 = EDGE_LOOP('',(#1177,#1187,#1195,#1203,#1212,#1220,#1228,#1236));
#1177 = ORIENTED_EDGE('',*,*,#1178,.T.);
#1178 = EDGE_CURVE('',#1179,#1181,#1183,.T.);
#1179 = VERTEX_POINT('',#1180);
#1180 = CARTESIAN_POINT('',(-3.872983346207,54.358994578326,4.25));
#1181 = VERTEX_POINT('',#1182);
#1182 = CARTESIAN_POINT('',(-23.,54.358994578326,4.25));
#1183 = LINE('',#1184,#1185);
#1184 = CARTESIAN_POINT('',(-37.8,54.358994578326,4.25));
#1185 = VECTOR('',#1186,1.);
#1186 = DIRECTION('',(-1.,0.,-0.));
#1187 = ORIENTED_EDGE('',*,*,#1188,.T.);
#1188 = EDGE_CURVE('',#1181,#1189,#1191,.T.);
#1189 = VERTEX_POINT('',#1190);
#1190 = CARTESIAN_POINT('',(-23.,54.358994578326,-4.25));
#1191 = LINE('',#1192,#1193);
#1192 = CARTESIAN_POINT('',(-23.,54.358994578326,-1.375));
#1193 = VECTOR('',#1194,1.);
#1194 = DIRECTION('',(0.,0.,-1.));
#1195 = ORIENTED_EDGE('',*,*,#1196,.F.);
#1196 = EDGE_CURVE('',#1197,#1189,#1199,.T.);
#1197 = VERTEX_POINT('',#1198);
#1198 = CARTESIAN_POINT('',(-3.872983346207,54.358994578326,-4.25));
#1199 = LINE('',#1200,#1201);
#1200 = CARTESIAN_POINT('',(-37.8,54.358994578326,-4.25));
#1201 = VECTOR('',#1202,1.);
#1202 = DIRECTION('',(-1.,0.,-0.));
#1203 = ORIENTED_EDGE('',*,*,#1204,.F.);
#1204 = EDGE_CURVE('',#1205,#1197,#1207,.T.);
#1205 = VERTEX_POINT('',#1206);
#1206 = CARTESIAN_POINT('',(3.872983346207,54.358994578326,-4.25));
#1207 = CIRCLE('',#1208,5.75);
#1208 = AXIS2_PLACEMENT_3D('',#1209,#1210,#1211);
#1209 = CARTESIAN_POINT('',(0.,54.358994578326,0.));
#1210 = DIRECTION('',(-0.,1.,0.));
#1211 = DIRECTION('',(1.,0.,0.));
#1212 = ORIENTED_EDGE('',*,*,#1213,.F.);
#1213 = EDGE_CURVE('',#1214,#1205,#1216,.T.);
#1214 = VERTEX_POINT('',#1215);
#1215 = CARTESIAN_POINT('',(23.,54.358994578326,-4.25));
#1216 = LINE('',#1217,#1218);
#1217 = CARTESIAN_POINT('',(-37.8,54.358994578326,-4.25));
#1218 = VECTOR('',#1219,1.);
#1219 = DIRECTION('',(-1.,0.,-0.));
#1220 = ORIENTED_EDGE('',*,*,#1221,.F.);
#1221 = EDGE_CURVE('',#1222,#1214,#1224,.T.);
#1222 = VERTEX_POINT('',#1223);
#1223 = CARTESIAN_POINT('',(23.,54.358994578326,4.25));
#1224 = LINE('',#1225,#1226);
#1225 = CARTESIAN_POINT('',(23.,54.358994578326,-1.375));
#1226 = VECTOR('',#1227,1.);
#1227 = DIRECTION('',(0.,0.,-1.));
#1228 = ORIENTED_EDGE('',*,*,#1229,.T.);
#1229 = EDGE_CURVE('',#1222,#1230,#1232,.T.);
#1230 = VERTEX_POINT('',#1231);
#1231 = CARTESIAN_POINT('',(3.872983346207,54.358994578326,4.25));
#1232 = LINE('',#1233,#1234);
#1233 = CARTESIAN_POINT('',(-37.8,54.358994578326,4.25));
#1234 = VECTOR('',#1235,1.);
#1235 = DIRECTION('',(-1.,0.,-0.));
#1236 = ORIENTED_EDGE('',*,*,#1237,.F.);
#1237 = EDGE_CURVE('',#1179,#1230,#1238,.T.);
#1238 = CIRCLE('',#1239,5.75);
#1239 = AXIS2_PLACEMENT_3D('',#1240,#1241,#1242);
#1240 = CARTESIAN_POINT('',(0.,54.358994578326,0.));
#1241 = DIRECTION('',(-0.,1.,0.));
#1242 = DIRECTION('',(1.,0.,0.));
#1243 = PLANE('',#1244);
#1244 = AXIS2_PLACEMENT_3D('',#1245,#1246,#1247);
#1245 = CARTESIAN_POINT('',(10.685097919217,54.358994578327,
    -1.290789473684));
#1246 = DIRECTION('',(0.,1.,0.));
#1247 = DIRECTION('',(0.,-0.,1.));
#1248 = ADVANCED_FACE('',(#1249),#1274,.T.);
#1249 = FACE_BOUND('',#1250,.T.);
#1250 = EDGE_LOOP('',(#1251,#1261,#1267,#1268));
#1251 = ORIENTED_EDGE('',*,*,#1252,.F.);
#1252 = EDGE_CURVE('',#1253,#1255,#1257,.T.);
#1253 = VERTEX_POINT('',#1254);
#1254 = CARTESIAN_POINT('',(-23.,51.858994578326,4.25));
#1255 = VERTEX_POINT('',#1256);
#1256 = CARTESIAN_POINT('',(-3.872983346207,51.858994578326,4.25));
#1257 = LINE('',#1258,#1259);
#1258 = CARTESIAN_POINT('',(-23.,51.858994578326,4.25));
#1259 = VECTOR('',#1260,1.);
#1260 = DIRECTION('',(1.,0.,0.));
#1261 = ORIENTED_EDGE('',*,*,#1262,.T.);
#1262 = EDGE_CURVE('',#1253,#1181,#1263,.T.);
#1263 = LINE('',#1264,#1265);
#1264 = CARTESIAN_POINT('',(-23.,51.858994578326,4.25));
#1265 = VECTOR('',#1266,1.);
#1266 = DIRECTION('',(0.,1.,0.));
#1267 = ORIENTED_EDGE('',*,*,#1178,.F.);
#1268 = ORIENTED_EDGE('',*,*,#1269,.F.);
#1269 = EDGE_CURVE('',#1255,#1179,#1270,.T.);
#1270 = LINE('',#1271,#1272);
#1271 = CARTESIAN_POINT('',(-3.872983346207,51.858994578326,4.25));
#1272 = VECTOR('',#1273,1.);
#1273 = DIRECTION('',(0.,1.,0.));
#1274 = PLANE('',#1275);
#1275 = AXIS2_PLACEMENT_3D('',#1276,#1277,#1278);
#1276 = CARTESIAN_POINT('',(-23.,51.858994578326,4.25));
#1277 = DIRECTION('',(0.,0.,-1.));
#1278 = DIRECTION('',(0.,1.,0.));
#1279 = ADVANCED_FACE('',(#1280),#1299,.F.);
#1280 = FACE_BOUND('',#1281,.F.);
#1281 = EDGE_LOOP('',(#1282,#1291,#1297,#1298));
#1282 = ORIENTED_EDGE('',*,*,#1283,.T.);
#1283 = EDGE_CURVE('',#1255,#1284,#1286,.T.);
#1284 = VERTEX_POINT('',#1285);
#1285 = CARTESIAN_POINT('',(3.872983346208,51.858994578326,4.25));
#1286 = CIRCLE('',#1287,5.75);
#1287 = AXIS2_PLACEMENT_3D('',#1288,#1289,#1290);
#1288 = CARTESIAN_POINT('',(0.,51.858994578326,0.));
#1289 = DIRECTION('',(-0.,1.,0.));
#1290 = DIRECTION('',(1.,0.,0.));
#1291 = ORIENTED_EDGE('',*,*,#1292,.T.);
#1292 = EDGE_CURVE('',#1284,#1230,#1293,.T.);
#1293 = LINE('',#1294,#1295);
#1294 = CARTESIAN_POINT('',(3.872983346207,51.858994578326,4.25));
#1295 = VECTOR('',#1296,1.);
#1296 = DIRECTION('',(0.,1.,0.));
#1297 = ORIENTED_EDGE('',*,*,#1237,.F.);
#1298 = ORIENTED_EDGE('',*,*,#1269,.F.);
#1299 = CYLINDRICAL_SURFACE('',#1300,5.75);
#1300 = AXIS2_PLACEMENT_3D('',#1301,#1302,#1303);
#1301 = CARTESIAN_POINT('',(0.,51.858994578326,0.));
#1302 = DIRECTION('',(0.,1.,0.));
#1303 = DIRECTION('',(1.,0.,0.));
#1304 = ADVANCED_FACE('',(#1305),#1323,.T.);
#1305 = FACE_BOUND('',#1306,.T.);
#1306 = EDGE_LOOP('',(#1307,#1315,#1316,#1317));
#1307 = ORIENTED_EDGE('',*,*,#1308,.F.);
#1308 = EDGE_CURVE('',#1284,#1309,#1311,.T.);
#1309 = VERTEX_POINT('',#1310);
#1310 = CARTESIAN_POINT('',(23.,51.858994578326,4.25));
#1311 = LINE('',#1312,#1313);
#1312 = CARTESIAN_POINT('',(-23.,51.858994578326,4.25));
#1313 = VECTOR('',#1314,1.);
#1314 = DIRECTION('',(1.,0.,0.));
#1315 = ORIENTED_EDGE('',*,*,#1292,.T.);
#1316 = ORIENTED_EDGE('',*,*,#1229,.F.);
#1317 = ORIENTED_EDGE('',*,*,#1318,.F.);
#1318 = EDGE_CURVE('',#1309,#1222,#1319,.T.);
#1319 = LINE('',#1320,#1321);
#1320 = CARTESIAN_POINT('',(23.,51.858994578326,4.25));
#1321 = VECTOR('',#1322,1.);
#1322 = DIRECTION('',(0.,1.,0.));
#1323 = PLANE('',#1324);
#1324 = AXIS2_PLACEMENT_3D('',#1325,#1326,#1327);
#1325 = CARTESIAN_POINT('',(-23.,51.858994578326,4.25));
#1326 = DIRECTION('',(0.,0.,-1.));
#1327 = DIRECTION('',(0.,1.,0.));
#1328 = ADVANCED_FACE('',(#1329),#1347,.F.);
#1329 = FACE_BOUND('',#1330,.F.);
#1330 = EDGE_LOOP('',(#1331,#1332,#1340,#1346));
#1331 = ORIENTED_EDGE('',*,*,#1318,.F.);
#1332 = ORIENTED_EDGE('',*,*,#1333,.T.);
#1333 = EDGE_CURVE('',#1309,#1334,#1336,.T.);
#1334 = VERTEX_POINT('',#1335);
#1335 = CARTESIAN_POINT('',(23.,51.858994578326,-4.25));
#1336 = LINE('',#1337,#1338);
#1337 = CARTESIAN_POINT('',(23.,51.858994578326,4.25));
#1338 = VECTOR('',#1339,1.);
#1339 = DIRECTION('',(0.,0.,-1.));
#1340 = ORIENTED_EDGE('',*,*,#1341,.T.);
#1341 = EDGE_CURVE('',#1334,#1214,#1342,.T.);
#1342 = LINE('',#1343,#1344);
#1343 = CARTESIAN_POINT('',(23.,51.858994578326,-4.25));
#1344 = VECTOR('',#1345,1.);
#1345 = DIRECTION('',(0.,1.,0.));
#1346 = ORIENTED_EDGE('',*,*,#1221,.F.);
#1347 = PLANE('',#1348);
#1348 = AXIS2_PLACEMENT_3D('',#1349,#1350,#1351);
#1349 = CARTESIAN_POINT('',(23.,51.858994578326,4.25));
#1350 = DIRECTION('',(1.,0.,0.));
#1351 = DIRECTION('',(0.,1.,0.));
#1352 = ADVANCED_FACE('',(#1353),#1371,.F.);
#1353 = FACE_BOUND('',#1354,.F.);
#1354 = EDGE_LOOP('',(#1355,#1363,#1369,#1370));
#1355 = ORIENTED_EDGE('',*,*,#1356,.F.);
#1356 = EDGE_CURVE('',#1357,#1334,#1359,.T.);
#1357 = VERTEX_POINT('',#1358);
#1358 = CARTESIAN_POINT('',(3.872983346208,51.858994578326,-4.25));
#1359 = LINE('',#1360,#1361);
#1360 = CARTESIAN_POINT('',(-23.,51.858994578326,-4.25));
#1361 = VECTOR('',#1362,1.);
#1362 = DIRECTION('',(1.,0.,0.));
#1363 = ORIENTED_EDGE('',*,*,#1364,.T.);
#1364 = EDGE_CURVE('',#1357,#1205,#1365,.T.);
#1365 = LINE('',#1366,#1367);
#1366 = CARTESIAN_POINT('',(3.872983346207,51.858994578326,-4.25));
#1367 = VECTOR('',#1368,1.);
#1368 = DIRECTION('',(0.,1.,0.));
#1369 = ORIENTED_EDGE('',*,*,#1213,.F.);
#1370 = ORIENTED_EDGE('',*,*,#1341,.F.);
#1371 = PLANE('',#1372);
#1372 = AXIS2_PLACEMENT_3D('',#1373,#1374,#1375);
#1373 = CARTESIAN_POINT('',(-23.,51.858994578326,-4.25));
#1374 = DIRECTION('',(0.,0.,-1.));
#1375 = DIRECTION('',(0.,1.,0.));
#1376 = ADVANCED_FACE('',(#1377),#1396,.F.);
#1377 = FACE_BOUND('',#1378,.F.);
#1378 = EDGE_LOOP('',(#1379,#1380,#1381,#1390));
#1379 = ORIENTED_EDGE('',*,*,#1204,.F.);
#1380 = ORIENTED_EDGE('',*,*,#1364,.F.);
#1381 = ORIENTED_EDGE('',*,*,#1382,.T.);
#1382 = EDGE_CURVE('',#1357,#1383,#1385,.T.);
#1383 = VERTEX_POINT('',#1384);
#1384 = CARTESIAN_POINT('',(-3.872983346207,51.858994578326,-4.25));
#1385 = CIRCLE('',#1386,5.75);
#1386 = AXIS2_PLACEMENT_3D('',#1387,#1388,#1389);
#1387 = CARTESIAN_POINT('',(0.,51.858994578326,0.));
#1388 = DIRECTION('',(-0.,1.,0.));
#1389 = DIRECTION('',(1.,0.,0.));
#1390 = ORIENTED_EDGE('',*,*,#1391,.T.);
#1391 = EDGE_CURVE('',#1383,#1197,#1392,.T.);
#1392 = LINE('',#1393,#1394);
#1393 = CARTESIAN_POINT('',(-3.872983346207,51.858994578326,-4.25));
#1394 = VECTOR('',#1395,1.);
#1395 = DIRECTION('',(0.,1.,0.));
#1396 = CYLINDRICAL_SURFACE('',#1397,5.75);
#1397 = AXIS2_PLACEMENT_3D('',#1398,#1399,#1400);
#1398 = CARTESIAN_POINT('',(0.,51.858994578326,0.));
#1399 = DIRECTION('',(0.,1.,0.));
#1400 = DIRECTION('',(1.,0.,0.));
#1401 = ADVANCED_FACE('',(#1402),#1420,.F.);
#1402 = FACE_BOUND('',#1403,.F.);
#1403 = EDGE_LOOP('',(#1404,#1412,#1418,#1419));
#1404 = ORIENTED_EDGE('',*,*,#1405,.F.);
#1405 = EDGE_CURVE('',#1406,#1383,#1408,.T.);
#1406 = VERTEX_POINT('',#1407);
#1407 = CARTESIAN_POINT('',(-23.,51.858994578326,-4.25));
#1408 = LINE('',#1409,#1410);
#1409 = CARTESIAN_POINT('',(-23.,51.858994578326,-4.25));
#1410 = VECTOR('',#1411,1.);
#1411 = DIRECTION('',(1.,0.,0.));
#1412 = ORIENTED_EDGE('',*,*,#1413,.T.);
#1413 = EDGE_CURVE('',#1406,#1189,#1414,.T.);
#1414 = LINE('',#1415,#1416);
#1415 = CARTESIAN_POINT('',(-23.,51.858994578326,-4.25));
#1416 = VECTOR('',#1417,1.);
#1417 = DIRECTION('',(0.,1.,0.));
#1418 = ORIENTED_EDGE('',*,*,#1196,.F.);
#1419 = ORIENTED_EDGE('',*,*,#1391,.F.);
#1420 = PLANE('',#1421);
#1421 = AXIS2_PLACEMENT_3D('',#1422,#1423,#1424);
#1422 = CARTESIAN_POINT('',(-23.,51.858994578326,-4.25));
#1423 = DIRECTION('',(0.,0.,-1.));
#1424 = DIRECTION('',(0.,1.,0.));
#1425 = ADVANCED_FACE('',(#1426),#1437,.T.);
#1426 = FACE_BOUND('',#1427,.T.);
#1427 = EDGE_LOOP('',(#1428,#1429,#1435,#1436));
#1428 = ORIENTED_EDGE('',*,*,#1262,.F.);
#1429 = ORIENTED_EDGE('',*,*,#1430,.T.);
#1430 = EDGE_CURVE('',#1253,#1406,#1431,.T.);
#1431 = LINE('',#1432,#1433);
#1432 = CARTESIAN_POINT('',(-23.,51.858994578326,4.25));
#1433 = VECTOR('',#1434,1.);
#1434 = DIRECTION('',(0.,0.,-1.));
#1435 = ORIENTED_EDGE('',*,*,#1413,.T.);
#1436 = ORIENTED_EDGE('',*,*,#1188,.F.);
#1437 = PLANE('',#1438);
#1438 = AXIS2_PLACEMENT_3D('',#1439,#1440,#1441);
#1439 = CARTESIAN_POINT('',(-23.,51.858994578326,4.25));
#1440 = DIRECTION('',(1.,0.,0.));
#1441 = DIRECTION('',(0.,1.,0.));
#1442 = ADVANCED_FACE('',(#1443,#1449,#1455,#1476),#1497,.F.);
#1443 = FACE_BOUND('',#1444,.T.);
#1444 = EDGE_LOOP('',(#1445,#1446,#1447,#1448));
#1445 = ORIENTED_EDGE('',*,*,#1170,.T.);
#1446 = ORIENTED_EDGE('',*,*,#479,.F.);
#1447 = ORIENTED_EDGE('',*,*,#1034,.F.);
#1448 = ORIENTED_EDGE('',*,*,#31,.T.);
#1449 = FACE_BOUND('',#1450,.F.);
#1450 = EDGE_LOOP('',(#1451,#1452,#1453,#1454));
#1451 = ORIENTED_EDGE('',*,*,#662,.T.);
#1452 = ORIENTED_EDGE('',*,*,#638,.F.);
#1453 = ORIENTED_EDGE('',*,*,#614,.F.);
#1454 = ORIENTED_EDGE('',*,*,#590,.T.);
#1455 = FACE_BOUND('',#1456,.F.);
#1456 = EDGE_LOOP('',(#1457,#1466,#1467,#1468,#1469));
#1457 = ORIENTED_EDGE('',*,*,#1458,.F.);
#1458 = EDGE_CURVE('',#559,#1459,#1461,.T.);
#1459 = VERTEX_POINT('',#1460);
#1460 = CARTESIAN_POINT('',(67.1,-2.081899558551E-16,-18.25));
#1461 = CIRCLE('',#1462,0.85);
#1462 = AXIS2_PLACEMENT_3D('',#1463,#1464,#1465);
#1463 = CARTESIAN_POINT('',(67.1,0.,-19.1));
#1464 = DIRECTION('',(-1.,0.,0.));
#1465 = DIRECTION('',(0.,0.,1.));
#1466 = ORIENTED_EDGE('',*,*,#558,.T.);
#1467 = ORIENTED_EDGE('',*,*,#535,.F.);
#1468 = ORIENTED_EDGE('',*,*,#502,.F.);
#1469 = ORIENTED_EDGE('',*,*,#1470,.F.);
#1470 = EDGE_CURVE('',#1459,#503,#1471,.T.);
#1471 = CIRCLE('',#1472,0.85);
#1472 = AXIS2_PLACEMENT_3D('',#1473,#1474,#1475);
#1473 = CARTESIAN_POINT('',(67.1,0.,-19.1));
#1474 = DIRECTION('',(-1.,0.,0.));
#1475 = DIRECTION('',(0.,0.,1.));
#1476 = FACE_BOUND('',#1477,.F.);
#1477 = EDGE_LOOP('',(#1478,#1479,#1488,#1495,#1496));
#1478 = ORIENTED_EDGE('',*,*,#734,.F.);
#1479 = ORIENTED_EDGE('',*,*,#1480,.F.);
#1480 = EDGE_CURVE('',#1481,#735,#1483,.T.);
#1481 = VERTEX_POINT('',#1482);
#1482 = CARTESIAN_POINT('',(67.1,-2.08189955855E-16,9.25));
#1483 = CIRCLE('',#1484,0.85);
#1484 = AXIS2_PLACEMENT_3D('',#1485,#1486,#1487);
#1485 = CARTESIAN_POINT('',(67.1,0.,8.4));
#1486 = DIRECTION('',(-1.,0.,0.));
#1487 = DIRECTION('',(0.,0.,1.));
#1488 = ORIENTED_EDGE('',*,*,#1489,.F.);
#1489 = EDGE_CURVE('',#711,#1481,#1490,.T.);
#1490 = CIRCLE('',#1491,0.85);
#1491 = AXIS2_PLACEMENT_3D('',#1492,#1493,#1494);
#1492 = CARTESIAN_POINT('',(67.1,0.,8.4));
#1493 = DIRECTION('',(-1.,0.,0.));
#1494 = DIRECTION('',(0.,0.,1.));
#1495 = ORIENTED_EDGE('',*,*,#710,.T.);
#1496 = ORIENTED_EDGE('',*,*,#687,.F.);
#1497 = PLANE('',#1498);
#1498 = AXIS2_PLACEMENT_3D('',#1499,#1500,#1501);
#1499 = CARTESIAN_POINT('',(67.1,-54.35899457832,-22.3));
#1500 = DIRECTION('',(-1.,0.,0.));
#1501 = DIRECTION('',(0.,0.,1.));
#1502 = ADVANCED_FACE('',(#1503,#1513,#1516,#1519),#1522,.T.);
#1503 = FACE_BOUND('',#1504,.T.);
#1504 = EDGE_LOOP('',(#1505,#1506,#1507,#1508,#1509,#1510,#1511,#1512));
#1505 = ORIENTED_EDGE('',*,*,#1405,.F.);
#1506 = ORIENTED_EDGE('',*,*,#1430,.F.);
#1507 = ORIENTED_EDGE('',*,*,#1252,.T.);
#1508 = ORIENTED_EDGE('',*,*,#1283,.T.);
#1509 = ORIENTED_EDGE('',*,*,#1308,.T.);
#1510 = ORIENTED_EDGE('',*,*,#1333,.T.);
#1511 = ORIENTED_EDGE('',*,*,#1356,.F.);
#1512 = ORIENTED_EDGE('',*,*,#1382,.T.);
#1513 = FACE_BOUND('',#1514,.T.);
#1514 = EDGE_LOOP('',(#1515));
#1515 = ORIENTED_EDGE('',*,*,#860,.F.);
#1516 = FACE_BOUND('',#1517,.T.);
#1517 = EDGE_LOOP('',(#1518));
#1518 = ORIENTED_EDGE('',*,*,#835,.F.);
#1519 = FACE_BOUND('',#1520,.T.);
#1520 = EDGE_LOOP('',(#1521));
#1521 = ORIENTED_EDGE('',*,*,#885,.F.);
#1522 = PLANE('',#1523);
#1523 = AXIS2_PLACEMENT_3D('',#1524,#1525,#1526);
#1524 = CARTESIAN_POINT('',(2.028574873434E-15,51.858994578326,
    4.829940174844E-17));
#1525 = DIRECTION('',(0.,1.,0.));
#1526 = DIRECTION('',(0.,-0.,1.));
#1527 = ADVANCED_FACE('',(#1528,#1534),#1537,.F.);
#1528 = FACE_BOUND('',#1529,.T.);
#1529 = EDGE_LOOP('',(#1530,#1531,#1532,#1533));
#1530 = ORIENTED_EDGE('',*,*,#1045,.T.);
#1531 = ORIENTED_EDGE('',*,*,#933,.T.);
#1532 = ORIENTED_EDGE('',*,*,#1159,.F.);
#1533 = ORIENTED_EDGE('',*,*,#902,.F.);
#1534 = FACE_BOUND('',#1535,.F.);
#1535 = EDGE_LOOP('',(#1536));
#1536 = ORIENTED_EDGE('',*,*,#1009,.T.);
#1537 = PLANE('',#1538);
#1538 = AXIS2_PLACEMENT_3D('',#1539,#1540,#1541);
#1539 = CARTESIAN_POINT('',(-52.6,-54.35899457832,-12.));
#1540 = DIRECTION('',(1.,0.,-0.));
#1541 = DIRECTION('',(0.,0.,1.));
#1542 = ADVANCED_FACE('',(#1543),#1551,.F.);
#1543 = FACE_BOUND('',#1544,.F.);
#1544 = EDGE_LOOP('',(#1545,#1546,#1547,#1548,#1549,#1550));
#1545 = ORIENTED_EDGE('',*,*,#568,.F.);
#1546 = ORIENTED_EDGE('',*,*,#1458,.T.);
#1547 = ORIENTED_EDGE('',*,*,#1470,.T.);
#1548 = ORIENTED_EDGE('',*,*,#519,.T.);
#1549 = ORIENTED_EDGE('',*,*,#150,.F.);
#1550 = ORIENTED_EDGE('',*,*,#161,.F.);
#1551 = CYLINDRICAL_SURFACE('',#1552,0.85);
#1552 = AXIS2_PLACEMENT_3D('',#1553,#1554,#1555);
#1553 = CARTESIAN_POINT('',(68.1,0.,-19.1));
#1554 = DIRECTION('',(-1.,0.,0.));
#1555 = DIRECTION('',(0.,0.,1.));
#1556 = ADVANCED_FACE('',(#1557),#1565,.F.);
#1557 = FACE_BOUND('',#1558,.F.);
#1558 = EDGE_LOOP('',(#1559,#1560,#1561,#1562,#1563,#1564));
#1559 = ORIENTED_EDGE('',*,*,#744,.T.);
#1560 = ORIENTED_EDGE('',*,*,#248,.F.);
#1561 = ORIENTED_EDGE('',*,*,#257,.F.);
#1562 = ORIENTED_EDGE('',*,*,#720,.F.);
#1563 = ORIENTED_EDGE('',*,*,#1489,.T.);
#1564 = ORIENTED_EDGE('',*,*,#1480,.T.);
#1565 = CYLINDRICAL_SURFACE('',#1566,0.85);
#1566 = AXIS2_PLACEMENT_3D('',#1567,#1568,#1569);
#1567 = CARTESIAN_POINT('',(68.1,0.,8.4));
#1568 = DIRECTION('',(-1.,0.,0.));
#1569 = DIRECTION('',(0.,0.,1.));
#1570 = ( GEOMETRIC_REPRESENTATION_CONTEXT(3) 
GLOBAL_UNCERTAINTY_ASSIGNED_CONTEXT((#1574)) 
GLOBAL_UNIT_ASSIGNED_CONTEXT((#1571,#1572,#1573)) REPRESENTATION_CONTEXT
('Context #1','3D Context with UNIT and UNCERTAINTY') );
#1571 = ( LENGTH_UNIT() NAMED_UNIT(*) SI_UNIT(.MILLI.,.METRE.) );
#1572 = ( NAMED_UNIT(*) PLANE_ANGLE_UNIT() SI_UNIT($,.RADIAN.) );
#1573 = ( NAMED_UNIT(*) SI_UNIT($,.STERADIAN.) SOLID_ANGLE_UNIT() );
#1574 = UNCERTAINTY_MEASURE_WITH_UNIT(LENGTH_MEASURE(1.E-07),#1571,
  'distance_accuracy_value','confusion accuracy');
#1575 = PRODUCT_RELATED_PRODUCT_CATEGORY('part',$,(#7));
ENDSEC;
END-ISO-10303-21;
